<svg xmlns="http://www.w3.org/2000/svg" viewBox="0 0 580.43 533.28"><defs><style>.cls-1{fill:#fff;}.cls-2{fill:none;}.cls-10,.cls-2,.cls-3,.cls-4,.cls-5,.cls-6,.cls-7,.cls-8,.cls-9{stroke:#262262;}.cls-2,.cls-3,.cls-4,.cls-5,.cls-6,.cls-7,.cls-8,.cls-9{stroke-linecap:round;stroke-linejoin:round;}.cls-3{fill:#3b86ff;}.cls-4{fill:#2ad575;}.cls-5{fill:#ff376e;}.cls-6{fill:#fff000;}.cls-7{fill:#ffea00;}.cls-8{fill:#66dccc;}.cls-9{fill:#cb84f0;}.cls-10{fill:#f2f2f1;stroke-miterlimit:10;}.cls-11{fill:#ff4d4e;}</style></defs><g id="Capa_13" data-name="Capa 13"><g id="Capa_11" data-name="Capa 11"><path class="cls-1" d="M73.33,207.57a5.47,5.47,0,0,1,1.76-7.69L204,121.82a6.07,6.07,0,0,1,8,1.76l134.3,197.77a5.63,5.63,0,0,1-1.52,7.84L215.27,415.86a5.58,5.58,0,0,1-7.8-1.6Z"/><path class="cls-2" d="M73.33,207.57a5.47,5.47,0,0,1,1.76-7.69L204,121.82a6.07,6.07,0,0,1,8,1.76l134.3,197.77a5.63,5.63,0,0,1-1.52,7.84L215.27,415.86a5.58,5.58,0,0,1-7.8-1.6Z"/><ellipse class="cls-3" cx="124.72" cy="216.42" rx="26.97" ry="27.82"/><path class="cls-4" d="M234.4,174.69c-5.3-.65-9.29-5.49-9.29-5.49l-17.68-29.26-46.86,28.11s13.23,23.47,17.83,29.49a17.24,17.24,0,0,0,12.7,6.85Z"/><path class="cls-5" d="M176.67,207.46c-11.46,6.44-8.27,17.9-6.28,22.1-4.91-9.64-13.83-10.61-18.25-9a18.8,18.8,0,0,0-1.93.85l-1.19.63c11.74-6.64,8.09-18.29,6.09-22.5,5.59,8.77,11.54,11.82,20.35,8.51Z"/><line class="cls-6" x1="141.62" y1="282.07" x2="224.39" y2="231.71"/><line class="cls-6" x1="135.26" y1="271.62" x2="218.03" y2="221.26"/><line class="cls-6" x1="147.98" y1="292.52" x2="230.75" y2="242.16"/><line class="cls-6" x1="153.67" y1="301.86" x2="236.43" y2="251.5"/><line class="cls-6" x1="160.03" y1="312.31" x2="242.79" y2="261.95"/><path class="cls-7" d="M209.13,183.67,186.9,197.43V184.86s17.91-9,17.17-10.19c-.36-.57-6.95,2.58-11.67,4.74-3.84,1.77-9.42,4.54-13.92,2.35s-5.59-10.84,1.27-16.94c4.63-4.11,22.24-14.06,22.24-14.06v11.87s-12.18,6.33-14.58,8.74-1.69,3.33.71,2.73,13.93-6.45,15.56-7.13c5.79-2.43,11.12-.85,12.71,4.86,1.93,6.95-7.26,11.84-7.26,11.84"/><polygon class="cls-8" points="174.86 329.97 239.44 290.31 279.73 352.15 215.26 394.04 174.86 329.97"/><rect class="cls-9" x="274.25" y="299.31" width="11.39" height="46.83" transform="translate(-130.59 204.46) rotate(-32.99)"/><rect class="cls-9" x="293.21" y="298.29" width="11.39" height="35.95" transform="translate(-124.01 213.74) rotate(-32.99)"/><rect class="cls-9" x="311.18" y="296.39" width="11.39" height="27.48" transform="translate(-117.77 222.54) rotate(-32.99)"/><polygon class="cls-10" points="147.41 354.87 122.75 356.12 120.81 380.95 118.62 356.06 93.94 354.11 118.68 351.89 121.56 326.99 122.81 351.97 147.41 354.87"/><polygon class="cls-10" points="306.34 114.28 280.24 115.61 278.19 141.88 275.88 115.55 249.76 113.48 275.94 111.14 278.99 84.78 280.31 111.21 306.34 114.28"/><polygon class="cls-10" points="395.66 354.62 377.86 355.52 376.46 373.45 374.88 355.48 357.07 354.07 374.93 352.47 377.01 334.5 377.91 352.53 395.66 354.62"/></g><g id="Capa_9" data-name="Capa 9"><path class="cls-11" d="M450,380.69c-.76-.06-17.38-22.49-29.82-36.63s-38.84-36.63-43.1-37.14-16.87,0-25.22-2.05-18.23-11.76-18.23-11.76c-14.49-10.39-24.2-29-24.2-29-3.92-.68-16.87.17-21.81.51s-7,3.07-7,3.07-.34,3.4-8.18,16.18-14,12.78-16.7,11.42-2.22-11.59-2.22-16.19.52-14.48,2.05-16.87,12.78-12.6,15.33-14,11.42-7.15,11.42-7.15-14.48,3.23-17.38,4.77a16.77,16.77,0,0,0-8.18,8.86c-2.38,5.28-6,11.41-11.75,15.33s-8.52-.68-8.52-.68c-3.41-5.62,1.19-16.53,1.19-16.53-3.75,2-6,1.88-6,1.88l22.49-22a9.13,9.13,0,0,1-3.07-1.54c-5.11-2.55-7.5-11.58-7.5-11.58-7,4.43-12.8,4.65-16.53,3.06-5.36-2.27-1.36-8.17,0-9.71s13.47-9.54,16-11.58,12-10.36,16.36-12.78c18.18-10,28.11-14,28.11-14l24.71,1.37s34.76,3.83,42.43,5.11,22.74,4.6,28.62,8.94,32.21,30.16,35,32.21,17.89,23.77,17.89,23.77S455,267.37,463.55,277s56.38,47.89,56.38,47.89-5.27,18.74-23.45,34.56C475.58,377.64,466.4,382.18,450,380.69Z"/><ellipse class="cls-3" cx="189.81" cy="287.54" rx="2.93" ry="0.98" transform="translate(-151.79 242.64) rotate(-49.08)"/><polyline class="cls-3" points="204.21 278.79 191.17 288.55 188.85 286.15 199.16 273.06"/><polygon class="cls-3" points="325.57 139.06 329.52 141.96 325.57 145.91 321.71 142.49 325.57 139.06"/><polygon class="cls-3" points="288.35 181.35 260.9 209.46 282.33 205.69 297.82 189.35 288.35 181.35"/><path class="cls-2" d="M450,380.69c-.76-.06-17.38-22.49-29.82-36.63s-38.84-36.63-43.1-37.14-16.87,0-25.22-2.05-18.23-11.76-18.23-11.76c-14.49-10.39-24.2-29-24.2-29-3.92-.68-16.87.17-21.81.51s-6.27,2.34-7,3.07-.34,3.4-8.18,16.18-14,12.78-16.7,11.42-2.22-11.59-2.22-16.19.52-14.48,2.05-16.87,12.78-12.6,15.33-14,11.42-7.15,11.42-7.15-14.48,3.23-17.38,4.77a16.77,16.77,0,0,0-8.18,8.86c-2.38,5.28-6,11.41-11.75,15.33s-8.52-.68-8.52-.68c-3.41-5.62,1.19-16.53,1.19-16.53-3.75,2-6,1.88-6,1.88l22.49-22a9.13,9.13,0,0,1-3.07-1.54c-5.11-2.55-7.5-11.58-7.5-11.58-7,4.43-12.78,4.6-16.53,3.06s-4.25-5.35,0-9.71c3-3.07,13.47-9.54,16-11.58s11.93-10.4,16.36-12.78,21.52-12.73,28.11-14c5.89-1.11,24.71,1.37,24.71,1.37s34.76,3.83,42.43,5.11,22.74,4.6,28.62,8.94,32.21,30.16,35,32.21,17.89,23.77,17.89,23.77S455,267.37,463.55,277s56.38,47.89,56.38,47.89-7.81,20.21-23.45,34.56C482.11,372.64,466.4,382.18,450,380.69Z"/><path class="cls-3" d="M287.68,177.05c-.9,1.2-1.22,5.47,3.75,9.8,4.17,3.63,9.71,2.72,11.16,1.57s36.6-44.08,36.6-44.08,2.34-3-1-6a5,5,0,0,0-6.64-.17S288.57,175.84,287.68,177.05Z"/><path class="cls-2" d="M363.28,218.59s-11.2-5.59-22.17-10.4c-7.63-3.34-15.16-6.3-18.72-6.72-8.69-1-42.43,4.6-42.43,4.6s-21.64,3.37-28.12,5.62c-6.8,2.37-7.69,3.45-8.19,8"/><path class="cls-2" d="M369.69,202.83c2.56-.32-28.58,5.36-28.58,5.36"/><path class="cls-2" d="M254.22,232.8c11,5.41,31.09,3,41.66,4.3s15.86,2.7,18.26,3.62c3.36,1.29,4.42,3.07,10.46,10.37S352.39,280,352.39,280"/><path class="cls-2" d="M237.69,252.9s18.09-9.64,26.21-17.32"/><line class="cls-2" x1="294.36" y1="236.95" x2="282.33" y2="241.15"/><path class="cls-2" d="M307.33,259.34a43.54,43.54,0,0,0,4.27,8.6"/><path class="cls-3" d="M327.13,139.92c-1.15,1.24-28.51,27.26-28.51,27.26a2.73,2.73,0,0,1-2.79-.37c-1.3-1.1-.74-2.22.22-3.12s26.71-25.22,27.8-26.19c.57-.51,2.66-2.59,4.1-1.28s.33,2.47-.82,3.7"/><path class="cls-3" d="M245.21,223.93s-43.05,42.38-45.35,45,.06,6.27,1.55,7.73,4.53,3.82,6.82,2.2,46-46.08,46-46.08S247.11,230.51,245.21,223.93Z"/></g></g></svg>