<svg width="150" height="150" viewBox="0 0 150 150" fill="none" xmlns="http://www.w3.org/2000/svg">
<circle cx="75" cy="75" r="75" fill="#2AD575"/>
<mask id="mask0_764:25156" style="mask-type:alpha" maskUnits="userSpaceOnUse" x="0" y="0" width="150" height="150">
<circle cx="75" cy="75" r="75" fill="#C4C4C4"/>
</mask>
<g mask="url(#mask0_764:25156)">
<path d="M112.19 40.4102C112.19 40.4102 117.98 84.2514 95.8003 86.8031C95.8003 86.8031 92.962 97.0687 105.638 103.928C105.638 103.928 111.89 107.896 117.56 109.597C123.23 111.298 126.203 116.821 128.614 121.495L135.555 140.486L13.188 141.199C13.188 141.199 14.0801 124.997 23.5184 115.203C32.9601 105.409 46.1392 113.777 58.7844 92.0547L65.9355 44.942L91.9975 32.1729L98.6938 24.2422H99.7237L112.19 40.4102Z" fill="#AE5D46"/>
<path d="M98.6972 98.0741C100.003 99.4895 82.225 94.3653 77.1408 85.1294C75.7457 82.5949 74.2232 79.165 78.2706 82.7395C85.0117 88.6901 95.8037 86.8099 95.8037 86.8099C95.8037 86.8099 94.8496 93.9038 98.6972 98.0741Z" fill="#7A3525"/>
<path d="M126.28 118.376C57.074 135.419 20.4011 120.076 20.4011 120.076C20.4011 120.076 12.6182 126.519 11.8332 137.582C11 149.324 11 150.467 11 150.467L18.733 150.467H22.1162H25.5873H29.0144H32.4416H39.2958H43.6896H48.1712H52.6118H57.0467H59.3314H61.5283L66.0099 150.467H74.8608H138.771C138.767 150.463 128.757 117.765 126.28 118.376Z" fill="#F78F2D"/>
<path d="M119.166 119.227L102.018 139.632L114.573 149.724L128.074 149.646L119.166 119.227Z" fill="#587CBE"/>
<path d="M31.4162 122.723L24.5908 150.347L34.0207 150.294L42.5039 146.037L33.5453 139.912L45.7781 135.2L31.4162 122.723Z" fill="#587CBE"/>
<path d="M20.4938 119.273L29.2585 130.628L12.2288 135.212C12.2288 135.212 13.1232 129.585 16.9292 123.786C21.2844 117.151 20.4938 119.273 20.4938 119.273Z" fill="#5EB563"/>
<path d="M121.146 118.652L131.394 149.662" stroke="#E94549" stroke-miterlimit="10"/>
<path d="M123.25 118.215L134.387 149.642" stroke="#E94549" stroke-miterlimit="10"/>
<path d="M126.358 117.559L137.252 149.626" stroke="#E94549" stroke-miterlimit="10"/>
<path d="M46.9124 124.891L44.5767 150.461" stroke="#E94549" stroke-miterlimit="10"/>
<path d="M85.6538 124.09L88.7048 149.904" stroke="#5EB563" stroke-miterlimit="10"/>
<path d="M83.438 124.312L86.059 149.929" stroke="#5EB563" stroke-miterlimit="10"/>
<path d="M81.7183 124.312L83.4381 149.945" stroke="#5EB563" stroke-miterlimit="10"/>
<path d="M98.7704 123.223L102.018 139.743L91.1504 149.871L88.1016 124.315" stroke="#587CBE" stroke-miterlimit="10"/>
<path d="M88.1016 124.262C88.1016 124.262 111.937 121.597 126.423 117.551" stroke="#2A255C" stroke-miterlimit="10"/>
<path d="M38.2848 123.742C38.2848 123.742 23.8527 120.954 20.2974 119.227" stroke="#2A255C" stroke-miterlimit="10"/>
<path d="M112.837 48.8643C112.837 48.8643 115.19 29.6005 99.7236 24.2422L100.213 33.6468C100.213 33.6468 100.709 36.1263 102.552 37.4727C104.395 38.8192 112.779 45.5998 112.837 48.8643Z" fill="#010202"/>
<path d="M71.869 66.6656C73.0093 66.6106 69.2644 82.5534 80.9435 102.447C91.0343 119.634 84.3606 144.264 84.3606 144.264L52.9757 140.71L48.0664 88.7868C48.0664 88.7868 43.7531 59.5383 56.5449 40.8312C72.8508 16.9875 98.6481 24.1664 98.6481 24.1664C98.6481 24.1664 98.6481 31.0978 98.6481 33.7761C98.6481 36.4544 95.8782 37.0389 83.1725 45.012C77.2158 48.7493 75.5691 55.6635 75.5691 55.6635C75.5691 55.6635 74.911 50.9222 71.2557 50.9944C67.6004 51.0667 67.8209 56.7568 68.7718 58.2902C69.7226 59.8237 68.1861 62.5226 68.0414 63.5438C67.8967 64.5649 68.2274 66.841 71.869 66.6656Z" fill="#010202"/>
<path d="M113.581 45.8719C113.581 45.8719 108.215 39.0087 106.199 37.3626C104.184 35.7166 100.599 32.8032 99.7271 30.6406" stroke="#404440" stroke-miterlimit="10"/>
<path d="M99.2173 27.1484C99.2173 27.1484 105.693 33.2437 106.348 33.7362C108.921 35.668 112.731 39.7419 113.289 41.2261" stroke="#404440" stroke-miterlimit="10"/>
<path d="M99.373 24.75C99.373 24.75 108.191 29.6641 111.529 35.1808" stroke="#404440" stroke-miterlimit="10"/>
<path d="M99.3037 30.0273C99.3037 30.0273 83.3 40.9403 81.1058 43.2613C78.9116 45.5823 76.8035 48.568 74.375 52.6866" stroke="#404440" stroke-width="0.5" stroke-miterlimit="10"/>
<path d="M71.9189 66.8164C71.9189 66.8164 68.116 86.4039 74.2233 98.3087C80.3306 110.213 83.6857 125.421 82.3974 131.364C80.7199 139.102 79.0802 140.979 79.0802 140.979" stroke="#404440" stroke-width="0.5" stroke-miterlimit="10"/>
<path d="M99.0452 27.8633C99.0452 27.8633 86.8444 30.7215 79.0768 40.9182C71.3091 51.1149 72.5768 51.3077 72.5768 51.3077" stroke="#404440" stroke-width="0.5" stroke-miterlimit="10"/>
<path d="M69.5698 66.457C69.5698 66.457 65.7531 75.6378 66.5282 84.7945C67.3032 93.9512 69.3355 101.176 71.609 105.301C73.8825 109.427 78.4741 117.685 79.0804 124.131C79.6901 130.581 76.6726 138.846 75.6633 140.967" stroke="#404440" stroke-width="0.5" stroke-miterlimit="10"/>
<path d="M99.045 26.125C99.045 26.125 84.7843 29.9543 75.9764 38.5463C67.1685 47.1382 61.3643 63.0031 60.7167 68.5509C60.0725 74.0986 55.04 92.8872 61.4917 105.57C67.2029 116.797 72.4973 128.787 68.9114 140.888" stroke="#404440" stroke-width="0.5" stroke-miterlimit="10"/>
<path d="M68.8222 58.4258C68.8222 58.4258 61.7263 71.918 62.2086 82.7277C62.6908 93.5373 63.0422 96.6642 64.7197 101.051C66.3972 105.435 73.5345 116.272 73.7722 125.043C74.0098 133.814 73.2038 137.306 71.6055 140.977" stroke="#404440" stroke-width="0.5" stroke-miterlimit="10"/>
<path d="M99.028 25.2539C99.028 25.2539 73.4724 30.4469 64.8781 47.0488C64.8781 47.0488 52.6876 64.6562 53.3007 85.0358C53.9138 105.415 59.7594 115.264 60.2623 116.156C60.7652 117.051 66.1732 126.305 65.8012 131.704C65.4292 137.104 64.7162 140.971 64.7162 140.971" stroke="#404440" stroke-width="0.5" stroke-miterlimit="10"/>
<path d="M98.6972 24.5664C98.6972 24.5664 74.6572 26.0472 61.5332 44.8151C48.4092 63.583 50.7308 87.8849 50.7308 87.8849C50.7308 87.8849 49.7698 106.98 53.2799 111.591C56.7899 116.199 58.0679 119.098 59.4698 123.84C60.8718 128.582 61.5332 137.25 61.137 140.883" stroke="#404440" stroke-width="0.5" stroke-miterlimit="10"/>
<path d="M94.1057 23C94.1057 23 75.181 24.8045 62.6942 35.9998C50.2075 47.1951 48.3612 76.2975 48.3612 76.2975L47.9409 93.4435" stroke="#404440" stroke-width="0.5" stroke-miterlimit="10"/>
<path d="M51.73 107.641C51.73 107.641 52.5774 114.418 54.9473 121.567C57.3172 128.716 56.1322 141.209 56.1322 141.209" stroke="#404440" stroke-width="0.5" stroke-miterlimit="10"/>
<path d="M98.4424 32.1562C98.4424 32.1562 99.7238 37.3665 93.2307 40.4004C88.1326 42.7834 79.4246 48.0556 77.1133 50.7141" stroke="#010202" stroke-width="0.5" stroke-miterlimit="10"/>
<path d="M75.9767 38.5469L79.0768 40.923L76.266 44.2392L73.0591 41.4602L75.9767 38.5469Z" fill="#F78F2D"/>
<path d="M62.6904 93.5371L67.6886 92.8828L68.9149 97.4216L63.5791 98.3031L62.6904 93.5371Z" fill="#F78F2D"/>
<path d="M56.7314 117.748L60.2622 116.164L62.2084 119.621L58.099 121.567L56.7314 117.748Z" fill="#F78F2D"/>
<path d="M71.605 54.3203C71.605 54.3203 75.2769 55.7839 73.0552 62.6333" stroke="#7A3525" stroke-miterlimit="10"/>
<path d="M71.3881 60.6857C71.3881 60.6857 71.1642 58.0169 73.7684 58.6746" stroke="#7A3525" stroke-miterlimit="10"/>
<path d="M104.915 49.9258C104.915 49.9258 110.282 49.9809 111.45 50.3252C112.617 50.6696 112.945 51.1655 112.945 51.1655V52.264C112.945 52.264 112.214 51.8301 109.307 51.9989C106.4 52.1676 104.777 51.9162 104.633 51.7819C104.485 51.6476 103.92 49.9809 104.915 49.9258Z" fill="#010202"/>
<path d="M95.9247 49.4603C95.9247 49.4603 91.4226 48.472 87.7196 49.3674C85.7665 49.8391 84.5781 51.7228 84.5781 51.7228C84.5781 51.7228 86.7138 50.855 88.2156 50.7827C89.7175 50.7104 93.9682 51.6402 95.6457 51.5954C96.8375 51.5644 95.9247 49.4603 95.9247 49.4603Z" fill="#010202"/>
<path d="M94.1057 54.3155C94.1057 54.3155 92.125 52.4938 87.833 54.0985" stroke="#010202" stroke-miterlimit="10" stroke-linecap="round"/>
<path d="M91.1054 53.4414C90.2132 55.4387 92.0492 55.5937 92.0492 55.5937C92.0492 55.5937 93.6957 55.635 93.4064 53.896" fill="#010202"/>
<path d="M105.776 54.8148C105.776 54.8148 107.864 54.0538 110.744 54.8148" stroke="#010202" stroke-miterlimit="10" stroke-linecap="round"/>
<path d="M108.143 54.5156C107.454 56.2271 109.155 56.234 109.155 56.234C109.155 56.234 110.413 56.3649 110.247 54.8083" fill="#010202"/>
<path d="M101.712 52.6875C101.712 52.6875 102.511 62.3676 102.58 63.3009C102.648 64.2341 102.245 67.5021 97.9087 65.3016" stroke="#010202" stroke-miterlimit="10"/>
<path d="M96.5104 62.9609C96.5104 62.9609 94.4436 64.1628 96.5104 65.3612" stroke="#010202" stroke-miterlimit="10"/>
<path d="M91.8911 72.4512C91.8911 72.4512 97.5644 69.9786 100.847 70.1577C104.126 70.3368 104.302 72.7026 104.302 72.7026C104.302 72.7026 102.6 76.0257 98.7666 75.7571C94.9327 75.4885 91.8911 72.4512 91.8911 72.4512Z" fill="#7A3525"/>
<path d="M104.298 72.6978C104.298 72.6978 95.1976 73.9099 89.8516 71.8438" stroke="#010202" stroke-miterlimit="10"/>
<path d="M70.7479 64.8125C70.7479 64.8125 77.1136 66.4551 77.1136 72.4505C77.1136 79.7855 73.0833 81.1733 69.4906 81.1733C64.5269 81.1733 61.5266 76.7482 62.6909 71.8444C63.342 69.093 65.0505 66.0488 68.3746 65.3635" stroke="#F78F2D" stroke-miterlimit="10"/>
</g>
</svg>
