<svg width="101" height="101" viewBox="0 0 101 101" fill="none" xmlns="http://www.w3.org/2000/svg">
<ellipse cx="50.9315" cy="50.4993" rx="49.9618" ry="49.7024" fill="#F78F2D"/>
<path d="M78.5933 54.2505L71.8887 59.6741V51.1797H77.7908C78.1224 52.1883 78.3907 53.2126 78.5933 54.2505V54.2505Z" fill="#FFE047"/>
<path d="M74.4892 51.9136L24.0701 51.1797C23.7385 52.1883 23.4702 53.2126 23.2676 54.2505L47.6388 68.3429L54.2229 68.3428L75.285 54.9561C75.0926 53.9318 74.8277 52.9169 74.4892 51.9136V51.9136Z" fill="#FEF575"/>
<path d="M73.6611 43.1913L70.6713 39.0751C69.6876 37.7205 69.3107 36.0651 69.6208 34.4578L71.5508 24.4453H68.1006L52.6934 37.0495L74.4883 51.9131C75.5931 51.6846 76.694 51.4403 77.792 51.1792C76.8738 48.3799 75.4767 45.7033 73.6611 43.1913V43.1913Z" fill="#FF9C6E"/>
<path d="M67.8538 40.8302L70.8388 44.9411C72.4643 47.19 73.6823 49.5196 74.4883 51.9131C66.7377 53.5183 58.8354 54.3245 50.9308 54.3245C41.9 54.3245 32.8714 53.2719 24.0703 51.1792C24.9883 48.3799 26.3852 45.7033 28.2009 43.1913L31.1904 39.0751C32.1741 37.7205 32.551 36.0651 32.2409 34.4578L30.3109 24.4453H68.1006L66.277 33.9043C65.8106 36.3282 66.3698 38.7878 67.8538 40.8302V40.8302Z" fill="#FFBE8F"/>
<path d="M78.5934 54.25L75.2846 54.9556L73.3184 76.5512H76.7414C76.7414 76.5512 79.0597 64.7291 79.0597 59.0424C79.0597 57.4184 78.9012 55.8185 78.5934 54.25Z" fill="#FF9C6E"/>
<path d="M47.6387 68.3427L42.0028 62.1363C39.1559 59.0025 35.2868 56.8103 30.9763 55.8929L23.2676 54.25L45.8368 76.5512H49.2327V72.3917C49.2327 70.9103 48.6682 69.4765 47.6387 68.3427Z" fill="#FF9C6E"/>
<path d="M44.4508 68.3427L39.552 62.1363C37.0774 59.0025 33.7144 56.8103 29.9676 55.8929L23.2672 54.25C22.9593 55.8185 22.8008 57.4184 22.8008 59.0424C22.8008 64.7291 25.1191 76.5512 25.1191 76.5512H45.8364V72.3917C45.8364 70.9103 45.3458 69.4765 44.4508 68.3427V68.3427Z" fill="#FFBE8F"/>
<path d="M75.2853 54.9551L70.8853 55.8924C66.5759 56.8098 62.7057 59.002 59.8588 62.1358L54.2229 68.3422C53.1934 69.476 52.6289 70.9098 52.6289 72.3912V76.5507H73.3191C73.4741 75.6794 73.7605 74.069 73.8782 73.4054C74.5427 69.6761 75.6645 62.8215 75.6645 59.0419C75.6645 57.6642 75.5377 56.3013 75.2853 54.9551V54.9551Z" fill="#FFBE8F"/>
<path d="M58.98 38.3041L56.5787 36.0801L50.9309 41.311L45.2832 36.0801L42.8818 38.3041L48.5297 43.5352L42.8818 48.7661L45.2832 50.9901L50.9309 45.7592L56.5787 50.9901L58.98 48.7661L53.3322 43.5352L58.98 38.3041Z" fill="#FE5E49"/>
<path d="M74.3653 42.7519L71.3752 38.6355C70.5097 37.4439 70.1832 36.0092 70.4557 34.5954L72.3861 24.5828C72.4302 24.3537 72.3625 24.1183 72.2012 23.9398C72.0399 23.7614 71.8015 23.6582 71.5503 23.6582H30.3107C30.0594 23.6582 29.821 23.7613 29.6598 23.9398C29.4985 24.1183 29.4308 24.3537 29.475 24.5828L31.4053 34.5954C31.6779 36.0091 31.3513 37.4439 30.4858 38.6355L27.4947 42.7534C26.298 44.4092 25.2775 46.1404 24.462 47.8991C24.2769 48.2981 24.4761 48.7606 24.9069 48.932C25.338 49.1035 25.8371 48.9189 26.0221 48.5198C26.7968 46.8497 27.767 45.204 28.9047 43.6298L31.8948 39.5133C33.0076 37.9813 33.4274 36.1366 33.077 34.3191L31.3247 25.231H70.5364L68.7842 34.3191C68.4339 36.1367 68.8536 37.9814 69.9665 39.5133L72.9554 43.6283C74.5862 45.8844 75.8391 48.22 76.713 50.6193C68.2772 52.556 59.6082 53.5377 50.9306 53.5377C41.9554 53.5377 32.9891 52.4877 24.2805 50.4168C23.8403 50.3119 23.3891 50.5471 23.257 50.9498C22.3911 53.5903 21.9521 56.3127 21.9521 59.0417C21.9521 64.7345 24.1889 76.2054 24.2841 76.691C24.3575 77.065 24.7091 77.3368 25.1194 77.3368L49.2325 77.337C49.7014 77.337 50.0815 76.985 50.0815 76.5507V72.3913C50.0815 71.2497 49.7816 70.13 49.2201 69.1282H52.6406C52.0791 70.13 51.7792 71.2496 51.7792 72.3912V76.5507C51.7792 76.7592 51.8686 76.9593 52.0279 77.1067C52.1872 77.2542 52.403 77.337 52.6282 77.337L76.7417 77.3368C77.152 77.3368 77.5036 77.065 77.5769 76.691C77.6721 76.2054 79.9088 64.7345 79.9088 59.0417C79.909 53.3219 78.0442 47.8416 74.3653 42.7519V42.7519ZM24.6573 52.1271C33.2527 54.1069 42.0874 55.1104 50.9306 55.1104C59.7757 55.1104 68.6121 54.1064 77.209 52.1258C77.3583 52.6323 77.4932 53.1411 77.6091 53.6529L70.6942 55.1258C66.2338 56.076 62.1549 58.3858 59.2087 61.63L53.8273 67.5557H48.0338L42.6524 61.6302C39.7061 58.3859 35.627 56.0759 31.1668 55.1258L24.2587 53.6542C24.3749 53.1428 24.508 52.6334 24.6573 52.1271V52.1271ZM48.3835 75.7645L25.8314 75.7643C25.3534 73.2242 23.6501 63.838 23.6501 59.0417C23.6501 57.7581 23.7531 56.4759 23.9578 55.2038L30.7862 56.6584C34.8895 57.5325 38.6423 59.6576 41.3529 62.6424L46.9886 68.8481C47.8882 69.8386 48.3836 71.097 48.3835 72.3913V75.7645ZM76.0296 75.7642L53.4773 75.7644V72.3912C53.4773 71.0969 53.9726 69.8386 54.8722 68.8481L60.5082 62.6421C63.2186 59.6575 66.9713 57.5325 71.0749 56.6583L77.9081 55.2028C78.1099 56.4686 78.2112 57.749 78.2112 59.0417C78.2111 63.838 76.5078 73.2242 76.0296 75.7642V75.7642Z" fill="black"/>
<path d="M42.2809 49.3214L44.6821 51.5454C45.0137 51.8525 45.5513 51.8525 45.8827 51.5454L50.9301 46.8705L55.9776 51.5454C56.1433 51.6989 56.3607 51.7757 56.5779 51.7757C56.7951 51.7757 57.0125 51.699 57.1782 51.5454L59.5794 49.3214C59.911 49.0143 59.911 48.5164 59.5794 48.2094L54.532 43.5345L59.5794 38.8595C59.911 38.5524 59.911 38.0545 59.5794 37.7475L57.1782 35.5235C56.8467 35.2163 56.3092 35.2164 55.9776 35.5235L50.9303 40.1982L45.8828 35.5233C45.5513 35.2162 45.0137 35.2162 44.6822 35.5233L42.281 37.7473C41.9494 38.0544 41.9494 38.5523 42.281 38.8593L47.3284 43.5342L42.281 48.2092C41.9493 48.5164 41.9493 49.0143 42.2809 49.3214V49.3214ZM49.1293 44.0903C49.4609 43.7832 49.4609 43.2853 49.1293 42.9784L44.0818 38.3034L45.2824 37.1914L50.3299 41.8664C50.6614 42.1735 51.199 42.1735 51.5304 41.8664L56.5779 37.1914L57.7785 38.3034L52.731 42.9784C52.3994 43.2854 52.3994 43.7833 52.731 44.0903L57.7785 48.7653L56.5779 49.8772L51.5304 45.2023C51.3647 45.0488 51.1474 44.972 50.9301 44.972C50.7129 44.972 50.4956 45.0487 50.3299 45.2023L45.2824 49.8772L44.0818 48.7653L49.1293 44.0903Z" fill="black"/>
</svg>
