<?xml version="1.0" encoding="utf-8"?>
<!-- Generator: Adobe Illustrator 25.4.1, SVG Export Plug-In . SVG Version: 6.00 Build 0)  -->
<svg version="1.1" xmlns="http://www.w3.org/2000/svg" xmlns:xlink="http://www.w3.org/1999/xlink" x="0px" y="0px"
	 viewBox="0 0 297.27 273.12" style="enable-background:new 0 0 297.27 273.12;" xml:space="preserve">
<style type="text/css">
	.st0{fill:#3B86FF;stroke:#262262;stroke-miterlimit:10;}
	.st1{fill:#F2F2F1;stroke:#262262;stroke-miterlimit:10;}
	.st2{fill:#F2F2F1;stroke:#262262;stroke-linecap:round;stroke-linejoin:round;stroke-miterlimit:10;}
	.st3{fill:#3B86FF;}
	.st4{fill:none;stroke:#262262;stroke-miterlimit:10;}
	.st5{fill:#2AD575;stroke:#2A255C;stroke-miterlimit:10;}
	.st6{fill:#262262;}
	.st7{fill:#FF4D4E;}
	.st8{fill:#FFF000;}
	.st9{fill:#FFFFFF;}
	.st10{fill:#F78F2D;stroke:#262262;stroke-miterlimit:10;}
	.st11{fill:none;stroke:#FFF000;stroke-miterlimit:10;}
	.st12{fill:#FFFFFF;stroke:#262262;stroke-miterlimit:10;}
	.st13{fill:#CB84F0;stroke:#262262;stroke-miterlimit:10;}
	.st14{fill:#AD5D46;}
	.st15{fill:#7B3525;}
	.st16{fill:#F78F2D;}
	.st17{fill:#2AD575;}
	.st18{fill:none;stroke:#FF4D4E;stroke-miterlimit:10;}
	.st19{fill:none;stroke:#2AD575;stroke-miterlimit:10;}
	.st20{fill:none;stroke:#3B86FF;stroke-miterlimit:10;}
	.st21{fill:#577CBC;}
	.st22{fill:none;stroke:#2A255C;stroke-miterlimit:10;}
	.st23{clip-path:url(#SVGID_00000103982034233669116860000005609623904885300359_);}
	.st24{fill:none;stroke:#404440;stroke-miterlimit:10;}
	.st25{clip-path:url(#SVGID_00000116209031359878764090000016585916627182949526_);}
	.st26{fill:none;stroke:#000000;stroke-miterlimit:10;}
	.st27{fill:none;stroke:#7B3525;stroke-miterlimit:10;}
	.st28{fill:none;stroke:#000000;stroke-linecap:round;stroke-miterlimit:10;}
	.st29{fill:#F2F2F1;}
	.st30{fill:none;stroke:#2A255C;stroke-linecap:round;stroke-linejoin:round;stroke-miterlimit:10;}
	.st31{fill:none;stroke:#2A255C;stroke-linecap:round;stroke-miterlimit:10;}
	.st32{fill:none;}
	.st33{fill:#66DCCC;}
	.st34{fill:#F18D1B;stroke:#262262;stroke-miterlimit:10;}
	.st35{fill:#FF4D4E;stroke:#262262;stroke-miterlimit:10;}
	.st36{fill:#66DCCC;stroke:#262262;stroke-miterlimit:10;}
	.st37{fill:#FFFFFF;stroke:#262262;stroke-linejoin:round;stroke-miterlimit:10;}
	.st38{fill:none;stroke:#262262;stroke-linejoin:round;stroke-miterlimit:10;}
	.st39{fill:#FF376E;stroke:#262262;stroke-miterlimit:10;}
	.st40{fill:#E84448;stroke:#262262;stroke-miterlimit:10;}
	.st41{fill:#E63066;stroke:#262262;stroke-miterlimit:10;}
	.st42{fill:#3B86FF;stroke:#2A255C;stroke-miterlimit:10;}
	.st43{fill:#FFF000;stroke:#262262;stroke-miterlimit:10;}
	.st44{fill:#FFEA00;stroke:#262262;stroke-miterlimit:10;}
	.st45{fill:#2AD575;stroke:#262262;stroke-miterlimit:10;}
	.st46{fill:#FF4D4E;stroke:#2A255C;stroke-miterlimit:10;}
	.st47{fill:#FFEA00;stroke:#2A255C;stroke-miterlimit:10;}
	.st48{fill:#F18D1B;}
	.st49{opacity:0.36;fill:none;stroke:#F2F2F1;stroke-miterlimit:10;}
	.st50{fill:#CB84F0;stroke:#262262;stroke-linecap:round;stroke-linejoin:round;stroke-miterlimit:10;}
	.st51{fill:#FFFFFF;stroke:#262262;stroke-linecap:round;stroke-linejoin:round;stroke-miterlimit:10;}
	.st52{fill:none;stroke:#262262;stroke-linecap:round;stroke-linejoin:round;stroke-miterlimit:10;}
	.st53{fill:#2AD575;stroke:#262262;stroke-linecap:round;stroke-linejoin:round;stroke-miterlimit:10;}
	.st54{fill:#FFF000;stroke:#262262;stroke-linecap:round;stroke-linejoin:round;stroke-miterlimit:10;}
	.st55{fill:#2A255C;stroke:#262262;stroke-miterlimit:10;}
</style>
<g id="ECP">
	<g id="Capa_18">
	</g>
	<g id="Capa_19">
	</g>
	<g id="Capa_20">
	</g>
	<g id="Capa_20_copia">
	</g>
	<g id="Capa_21">
	</g>
	<g id="Capa_23">
	</g>
	<g id="Capa_22">
		<g id="Capa_24">
		</g>
	</g>
	<g id="Capa_26">
	</g>
</g>
<g id="Effective">
	<g id="Capa_36">
		<g>
			<g>
				<path class="st20" d="M131.3,197.43c1.9,6.53,13.05,6.89,13.05,6.89c2.06-2.73,0.85-11.11-1.48-12.9"/>
				<path class="st20" d="M244.28,192.93c-0.36-0.28-11.1-6.38-28.9,12.07s-33.05,17.18-39.32,16.63
					c-6.16-0.54-22.33-5.05-31.71-17.31c0,0,2.66,4.19,13.73-7.73s17.66-6.45,27.48,1.29c9.82,7.74,19.09-1.22,22.86-17.97
					c3.21-14.26,14.4-15.71,14.4-15.71c14.25-2.38,36.39,11.29,36.39,11.29"/>
			</g>
			<path class="st12" d="M62.13,81.38c1.47,1.38,4.66,0.3,7.12-2.41c1.64-1.81,2.55-3.89,2.53-5.49c0,0,10.76-7.59,26.76-15.25
				c16-7.65,19.2,4.69,20.18,8.2c0.97,3.51,2.07,16.19,2.07,16.19l3.28-0.78l4-0.26c0,0-1.72-12.55-1.55-16.3
				c0.17-3.76,0.53-16.86,17.46-16.19c16.93,0.68,28.84,3.45,28.84,3.45c0.33,1.53,1.65,3.14,3.61,4.19
				c2.94,1.57,6.22,1.27,7.32-0.66c1.1-1.93-0.39-4.76-3.34-6.33c-1.42-0.76-5.15-1.38-5.16-1.38c-8.02-1.35-28.96-4.48-34.63-3.78
				c-9.43,1.15-16.63,7.08-17.54,13.11c-0.39,2.5-0.47,5.52-0.4,8.56c-0.61-3.11-1.37-6.14-2.33-8.48
				c-2.19-5.37-10.34-8.05-19.58-5.23c-5.57,1.69-24.84,13.36-32.2,17.97c-0.02,0-3.44,2.14-4.63,3.46
				C61.47,76.69,60.66,80,62.13,81.38z"/>
			<path class="st10" d="M143.06,179.26l-11.18-97.21c0,0-7.17-1.95-14.78,2.12l10.61,93.11L143.06,179.26z"/>
			<line class="st1" x1="132.2" y1="84.83" x2="119.76" y2="82.97"/>
			<line class="st1" x1="117.8" y1="90.35" x2="133.05" y2="92.25"/>
			<line class="st1" x1="133.85" y1="99.21" x2="118.65" y2="97.82"/>
			<line class="st1" x1="134.7" y1="106.58" x2="119.42" y2="104.56"/>
			<line class="st1" x1="135.39" y1="112.6" x2="120.17" y2="111.14"/>
			<line class="st1" x1="136.12" y1="118.9" x2="120.83" y2="116.92"/>
			<line class="st1" x1="136.93" y1="125.94" x2="121.7" y2="124.62"/>
			<line class="st1" x1="137.68" y1="132.52" x2="122.41" y2="130.84"/>
			<line class="st1" x1="138.45" y1="139.23" x2="123.15" y2="137.31"/>
			<line class="st1" x1="139.27" y1="146.3" x2="123.92" y2="144.05"/>
			<line class="st1" x1="140.02" y1="152.81" x2="124.68" y2="150.73"/>
			<line class="st1" x1="140.86" y1="160.12" x2="125.51" y2="158.04"/>
			<line class="st1" x1="141.65" y1="166.98" x2="126.24" y2="164.48"/>
			<line class="st1" x1="142.43" y1="173.79" x2="127.01" y2="171.19"/>
			<path class="st12" d="M132.97,186.13c-1.92,1.57-3.16,4.23-3.04,7.07c0.17,4.19,3.19,7.19,6.77,6.7
				c3.57-0.49,6.33-4.29,6.17-8.48c-0.12-3.2-1.92-5.7-4.34-6.48l0.59-6.18l-8.2-1.06L132.97,186.13z"/>
		</g>
	</g>
	<g id="Capa_35">
	</g>
	<g id="Capa_38">
	</g>
	<g id="Capa_39">
		<g id="Capa_40">
		</g>
	</g>
	<g id="Capa_41">
	</g>
</g>
<g id="Condoms">
	<g id="Capa_42">
	</g>
	<g id="Capa_43">
	</g>
	<g id="Capa_44">
	</g>
	<g id="Capa_45">
	</g>
	<g id="Capa_46">
	</g>
	<g id="Capa_47">
	</g>
	<g id="Capa_48">
	</g>
	<g id="Capa_49">
	</g>
</g>
<g id="Capa_51">
</g>
<g id="Capa_52">
</g>
<g id="Capa_54">
</g>
<g id="Capa_53">
	<g id="Capa_55">
	</g>
</g>
<g id="Capa_56">
</g>
<g id="Capa_57">
</g>
<g id="Capa_58">
</g>
<g id="Capa_59">
</g>
<g id="Capa_60">
</g>
<g id="Capa_61">
</g>
<g id="Capa_63">
</g>
</svg>
