<?xml version="1.0" encoding="utf-8"?>
<!-- Generator: Adobe Illustrator 25.4.1, SVG Export Plug-In . SVG Version: 6.00 Build 0)  -->
<svg version="1.1" xmlns="http://www.w3.org/2000/svg" xmlns:xlink="http://www.w3.org/1999/xlink" x="0px" y="0px"
	 viewBox="0 0 580.43 533.28" style="enable-background:new 0 0 580.43 533.28;" xml:space="preserve">
<style type="text/css">
	.st0{display:none;}
	.st1{display:inline;fill:#F18D1B;}
	.st2{fill:#66DCCC;stroke:#262262;stroke-miterlimit:10;}
	.st3{fill:#FFFFFF;stroke:#262262;stroke-miterlimit:10;}
	.st4{fill:#C47B5F;stroke:#000000;stroke-miterlimit:10;}
	.st5{fill:#A5614C;}
	.st6{fill:#FF4D4E;stroke:#262262;stroke-miterlimit:10;}
	.st7{fill:none;stroke:#A5614C;stroke-linecap:round;stroke-linejoin:round;stroke-miterlimit:10;}
	.st8{fill:none;stroke:#000000;stroke-linecap:round;stroke-linejoin:round;stroke-miterlimit:10;}
	.st9{fill:#FFF000;stroke:#262262;stroke-miterlimit:10;}
	.st10{fill:none;stroke:#262262;stroke-miterlimit:10;}
	.st11{fill:none;stroke:#000000;stroke-miterlimit:10;}
	.st12{fill:#CB84F0;stroke:#262262;stroke-linecap:round;stroke-linejoin:round;stroke-miterlimit:10;}
	.st13{fill:none;stroke:#262262;stroke-linecap:round;stroke-linejoin:round;stroke-miterlimit:10;}
	.st14{fill:#3B86FF;stroke:#262262;stroke-miterlimit:10;}
	.st15{fill:#CB84F0;stroke:#262262;stroke-miterlimit:10;}
	.st16{fill:#2AD575;stroke:#262262;stroke-miterlimit:10;}
	.st17{fill:#F78F2D;}
	.st18{fill:#66DCCC;}
	.st19{fill:#F18D1B;stroke:#262262;stroke-miterlimit:10;}
	.st20{fill:#23B55E;}
	.st21{fill:#EFA584;}
	.st22{fill:#E2987A;}
	.st23{fill:#2AD575;}
	.st24{clip-path:url(#SVGID_00000052065269835687132350000009326796770499081149_);}
	.st25{fill:#3B86FF;}
	.st26{clip-path:url(#SVGID_00000052065269835687132350000009326796770499081149_);fill:#3B86FF;}
	.st27{fill:#C47B5F;}
	.st28{fill:#FF4D4E;}
	.st29{fill:none;stroke:#9B5B48;stroke-linecap:round;stroke-linejoin:round;stroke-miterlimit:10;}
	.st30{fill:none;stroke:#BC7B64;stroke-miterlimit:10;}
	.st31{fill:#F2F2F1;stroke:#262262;stroke-miterlimit:10;}
	.st32{fill:#FFFFFF;}
	.st33{fill:#3B86FF;stroke:#262262;stroke-linecap:round;stroke-linejoin:round;stroke-miterlimit:10;}
	.st34{fill:#2AD575;stroke:#262262;stroke-linecap:round;stroke-linejoin:round;stroke-miterlimit:10;}
	.st35{fill:#FF376E;stroke:#262262;stroke-linecap:round;stroke-linejoin:round;stroke-miterlimit:10;}
	.st36{fill:#FFF000;stroke:#262262;stroke-linecap:round;stroke-linejoin:round;stroke-miterlimit:10;}
	.st37{fill:#FFEA00;stroke:#262262;stroke-linecap:round;stroke-linejoin:round;stroke-miterlimit:10;}
	.st38{fill:#66DCCC;stroke:#262262;stroke-linecap:round;stroke-linejoin:round;stroke-miterlimit:10;}
	.st39{fill:#683C32;stroke:#000000;stroke-linecap:round;stroke-linejoin:round;stroke-miterlimit:10;}
	.st40{fill:#CE816A;stroke:#000000;stroke-miterlimit:10;}
	.st41{fill:#AF594A;}
	.st42{fill:none;stroke:#683C32;stroke-linecap:round;stroke-linejoin:round;stroke-miterlimit:10;}
	.st43{fill:#FFF000;}
	.st44{fill:none;stroke:#262262;stroke-linecap:round;stroke-miterlimit:10;}
	.st45{fill:#1C120F;}
	.st46{fill:#EFA585;}
	.st47{fill:none;stroke:#000000;stroke-linecap:round;stroke-miterlimit:10;}
	.st48{fill:#1D130F;}
	.st49{fill:none;stroke:#1D130F;stroke-linecap:round;stroke-linejoin:round;stroke-miterlimit:10;}
	.st50{fill:#BA514F;}
	.st51{fill:none;stroke:#A56653;stroke-linecap:round;stroke-linejoin:round;stroke-miterlimit:10;}
	.st52{fill:#B7695C;stroke:#000000;stroke-miterlimit:10;}
	.st53{fill:#89463D;}
	.st54{fill:#C9C7C7;}
	.st55{fill:#A34D4D;}
	.st56{fill:#6D4332;}
	.st57{fill:#EFA585;stroke:#262262;stroke-miterlimit:10;}
	.st58{fill:#ED85DE;stroke:#262262;stroke-miterlimit:10;}
	
		.st59{clip-path:url(#SVGID_00000010996252486871918670000002007984191727963582_);fill:none;stroke:#FFFFFF;stroke-linecap:round;stroke-miterlimit:10;}
	.st60{clip-path:url(#SVGID_00000010996252486871918670000002007984191727963582_);fill:#FFFFFF;}
	.st61{fill:#EFA585;stroke:#000000;stroke-miterlimit:10;}
	.st62{fill:#DD7C6F;}
	.st63{fill:none;stroke:#915441;stroke-miterlimit:10;}
	.st64{fill:none;stroke:#FFFFFF;stroke-linecap:round;stroke-miterlimit:10;}
	.st65{clip-path:url(#SVGID_00000075145648393684135970000005322914233933411231_);fill:#6D4332;}
	
		.st66{clip-path:url(#SVGID_00000075145648393684135970000005322914233933411231_);fill:#EFA585;stroke:#262262;stroke-miterlimit:10;}
	
		.st67{clip-path:url(#SVGID_00000075145648393684135970000005322914233933411231_);fill:#ED85DE;stroke:#262262;stroke-miterlimit:10;}
	.st68{clip-path:url(#SVGID_00000075145648393684135970000005322914233933411231_);}
	
		.st69{clip-path:url(#SVGID_00000107559292215086483080000018266054550961529518_);fill:none;stroke:#FFFFFF;stroke-linecap:round;stroke-miterlimit:10;}
	.st70{clip-path:url(#SVGID_00000107559292215086483080000018266054550961529518_);fill:#FFFFFF;}
	
		.st71{clip-path:url(#SVGID_00000075145648393684135970000005322914233933411231_);fill:#EFA585;stroke:#000000;stroke-miterlimit:10;}
	.st72{clip-path:url(#SVGID_00000075145648393684135970000005322914233933411231_);fill:#C47B5F;}
	
		.st73{clip-path:url(#SVGID_00000075145648393684135970000005322914233933411231_);fill:none;stroke:#262262;stroke-linecap:round;stroke-linejoin:round;stroke-miterlimit:10;}
	.st74{clip-path:url(#SVGID_00000075145648393684135970000005322914233933411231_);fill:none;stroke:#262262;stroke-miterlimit:10;}
	
		.st75{clip-path:url(#SVGID_00000075145648393684135970000005322914233933411231_);fill:none;stroke:#9B5B48;stroke-linecap:round;stroke-linejoin:round;stroke-miterlimit:10;}
	.st76{clip-path:url(#SVGID_00000075145648393684135970000005322914233933411231_);fill:#FFFFFF;}
	
		.st77{clip-path:url(#SVGID_00000075145648393684135970000005322914233933411231_);fill:none;stroke:#000000;stroke-linecap:round;stroke-miterlimit:10;}
	.st78{clip-path:url(#SVGID_00000075145648393684135970000005322914233933411231_);fill:#DD7C6F;}
	.st79{clip-path:url(#SVGID_00000075145648393684135970000005322914233933411231_);fill:none;stroke:#915441;stroke-miterlimit:10;}
	
		.st80{clip-path:url(#SVGID_00000075145648393684135970000005322914233933411231_);fill:none;stroke:#FFFFFF;stroke-linecap:round;stroke-miterlimit:10;}
	.st81{clip-path:url(#SVGID_00000139279241326443412780000016561268001425968783_);}
	
		.st82{clip-path:url(#SVGID_00000139279241326443412780000016561268001425968783_);fill:#B7695C;stroke:#000000;stroke-miterlimit:10;}
	.st83{clip-path:url(#SVGID_00000139279241326443412780000016561268001425968783_);fill:#89463D;}
	
		.st84{clip-path:url(#SVGID_00000139279241326443412780000016561268001425968783_);fill:none;stroke:#A5614C;stroke-linecap:round;stroke-linejoin:round;stroke-miterlimit:10;}
	.st85{clip-path:url(#SVGID_00000139279241326443412780000016561268001425968783_);fill:#FFFFFF;}
	
		.st86{clip-path:url(#SVGID_00000139279241326443412780000016561268001425968783_);fill:none;stroke:#000000;stroke-linecap:round;stroke-linejoin:round;stroke-miterlimit:10;}
	.st87{clip-path:url(#SVGID_00000139279241326443412780000016561268001425968783_);fill:#C9C7C7;}
	.st88{clip-path:url(#SVGID_00000139279241326443412780000016561268001425968783_);fill:#A34D4D;}
	
		.st89{clip-path:url(#SVGID_00000139279241326443412780000016561268001425968783_);fill:#FF4D4E;stroke:#262262;stroke-miterlimit:10;}
	.st90{clip-path:url(#SVGID_00000139279241326443412780000016561268001425968783_);fill:none;stroke:#262262;stroke-miterlimit:10;}
	.st91{fill:#28140A;}
	.st92{fill:#CE464E;}
	.st93{fill:#B26857;}
	.st94{fill:none;stroke:#FFFFFF;stroke-linecap:round;stroke-linejoin:round;stroke-miterlimit:10;}
	.st95{fill:#CE816A;stroke:#000000;stroke-linecap:round;stroke-linejoin:round;stroke-miterlimit:10;}
	.st96{display:none;opacity:0.44;}
</style>
<g id="Capa_14" class="st0">
</g>
<g id="Capa_8">
	<g id="Capa_6">
		<g id="Capa_43">
		</g>
	</g>
	<g id="Capa_16">
	</g>
	<g id="Capa_12">
	</g>
	<g id="Capa_7">
	</g>
</g>
<g id="Capa_13">
	<g id="Capa_11">
	</g>
	<g id="Capa_9">
	</g>
</g>
<g id="Varenka">
</g>
<g id="Capa_15">
</g>
<g id="Ferya">
</g>
<g id="Flor">
</g>
<g id="Flor_sola">
</g>
<g id="Ferya_00000076597665119341329080000006981992994345679289_">
	<circle class="st23" cx="295.86" cy="268.44" r="229.94"/>
	<g id="Ferya_copia">
	</g>
	<g>
		<defs>
			<circle id="SVGID_00000036948371289547978660000016871891805600991363_" cx="295.86" cy="268.44" r="229.94"/>
		</defs>
		<clipPath id="SVGID_00000099664248073179205130000008376617307105627321_">
			<use xlink:href="#SVGID_00000036948371289547978660000016871891805600991363_"  style="overflow:visible;"/>
		</clipPath>
		<path style="clip-path:url(#SVGID_00000099664248073179205130000008376617307105627321_);" d="M238.54,175.79
			c0,0,2.08-33.79,2.86-39.5s0.78-5.72,0.78-5.72s2.08-7.8,14.03-16.89c11.96-9.1,14.29-14.55,30.15-21.83
			c15.85-7.28,56.84-4.33,56.84-4.33s21.85,29.29,24.74,51.63c2.88,22.34,4.75,25.19,4.75,25.19l-61.38,110.47l9.36,49.64
			l46.68-19.47c0,0,7.12-4.96,7.9-7.81c0.78-2.86,7.8,10.14,21.57,8.32c0,0-34.83-76.93-29.11-123.45c0,0,6.24-16.89,6.24-32.75
			s-7.91-51.62-13.25-59.78c-3.85-5.87-8.58-9.1-18.45-9.88c0,0-5.66-10.82-15.59-17.67c-5.05-3.48-15.48-5.88-21.78-6.43
			c-15.57-1.35-23.64-1.53-47.85,9.72c-21.39,9.94-36.41,36.22-37.45,40.11c-1.04,3.9-3.12,9.62-7.02,27.29s1.56,41.84,1.56,41.84
			s-25.47,36.13-34.05,50.68c-8.58,14.55-9.88,48.34,2.86,55.62c0,0,1.82,18.97,12.47,24.69c10.66,5.72,24.43,9.1,24.43,9.1
			l23.65-112.53L238.54,175.79z"/>
		
			<path style="clip-path:url(#SVGID_00000099664248073179205130000008376617307105627321_);fill:#B7695C;stroke:#000000;stroke-miterlimit:10;" d="
			M343.21,87.52c0,0,15.48,13.09,27.3,61.35s-25.27,113.3-25.27,113.3s-8.6,15.78-24.36,15.78c0,0,34.12,25.68,61.03,31.78
			c26.91,6.1-67.42,44.12-67.42,44.12s-83.24-4.99-96-16.93c-12.76-11.93-8.6-19.98-8.6-19.98l31.78-16.18l-4.59-97.86
			c0,0-5.52,1.52-9.14-4.1c-3.62-5.62-1.81-9.96-6.34-15.22c-4.53-5.25-4.89-18.66,1.09-19.2c5.98-0.54,22.65-63.23,22.65-63.23
			l48.37-19.75L343.21,87.52z"/>
		<path style="clip-path:url(#SVGID_00000099664248073179205130000008376617307105627321_);" d="M238.54,175.79l3.64-45.22
			c0,0,7.95-11.23,14.03-16.89c6.09-5.66,15.31-15.16,24.81-19.36c9.5-4.19,25.85-13.64,58.63-7.24s-50.56-16.8-50.56-16.8
			L239.94,93.2l-16.77,65.13l-0.92,7.06c0,0,4.07-0.96,5.39,0.79C230.21,169.61,233.26,174.09,238.54,175.79z"/>
		<path style="clip-path:url(#SVGID_00000099664248073179205130000008376617307105627321_);" d="M205.64,307.45
			c1.98,7.56,18.82,4.53,18.82,4.53c13.61,13.18,32.56,1.42,32.56,1.42s-8.81-2.04-9.34-4.15c-0.53-2.11,1.42-7.63,0.53-29.11
			c0,0,6.2-67.01-9.95-78.37"/>
		<path style="clip-path:url(#SVGID_00000099664248073179205130000008376617307105627321_);" d="M322.94,320.07
			c0,0,10.42,1.16,17.49-6.69c7.07-7.84,8.74-14.27,8.74-14.27s-2.57,14.53-4.76,15.3s8.19,2.96,14.87-2.23
			c6.62-5.15,11.62-9.95,11.62-9.95l-52.47-24.99C318.44,277.24,329.5,307.72,322.94,320.07z"/>
		<path style="clip-path:url(#SVGID_00000099664248073179205130000008376617307105627321_);fill:#89463D;" d="M318.2,276.99
			c-41.03,3.19-57.41-27.04-57.41-27.04s-3.02-1.98-2.41,2.26c0.61,4.24,17.62,48.57,65.97,48.57c0,0-0.6-4.55-2.46-11.96
			C320.35,282.67,318.2,276.99,318.2,276.99z"/>
		
			<path style="clip-path:url(#SVGID_00000099664248073179205130000008376617307105627321_);fill:none;stroke:#A5614C;stroke-linecap:round;stroke-linejoin:round;stroke-miterlimit:10;" d="
			M226.12,171.31c0,0,9.96,3.38,11.54,12.74c0.95,5.63,0.2,8.16,0.2,8.16"/>
		
			<path style="clip-path:url(#SVGID_00000099664248073179205130000008376617307105627321_);fill:none;stroke:#A5614C;stroke-linecap:round;stroke-linejoin:round;stroke-miterlimit:10;" d="
			M231.33,189.12c0,0-5.74-10.06,4.08-10.7"/>
		
			<circle style="clip-path:url(#SVGID_00000099664248073179205130000008376617307105627321_);fill:#FFFFFF;" cx="234.83" cy="196.9" r="2.7"/>
		<path style="clip-path:url(#SVGID_00000099664248073179205130000008376617307105627321_);" d="M330.7,139.02
			c-1.74,0.15-3.8-2.95-1.02-4.65c0.48-0.29,18.23-4.64,24.11-4.33c5.87,0.31,8.5,8.04,9.12,9.27s2.18,2.02-1.22-0.15
			c-3.4-2.16-6.01-4.13-10.49-3.85C346.71,135.61,330.7,139.02,330.7,139.02"/>
		<path style="clip-path:url(#SVGID_00000099664248073179205130000008376617307105627321_);" d="M291.94,135.28
			c0,0-24.85-0.44-29.8,1.87c-4.95,2.32-11.9,12.05-11.9,12.05s8.96-7.42,14.37-7.73c5.41-0.31,21.45-0.95,27.48-0.91
			C295.41,140.6,293.64,136.23,291.94,135.28z"/>
		
			<ellipse style="clip-path:url(#SVGID_00000099664248073179205130000008376617307105627321_);" cx="276.45" cy="158.8" rx="3.88" ry="3.43"/>
		
			<ellipse style="clip-path:url(#SVGID_00000099664248073179205130000008376617307105627321_);" cx="345.42" cy="154.47" rx="3.88" ry="3.43"/>
		<path style="clip-path:url(#SVGID_00000099664248073179205130000008376617307105627321_);" d="M284.77,158.12
			c0,0-3.14-5.88-12.2-3.65s-9.84,5.78-10.89,6.18c-1.05,0.39-1.11,1.86,5.19-1.16s9.01-3.35,11.75-2.91
			C282.41,157.2,284.77,158.12,284.77,158.12z"/>
		<path style="clip-path:url(#SVGID_00000099664248073179205130000008376617307105627321_);" d="M335.41,155.84
			c0,0,1.98-6.37,11.3-5.87c9.31,0.5,10.75,3.83,11.86,4.02s1.44,1.61-5.32-0.17c-6.76-1.78-9.48-1.6-12.08-0.65
			C337.55,154.5,335.41,155.84,335.41,155.84z"/>
		
			<path style="clip-path:url(#SVGID_00000099664248073179205130000008376617307105627321_);fill:none;stroke:#000000;stroke-linecap:round;stroke-linejoin:round;stroke-miterlimit:10;" d="
			M316.75,157.91l7.6,37.31c0,0,2.41,6.5-1.81,8.26c-4.22,1.76-10.89,2.11-14.05,0"/>
		
			<path style="clip-path:url(#SVGID_00000099664248073179205130000008376617307105627321_);fill:none;stroke:#000000;stroke-linecap:round;stroke-linejoin:round;stroke-miterlimit:10;" d="
			M301.82,195.95c0,0-2.64,1.83-1.73,5.28"/>
		
			<circle style="clip-path:url(#SVGID_00000099664248073179205130000008376617307105627321_);fill:#C9C7C7;" cx="307.09" cy="196.88" r="0.92"/>
		
			<path style="clip-path:url(#SVGID_00000099664248073179205130000008376617307105627321_);fill:none;stroke:#000000;stroke-linecap:round;stroke-linejoin:round;stroke-miterlimit:10;" d="
			M275.26,225.2c0,0-0.39,2.19,0,4"/>
		
			<path style="clip-path:url(#SVGID_00000099664248073179205130000008376617307105627321_);fill:none;stroke:#000000;stroke-linecap:round;stroke-linejoin:round;stroke-miterlimit:10;" d="
			M350.24,218.49c0.9,3.1,1.03,4.77,0.65,5.29"/>
		<path style="clip-path:url(#SVGID_00000099664248073179205130000008376617307105627321_);fill:#A34D4D;" d="M281.24,228.29
			c0,0,2.53,1.44,9.39,0c6.86-1.44,8.67-2.53,13.55-2.17c4.88,0.36,7.77,1.08,7.77,1.08l4.82-2.21c0,0,1.68-0.72,9.99,0.21
			c8.31,0.92,14.57,2.05,18.66-0.41c1.83-1.1-4.03,2.04-8,6.25c-6.62,7.02-12.15,8.73-21.68,9.71c-13.07,1.33-20.18-3.23-26.05-7.37
			C286.75,231.31,282.56,230.1,281.24,228.29z"/>
		
			<path style="clip-path:url(#SVGID_00000099664248073179205130000008376617307105627321_);fill:none;stroke:#000000;stroke-linecap:round;stroke-linejoin:round;stroke-miterlimit:10;" d="
			M345.42,224.79c0,0-7.45,3.69-22.53,4.97s-35.67,1.62-41.64-1.47"/>
		<path style="clip-path:url(#SVGID_00000099664248073179205130000008376617307105627321_);" d="M370.41,151.44
			c1.3-0.13,4.79-3.42,4.79-3.42c0.37-1.95-4.12-1.34-7.56-2.9c-9.27-4.2-20.94-3.92-20.94-3.92c-9.46,0-20.88,2.01-27.63,14.98
			l-12.73,1.49c-0.52-2.38-8.73-12.99-20.72-15.09c-12-2.12-23.49,2.17-26.77,3.85c-3.27,1.67-13.01,8.88-12.65,9.75
			c0.37,0.87,3.34,1.9,3.34,1.9l-12.43,6.54l0.43,6.69l13.4-8.66c1.02,24.58,15.12,27.52,19.42,28.35
			c4.29,0.84,14.77,2.99,25.38-3.99c11.48-7.56,11.48-25.16,11.48-25.16s7.13-1.67,11.06-1.1c0,0,0,3.16,3.34,10.41
			c5.3,11.48,17.32,16.7,29.45,15.7c10.53-0.87,16.42-7.41,18.62-15.2C371.86,163.89,369.11,151.59,370.41,151.44z M293.26,184.64
			c-9.14,6.02-18.17,4.18-21.87,3.46c-3.7-0.72-15.85-3.25-16.72-24.43c0,0,0.19-6.48-0.13-7.25c-0.32-0.74,4.12-5.28,6.95-6.73
			c2.82-1.45,12.73-5.15,23.06-3.33c10.33,1.82,17.39,10.96,17.84,13.01l0.76,3.6C303.15,162.98,303.15,178.14,293.26,184.64z
			 M367.05,170.48c-1.88,6.71-6.95,12.34-16.03,13.1c-10.46,0.87-20.81-3.64-25.38-13.53c-2.88-6.26-2.88-8.97-2.88-8.97l0.69-3.94
			c5.82-11.19,15.66-12.89,23.8-12.89c0,0,10.05-0.24,18.06,3.36c2.95,1.36,2.36,3.68,2.38,5.46
			C367.68,154.21,368.92,163.78,367.05,170.48z"/>
		
			<path style="clip-path:url(#SVGID_00000099664248073179205130000008376617307105627321_);fill:#FF4D4E;stroke:#262262;stroke-miterlimit:10;" d="
			M143.45,460.11c0,0-5.2-66.52,14.6-116.03c6.05-15.13,51.67-28.09,51.67-28.09s35.95,32.94,83.16,30.81
			c63.52-2.86,89.29-37.88,89.29-37.88s42.22,9.77,48.37,14.16c6.15,4.39,14.35,21.38,16.69,48.03l5.74,136.08
			c0,0-18.46,7.34-285.16-3.22C143.45,503.01,143.45,460.11,143.45,460.11z"/>
		
			<path style="clip-path:url(#SVGID_00000099664248073179205130000008376617307105627321_);fill:none;stroke:#262262;stroke-miterlimit:10;" d="
			M200.33,318.99c50.9,48.3,97.57,37.6,114.16,34.87c13.61-2.24,43.35-9.67,77.76-42.51"/>
		
			<line style="clip-path:url(#SVGID_00000099664248073179205130000008376617307105627321_);fill:#FF4D4E;stroke:#262262;stroke-miterlimit:10;" x1="377.72" y1="313.87" x2="384.73" y2="318.19"/>
		
			<line style="clip-path:url(#SVGID_00000099664248073179205130000008376617307105627321_);fill:#FF4D4E;stroke:#262262;stroke-miterlimit:10;" x1="370.15" y1="320.13" x2="375.81" y2="325.49"/>
		
			<line style="clip-path:url(#SVGID_00000099664248073179205130000008376617307105627321_);fill:#FF4D4E;stroke:#262262;stroke-miterlimit:10;" x1="363.34" y1="325.49" x2="368.43" y2="330.89"/>
		
			<line style="clip-path:url(#SVGID_00000099664248073179205130000008376617307105627321_);fill:#FF4D4E;stroke:#262262;stroke-miterlimit:10;" x1="356" y1="329.97" x2="360.89" y2="335.81"/>
		
			<line style="clip-path:url(#SVGID_00000099664248073179205130000008376617307105627321_);fill:#FF4D4E;stroke:#262262;stroke-miterlimit:10;" x1="348.52" y1="333.81" x2="352.83" y2="340.45"/>
		
			<line style="clip-path:url(#SVGID_00000099664248073179205130000008376617307105627321_);fill:#FF4D4E;stroke:#262262;stroke-miterlimit:10;" x1="341.3" y1="337.13" x2="345.29" y2="344.2"/>
		
			<line style="clip-path:url(#SVGID_00000099664248073179205130000008376617307105627321_);fill:#FF4D4E;stroke:#262262;stroke-miterlimit:10;" x1="331.62" y1="340.31" x2="335.21" y2="348.37"/>
		
			<line style="clip-path:url(#SVGID_00000099664248073179205130000008376617307105627321_);fill:#FF4D4E;stroke:#262262;stroke-miterlimit:10;" x1="323.33" y1="342.59" x2="326.07" y2="351.3"/>
		
			<line style="clip-path:url(#SVGID_00000099664248073179205130000008376617307105627321_);fill:#FF4D4E;stroke:#262262;stroke-miterlimit:10;" x1="314.56" y1="344.43" x2="316.14" y2="353.57"/>
		
			<line style="clip-path:url(#SVGID_00000099664248073179205130000008376617307105627321_);fill:#FF4D4E;stroke:#262262;stroke-miterlimit:10;" x1="304.49" y1="345.89" x2="305.54" y2="355.33"/>
		
			<line style="clip-path:url(#SVGID_00000099664248073179205130000008376617307105627321_);fill:#FF4D4E;stroke:#262262;stroke-miterlimit:10;" x1="292.88" y1="346.81" x2="293.53" y2="356.59"/>
		
			<line style="clip-path:url(#SVGID_00000099664248073179205130000008376617307105627321_);fill:#FF4D4E;stroke:#262262;stroke-miterlimit:10;" x1="281.74" y1="346.81" x2="281.74" y2="356.59"/>
		
			<line style="clip-path:url(#SVGID_00000099664248073179205130000008376617307105627321_);fill:#FF4D4E;stroke:#262262;stroke-miterlimit:10;" x1="271.68" y1="345.49" x2="270.54" y2="355.33"/>
		
			<line style="clip-path:url(#SVGID_00000099664248073179205130000008376617307105627321_);fill:#FF4D4E;stroke:#262262;stroke-miterlimit:10;" x1="260.93" y1="343.15" x2="258.7" y2="353.17"/>
		
			<line style="clip-path:url(#SVGID_00000099664248073179205130000008376617307105627321_);fill:#FF4D4E;stroke:#262262;stroke-miterlimit:10;" x1="250.12" y1="339.68" x2="247.14" y2="349.46"/>
		
			<line style="clip-path:url(#SVGID_00000099664248073179205130000008376617307105627321_);fill:#FF4D4E;stroke:#262262;stroke-miterlimit:10;" x1="242.06" y1="336.36" x2="237.54" y2="345.31"/>
		
			<line style="clip-path:url(#SVGID_00000099664248073179205130000008376617307105627321_);fill:#FF4D4E;stroke:#262262;stroke-miterlimit:10;" x1="234.92" y1="332.89" x2="228.55" y2="340.5"/>
		
			<line style="clip-path:url(#SVGID_00000099664248073179205130000008376617307105627321_);fill:#FF4D4E;stroke:#262262;stroke-miterlimit:10;" x1="227.23" y1="328.58" x2="220.15" y2="335.14"/>
		
			<line style="clip-path:url(#SVGID_00000099664248073179205130000008376617307105627321_);fill:#FF4D4E;stroke:#262262;stroke-miterlimit:10;" x1="220.15" y1="324.45" x2="212.64" y2="329.63"/>
		
			<line style="clip-path:url(#SVGID_00000099664248073179205130000008376617307105627321_);fill:#FF4D4E;stroke:#262262;stroke-miterlimit:10;" x1="212.64" y1="319.46" x2="205.64" y2="323.5"/>
		
			<path style="clip-path:url(#SVGID_00000099664248073179205130000008376617307105627321_);fill:#FF4D4E;stroke:#262262;stroke-miterlimit:10;" d="
			M375.81,359.78c0,0,27.76,57.38,31.43,71.67c10.6,41.23-16.74,71.07-17.9,76.9"/>
		
			<path style="clip-path:url(#SVGID_00000099664248073179205130000008376617307105627321_);fill:#FF4D4E;stroke:#262262;stroke-miterlimit:10;" d="
			M426.61,329.63c0,0-3.06,31.58-21.52,60.31"/>
		
			<path style="clip-path:url(#SVGID_00000099664248073179205130000008376617307105627321_);fill:#FF4D4E;stroke:#262262;stroke-miterlimit:10;" d="
			M165.32,339.68c0,0,13.88,47.02,33.15,63"/>
		
			<line style="clip-path:url(#SVGID_00000099664248073179205130000008376617307105627321_);fill:#FF4D4E;stroke:#262262;stroke-miterlimit:10;" x1="202.99" y1="413.62" x2="202.99" y2="505.32"/>
	</g>
</g>
<g id="Ceci">
</g>
<g id="Capa_17" class="st96">
</g>
</svg>
