<svg xmlns="http://www.w3.org/2000/svg" xmlns:xlink="http://www.w3.org/1999/xlink" viewBox="0 0 580.43 533.28"><defs><style>.cls-1,.cls-5{fill:none;}.cls-2{fill:#fff;}.cls-2,.cls-4,.cls-5,.cls-6{stroke:#262262;stroke-miterlimit:10;}.cls-3{clip-path:url(#clip-path);}.cls-4{fill:#ff4d4e;}.cls-4,.cls-5,.cls-6{stroke-width:2px;}.cls-6{fill:#3b86ff;}</style><clipPath id="clip-path"><path class="cls-1" d="M144.86,434.84l269.3-193.55s-9.61-17.6-17.32-28.18a164,164,0,0,0-17.58-19.75L110.87,386.26l-2,1.46c-13.25,9.65-8.78,22.71.88,36s20.82,21.59,34.07,11.93Z"/></clipPath></defs><g id="Smoker"><path class="cls-2" d="M144.86,434.84l269.3-193.55s-9.61-17.6-17.32-28.18a164,164,0,0,0-17.58-19.75L110.87,386.26l-2,1.46c-13.25,9.65-8.78,22.71.88,36s20.82,21.59,34.07,11.93Z"/><g class="cls-3"><polygon class="cls-4" points="191.7 310.79 241.81 385.13 122.32 460.21 77.92 419.78 79.72 368.88 191.7 310.79"/></g><path class="cls-5" d="M144.86,434.84l269.3-193.55s-9.61-17.6-17.32-28.18a164,164,0,0,0-17.58-19.75L110.87,386.26l-2,1.46c-13.25,9.65-8.78,22.71.88,36s20.82,21.59,34.07,11.93Z"/><path class="cls-4" d="M436,224.93c-1.2-11.48-8.33-21.17-13.26-28.62C415.5,185.41,401.1,177,401.1,177l-15.57,11.59s16.22,13.4,21.12,19.73S421,234.77,421,234.77Z"/><path class="cls-6" d="M448.1,58s-38.57,19.64-42.47,48.94,25.46,31.23,30.32,49.59c2.15,8.08-2.34,34.13-2.34,34.13s30.26-8.7,32.84-28.66-21.89-39.28-26.08-48.3S433.93,75,448.1,58Z"/></g></svg>