<?xml version="1.0" encoding="utf-8"?>
<!-- Generator: Adobe Illustrator 25.4.1, SVG Export Plug-In . SVG Version: 6.00 Build 0)  -->
<svg version="1.1" xmlns="http://www.w3.org/2000/svg" xmlns:xlink="http://www.w3.org/1999/xlink" x="0px" y="0px"
	 viewBox="0 0 297.27 273.12" style="enable-background:new 0 0 297.27 273.12;" xml:space="preserve">
<style type="text/css">
	.st0{fill:#3B86FF;stroke:#262262;stroke-miterlimit:10;}
	.st1{fill:#F2F2F1;stroke:#262262;stroke-miterlimit:10;}
	.st2{fill:#F2F2F1;stroke:#262262;stroke-linecap:round;stroke-linejoin:round;stroke-miterlimit:10;}
	.st3{fill:#3B86FF;}
	.st4{fill:none;stroke:#262262;stroke-miterlimit:10;}
	.st5{fill:#2AD575;stroke:#2A255C;stroke-miterlimit:10;}
	.st6{fill:#262262;}
	.st7{fill:#FF4D4E;}
	.st8{fill:#FFF000;}
	.st9{fill:#FFFFFF;}
	.st10{fill:#F78F2D;stroke:#262262;stroke-miterlimit:10;}
	.st11{fill:none;stroke:#FFF000;stroke-miterlimit:10;}
	.st12{fill:#FFFFFF;stroke:#262262;stroke-miterlimit:10;}
	.st13{fill:#CB84F0;stroke:#262262;stroke-miterlimit:10;}
	.st14{fill:#AD5D46;}
	.st15{fill:#7B3525;}
	.st16{fill:#F78F2D;}
	.st17{fill:#2AD575;}
	.st18{fill:none;stroke:#FF4D4E;stroke-miterlimit:10;}
	.st19{fill:none;stroke:#2AD575;stroke-miterlimit:10;}
	.st20{fill:none;stroke:#3B86FF;stroke-miterlimit:10;}
	.st21{fill:#577CBC;}
	.st22{fill:none;stroke:#2A255C;stroke-miterlimit:10;}
	.st23{clip-path:url(#SVGID_00000036214960476639787350000016507726338374500759_);}
	.st24{fill:none;stroke:#404440;stroke-miterlimit:10;}
	.st25{clip-path:url(#SVGID_00000155843267248021233440000005109379579590400434_);}
	.st26{fill:none;stroke:#000000;stroke-miterlimit:10;}
	.st27{fill:none;stroke:#7B3525;stroke-miterlimit:10;}
	.st28{fill:none;stroke:#000000;stroke-linecap:round;stroke-miterlimit:10;}
	.st29{fill:#F2F2F1;}
	.st30{fill:none;stroke:#2A255C;stroke-linecap:round;stroke-linejoin:round;stroke-miterlimit:10;}
	.st31{fill:none;stroke:#2A255C;stroke-linecap:round;stroke-miterlimit:10;}
	.st32{fill:none;}
	.st33{fill:#66DCCC;}
	.st34{fill:#F18D1B;stroke:#262262;stroke-miterlimit:10;}
	.st35{fill:#FF4D4E;stroke:#262262;stroke-miterlimit:10;}
	.st36{fill:#66DCCC;stroke:#262262;stroke-miterlimit:10;}
	.st37{fill:#FFFFFF;stroke:#262262;stroke-linejoin:round;stroke-miterlimit:10;}
	.st38{fill:none;stroke:#262262;stroke-linejoin:round;stroke-miterlimit:10;}
	.st39{fill:#FF376E;stroke:#262262;stroke-miterlimit:10;}
	.st40{fill:#E84448;stroke:#262262;stroke-miterlimit:10;}
	.st41{fill:#E63066;stroke:#262262;stroke-miterlimit:10;}
	.st42{fill:#3B86FF;stroke:#2A255C;stroke-miterlimit:10;}
	.st43{fill:#FFF000;stroke:#262262;stroke-miterlimit:10;}
	.st44{fill:#FFEA00;stroke:#262262;stroke-miterlimit:10;}
	.st45{fill:#2AD575;stroke:#262262;stroke-miterlimit:10;}
	.st46{fill:#FF4D4E;stroke:#2A255C;stroke-miterlimit:10;}
	.st47{fill:#FFEA00;stroke:#2A255C;stroke-miterlimit:10;}
	.st48{fill:#F18D1B;}
	.st49{opacity:0.36;fill:none;stroke:#F2F2F1;stroke-miterlimit:10;}
	.st50{fill:#CB84F0;stroke:#262262;stroke-linecap:round;stroke-linejoin:round;stroke-miterlimit:10;}
	.st51{fill:#FFFFFF;stroke:#262262;stroke-linecap:round;stroke-linejoin:round;stroke-miterlimit:10;}
	.st52{fill:none;stroke:#262262;stroke-linecap:round;stroke-linejoin:round;stroke-miterlimit:10;}
	.st53{fill:#2AD575;stroke:#262262;stroke-linecap:round;stroke-linejoin:round;stroke-miterlimit:10;}
	.st54{fill:#FFF000;stroke:#262262;stroke-linecap:round;stroke-linejoin:round;stroke-miterlimit:10;}
	.st55{fill:#2A255C;stroke:#262262;stroke-miterlimit:10;}
</style>
<g id="ECP">
	<g id="Capa_18">
	</g>
	<g id="Capa_19">
	</g>
	<g id="Capa_20">
	</g>
	<g id="Capa_20_copia">
	</g>
	<g id="Capa_21">
	</g>
	<g id="Capa_23">
	</g>
	<g id="Capa_22">
		<g id="Capa_24">
		</g>
	</g>
	<g id="Capa_26">
	</g>
</g>
<g id="Effective">
	<g id="Capa_36">
	</g>
	<g>
		<path class="st35" d="M152.09,144.87l-5.89,16.4c0,0-1.73-0.01-2.96,2.27c-1.22,2.28-3,9.76-3,9.76s-0.33,3.36,2.12,4.24
			c2.45,0.88,4.06,2.15,7.01-0.66c2.94-2.81,4.21-11.09,4.21-11.09s0.15-0.83-0.45-1.9l5.34-16.88"/>
		<path class="st35" d="M190.22,68.77l-27.79,77.64c0,0-6.38,2.93-13.28-3.94l27.29-78.97c0,0,0.12-1.73,7.42,0.72
			C191.63,66.84,190.22,68.77,190.22,68.77z"/>
		<path class="st35" d="M132.1,43.83c0.79,1.73,3.99,1.96,7.14,0.52c2.33-1.07,3.99-2.75,4.38-4.25c3.85,0.27,22.78,1.64,28.2,1.91
			c3.41,0.17,7.17,0.23,10.14,4.09c3.03,3.96,2.13,8.02,2.13,8.02l-3.53,10.47c1.61,1.09,3.25,1.84,5.6,2.07l3.95-10.32
			c0,0,1.89-3.7,6.75-4.83c4.75-1.09,7.68,1.27,10.42,3.31c4.35,3.24,19.82,14.25,22.96,16.49c-0.65,1.41-0.44,3.76,0.67,6.07
			c1.51,3.12,4.12,4.98,5.83,4.15c1.72-0.83,1.87-4.03,0.36-7.15c-0.86-1.79-2.1-3.16-3.3-3.85L208.71,51.5
			c0,0-5.95-4.42-10.94-3.67c-4.35,0.65-8.53,3.19-10.29,6.35c0.67-3.56-0.94-8.21-3.89-11.5c-3.37-3.76-10.77-4.14-10.77-4.14
			l-31.43-1.31c-1.37-0.24-3.19,0.03-5,0.86C133.23,39.53,131.31,42.1,132.1,43.83z"/>
		
			<ellipse transform="matrix(0.3402 -0.9403 0.9403 0.3402 -63.0677 252.3737)" class="st4" cx="148.31" cy="171.13" rx="5.9" ry="2.36"/>
		<g>
			<path class="st20" d="M140.58,169.96c-1.11-0.3-7.59,1.97-4.34,23.07c4.43,1.14,19.58-19.25,10.3-22.44"/>
			<path class="st20" d="M57.56,225.03c17.54,4.91,27.76-12.73,29.18-19.27s3.63-19.24,13.27-22.58s17.82,5.78,24.59,9.81
				c6.77,4.03,11.65,0.05,11.65,0.05s-5.47,6.18-21.53,3.17c-15.12-2.83-21.31,11.59-18.45,21.31c3,10.15,4.6,24.72-9.71,31.41"/>
		</g>
		<path class="st4" d="M190.22,68.77c0,0-8.5,0.96-13.78-5.26"/>
	</g>
	<g id="Capa_35">
	</g>
	<g id="Capa_38">
	</g>
	<g id="Capa_39">
		<g id="Capa_40">
		</g>
	</g>
	<g id="Capa_41">
	</g>
</g>
<g id="Condoms">
	<g id="Capa_42">
	</g>
	<g id="Capa_43">
	</g>
	<g id="Capa_44">
	</g>
	<g id="Capa_45">
	</g>
	<g id="Capa_46">
	</g>
	<g id="Capa_47">
	</g>
	<g id="Capa_48">
	</g>
	<g id="Capa_49">
	</g>
</g>
<g id="Capa_51">
</g>
<g id="Capa_52">
</g>
<g id="Capa_54">
</g>
<g id="Capa_53">
	<g id="Capa_55">
	</g>
</g>
<g id="Capa_56">
</g>
<g id="Capa_57">
</g>
<g id="Capa_58">
</g>
<g id="Capa_59">
</g>
<g id="Capa_60">
</g>
<g id="Capa_61">
</g>
<g id="Capa_63">
</g>
</svg>
