<?xml version="1.0" encoding="utf-8"?>
<!-- Generator: Adobe Illustrator 25.4.1, SVG Export Plug-In . SVG Version: 6.00 Build 0)  -->
<svg version="1.1" xmlns="http://www.w3.org/2000/svg" xmlns:xlink="http://www.w3.org/1999/xlink" x="0px" y="0px"
	 viewBox="0 0 580.43 533.28" style="enable-background:new 0 0 580.43 533.28;" xml:space="preserve">
<style type="text/css">
	.st0{display:none;}
	.st1{display:inline;fill:#F18D1B;}
	.st2{fill:#66DCCC;stroke:#262262;stroke-miterlimit:10;}
	.st3{fill:#FFFFFF;stroke:#262262;stroke-miterlimit:10;}
	.st4{fill:#C47B5F;stroke:#000000;stroke-miterlimit:10;}
	.st5{fill:#A5614C;}
	.st6{fill:#FF4D4E;stroke:#262262;stroke-miterlimit:10;}
	.st7{fill:none;stroke:#A5614C;stroke-linecap:round;stroke-linejoin:round;stroke-miterlimit:10;}
	.st8{fill:none;stroke:#000000;stroke-linecap:round;stroke-linejoin:round;stroke-miterlimit:10;}
	.st9{fill:#FFF000;stroke:#262262;stroke-miterlimit:10;}
	.st10{fill:none;stroke:#262262;stroke-miterlimit:10;}
	.st11{fill:none;stroke:#000000;stroke-miterlimit:10;}
	.st12{fill:#CB84F0;stroke:#262262;stroke-linecap:round;stroke-linejoin:round;stroke-miterlimit:10;}
	.st13{fill:none;stroke:#262262;stroke-linecap:round;stroke-linejoin:round;stroke-miterlimit:10;}
	.st14{fill:#3B86FF;stroke:#262262;stroke-miterlimit:10;}
	.st15{fill:#CB84F0;stroke:#262262;stroke-miterlimit:10;}
	.st16{fill:#2AD575;stroke:#262262;stroke-miterlimit:10;}
	.st17{fill:#F78F2D;}
	.st18{fill:#66DCCC;}
	.st19{fill:#F18D1B;stroke:#262262;stroke-miterlimit:10;}
	.st20{fill:#23B55E;}
	.st21{fill:#EFA584;}
	.st22{fill:#E2987A;}
	.st23{fill:#2AD575;}
	.st24{clip-path:url(#SVGID_00000132788632888436149760000002935555046953442437_);}
	.st25{fill:#3B86FF;}
	.st26{clip-path:url(#SVGID_00000132788632888436149760000002935555046953442437_);fill:#3B86FF;}
	.st27{fill:#C47B5F;}
	.st28{fill:#FF4D4E;}
	.st29{fill:none;stroke:#9B5B48;stroke-linecap:round;stroke-linejoin:round;stroke-miterlimit:10;}
	.st30{fill:none;stroke:#BC7B64;stroke-miterlimit:10;}
	.st31{fill:#F2F2F1;stroke:#262262;stroke-miterlimit:10;}
	.st32{fill:#FFFFFF;}
	.st33{fill:#3B86FF;stroke:#262262;stroke-linecap:round;stroke-linejoin:round;stroke-miterlimit:10;}
	.st34{fill:#2AD575;stroke:#262262;stroke-linecap:round;stroke-linejoin:round;stroke-miterlimit:10;}
	.st35{fill:#FF376E;stroke:#262262;stroke-linecap:round;stroke-linejoin:round;stroke-miterlimit:10;}
	.st36{fill:#FFF000;stroke:#262262;stroke-linecap:round;stroke-linejoin:round;stroke-miterlimit:10;}
	.st37{fill:#FFEA00;stroke:#262262;stroke-linecap:round;stroke-linejoin:round;stroke-miterlimit:10;}
	.st38{fill:#66DCCC;stroke:#262262;stroke-linecap:round;stroke-linejoin:round;stroke-miterlimit:10;}
	.st39{fill:#683C32;stroke:#000000;stroke-linecap:round;stroke-linejoin:round;stroke-miterlimit:10;}
	.st40{fill:#CE816A;stroke:#000000;stroke-miterlimit:10;}
	.st41{fill:#AF594A;}
	.st42{fill:none;stroke:#683C32;stroke-linecap:round;stroke-linejoin:round;stroke-miterlimit:10;}
	.st43{fill:#FFF000;}
	
		.st44{clip-path:url(#SVGID_00000044171988079397441120000011037581142507171994_);fill:#683C32;stroke:#000000;stroke-linecap:round;stroke-linejoin:round;stroke-miterlimit:10;}
	.st45{clip-path:url(#SVGID_00000044171988079397441120000011037581142507171994_);}
	
		.st46{clip-path:url(#SVGID_00000044171988079397441120000011037581142507171994_);fill:#CE816A;stroke:#000000;stroke-miterlimit:10;}
	.st47{clip-path:url(#SVGID_00000044171988079397441120000011037581142507171994_);fill:#AF594A;}
	
		.st48{clip-path:url(#SVGID_00000044171988079397441120000011037581142507171994_);fill:none;stroke:#000000;stroke-linecap:round;stroke-linejoin:round;stroke-miterlimit:10;}
	
		.st49{clip-path:url(#SVGID_00000044171988079397441120000011037581142507171994_);fill:none;stroke:#683C32;stroke-linecap:round;stroke-linejoin:round;stroke-miterlimit:10;}
	.st50{clip-path:url(#SVGID_00000044171988079397441120000011037581142507171994_);fill:#FFF000;}
	.st51{fill:#FF376E;}
	
		.st52{clip-path:url(#SVGID_00000065770307221348665250000005658078799973097095_);fill:#FFFFFF;stroke:#262262;stroke-miterlimit:10;}
	
		.st53{clip-path:url(#SVGID_00000065770307221348665250000005658078799973097095_);fill:none;stroke:#262262;stroke-linecap:round;stroke-miterlimit:10;}
	.st54{clip-path:url(#SVGID_00000065770307221348665250000005658078799973097095_);fill:#1C120F;}
	.st55{clip-path:url(#SVGID_00000065770307221348665250000005658078799973097095_);fill:#EFA585;}
	
		.st56{clip-path:url(#SVGID_00000065770307221348665250000005658078799973097095_);fill:none;stroke:#000000;stroke-linecap:round;stroke-miterlimit:10;}
	.st57{clip-path:url(#SVGID_00000065770307221348665250000005658078799973097095_);fill:#C47B5F;}
	.st58{clip-path:url(#SVGID_00000065770307221348665250000005658078799973097095_);fill:none;stroke:#262262;stroke-miterlimit:10;}
	.st59{clip-path:url(#SVGID_00000065770307221348665250000005658078799973097095_);fill:#1D130F;}
	
		.st60{clip-path:url(#SVGID_00000065770307221348665250000005658078799973097095_);fill:none;stroke:#1D130F;stroke-linecap:round;stroke-linejoin:round;stroke-miterlimit:10;}
	.st61{clip-path:url(#SVGID_00000065770307221348665250000005658078799973097095_);fill:#BA514F;}
	
		.st62{clip-path:url(#SVGID_00000065770307221348665250000005658078799973097095_);fill:none;stroke:#A56653;stroke-linecap:round;stroke-linejoin:round;stroke-miterlimit:10;}
	.st63{fill:none;stroke:#262262;stroke-linecap:round;stroke-miterlimit:10;}
	.st64{fill:#1C120F;}
	.st65{fill:#EFA585;}
	.st66{fill:none;stroke:#000000;stroke-linecap:round;stroke-miterlimit:10;}
	.st67{fill:#1D130F;}
	.st68{fill:none;stroke:#1D130F;stroke-linecap:round;stroke-linejoin:round;stroke-miterlimit:10;}
	.st69{fill:#BA514F;}
	.st70{fill:none;stroke:#A56653;stroke-linecap:round;stroke-linejoin:round;stroke-miterlimit:10;}
	.st71{fill:#B7695C;stroke:#000000;stroke-miterlimit:10;}
	.st72{fill:#89463D;}
	.st73{fill:#C9C7C7;}
	.st74{fill:#A34D4D;}
	.st75{clip-path:url(#SVGID_00000012441711839423978140000017570136803117125290_);}
	
		.st76{clip-path:url(#SVGID_00000012441711839423978140000017570136803117125290_);fill:#B7695C;stroke:#000000;stroke-miterlimit:10;}
	.st77{clip-path:url(#SVGID_00000012441711839423978140000017570136803117125290_);fill:#89463D;}
	
		.st78{clip-path:url(#SVGID_00000012441711839423978140000017570136803117125290_);fill:none;stroke:#A5614C;stroke-linecap:round;stroke-linejoin:round;stroke-miterlimit:10;}
	.st79{clip-path:url(#SVGID_00000012441711839423978140000017570136803117125290_);fill:#FFFFFF;}
	
		.st80{clip-path:url(#SVGID_00000012441711839423978140000017570136803117125290_);fill:none;stroke:#000000;stroke-linecap:round;stroke-linejoin:round;stroke-miterlimit:10;}
	.st81{clip-path:url(#SVGID_00000012441711839423978140000017570136803117125290_);fill:#C9C7C7;}
	.st82{clip-path:url(#SVGID_00000012441711839423978140000017570136803117125290_);fill:#A34D4D;}
	
		.st83{clip-path:url(#SVGID_00000012441711839423978140000017570136803117125290_);fill:#FF4D4E;stroke:#262262;stroke-miterlimit:10;}
	.st84{clip-path:url(#SVGID_00000012441711839423978140000017570136803117125290_);fill:none;stroke:#262262;stroke-miterlimit:10;}
	.st85{fill:#6D4332;}
	.st86{fill:#EFA585;stroke:#262262;stroke-miterlimit:10;}
	.st87{fill:#ED85DE;stroke:#262262;stroke-miterlimit:10;}
	
		.st88{clip-path:url(#SVGID_00000157279805464998252060000013277564610420650625_);fill:none;stroke:#FFFFFF;stroke-linecap:round;stroke-miterlimit:10;}
	.st89{clip-path:url(#SVGID_00000157279805464998252060000013277564610420650625_);fill:#FFFFFF;}
	.st90{fill:#EFA585;stroke:#000000;stroke-miterlimit:10;}
	.st91{fill:#DD7C6F;}
	.st92{fill:none;stroke:#915441;stroke-miterlimit:10;}
	.st93{fill:none;stroke:#FFFFFF;stroke-linecap:round;stroke-miterlimit:10;}
	.st94{clip-path:url(#SVGID_00000099621185216694774200000013457847410314317741_);fill:#6D4332;}
	
		.st95{clip-path:url(#SVGID_00000099621185216694774200000013457847410314317741_);fill:#EFA585;stroke:#262262;stroke-miterlimit:10;}
	
		.st96{clip-path:url(#SVGID_00000099621185216694774200000013457847410314317741_);fill:#ED85DE;stroke:#262262;stroke-miterlimit:10;}
	.st97{clip-path:url(#SVGID_00000099621185216694774200000013457847410314317741_);}
	
		.st98{clip-path:url(#SVGID_00000147178072382144062750000017289001500422925739_);fill:none;stroke:#FFFFFF;stroke-linecap:round;stroke-miterlimit:10;}
	.st99{clip-path:url(#SVGID_00000147178072382144062750000017289001500422925739_);fill:#FFFFFF;}
	
		.st100{clip-path:url(#SVGID_00000099621185216694774200000013457847410314317741_);fill:#EFA585;stroke:#000000;stroke-miterlimit:10;}
	.st101{clip-path:url(#SVGID_00000099621185216694774200000013457847410314317741_);fill:#C47B5F;}
	
		.st102{clip-path:url(#SVGID_00000099621185216694774200000013457847410314317741_);fill:none;stroke:#262262;stroke-linecap:round;stroke-linejoin:round;stroke-miterlimit:10;}
	
		.st103{clip-path:url(#SVGID_00000099621185216694774200000013457847410314317741_);fill:none;stroke:#262262;stroke-miterlimit:10;}
	
		.st104{clip-path:url(#SVGID_00000099621185216694774200000013457847410314317741_);fill:none;stroke:#9B5B48;stroke-linecap:round;stroke-linejoin:round;stroke-miterlimit:10;}
	.st105{clip-path:url(#SVGID_00000099621185216694774200000013457847410314317741_);fill:#FFFFFF;}
	
		.st106{clip-path:url(#SVGID_00000099621185216694774200000013457847410314317741_);fill:none;stroke:#000000;stroke-linecap:round;stroke-miterlimit:10;}
	.st107{clip-path:url(#SVGID_00000099621185216694774200000013457847410314317741_);fill:#DD7C6F;}
	
		.st108{clip-path:url(#SVGID_00000099621185216694774200000013457847410314317741_);fill:none;stroke:#915441;stroke-miterlimit:10;}
	
		.st109{clip-path:url(#SVGID_00000099621185216694774200000013457847410314317741_);fill:none;stroke:#FFFFFF;stroke-linecap:round;stroke-miterlimit:10;}
	.st110{fill:#28140A;}
	.st111{fill:#CE464E;}
	.st112{fill:#B26857;}
	.st113{fill:none;stroke:#FFFFFF;stroke-linecap:round;stroke-linejoin:round;stroke-miterlimit:10;}
	.st114{fill:#CE816A;stroke:#000000;stroke-linecap:round;stroke-linejoin:round;stroke-miterlimit:10;}
	.st115{fill:#CB84F0;}
	
		.st116{clip-path:url(#SVGID_00000135660416271310920140000014150358811202050228_);fill:#CE816A;stroke:#000000;stroke-miterlimit:10;}
	
		.st117{clip-path:url(#SVGID_00000135660416271310920140000014150358811202050228_);fill:#3B86FF;stroke:#262262;stroke-miterlimit:10;}
	.st118{clip-path:url(#SVGID_00000135660416271310920140000014150358811202050228_);fill:#28140A;}
	
		.st119{clip-path:url(#SVGID_00000135660416271310920140000014150358811202050228_);fill:#66DCCC;stroke:#262262;stroke-miterlimit:10;}
	.st120{clip-path:url(#SVGID_00000135660416271310920140000014150358811202050228_);fill:#CE464E;}
	
		.st121{clip-path:url(#SVGID_00000135660416271310920140000014150358811202050228_);fill:none;stroke:#000000;stroke-miterlimit:10;}
	.st122{clip-path:url(#SVGID_00000135660416271310920140000014150358811202050228_);}
	.st123{clip-path:url(#SVGID_00000135660416271310920140000014150358811202050228_);fill:#B26857;}
	
		.st124{clip-path:url(#SVGID_00000135660416271310920140000014150358811202050228_);fill:none;stroke:#000000;stroke-linecap:round;stroke-linejoin:round;stroke-miterlimit:10;}
	
		.st125{clip-path:url(#SVGID_00000135660416271310920140000014150358811202050228_);fill:none;stroke:#262262;stroke-miterlimit:10;}
	
		.st126{clip-path:url(#SVGID_00000135660416271310920140000014150358811202050228_);fill:none;stroke:#FFFFFF;stroke-linecap:round;stroke-linejoin:round;stroke-miterlimit:10;}
	
		.st127{clip-path:url(#SVGID_00000135660416271310920140000014150358811202050228_);fill:#CE816A;stroke:#000000;stroke-linecap:round;stroke-linejoin:round;stroke-miterlimit:10;}
	.st128{display:none;opacity:0.44;}
</style>
<g id="Capa_14" class="st0">
</g>
<g id="Capa_8">
	<g id="Capa_6">
		<g id="Capa_43">
		</g>
	</g>
	<g id="Capa_16">
	</g>
	<g id="Capa_12">
	</g>
	<g id="Capa_7">
	</g>
</g>
<g id="Capa_13">
	<g id="Capa_11">
	</g>
	<g id="Capa_9">
	</g>
</g>
<g id="Varenka">
</g>
<g id="Flor_copia">
	<circle class="st43" cx="283.98" cy="268.64" r="229.94"/>
	<g id="Varenka_copia">
	</g>
	<g>
		<defs>
			<circle id="SVGID_00000037669551851343464670000005757572787719556761_" cx="283.98" cy="268.64" r="229.94"/>
		</defs>
		<clipPath id="SVGID_00000119095423836095034730000006826495573974840218_">
			<use xlink:href="#SVGID_00000037669551851343464670000005757572787719556761_"  style="overflow:visible;"/>
		</clipPath>
		
			<path style="clip-path:url(#SVGID_00000119095423836095034730000006826495573974840218_);fill:#683C32;stroke:#000000;stroke-linecap:round;stroke-linejoin:round;stroke-miterlimit:10;" d="
			M256.28,307.37c0,0,50.16-5.66,75.39-1.93c25.22,3.73,65.89,15.78,70.87,20.25c4.97,4.47,18.16,12.53,17.89,37.6
			c-0.27,25.07-15.87,155.89-15.87,155.89s-193.76-12.52-237.04-21.78s-46.8-11.59-46.8-11.59s12.35-62.84,14.98-76.54
			c2.63-13.69,9.17-65.79,17.23-76.14s26.83-25.72,46.4-28.98C218.89,300.91,256.28,307.37,256.28,307.37z"/>
		<path style="clip-path:url(#SVGID_00000119095423836095034730000006826495573974840218_);" d="M199.54,193.85
			c0,0,1.72,37.01,0,46.61c-1.72,9.6-3.15,48.53-3.43,50.17s-4.87,18.92-4.87,18.92c4.58,1.92,23.76,1.37,23.76,1.37l5.15-18.92
			l-2.58,18.37l19.75,2.47l29.19-1.1l85.41,3.29c0,0-1.26-18.91,2.17-24.67c0,0,0.99,18.91,5.36,24.67l16.65-2.83
			c-4.81-9.21,1.11-57.05,1.48-66.61c0.37-9.57,4.44-49.61,4.44-81.14s-17.76-62.01-41.43-83.98
			c-23.67-21.97-54.01-12.76-54.01-12.76s-18.07-2.45-33.53,7.42s-43.96,39.21-48.6,56.21
			C199.82,148.33,199.33,188.95,199.54,193.85z"/>
		
			<path style="clip-path:url(#SVGID_00000119095423836095034730000006826495573974840218_);fill:#CE816A;stroke:#000000;stroke-miterlimit:10;" d="
			M330.57,205.52c-6.71-0.46-6.72,103.04-6.72,103.04s-18.82,22.24-45.13,23.35c-26.31,1.11-37.73-17.05-37.73-17.05l6-42.26
			c-32.5-13.71-40.63-40.4-41.9-51.15c-1.27-10.75-0.28-55.23,0-73.02c0.28-17.79,8.18-24.09,8.18-24.09l61.1-34.47l51.95,39.66
			l15.86,37.07c0,0,9.49-0.25,8.33,8.65s-2.1,9.33-7.91,16.74S339.69,206.15,330.57,205.52z"/>
		<path style="clip-path:url(#SVGID_00000119095423836095034730000006826495573974840218_);" d="M272.02,96.55
			c0,0,4.17,8.3,16.37,17.83s27.92,19.37,32.41,25.21c4.49,5.84,8.34,18.44,6.42,28.59c-1.93,10.14-10.91,33.51-8.99,35.04
			c1.93,1.54,8.72-14.45,9.49-19.98c0.78-5.53,2.06-9.84,5.27-12.3c3.21-2.46,9.3-3.52,9.3-3.52l9.63-14.61l-37.87-67.93h-44.61
			l-55.52,35.66l-9.47,13.83l0.63,14.08c0,0,34.91-20.03,47.35-32.22C263.7,105.19,272.02,96.55,272.02,96.55z"/>
		<path style="clip-path:url(#SVGID_00000119095423836095034730000006826495573974840218_);fill:#AF594A;" d="M247.91,272.02
			c0,0,27.22,7.24,44.05-4.3c16.83-11.54,16.83-11.54,16.83-11.54s3.13-2.84,3.3,0c0.16,2.84-6.76,12.48-10.39,17.54
			c-3.63,5.06-15.07,18.11-36.13,21.17c-19.54,2.84-20.8,0.16-20.77,0.16c0,0,0.01,0,0.01-0.01L247.91,272.02z"/>
		<path style="clip-path:url(#SVGID_00000119095423836095034730000006826495573974840218_);" d="M286.63,149.1
			c0,0,1.15,1.37,5.64,1.95c4.48,0.59,16.1-0.59,18.95,0c2.85,0.59,3.87,3.12,7.13,3.9c3.26,0.78,6.32,0.98,3.26-1.76
			s-6.93-7.61-12.02-8.2c-5.09-0.59-16.1-1.76-18.95-1.95C287.78,142.85,285.27,146.17,286.63,149.1z"/>
		<path style="clip-path:url(#SVGID_00000119095423836095034730000006826495573974840218_);" d="M251.62,149.08
			c0,0-1.37,1.17-5.89,1.04c-4.52-0.13-15.78-3.11-18.7-2.98s-4.36,2.47-7.71,2.73c-3.35,0.26-6.4-0.03-2.91-2.25
			s8.14-6.42,13.27-6.19s16.18,0.8,19.03,1.06C251.56,142.73,253.46,146.4,251.62,149.08z"/>
		
			<ellipse style="clip-path:url(#SVGID_00000119095423836095034730000006826495573974840218_);" cx="235.76" cy="163.3" rx="3.01" ry="2.88"/>
		
			<ellipse style="clip-path:url(#SVGID_00000119095423836095034730000006826495573974840218_);" cx="300.16" cy="163.3" rx="3.01" ry="2.88"/>
		
			<path style="clip-path:url(#SVGID_00000119095423836095034730000006826495573974840218_);fill:none;stroke:#000000;stroke-linecap:round;stroke-linejoin:round;stroke-miterlimit:10;" d="
			M290.77,160.42c0,0,6.26-1.6,12.01,0.78c5.75,2.38,8.17,4.98,8.17,4.98"/>
		
			<path style="clip-path:url(#SVGID_00000119095423836095034730000006826495573974840218_);fill:none;stroke:#000000;stroke-linecap:round;stroke-linejoin:round;stroke-miterlimit:10;" d="
			M244.02,162.13c0,0-5.88-2.61-11.97-1.22c-6.09,1.4-8.95,3.56-8.95,3.56"/>
		
			<path style="clip-path:url(#SVGID_00000119095423836095034730000006826495573974840218_);fill:none;stroke:#000000;stroke-linecap:round;stroke-linejoin:round;stroke-miterlimit:10;" d="
			M261.28,159.9c0,0-6.12,29.34-8.01,35.32c-1.46,4.6-4.09,8.87-4.98,10.74s0.3,2.73,4.07,4.26c3.76,1.53,12.84,5.46,21.92-3.07"/>
		
			<path style="clip-path:url(#SVGID_00000119095423836095034730000006826495573974840218_);fill:none;stroke:#000000;stroke-linecap:round;stroke-linejoin:round;stroke-miterlimit:10;" d="
			M278.19,201.08c0,0,0.69,1.65,0.25,3.08"/>
		
			<path style="clip-path:url(#SVGID_00000119095423836095034730000006826495573974840218_);fill:none;stroke:#683C32;stroke-linecap:round;stroke-linejoin:round;stroke-miterlimit:10;" d="
			M336.36,174.34c0,0,5.67,0.96,4.83,5.27s-4.33,11.34-5.83,13.57"/>
		
			<path style="clip-path:url(#SVGID_00000119095423836095034730000006826495573974840218_);fill:none;stroke:#683C32;stroke-linecap:round;stroke-linejoin:round;stroke-miterlimit:10;" d="
			M332.31,187.16c0,0-2.06-4.6,1.24-6.31c3.29-1.71,6.23-0.47,6.89,1.54"/>
		<path style="clip-path:url(#SVGID_00000119095423836095034730000006826495573974840218_);fill:#FFF000;" d="M332.38,200.27
			c-4.92,0-8.9,7.14-8.9,15.94c0,8.81,3.97,15.94,8.9,15.94c4.9,0,8.9-7.13,8.9-15.94C341.27,207.41,337.28,200.27,332.38,200.27z
			 M332.38,227.67c-3.9,0-7.04-4.19-7.04-12.13c0-7.96,3.14-14.4,7.04-14.4c3.88,0,7.04,6.44,7.04,14.4
			C339.42,223.48,336.26,227.67,332.38,227.67z"/>
		<path style="clip-path:url(#SVGID_00000119095423836095034730000006826495573974840218_);fill:#AF594A;" d="M231.95,229.97
			c0,0,18.5-1.38,20.4-1.38s4.05,1.38,4.05,1.38s3.36-1.38,4.74-1.38s8.21,1.21,11.09,1.38c2.88,0.17,11.33,1.21,11.33,1.21
			s-17.14,9.13-22.41,9.13c-5.27,0-9.67-0.86-13.14-2.07C244.54,237.04,231.95,229.97,231.95,229.97z"/>
		
			<path style="clip-path:url(#SVGID_00000119095423836095034730000006826495573974840218_);fill:none;stroke:#683C32;stroke-linecap:round;stroke-linejoin:round;stroke-miterlimit:10;" d="
			M229.2,229.29c0,0,20.49,3.58,24.88,4.36c4.39,0.78,11.87,0,11.87,0l20.67-2.65"/>
		
			<path style="clip-path:url(#SVGID_00000119095423836095034730000006826495573974840218_);fill:none;stroke:#000000;stroke-linecap:round;stroke-linejoin:round;stroke-miterlimit:10;" d="
			M348.92,365.12c0,0-7.54,65.86-9.5,87.05s-3.54,61.73-3.54,61.73"/>
		
			<path style="clip-path:url(#SVGID_00000119095423836095034730000006826495573974840218_);fill:none;stroke:#000000;stroke-linecap:round;stroke-linejoin:round;stroke-miterlimit:10;" d="
			M210.87,349.22c0,0-40.93,44.62-45.28,57.32c-4.35,12.7-5.14,24.81,0,40.33c5.14,15.52,22.53,53.86,22.53,53.86"/>
		
			<ellipse style="clip-path:url(#SVGID_00000119095423836095034730000006826495573974840218_);fill:#FFF000;" cx="315.31" cy="388.42" rx="3.22" ry="3.09"/>
		
			<ellipse style="clip-path:url(#SVGID_00000119095423836095034730000006826495573974840218_);fill:#FFF000;" cx="297.4" cy="417.12" rx="3.22" ry="3.09"/>
		
			<ellipse style="clip-path:url(#SVGID_00000119095423836095034730000006826495573974840218_);fill:#FFF000;" cx="259.15" cy="395.67" rx="3.22" ry="3.09"/>
		
			<ellipse style="clip-path:url(#SVGID_00000119095423836095034730000006826495573974840218_);fill:#FFF000;" cx="284.27" cy="377.36" rx="3.22" ry="3.09"/>
		
			<ellipse style="clip-path:url(#SVGID_00000119095423836095034730000006826495573974840218_);fill:#FFF000;" cx="245.42" cy="361.73" rx="3.22" ry="3.09"/>
		
			<ellipse style="clip-path:url(#SVGID_00000119095423836095034730000006826495573974840218_);fill:#FFF000;" cx="221.78" cy="333.26" rx="3.22" ry="3.09"/>
		
			<ellipse style="clip-path:url(#SVGID_00000119095423836095034730000006826495573974840218_);fill:#FFF000;" cx="217.36" cy="313.4" rx="3.22" ry="3.09"/>
		
			<ellipse style="clip-path:url(#SVGID_00000119095423836095034730000006826495573974840218_);fill:#FFF000;" cx="179.06" cy="320.15" rx="3.22" ry="3.09"/>
		
			<ellipse style="clip-path:url(#SVGID_00000119095423836095034730000006826495573974840218_);fill:#FFF000;" cx="192.55" cy="346.41" rx="3.22" ry="3.09"/>
		
			<ellipse style="clip-path:url(#SVGID_00000119095423836095034730000006826495573974840218_);fill:#FFF000;" cx="169.04" cy="345.07" rx="3.22" ry="3.09"/>
		
			<ellipse style="clip-path:url(#SVGID_00000119095423836095034730000006826495573974840218_);fill:#FFF000;" cx="147.06" cy="373.15" rx="3.22" ry="3.09"/>
		
			<ellipse style="clip-path:url(#SVGID_00000119095423836095034730000006826495573974840218_);fill:#FFF000;" cx="149.68" cy="401.62" rx="3.22" ry="3.09"/>
		
			<ellipse style="clip-path:url(#SVGID_00000119095423836095034730000006826495573974840218_);fill:#FFF000;" cx="138.21" cy="428.06" rx="3.22" ry="3.09"/>
		
			<ellipse style="clip-path:url(#SVGID_00000119095423836095034730000006826495573974840218_);fill:#FFF000;" cx="154.57" cy="443.74" rx="3.22" ry="3.09"/>
		
			<ellipse style="clip-path:url(#SVGID_00000119095423836095034730000006826495573974840218_);fill:#FFF000;" cx="136.15" cy="468.29" rx="3.22" ry="3.09"/>
		
			<ellipse style="clip-path:url(#SVGID_00000119095423836095034730000006826495573974840218_);fill:#FFF000;" cx="158.65" cy="478.1" rx="3.22" ry="3.09"/>
		
			<ellipse style="clip-path:url(#SVGID_00000119095423836095034730000006826495573974840218_);fill:#FFF000;" cx="189.33" cy="434.5" rx="3.22" ry="3.09"/>
		
			<ellipse style="clip-path:url(#SVGID_00000119095423836095034730000006826495573974840218_);fill:#FFF000;" cx="188.72" cy="403.45" rx="3.22" ry="3.09"/>
		
			<ellipse style="clip-path:url(#SVGID_00000119095423836095034730000006826495573974840218_);fill:#FFF000;" cx="215.98" cy="388.29" rx="3.22" ry="3.09"/>
		
			<ellipse style="clip-path:url(#SVGID_00000119095423836095034730000006826495573974840218_);fill:#FFF000;" cx="221.78" cy="418.8" rx="3.22" ry="3.09"/>
		
			<ellipse style="clip-path:url(#SVGID_00000119095423836095034730000006826495573974840218_);fill:#FFF000;" cx="194.05" cy="471.92" rx="3.22" ry="3.09"/>
		
			<ellipse style="clip-path:url(#SVGID_00000119095423836095034730000006826495573974840218_);fill:#FFF000;" cx="221.78" cy="455.99" rx="3.22" ry="3.09"/>
		
			<ellipse style="clip-path:url(#SVGID_00000119095423836095034730000006826495573974840218_);fill:#FFF000;" cx="255.92" cy="431.41" rx="3.22" ry="3.09"/>
		
			<ellipse style="clip-path:url(#SVGID_00000119095423836095034730000006826495573974840218_);fill:#FFF000;" cx="259.15" cy="471.92" rx="3.22" ry="3.09"/>
		
			<ellipse style="clip-path:url(#SVGID_00000119095423836095034730000006826495573974840218_);fill:#FFF000;" cx="163.92" cy="385.2" rx="3.22" ry="3.09"/>
		
			<ellipse style="clip-path:url(#SVGID_00000119095423836095034730000006826495573974840218_);fill:#FFF000;" cx="278.88" cy="346.51" rx="3.22" ry="3.09"/>
		
			<ellipse style="clip-path:url(#SVGID_00000119095423836095034730000006826495573974840218_);fill:#FFF000;" cx="312.09" cy="345.07" rx="3.22" ry="3.09"/>
		
			<ellipse style="clip-path:url(#SVGID_00000119095423836095034730000006826495573974840218_);fill:#FFF000;" cx="342.4" cy="326.33" rx="3.22" ry="3.09"/>
		
			<ellipse style="clip-path:url(#SVGID_00000119095423836095034730000006826495573974840218_);fill:#FFF000;" cx="339.17" cy="358.65" rx="3.22" ry="3.09"/>
		
			<ellipse style="clip-path:url(#SVGID_00000119095423836095034730000006826495573974840218_);fill:#FFF000;" cx="382.02" cy="339.44" rx="3.22" ry="3.09"/>
		
			<ellipse style="clip-path:url(#SVGID_00000119095423836095034730000006826495573974840218_);fill:#FFF000;" cx="368.87" cy="364.82" rx="3.22" ry="3.09"/>
		
			<ellipse style="clip-path:url(#SVGID_00000119095423836095034730000006826495573974840218_);fill:#FFF000;" cx="329.42" cy="420.21" rx="3.22" ry="3.09"/>
		
			<ellipse style="clip-path:url(#SVGID_00000119095423836095034730000006826495573974840218_);fill:#FFF000;" cx="294.18" cy="446.83" rx="3.22" ry="3.09"/>
		
			<ellipse style="clip-path:url(#SVGID_00000119095423836095034730000006826495573974840218_);fill:#FFF000;" cx="321.76" cy="478.1" rx="3.22" ry="3.09"/>
		
			<ellipse style="clip-path:url(#SVGID_00000119095423836095034730000006826495573974840218_);fill:#FFF000;" cx="368.87" cy="403.45" rx="3.22" ry="3.09"/>
		
			<ellipse style="clip-path:url(#SVGID_00000119095423836095034730000006826495573974840218_);fill:#FFF000;" cx="404.67" cy="409.28" rx="3.22" ry="3.09"/>
		
			<ellipse style="clip-path:url(#SVGID_00000119095423836095034730000006826495573974840218_);fill:#FFF000;" cx="385.4" cy="439.51" rx="3.22" ry="3.09"/>
		
			<ellipse style="clip-path:url(#SVGID_00000119095423836095034730000006826495573974840218_);fill:#FFF000;" cx="352.96" cy="457.39" rx="3.22" ry="3.09"/>
		
			<ellipse style="clip-path:url(#SVGID_00000119095423836095034730000006826495573974840218_);fill:#FFF000;" cx="398.23" cy="473.48" rx="3.22" ry="3.09"/>
		
			<ellipse style="clip-path:url(#SVGID_00000119095423836095034730000006826495573974840218_);fill:#FFF000;" cx="368.87" cy="503.81" rx="3.22" ry="3.09"/>
		
			<ellipse style="clip-path:url(#SVGID_00000119095423836095034730000006826495573974840218_);fill:#FFF000;" cx="407.9" cy="367.91" rx="3.22" ry="3.09"/>
	</g>
</g>
<g id="Flor_copia_2">
	<g id="Danae_copia_2">
	</g>
</g>
<g id="Danae">
</g>
<g id="Ferya">
</g>
<g id="Ferya_00000076597665119341329080000006981992994345679289_">
	<g id="Ferya_copia">
	</g>
</g>
<g id="Flor">
</g>
<g id="Flor_00000181795872133864750880000009587384579724721285_">
</g>
<g id="Ceci">
</g>
<g id="Ceci_00000096057879152769712860000002602327861082787738_">
	<g id="Ceci_copia">
	</g>
</g>
<g id="Capa_17" class="st128">
</g>
</svg>
