<svg xmlns="http://www.w3.org/2000/svg" viewBox="0 0 580.43 533.28"><defs><style>.cls-1{fill:#3b86ff;stroke:#262262;stroke-miterlimit:10;}.cls-2{fill:#262262;}</style></defs><g id="Hypertension"><path class="cls-1" d="M453,213.89s-9.88,263.67-119.77,263.67c-77.51,0-92.61-57.19-95.42-84.07-143.72-14.82-109-269.35-109-269.35l29.88,3S143.3,359.74,244.29,360.52,321.5,116.18,321.5,116.18h32.24S388.09,362.92,273,391.45c3.62,19.71,16.72,58.09,63.54,48.67,62.38-12.53,85.61-192.77,84.65-222.66C420.93,208.88,453,213.89,453,213.89Z"/><ellipse class="cls-2" cx="141.61" cy="97.88" rx="35.64" ry="33.43"/><ellipse class="cls-2" cx="340.17" cy="97.88" rx="35.64" ry="33.43"/><path class="cls-2" d="M438.82,156.39c-19.69,0-35.65,15-35.65,33.42s16,33.43,35.65,33.43,35.64-15,35.64-33.43S458.5,156.39,438.82,156.39Zm0,46.75c-7.85,0-14.22-6-14.22-13.33s6.37-13.34,14.22-13.34,14.22,6,14.22,13.34S446.67,203.14,438.82,203.14Z"/></g></svg>