<?xml version="1.0" encoding="utf-8"?>
<!-- Generator: Adobe Illustrator 25.4.1, SVG Export Plug-In . SVG Version: 6.00 Build 0)  -->
<svg version="1.1" xmlns="http://www.w3.org/2000/svg" xmlns:xlink="http://www.w3.org/1999/xlink" x="0px" y="0px"
	 viewBox="0 0 297.27 273.12" style="enable-background:new 0 0 297.27 273.12;" xml:space="preserve">
<style type="text/css">
	.st0{fill:#3B86FF;stroke:#262262;stroke-miterlimit:10;}
	.st1{fill:#F2F2F1;stroke:#262262;stroke-miterlimit:10;}
	.st2{fill:#F2F2F1;stroke:#262262;stroke-linecap:round;stroke-linejoin:round;stroke-miterlimit:10;}
	.st3{fill:#3B86FF;}
	.st4{fill:none;stroke:#262262;stroke-miterlimit:10;}
	.st5{fill:#2AD575;stroke:#2A255C;stroke-miterlimit:10;}
	.st6{fill:#262262;}
	.st7{fill:#FF4D4E;}
	.st8{fill:#FFF000;}
	.st9{fill:#FFFFFF;}
	.st10{fill:#F78F2D;stroke:#262262;stroke-miterlimit:10;}
	.st11{fill:none;stroke:#FFF000;stroke-miterlimit:10;}
	.st12{fill:#FFFFFF;stroke:#262262;stroke-miterlimit:10;}
	.st13{fill:#CB84F0;stroke:#262262;stroke-miterlimit:10;}
	.st14{fill:#AD5D46;}
	.st15{fill:#7B3525;}
	.st16{fill:#F78F2D;}
	.st17{fill:#2AD575;}
	.st18{fill:none;stroke:#FF4D4E;stroke-miterlimit:10;}
	.st19{fill:none;stroke:#2AD575;stroke-miterlimit:10;}
	.st20{fill:none;stroke:#3B86FF;stroke-miterlimit:10;}
	.st21{fill:#577CBC;}
	.st22{fill:none;stroke:#2A255C;stroke-miterlimit:10;}
	.st23{clip-path:url(#SVGID_00000164506763764677348240000005247054655556692664_);}
	.st24{fill:none;stroke:#404440;stroke-miterlimit:10;}
	.st25{clip-path:url(#SVGID_00000098217365758104481200000013355015941359487398_);}
	.st26{fill:none;stroke:#000000;stroke-miterlimit:10;}
	.st27{fill:none;stroke:#7B3525;stroke-miterlimit:10;}
	.st28{fill:none;stroke:#000000;stroke-linecap:round;stroke-miterlimit:10;}
	.st29{fill:#F2F2F1;}
	.st30{fill:none;stroke:#2A255C;stroke-linecap:round;stroke-linejoin:round;stroke-miterlimit:10;}
	.st31{fill:none;stroke:#2A255C;stroke-linecap:round;stroke-miterlimit:10;}
	.st32{fill:none;}
	.st33{fill:#66DCCC;}
	.st34{fill:#F18D1B;stroke:#262262;stroke-miterlimit:10;}
	.st35{fill:#FF4D4E;stroke:#262262;stroke-miterlimit:10;}
	.st36{fill:#66DCCC;stroke:#262262;stroke-miterlimit:10;}
	.st37{fill:#FFFFFF;stroke:#262262;stroke-linejoin:round;stroke-miterlimit:10;}
	.st38{fill:none;stroke:#262262;stroke-linejoin:round;stroke-miterlimit:10;}
	.st39{fill:#FF376E;stroke:#262262;stroke-miterlimit:10;}
	.st40{fill:#E84448;stroke:#262262;stroke-miterlimit:10;}
	.st41{fill:#E63066;stroke:#262262;stroke-miterlimit:10;}
	.st42{fill:#3B86FF;stroke:#2A255C;stroke-miterlimit:10;}
	.st43{fill:#FFF000;stroke:#262262;stroke-miterlimit:10;}
	.st44{fill:#FFEA00;stroke:#262262;stroke-miterlimit:10;}
	.st45{fill:#2AD575;stroke:#262262;stroke-miterlimit:10;}
	.st46{fill:#FF4D4E;stroke:#2A255C;stroke-miterlimit:10;}
	.st47{fill:#FFEA00;stroke:#2A255C;stroke-miterlimit:10;}
	.st48{fill:#F18D1B;}
	.st49{opacity:0.36;fill:none;stroke:#F2F2F1;stroke-miterlimit:10;}
	.st50{fill:#CB84F0;stroke:#262262;stroke-linecap:round;stroke-linejoin:round;stroke-miterlimit:10;}
	.st51{fill:#FFFFFF;stroke:#262262;stroke-linecap:round;stroke-linejoin:round;stroke-miterlimit:10;}
	.st52{fill:none;stroke:#262262;stroke-linecap:round;stroke-linejoin:round;stroke-miterlimit:10;}
	.st53{fill:#2AD575;stroke:#262262;stroke-linecap:round;stroke-linejoin:round;stroke-miterlimit:10;}
	.st54{fill:#FFF000;stroke:#262262;stroke-linecap:round;stroke-linejoin:round;stroke-miterlimit:10;}
	.st55{fill:#2A255C;stroke:#262262;stroke-miterlimit:10;}
</style>
<g id="ECP">
	<g id="Capa_18">
	</g>
	<g id="Capa_19">
	</g>
	<g id="Capa_20">
	</g>
	<g id="Capa_20_copia">
	</g>
	<g id="Capa_21">
	</g>
	<g id="Capa_23">
	</g>
	<g id="Capa_22">
		<g id="Capa_24">
		</g>
	</g>
	<g id="Capa_26">
	</g>
</g>
<g id="Effective">
	<g id="Capa_36">
	</g>
	<g id="Capa_35">
	</g>
	<g id="Capa_38">
	</g>
	<g id="Capa_39">
		<g id="Capa_40">
		</g>
	</g>
	<g id="Capa_41">
	</g>
</g>
<g id="Condoms">
	<g id="Capa_42">
	</g>
	<g id="Capa_43">
	</g>
	<g id="Capa_44">
	</g>
	<g id="Capa_45">
	</g>
	<g id="Capa_46">
	</g>
	<g id="Capa_47">
	</g>
	<g id="Capa_48">
	</g>
	<g id="Capa_49">
	</g>
</g>
<g id="Capa_51">
</g>
<g id="Capa_52">
</g>
<g id="Capa_54">
</g>
<g id="Capa_53">
	<g id="Capa_55">
	</g>
</g>
<g id="Capa_56">
</g>
<g id="Capa_57">
</g>
<g id="Capa_58">
</g>
<g id="Capa_59">
	<g>
		<polygon class="st13" points="114.71,152.41 210.44,44.43 216.48,40.16 267.64,88.73 262.44,92.25 156,189.09 		"/>
		
			<ellipse transform="matrix(0.6716 -0.7409 0.7409 0.6716 -82.2739 156.2974)" class="st13" cx="135.17" cy="170.95" rx="8.67" ry="27.61"/>
		<line class="st4" x1="210.44" y1="44.43" x2="262.44" y2="92.25"/>
		<line class="st4" x1="213.35" y1="47.1" x2="219.93" y2="43.44"/>
		<line class="st4" x1="216.51" y1="50.01" x2="222.98" y2="46.63"/>
		<line class="st4" x1="219.98" y1="53.21" x2="226.71" y2="49.87"/>
		<line class="st4" x1="223.17" y1="56.14" x2="230.17" y2="53.15"/>
		<path class="st4" d="M226.91,59.58c0.01,0.01,6.82-3.04,6.82-3.04"/>
		<line class="st4" x1="230.56" y1="62.93" x2="237.36" y2="59.99"/>
		<line class="st4" x1="234.2" y1="66.33" x2="241.1" y2="63.54"/>
		<line class="st4" x1="237.89" y1="69.67" x2="244.56" y2="66.81"/>
		<line class="st4" x1="241.45" y1="72.95" x2="248.5" y2="70.56"/>
		<line class="st4" x1="245.02" y1="76.23" x2="252.03" y2="73.91"/>
		<line class="st4" x1="248.75" y1="79.66" x2="255.77" y2="77.46"/>
		<line class="st4" x1="252.48" y1="83.09" x2="259.01" y2="80.84"/>
		<line class="st4" x1="255.96" y1="86.29" x2="262.71" y2="84.05"/>
		<line class="st4" x1="259.7" y1="89.73" x2="266.63" y2="87.77"/>
		<path class="st12" d="M129.85,147.18c0,0-2.52-0.09-0.2-4.09c1.27-2.18,7.87-11.36,15.53-20.19c1.9-2.2,14.07-17.87,20.19-14.1
			c2.43,1.5-0.87,6.63-5.28,10.88c-3.94,3.81-10.88,8.1-12.65,9.77s-5.32,7.07-11.17,13.92
			C133.3,146.85,131.97,147.47,129.85,147.18z"/>
		<path class="st13" d="M123.04,162.2l-12.18,19.92l12.64,11.46l19.06-15.19c0,0-0.29-4.61-10.14-12.18
			C126.27,161.48,123.04,162.2,123.04,162.2z"/>
		
			<ellipse transform="matrix(0.6483 -0.7614 0.7614 0.6483 -101.6263 155.4385)" class="st13" cx="117.44" cy="187.73" rx="2.78" ry="8.64"/>
		<path class="st13" d="M112.73,179.07c0,0,4.61,1.06,8.26,4.74c3.16,3.19,4.64,6.74,5.02,7.77"/>
		<path class="st13" d="M114.11,176.82c0,0,4.91,1.27,8.84,4.83c2.68,2.42,4.66,7.14,5.04,8.17"/>
	</g>
	<g>
		<path class="st37" d="M116.48,188.63c0,0-1.67,1.94-1.3,7.48c0.35,5.19-2.45,9.93-6.98,12.42c-8.88,4.88-11.54,2.04-18.74,1.6
			c-7.2-0.44-13.52,3.29-18.28,7.16c-4.75,3.87-9.01,14.71-26.02,15.62s-13.42-13.41-11.39-16.2s6-8.16,17.53-8.15
			c10.47,0.01,5.01-14.6,16.72-20.33c0,0,8.57-6.61,22.79,2.72C104.02,199.63,113.87,192.6,116.48,188.63z"/>
		<path class="st37" d="M69.1,198.39c0,0-1.31-1.58-0.59-2.84c0.77-1.35,3.2-4.33,8.71-3.69c5.52,0.65,5.05,2.57,3.62,3.56
			c-1.43,0.99-5.68,2.87-7.64,3.4C71.25,199.35,70.07,199.48,69.1,198.39z"/>
		<path class="st37" d="M84.58,197.31c0,0-2.51-2.19,0.96-2.93s5.12,2.53,5.12,2.53s0.64,0.58-1.68,1.12
			C86.65,198.56,84.58,197.31,84.58,197.31z"/>
		<path class="st37" d="M41.89,223.53c0,0-3.66,0.57-3.36-2.55c0.3-3.12,3.23-4.08,5.37-4.8c1.27-0.43,5.36-0.77,5.85-0.39
			s-0.29,1.87-1.16,2.81C47.73,219.53,45.1,223.04,41.89,223.53z"/>
	</g>
</g>
<g id="Capa_60">
</g>
<g id="Capa_61">
</g>
<g id="Capa_63">
</g>
</svg>
