<?xml version="1.0" encoding="utf-8"?>
<!-- Generator: Adobe Illustrator 25.4.1, SVG Export Plug-In . SVG Version: 6.00 Build 0)  -->
<svg version="1.1" xmlns="http://www.w3.org/2000/svg" xmlns:xlink="http://www.w3.org/1999/xlink" x="0px" y="0px"
	 viewBox="0 0 297.27 273.12" style="enable-background:new 0 0 297.27 273.12;" xml:space="preserve">
<style type="text/css">
	.st0{fill:#3B86FF;stroke:#262262;stroke-miterlimit:10;}
	.st1{fill:#F2F2F1;stroke:#262262;stroke-miterlimit:10;}
	.st2{fill:#F2F2F1;stroke:#262262;stroke-linecap:round;stroke-linejoin:round;stroke-miterlimit:10;}
	.st3{fill:#3B86FF;}
	.st4{fill:none;stroke:#262262;stroke-miterlimit:10;}
	.st5{fill:#2AD575;stroke:#2A255C;stroke-miterlimit:10;}
	.st6{fill:#262262;}
	.st7{fill:#FF4D4E;}
	.st8{fill:#FFF000;}
	.st9{fill:#FFFFFF;}
	.st10{fill:#F78F2D;stroke:#262262;stroke-miterlimit:10;}
	.st11{fill:none;stroke:#FFF000;stroke-miterlimit:10;}
	.st12{fill:#FFFFFF;stroke:#262262;stroke-miterlimit:10;}
	.st13{fill:#CB84F0;stroke:#262262;stroke-miterlimit:10;}
	.st14{fill:#AD5D46;}
	.st15{fill:#7B3525;}
	.st16{fill:#F78F2D;}
	.st17{fill:#2AD575;}
	.st18{fill:none;stroke:#FF4D4E;stroke-miterlimit:10;}
	.st19{fill:none;stroke:#2AD575;stroke-miterlimit:10;}
	.st20{fill:none;stroke:#3B86FF;stroke-miterlimit:10;}
	.st21{fill:#577CBC;}
	.st22{fill:none;stroke:#2A255C;stroke-miterlimit:10;}
	.st23{clip-path:url(#SVGID_00000003785994481054422110000017666288023812722586_);}
	.st24{fill:none;stroke:#404440;stroke-miterlimit:10;}
	.st25{clip-path:url(#SVGID_00000168110799651516495080000012188315342333213583_);}
	.st26{fill:none;stroke:#000000;stroke-miterlimit:10;}
	.st27{fill:none;stroke:#7B3525;stroke-miterlimit:10;}
	.st28{fill:none;stroke:#000000;stroke-linecap:round;stroke-miterlimit:10;}
	.st29{fill:#F2F2F1;}
	.st30{fill:none;stroke:#2A255C;stroke-linecap:round;stroke-linejoin:round;stroke-miterlimit:10;}
	.st31{fill:none;stroke:#2A255C;stroke-linecap:round;stroke-miterlimit:10;}
	.st32{fill:none;}
	.st33{fill:#66DCCC;}
	.st34{fill:#F18D1B;stroke:#262262;stroke-miterlimit:10;}
	.st35{fill:#FF4D4E;stroke:#262262;stroke-miterlimit:10;}
	.st36{fill:#66DCCC;stroke:#262262;stroke-miterlimit:10;}
	.st37{fill:#FFFFFF;stroke:#262262;stroke-linejoin:round;stroke-miterlimit:10;}
	.st38{fill:none;stroke:#262262;stroke-linejoin:round;stroke-miterlimit:10;}
	.st39{fill:#FF376E;stroke:#262262;stroke-miterlimit:10;}
	.st40{fill:#E84448;stroke:#262262;stroke-miterlimit:10;}
	.st41{fill:#E63066;stroke:#262262;stroke-miterlimit:10;}
	.st42{fill:#3B86FF;stroke:#2A255C;stroke-miterlimit:10;}
	.st43{fill:#FFF000;stroke:#262262;stroke-miterlimit:10;}
	.st44{fill:#FFEA00;stroke:#262262;stroke-miterlimit:10;}
	.st45{fill:#2AD575;stroke:#262262;stroke-miterlimit:10;}
	.st46{fill:#FF4D4E;stroke:#2A255C;stroke-miterlimit:10;}
	.st47{fill:#FFEA00;stroke:#2A255C;stroke-miterlimit:10;}
	.st48{fill:#F18D1B;}
	.st49{opacity:0.36;fill:none;stroke:#F2F2F1;stroke-miterlimit:10;}
	.st50{fill:#CB84F0;stroke:#262262;stroke-linecap:round;stroke-linejoin:round;stroke-miterlimit:10;}
	.st51{fill:#FFFFFF;stroke:#262262;stroke-linecap:round;stroke-linejoin:round;stroke-miterlimit:10;}
	.st52{fill:none;stroke:#262262;stroke-linecap:round;stroke-linejoin:round;stroke-miterlimit:10;}
	.st53{fill:#2AD575;stroke:#262262;stroke-linecap:round;stroke-linejoin:round;stroke-miterlimit:10;}
	.st54{fill:#FFF000;stroke:#262262;stroke-linecap:round;stroke-linejoin:round;stroke-miterlimit:10;}
	.st55{fill:#2A255C;stroke:#262262;stroke-miterlimit:10;}
</style>
<g id="ECP">
	<g id="Capa_18">
	</g>
	<g id="Capa_19">
	</g>
	<g id="Capa_20">
	</g>
	<g id="Capa_20_copia">
	</g>
	<g id="Capa_21">
	</g>
	<g id="Capa_23">
	</g>
	<g id="Capa_22">
		<g id="Capa_24">
		</g>
	</g>
	<g id="Capa_26">
	</g>
</g>
<g id="Effective">
	<g id="Capa_36">
	</g>
	<g id="Capa_35">
	</g>
	<g id="Capa_38">
		<g>
			<path class="st13" d="M260.89,27.72c4.76,4.93,6.69,10.8,4.31,13.09c-1.71,1.65-5.2,1.01-8.8-1.33l-52.92,51.06l-7.35-7.78
				l52.84-50.99c-2.2-3.68-2.73-7.19-1.02-8.84C250.34,20.64,256.13,22.78,260.89,27.72z"/>
			<path class="st35" d="M195.34,107.18l10.68-10.31c0,0-0.28-4.85-6.39-11.18c-5.34-5.53-9.78-4.88-9.78-4.88l-10.33,9.97
				L195.34,107.18z"/>
			<path class="st12" d="M104.62,165.27l74.9-74.5c0,0,11.38,3,15.82,16.4l-72.99,74.93"/>
			<path class="st36" d="M115.92,170.54c5.97,6.27,6.08,8.32,6.43,11.57l-10.84,1.85l-5.26,3.15l-11.39,9.51
				c0,0-0.99,0.92-2.92-0.83c-1.57-1.41-0.84-3.06-0.84-3.06l9.19-10.8l3.33-5.3l0.99-11.36
				C104.62,165.27,110.48,164.83,115.92,170.54z"/>
			<path class="st37" d="M29.61,254.52l62.59-60.4c0,0,0.68,0.09,1.42,1.47l-11.81,11.39l-48.69,46.98L29.61,254.52z"/>
			
				<ellipse transform="matrix(0.7196 -0.6944 0.6944 0.7196 -22.8511 154.9269)" class="st4" cx="180.4" cy="105.76" rx="5.03" ry="5.13"/>
			
				<ellipse transform="matrix(0.7196 -0.6944 0.6944 0.7196 -31.9625 150.8642)" class="st4" cx="170.82" cy="115.01" rx="5.03" ry="5.13"/>
			<line class="st4" x1="118.03" y1="162.25" x2="157.39" y2="124.27"/>
			<line class="st4" x1="121" y1="165.33" x2="136.21" y2="150.65"/>
			<line class="st4" x1="123.98" y1="168.41" x2="139.19" y2="153.73"/>
			<path class="st4" d="M103.63,176.63c0,0,2.04-0.37,4.59,2.15c2.55,2.52,3.3,5.18,3.3,5.18"/>
			<path class="st4" d="M100.68,181.32c0,0,2.45-0.19,4.19,1.99c1.74,2.18,1.39,3.79,1.39,3.79"/>
			<path class="st4" d="M91.11,192.73c0,0,1.4-1.35,3.04,0.52c1.23,1.39,1.55,2.67,0.71,3.37"/>
			<path class="st4" d="M182.68,87.73c0,0,5.79,0.79,10.51,5.69c4.69,4.86,6.15,8.74,6.14,9.91"/>
			<path class="st4" d="M186.35,84.19c0,0,5.79,0.79,10.51,5.69c4.69,4.86,6.15,8.74,6.14,9.91"/>
			<path class="st4" d="M256.42,39.5l2.69-2.6c0,0,0.93-1.67-2.08-4.79c-1.42-1.47-4.15-4.1-5.37-2.93l-2.69,2.6"/>
			<line class="st4" x1="199.18" y1="85.22" x2="255.63" y2="30.74"/>
			<line class="st4" x1="200.69" y1="86.78" x2="257.14" y2="32.31"/>
			<path class="st38" d="M219.89,59.14c0,0-4.62-4.39-2.4-6.54c2.23-2.15,8.21,2.91,10.5,5.23s8.33,8.7,6.21,10.75
				c-2.08,2.01-6.49-1.41-6.49-1.41"/>
			<path class="st38" d="M219.02,60.68c0,0-7.02-6.61-3.42-10.08c3.21-3.1,11.12,3.28,13.87,6.06c2.75,2.78,9.83,10.68,6.65,13.75
				c-3.14,3.03-9.67-2.03-9.67-2.03"/>
		</g>
	</g>
	<g id="Capa_39">
		<g id="Capa_40">
		</g>
	</g>
	<g id="Capa_41">
	</g>
</g>
<g id="Condoms">
	<g id="Capa_42">
	</g>
	<g id="Capa_43">
	</g>
	<g id="Capa_44">
	</g>
	<g id="Capa_45">
	</g>
	<g id="Capa_46">
	</g>
	<g id="Capa_47">
	</g>
	<g id="Capa_48">
	</g>
	<g id="Capa_49">
	</g>
</g>
<g id="Capa_51">
</g>
<g id="Capa_52">
</g>
<g id="Capa_54">
</g>
<g id="Capa_53">
	<g id="Capa_55">
	</g>
</g>
<g id="Capa_56">
</g>
<g id="Capa_57">
</g>
<g id="Capa_58">
</g>
<g id="Capa_59">
</g>
<g id="Capa_60">
</g>
<g id="Capa_61">
</g>
<g id="Capa_63">
</g>
</svg>
