<svg width="150" height="150" viewBox="0 0 150 150" fill="none" xmlns="http://www.w3.org/2000/svg">
<circle cx="75" cy="75" r="75" fill="#F78F2D"/>
<path d="M51.2959 102.135C48.4805 102.135 46.3682 100.168 46.3682 97.5471V88.8459L46.6961 88.5295L46.708 58.1102L46.5381 57.3633V52.6172L51.1929 52.3008L56.3936 52.6172V57.3633L55.9069 57.8666L55.8838 88.3161L56.3936 88.846V97.5472C56.3936 99.3063 55.3657 100.842 53.8388 101.662C53.0905 102.063 51.2959 102.135 51.2959 102.135V102.135Z" fill="#FF376E"/>
<path d="M48.7471 96.9143V88.8459L48.4145 88.5103L48.4072 58.459L48.7471 57.3633V52.6172L47.4582 52.3008L46.1982 52.6172V57.3633L46.5279 58.192L46.5381 88.2956L46.1982 88.846V97.5472C46.1982 100.169 48.4805 102.293 51.2959 102.293C52.222 102.293 53.0903 102.063 53.8388 101.662C51.0266 101.658 48.7471 99.5335 48.7471 96.9143V96.9143Z" fill="#FF4D4E"/>
<path d="M55.1192 35.6875H48.1524L47.4727 35.8457C46.5342 35.8457 45.9434 36.3958 45.9434 37.2695V40.3545H56.6485L56.8184 38.1397V37.2695C56.8184 36.3959 56.0577 35.6875 55.1192 35.6875Z" fill="#64ACDC"/>
<path d="M48.1524 37.665V35.6875H47.4727C46.5342 35.6875 45.7734 36.3958 45.7734 37.2695V40.5127L51.2145 40.8291L56.8184 40.5127V38.1397H48.6621C48.3807 38.1397 48.1524 37.9272 48.1524 37.665Z" fill="#5D9FD1"/>
<path d="M57.2432 40.5117H55.1192L53.8213 40.8281L52.5703 40.5117H50.0215L48.7471 40.8281L47.4727 40.5117H46.1983L45.3486 40.8281C44.4102 40.8281 43.9893 41.5364 43.9893 42.4102V51.0323C43.9893 51.906 44.75 52.2979 45.6885 52.2979H56.9034C57.8419 52.2979 58.6026 51.906 58.6026 51.0323L58.9424 50.083V42.0938C58.9424 41.2202 58.1817 40.5117 57.2432 40.5117Z" fill="#64ACDC"/>
<path d="M46.1983 49.6084V40.5117H45.3486C44.4102 40.5117 43.6494 41.22 43.6494 42.0938V51.0323C43.6494 51.906 44.4102 52.6143 45.3486 52.6143H47.4727L48.7092 52.4561L50.0215 52.6143H52.5703L53.8388 52.4561L55.1192 52.6143H57.2432C58.1817 52.6143 58.9424 51.906 58.9424 51.0323V50.0831H55.1192L53.8448 50.2413L52.5703 50.0831H50.0215L48.6766 50.2413L47.4727 50.0831H46.708C46.4266 50.0831 46.1983 49.8706 46.1983 49.6084Z" fill="#5D9FD1"/>
<path d="M56.3936 57.3633H48.7471L46.3682 57.5215V88.6876L48.7471 88.8458H56.3936V57.3633Z" fill="#F9F8F9"/>
<path d="M46.1982 57.3633H48.7471V88.8458H46.1982V57.3633Z" fill="#E8E8E8"/>
<path d="M75 102.135C72.1846 102.135 70.0723 100.168 70.0723 97.5471V88.8459L70.3982 88.3472L70.4121 58.1627L70.2422 57.3633V52.6172L74.897 52.3008L80.0977 52.6172V57.3633L79.611 57.9203L79.5879 88.0264L80.0977 88.846V97.5472C80.0977 99.3063 79.0698 100.842 77.5429 101.662C76.7946 102.063 75 102.135 75 102.135V102.135Z" fill="#FF376E"/>
<path d="M72.4512 96.9143V88.8459L72.1219 88.4575L72.1113 58.3513L72.4512 57.3633V52.6172L71.1623 52.3008L69.9023 52.6172V57.3633L70.2293 57.9744L70.2422 88.0802L69.9023 88.8459V97.5471C69.9023 100.168 72.1846 102.293 75 102.293C75.9261 102.293 76.7944 102.063 77.5429 101.661C74.7307 101.658 72.4512 99.5335 72.4512 96.9143V96.9143Z" fill="#FF4D4E"/>
<path d="M78.8233 35.6875H71.8565L71.1768 35.8457C70.2383 35.8457 69.6475 36.3958 69.6475 37.2695V40.3545H80.3526L80.5225 38.1397V37.2695C80.5225 36.3959 79.7618 35.6875 78.8233 35.6875Z" fill="#64ACDC"/>
<path d="M71.8565 37.665V35.6875H71.1768C70.2383 35.6875 69.4775 36.3958 69.4775 37.2695V40.5127L74.9186 40.8291L80.5225 40.5127V38.1397H72.3662C72.0848 38.1397 71.8565 37.9272 71.8565 37.665Z" fill="#5D9FD1"/>
<path d="M80.9473 40.5117H78.8233L77.5254 40.8281L76.2744 40.5117H73.7256L72.4512 40.8281L71.1768 40.5117H69.9024L69.0527 40.8281C68.1143 40.8281 67.6934 41.5364 67.6934 42.4102V51.0323C67.6934 51.906 68.4541 52.2979 69.3926 52.2979H80.6075C81.546 52.2979 82.3067 51.906 82.3067 51.0323L82.6465 50.083V42.0938C82.6465 41.2202 81.8858 40.5117 80.9473 40.5117Z" fill="#64ACDC"/>
<path d="M69.9024 49.6084V40.5117H69.0527C68.1143 40.5117 67.3535 41.22 67.3535 42.0938V51.0323C67.3535 51.906 68.1143 52.6143 69.0527 52.6143H71.1768L72.3572 52.4561L73.7256 52.6143H76.2745L77.4982 52.4561L78.8233 52.6143H80.9473C81.8858 52.6143 82.6465 51.906 82.6465 51.0323V50.0831H78.8233L77.5489 50.2413L76.2745 50.0831H73.7256L72.4512 50.2413L71.1768 50.0831H70.4121C70.1307 50.0831 69.9024 49.8706 69.9024 49.6084Z" fill="#5D9FD1"/>
<path d="M80.0977 57.3633H72.4512L70.0723 57.5215V88.6876L72.4512 88.8458H80.0977V57.3633Z" fill="#F9F8F9"/>
<path d="M69.9023 57.3633H72.4512V88.8458H69.9023V57.3633Z" fill="#E8E8E8"/>
<path d="M98.7041 102.135C95.8887 102.135 93.7764 100.168 93.7764 97.5471V88.8459L94.071 88.2955L94.1162 57.7588L93.9463 57.3633V52.6172L98.6011 52.3008L103.802 52.6172V57.3633L103.292 58.1627L103.384 88.2417L103.802 88.8459V97.5471C103.802 99.3062 102.774 100.842 101.247 101.661C100.499 102.063 98.7041 102.135 98.7041 102.135V102.135Z" fill="#FF376E"/>
<path d="M96.1553 96.9141V88.8457L95.8238 88.2396L95.8154 57.6511L96.1553 57.3633V52.6172L94.8664 52.3008L93.6064 52.6172V57.3633L93.9463 57.8126L93.9368 88.457L93.6064 88.8457V97.5469C93.6064 100.168 95.8887 102.293 98.7041 102.293C99.6302 102.293 100.499 102.063 101.247 101.661C98.4348 101.658 96.1553 99.5333 96.1553 96.9141Z" fill="#FF4D4E"/>
<path d="M102.527 35.6875H95.5606L94.8809 35.8457C93.9424 35.8457 93.3516 36.3958 93.3516 37.2695V40.3545H104.057L104.227 38.1397V37.2695C104.227 36.3959 103.466 35.6875 102.527 35.6875Z" fill="#64ACDC"/>
<path d="M95.5606 37.665V35.6875H94.8809C93.9424 35.6875 93.1816 36.3958 93.1816 37.2695V40.5127L98.6227 40.8291L104.227 40.5127V38.1397H96.0703C95.7889 38.1397 95.5606 37.9272 95.5606 37.665Z" fill="#5D9FD1"/>
<path d="M104.651 40.5117H102.527L101.23 40.8281L99.9785 40.5117H97.4297L96.1553 40.8281L94.8809 40.5117H93.6065L92.7568 40.8281C91.8184 40.8281 91.3975 41.5364 91.3975 42.4102V51.0323C91.3975 51.906 92.1582 52.2979 93.0967 52.2979H104.312C105.25 52.2979 106.011 51.906 106.011 51.0323L106.351 50.083V42.0938C106.351 41.2202 105.59 40.5117 104.651 40.5117Z" fill="#64ACDC"/>
<path d="M93.6065 49.6084V40.5117H92.7568C91.8184 40.5117 91.0576 41.22 91.0576 42.0938V51.0323C91.0576 51.906 91.8184 52.6143 92.7568 52.6143H94.8809L96.1553 52.4561L97.4297 52.6143H99.9785L101.253 52.4561L102.527 52.6143H104.651C105.59 52.6143 106.351 51.906 106.351 51.0323V50.0831H102.527L101.247 50.2413L99.9785 50.0831H97.4297L96.1553 50.2413L94.8809 50.0831H94.1162C93.8348 50.0831 93.6065 49.8706 93.6065 49.6084Z" fill="#5D9FD1"/>
<path d="M103.802 57.3633H96.1553L93.7764 57.5215V88.6876L96.1553 88.8458H103.802V57.3633Z" fill="#F9F8F9"/>
<path d="M93.6064 57.3633H96.1553V88.8458H93.6064V57.3633Z" fill="#E8E8E8"/>
<path d="M110.769 73.6562L110.939 106.404C110.939 107.278 109.668 107.986 108.73 107.986L41.2705 107.986C40.3321 107.986 39.5713 107.278 39.5713 106.404V76.5039L38.8916 73.8145H33.2842L33.1143 111.625C33.1143 112.936 34.0855 113.84 35.4932 113.84H114.507C115.915 113.84 116.886 113.252 116.886 111.942L117.226 111.151V76.5039L116.886 73.6562H110.769Z" fill="#909BA6"/>
<path d="M37.8721 111.151C36.9336 111.151 36.1729 110.442 36.1729 109.569V76.9785C36.1729 76.7164 36.4011 76.5039 36.6826 76.5039H39.5713V73.2641L36.059 73.0234L32.7744 73.3398V111.942C32.7744 113.252 33.9156 114.315 35.3233 114.315H114.677C116.085 114.315 117.226 113.252 117.226 111.942V111.151H37.8721Z" fill="#7E8B96"/>
<path d="M117.226 73.3398L113.884 73.0234L110.429 73.3398V106.404V106.409C110.426 107.281 109.666 107.986 108.73 107.986H112.128C113.067 107.986 113.828 107.278 113.828 106.404V76.9785C113.828 76.7164 114.056 76.5039 114.337 76.5039H117.226V73.3398Z" fill="#7E8B96"/>
<path d="M117.056 73.1817H32.9443V69.543C32.9443 68.2324 33.9156 67.1699 35.3233 67.1699L36.1729 67.0117H114.677C116.085 67.0117 117.226 68.0742 117.226 69.3848V70.1758L117.056 73.1817Z" fill="#A2ABB8"/>
<path d="M36.1729 69.7012V67.0117H35.3233C33.9156 67.0117 32.7744 68.0742 32.7744 69.3848V73.3399H117.226V70.1758H36.6826C36.4012 70.1758 36.1729 69.9633 36.1729 69.7012Z" fill="#909BA6"/>
<path d="M117.226 88.5333C117.93 88.5333 118.501 88.0021 118.501 87.3468C118.501 84.125 118.499 72.3198 118.501 69.384C118.501 67.4212 116.786 65.8245 114.677 65.8245H105.077V53.7694C106.515 53.5763 107.626 52.4243 107.626 51.0324V42.0938C107.626 40.8422 106.728 39.7832 105.502 39.4418V37.2686C105.502 35.7421 104.168 34.5 102.528 34.5H94.8815C93.242 34.5 91.9079 35.7421 91.9079 37.2686V39.4418C90.6812 39.7832 89.7839 40.8422 89.7839 42.0938V51.0323C89.7839 52.4241 90.8941 53.5763 92.3327 53.7692V65.8243H81.3727V53.7692C82.8113 53.5762 83.9216 52.4241 83.9216 51.0323V42.0938C83.9216 40.8422 83.0242 39.7832 81.7975 39.4418V37.2686C81.7975 35.7421 80.4636 34.5 78.8239 34.5H71.1774C69.5378 34.5 68.2038 35.7421 68.2038 37.2686V39.4418C66.9771 39.7832 66.0797 40.8421 66.0797 42.0938V51.0323C66.0797 52.4241 67.19 53.5763 68.6286 53.7692V65.8243H57.6686V53.7692C59.1071 53.5762 60.2174 52.4241 60.2174 51.0323V42.0938C60.2174 40.8422 59.3201 39.7832 58.0934 39.4418V37.2686C58.0934 35.7421 56.7595 34.5 55.1198 34.5H47.4733C45.8337 34.5 44.4996 35.7421 44.4996 37.2686V39.4418C43.2729 39.7832 42.3756 40.8422 42.3756 42.0938V51.0323C42.3756 52.4241 43.4859 53.5763 44.9244 53.7692V65.8243H35.3238C33.2158 65.8243 31.5006 67.4212 31.5006 69.3839C31.5011 70.5883 31.5002 109.593 31.5006 111.941C31.5006 113.903 33.2158 115.5 35.3238 115.5H114.677C116.786 115.5 118.501 113.903 118.501 111.941V92.8839C118.501 92.2286 117.93 91.6974 117.226 91.6974C116.522 91.6974 115.952 92.2286 115.952 92.8839V111.941C115.952 112.595 115.38 113.127 114.677 113.127H35.3238C34.621 113.127 34.0494 112.595 34.0494 111.941V74.5255H38.2975V106.404C38.2975 107.93 39.6315 109.172 41.2711 109.172H69.0534C69.7572 109.172 70.3278 108.641 70.3278 107.986C70.3278 107.33 69.7572 106.799 69.0534 106.799H41.2711C41.0369 106.799 40.8463 106.622 40.8463 106.404V74.5255H44.9244V97.5441C44.9244 100.815 47.7829 103.477 51.2965 103.477C54.8102 103.477 57.6686 100.815 57.6686 97.5441V84.2265C57.6686 83.5713 57.098 83.04 56.3942 83.04C55.6903 83.04 55.1198 83.5713 55.1198 84.2265V87.6564H47.4733V74.5255H50.0221V79.0343C50.0221 79.6896 50.5927 80.2208 51.2965 80.2208C52.0003 80.2208 52.5709 79.6896 52.5709 79.0343V74.5255H55.1198V78.6893C55.1198 79.3445 55.6903 79.8758 56.3942 79.8758C57.098 79.8758 57.6686 79.3445 57.6686 78.6893V74.5255H68.6286V97.5441C68.6286 100.815 71.487 103.477 75.0006 103.477C78.5143 103.477 81.3727 100.815 81.3727 97.5441V74.5255H92.3327V97.5441C92.3327 100.815 95.1911 103.477 98.7048 103.477C102.218 103.477 105.077 100.815 105.077 97.5441V74.5255H109.155V106.404C109.155 106.622 108.964 106.799 108.73 106.799H75.0006C74.2968 106.799 73.7262 107.33 73.7262 107.986C73.7262 108.641 74.2968 109.172 75.0006 109.172H108.73C110.37 109.172 111.704 107.93 111.704 106.404V74.5255H115.952V87.3466C115.952 88.0021 116.522 88.5333 117.226 88.5333ZM104.652 41.6983C104.886 41.6983 105.077 41.8758 105.077 42.0938V51.0323C105.077 51.2503 104.886 51.4278 104.652 51.4278H102.528V41.6983H104.652ZM94.4567 37.2686C94.4567 37.0506 94.6474 36.8731 94.8815 36.8731H102.528C102.762 36.8731 102.953 37.0506 102.953 37.2686V39.3252H94.4567V37.2686ZM98.7048 60.92C98.001 60.92 97.4304 61.4512 97.4304 62.1065V65.8243H94.8815V58.4678H102.528V65.8243H99.9792V62.1065C99.9792 61.4512 99.4086 60.92 98.7048 60.92ZM94.8815 56.0948V53.8008H102.528V56.0948H94.8815ZM97.4304 51.4278V41.6983H99.9792V51.4278H97.4304ZM92.3327 42.0938C92.3327 41.8758 92.5234 41.6983 92.7575 41.6983H94.8815V51.4278H92.7575C92.5234 51.4278 92.3327 51.2503 92.3327 51.0323V42.0938ZM80.9479 41.6983C81.1821 41.6983 81.3727 41.8758 81.3727 42.0938V51.0323C81.3727 51.2503 81.1821 51.4278 80.9479 51.4278H78.9089V41.6983H80.9479ZM70.7526 37.2686C70.7526 37.0506 70.9432 36.8731 71.1774 36.8731H78.8239C79.058 36.8731 79.2487 37.0506 79.2487 37.2686V39.3252H70.7526V37.2686ZM75.0006 60.92C74.2968 60.92 73.7262 61.4512 73.7262 62.1065V65.8243H71.1774V58.4678H78.8239V65.8243H76.2751V62.1065C76.2751 61.4512 75.7045 60.92 75.0006 60.92ZM71.1774 56.0948V53.8008H78.8239V56.0948H71.1774ZM73.8112 51.4278V41.6983H76.36V51.4278H73.8112ZM68.6286 42.0938C68.6286 41.8758 68.8192 41.6983 69.0534 41.6983H71.2624V51.4278H69.0534C68.8192 51.4278 68.6286 51.2503 68.6286 51.0323V42.0938ZM57.2438 41.6983C57.4779 41.6983 57.6686 41.8758 57.6686 42.0938V51.0323C57.6686 51.2503 57.4779 51.4278 57.2438 51.4278H55.1198V41.6983H57.2438ZM47.0484 37.2686C47.0484 37.0506 47.2391 36.8731 47.4733 36.8731H55.1198C55.3539 36.8731 55.5446 37.0506 55.5446 37.2686V39.3252H47.0484V37.2686ZM51.2965 60.92C50.5927 60.92 50.0221 61.4512 50.0221 62.1065V65.8243H47.4733V58.5469H55.1198V65.8243H52.5709V62.1065C52.5709 61.4512 52.0003 60.92 51.2965 60.92ZM47.4733 56.1739V53.8008H55.1198V56.1739H47.4733ZM50.0221 51.4278V41.6983H52.5709V51.4278H50.0221ZM44.9244 42.0938C44.9244 41.8758 45.1151 41.6983 45.3492 41.6983H47.4733V51.4278H45.3492C45.1151 51.4278 44.9244 51.2503 44.9244 51.0323V42.0938ZM55.1198 90.0294V97.5441C55.1198 99.5069 53.4047 101.104 51.2965 101.104C49.1883 101.104 47.4733 99.5069 47.4733 97.5441V90.0294H55.1198ZM78.8239 97.5441C78.8239 99.5069 77.1089 101.104 75.0006 101.104C72.8924 101.104 71.1774 99.5069 71.1774 97.5441V89.9503H78.8239V97.5441ZM78.8239 87.5773H71.1774V74.5255H73.7262V79.0343C73.7262 79.6896 74.2968 80.2208 75.0006 80.2208C75.7045 80.2208 76.2751 79.6896 76.2751 79.0343V74.5255H78.8239V87.5773ZM102.528 97.5441C102.528 99.5069 100.813 101.104 98.7048 101.104C96.5966 101.104 94.8815 99.5069 94.8815 97.5441V89.9503H102.528V97.5441ZM102.528 87.5773H94.8815V74.5255H97.4304V79.0343C97.4304 79.6896 98.001 80.2208 98.7048 80.2208C99.4086 80.2208 99.9792 79.6896 99.9792 79.0343V74.5255H102.528V87.5773ZM34.0494 72.1524V69.3839C34.0494 68.7296 34.621 68.1974 35.3238 68.1974H114.677C115.38 68.1974 115.952 68.7296 115.952 69.3839V72.1524H34.0494Z" fill="black"/>
<path d="M75 85.2051C75.7038 85.2051 76.2744 84.6739 76.2744 84.0186C76.2744 83.3633 75.7038 82.832 75 82.832C74.2962 82.832 73.7256 83.3633 73.7256 84.0186C73.7256 84.6739 74.2962 85.2051 75 85.2051Z" fill="black"/>
<path d="M51.2959 85.2051C51.9997 85.2051 52.5703 84.6739 52.5703 84.0186C52.5703 83.3633 51.9997 82.832 51.2959 82.832C50.5921 82.832 50.0215 83.3633 50.0215 84.0186C50.0215 84.6739 50.5921 85.2051 51.2959 85.2051Z" fill="black"/>
<path d="M98.7046 85.2051C99.4084 85.2051 99.979 84.6739 99.979 84.0186C99.979 83.3633 99.4084 82.832 98.7046 82.832C98.0008 82.832 97.4302 83.3633 97.4302 84.0186C97.4302 84.6739 98.0008 85.2051 98.7046 85.2051Z" fill="black"/>
</svg>
