<?xml version="1.0" encoding="utf-8"?>
<!-- Generator: Adobe Illustrator 25.4.1, SVG Export Plug-In . SVG Version: 6.00 Build 0)  -->
<svg version="1.1" xmlns="http://www.w3.org/2000/svg" xmlns:xlink="http://www.w3.org/1999/xlink" x="0px" y="0px"
	 viewBox="0 0 297.27 273.12" style="enable-background:new 0 0 297.27 273.12;" xml:space="preserve">
<style type="text/css">
	.st0{fill:#3B86FF;stroke:#262262;stroke-miterlimit:10;}
	.st1{fill:#F2F2F1;stroke:#262262;stroke-miterlimit:10;}
	.st2{fill:#F2F2F1;stroke:#262262;stroke-linecap:round;stroke-linejoin:round;stroke-miterlimit:10;}
	.st3{fill:#3B86FF;}
	.st4{fill:none;stroke:#262262;stroke-miterlimit:10;}
	.st5{fill:#2AD575;stroke:#2A255C;stroke-miterlimit:10;}
	.st6{fill:#262262;}
	.st7{fill:#FF4D4E;}
	.st8{fill:#FFF000;}
	.st9{fill:#FFFFFF;}
	.st10{fill:#F78F2D;stroke:#262262;stroke-miterlimit:10;}
	.st11{fill:none;stroke:#FFF000;stroke-miterlimit:10;}
	.st12{fill:#FFFFFF;stroke:#262262;stroke-miterlimit:10;}
	.st13{fill:#CB84F0;stroke:#262262;stroke-miterlimit:10;}
	.st14{fill:#AD5D46;}
	.st15{fill:#7B3525;}
	.st16{fill:#F78F2D;}
	.st17{fill:#2AD575;}
	.st18{fill:none;stroke:#FF4D4E;stroke-miterlimit:10;}
	.st19{fill:none;stroke:#2AD575;stroke-miterlimit:10;}
	.st20{fill:none;stroke:#3B86FF;stroke-miterlimit:10;}
	.st21{fill:#577CBC;}
	.st22{fill:none;stroke:#2A255C;stroke-miterlimit:10;}
	.st23{clip-path:url(#SVGID_00000128474775844654903130000011453402738013159335_);}
	.st24{fill:none;stroke:#404440;stroke-miterlimit:10;}
	.st25{clip-path:url(#SVGID_00000093884923794035876770000017131833343140296382_);}
	.st26{fill:none;stroke:#000000;stroke-miterlimit:10;}
	.st27{fill:none;stroke:#7B3525;stroke-miterlimit:10;}
	.st28{fill:none;stroke:#000000;stroke-linecap:round;stroke-miterlimit:10;}
	.st29{fill:#F2F2F1;}
	.st30{fill:none;stroke:#2A255C;stroke-linecap:round;stroke-linejoin:round;stroke-miterlimit:10;}
	.st31{fill:none;stroke:#2A255C;stroke-linecap:round;stroke-miterlimit:10;}
	.st32{fill:none;}
	.st33{fill:#66DCCC;}
	.st34{fill:#F18D1B;stroke:#262262;stroke-miterlimit:10;}
	.st35{fill:#FF4D4E;stroke:#262262;stroke-miterlimit:10;}
	.st36{fill:#66DCCC;stroke:#262262;stroke-miterlimit:10;}
	.st37{fill:#FFFFFF;stroke:#262262;stroke-linejoin:round;stroke-miterlimit:10;}
	.st38{fill:none;stroke:#262262;stroke-linejoin:round;stroke-miterlimit:10;}
	.st39{fill:#FF376E;stroke:#262262;stroke-miterlimit:10;}
	.st40{fill:#E84448;stroke:#262262;stroke-miterlimit:10;}
	.st41{fill:#E63066;stroke:#262262;stroke-miterlimit:10;}
	.st42{fill:#3B86FF;stroke:#2A255C;stroke-miterlimit:10;}
	.st43{fill:#FFF000;stroke:#262262;stroke-miterlimit:10;}
	.st44{fill:#FFEA00;stroke:#262262;stroke-miterlimit:10;}
	.st45{fill:#2AD575;stroke:#262262;stroke-miterlimit:10;}
	.st46{fill:#FF4D4E;stroke:#2A255C;stroke-miterlimit:10;}
	.st47{fill:#FFEA00;stroke:#2A255C;stroke-miterlimit:10;}
	.st48{fill:#F18D1B;}
	.st49{opacity:0.36;fill:none;stroke:#F2F2F1;stroke-miterlimit:10;}
	.st50{fill:#CB84F0;stroke:#262262;stroke-linecap:round;stroke-linejoin:round;stroke-miterlimit:10;}
	.st51{fill:#FFFFFF;stroke:#262262;stroke-linecap:round;stroke-linejoin:round;stroke-miterlimit:10;}
	.st52{fill:none;stroke:#262262;stroke-linecap:round;stroke-linejoin:round;stroke-miterlimit:10;}
	.st53{fill:#2AD575;stroke:#262262;stroke-linecap:round;stroke-linejoin:round;stroke-miterlimit:10;}
	.st54{fill:#FFF000;stroke:#262262;stroke-linecap:round;stroke-linejoin:round;stroke-miterlimit:10;}
	.st55{fill:#2A255C;stroke:#262262;stroke-miterlimit:10;}
</style>
<g id="ECP">
	<g id="Capa_18">
	</g>
	<g id="Capa_19">
	</g>
	<g id="Capa_20">
	</g>
	<g id="Capa_20_copia">
	</g>
	<g id="Capa_21">
	</g>
	<g id="Capa_23">
	</g>
	<g id="Capa_22">
		<g id="Capa_24">
		</g>
	</g>
	<g id="Capa_26">
	</g>
</g>
<g id="Effective">
	<g id="Capa_36">
	</g>
	<g id="Capa_35">
	</g>
	<g id="Capa_38">
	</g>
	<g id="Capa_39">
		<g id="Capa_40">
		</g>
	</g>
	<g id="Capa_41">
	</g>
</g>
<g id="Condoms">
	<g id="Capa_42">
	</g>
	<g id="Capa_43">
	</g>
	<g id="Capa_44">
	</g>
	<g id="Capa_45">
	</g>
	<g id="Capa_46">
	</g>
	<g id="Capa_47">
	</g>
	<g id="Capa_48">
	</g>
	<g id="Capa_49">
	</g>
</g>
<g id="Capa_51">
</g>
<g id="Capa_52">
</g>
<g id="Capa_54">
	<g>
		<path class="st7" d="M54.76,194.79l21.52-63.29c0,0,1.71-4.83,6.46-6.34c3.93-1.25,166.12-47.97,166.12-47.97s4.54-1.18,5.99,1.51
			s-0.7,6.41-2.07,10.01c-0.72,1.9-18.64,53.36-18.64,53.36s-1.11,5.62-8.7,7.91c-6.2,1.86-142.46,41.84-142.46,41.84
			s-23.5,6.9-25.01,7.41S53.22,199.31,54.76,194.79z"/>
		<line class="st49" x1="70.53" y1="195.48" x2="96.06" y2="121.27"/>
		<line class="st49" x1="90.78" y1="189.52" x2="116.24" y2="115.55"/>
		<line class="st49" x1="110.99" y1="183.62" x2="136.46" y2="109.6"/>
		<line class="st49" x1="131.43" y1="177.59" x2="156.87" y2="103.66"/>
		<line class="st49" x1="150.11" y1="172.11" x2="175.56" y2="98.37"/>
		<line class="st49" x1="170.12" y1="166.16" x2="195.44" y2="92.58"/>
		<line class="st49" x1="188.96" y1="160.8" x2="214.17" y2="87.18"/>
		<line class="st49" x1="211.22" y1="154.16" x2="236.29" y2="80.72"/>
		<line class="st49" x1="74.18" y1="137.65" x2="253.59" y2="86.72"/>
		<line class="st49" x1="68.8" y1="153.49" x2="247.67" y2="102.71"/>
		<line class="st49" x1="63.54" y1="169.3" x2="242.34" y2="118.53"/>
		<line class="st49" x1="58.46" y1="184.18" x2="237.26" y2="133.42"/>
		<path class="st4" d="M54.76,194.79l21.52-63.29c0,0,1.71-4.83,6.46-6.34c3.93-1.25,166.12-47.97,166.12-47.97s4.54-1.18,5.99,1.51
			s-0.7,6.41-2.07,10.01c-0.72,1.9-18.64,53.36-18.64,53.36s-1.11,5.62-8.7,7.91c-6.2,1.86-142.46,41.84-142.46,41.84
			s-23.5,6.9-25.01,7.41S53.22,199.31,54.76,194.79z"/>
		<path class="st12" d="M135.31,136.57l2.13,6.31c0,0,0.44,1.93,2.06,2.6c1.62,0.68,8.58,2.3,19.54-1.22
			c7.55-2.42,13.08-7.41,13.86-10.55c0.4-1.62-1.73-8.62-1.73-8.62"/>
		
			<ellipse transform="matrix(0.9524 -0.3048 0.3048 0.9524 -32.5804 52.9245)" class="st12" cx="153.24" cy="130.83" rx="18.83" ry="9.3"/>
		<line class="st4" x1="145.12" y1="124.11" x2="159.6" y2="138.37"/>
		<line class="st4" x1="149.57" y1="122.24" x2="163.8" y2="136.07"/>
	</g>
</g>
<g id="Capa_53">
	<g id="Capa_55">
	</g>
</g>
<g id="Capa_56">
</g>
<g id="Capa_57">
</g>
<g id="Capa_58">
</g>
<g id="Capa_59">
</g>
<g id="Capa_60">
</g>
<g id="Capa_61">
</g>
<g id="Capa_63">
</g>
</svg>
