<?xml version="1.0" encoding="utf-8"?>
<!-- Generator: Adobe Illustrator 25.4.1, SVG Export Plug-In . SVG Version: 6.00 Build 0)  -->
<svg version="1.1" xmlns="http://www.w3.org/2000/svg" xmlns:xlink="http://www.w3.org/1999/xlink" x="0px" y="0px"
	 viewBox="0 0 297.27 273.12" style="enable-background:new 0 0 297.27 273.12;" xml:space="preserve">
<style type="text/css">
	.st0{fill:#3B86FF;stroke:#262262;stroke-miterlimit:10;}
	.st1{fill:#F2F2F1;stroke:#262262;stroke-miterlimit:10;}
	.st2{fill:#F2F2F1;stroke:#262262;stroke-linecap:round;stroke-linejoin:round;stroke-miterlimit:10;}
	.st3{fill:#3B86FF;}
	.st4{fill:none;stroke:#262262;stroke-miterlimit:10;}
	.st5{fill:#2AD575;stroke:#2A255C;stroke-miterlimit:10;}
	.st6{fill:#262262;}
	.st7{fill:#FF4D4E;}
	.st8{fill:#FFF000;}
	.st9{fill:#FFFFFF;}
	.st10{fill:#F78F2D;stroke:#262262;stroke-miterlimit:10;}
	.st11{fill:none;stroke:#FFF000;stroke-miterlimit:10;}
	.st12{fill:#FFFFFF;stroke:#262262;stroke-miterlimit:10;}
	.st13{fill:#CB84F0;stroke:#262262;stroke-miterlimit:10;}
	.st14{fill:#AD5D46;}
	.st15{fill:#7B3525;}
	.st16{fill:#F78F2D;}
	.st17{fill:#2AD575;}
	.st18{fill:none;stroke:#FF4D4E;stroke-miterlimit:10;}
	.st19{fill:none;stroke:#2AD575;stroke-miterlimit:10;}
	.st20{fill:none;stroke:#3B86FF;stroke-miterlimit:10;}
	.st21{fill:#577CBC;}
	.st22{fill:none;stroke:#2A255C;stroke-miterlimit:10;}
	.st23{clip-path:url(#SVGID_00000017506718686295827940000010537423316182266016_);}
	.st24{fill:none;stroke:#404440;stroke-miterlimit:10;}
	.st25{clip-path:url(#SVGID_00000047045872105052520460000007648101707155300022_);}
	.st26{fill:none;stroke:#000000;stroke-miterlimit:10;}
	.st27{fill:none;stroke:#7B3525;stroke-miterlimit:10;}
	.st28{fill:none;stroke:#000000;stroke-linecap:round;stroke-miterlimit:10;}
	.st29{fill:#F2F2F1;}
	.st30{fill:none;stroke:#2A255C;stroke-linecap:round;stroke-linejoin:round;stroke-miterlimit:10;}
	.st31{fill:none;stroke:#2A255C;stroke-linecap:round;stroke-miterlimit:10;}
	.st32{fill:none;}
	.st33{fill:#66DCCC;}
	.st34{fill:#F18D1B;stroke:#262262;stroke-miterlimit:10;}
	.st35{fill:#FF4D4E;stroke:#262262;stroke-miterlimit:10;}
	.st36{fill:#66DCCC;stroke:#262262;stroke-miterlimit:10;}
	.st37{fill:#FFFFFF;stroke:#262262;stroke-linejoin:round;stroke-miterlimit:10;}
	.st38{fill:none;stroke:#262262;stroke-linejoin:round;stroke-miterlimit:10;}
	.st39{fill:#FF376E;stroke:#262262;stroke-miterlimit:10;}
	.st40{fill:#E84448;stroke:#262262;stroke-miterlimit:10;}
	.st41{fill:#E63066;stroke:#262262;stroke-miterlimit:10;}
	.st42{fill:#3B86FF;stroke:#2A255C;stroke-miterlimit:10;}
	.st43{fill:#FFF000;stroke:#262262;stroke-miterlimit:10;}
	.st44{fill:#FFEA00;stroke:#262262;stroke-miterlimit:10;}
	.st45{fill:#2AD575;stroke:#262262;stroke-miterlimit:10;}
	.st46{fill:#FF4D4E;stroke:#2A255C;stroke-miterlimit:10;}
	.st47{fill:#FFEA00;stroke:#2A255C;stroke-miterlimit:10;}
	.st48{fill:#F18D1B;}
	.st49{opacity:0.36;fill:none;stroke:#F2F2F1;stroke-miterlimit:10;}
	.st50{fill:#CB84F0;stroke:#262262;stroke-linecap:round;stroke-linejoin:round;stroke-miterlimit:10;}
	.st51{fill:#FFFFFF;stroke:#262262;stroke-linecap:round;stroke-linejoin:round;stroke-miterlimit:10;}
	.st52{fill:none;stroke:#262262;stroke-linecap:round;stroke-linejoin:round;stroke-miterlimit:10;}
	.st53{fill:#2AD575;stroke:#262262;stroke-linecap:round;stroke-linejoin:round;stroke-miterlimit:10;}
	.st54{fill:#FFF000;stroke:#262262;stroke-linecap:round;stroke-linejoin:round;stroke-miterlimit:10;}
	.st55{fill:#2A255C;stroke:#262262;stroke-miterlimit:10;}
</style>
<g id="ECP">
	<g id="Capa_18">
	</g>
	<g id="Capa_19">
	</g>
	<g id="Capa_20">
	</g>
	<g id="Capa_20_copia">
	</g>
	<g id="Capa_21">
	</g>
	<g id="Capa_23">
	</g>
	<g id="Capa_22">
		<g id="Capa_24">
		</g>
	</g>
	<g id="Capa_26">
	</g>
</g>
<g id="Effective">
	<g id="Capa_36">
	</g>
	<g id="Capa_35">
	</g>
	<g id="Capa_38">
	</g>
	<g id="Capa_39">
		<g id="Capa_40">
		</g>
	</g>
	<g id="Capa_41">
	</g>
</g>
<g id="Condoms">
	<g id="Capa_42">
	</g>
	<g id="Capa_43">
	</g>
	<g id="Capa_44">
	</g>
	<g id="Capa_45">
	</g>
	<g id="Capa_46">
	</g>
	<g id="Capa_47">
	</g>
	<g id="Capa_48">
	</g>
	<g id="Capa_49">
	</g>
</g>
<g id="Capa_51">
</g>
<g id="Capa_52">
</g>
<g id="Capa_54">
</g>
<g id="Capa_53">
	<g id="Capa_55">
	</g>
	<g>
		<path class="st50" d="M170.6,225.55c-44.59,8.91-85.75-8.96-91.94-39.93c-4.75-23.72,16.2-49.01,44.52-63.19
			c-32.94,4.07-62.73-1.24-66.72-15.68c-5.11-18.48,27.73-43.67,73.34-56.28c45.61-12.61,86.72-7.84,91.83,10.64
			c4.37,15.8-20.69,37.09-56.09,50.64c36.72-1.24,69.27,15.1,74.56,41.58C246.31,184.3,215.19,216.64,170.6,225.55z"/>
		<path class="st50" d="M164.64,108.84c54.59-24.01,58.63-42.3,57-47.73c-1.06-3.53-6.53-8.47-17.66-11.47c0,0-2.1,2.41-8.1,1.65
			c-8.69-1.1-9.34-4.17-9.34-4.17c-14.01-0.63-32.67,1.26-56.78,7.84c-63.34,17.3-76.05,48.24-72.5,54.12
			c1.93,3.21,7.22,16.91,65.45,10.41"/>
		
			<ellipse transform="matrix(0.9708 -0.24 0.24 0.9708 -16.0178 36.4109)" class="st50" cx="141.47" cy="83.97" rx="35.14" ry="13.41"/>
		<path class="st50" d="M122.55,117.56l0.87,7.84l42.07-10.56l-1.07-7.13C154.55,109,134.55,113.16,122.55,117.56z"/>
		<path class="st50" d="M78.19,175.07c0.28,4.95,4.59,60.03,95.62,44.8c35.75-5.98,72.77-41.92,64.6-72.5"/>
		<path class="st51" d="M118.45,172.42c0,0,0.86,10.93,1.47,12.59c0.64,1.73,4.89,6.72,12.92,9.51c9.26,3.22,16.19,4.17,33.17,2.3
			s34.63-12.37,37.82-21.32c0.65-1.82-0.56-14.58-0.56-14.58"/>
		<path class="st52" d="M236.08,172.65c1.22-5.04,1.36-10.15,0.26-15.18c-5.83-26.83-44.44-41.21-86.23-32.13
			c-41.8,9.08-66.84,43.62-65.12,65.02c0.32,3.99,2.01,7.87,3.62,10.9"/>
		
			<ellipse transform="matrix(0.9876 -0.1572 0.1572 0.9876 -24.3601 27.391)" class="st51" cx="160.94" cy="167.66" rx="42.86" ry="23.24"/>
		
			<ellipse transform="matrix(0.9876 -0.1572 0.1572 0.9876 -24.1692 27.3336)" class="st51" cx="160.67" cy="166.42" rx="29.53" ry="13.94"/>
		<line class="st52" x1="123.71" y1="183.12" x2="124.24" y2="189.78"/>
		<line class="st52" x1="130.76" y1="187.53" x2="131.25" y2="193.73"/>
		<line class="st52" x1="139.15" y1="190.22" x2="139.64" y2="196.4"/>
		<line class="st52" x1="147.72" y1="191.42" x2="148.21" y2="197.57"/>
		<line class="st52" x1="156.91" y1="191.45" x2="157.39" y2="197.57"/>
		<line class="st52" x1="166.12" y1="190.35" x2="166.63" y2="196.74"/>
		<line class="st52" x1="175.12" y1="188.18" x2="175.65" y2="194.88"/>
		<line class="st52" x1="182.96" y1="185.25" x2="183.5" y2="192.09"/>
		<line class="st52" x1="190.08" y1="181.47" x2="190.63" y2="188.41"/>
		<line class="st52" x1="195.71" y1="177.24" x2="196.29" y2="184.47"/>
		<line class="st52" x1="200.29" y1="172.12" x2="200.93" y2="180.26"/>
		<polygon class="st6" points="158.48,152.65 156.68,158.21 162.87,157.06 		"/>
		<g>
			<path class="st53" d="M157.1,133.68l0.47,2.94c0.02,0.11,0.02,0.22,0.02,0.33c-0.05,1.78-2.77,3.59-6.35,4.16
				c-3.58,0.57-6.73-0.31-7.33-1.98c-0.04-0.1-0.07-0.21-0.09-0.32l-0.47-2.94L157.1,133.68z"/>
			<path class="st53" d="M143.9,139.13l-0.03,0.01l-0.05-0.33C143.83,138.92,143.86,139.03,143.9,139.13z"/>
			<path class="st53" d="M157.57,136.62l0.05,0.33l-0.03,0.01C157.59,136.84,157.59,136.73,157.57,136.62z"/>
			
				<ellipse transform="matrix(0.9876 -0.1572 0.1572 0.9876 -19.3764 25.3111)" class="st53" cx="150.28" cy="135.12" rx="6.96" ry="3.44"/>
			<line class="st53" x1="149.57" y1="131.84" x2="150.82" y2="138.52"/>
		</g>
		<g>
			<path class="st53" d="M177.2,131.61l0.2,2.93c0.01,0.11,0,0.22-0.01,0.33c-0.21,1.74-3.09,3.29-6.7,3.53
				c-3.61,0.24-6.68-0.9-7.12-2.6c-0.03-0.1-0.05-0.21-0.06-0.32l-0.2-2.93L177.2,131.61z"/>
			<path class="st53" d="M163.56,135.79l-0.04,0l-0.02-0.32C163.51,135.58,163.53,135.69,163.56,135.79z"/>
			<path class="st53" d="M177.4,134.54l0.02,0.32l-0.04,0C177.4,134.76,177.4,134.65,177.4,134.54z"/>
			
				<ellipse transform="matrix(0.9978 -0.0668 0.0668 0.9978 -8.4649 11.6702)" class="st53" cx="170.28" cy="132.41" rx="6.96" ry="3.4"/>
			<line class="st53" x1="170.05" y1="129.02" x2="170.5" y2="135.81"/>
		</g>
		<g>
			<path class="st53" d="M198.19,134.86l-0.48,2.97c-0.02,0.11-0.05,0.22-0.09,0.32c-0.61,1.69-3.77,2.58-7.34,1.99
				c-3.57-0.58-6.29-2.42-6.34-4.22c-0.01-0.11,0-0.22,0.02-0.33l0.48-2.97L198.19,134.86z"/>
			<path class="st53" d="M183.94,135.93l-0.03-0.01l0.05-0.33C183.94,135.71,183.94,135.82,183.94,135.93z"/>
			<path class="st53" d="M197.71,137.83l-0.05,0.33l-0.03-0.01C197.66,138.05,197.69,137.95,197.71,137.83z"/>
			
				<ellipse transform="matrix(0.1607 -0.987 0.987 0.1607 28.1837 301.3234)" class="st53" cx="191.26" cy="134.09" rx="3.48" ry="6.96"/>
			<line class="st53" x1="191.82" y1="130.65" x2="190.7" y2="137.53"/>
		</g>
		<g>
			<path class="st53" d="M215.48,146.34c0,0-0.65,1.86-1.15,2.33c-1.32,1.22-4.8,1.08-7.91-0.77c-2.97-1.77-4.32-4.35-3.76-6.06
				c0.17-0.52,0.72-2.38,0.72-2.38L215.48,146.34z"/>
			
				<ellipse transform="matrix(0.5159 -0.8566 0.8566 0.5159 -21.2012 248.5689)" class="st53" cx="209.33" cy="143.04" rx="3.48" ry="6.96"/>
			<line class="st53" x1="207.53" y1="146.03" x2="211.13" y2="140.06"/>
		</g>
		<g>
			<path class="st53" d="M215.31,155.85c0,0-1.95,4.5,0.73,9.29c0.62,1.11,2.17,3.31,4.55,2.87c1.97-0.36,2.55-2.99,2.62-4.3
				c0.1-2.02-0.28-4.63-0.28-4.63"/>
			<g>
				
					<ellipse transform="matrix(0.978 -0.2086 0.2086 0.978 -28.5416 49.2186)" class="st53" cx="219.04" cy="159.9" rx="3.97" ry="6.69"/>
			</g>
			<line class="st53" x1="222.93" y1="159.08" x2="215.15" y2="160.73"/>
		</g>
		<g>
			<path class="st54" d="M125.05,143.88l1.11,2.71c0.04,0.1,0.09,0.2,0.16,0.29c0.96,1.47,4.22,1.59,7.57,0.21
				c3.35-1.38,5.6-3.75,5.25-5.47c-0.02-0.11-0.05-0.21-0.09-0.31l-1.11-2.71L125.05,143.88z"/>
			<path class="st54" d="M139.14,141.62l0.03-0.01l-0.12-0.3C139.09,141.41,139.12,141.51,139.14,141.62z"/>
			<path class="st54" d="M126.17,146.59l0.12,0.3l0.03-0.01C126.26,146.79,126.21,146.7,126.17,146.59z"/>
			
				<ellipse transform="matrix(0.925 -0.3799 0.3799 0.925 -43.9034 60.6088)" class="st54" cx="131.62" cy="141.55" rx="6.96" ry="3.4"/>
			<line class="st54" x1="130.33" y1="138.4" x2="132.91" y2="144.69"/>
		</g>
		<g>
			<path class="st54" d="M108.87,157.1l1.74,2.45c0.07,0.09,0.14,0.18,0.22,0.25c1.29,1.25,4.52,0.65,7.47-1.45
				c2.95-2.1,4.58-4.95,3.83-6.58c-0.04-0.1-0.1-0.2-0.16-0.29l-1.74-2.45L108.87,157.1z"/>
			<path class="st54" d="M122.13,151.78l0.03-0.02l-0.19-0.27C122.03,151.58,122.08,151.67,122.13,151.78z"/>
			<path class="st54" d="M110.61,159.55l0.19,0.27l0.03-0.02C110.75,159.73,110.68,159.64,110.61,159.55z"/>
			
				<ellipse transform="matrix(0.8151 -0.5793 0.5793 0.8151 -67.6227 94.8265)" class="st54" cx="114.74" cy="153.35" rx="6.96" ry="3.48"/>
			<line class="st54" x1="112.73" y1="150.51" x2="116.76" y2="156.19"/>
		</g>
		<g>
			<path class="st54" d="M99.77,174.03c0,0,1.4,1.39,2.06,1.59c1.72,0.52,4.78-1.15,6.76-4.18c1.89-2.9,1.96-5.81,0.71-7.1
				c-0.38-0.39-1.7-1.82-1.7-1.82L99.77,174.03z"/>
			
				<ellipse transform="matrix(0.5415 -0.8407 0.8407 0.5415 -93.9383 164.492)" class="st54" cx="103.84" cy="168.37" rx="6.96" ry="3.48"/>
			<line class="st54" x1="106.77" y1="170.26" x2="100.91" y2="166.48"/>
		</g>
		<g>
			<path class="st54" d="M102.1,181.74c0,0,3.74,3.18,3.44,8.66c-0.07,1.27-0.49,3.93-2.82,4.58c-1.93,0.54-3.61-1.56-4.25-2.71
				c-0.98-1.77-1.79-4.28-1.79-4.28"/>
			<g>
				
					<ellipse transform="matrix(0.9698 -0.2438 0.2438 0.9698 -42.5676 30.1609)" class="st54" cx="100.54" cy="187.02" rx="3.97" ry="6.69"/>
			</g>
			<line class="st54" x1="96.69" y1="187.99" x2="104.4" y2="186.05"/>
		</g>
		<g>
			<path class="st53" d="M175.9,207.39l0.31,2.96c0.01,0.11,0.01,0.22,0,0.33c-0.14,1.77-2.96,3.44-6.56,3.82
				c-3.6,0.38-6.71-0.66-7.22-2.37c-0.03-0.1-0.06-0.21-0.07-0.32l-0.31-2.96L175.9,207.39z"/>
			<path class="st53" d="M162.43,212.13l-0.04,0l-0.03-0.33C162.37,211.92,162.4,212.03,162.43,212.13z"/>
			<path class="st53" d="M176.21,210.34l0.03,0.33l-0.04,0C176.22,210.57,176.22,210.46,176.21,210.34z"/>
			
				<ellipse transform="matrix(0.9945 -0.105 0.105 0.9945 -20.9467 18.8912)" class="st53" cx="169.01" cy="208.46" rx="6.96" ry="3.44"/>
			<line class="st53" x1="168.48" y1="205.15" x2="169.37" y2="211.89"/>
		</g>
		<g>
			<path class="st53" d="M193.79,200.93l0.88,2.71c0.03,0.1,0.05,0.21,0.06,0.31c0.21,1.69-2.18,3.83-5.59,4.93
				c-3.41,1.09-6.61,0.75-7.44-0.74c-0.05-0.09-0.1-0.19-0.13-0.29l-0.88-2.71L193.79,200.93z"/>
			<path class="st53" d="M181.7,208.14l-0.03,0.01l-0.1-0.3C181.6,207.95,181.65,208.04,181.7,208.14z"/>
			<path class="st53" d="M194.67,203.64l0.1,0.3l-0.03,0.01C194.72,203.84,194.7,203.74,194.67,203.64z"/>
			
				<ellipse transform="matrix(0.9524 -0.3048 0.3048 0.9524 -53.0588 66.7655)" class="st53" cx="187.34" cy="203.35" rx="6.88" ry="3.3"/>
			<line class="st53" x1="186.32" y1="200.21" x2="188.36" y2="206.49"/>
		</g>
		<g>
			<path class="st53" d="M209.38,188.26l1.78,2.43c0.07,0.09,0.12,0.19,0.17,0.29c0.78,1.62-0.81,4.49-3.73,6.63
				c-2.92,2.14-6.14,2.79-7.45,1.55c-0.08-0.07-0.16-0.16-0.23-0.25l-1.78-2.43L209.38,188.26z"/>
			<path class="st53" d="M200.15,199.16l-0.03,0.02l-0.2-0.27C199.99,199,200.06,199.09,200.15,199.16z"/>
			<path class="st53" d="M211.16,190.69l0.2,0.27l-0.03,0.02C211.28,190.87,211.23,190.78,211.16,190.69z"/>
			
				<ellipse transform="matrix(0.8069 -0.5907 0.5907 0.8069 -74.4109 157.6925)" class="st53" cx="203.97" cy="192.65" rx="6.96" ry="3.48"/>
			<line class="st53" x1="201.91" y1="189.84" x2="206.03" y2="195.46"/>
		</g>
		<g>
			<path class="st53" d="M221.38,173.56c0,0,1.13,1.26,1.47,1.86c0.97,1.69,0.28,4.77-2.31,7.3c-2.47,2.41-5.94,3.69-7.44,2.7
				c-0.46-0.3-1.5-1.94-1.5-1.94L221.38,173.56z"/>
			
				<ellipse transform="matrix(0.7196 -0.6944 0.6944 0.7196 -63.3124 200.5067)" class="st53" cx="216.61" cy="178.65" rx="6.96" ry="3.48"/>
			<line class="st53" x1="219.03" y1="181.15" x2="214.19" y2="176.14"/>
		</g>
		<g>
			<path class="st54" d="M142.41,210.63l-0.09,2.93c0,0.11,0.01,0.22,0.03,0.33c0.28,1.73,3.21,3.17,6.83,3.27
				c3.62,0.11,6.64-1.15,7.02-2.87c0.03-0.11,0.04-0.21,0.04-0.32l0.09-2.93L142.41,210.63z"/>
			<path class="st54" d="M156.2,214.3l0.04,0l0.01-0.32C156.24,214.09,156.22,214.19,156.2,214.3z"/>
			<path class="st54" d="M142.32,213.57l-0.01,0.32l0.04,0C142.33,213.78,142.32,213.68,142.32,213.57z"/>
			
				<ellipse transform="matrix(0.0294 -0.9996 0.9996 0.0294 -66.1212 354.2607)" class="st54" cx="149.35" cy="211.18" rx="3.4" ry="6.96"/>
			<line class="st54" x1="149.45" y1="207.78" x2="149.25" y2="214.57"/>
		</g>
		<g>
			<path class="st54" d="M136.41,210.09l-0.74,2.92c-0.03,0.11-0.07,0.21-0.12,0.31c-0.75,1.63-3.97,2.24-7.48,1.36
				c-3.51-0.89-6.06-2.95-5.95-4.75c0-0.11,0.02-0.22,0.05-0.33l0.74-2.92L136.41,210.09z"/>
			<path class="st54" d="M122.13,209.93l-0.03-0.01l0.08-0.32C122.15,209.71,122.13,209.82,122.13,209.93z"/>
			<path class="st54" d="M135.68,213l-0.08,0.32l-0.03-0.01C135.61,213.22,135.65,213.11,135.68,213z"/>
			
				<ellipse transform="matrix(0.2446 -0.9696 0.9696 0.2446 -104.4942 283.3249)" class="st54" cx="129.58" cy="208.72" rx="3.48" ry="6.96"/>
			<line class="st54" x1="130.43" y1="205.34" x2="128.73" y2="212.1"/>
		</g>
		<g>
			<path class="st54" d="M118.07,205.4c0,0-0.55,1.89-1.04,2.39c-1.26,1.29-4.74,1.31-7.94-0.39c-3.05-1.62-4.53-4.13-4.06-5.87
				c0.14-0.52,0.6-2.42,0.6-2.42L118.07,205.4z"/>
			
				<ellipse transform="matrix(0.4734 -0.8808 0.8808 0.4734 -119.4384 205.0351)" class="st54" cx="111.77" cy="202.42" rx="3.48" ry="6.96"/>
			<line class="st54" x1="110.12" y1="205.48" x2="113.42" y2="199.35"/>
		</g>
	</g>
</g>
<g id="Capa_56">
</g>
<g id="Capa_57">
</g>
<g id="Capa_58">
</g>
<g id="Capa_59">
</g>
<g id="Capa_60">
</g>
<g id="Capa_61">
</g>
<g id="Capa_63">
</g>
</svg>
