<?xml version="1.0" encoding="utf-8"?>
<!-- Generator: Adobe Illustrator 25.4.1, SVG Export Plug-In . SVG Version: 6.00 Build 0)  -->
<svg version="1.1" xmlns="http://www.w3.org/2000/svg" xmlns:xlink="http://www.w3.org/1999/xlink" x="0px" y="0px"
	 viewBox="0 0 580.43 533.28" style="enable-background:new 0 0 580.43 533.28;" xml:space="preserve">
<style type="text/css">
	.st0{display:none;}
	.st1{display:inline;fill:#F18D1B;}
	.st2{fill:#66DCCC;stroke:#262262;stroke-miterlimit:10;}
	.st3{fill:#FFFFFF;stroke:#262262;stroke-miterlimit:10;}
	.st4{fill:#C47B5F;stroke:#000000;stroke-miterlimit:10;}
	.st5{fill:#A5614C;}
	.st6{fill:#FF4D4E;stroke:#262262;stroke-miterlimit:10;}
	.st7{fill:none;stroke:#A5614C;stroke-linecap:round;stroke-linejoin:round;stroke-miterlimit:10;}
	.st8{fill:none;stroke:#000000;stroke-linecap:round;stroke-linejoin:round;stroke-miterlimit:10;}
	.st9{fill:#FFF000;stroke:#262262;stroke-miterlimit:10;}
	.st10{fill:none;stroke:#262262;stroke-miterlimit:10;}
	.st11{fill:none;stroke:#000000;stroke-miterlimit:10;}
	.st12{fill:#CB84F0;stroke:#262262;stroke-linecap:round;stroke-linejoin:round;stroke-miterlimit:10;}
	.st13{fill:none;stroke:#262262;stroke-linecap:round;stroke-linejoin:round;stroke-miterlimit:10;}
	.st14{fill:#3B86FF;stroke:#262262;stroke-miterlimit:10;}
	.st15{fill:#CB84F0;stroke:#262262;stroke-miterlimit:10;}
	.st16{fill:#2AD575;stroke:#262262;stroke-miterlimit:10;}
	.st17{fill:#F78F2D;}
	.st18{fill:#66DCCC;}
	.st19{fill:#F18D1B;stroke:#262262;stroke-miterlimit:10;}
	.st20{fill:#23B55E;}
	.st21{fill:#EFA584;}
	.st22{fill:#E2987A;}
	.st23{fill:#2AD575;}
	.st24{clip-path:url(#SVGID_00000027575458266310951270000003391284933859834503_);}
	.st25{fill:#3B86FF;}
	.st26{clip-path:url(#SVGID_00000027575458266310951270000003391284933859834503_);fill:#3B86FF;}
	.st27{fill:#C47B5F;}
	.st28{fill:#FF4D4E;}
	.st29{fill:none;stroke:#9B5B48;stroke-linecap:round;stroke-linejoin:round;stroke-miterlimit:10;}
	.st30{fill:none;stroke:#BC7B64;stroke-miterlimit:10;}
	.st31{fill:#F2F2F1;stroke:#262262;stroke-miterlimit:10;}
	.st32{fill:#FFFFFF;}
	.st33{fill:#3B86FF;stroke:#262262;stroke-linecap:round;stroke-linejoin:round;stroke-miterlimit:10;}
	.st34{fill:#2AD575;stroke:#262262;stroke-linecap:round;stroke-linejoin:round;stroke-miterlimit:10;}
	.st35{fill:#FF376E;stroke:#262262;stroke-linecap:round;stroke-linejoin:round;stroke-miterlimit:10;}
	.st36{fill:#FFF000;stroke:#262262;stroke-linecap:round;stroke-linejoin:round;stroke-miterlimit:10;}
	.st37{fill:#FFEA00;stroke:#262262;stroke-linecap:round;stroke-linejoin:round;stroke-miterlimit:10;}
	.st38{fill:#66DCCC;stroke:#262262;stroke-linecap:round;stroke-linejoin:round;stroke-miterlimit:10;}
	.st39{fill:#683C32;stroke:#000000;stroke-linecap:round;stroke-linejoin:round;stroke-miterlimit:10;}
	.st40{fill:#CE816A;stroke:#000000;stroke-miterlimit:10;}
	.st41{fill:#AF594A;}
	.st42{fill:none;stroke:#683C32;stroke-linecap:round;stroke-linejoin:round;stroke-miterlimit:10;}
	.st43{fill:#FFF000;}
	.st44{fill:none;stroke:#262262;stroke-linecap:round;stroke-miterlimit:10;}
	.st45{fill:#1C120F;}
	.st46{fill:#EFA585;}
	.st47{fill:none;stroke:#000000;stroke-linecap:round;stroke-miterlimit:10;}
	.st48{fill:#1D130F;}
	.st49{fill:none;stroke:#1D130F;stroke-linecap:round;stroke-linejoin:round;stroke-miterlimit:10;}
	.st50{fill:#BA514F;}
	.st51{fill:none;stroke:#A56653;stroke-linecap:round;stroke-linejoin:round;stroke-miterlimit:10;}
	.st52{fill:#B7695C;stroke:#000000;stroke-miterlimit:10;}
	.st53{fill:#89463D;}
	.st54{fill:#C9C7C7;}
	.st55{fill:#A34D4D;}
	.st56{fill:#6D4332;}
	.st57{fill:#EFA585;stroke:#262262;stroke-miterlimit:10;}
	.st58{fill:#ED85DE;stroke:#262262;stroke-miterlimit:10;}
	
		.st59{clip-path:url(#SVGID_00000060713188605578215660000011387429478117008038_);fill:none;stroke:#FFFFFF;stroke-linecap:round;stroke-miterlimit:10;}
	.st60{clip-path:url(#SVGID_00000060713188605578215660000011387429478117008038_);fill:#FFFFFF;}
	.st61{fill:#EFA585;stroke:#000000;stroke-miterlimit:10;}
	.st62{fill:#DD7C6F;}
	.st63{fill:none;stroke:#915441;stroke-miterlimit:10;}
	.st64{fill:none;stroke:#FFFFFF;stroke-linecap:round;stroke-miterlimit:10;}
	.st65{clip-path:url(#SVGID_00000142158332361856216070000006912862405764810641_);fill:#6D4332;}
	
		.st66{clip-path:url(#SVGID_00000142158332361856216070000006912862405764810641_);fill:#EFA585;stroke:#262262;stroke-miterlimit:10;}
	
		.st67{clip-path:url(#SVGID_00000142158332361856216070000006912862405764810641_);fill:#ED85DE;stroke:#262262;stroke-miterlimit:10;}
	.st68{clip-path:url(#SVGID_00000142158332361856216070000006912862405764810641_);}
	
		.st69{clip-path:url(#SVGID_00000134208615542584716830000013376332314605343379_);fill:none;stroke:#FFFFFF;stroke-linecap:round;stroke-miterlimit:10;}
	.st70{clip-path:url(#SVGID_00000134208615542584716830000013376332314605343379_);fill:#FFFFFF;}
	
		.st71{clip-path:url(#SVGID_00000142158332361856216070000006912862405764810641_);fill:#EFA585;stroke:#000000;stroke-miterlimit:10;}
	.st72{clip-path:url(#SVGID_00000142158332361856216070000006912862405764810641_);fill:#C47B5F;}
	
		.st73{clip-path:url(#SVGID_00000142158332361856216070000006912862405764810641_);fill:none;stroke:#262262;stroke-linecap:round;stroke-linejoin:round;stroke-miterlimit:10;}
	.st74{clip-path:url(#SVGID_00000142158332361856216070000006912862405764810641_);fill:none;stroke:#262262;stroke-miterlimit:10;}
	
		.st75{clip-path:url(#SVGID_00000142158332361856216070000006912862405764810641_);fill:none;stroke:#9B5B48;stroke-linecap:round;stroke-linejoin:round;stroke-miterlimit:10;}
	.st76{clip-path:url(#SVGID_00000142158332361856216070000006912862405764810641_);fill:#FFFFFF;}
	
		.st77{clip-path:url(#SVGID_00000142158332361856216070000006912862405764810641_);fill:none;stroke:#000000;stroke-linecap:round;stroke-miterlimit:10;}
	.st78{clip-path:url(#SVGID_00000142158332361856216070000006912862405764810641_);fill:#DD7C6F;}
	.st79{clip-path:url(#SVGID_00000142158332361856216070000006912862405764810641_);fill:none;stroke:#915441;stroke-miterlimit:10;}
	
		.st80{clip-path:url(#SVGID_00000142158332361856216070000006912862405764810641_);fill:none;stroke:#FFFFFF;stroke-linecap:round;stroke-miterlimit:10;}
	.st81{clip-path:url(#SVGID_00000029019686283708668810000003593297877904603032_);}
	
		.st82{clip-path:url(#SVGID_00000029019686283708668810000003593297877904603032_);fill:#B7695C;stroke:#000000;stroke-miterlimit:10;}
	.st83{clip-path:url(#SVGID_00000029019686283708668810000003593297877904603032_);fill:#89463D;}
	
		.st84{clip-path:url(#SVGID_00000029019686283708668810000003593297877904603032_);fill:none;stroke:#A5614C;stroke-linecap:round;stroke-linejoin:round;stroke-miterlimit:10;}
	.st85{clip-path:url(#SVGID_00000029019686283708668810000003593297877904603032_);fill:#FFFFFF;}
	
		.st86{clip-path:url(#SVGID_00000029019686283708668810000003593297877904603032_);fill:none;stroke:#000000;stroke-linecap:round;stroke-linejoin:round;stroke-miterlimit:10;}
	.st87{clip-path:url(#SVGID_00000029019686283708668810000003593297877904603032_);fill:#C9C7C7;}
	.st88{clip-path:url(#SVGID_00000029019686283708668810000003593297877904603032_);fill:#A34D4D;}
	
		.st89{clip-path:url(#SVGID_00000029019686283708668810000003593297877904603032_);fill:#FF4D4E;stroke:#262262;stroke-miterlimit:10;}
	.st90{clip-path:url(#SVGID_00000029019686283708668810000003593297877904603032_);fill:none;stroke:#262262;stroke-miterlimit:10;}
	.st91{fill:#CB84F0;}
	
		.st92{clip-path:url(#SVGID_00000098192364871809399110000016888268916119722413_);fill:#CE816A;stroke:#000000;stroke-miterlimit:10;}
	
		.st93{clip-path:url(#SVGID_00000098192364871809399110000016888268916119722413_);fill:#3B86FF;stroke:#262262;stroke-miterlimit:10;}
	.st94{clip-path:url(#SVGID_00000098192364871809399110000016888268916119722413_);fill:#28140A;}
	
		.st95{clip-path:url(#SVGID_00000098192364871809399110000016888268916119722413_);fill:#66DCCC;stroke:#262262;stroke-miterlimit:10;}
	.st96{clip-path:url(#SVGID_00000098192364871809399110000016888268916119722413_);fill:#CE464E;}
	.st97{clip-path:url(#SVGID_00000098192364871809399110000016888268916119722413_);fill:none;stroke:#000000;stroke-miterlimit:10;}
	.st98{clip-path:url(#SVGID_00000098192364871809399110000016888268916119722413_);}
	.st99{clip-path:url(#SVGID_00000098192364871809399110000016888268916119722413_);fill:#B26857;}
	
		.st100{clip-path:url(#SVGID_00000098192364871809399110000016888268916119722413_);fill:none;stroke:#000000;stroke-linecap:round;stroke-linejoin:round;stroke-miterlimit:10;}
	
		.st101{clip-path:url(#SVGID_00000098192364871809399110000016888268916119722413_);fill:none;stroke:#262262;stroke-miterlimit:10;}
	
		.st102{clip-path:url(#SVGID_00000098192364871809399110000016888268916119722413_);fill:none;stroke:#FFFFFF;stroke-linecap:round;stroke-linejoin:round;stroke-miterlimit:10;}
	
		.st103{clip-path:url(#SVGID_00000098192364871809399110000016888268916119722413_);fill:#CE816A;stroke:#000000;stroke-linecap:round;stroke-linejoin:round;stroke-miterlimit:10;}
	.st104{fill:#28140A;}
	.st105{fill:#CE464E;}
	.st106{fill:#B26857;}
	.st107{fill:none;stroke:#FFFFFF;stroke-linecap:round;stroke-linejoin:round;stroke-miterlimit:10;}
	.st108{fill:#CE816A;stroke:#000000;stroke-linecap:round;stroke-linejoin:round;stroke-miterlimit:10;}
	.st109{display:none;opacity:0.44;}
</style>
<g id="Capa_14" class="st0">
</g>
<g id="Capa_8">
	<g id="Capa_6">
		<g id="Capa_43">
		</g>
	</g>
	<g id="Capa_16">
	</g>
	<g id="Capa_12">
	</g>
	<g id="Capa_7">
	</g>
</g>
<g id="Capa_13">
	<g id="Capa_11">
	</g>
	<g id="Capa_9">
	</g>
</g>
<g id="Varenka">
</g>
<g id="Capa_15">
</g>
<g id="Ferya">
</g>
<g id="Flor">
</g>
<g id="Flor_sola">
</g>
<g id="Ferya_00000076597665119341329080000006981992994345679289_">
	<g id="Ferya_copia">
	</g>
</g>
<g id="Ceci_00000096057879152769712860000002602327861082787738_">
	<circle class="st91" cx="290.21" cy="268.44" r="229.94"/>
	<g id="Ceci_copia">
	</g>
	<g>
		<defs>
			<circle id="SVGID_00000163765590268099313700000013140104322002338486_" cx="290.21" cy="268.44" r="229.94"/>
		</defs>
		<clipPath id="SVGID_00000093886737411172366630000011635647594486879158_">
			<use xlink:href="#SVGID_00000163765590268099313700000013140104322002338486_"  style="overflow:visible;"/>
		</clipPath>
		
			<path style="clip-path:url(#SVGID_00000093886737411172366630000011635647594486879158_);fill:#CE816A;stroke:#000000;stroke-miterlimit:10;" d="
			M180.37,552.57c0,0-71.57,5.02-76.44,4.7c-4.87-0.32-10.39-2.21,0-6.31c0,0-21.35,1.77-29.05,1.5s1.36-4.53,1.36-4.53
			s-11.54,0.46-11.55-1.35c-0.03-3.32,16.79-6.59,30.66-9.13s41.35-8.04,41.35-8.04l21.81-7.83L180.37,552.57z"/>
		
			<path style="clip-path:url(#SVGID_00000093886737411172366630000011635647594486879158_);fill:#3B86FF;stroke:#262262;stroke-miterlimit:10;" d="
			M354.97,289.62c0,0,36.84,6.14,44.78,17.47s15.9,33.09,12.28,83.65s-11.56,117.97-13.73,122.89c-2.17,4.92-5.78,12.64-26.73,16.85
			c-20.95,4.21-194.84,22.47-194.84,22.47s-21.92-11.24-22.65-26.68l-21.49,3.89c0,0,2.21-79.23,2.58-96.07
			c0.37-16.85,7.75-105.93,11.8-114.27c4.06-8.34,11.07-15.51,33.57-19.81s67.5-1.08,67.5-1.08l10.7,11.47l35.41,7.02l21.89-8.02
			L354.97,289.62z"/>
		<path style="clip-path:url(#SVGID_00000093886737411172366630000011635647594486879158_);fill:#28140A;" d="M264.64,82.54
			c0,0,43.39,34.11,49.74,37.6c6.36,3.49,12.16,9.13,12.44,15.85c0.28,6.71-10.77,173.42-10.77,173.42l1.09,21.03
			c0,0,5.25-6.45,8.29-28.74v28.74c0,0,7.46,5.37,22.66,2.69c15.2-2.69,20.45-6.98,22.66-6.71c2.21,0.27,2.76-36.53,2.76-36.53
			s3.04,30.89,4.7,33.3c1.66,2.42-1.11-74.93-1.11-74.93s4.09,23.95,7.13,23.95c0,0-5.01-42.62-5.32-57.89c0,0-3.2-41.69-5.13-59.01
			c-1.93-17.32-9.66-52.17-19.11-63.65c-9.45-11.48-23.46-23.17-36.29-26.92c-19.97-5.84-22.54-4.59-22.54-4.59s0.29-2.43-14.82-2.5
			c-19.98-0.09-45.59,14.48-55.04,26.04c0,0-21.1,21.81-21.1,44.39c0,0-7.24,74.77-9.35,83.27c-2.11,8.5-12.37,60.69-13.58,69.78
			c-1.21,9.09-5.22,21.94-5.22,21.94c2.41,4.4,20.8,7.83,31.05,6.95c10.26-0.88,36.01-4.85,36.01-4.85l27.45-9.38l44.79,13.63"/>
		
			<path style="clip-path:url(#SVGID_00000093886737411172366630000011635647594486879158_);fill:#CE816A;stroke:#000000;stroke-miterlimit:10;" d="
			M209.43,124.46c0,0-6.24,48.18-7.71,54.96s-0.85,30.79,7.6,47.2s11.94,20.89,20.9,29.03c9.75,8.84,23.21,10.48,23.21,10.48
			l-6.06,28.23l6.06,9.65l33,13.42l29.63-8.02l9.93-53.34l7.75-117.53l-9.69-28.72l-51.6-31.08h-7.75L209.43,124.46z"/>
		
			<path style="clip-path:url(#SVGID_00000093886737411172366630000011635647594486879158_);fill:#66DCCC;stroke:#262262;stroke-miterlimit:10;" d="
			M244.6,297.26c-0.87,9.21,10.02,15.85,26.92,20.17c17.67,4.52,27.31,1.52,34.79,0c4.77-0.97,9.97-3.74,9.97-3.74l-0.22-4.27
			l0.78-6.6c0,0-8.49,12.07-37.53,9.26c-21.13-2.04-31.94-17.72-31.94-17.72S244.87,294.36,244.6,297.26z"/>
		<path style="clip-path:url(#SVGID_00000093886737411172366630000011635647594486879158_);fill:#28140A;" d="M269.47,72.99
			l58.57,10.79l26.93,77.16L316.6,306.47c0,0,10.06-156.32,10.06-167.39s-7.5-15.38-7.5-15.38s-38.86-22.93-53.02-40.47
			c0,0-28.81,19.92-35.97,26.16l-21.19,18.48l-1.65-5.1L269.47,72.99z"/>
		<path style="clip-path:url(#SVGID_00000093886737411172366630000011635647594486879158_);fill:#CE464E;" d="M229.18,212.55
			c0,0,15.02-2.54,15.36-2.54c0.34,0,10.55,4.07,10.55,4.07l10.94-0.9l15.12,5.73c0,0-8.9,9.16-25.98,8.9
			C238.08,227.56,229.18,212.55,229.18,212.55z"/>
		
			<path style="clip-path:url(#SVGID_00000093886737411172366630000011635647594486879158_);fill:none;stroke:#000000;stroke-miterlimit:10;" d="
			M281.15,218.91c-13.11,3.08-27.73,0.77-27.73,0.77s-17.45-2.73-24.24-7.13"/>
		
			<ellipse transform="matrix(0.5154 -0.8569 0.8569 0.5154 -71.0384 298.1078)" style="clip-path:url(#SVGID_00000093886737411172366630000011635647594486879158_);" cx="228.07" cy="211.87" rx="1.06" ry="2.32"/>
		
			<ellipse transform="matrix(0.951 -0.3093 0.3093 0.951 -53.7412 98.055)" style="clip-path:url(#SVGID_00000093886737411172366630000011635647594486879158_);" cx="282.35" cy="218.5" rx="2.34" ry="1.05"/>
		<path style="clip-path:url(#SVGID_00000093886737411172366630000011635647594486879158_);fill:#B26857;" d="M254.49,265.45
			c0,0,20.15,1.39,36.61-10.56c16.46-11.95,16.43-16.68,18.56-16.68s-2.6,15.86-13.5,27.06c-15.09,15.49-44.96,15.47-44.96,15.47"/>
		
			<ellipse style="clip-path:url(#SVGID_00000093886737411172366630000011635647594486879158_);" cx="234.71" cy="151.42" rx="3.18" ry="3.09"/>
		
			<ellipse style="clip-path:url(#SVGID_00000093886737411172366630000011635647594486879158_);" cx="292.51" cy="155.93" rx="3.18" ry="2.7"/>
		
			<path style="clip-path:url(#SVGID_00000093886737411172366630000011635647594486879158_);fill:none;stroke:#000000;stroke-linecap:round;stroke-linejoin:round;stroke-miterlimit:10;" d="
			M226.02,151.42c0,0,4.56-4.09,14.96-2.21"/>
		
			<path style="clip-path:url(#SVGID_00000093886737411172366630000011635647594486879158_);fill:none;stroke:#000000;stroke-linecap:round;stroke-linejoin:round;stroke-miterlimit:10;" d="
			M285.89,153.81c0,0,9.74-1.69,15.39,4.14"/>
		
			<path style="clip-path:url(#SVGID_00000093886737411172366630000011635647594486879158_);fill:none;stroke:#000000;stroke-linecap:round;stroke-linejoin:round;stroke-miterlimit:10;" d="
			M257.12,154.51c0,0-3.55,10.49-5.43,16.98c-1.88,6.5-8.56,20.49-9.19,21.72c-0.33,0.66-0.21,6.7,10.24,6.5
			c10.45-0.2,14.68-1.63,14.68-1.63"/>
		
			<path style="clip-path:url(#SVGID_00000093886737411172366630000011635647594486879158_);fill:none;stroke:#000000;stroke-linecap:round;stroke-linejoin:round;stroke-miterlimit:10;" d="
			M274.67,191.4c0,0-0.25,3.04-1.9,4.36"/>
		<path style="clip-path:url(#SVGID_00000093886737411172366630000011635647594486879158_);" d="M279.62,143.07
			c0,0,19.6-4.39,22.9-4.15c2.9,0.21,12.96,5.55,15.36,6.84c0.05,0.03,0.15,0.13,0.2,0.16c0.53,0.33,0.6,1.08-0.66,0.62
			c-4.44-1.62-14.11-4.05-34.17-2.39C280.38,144.38,279.62,143.07,279.62,143.07z"/>
		<path style="clip-path:url(#SVGID_00000093886737411172366630000011635647594486879158_);" d="M250.14,139.64
			c0,0-16.43-8.99-19.18-9.27c-4.41-0.46-10.23,0-15.63,2.69s7.07,0.36,11.49,1.16c4.41,0.81,19.08,5.96,20.88,6.36
			C249.49,140.99,252.56,140.99,250.14,139.64z"/>
		
			<path style="clip-path:url(#SVGID_00000093886737411172366630000011635647594486879158_);fill:none;stroke:#000000;stroke-miterlimit:10;" d="
			M266.14,83.24c0,0,6.92-16.23,29.7-23.09"/>
		
			<path style="clip-path:url(#SVGID_00000093886737411172366630000011635647594486879158_);fill:none;stroke:#262262;stroke-miterlimit:10;" d="
			M154.09,526.27c0,0,157.82-45.8,180.1-49.04l-0.46-3.76c-3.72-15.88,7.8-117.33,7.8-117.33"/>
		
			<path style="clip-path:url(#SVGID_00000093886737411172366630000011635647594486879158_);fill:none;stroke:#262262;stroke-miterlimit:10;" d="
			M201.09,344.48c0,0-30.58,51.93-35.13,59.32c-4.55,7.39-17.51,29.85-3.85,54.02c13.66,24.16,28.25,55.03,29.01,57.81"/>
		<path style="clip-path:url(#SVGID_00000093886737411172366630000011635647594486879158_);" d="M315.87,159.4l-0.12-4.08l3.76-2.09
			c0,0-4.66-2.9-15.27-5.68c-10.59-2.76-19.25-1.88-25.74,0c-6.51,1.89-7.98,7.77-7.98,7.77c-7.07-1.88-17.32-1.44-17.32-1.44
			s-0.65-2.72-2.19-4.9c-2.07-2.94-9.29-8.86-23.26-11.45c-13.97-2.61-23.89,0.86-23.89,0.86l3.23,3.68c0,0-2.31,16.17-0.92,20.37
			c1.37,4.2,5.23,12.66,17.27,14.69c12.04,2.01,19.53-4,22.55-7.12c3.04-3.14,6.58-12.06,6.58-12.06c8.83-0.2,16.92,1.46,16.92,1.46
			c-0.24,7.97,3.13,14.26,5.16,17.73c4.18,7.12,12.81,8.25,21.04,7.72c11.27-0.7,14.93-6.08,17.66-10.82
			c2.73-4.76,2.73-11.19,2.73-11.19l9.53-2.44l0.17-3.1L315.87,159.4z M243.54,166.76c-3.52,4.65-14.17,10.01-24.08,5.45
			c-9.91-4.56-10.49-13.9-10.49-13.9s-3.27-17.84,12-17.99c15.25-0.13,24.1,6.82,26.09,10.31
			C249.06,154.13,248.96,159.61,243.54,166.76z M311.71,168.99c-1.09,4.43-4.49,10.71-15.44,12.43c-7.31,1.16-13.92,0.28-19.18-6.81
			c-4.53-6.09-4.17-11.77-3.88-14.84c0.31-3.05,1.72-6.56,5.86-8.37c3.89-1.69,16.72-4.27,26.18-0.38c0,0,5.55,1.66,6.46,4.9
			C312.3,158.04,312.8,164.56,311.71,168.99z"/>
		
			<line style="clip-path:url(#SVGID_00000093886737411172366630000011635647594486879158_);fill:none;stroke:#FFFFFF;stroke-linecap:round;stroke-linejoin:round;stroke-miterlimit:10;" x1="297.68" y1="159.76" x2="285.89" y2="175.68"/>
		
			<line style="clip-path:url(#SVGID_00000093886737411172366630000011635647594486879158_);fill:none;stroke:#FFFFFF;stroke-linecap:round;stroke-linejoin:round;stroke-miterlimit:10;" x1="223.85" y1="145.29" x2="213.43" y2="159.76"/>
		
			<line style="clip-path:url(#SVGID_00000093886737411172366630000011635647594486879158_);fill:none;stroke:#FFFFFF;stroke-linecap:round;stroke-linejoin:round;stroke-miterlimit:10;" x1="223.85" y1="155.26" x2="216.02" y2="165.84"/>
	</g>
</g>
<g id="Ceci">
</g>
<g id="Capa_17" class="st109">
</g>
</svg>
