<svg xmlns="http://www.w3.org/2000/svg" xmlns:xlink="http://www.w3.org/1999/xlink" viewBox="0 0 580.43 533.28"><defs><style>.cls-1,.cls-7{fill:none;}.cls-2,.cls-6,.cls-7,.cls-8{stroke:#262262;stroke-miterlimit:10;}.cls-3{clip-path:url(#clip-path);}.cls-4{fill:#fff000;}.cls-5,.cls-6{fill:#e42320;}.cls-8,.cls-9{fill:#fff;}.cls-10{fill:#d90000;}.cls-11{fill:#fcdc04;}.cls-12{fill:#9ca69c;}</style><clipPath id="clip-path"><rect class="cls-1" x="91.6" y="148.94" width="397.23" height="235.4" rx="12"/></clipPath></defs><g id="Uganda"><rect class="cls-2" x="91.6" y="148.94" width="397.23" height="235.4" rx="12"/><g class="cls-3"><rect class="cls-4" x="273" y="-26.63" width="39.13" height="703.8" rx="11.08" transform="translate(617.84 32.71) rotate(90)"/><rect class="cls-4" x="272.21" y="-144.19" width="39.13" height="703.8" rx="11.08" transform="translate(499.48 -84.06) rotate(90)"/><rect class="cls-5" x="273.93" y="-104.82" width="39.13" height="703.8" rx="11.08" transform="translate(540.57 -46.42) rotate(90)"/><rect class="cls-6" x="272.21" y="12.88" width="39.13" height="703.8" rx="11.08" transform="translate(656.55 73) rotate(90)"/><line class="cls-7" x1="82.23" y1="227.27" x2="496.37" y2="227.27"/></g><rect class="cls-7" x="91.6" y="148.94" width="397.23" height="235.4" rx="12"/><circle class="cls-8" cx="285.42" cy="266.31" r="38.46"/><circle class="cls-9" cx="285.05" cy="266.17" r="35.34" transform="translate(-104.72 279.52) rotate(-45)"/><path class="cls-10" d="M278.82,239.1l-2.29-4.22a6.4,6.4,0,0,1,4.74-1.57c0,.16-.24,4.62-.24,4.62Z"/><path d="M278.74,239.35l-2.44-4.51.09-.1a6.77,6.77,0,0,1,4.88-1.62h.19v.19c0,.16-.21,4.18-.24,4.63v.11Zm-2-4.44,2.14,3.93,2-1c.08-1.54.2-3.67.23-4.32A6.43,6.43,0,0,0,276.76,234.91Z"/><path class="cls-11" d="M281,238l.32-4.66s4.75-.28,7.32,2.81c0,0-2.53,3.62-2.53,3.62Z"/><path d="M286.21,240l-5.38-1.87.35-5h.16s4.84-.3,7.48,2.88c.08.15.08.15-2.52,3.85Zm-5-2.13,4.84,1.68,2.37-3.39c-2.22-2.56-6.06-2.64-6.91-2.64Z"/><path class="cls-10" d="M286.22,239.7l2.33-3.62a7.55,7.55,0,0,1,2.46,4.59s-3.7.92-3.7.88S286.26,239.74,286.22,239.7Z"/><path d="M287.31,241.74h-.19v-.14c-.12-.24-1-1.69-1.05-1.78l-.11-.11.1-.11,2.46-3.82.17.17a7.67,7.67,0,0,1,2.49,4.63l.05,0-.05.12A25.37,25.37,0,0,1,287.31,241.74Zm-.87-2c.21.34.75,1.23,1,1.64.54-.11,2.81-.65,3.39-.81a7.18,7.18,0,0,0-2.22-4.15Z"/><path d="M280,299.46s4.38-5,12.91-3.94c-1.29-2.09-5.43-1.85-5.43-1.85s-1.29-9.77-.28-10.25,5.26,0,5.26,0a1.73,1.73,0,0,0,.77-2.5c-.77-1-3-4.66-2.09-5.39s5.95.41,5.95.41l-14.2-18.18s-1.44-6.84,1.45-10.14c3.5-2.89,3.14-6,3-6-.49-3.17-5.31-5.47-8.57-2.53-1.93,2.33-.64,4.1-.64,4.1s-5.07,1.37-5.27,2.25,5.71-.16,5.71-.16l-.56,4.06s-11.5,10.46-2.7,19.51a1.85,1.85,0,0,0,.28-.4s3.1,3.82,6.36,4.66c3.05,3.14,2.77,2.66,2.77,2.66s.61,4.94,0,5.91c-.76-.24-8.56-.53-9.73-.08s-5.07.12-4.06,6.67c.76-1.77,1.45-3.34,1.45-3.34s-.12,2.38.84,3.22a7.41,7.41,0,0,1,.93-4.18s.2,2.73.8,3.14.6-4.43,3.94-4a37.11,37.11,0,0,0,5.75.29s1.13,9.45.77,10.33c-2.42-.56-8.17.24-8.53,1.69a18.1,18.1,0,0,1,4.95.2S279.14,298.05,280,299.46Z"/><path d="M280,299.78l-.13-.22c-.76-1.25.95-3.12,1.65-3.8a16.47,16.47,0,0,0-2.74-.19q-.86,0-1.8.06h-.26l.07-.25c.33-1.31,4.12-2,6.74-2a9.65,9.65,0,0,1,1.83.15,85.62,85.62,0,0,0-.79-9.92h-.77a40.67,40.67,0,0,1-4.84-.3c-2.13-.26-2.82,1.83-3.23,3-.21.65-.33,1-.62,1a.27.27,0,0,1-.17-.06c-.49-.32-.73-1.74-.83-2.63a7.63,7.63,0,0,0-.61,3.51l0,.45-.34-.3a3.82,3.82,0,0,1-.9-2.49l-1.1,2.55-.26.6-.1-.65c-.91-5.93,2.21-6.51,3.72-6.78l.48-.1a16,16,0,0,1,3.54-.25,54.25,54.25,0,0,1,6.14.29c.32-.89.08-3.92-.11-5.55a36.69,36.69,0,0,1-2.7-2.63c-2.86-.77-5.53-3.7-6.23-4.51a.81.81,0,0,1-.22.25l-.13.06-.09-.1a10.81,10.81,0,0,1-3.37-8c.18-6,5.44-11.14,6-11.69l.52-3.74A32,32,0,0,1,274,246c-.9,0-1.13-.15-1.24-.28a.38.38,0,0,1-.07-.31c.21-.88,3.95-2,5.17-2.33a3.67,3.67,0,0,1,.79-4.1,5.28,5.28,0,0,1,3.61-1.42c2.55,0,4.9,1.78,5.27,4l0,.06c.16.43.24,3.4-3.1,6.17-2.66,3-1.5,9.33-1.39,9.91l14.49,18.56-.51-.12a27.51,27.51,0,0,0-4.64-.64,2.11,2.11,0,0,0-1.16.2.47.47,0,0,0-.14.31c-.13,1.1,1.55,3.91,2.27,4.82a1.75,1.75,0,0,1,.09,1.89c-.21.45-.61.91-1,.91a33.32,33.32,0,0,0-3.57-.25,4,4,0,0,0-1.61.19c-.54.25-.23,5.3.36,9.89h.23c1.2,0,4.12.19,5.2,1.95l.2.34-.39-.05a18.78,18.78,0,0,0-2.35-.15,14.38,14.38,0,0,0-10.39,4Zm-1.22-4.58a14.37,14.37,0,0,1,3.18.26l.35.09-.27.23c-.67.6-2.23,2.27-1.95,3.35a15,15,0,0,1,10.47-3.95,18.65,18.65,0,0,1,2,.1c-1.18-1.32-3.8-1.43-4.62-1.43h-.56l0-.17c-.31-2.33-1.22-9.95-.18-10.45a4.67,4.67,0,0,1,1.78-.23c1.57,0,3.58.25,3.6.25s.44-.27.64-.69a1.45,1.45,0,0,0-.05-1.5c-.52-.66-2.51-3.72-2.34-5.1a.78.78,0,0,1,.28-.55,2.29,2.29,0,0,1,1.39-.29,25.37,25.37,0,0,1,4.21.54L282.7,257.84c-.06-.28-1.44-7,1.49-10.3,2.9-2.4,3.11-5,3-5.63h0l0-.22c-.31-2-2.52-3.73-4.91-3.73a4.9,4.9,0,0,0-3.34,1.31c-1.8,2.17-.63,3.83-.62,3.85l.16.22-.26.07c-2.44.66-5,1.63-5.14,2.11h0s.14.13.94.13a36.57,36.57,0,0,0,4.56-.51l.25-.05-.61,4.39-.05,0c-.05.06-5.76,5.31-5.94,11.47a10.39,10.39,0,0,0,3.11,7.62,2.14,2.14,0,0,0,.13-.22l.13-.24.18.22s3.1,3.78,6.26,4.6h.05l0,0a27.87,27.87,0,0,0,2.71,2.64l-.07.12.17-.07,0,.07v.15h0c.12,1.05.53,5,0,5.88l-.08.13-.14,0a46.81,46.81,0,0,0-6.19-.31,15.33,15.33,0,0,0-3.42.22,4.46,4.46,0,0,1-.54.12c-1.42.26-4,.74-3.49,5.68.64-1.5,1.17-2.71,1.17-2.71l.37.08a6,6,0,0,0,.45,2.64,7.34,7.34,0,0,1,1-3.71l.3-.48,0,.57a7.3,7.3,0,0,0,.68,2.95,4.34,4.34,0,0,0,.28-.72c.43-1.32,1.18-3.59,3.62-3.29a41.72,41.72,0,0,0,4.8.29h1.1l0,.17c.12,1,1.12,9.53.75,10.43l-.06.15-.16,0a8.51,8.51,0,0,0-1.92-.18c-2.51,0-5.54.63-6.24,1.47Z"/><path class="cls-12" d="M281.34,247.9s-8.37,9.22-4.76,16.28c.2-1,.11-1.6.23-1.56-.2-.12,1,.85.95.66a6.37,6.37,0,0,0-.38-1.61l1.13.29-.66-1.23,1.61.19s-.57-1.51-.38-1.51,1.32.09,1.32.09C278,255.23,280.26,251.68,281.34,247.9Z"/><path class="cls-12" d="M276.67,264.75l-.25-.49c-3.63-7.09,4.7-16.4,4.78-16.49l.32.18c-.22.78-.49,1.55-.76,2.31-1.05,3-2.05,5.83-.2,9.15l.18.31-.36,0-1.14-.09a9.72,9.72,0,0,0,.39,1.25l.11.29-1.55-.18.69,1.28-1.21-.3a5,5,0,0,1,.28,1.29l0,.06-.1.2h-.12a2.74,2.74,0,0,1-.83-.53V263a9.28,9.28,0,0,1-.15,1.19Zm4.22-16c-1.77,2.21-6.74,9.15-4.4,14.8,0-.21,0-.39.05-.53a2.69,2.69,0,0,1,0-.35l-.14-.15.22-.05,0,0h.17l.07,0,0,.09.07-.05c.05.05.36.3.6.47a7.25,7.25,0,0,0-.34-1.22l-.12-.34,1.06.27-.63-1.17,1.66.19c-.42-1.17-.32-1.31-.27-1.38l.06-.08h.12l1,.07c-1.71-3.35-.67-6.3.34-9.16Z"/><path class="cls-12" d="M284.25,240s.44,3.18-1.29,4.11c-.28.2-1.36.56-1.2,1.2.2.89.68.73,1.36.56C284.93,245.53,287,241.67,284.25,240Z"/><path class="cls-12" d="M282.42,246.17h0c-.45,0-.72-.27-.85-.84s.59-1,1-1.26a1.3,1.3,0,0,0,.25-.14c1.62-.86,1.22-3.89,1.21-3.92l-.05-.4.34.21a2.86,2.86,0,0,1,1.37,3.14,3.92,3.92,0,0,1-2.56,3.08l-.09,0A2.68,2.68,0,0,1,282.42,246.17Zm2.06-5.8c0,.92,0,3.1-1.43,3.88a2.11,2.11,0,0,1-.27.16c-.47.24-.92.5-.84.84.12.5.3.54.48.54a2.44,2.44,0,0,0,.57-.1l.09,0a3.56,3.56,0,0,0,2.27-2.78A2.5,2.5,0,0,0,284.48,240.37Z"/><path class="cls-9" d="M280.51,242.05a.68.68,0,1,1,0,1.36.68.68,0,1,1,0-1.36Z"/><path class="cls-10" d="M278.46,245.37c-.44.36-2.78,2.78-.48,3.66,2.37-.64,1.73-1.08,2.25-1.61C280.24,246.34,279.05,246.06,278.46,245.37Z"/><path d="M278,249.23l-.06,0a1.52,1.52,0,0,1-1.1-1.16c-.18-1.14,1.18-2.54,1.53-2.82l.14-.12.12.14a3.58,3.58,0,0,0,.69.56c.53.37,1.14.79,1.13,1.62v.07l-.06.06a.89.89,0,0,0-.21.36c-.19.47-.45.84-2.12,1.29Zm.48-3.6c-.48.45-1.39,1.56-1.27,2.36a1.15,1.15,0,0,0,.81.84c1.56-.43,1.69-.75,1.81-1.05a1.35,1.35,0,0,1,.24-.43c0-.58-.46-.88-1-1.23A4.26,4.26,0,0,1,278.45,245.63Z"/><path class="cls-12" d="M283.53,268.17a6.22,6.22,0,0,0,.08,3.95c2-.85,2.93-.61,3.62-.17A16.24,16.24,0,0,1,283.53,268.17Z"/><path class="cls-12" d="M283.51,272.36l-.07-.16a6.17,6.17,0,0,1-.12-4l.11-.5.25.33a16.35,16.35,0,0,0,3.66,3.75l-.22.3a2.19,2.19,0,0,0-1.26-.37,5.82,5.82,0,0,0-2.18.55Zm.11-3.75a5.78,5.78,0,0,0,.08,3.26,5.33,5.33,0,0,1,2.53-.49A14.37,14.37,0,0,1,283.62,268.61Z"/><path class="cls-9" d="M287,277.3l.13,4.51a5.94,5.94,0,0,0,2.29,0C290.12,281.53,289.36,278.67,287,277.3Z"/><path class="cls-9" d="M288.48,282.12h0a8.35,8.35,0,0,1-1.41-.13l-.15,0-.13-5,.29.17a5.39,5.39,0,0,1,2.76,4.2.67.67,0,0,1-.37.64A2.67,2.67,0,0,1,288.48,282.12Zm-1.19-.47a9.85,9.85,0,0,0,1.19.09h0a2.36,2.36,0,0,0,.85-.11c.07,0,.12-.15.14-.32a4.9,4.9,0,0,0-2.29-3.66Z"/><path class="cls-12" d="M298.37,277.87s-2.9-7-10.3-8.77-6.43-9.65-5.83-10.13c.32-.69.56-1.73,2.69-.73s11.95,5.95,13.36,6.19S298.49,278,298.37,277.87Z"/><path d="M298.37,278.06h-.1l-.06-.08c0-.11-3-7-10.18-8.7a7.69,7.69,0,0,1-6.15-6.07c-.44-2-.19-3.93.2-4.36l.06-.13c.21-.46.48-1.08,1.34-1.08a3.76,3.76,0,0,1,1.53.43c.5.23,1.39.67,2.5,1.22,3.65,1.78,9.75,4.78,10.81,5,1.3.22.78,8.06.49,11.42C298.61,278.06,298.57,278.06,298.37,278.06ZM283.48,258c-.61,0-.8.42-1,.86l-.13.24a7,7,0,0,0-.06,4.26,7.36,7.36,0,0,0,5.81,5.55c6.19,1.48,9.3,6.63,10.17,8.33.27-2.34.91-11.16.08-12.52-.06-.09-.1-.11-.11-.11-1.11-.19-7-3.08-10.9-5l-2.5-1.22A3.52,3.52,0,0,0,283.48,258Z"/><path class="cls-10" d="M291.33,269.06c-.12.08,9.89,5.91,6.87,10.94a4.85,4.85,0,0,0,1.94-5.19s2.33,6.07-3.34,9.05c.6.52,1,.4,1,.4l-1,1s-.44.72,3.38-1.13c-1.05.84-1.13,1.45-1.13,1.45s.28.8,2.77-1.37a14,14,0,0,0-2.45,3.26c5.43-.49,17.25-18.14-3.74-23.37l1,1Z"/><path d="M299,287.66l.22-.28v-.12h.07a12.85,12.85,0,0,1,1.24-1.82,2.39,2.39,0,0,1-1.14.44.47.47,0,0,1-.48-.27v-.09a1.86,1.86,0,0,1,.41-.78,8.05,8.05,0,0,1-2.33.81.33.33,0,0,1-.31-.14.26.26,0,0,1,0-.28l.7-.71a2.05,2.05,0,0,1-.71-.42l-.21-.18.25-.13a6.56,6.56,0,0,0,3.67-6.71,4.63,4.63,0,0,1-2.07,3.18l-.27-.26c1.16-1.92,1-5.28-6.39-10.37-.5-.34-.51-.35-.51-.47V269l.08-.06,5.13-3.85-.81-.85-.46-.47.64.16c11.15,2.78,12.37,8.91,12.1,12.32-.44,5.77-5.38,11.05-8.31,11.41h-.1Zm2.74-3.62.26.27a18,18,0,0,0-2.24,2.88c2.83-.63,7.27-5.6,7.69-11s-3.54-9.69-11.18-11.76a5.34,5.34,0,0,1,.38.41h0l.12.11h0c.09.12.08.15.06.21l-.05.11h-.08l-5.05,3.79.22.16c6.78,4.67,7.62,8,6.86,10.14a4.68,4.68,0,0,0,1.23-4.5l.36-.12c0,.06,2.26,6.08-3.17,9.15a1,1,0,0,0,.61.19l.66-.16-1.22,1.22a15.53,15.53,0,0,0,2.94-1.21l.2.32a3.14,3.14,0,0,0-1,1.24C299.44,285.53,300,285.53,301.74,284Z"/><path class="cls-9" d="M291.77,267.33c1.37,1,1.85,1.29,2,1.77a9.15,9.15,0,0,0-2.37-.2,35.72,35.72,0,0,0-3.18-2.78,15,15,0,0,1-2.45-1.32c-1-.53-2-4.15,1.85-3.1,4,1.89,4.54,2.05,4.54,2.05l4.75,1.49,2.73,3.06a55.86,55.86,0,0,0-5.47-2.46,9.14,9.14,0,0,1,2.09,2.58A32.1,32.1,0,0,0,291.77,267.33Z"/><path d="M294.07,269.36l-.33-.08a9,9,0,0,0-1.93-.2h-.47l-.06,0a32.6,32.6,0,0,0-3.1-2.73,14.27,14.27,0,0,1-2.5-1.35,2.54,2.54,0,0,1-1-2.5,1.51,1.51,0,0,1,1.69-1.14,5,5,0,0,1,1.28.2c3.9,1.85,4.52,2,4.55,2.05l4.79,1.5,2.77,3.1-.22.29c-1.39-.68-3.46-1.67-4.6-2.15a8.92,8.92,0,0,1,1.47,2l.2.39-.73-.21c-1.16-.34-2.2-.63-3.35-.85.89.63,1.25.94,1.4,1.38Zm-2.26-.66a9.41,9.41,0,0,1,1.6.13,10.05,10.05,0,0,0-1.56-1.21l-.19-.14.14-.34a31.89,31.89,0,0,1,4.08,1,9.14,9.14,0,0,0-1.82-2.11l-.45-.38.59,0a37.71,37.71,0,0,1,4.66,2.05l-2.05-2.3-4.69-1.47a48.77,48.77,0,0,1-4.57-2.06,4.64,4.64,0,0,0-1.15-.17c-.75,0-1.19.28-1.32.85a2.18,2.18,0,0,0,.78,2.08,14.16,14.16,0,0,0,2.37,1.3l.07,0a30.27,30.27,0,0,1,3.18,2.76Z"/><path d="M272.83,245.73s4.66-1.12,5.23-1"/><path class="cls-9" d="M272.87,245.92l-.09-.37c.79-.19,4.75-1.13,5.33-1l-.1.36A30.37,30.37,0,0,0,272.87,245.92Z"/></g></svg>