<?xml version="1.0" encoding="utf-8"?>
<!-- Generator: Adobe Illustrator 25.4.1, SVG Export Plug-In . SVG Version: 6.00 Build 0)  -->
<svg version="1.1" xmlns="http://www.w3.org/2000/svg" xmlns:xlink="http://www.w3.org/1999/xlink" x="0px" y="0px"
	 viewBox="0 0 297.27 273.12" style="enable-background:new 0 0 297.27 273.12;" xml:space="preserve">
<style type="text/css">
	.st0{fill:#3B86FF;stroke:#262262;stroke-miterlimit:10;}
	.st1{fill:#F2F2F1;stroke:#262262;stroke-miterlimit:10;}
	.st2{fill:#F2F2F1;stroke:#262262;stroke-linecap:round;stroke-linejoin:round;stroke-miterlimit:10;}
	.st3{fill:#3B86FF;}
	.st4{fill:none;stroke:#262262;stroke-miterlimit:10;}
	.st5{fill:#2AD575;stroke:#2A255C;stroke-miterlimit:10;}
	.st6{fill:#262262;}
	.st7{fill:#FF4D4E;}
	.st8{fill:#FFF000;}
	.st9{fill:#FFFFFF;}
	.st10{fill:#F78F2D;stroke:#262262;stroke-miterlimit:10;}
	.st11{fill:none;stroke:#FFF000;stroke-miterlimit:10;}
	.st12{fill:#FFFFFF;stroke:#262262;stroke-miterlimit:10;}
	.st13{fill:#CB84F0;stroke:#262262;stroke-miterlimit:10;}
	.st14{fill:#AD5D46;}
	.st15{fill:#7B3525;}
	.st16{fill:#F78F2D;}
	.st17{fill:#2AD575;}
	.st18{fill:none;stroke:#FF4D4E;stroke-miterlimit:10;}
	.st19{fill:none;stroke:#2AD575;stroke-miterlimit:10;}
	.st20{fill:none;stroke:#3B86FF;stroke-miterlimit:10;}
	.st21{fill:#577CBC;}
	.st22{fill:none;stroke:#2A255C;stroke-miterlimit:10;}
	.st23{clip-path:url(#SVGID_00000026136113306117730060000007479880931564935358_);}
	.st24{fill:none;stroke:#404440;stroke-miterlimit:10;}
	.st25{clip-path:url(#SVGID_00000091706940563856552630000007944234891823153084_);}
	.st26{fill:none;stroke:#000000;stroke-miterlimit:10;}
	.st27{fill:none;stroke:#7B3525;stroke-miterlimit:10;}
	.st28{fill:none;stroke:#000000;stroke-linecap:round;stroke-miterlimit:10;}
	.st29{fill:#F2F2F1;}
	.st30{fill:none;stroke:#2A255C;stroke-linecap:round;stroke-linejoin:round;stroke-miterlimit:10;}
	.st31{fill:none;stroke:#2A255C;stroke-linecap:round;stroke-miterlimit:10;}
	.st32{fill:none;}
	.st33{fill:#66DCCC;}
	.st34{fill:#F18D1B;stroke:#262262;stroke-miterlimit:10;}
	.st35{fill:#FF4D4E;stroke:#262262;stroke-miterlimit:10;}
	.st36{fill:#66DCCC;stroke:#262262;stroke-miterlimit:10;}
	.st37{fill:#FFFFFF;stroke:#262262;stroke-linejoin:round;stroke-miterlimit:10;}
	.st38{fill:none;stroke:#262262;stroke-linejoin:round;stroke-miterlimit:10;}
	.st39{fill:#FF376E;stroke:#262262;stroke-miterlimit:10;}
	.st40{fill:#E84448;stroke:#262262;stroke-miterlimit:10;}
	.st41{fill:#E63066;stroke:#262262;stroke-miterlimit:10;}
	.st42{fill:#3B86FF;stroke:#2A255C;stroke-miterlimit:10;}
	.st43{fill:#FFF000;stroke:#262262;stroke-miterlimit:10;}
	.st44{fill:#FFEA00;stroke:#262262;stroke-miterlimit:10;}
	.st45{fill:#2AD575;stroke:#262262;stroke-miterlimit:10;}
	.st46{fill:#FF4D4E;stroke:#2A255C;stroke-miterlimit:10;}
	.st47{fill:#FFEA00;stroke:#2A255C;stroke-miterlimit:10;}
	.st48{fill:#F18D1B;}
	.st49{opacity:0.36;fill:none;stroke:#F2F2F1;stroke-miterlimit:10;}
	.st50{fill:#CB84F0;stroke:#262262;stroke-linecap:round;stroke-linejoin:round;stroke-miterlimit:10;}
	.st51{fill:#FFFFFF;stroke:#262262;stroke-linecap:round;stroke-linejoin:round;stroke-miterlimit:10;}
	.st52{fill:none;stroke:#262262;stroke-linecap:round;stroke-linejoin:round;stroke-miterlimit:10;}
	.st53{fill:#2AD575;stroke:#262262;stroke-linecap:round;stroke-linejoin:round;stroke-miterlimit:10;}
	.st54{fill:#FFF000;stroke:#262262;stroke-linecap:round;stroke-linejoin:round;stroke-miterlimit:10;}
	.st55{fill:#2A255C;stroke:#262262;stroke-miterlimit:10;}
</style>
<g id="ECP">
	<g id="Capa_18">
	</g>
	<g id="Capa_19">
	</g>
	<g id="Capa_20">
	</g>
	<g id="Capa_20_copia">
	</g>
	<g id="Capa_21">
	</g>
	<g id="Capa_23">
	</g>
	<g id="Capa_22">
		<g id="Capa_24">
		</g>
	</g>
	<g id="Capa_26">
	</g>
</g>
<g id="Effective">
	<g id="Capa_36">
	</g>
	<g id="Capa_35">
	</g>
	<g id="Capa_38">
	</g>
	<g id="Capa_39">
		<g id="Capa_40">
		</g>
	</g>
	<g id="Capa_41">
	</g>
</g>
<g id="Condoms">
	<g id="Capa_42">
	</g>
	<g id="Capa_43">
		<g>
			<path class="st36" d="M84.44,157.82c0,0-3.19-4.51-9.23-2.93s-7.78,9.01-7.91,12.98c-0.33,9.96,2.23,21.07,9.63,33.53
				c7.4,12.46,19.41,23.07,33.04,24.73c13.63,1.67,13.16-9.95,13.16-9.95L84.44,157.82z"/>
			<path class="st36" d="M115.58,221.15c2.16-0.2,8.9-3.03,8.9-3.03c40.01-23.97,62.38-60.81,70.94-88.08
				c8.56-27.27,6.56-45.01,2.43-56.9c-2.98-8.58-13.42-20.56-13.42-20.56c-5.56-5.25-3.68-13.71-3.77-16.57s0.23-8.85-5.4-9.02
				c-6.44-0.19-7.41,7.55-7.41,7.55c-1.33,13.66-5.04,14.31-5.04,14.31S149.06,59.4,144.8,67.52c-4.26,8.13-5.64,29.29-9.12,37.37
				c-6.96,16.16-24.24,36.62-53.17,50.24c0,0-3.53,1.63-5.11,2.85s-3.19,3.46-4.41,9.83c-1.66,8.61,0.52,18.24,10.14,33.1
				C93.13,216.39,105.51,222.07,115.58,221.15z"/>
			<path class="st12" d="M180.98,83.1c-0.13-3.54-1.24-12.7,4.07-12.61c5.3,0.08,6.33,14.39,6.33,14.39s1.78,13.77-0.62,24.82
				c-2.4,11.05-5.47,10.52-6.66,10.65s-3.02-0.2-1.46-13.56C183.96,95.34,181.22,89.45,180.98,83.1z"/>
			<path class="st12" d="M173.51,136.91c0,0,1.77-7.58,5.96-7.18c4.19,0.39-2.79,16.16-2.79,16.16s-3.37,6.75-7.5,5.6
				C165.06,150.35,171.97,142.67,173.51,136.91z"/>
		</g>
	</g>
	<g id="Capa_44">
	</g>
	<g id="Capa_45">
	</g>
	<g id="Capa_46">
	</g>
	<g id="Capa_47">
	</g>
	<g id="Capa_48">
	</g>
	<g id="Capa_49">
	</g>
</g>
<g id="Capa_51">
</g>
<g id="Capa_52">
</g>
<g id="Capa_54">
</g>
<g id="Capa_53">
	<g id="Capa_55">
	</g>
</g>
<g id="Capa_56">
</g>
<g id="Capa_57">
</g>
<g id="Capa_58">
</g>
<g id="Capa_59">
</g>
<g id="Capa_60">
</g>
<g id="Capa_61">
</g>
<g id="Capa_63">
</g>
</svg>
