<svg xmlns="http://www.w3.org/2000/svg" viewBox="0 0 580.43 533.28"><defs><style>.cls-1{fill:#66dccc;stroke:#262262;stroke-linecap:round;stroke-linejoin:round;stroke-width:2px;}.cls-2{fill:#fff000;}</style></defs><g id="STI_Prevention" data-name="STI Prevention"><path class="cls-1" d="M214.23,189c15-.53,21.28-7.1,17.74-38.13S235.24,73,290.21,66.76s70.32,32.7,75.64,60.19-.89,40,18.62,40.79c9.72.37,60.93-16.94,68.56,22.84,6.15,32-6.67,45.14-26.81,52-22.17,7.54-52,9.93-47.53,33.88s37,31.34,55.59,48.44c14.7,13.55,34.47,53.47-1.89,88.05s-81.11-19.51-94-26.19c-16.71-8.65-39.18-2.79-48.93,18.49s-21.12,80.81-89.39,56S138,367,170.79,350.39c12.3-6.23,34.58-27.48,14.18-55s-64.81-22.06-58.52-69.16C134.24,167.94,199.28,189.55,214.23,189Z"/><circle class="cls-2" cx="304.32" cy="168.56" r="26.81"/><circle class="cls-2" cx="235.59" cy="351.71" r="26.81"/><circle class="cls-2" cx="239.74" cy="242.57" r="30.97"/><circle class="cls-2" cx="312.25" cy="320.74" r="30.97"/><circle class="cls-2" cx="332.26" cy="242.57" r="20.01"/></g></svg>