<svg xmlns="http://www.w3.org/2000/svg" viewBox="0 0 580.43 533.28"><defs><style>.cls-1{fill:#2ad575;stroke:#262262;stroke-linecap:round;stroke-linejoin:round;stroke-width:2px;}.cls-2{fill:#fff000;}</style></defs><g id="Current_presence_of_STI" data-name="Current presence of STI"><path class="cls-1" d="M209.37,189c14.95-.53,21.28-7.1,17.74-38.13S230.38,73,285.36,66.76,355.68,99.46,361,127s-.9,40,18.62,40.79c9.71.37,60.92-16.94,68.55,22.84,6.15,32-6.67,45.14-26.8,52-22.18,7.54-52,9.93-47.54,33.88s37,31.34,55.59,48.44c14.7,13.55,34.47,53.47-1.89,88.05s-81.11-19.51-94-26.19c-16.71-8.65-39.18-2.79-48.93,18.49s-21.12,80.81-89.39,56-62-94.25-29.26-110.84c12.3-6.23,34.58-27.48,14.18-55s-64.8-22.06-58.52-69.16C129.38,167.94,194.43,189.55,209.37,189Z"/><circle class="cls-2" cx="299.46" cy="168.56" r="26.81"/><circle class="cls-2" cx="230.73" cy="351.71" r="26.81"/><circle class="cls-2" cx="234.88" cy="242.57" r="30.97"/><circle class="cls-2" cx="307.39" cy="320.74" r="30.97"/><circle class="cls-2" cx="327.4" cy="242.57" r="20.01"/></g></svg>