<svg width="218" height="200" viewBox="0 0 218 200" fill="none" xmlns="http://www.w3.org/2000/svg">
<path d="M108.255 35C73.2921 35 44.9512 63.2999 44.9512 98.2122C44.9512 133.134 73.2921 161.434 108.255 161.434C143.218 161.434 171.559 133.134 171.559 98.2122C171.559 63.2999 143.218 35 108.255 35ZM54.2833 98.2122C54.2833 68.4521 78.4425 44.3186 108.255 44.3186C121.443 44.3186 133.522 49.0337 142.892 56.8922L68.3187 134.464C59.6013 124.894 54.2833 112.172 54.2833 98.2122ZM108.255 152.106C96.0357 152.106 84.7663 148.051 75.7229 141.206L150.482 64.6484C157.831 73.8554 162.217 85.5177 162.217 98.2029C162.217 127.972 138.058 152.106 108.255 152.106Z" fill="#FF4D4E" stroke="#262262" stroke-miterlimit="10"/>
</svg>
