<svg width="50" height="50" viewBox="0 0 50 50" fill="none" xmlns="http://www.w3.org/2000/svg">
<path d="M25 0C11.1826 0 0 11.1813 0 25C0 38.8174 11.1813 50 25 50C38.8174 50 50 38.8187 50 25C50 11.1826 38.8187 0 25 0ZM25 46.6667C13.053 46.6667 3.3333 36.9471 3.3333 25C3.3333 13.0529 13.053 3.3333 25 3.3333C36.947 3.3333 46.6667 13.053 46.6667 25C46.6667 36.947 36.947 46.6667 25 46.6667Z" fill="#262262"/>
<path d="M36.2642 23.3325H26.6667V13.7351C26.6667 12.8146 25.9205 12.0684 25 12.0684C24.0795 12.0684 23.3333 12.8146 23.3333 13.7351V23.3325H13.7358C12.8154 23.3325 12.0691 24.0787 12.0691 24.9992C12.0691 25.9197 12.8153 26.6659 13.7358 26.6659H23.3333V36.2634C23.3333 37.1838 24.0795 37.9301 25 37.9301C25.9205 37.9301 26.6667 37.1839 26.6667 36.2634V26.6659H36.2642C37.1846 26.6659 37.9309 25.9197 37.9309 24.9992C37.9309 24.0787 37.1846 23.3325 36.2642 23.3325Z" fill="#262262"/>
</svg>
