<?xml version="1.0" encoding="UTF-8"?>
<svg viewBox="0 0 600 600" xmlns="http://www.w3.org/2000/svg">
<mask id="a" fill="white">
<path d="m566.8 221.82c-1.521-3.798-3.041-3.798-6.843-3.039-9.886 2.279-20.531 5.318-30.416 8.357-4.563 1.519-9.125 2.279-13.687 2.279-2.282 0-4.563 0-6.844-1.519-1.521-1.52-2.281-3.039-3.802-3.799-2.281-1.519-4.562 0-4.562-3.039 0-2.279 0-3.798-0.761-6.077-1.521-3.798-4.562-6.077-8.364-8.356-4.563-3.039-9.125-5.318-12.927-9.116-3.802-3.799-6.844-6.838-9.885-10.636-1.521-6.077-1.521-12.155-3.042-18.232-0.76-2.279-1.521-4.558-3.041-6.837-0.761-0.76-1.521-1.52-3.042-2.279-0.76-1.52-0.76-2.279-0.76-4.558-0.761-6.078-4.563-9.116-8.365-12.915-3.041-2.279-5.322-5.317-4.562-9.116 0.76-3.039 1.521-4.558 0.76-7.597-1.52-6.077-6.083-9.875-9.124-15.193-3.802-5.318-6.844-11.395-9.125-17.473-1.521-3.0387-3.042-6.8371-3.802-9.8758-0.761-1.5194-0.761-3.0387-1.521-4.5581h0.76c1.521-0.7596 2.282-2.279 3.042-3.7983 0.76-5.3178-4.562-9.1161-7.604-12.914-1.521-1.5194-0.76-4.5581-2.281-6.0774-2.281-2.279-4.563-2.279-6.844-2.279s-4.562 0.7596-6.843 2.279c-2.282 1.5193-3.802 3.0387-6.084 4.558-2.281-1.5193-4.562-3.7983-6.843-5.3177-2.281-1.5193-5.323-2.279-8.364-1.5193-6.844 0-12.927 3.0387-19.771 2.279-6.843-2.279-9.885-10.636-16.729-12.155-2.281-0.7597-5.322-0.7597-7.604 0.7597-1.52 0.7596-2.281 1.5193-3.041 3.0387 0 0.7596-0.761 0.7596-1.521 1.5193-1.521 1.5194-2.281 0.7597-3.802 0-4.562-2.279-9.125 0-9.125 6.0774 0 1.5194 0 2.279 0.761 3.7984 0.76 0.7597 2.281 4.558 2.281 5.3177-0.76 2.279-3.802 0-5.323-0.7597-1.521-0.7596-3.802-1.5193-5.323-2.279-3.041-0.7597-6.083 0-9.124 0-4.563 0-6.084-3.0387-8.365-6.0774-4.562-5.3177-10.645-2.279-16.729-5.3177-5.322-3.7984-9.885-9.1161-15.208-12.914-1.52-0.7597-2.281-1.5193-3.801-1.5193-1.521-0.7597-4.563-0.7597-6.084-1.5194-3.041-1.5193 0-2.279 1.521-3.0387s2.281-1.5193 3.042-3.0387c0.76-0.7597 0-2.279-0.761-3.0387-1.52-0.7597-2.281-3.0387-1.52-4.5581 0.76-1.5193 2.281-1.5193 3.041-3.0386 1.521-0.7597 2.281-3.0387 2.281-4.5581 0-1.5193-0.76-2.279-2.281-3.0387-0.76 0-1.521 0-2.281-0.75967-0.76-0.75968-0.76-2.279-0.76-3.0387-1.521-3.7984-6.084-5.3177-9.886-5.3177-3.041 0-5.322 0.75968-8.364 1.5194-3.802 0.75968-6.844 1.5194-10.646 1.5194-12.926 0.75968-25.093 0.75967-37.259 3.7984-5.323 1.5194-11.406 2.279-15.968 4.558-2.282 1.5194-3.802 3.0387-5.323 5.3178-3.042 2.279-6.083 3.7983-9.885 4.558-0.761 0-1.521 0.7597-1.521 1.5194-9.125 3.0387-19.771 1.5193-27.374-3.7984-3.042-1.5194-5.323 0-5.323 0.7596-0.761 10.636-12.167 14.434-19.771 20.511-3.802 3.0387-7.6036 6.0774-10.645 9.1161-3.0416 2.279-5.3228 5.3177-3.802 8.3564 0 1.5194 2.2812 3.0387 1.5208 4.5581 0 1.5193-1.5208 2.279-2.2812 3.0387-2.2812 2.279-3.802 4.558-4.5624 7.5967 0 1.5194 0 3.0387 0.7604 4.5581 0.7604 3.0387-3.0416 3.7983-5.3227 5.3177-3.802 1.5193-9.1248 3.7984-11.406 6.8371s-2.2812 6.837-4.5624 9.8757c-2.2812 3.7986-6.0832 6.0776-9.1248 9.1166-5.3228 6.077-7.6039 13.674-11.406 20.511-3.0416 5.317-12.927 11.395-9.1248 18.232 0.7604 0.76 1.5208 2.279 2.2812 2.279 1.5208 1.519 3.802 0.76 4.5624 2.279 3.0416 3.039 0 9.116 0.7604 12.914 0.7604 1.52 1.5208 3.039 3.0416 4.559 3.0416 3.038 3.0416 5.317 1.5208 9.116-2.2812 4.558-5.3228 8.356-9.1248 11.395-2.2812 2.279-4.5624 6.077-4.5624 9.876 0 2.279 1.5208 4.558 3.0416 6.077-0.7604 0.76-0.7604 2.279 0.7604 3.039 4.5624 3.038 7.604 6.837 9.1248 12.154 0.7604 1.52 1.5208 3.039 2.2812 3.799 1.5207 1.519 5.3227 0.759 6.8435 3.039 0.7604 1.519 0.7604 3.798 1.5208 5.317 0.7604 2.279 2.2812 3.799 3.802 6.078 3.802 4.558 7.604 9.116 11.406 13.674 6.8436 6.837 12.927 15.193 22.052 20.511 8.3642 4.558 19.01 5.318 27.374 1.519 1.521-0.759 2.281-1.519 3.802-1.519 1.521-0.76 3.042 0 3.802 1.519 1.521 1.52 3.042 2.279 5.323 2.279 5.323 0.76 9.885-2.279 14.447-2.279 5.323 0 9.886-0.759 14.448-2.279 4.562-1.519 9.125-3.798 13.687-5.317 4.563-1.52 9.125-3.039 14.448-3.039 2.281 0 4.562 0 6.843 1.519 3.042 1.52 3.802 3.039 4.563 6.078 3.041 7.596 12.166 7.596 19.01 5.317 2.281-0.759 5.322-1.519 8.364-1.519 3.802 0 6.083 2.279 8.364 5.318 1.521 2.279 3.802 5.317 3.042 8.356 0 2.279-3.042 3.799-3.802 6.078-0.76 1.519-0.76 3.038 0 4.558 0.76 1.519 1.521 2.279 0.76 4.558 0 1.519-0.76 3.038-1.52 4.558-1.521 3.038-2.282 6.077-1.521 9.116v0.76c0 0.759 0.76 1.519 0.76 1.519 6.844 9.876 15.208 18.232 22.052 28.108 3.041 5.318 6.083 11.395 6.843 17.472 0.761 2.279 0.761 5.318 1.521 7.597s3.042 3.039 4.562 5.318c1.521 2.279 0 6.077 0 9.116s1.521 6.077 2.282 9.116c2.281 6.837 0.76 12.915-3.042 18.992s-9.125 10.635-12.927 15.193c-3.041 3.799-4.562 7.597-0.76 12.155 3.802 5.318 9.125 9.116 9.125 15.953s3.802 12.915 6.843 18.992v2.279c1.521 3.039 3.042 5.318 4.563 8.357 1.52 3.038 5.322 7.596 4.562 11.395-0.76 2.279-2.281 3.798-2.281 6.077s0.76 4.558 2.281 6.078c1.521 2.279 3.042 4.558 3.042 7.596 0 3.039 0 5.318 0.76 8.357 0.76 5.318 3.802 8.356 8.364 12.155 4.563 3.798 6.844 9.116 9.125 15.193 1.521 3.039 3.042 6.078 4.563 9.116 1.52 3.039 3.802 7.597 2.281 11.395-0.761 2.279-2.281 3.799-2.281 6.078s1.52 3.798 3.041 6.077c3.042 3.799 7.604 8.357 12.167 9.876 4.562 2.279 9.124 1.519 12.926-0.76 2.281-0.759 4.563-2.279 7.604-3.798 3.042-1.52 6.844-1.519 9.885-1.519 6.084 0 11.406-0.76 16.729-3.039s9.885-5.318 14.448-9.116c4.562-3.799 9.124-9.116 13.687-12.915 4.562-3.798 8.364-7.597 12.927-12.155 6.843-7.596 12.166-18.232 9.124-28.867-0.76-1.52-1.52-3.039-0.76-4.558 0.76-1.52 2.281-1.52 3.802-2.279 2.281-0.76 4.562-3.039 6.083-4.558 1.521-1.52 3.042-3.799 4.563-6.078 1.52-3.038 2.281-5.317 5.322-7.596 4.563-3.799 5.323-7.597 4.563-13.675-0.761-3.798-2.281-6.837-2.281-10.635-0.761-3.798 0-7.597 0.76-11.395 0 0 0.76 0 0.76-0.76 4.563-4.558 9.886-8.356 15.208-11.395 4.563-2.279 9.125-4.558 12.927-7.597 3.802-3.038 6.844-6.837 9.125-11.395 2.281-5.318 3.041-10.635 6.843-15.193s3.042-9.116 1.521-14.434-4.562-10.636-7.604-15.194c-3.041-5.317-4.562-10.635-5.323-17.472-0.76-6.078-1.52-12.155-1.52-18.232 0-3.039 0.76-6.078 3.802-8.357 2.281-1.519 3.802-3.039 5.322-6.077 1.521-4.558 0-17.473 7.604-16.713 0.761 0 1.521 0 1.521-0.76l0.761-0.759c3.802-6.078 10.645-9.876 15.968-14.434 2.281-2.279 3.802-4.558 5.323-6.837 1.521-3.799 1.521-9.116 4.562-12.155 3.042-3.039 6.844-3.039 10.646-4.558 3.802-1.52 6.843-3.799 9.885-6.078 6.083-5.317 12.927-11.395 17.489-18.232 2.281-3.798 3.802-8.356 5.323-12.155 1.521-4.558 3.802-8.356 4.562-12.914 1.521-4.558 1.521-8.357 0-12.155z"/>
</mask>
<path d="m566.8 221.82c-1.521-3.798-3.041-3.798-6.843-3.039-9.886 2.279-20.531 5.318-30.416 8.357-4.563 1.519-9.125 2.279-13.687 2.279-2.282 0-4.563 0-6.844-1.519-1.521-1.52-2.281-3.039-3.802-3.799-2.281-1.519-4.562 0-4.562-3.039 0-2.279 0-3.798-0.761-6.077-1.521-3.798-4.562-6.077-8.364-8.356-4.563-3.039-9.125-5.318-12.927-9.116-3.802-3.799-6.844-6.838-9.885-10.636-1.521-6.077-1.521-12.155-3.042-18.232-0.76-2.279-1.521-4.558-3.041-6.837-0.761-0.76-1.521-1.52-3.042-2.279-0.76-1.52-0.76-2.279-0.76-4.558-0.761-6.078-4.563-9.116-8.365-12.915-3.041-2.279-5.322-5.317-4.562-9.116 0.76-3.039 1.521-4.558 0.76-7.597-1.52-6.077-6.083-9.875-9.124-15.193-3.802-5.318-6.844-11.395-9.125-17.473-1.521-3.0387-3.042-6.8371-3.802-9.8758-0.761-1.5194-0.761-3.0387-1.521-4.5581h0.76c1.521-0.7596 2.282-2.279 3.042-3.7983 0.76-5.3178-4.562-9.1161-7.604-12.914-1.521-1.5194-0.76-4.5581-2.281-6.0774-2.281-2.279-4.563-2.279-6.844-2.279s-4.562 0.7596-6.843 2.279c-2.282 1.5193-3.802 3.0387-6.084 4.558-2.281-1.5193-4.562-3.7983-6.843-5.3177-2.281-1.5193-5.323-2.279-8.364-1.5193-6.844 0-12.927 3.0387-19.771 2.279-6.843-2.279-9.885-10.636-16.729-12.155-2.281-0.7597-5.322-0.7597-7.604 0.7597-1.52 0.7596-2.281 1.5193-3.041 3.0387 0 0.7596-0.761 0.7596-1.521 1.5193-1.521 1.5194-2.281 0.7597-3.802 0-4.562-2.279-9.125 0-9.125 6.0774 0 1.5194 0 2.279 0.761 3.7984 0.76 0.7597 2.281 4.558 2.281 5.3177-0.76 2.279-3.802 0-5.323-0.7597-1.521-0.7596-3.802-1.5193-5.323-2.279-3.041-0.7597-6.083 0-9.124 0-4.563 0-6.084-3.0387-8.365-6.0774-4.562-5.3177-10.645-2.279-16.729-5.3177-5.322-3.7984-9.885-9.1161-15.208-12.914-1.52-0.7597-2.281-1.5193-3.801-1.5193-1.521-0.7597-4.563-0.7597-6.084-1.5194-3.041-1.5193 0-2.279 1.521-3.0387s2.281-1.5193 3.042-3.0387c0.76-0.7597 0-2.279-0.761-3.0387-1.52-0.7597-2.281-3.0387-1.52-4.5581 0.76-1.5193 2.281-1.5193 3.041-3.0386 1.521-0.7597 2.281-3.0387 2.281-4.5581 0-1.5193-0.76-2.279-2.281-3.0387-0.76 0-1.521 0-2.281-0.75967-0.76-0.75968-0.76-2.279-0.76-3.0387-1.521-3.7984-6.084-5.3177-9.886-5.3177-3.041 0-5.322 0.75968-8.364 1.5194-3.802 0.75968-6.844 1.5194-10.646 1.5194-12.926 0.75968-25.093 0.75967-37.259 3.7984-5.323 1.5194-11.406 2.279-15.968 4.558-2.282 1.5194-3.802 3.0387-5.323 5.3178-3.042 2.279-6.083 3.7983-9.885 4.558-0.761 0-1.521 0.7597-1.521 1.5194-9.125 3.0387-19.771 1.5193-27.374-3.7984-3.042-1.5194-5.323 0-5.323 0.7596-0.761 10.636-12.167 14.434-19.771 20.511-3.802 3.0387-7.6036 6.0774-10.645 9.1161-3.0416 2.279-5.3228 5.3177-3.802 8.3564 0 1.5194 2.2812 3.0387 1.5208 4.5581 0 1.5193-1.5208 2.279-2.2812 3.0387-2.2812 2.279-3.802 4.558-4.5624 7.5967 0 1.5194 0 3.0387 0.7604 4.5581 0.7604 3.0387-3.0416 3.7983-5.3227 5.3177-3.802 1.5193-9.1248 3.7984-11.406 6.8371s-2.2812 6.837-4.5624 9.8757c-2.2812 3.7986-6.0832 6.0776-9.1248 9.1166-5.3228 6.077-7.6039 13.674-11.406 20.511-3.0416 5.317-12.927 11.395-9.1248 18.232 0.7604 0.76 1.5208 2.279 2.2812 2.279 1.5208 1.519 3.802 0.76 4.5624 2.279 3.0416 3.039 0 9.116 0.7604 12.914 0.7604 1.52 1.5208 3.039 3.0416 4.559 3.0416 3.038 3.0416 5.317 1.5208 9.116-2.2812 4.558-5.3228 8.356-9.1248 11.395-2.2812 2.279-4.5624 6.077-4.5624 9.876 0 2.279 1.5208 4.558 3.0416 6.077-0.7604 0.76-0.7604 2.279 0.7604 3.039 4.5624 3.038 7.604 6.837 9.1248 12.154 0.7604 1.52 1.5208 3.039 2.2812 3.799 1.5207 1.519 5.3227 0.759 6.8435 3.039 0.7604 1.519 0.7604 3.798 1.5208 5.317 0.7604 2.279 2.2812 3.799 3.802 6.078 3.802 4.558 7.604 9.116 11.406 13.674 6.8436 6.837 12.927 15.193 22.052 20.511 8.3642 4.558 19.01 5.318 27.374 1.519 1.521-0.759 2.281-1.519 3.802-1.519 1.521-0.76 3.042 0 3.802 1.519 1.521 1.52 3.042 2.279 5.323 2.279 5.323 0.76 9.885-2.279 14.447-2.279 5.323 0 9.886-0.759 14.448-2.279 4.562-1.519 9.125-3.798 13.687-5.317 4.563-1.52 9.125-3.039 14.448-3.039 2.281 0 4.562 0 6.843 1.519 3.042 1.52 3.802 3.039 4.563 6.078 3.041 7.596 12.166 7.596 19.01 5.317 2.281-0.759 5.322-1.519 8.364-1.519 3.802 0 6.083 2.279 8.364 5.318 1.521 2.279 3.802 5.317 3.042 8.356 0 2.279-3.042 3.799-3.802 6.078-0.76 1.519-0.76 3.038 0 4.558 0.76 1.519 1.521 2.279 0.76 4.558 0 1.519-0.76 3.038-1.52 4.558-1.521 3.038-2.282 6.077-1.521 9.116v0.76c0 0.759 0.76 1.519 0.76 1.519 6.844 9.876 15.208 18.232 22.052 28.108 3.041 5.318 6.083 11.395 6.843 17.472 0.761 2.279 0.761 5.318 1.521 7.597s3.042 3.039 4.562 5.318c1.521 2.279 0 6.077 0 9.116s1.521 6.077 2.282 9.116c2.281 6.837 0.76 12.915-3.042 18.992s-9.125 10.635-12.927 15.193c-3.041 3.799-4.562 7.597-0.76 12.155 3.802 5.318 9.125 9.116 9.125 15.953s3.802 12.915 6.843 18.992v2.279c1.521 3.039 3.042 5.318 4.563 8.357 1.52 3.038 5.322 7.596 4.562 11.395-0.76 2.279-2.281 3.798-2.281 6.077s0.76 4.558 2.281 6.078c1.521 2.279 3.042 4.558 3.042 7.596 0 3.039 0 5.318 0.76 8.357 0.76 5.318 3.802 8.356 8.364 12.155 4.563 3.798 6.844 9.116 9.125 15.193 1.521 3.039 3.042 6.078 4.563 9.116 1.52 3.039 3.802 7.597 2.281 11.395-0.761 2.279-2.281 3.799-2.281 6.078s1.52 3.798 3.041 6.077c3.042 3.799 7.604 8.357 12.167 9.876 4.562 2.279 9.124 1.519 12.926-0.76 2.281-0.759 4.563-2.279 7.604-3.798 3.042-1.52 6.844-1.519 9.885-1.519 6.084 0 11.406-0.76 16.729-3.039s9.885-5.318 14.448-9.116c4.562-3.799 9.124-9.116 13.687-12.915 4.562-3.798 8.364-7.597 12.927-12.155 6.843-7.596 12.166-18.232 9.124-28.867-0.76-1.52-1.52-3.039-0.76-4.558 0.76-1.52 2.281-1.52 3.802-2.279 2.281-0.76 4.562-3.039 6.083-4.558 1.521-1.52 3.042-3.799 4.563-6.078 1.52-3.038 2.281-5.317 5.322-7.596 4.563-3.799 5.323-7.597 4.563-13.675-0.761-3.798-2.281-6.837-2.281-10.635-0.761-3.798 0-7.597 0.76-11.395 0 0 0.76 0 0.76-0.76 4.563-4.558 9.886-8.356 15.208-11.395 4.563-2.279 9.125-4.558 12.927-7.597 3.802-3.038 6.844-6.837 9.125-11.395 2.281-5.318 3.041-10.635 6.843-15.193s3.042-9.116 1.521-14.434-4.562-10.636-7.604-15.194c-3.041-5.317-4.562-10.635-5.323-17.472-0.76-6.078-1.52-12.155-1.52-18.232 0-3.039 0.76-6.078 3.802-8.357 2.281-1.519 3.802-3.039 5.322-6.077 1.521-4.558 0-17.473 7.604-16.713 0.761 0 1.521 0 1.521-0.76l0.761-0.759c3.802-6.078 10.645-9.876 15.968-14.434 2.281-2.279 3.802-4.558 5.323-6.837 1.521-3.799 1.521-9.116 4.562-12.155 3.042-3.039 6.844-3.039 10.646-4.558 3.802-1.52 6.843-3.799 9.885-6.078 6.083-5.317 12.927-11.395 17.489-18.232 2.281-3.798 3.802-8.356 5.323-12.155 1.521-4.558 3.802-8.356 4.562-12.914 1.521-4.558 1.521-8.357 0-12.155z" fill="#F78F2D" mask="url(#a)" stroke="#F78F2D" stroke-width="6"/>
</svg>
