<svg width="220" height="221" viewBox="0 0 220 221" fill="none" xmlns="http://www.w3.org/2000/svg">
<path d="M75.3959 43.8971H176.892C176.892 43.8971 172.185 90.8901 176.892 107.077C182.985 128.03 189.864 152.977 189.777 178.054H62.4127C62.4127 178.054 62.8604 137.122 72.262 106.436C81.6636 75.7487 75.3959 43.8971 75.3959 43.8971Z" fill="#F78F2D" stroke="#262262" stroke-miterlimit="10"/>
<path d="M122.393 113.816C123.255 113.816 123.954 112.289 123.954 110.405C123.954 108.521 123.255 106.994 122.393 106.994C121.531 106.994 120.831 108.521 120.831 110.405C120.831 112.289 121.531 113.816 122.393 113.816Z" fill="#262262"/>
<path d="M96.8087 142.233C96.8087 142.233 125.505 155.877 152.934 142.233" stroke="#262262" stroke-miterlimit="10"/>
<path d="M190.978 71.0541L150.751 63.84L177.733 91.52L143.391 91.7576L166.202 112.972L136.796 116.811" stroke="#FFF000" stroke-miterlimit="10"/>
<path d="M60.8076 79.9796C60.8076 79.9796 9.0169 110.643 36.1734 109.121C63.33 107.6 67.1736 101.598 67.938 97.2959C68.5495 93.7899 61.8231 86.445 38.6849 115.634C15.5467 144.824 71.454 119.758 77.1103 115.634C82.7665 111.51 78.2568 103.963 62.4128 115.634C46.5687 127.305 36.1734 138.275 47.7371 140.462C59.3007 142.649 79.9166 130.538 79.9166 130.538" stroke="#FFF000" stroke-miterlimit="10"/>
</svg>
