<?xml version="1.0" encoding="UTF-8"?>
<svg viewBox="0 0 600 600" xmlns="http://www.w3.org/2000/svg">
<path d="m388.8 265.06c0.76-1.244 1.013-2.487 1.013-3.73 0-0.497-0.507-0.994-1.013-0.994-2.535-0.249-4.815-2.486-6.843-3.729-1.774-1.243-3.547-2.486-5.321-3.481 0.506-0.497 1.013-1.243 1.267-1.988 0.507-1.989-0.507-3.978-1.521-5.718-2.027-3.978-4.561-7.707-7.349-11.188-0.507-0.497-1.267-0.248-1.52 0.249-1.267 2.237-2.534 4.475-3.801 6.712-0.761 1.243-1.268 2.238-2.028 3.481-0.253 0.746-0.507 0.994-1.267 0.497-0.507-0.249-0.76-0.994-1.013-1.243-2.535-3.729-5.322-8.204-4.055-12.928 0.253-0.745-0.507-1.243-1.267-1.243-2.534 0.498-4.308-2.237-5.322-3.977-1.013-1.492-2.281-3.729-4.308-3.978-1.774-0.249-3.041 1.74-4.815 1.989-2.027 0.248-3.801-0.497-5.068-1.989-0.507-0.746-1.52-0.249-1.52 0.746-0.254 0-0.507 0.248-0.761 0.746-0.253 2.486-0.253 4.723 0 7.209-0.507 0.249-1.013 0.497-1.267 0.995-0.253 0.248-0.253 0.745-0.253 1.243 0.76 1.491 3.294 1.243 3.041 2.983-0.507 1.74-2.281 2.735-3.295 4.226-2.534 3.729 2.281 6.215 4.308 8.701 2.281 2.984 3.041 8.204-1.013 9.945-1.521 0.746-3.295 0.497-4.562 1.243-1.52 0.746-1.774 2.486-1.013 3.977 0.506 0.995 1.267 1.741 1.52 2.984 0.254 0.994 0.507 1.989 0.507 2.983 0 1.989-0.507 3.729-1.774 5.221-0.76-0.746-1.52-1.243-2.534-1.74-1.521-0.746-3.548-0.498-4.561-1.741-2.281-2.734-1e-3 -6.961-0.254-9.944 0-1.243-0.507-2.735-1.52-3.48-1.521-0.995-3.295 0-4.815-0.746-2.028-0.995-3.801-2.238-5.575-3.232l-5.575-3.232c-1.521-0.746-3.295-2.486-5.322-1.989-0.76 0.249-1.267 0.746-1.774 1.243-0.76 0.497-1.774 0.746-2.534 0.249-0.254-3.232-1.014-6.215-2.534-9.199-0.254-0.497-1.014-0.497-1.521-0.248-0.507 0.497-1.267 0.745-2.027 0.745 0.507-2.983 1.014-5.717 1.774-8.701 0.507-1.491 0.76-2.983 1.267-4.723 0.507-1.243 0.76-2.735 1.52-3.978 0.761-1.243 2.028-0.994 3.295-1.492 1.013-0.248 2.027-0.994 2.28-1.989 0.507-1.74-0.253-3.231-1.52-4.226 4.308-1.74 8.109-5.221 9.883-9.447 0.507-1.243 0.76-2.486 1.014-3.729 0-0.746 0-1.74 0.507-2.237 0.253-0.498 1.013-0.746 1.52-0.746 1.014-0.497 2.281-0.746 2.788-1.741 0.506-0.497 0.506-1.243 0.76-1.988 0-0.249 0.253-1.243 0.76-1.492 0 2.983 3.801 4.475 6.589 2.983 3.294-1.74 4.815-6.215 3.041-9.695-0.76-1.243-2.788-3.481-1.521-4.973 1.014-1.243 2.281-1.988 2.028-3.977-0.507-1.741-2.028-2.735-3.295-3.481-2.027-0.994-4.308-1.989-6.335-2.983-0.507-0.249-1.014-0.249-1.267 0.249-1.521 2.486 0.253 4.972 0.253 7.706 0 1.741-1.267 3.232-2.027 4.475-0.76 1.492-1.521 2.735-2.281 4.227-1.774-0.995-1.267-4.227-1.267-5.967 0-2.237-0.76-4.972-3.294-5.469-0.507 0-0.76 0-1.014 0.497l-3.041 2.983c-0.507-2.734-2.027-5.221-4.054-6.961 1.52-1.989-0.254-5.221-1.268-7.209-1.773-3.73-4.054-7.459-6.588-10.69-0.254-0.498-0.761-0.746-1.267-0.249-4.055 2.237-4.562 7.21-4.562 11.436 0 2.237 0.254 4.723 1.774 6.464 1.267 1.491 3.041 1.988 5.068 2.237-0.76 1.74 0.507 3.978-0.253 5.967-0.253 0.745-1.014 1.243-1.521 1.988-0.506 0.746-0.76 1.244-1.013 1.989 0 0.995 0.253 1.741 0.253 2.735 0 0.497 0 0.994-0.253 1.492l-0.254 0.248c0.761-3.977-3.041-7.955-7.095-7.209-1.014 0.248-1.014 1.491-0.254 1.74-0.253-0.249-0.253 0-0.76 0.249-0.253 0.248-0.507 0.248-1.013 0.248-0.761 0.249-1.521 0.497-2.281 0.497-1.521 0.498-3.295 0.746-4.815 0.746-1.521 0-3.041 0-4.561-0.497-1.521-0.497-2.788-1.492-4.309-2.238-3.801-1.491-8.109 0.746-9.376 4.227-1.52-1.243-3.801-1.492-5.828-1.243-3.295 0.248-7.603 2.734-10.644 0.497-1.013-0.746-2.027-1.989-1.52-3.481 0.253-0.745 1.013-0.994 1.52-1.74 0.507-0.497 0.761-0.994 0.761-1.74 0-1.243-1.014-2.486-2.028-2.983-1.52-0.746-3.041-0.498-4.561-0.249-4.055 0.746-8.109 0-11.657-2.486-1.521-2.983-5.069-3.729-7.856-2.237-0.76 0.248-1.267 0.745-1.774 1.491-0.76 0.746-1.014 1.74-2.027 0.995-0.761-0.498-1.521-1.492-2.028-2.238-0.76-0.994-1.52-1.74-2.027-2.735-0.507-0.745-1.52-0.497-1.774 0.249 0 0.249-1.52-0.746-1.774-0.746-0.507-0.248-1.267-0.497-1.774-0.497-1.52 0-2.787 0.497-4.054 0.994-1.267 0.746-2.281 1.741-3.801 2.487-0.761 0.497-1.521 0.497-2.535 0.497-0.506 0-1.267-0.249-1.773 0-1.014 0.497-1.268 1.491-2.028 2.237-0.76 0.995-2.534 0.249-3.801 0.497-1.014 0.249-2.027 0.746-2.281 1.741 0 0.746 0.254 0.994 0.761 1.491 0.253 0.249 0.506 0.498 0.76 0.746-3.295-0.248-6.336-1.491-9.377-3.729-1.52-0.994-3.04-2.237-4.814-2.735-2.028-0.497-4.055-0.248-5.829-1.243-1.52-0.745-3.041-1.989-4.561-2.983-1.774-0.994-3.548-1.492-5.322-1.989-2.027-0.248-3.801-0.248-5.829-0.248-1.773 0-4.561 0-4.814-2.238 0-0.497-0.507-0.746-1.014-0.746-3.801 0-7.602-0.248-11.404-0.994 0-0.746 0-1.74-0.506-2.486-0.761-1.243-2.281-1.243-3.548-0.497-1.521 0.994-3.041 2.486-4.308 3.729s-2.788 2.983-4.815 3.232c-3.295 0.497-5.068 2.734-6.336 5.718-0.76 1.74-1.267 3.48-2.28 4.972-1.014 1.243-2.788 2.237-4.3083 1.491-0.2534-0.248-0.5068 0-0.7602 0-0.5068-0.248-1.7739 0.249-1.5205 1.243 0.2534 0.746-0.2534 1.492-1.0136 1.741-0.7603 0.497-0.5069 1.243 0 1.74 2.0273 1.492 3.8012 3.232 5.0686 5.221 1.013 1.491 1.774 3.977 4.054 4.226 1.267 0 2.281-0.497 3.041 0.497-0.507 1.492 0.254 2.983 0 3.978-0.76 2.237-6.082 1.492-5.321-1.492 0.253-0.746-0.761-1.491-1.521-0.994-3.5477 2.237-7.0955 4.475-10.643 6.464-0.5068 0.248-0.7603 0.994-0.2534 1.491 0.2534 0.497 0.7602 0.995 1.5204 1.243 0.5069 0.249 1.5205 0.249 2.0274 0.497 0.7602 0.498 0 1.741 0 2.487 0 0.745 0.5068 1.243 1.0136 1.74 0.7603 0.746 2.5341 0.994 4.0546 0.994 1.2667 0 3.8017-0.746 4.5617 0.995 0.253 0.745 1.52 0.745 1.774 0 0.76-1.492 2.027-2.486 3.801-2.486-0.254 0.248-0.254 0.497-0.507 0.994-0.507 0.497 0 1.243 0.507 1.492 1.014 0.248 1.014 1.74 0.507 2.734-0.507 1.243-2.281 1.492-3.548 1.741-1.267 0-2.534-0.249-3.801 0.248s-2.028 1.74-2.7878 2.735c-1.0137 1.243-1.7739 2.735-2.7876 3.978-0.7602 0.994-1.7739 2.237-1.7739 3.729 0 1.243 0.7602 1.989 1.7739 2.486 0.5068 0.248 1.0137 0.497 1.2671 0.746 0.2534 0.248 0.2534 0.248 0.5068 0.497 0 0.248 0 0.497 0.2534 0.497-0.7602 0-1.2671 0.746-0.7602 1.492 1.267 1.988 2.7873 4.226 5.3213 4.723 0.507 0.249 1.014 0.249 1.521 0 0.507 0 1.52-0.497 1.774 0.249 0.253 0.746 0 1.74 0 2.237 0 0.746 0 1.74-0.254 2.486 0 0.249 0.254 0.746 0.507 0.746 1.267 0.746 3.041 0.746 4.308-0.249 0.507-0.248 1.014-1.491 1.521-1.491 0.76 0 1.013 1.243 1.267 1.74 0.253 0.746 1.013 0.746 1.52 0.497 1.521-0.746 3.041-1.243 4.562-1.989-0.761 0.498-1.521 0.995-1.774 1.741-0.76 1.491 0.253 3.232-1.014 4.723-1.267 1.243-2.787 2.486-4.308 3.729-1.52 1.492-3.294 2.735-4.815 4.227-0.76 0.745 0 1.989 1.014 1.74 4.308-1.243 8.363-3.232 11.657-5.967 0.76-0.497 1.52-1.243 2.027-1.989 0.507-0.994 0.76-1.988 1.774-2.734 1.521-0.995 3.294-1.492 4.562-2.983 1.013-1.244 1.773-2.735 1.013-4.227-0.253-0.248-0.76-0.746-0.76-0.994 0-0.497 0.507-1.243 0.76-1.492 0.76-0.994 1.267-2.237 2.028-3.232 0.506-0.994 1.267-2.237 2.027-3.232 0.507-0.994 1.013-1.988 2.281-1.988 1.013 0 2.027 0 2.787-0.249 0 0.497 0 0.746 0.254 1.243-2.535 1.243-4.562 3.48-5.576 6.215-0.253 0.497 0 0.995 0.507 0.995 0.76 0.497 0.76 1.74 0.254 2.237-0.761 0.497-0.761 1.492 0.253 1.74 2.788 0.746 4.308-1.491 5.829-3.232 0.506-0.497 0.76-0.994 1.267-1.243 0.506-0.248 1.267-0.497 1.774-0.497 1.013-0.249 1.773-1.243 1.773-2.237 0-0.498 0-0.995-0.253-1.741 0-0.248-0.253-0.497-0.253-0.745v-0.249c0-0.249 0.253-0.249 0-0.249 0 0 0.506 0.995 0.76 1.243 0.253 0.249 0.76 0.498 1.267 0.746 1.267 0.249 2.281-0.248 3.548-0.248 1.267 0.248 2.28 1.491 3.041 2.486 0 0.248 0.253 0.497 0.506 0.497 4.562 1.989 10.39 0 14.445 3.48 4.055 3.481 7.602 7.459 9.883 12.182 1.014 1.989 2.028 3.978 3.801 5.469 0.761 0.498 1.774 0.995 2.788 1.244 1.014 0 2.788-0.498 3.294 0.248 0.761 0.746 0.507 1.74 1.521 2.238 1.013 0.745 2.534 0 3.041 1.243 0.507 0.994 0.253 2.237 0.253 3.232 0 1.243 0 2.486 0.76 3.48 1.268 1.989 3.295 3.232 4.308 5.221 0.507 0.994 1.014 2.237 1.268 3.232 0.253 0.994 0.253 2.237 1.013 3.232 1.267 1.491 4.055 1.243 5.829 1.988 1.774 0.498 4.054 2.238 2.787 4.227-0.253 0.497-0.76 0.497-1.013 0.746-0.254 0.248-0.254 0.745-0.507 1.243-0.254 1.243 0 2.734 0.253 3.977 0.76 2.984 1.014 5.718 0.76 8.702-0.253 2.983-0.76 5.717-1.267 8.701-0.253 1.243-0.506 2.734-0.506 3.977-0.254 1.243-0.507 2.735-0.254 3.978 0.507 2.486 3.294 3.232 4.055 5.47 0.507 0.994 0.507 2.237 1.013 3.48 0.507 1.243 1.521 1.74 2.281 2.735 1.774 1.74 1.521 4.475 2.788 6.712 0.506 0.746 1.267 1.492 2.28 1.74 1.267 0.249 2.535-0.248 3.802 0 1.267 1.492 2.787 3.232 4.054 4.724s3.295 2.983 3.295 4.972c0 1.74 0 2.983 1.013 4.475 0.76 0.994 2.788 2.983 1.521 4.226-0.507 0.497-0.254 1.492 0.507 1.74 3.294 0.995 6.081 3.73 7.349 6.961 0.506 1.741 1.013 3.481 2.28 4.724 1.014 1.243 2.534 1.74 4.055 1.492 0.507-0.249 1.014-0.995 0.507-1.492-3.295-4.226-6.336-8.453-9.63-12.928-1.52-1.988-3.041-3.729-4.308-5.966-0.76-1.492-1.267-4.226 0.507-5.469 3.294 2.486 4.815 6.215 6.589 9.695 2.28 3.978 5.321 7.21 8.616 10.193 1.52 1.74 3.294 3.232 4.561 5.221 0.76 1.243 0.507 2.237 0.253 3.729 0 0.994 0 1.989 0.507 2.735 1.521 3.729 5.575 6.215 8.87 8.204 4.054 2.486 8.362 4.972 12.924 5.718 2.281 0.497 4.561 0.497 6.842 0.248 2.281-0.248 4.815-0.994 6.842 0.249 3.041 1.491 4.815 4.723 8.109 5.718 0.761 0.248 1.521 0.248 2.281 0.248 0.507 0 1.267-0.248 1.774 0 0.76 0.249 1.267 0.746 1.774 1.243 2.027 1.741 4.055 3.73 6.082 5.47s3.801 3.977 6.082 5.469c1.013 0.497 2.027 0.746 3.294 0.995 0.507 0 1.267 0 1.774 0.497 0.507 0.248 0.76 0.746 1.014 1.243 1.267 1.491 3.548 1.74 4.054-0.249 0.254-0.994 0.761-2.237 2.028-2.486 1.267-0.248 2.534 0.497 3.041 1.74 0.253 0.995 2.027 0.995 2.027-0.248 0-3.729-4.562-3.978-7.349-3.481-1.267 0.249-2.534 0.746-3.801 0.249-1.014-0.249-1.774-0.995-2.281-1.989-1.014-1.74-1.774-3.729-2.281-5.718-0.253-1.243-0.253-2.486 0-3.729 0.254-0.994 0.761-1.74 0.761-2.735-0.254-1.74-1.774-2.983-3.548-3.729-3.801-1.491-7.856-0.497-11.657 0.249 0.76-1.74 1.52-3.481 2.027-5.221 0.76-2.237 1.774-4.723 2.534-6.961 0.76-1.989 0-3.48-2.027-3.978-2.027-0.497-4.562-0.745-6.589 0-1.774 0.746-2.787 2.238-3.041 3.978 0 0.994 0.254 2.238-0.76 2.735s-2.281 0.497-3.294 0.746c-2.281 0.497-4.815 0.497-6.843-0.995-1.52-1.243-2.534-2.983-3.294-4.723-0.76-1.989-1.267-3.978-1.774-6.216-0.253-2.237-0.253-4.475 1.267-6.215 0.507-0.497 0.254-1.491-0.507-1.74-1.267-0.497-1.52-1.989-1.013-3.232 0.506-1.243 1.774-2.237 2.787-3.232 1.267-0.994 2.281-1.989 3.548-2.983 0.76-0.497 1.267-1.243 2.027-1.492 1.014-0.497 2.028 0 3.041 0.249 2.788 0.994 5.829 1.74 8.616 0.994 2.281-0.746 4.562-3.729 7.349-2.237 1.774 0.994 3.295 2.735 5.322 2.735 0.507 0 1.014-0.249 1.521-0.498 0.253-0.248 0.506-0.248 0.76-0.497 0.76-0.248 1.013 0 1.52 0.746 0.76 1.243 1.267 2.486 1.521 3.978 0.76 2.237 1.267 5.22 3.294 6.712 1.774 1.243 4.562 0.994 4.562-1.492 0-1.491-1.014-2.734-1.521-3.977-0.507-1.492-1.014-2.984-1.267-4.475-0.507-3.232-0.507-6.464 1.52-9.199 0.254-0.248 0.254-0.497 0.254-0.497 0.507-0.746 1.52-0.994 2.281-1.492 0.76-0.497 1.52-0.994 2.027-1.74s0.76-1.74 1.014-2.486c0.253-1.243 1.267-0.497 2.28-0.497 2.028 0.249 2.788-1.243 4.308-2.238 0.761-0.497 2.028-0.497 2.788-0.994 0.253-0.249 0.507-0.497 0.507-0.994 0.507-0.249 0.76-0.746 0.507-1.243-0.761-1.741-1.774-3.481-2.535-5.221-0.253-0.746-0.76-1.74-1.013-2.735-0.254-0.746-1.014-1.989-0.254-2.486 1.014-0.497 2.028-0.249 3.041-0.746 1.267-0.497 1.774-1.243 2.028-2.486 0-0.746 0-1.74 0.506-2.237 0.507-0.498 1.521-0.746 2.281-0.746 2.027-0.497 4.055-1.243 6.082-1.74 1.267-0.498 1.774-1.243 1.774-2.735 0-1.74 0.253-3.232 1.267-4.475 2.027-2.735 5.575-4.226 8.616-5.469 1.014-0.498 2.027-0.746 3.041-1.243-0.507 0.745-1.014 1.243-1.774 1.491-1.267 0.498-2.281 1.492-1.52 2.984 0.507 1.243 1.267 2.983 2.787 2.486 0.76-0.249 1.521-0.746 2.281-1.243 0.76-0.746 1.267-1.741 2.027-2.238 1.267-0.994 9.63-3.232 6.842-5.966-0.506-0.498-1.267-0.498-1.773-0.249-1.014 0.249-2.281 0.497-3.295 0-0.76-0.249-1.52-0.994-2.281-1.243-0.253 0-0.76-0.249-1.013-0.249v-0.497c0.253-1.243 0.76-2.237-0.254-3.232-0.253-0.248-1.267-0.746-1.267-1.243-0.253-0.746 1.267-1.491 1.774-1.989 2.281-1.74 2.028-4.475-0.507-5.718-3.041-1.491-5.828-0.248-8.616 1.492 0.761-0.994 1.521-1.74 2.534-2.486 3.295-3.232 7.349-0.497 11.404-0.994 3.801-0.498 6.589-2.735 10.137-3.978 1.773-0.497 3.547-0.746 5.068-1.492 1.52-0.746 2.534-1.989 3.041-3.48 2.027-1.492 0.76-4.724-2.027-6.215zm-23.061 40.274h0.253c0 0.248 0 0.248-0.253 0v0z" fill="#F78F2D"/>
<path d="m506.64 35.352c-5.068-3.4805-12.164-1.2431-14.445 4.2263l-3.04-1.9889c-0.507-0.4972-1.268 0-1.521 0.4972-0.76 1.9889-2.027 3.4805-3.548 4.7236 2.028-3.9777 2.534-8.7013 1.521-12.928-0.254-0.7458-1.014-0.7458-1.521-0.4972-2.787 1.243-5.321 2.7347-8.109 3.9777-1.014-1.7402-3.548-2.4861-5.575-2.4861-2.534 0-5.322 1.4917-7.856 1.2431 7.096-3.2319 14.191-6.2152 21.287-9.4471 0.76-0.2486 0.507-1.4916-0.254-1.7402-2.534-0.4972-4.814-2.2375-6.082-4.475-1.013-1.7402-1.267-4.2263-3.04-5.4693-1.014-0.4972-2.281-0.4972-3.295 0-1.267 0.4972-2.534 0.9944-4.054 1.4916-2.281 0.4972-4.815 0.2486-7.096-0.2486 2.281-0.9944 4.815-1.9888 7.349-2.486 1.014-0.24861 1.014-1.243 0.253-1.7402-2.027-1.4916-3.547-3.7291-4.054-5.9666 0-0.24861-0.507-0.74582-0.761-0.74582-2.027-0.49722-3.801-0.74582-5.828-1.243-0.76-0.24861-1.267 0.49721-1.267 0.99443h-9.63c-2.534 0-5.828-0.24861-7.856 1.243-0.76 0.49722-1.267 1.4916-1.52 2.4861 0 1.4916 1.014 2.2375 1.267 3.7291 0.253 1.243-0.76 2.7347-2.027 3.2319-1.521 0.2486-3.041-0.9944-3.295-2.4861 0-0.74582-0.507-0.99443-1.267-0.99443-5.322 1.243-10.643 2.7347-15.965 4.2263-0.507 0.2486-1.014 0.9945-0.507 1.4917 1.521 2.486 4.562 2.7346 7.096 2.486 1.774 0 5.575-0.4972 6.589 1.4917-2.534 0.2486-5.069 0.2486-7.603-0.2486-0.76-0.2486-1.267 0.4972-1.267 1.243 1.014 5.4694 0.507 11.187-1.774 16.16-3.294-4.9722-8.616-8.7013-14.698-9.6957-0.507 0-1.013 0-1.013 0.4972-1.521 2.7347-1.014 6.2152 1.52 8.4526-0.76 0.4973-1.774 0.9945-2.787 0.7459 0-1.4917-1.014-2.7347-2.281-3.4805-1.014-0.7459-6.082-2.2375-4.815-3.9777 0.507-0.9945-0.76-1.7403-1.521-1.2431-3.547 2.9833-7.855 5.2208-12.163 6.7124-0.507 0.2486-1.014 0.7458-0.761 1.243 1.521 3.7291 3.548 7.4582 6.082 10.69-0.507 0.4972-2.027-0.4972-2.28-0.7458-1.014-0.7458-1.521-1.9888-2.281-2.9833-1.521-1.7402-3.801-3.2319-6.082-1.7402-0.253 0.2486-0.253 0.7458-0.253 0.9944 0.506 1.7403 1.52 3.4805 1.013 5.4694-0.253 1.4916-1.774 2.7346-3.294 1.9888-0.507-0.2486-1.267 0.2486-1.267 0.7458-0.254 0.9945-0.254 2.2375-0.507 3.2319-0.76-0.2486-1.267-0.2486-1.774-0.2486-0.507 0.2486-1.267 0.7458-1.774 1.2431-1.267 0.9944-2.281 2.2374-3.294 3.4805-2.028 2.7346-3.295 5.7179-4.055 8.9498 0 0.4972 0.254 1.243 1.014 1.243 2.027-0.2486 4.054 0 6.082 0-0.761 2.9833-1.521 5.9666-2.281 9.1985-0.507 1.4916-0.76 2.9833-2.281 3.9777-1.267 0.7458-2.787 1.243-4.308 1.7403-5.575 1.9888-10.136 5.4693-13.684 10.193-0.254 0.2486-0.254 0.7459 0 0.9945 1.774 3.7291 4.308 7.9552 8.363 9.6952 2.787 0.995 6.588 0.498 8.616-1.74 0.506 0.746 0.506 1.492 0.76 2.238-1.521 0.497-3.041 1.243-4.562 1.74-1.267 0.497-3.041 0.994-4.308 1.74-1.013 0.746-1.52 1.989-1.013 2.983 0.253 1.243 1.774 1.989 1.774 3.232 0 0.746-0.507 1.492-0.761 2.238-0.253 0.497-0.253 1.243-0.253 1.74 0.253 1.243 1.014 1.989 1.774 2.735 2.534 1.74 5.322 0.994 7.602 0 1.521-0.746 3.041-1.741 4.562-2.238 1.52-0.497 3.041-0.746 4.561-0.746 3.295 0 6.335 1.243 8.616 3.73 2.281 2.237 4.055 5.22 5.575 8.204 1.774 3.231 3.295 6.463 4.562 9.695 2.787 7.21 4.054 15.414 1.267 22.872-0.254 0.497 0 0.995 0.507 0.995 1.013 0.497 2.027 0.994 3.041 1.491 0.506 0.249 1.52 0 1.52-0.746 0-0.497 0.254-0.746 0.507-0.994 2.281 3.48 4.055 7.209 5.322 11.187-1.774-0.497-3.295-1.243-4.815-2.734-0.254-0.249-1.014-0.498-1.521 0-2.28 2.486 0.761 5.469 2.534 7.209 2.281 2.486 3.041 6.215 2.281 9.447-2.787 0.497-6.842 2.486-5.068 5.718 0.507 0.746 1.267 1.243 2.027 1.74 1.014 0.746 1.521 1.741 1.774 2.735 0.507 1.989 0.253 3.978 0.507 5.967 0.253 2.486 1.267 4.723 2.281 6.712 1.013 1.989 2.027 3.978 3.041 5.967 2.027 3.977 4.308 7.955 7.095 11.684 3.041 3.978 6.589 7.707 10.897 10.193 0.253 0.249 1.014 0.249 1.267-0.249 5.575-5.469 5.575-13.673 6.589-20.883 0.253-1.988 0.76-3.977 1.267-5.718 0.253-0.994 0.76-1.74 1.013-2.734 0.507-0.995 1.521-1.74 2.535-2.238 3.547-1.989 6.842-4.475 9.629-7.706 2.788-3.232 4.815-6.961 6.336-10.939 4.308 1.989 9.123-0.497 12.67-3.232 2.535-1.74 4.815-3.978 7.096-5.967 2.534-2.237 5.322-4.475 7.856-6.712 0.507-0.497 0.253-1.492-0.507-1.74-2.534-0.746-5.068-1.741-7.349-2.735 0.76-2.237 1.014-4.475 1.267-6.712 1.014 0.497 2.027 1.243 2.788 1.989 0.506 0.497 0.76 1.243 1.267 1.491 0.506 0.249 1.013 0 1.52-0.248 2.281-1.243 2.027-4.227 0.507-5.967-1.014-1.243-2.281-1.989-3.041-3.232-0.76-0.994-1.267-2.237-1.267-3.48-0.253-2.486 0.507-4.724 2.281-6.464 2.027 1.243 4.308 2.734 6.588 1.491 2.028-0.994 3.041-3.48 1.774-5.22-0.76-0.746-1.774-1.492-2.027-2.486-0.507-0.746-0.507-1.741-0.253-2.735 0.506-1.989 2.027-3.729 4.054-3.729 0.76 0 1.267-0.746 0.76-1.492-1.52-2.734 0.761-6.215 1.014-8.95 0-1.491-0.253-2.983-1.267-4.226s-2.534-2.237-3.548-3.729c-0.507-0.746-0.76-2.735 0.507-3.232 1.014-0.249 2.788 0.746 3.801 0.994 3.041 0.995 4.055-1.988 2.534-4.226-1.013-1.491-2.534-2.237-3.801-3.48-0.507-0.498-1.52-2.9836 0-2.9836 0.76 0 1.014-0.4972 1.014-1.2431-0.254-2.486-2.534-4.2263-4.815-4.4749-0.76-2.9833-0.253-5.9666 1.52-8.4526 1.774-2.4861 4.308-3.9777 4.055-7.2096-0.253-1.7403-0.76-3.4805-0.76-5.2208 0-1.7402 0.253-3.4805 0.76-5.2207 0.253-0.7458 0.507-1.7403 1.014-2.4861 0.507-0.9944 1.267-0.9944 2.28-0.7458 1.014 0.2486 2.281 0 3.041-0.7458 1.774-1.4917 1.521-4.2263 1.774-6.2152 0.254-1.4916 0.761-2.4861 1.774-3.7291 1.267-1.4916 2.788-2.9833 4.308-4.4749 1.267-1.2431 2.534-2.4861 3.801-3.9777 1.014-1.2431 2.535-2.2375 3.041-3.9778 1.014-2.2374-1.267-5.2207-3.294-6.4637z" fill="#F78F2D"/>
<path d="m376.13 195.45c-2.027-0.746-3.548-1.989-4.815-3.729-1.267-1.491-1.52-3.729-3.041-4.972-1.52-1.243-3.294-1.74-5.068-2.486-1.521-0.746-2.788-1.74-4.055-2.735 1.774-0.248 3.295-0.994 4.562-2.237 0.507-0.497 0.253-1.492-0.507-1.74-1.774-0.249-3.295-0.995-4.562-2.238 0.761-0.249 1.267-0.746 2.028-0.994 0.507-0.249 0.76-0.995 0.253-1.492-0.76-0.746-1.267-1.492-1.774-2.486-0.253-0.746-1.013-0.497-1.52-0.249-0.76 0.498-1.521 0.995-2.534 0.995l2.027-1.989c0.507-0.497 0.253-1.243-0.253-1.492-1.521-0.994-3.041-1.74-4.562-2.734-0.253-0.249-0.76-0.249-1.014 0-0.253 0.248-0.76 0.497-1.013 0.497 0 0 0-0.249 0.253-0.249 0.254-0.497 0.507-0.994 0.254-1.491 0-1.243-1.014-2.238-1.774-2.984-1.774-1.491-4.055-1.989-6.336-1.491-0.76-0.995-0.253-2.984-0.506-3.978-0.254-0.746-0.507-1.243-1.014-1.492-0.76-0.746-1.774-0.497-2.788-0.497-0.76 0-0.76-0.497-1.013-0.994-0.254-0.249-0.254-0.746-0.761-0.995-0.76-0.497-1.773-0.746-2.534-0.497-1.013 0.249-1.774 0.497-2.534 0.994-0.507 0.249-1.014 0.746-1.774 0.995-1.013 0.248-1.267-0.249-1.52-1.243-0.254-0.995-0.254-1.989-0.76-3.232-0.507-0.994-1.014-1.989-1.774-2.983-0.761-0.995-1.521-1.741-2.281-2.486-0.76-0.746-1.521-1.741-2.788-1.989-2.28-0.497-4.308 1.989-5.575 3.232-0.76 0.745-1.774 1.74-2.534 2.734-0.76 0.995-1.774 1.989-2.281 3.232-0.253 0.497-0.253 0.995 0 1.74 0.254 0.249 0.761 0.995 0.761 1.492-0.254 0.995-1.521 0-1.521-0.497-0.253-0.746 0-1.492 0.254-2.238 0.506-1.491 1.267-2.734 2.027-4.226s1.52-2.983 2.534-4.226c0.253-0.497 0-1.243-0.507-1.492-2.027-0.497-4.054-0.497-6.082-0.248h-0.76c-0.507 0-0.76 0.497-0.76 0.745-3.295 3.729-5.829 8.204-6.842 12.928-0.507 2.237-1.014 4.972 0.253 6.961 1.014 1.243 2.534 1.74 3.801 1.492 0.507 0.994 1.014 1.988 1.267 3.231-0.507-0.248-0.76-0.248-1.267-0.497-0.76-0.248-1.52 0-1.52 0.746 0 2.238 0.507 4.724 2.787 5.469 1.014 0.249 1.774 0.249 2.788-0.248 0.253-0.249 0.253-0.249 0.507-0.497 0.253-0.249 0-0.249 0.506 0 0.254 0.248 0.761 0.994 1.014 1.243 1.014 0.745 2.281 0.994 3.295 1.243 1.52 0.248 3.294 0.497 4.814 0.745 3.041 0.498 6.336 0.746 9.63 0.746 0.76 0 1.267-0.746 0.76-1.491-0.253-0.498-0.76-1.989 0-2.238 0.507 0 1.774 1.492 2.281 1.74 1.014 0.249 2.281 0 2.788-0.745 1.267 0.745 1.52 3.977 2.28 4.972 0.507 0.746 1.267 1.243 2.281 1.74 0.507 0.249 1.267 0.497 1.267 1.492 0 0.745-0.76 0.994-1.52 0.994-0.254 0-0.761 0.249-0.761 0.497-0.506 0.995 0 1.989 1.267 2.238 0.761 0 1.268-0.497 2.028-0.249 0.76 0.249 1.267 0.995 1.774 1.492 2.28 2.237 3.547 5.221 3.801 8.204v2.237c0 0.995-1.014 1.243-1.774 1.741-0.76 0.745-1.52 1.491-1.774 2.734-0.507 1.492-0.253 3.232 0.76 4.475-1.774 0.746-3.547 1.74-4.815 3.232-0.506-0.249-1.52-1.492-1.773-1.74-1.267-0.497-2.281 0.497-2.788 1.74-1.014 2.735 1.014 6.215 4.308 5.469 0.76-0.248 1.267-0.745 2.027-0.994 1.014-0.497 2.028 0 3.041 0.746 1.521 1.243 2.788 2.486 4.055 3.977 2.534 2.735 5.575 4.724 9.123 6.713 1.52 0.746 7.602 4.723 8.363 0.994 0-0.497-0.254-0.994-0.761-1.243-2.787-1.243-5.068-3.232-6.335-5.966 1.52 0.745 3.041 1.74 4.308 2.486 1.52 0.746 3.548 1.989 4.561 0 0.507-0.995 0.507-1.989 0.761-2.984 0.253-0.994 0.76-2.237 0.506-3.231-0.253-0.746-0.76-1.492-1.267-1.989-1.013-0.995-2.027-1.989-2.787-2.984-1.521-1.491-3.548-3.231-4.562-5.22-0.506-0.746-0.76-1.741-0.253-2.735s1.52-1.243 2.281-0.746c1.774 0.995 3.548 3.232 4.561 4.972 0.76 1.243 1.521 3.978 3.548 3.729 2.027-0.248 3.801-2.983 4.815-4.723 1.267-1.989 2.027-4.226 2.534-6.464 0.507-1.243 0.507-1.989 0-1.989z" fill="#F78F2D"/>
<path d="m327.47 143.5c0.76 0.745 1.774 0.497 2.534 1.491 0.507 0.746 0.507 1.492 1.013 1.989 1.014 1.243 3.295 1.243 4.815 0.995 1.267-0.249 3.548-0.995 3.801-2.487 0-0.994-0.506-1.491-1.013-2.237-0.507-0.994-0.507-1.989-0.507-2.983 0-1.741-1.014-2.735-2.788-3.232-1.013-0.249-2.027 0-3.04-0.249-0.761-0.248-1.521-0.746-2.535-0.497-1.267 0.249-2.027 1.492-2.534 2.735v0.248c0 0.249-0.253 0.746-0.253 0.995v0.248c-0.254 0.498-0.507 0.746-0.507 1.243 0.253 0.746 0.507 1.492 1.014 1.741z" fill="#F78F2D"/>
<path d="m270.71 171.59h-0.76c0-0.995-0.761-1.989-1.774-2.486-1.014-0.497-2.281-0.497-3.295-1.243-0.507-0.995-1.013-1.74-1.52-2.735 0-0.746 0.253-1.491 0.507-2.237 0.506-0.995 1.267-1.741 1.013-2.984 0-0.994-0.76-1.74-1.774-1.988 0-0.498 0-0.995-0.253-1.492-0.253-0.995-1.014-1.492-1.267-2.238 0-0.248 0-0.497-0.254-0.497 0-0.994 0.507-1.989 0.761-2.734 0.253-0.995 0.253-1.989 0.253-2.984 0-1.74-0.253-3.977-1.52-5.469-1.014-1.243-3.041-1.74-4.308-0.497-0.254 0.248-0.254 0.746-0.254 0.994 0.254 0.746 0 1.492-0.253 1.989-0.254 0-0.254 0-0.507-0.249-1.521-0.497-3.294 0-4.055 1.243-0.507 0.746-0.507 1.492-0.507 2.486 0 1.244 0.254 2.735 0.254 3.978s0.253 2.486 0.253 3.729c0 0.498 0.507 3.232-0.253 3.232-1.267 0-1.014-2.486-1.014-3.232 0-1.243-0.253-2.486-0.507-3.729-0.253-1.243-0.76-2.486-1.267-3.729-0.506-1.243-1.774-1.243-3.041-1.492-0.76-0.248-1.52 0.498-1.267 1.243 0.761 2.984-2.28 5.221-4.815 4.227 0.761-0.995 0.761-2.486 0-3.481-0.76-0.746-1.773-0.994-2.534-0.994 0.254-0.497 0.761-0.746 1.014-0.995 0.76-0.745 0.253-1.74-0.76-1.74-1.014 0-1.774-0.248-2.534-0.746-0.507-0.248-1.014 0-1.267 0.249-1.774 0.746-3.295 1.74-4.815 2.983-1.774 0.995-3.548 1.989-5.322 3.232-1.014 0.497-1.774 1.492-1.774 2.486 0 0.497 0.254 0.746 0.254 1.243-0.507 0.497-1.014 1.243-1.268 1.989-1.013 1.989-0.253 4.724 2.028 5.469 1.774 0.498 4.054-0.745 5.575-0.248-0.507 0.497-1.774 0.994-2.281 1.243-0.76 0.497-1.52 1.243-1.52 2.237 0 0.995 0.506 1.741 1.267 1.989 1.013 0.497 2.28 0 3.041 0.497 1.013 0.498 1.52 1.243 2.534 0.995 1.267 0 2.281-0.497 3.548-0.746 2.027 0 4.054 0.497 5.575 1.243-1.267 0.497-2.788 0.746-4.308 0.995h-3.295-0.253c-0.254-0.249-0.507-0.498-0.76-0.498-1.774 0-4.815 0.497-6.082 2.238-0.507 0.746-0.507 1.491 0.253 2.237 0.254 0.249 0.76 0.497 1.014 0.497h0.253c0 0.249-0.253 0.249-0.253 0.498 0 0.497 0 0.994 0.253 1.491 0.76 1.243 2.281 0.746 3.295 0.497 0.253 0 0.76-0.248 1.013-0.248 0.76 0 1.521 0 2.281 0.248 0 0 0 0.249 0.253 0.249 0.254 0.497 0.761 0.497 1.267 0.746 0.761 0.497 0.507 1.243 0.507 1.989 0 0.497 0 0.746 0.507 0.994 0.507 0.497 0.76 1.243 0.507 1.74-0.254 0.498 0 1.243 0.507 1.492 1.267 0.995 2.787 0.746 4.308 0.249 1.013-0.498 1.774-0.995 2.787-1.243 1.014-0.498 2.028-0.746 3.295-0.995 2.534-0.746 5.575-1.989 6.842-4.226 2.534 2.486 6.082 3.48 9.63 3.978 0.76 0.248 1.773 0.248 2.534-0.249 0.76-0.497 0.76-1.492 0.507-2.237-0.507-0.995-1.268-1.243-2.028-1.741-0.507-0.248-1.013-0.497-1.013-0.746 0 0 0.253 0 0.253-0.248 1.014-0.995 2.534-1.492 4.055-0.995 0.76 0.249 1.267 0 1.52-0.497 0.254-0.994 0.507-1.74 0.507-2.734 1.52-0.995 1.267-1.492 0.507-1.492z" fill="#F78F2D"/>
<path d="m223.32 149.96c1.267-0.745 2.535-1.74 3.802-2.486 1.013-0.746 2.28-1.491 3.294-2.237 0.76-0.497 1.774-0.995 1.52-2.238 0-0.994-1.013-1.988-1.52-2.734-0.76-0.995-1.52-1.989-2.281-2.735-0.76-0.746-1.774-2.237-3.041-2.486-0.76-0.249-1.774 0.249-2.534 0.746-0.76 0.248-0.76 0-1.52-0.497-0.507-0.498-0.761-0.746-1.267-0.995-1.014-0.497-1.774-0.497-2.534-0.497-0.507-0.995-2.028-1.492-3.295-1.243-2.281 0.248-4.561 1.243-6.842 1.74-0.507 0.249-0.76 0.497-0.76 0.995-0.254 0.994-0.254 1.988 0.253 2.983 0.254 0.497 0.507 0.994 1.014 1.243 0.507 0.497 0.76 0.497 0.253 0.994-0.507 0.746-1.013 1.492-0.76 2.486 0.253 0.746 1.267 1.741 1.267 2.735 0 0.497-0.76 0.994-1.014 1.492-0.253 0.497-0.76 0.746-1.013 1.243-0.507 0.994-0.761 1.989-1.267 2.983-0.761 2.237-1.014 4.724-2.534 6.712-0.507 0.746 0.506 1.492 1.013 1.492 1.014-0.249 2.281 0.249 3.041 0.994 0.76 0.746 1.014 1.492 1.521 2.238 1.267 1.492 2.787 1.243 4.308 0.249 1.013-0.498 1.267-0.746 2.28-0.498 1.014 0.249 1.774-0.248 2.028-1.243 0.253-0.994 0-1.989-0.254-2.983 0-0.497-0.253-0.994 0-1.492 0.254-0.497 1.014-0.248 1.521-0.497 2.027-0.497 1.52-2.486 2.027-3.978 1.014-1.243 2.281-1.988 3.294-2.486z" fill="#F78F2D"/>
<path d="m295.29 42.312c2.281 1.4917 2.281 4.7236 3.041 6.961 0.507 2.4861 1.521 4.7236 3.548 6.4638 2.028 1.4916 4.562 2.2375 7.096 1.7403 0.76 0 1.267-0.2487 1.774-0.4973s1.013-0.7458 1.774-0.7458c0.76 0 1.013 0.9944 1.774 1.4917 0.506 0.4972 1.267 0.7458 1.773 0.7458 1.267 0 2.281-0.4972 3.548-0.9944 1.521-0.7459 3.041-1.4917 4.308-2.2375 2.788-1.4917 5.575-3.4805 7.603-5.718 0.506-0.4972 0.76-0.9944 1.267-1.4916s1.774-0.9944 0.76 0c-0.76 0.9944-2.281 1.243-2.788 2.7347-0.253 0.7458 0 1.243 0 1.9888 0 0.9944-0.253 0.9944-1.267 1.4917-1.52 0.7458-3.041 1.4916-4.308 2.486-1.267 0.9945-2.787 1.9889-3.801 3.2319-1.014 0.9944-2.281 2.4861-2.787 3.9777-0.254 0.7459 0 1.4917 0.253 2.2375-0.76-1.243-1.774-2.4861-3.294-3.4805-2.535-1.7403-7.349-0.4972-7.349 2.9833 0 0.4972 0.506 0.9944 1.013 0.9944 1.267 0 0.254 3.2319 0.254 3.7291 0 1.4917 1.013 2.2375 2.28 2.7347 2.788 0.9944 4.562 3.9777 3.548 6.961 0 0.2486 0 0.7458 0.254 0.9944 0.76 0.9944 2.027 1.243 3.294 1.243 0.76 0 3.801 0 2.281 1.4917-1.521 1.4916-4.308-0.2486-5.829-0.4972-1.774-0.2486-3.294 0-4.815 0.7458-2.787 1.243-6.335 4.4749-6.588 7.7068 0 1.9889 2.027 4.2263 4.054 3.9777 0 0.4972 0 0.7458 0.254 1.2431 0 0.7458 1.013 0.9944 1.52 0.4972 1.014-0.4972 2.027-1.2431 2.788-1.7403 0 0 0 0.2486-0.254 0.2486-0.253 0.4972-0.253 0.9945 0.254 1.2431 0.76 0.2486 1.52 0.9944 1.52 1.9888 0 1.2426-1.014 1.2426-1.774 0.7458-1.267-0.7458-2.027-1.7402-3.294-1.9888-2.281-0.4972-4.308 1.243-3.041 3.4806 0.253 0.497 0.76 0.746 1.014 1.243 0.506 0.746 0.506 0.994-0.254 1.492-1.52 0.994-3.294 1.988-4.815 2.734-1.013 0.746-2.28 1.492-2.027 2.984 0 0.745 0.507 1.491 0.76 2.237 0.254 0.994 0.254 1.989 0 2.983 0 0.497 0 0.995 0.507 0.995 3.294 1.491 7.096 0.497 9.376-2.238 1.014 0.995 2.028 1.74 3.548 1.74 1.267 0 2.281-0.497 2.788-1.491 1.52-0.249 3.294-0.746 4.815-0.995 0.506 0 2.28-0.745 2.787-0.248 0.507 0.248 0 1.491 0 1.989-0.253 0.497 0.253 1.243 1.014 1.243 3.041 0 5.068-2.486 6.335-4.972 0.76-1.243 1.267-2.735 0.507-4.227-0.507-0.746-1.521-1.243-2.534-1.491-0.507-0.249-2.281-0.498-2.028-1.243 0.254-0.746 2.281-1.243 3.041-1.492 2.281-1.243 2.535-3.7292 1.774-5.9667 1.521 0 3.041-0.2486 4.308-1.243 1.774-1.4916 1.267-3.4805 1.267-5.4693 0-1.2431 0.761-1.4917 1.774-1.7403 0.761-0.2486 1.521-0.9944 1.774-1.7402 0.254-1.9889-1.267-2.7347-2.787-2.9833l0.253-0.2486c0.253-0.4972 0.253-0.7458-0.253-1.2431-0.761-0.9944-1.521-1.7402-2.281-2.7346-0.253-0.4973-1.774-2.2375-1.267-2.7347 0.253-0.4972 2.281 0 2.787 0 0.761 0 1.774 0 2.535-0.2486 2.534-0.7458 4.561-2.9833 4.308-5.718 0.76-0.2486 1.52-0.7458 2.28-1.243 1.774-1.4917 3.295-2.9833 5.575-3.7291 0.761-0.2486 1.014-0.9944 0.507-1.7403-0.253-0.2486-0.76-0.7458-0.76-1.243-0.253-0.4972-0.253-0.7458 0.507-0.4972 0.76 0 1.52 0 2.281-0.7458 0.506-0.4973 0.76-1.2431 1.013-1.9889 0.254-1.243 0.254-1.9888 1.014-2.9833 3.548-4.4749 7.349-8.7012 11.15-12.928 0.507-0.4972 0.507-1.2431-0.253-1.4917-0.761-0.2486-1.521-0.4972-2.281-0.4972l0.253-0.2486c1.014-0.7458 2.028-1.4916 3.041-2.2375 2.028-1.4916 3.801-2.9832 5.575-4.7235 2.788-2.7347 4.562-7.2096 1.521-10.442-0.254-0.2486-0.76-0.4972-1.014-0.2486-0.253 0-0.507 0.2486-1.013 0.2486-0.507-3.7291-2.281-7.2096-5.322-9.6956-0.507-0.4973-1.267-0.4973-1.521 0.2486-1.267 2.2374-3.041 3.4805-5.321 4.4749 1.267-0.9944 2.28-1.9889 2.027-3.9777 0-0.7458-0.76-1.2431-1.52-0.7458-2.028 0.9944-4.309 0.2486-5.829-1.2431-0.76-0.7458-1.52-1.4916-2.534-1.7402-1.267-0.2486-2.534-0.4972-3.548-0.4972-1.52-0.2486-4.815-1.2431-5.575 0.4972-0.507 0.9944 0 1.7402 0.507 2.486 0.507 0.7459 1.013 1.7403 1.774 2.4861h-1.267c-0.507 0-1.014 0-1.521 0.2486-0.253 0-0.253 0.2486-0.507 0.2486-1.774-1.7402-3.547-3.7291-4.815-5.9665-0.253-0.4973-1.013-0.74586-1.267-0.2486-1.013 0.7458-2.027 0.4972-3.041 0.7458-0.76 0.2486-1.52 0.9944-1.773 1.7402-0.254 0.7458 0 1.4917 0.76 1.9889 0.507 0.4972 2.027 1.243 0.76 2.2374-0.253-0.4972-0.507-0.9944-0.76-1.243-2.028-1.4916-4.308-1.9889-6.082-1.4916-2.281 0.4972-3.801 2.2374-4.815 4.2263-0.507 0.9944-1.014 2.2374-1.267 3.2319-0.253 0.9944-1.014 3.4805-2.281 2.486-0.507-0.4972-1.52 0.2486-1.52 0.7459 0 1.4916 1.013 2.7346 2.28 3.2318 0.507 0.2487 4.562 1.2431 3.041 2.4861-0.506 0.4972-0.253 1.4917 0.507 1.7403 0.254 0 0.254 0.2486 0.507 0.2486-1.014 0-2.027-0.4972-3.041-0.9945-1.774-0.9944-2.787-2.486-4.055-3.7291-2.027-2.2374-6.081-3.7291-8.109-0.4972-0.76 0.9945-0.76 2.4861-1.267 3.7291-0.76 1.9889-2.787 1.2431-4.561 1.4917-2.281 0.2486-3.548 2.9833-2.788 4.9721-2.027 0.7458-4.054 1.7403-5.575 3.2319-0.507 0-0.253 0.7458 0.253 1.243z" fill="#F78F2D"/>
<path d="m284.9 65.184c0.506 0 1.773 0.2486 1.773 0.9944 0 1.243-1.52 0.4972-2.027 0.4972-1.013 0-1.774 0.9944-2.027 1.9889-0.254 1.4916 0.76 2.7346 1.52 3.9777 0.254 0.2486 0.254 0.4972 0.507 0.9944 0 0.4972-0.253 0.7458-0.507 0.9944-0.253 0.4973-0.253 0.9945 0 1.4917 0.761 1.243 2.534 1.4916 3.548 1.243 0.507 0 1.267-0.2486 1.774-0.2486s1.52-0.7458 1.774-0.7458c0.253 0 0.507 0.4972 0.76 0.7458 0.254 0.2486 0.507 0.2486 0.76 0.4972 0.761 0.2486 1.521 0 2.281-0.2486 0.254 0 1.267-0.7458 1.521-0.2486-0.254-0.2486-2.028 0.4972-2.281 0.7458-1.267 0.4972-2.788 1.2431-3.294 2.4861-0.254 0.4972-0.254 0.9944 0 1.4916 0.253 0.7459 0.76 1.2431-0.254 1.7403s-2.027 1.243-1.774 2.4861c0.254 0.9944 1.267 1.4916 2.281 1.9888 1.267 0.9944 1.52 2.4861 2.787 3.2319 2.535 1.7403 5.322-0.2486 6.589-2.4861 0.76-1.4916 1.267-3.2319 2.028-4.7235 1.013-1.4916 2.28-1.7402 4.054-2.4861 1.014-0.4972 1.774-1.4916 1.774-2.7346 0-1.7403-2.281-2.9833-1.014-4.475 0.254-0.2486 0.507-0.4972 0.254-0.9944-0.76-1.9889-1.267-3.9777-1.774-5.9666-0.254-1.4916-0.254-2.9832-1.774-3.9777-0.76-0.4972-1.014-0.7458-1.014-1.7402 0-0.7458 0-1.4917-0.253-2.2375-0.76-1.243-2.027-1.7402-3.041-2.4861-3.041-1.7402-3.801-5.2207-4.561-8.4526-0.761-2.7347-3.041-5.9666-6.336-4.7235-0.76 0.2486-0.76 0.9944-0.507 1.4916 0 0.2486 0 0.7458 0.507 0.9944 0.254 0.2486 0.76 0.2486 1.014 0.4973 0.253 0 0.76 0 1.014 0.2486-0.254 0-0.761 0.9944-0.761 0.9944-0.253 0.4972-0.507 0.7458-0.76 1.243-1.014-0.2486-2.281-0.4972-3.041 0.4972-0.76 0.7459-1.014 1.9889-0.253 2.7347l0.253 0.2486-0.253 0.2486c-0.507 0.4972-0.507 0.9945-0.507 1.4917s0.253 1.243 0.76 1.4916c0.253 0.2486 1.014 0.9944 1.267 1.4917-0.507 0-1.014-0.2487-1.52-0.7459-0.254-0.2486-0.761-0.4972-1.014-0.2486-1.267 0.4972-1.521 1.7403-1.267 2.9833 0.253 0.4972 0.76 1.243 0.76 1.7403 0 0.4972 0.254 0.2486-0.253 0.2486s-0.76 0-1.014 0.2486c-0.507 0.2486-0.76 0.9944-0.253 1.243-0.254 1.9889 0.76 2.2375 1.774 2.2375z" fill="#F78F2D"/>
<path d="m302.89 134.3h9.883c1.267 0 2.534 0 3.801-0.497 0.507-0.249 0.76-0.746 1.267-0.995 0 0.249 0 0.746 0.254 0.995 0.506 0.745 1.267 0.994 2.027 0.994 2.281 0.249 4.561-0.994 6.589-1.989 0.506-0.248 0.76-1.243 0.253-1.491l1.267-0.249c0.507 0 0.76-0.249 1.267-0.497 0.254-0.249 0.76-0.746 0.507-0.995-0.253-0.746-0.76-0.994-1.521-0.994-0.253 0-0.76 0.248-1.013 0.248 0.507 0 1.013-0.745 1.267-0.994 1.014-1.492 0.76-3.48-0.507-4.723-0.76-0.746-1.52-0.746-2.534-0.746-1.521 0-2.027-0.995-3.041-1.741-0.76-0.497-1.521-0.745-2.534-0.745-1.014 0.248-2.027 0.994-3.041 1.243-1.267 0.248-2.281-0.498-3.548 0.248-1.014 0.497-1.267 1.989-2.281 2.238-2.28 0.746-4.815-2.735-6.842-0.746-0.253 0.249-0.507 0.497-0.76 0.994-0.253 0.498-0.507 0.746-1.014 0.249-0.76-0.994-1.267-2.735-2.027-3.978-0.507-0.994-1.014-2.486-1.774-3.232-0.253-0.497-0.76-0.497-1.267-0.745-0.76-0.249-1.014-0.498-1.267-1.244-0.253-0.994-0.507-1.988-1.521-2.486-1.013-0.497-2.027 0-3.04 0-1.268 0-0.761-1.491-0.761-2.486 0-0.994-0.253-1.74-1.267-2.237-0.507-0.249-1.267 0-1.267 0.248 0 0.249-1.52-1.491-1.52-1.491-0.507-0.497-1.267-0.746-1.774-0.746-0.76 0-1.267 0.746-0.76 1.492 0 0-2.788 0.497-3.041 0.497-0.761 0.248-1.521 0.994-1.521 1.989 0 1.74 1.267 2.486 2.534 2.734 0 0.249 0.254 0.498 0.507 0.746 0.507 0.249 0.76 0.497 1.267 0.746 0 0.497 0 0.994 0.507 1.492 0.507 0.497 1.014 0.746 1.774 0.994 1.267 0.249 2.534 0 3.801-0.497 0.253 0.746 1.014 1.492 1.521 2.237 1.013 0.995 2.534 1.989 2.534 3.481 0 1.243-1.267 2.237-1.521 3.48 0 1.492 0.507 3.232 0.76 4.724 0.254 1.243 0.761 2.237 1.774 2.735 0.507 0.248 1.014 0.248 1.521 0 0.253 0 0.507-0.249 0.76-0.498 0.507-0.248 0-0.248 0.507 0 1.013 0.498 1.52 0.995 2.787 0.995 0.507 0 0.761 0 1.014-0.249 0 0.497 0.253 1.492 1.014 1.492z" fill="#F78F2D"/>
<path d="m211.15 117.14c0 1.989 2.534 2.735 4.055 2.486 0.507 0 0.76-0.248 1.267-0.497 0.253 0 0.253-0.249 0.507-0.249 0.506 0.746 1.013 1.243 2.027 1.243 2.027 0 2.534-1.988 2.534-3.48 0.76-0.249 1.521-0.994 1.774-1.74s0.253-1.492 0.507-2.238c0.253-0.497 0.507-0.994 1.013-1.491 0.507 1.74 1.014 3.729 3.041 2.983 0.254 0 0.254-0.249 0.507-0.249-0.507 0.995 0.254 1.989 1.267 2.486h-0.253c-0.507 0.249-1.014 0.498-1.521 0.995-0.253 0.497-0.506 0.994-0.506 1.491 0 0.498 0.76 0.995 0.76 1.492 0 0.249-0.507 0.497-0.76 0.746-0.254 0.248-0.507 0.497-0.761 0.746-0.506 0.746-0.76 1.243-1.013 1.989-0.507 1.243-0.761 2.734 0.507 3.48 1.267 0.746 3.294 0.497 4.561 0.746 1.52 0.248 3.041 0.248 4.308-0.746 0.76-0.746 1.014-0.994 2.281-0.746 0.507 0.249 1.267 0.497 1.774 0.746-2.535 0.746-5.069 2.237-3.295 4.972 0.76 1.492 2.534 1.989 4.055 1.989 1.014-0.249 2.027-0.497 2.787-1.243 0.761-0.497 1.521-1.243 2.535-1.492 2.027-0.497 4.054 0.249 6.081-0.745 0.761-0.498 1.268-0.995 2.028-1.244 1.013-0.497 1.774-0.497 2.787-0.745 1.774-0.498 2.028-2.238 2.028-3.729 0-2.486-0.254-4.973-0.507-7.459 0-0.497-0.507-0.994-1.014-0.994-1.267 0-2.534 0.249-3.801 0.994-1.267-2.486-1.774-5.469-1.267-8.452 0.253-0.746-0.507-1.243-1.267-1.243-2.027 0.248-6.589 2.237-5.068 4.972 0.253 0.248 0.76 0.994 0.76 0.994 0 0.249-0.507 0.497-0.507 0.746-0.253 0.249-0.253 0.497-0.253 0.995-0.254 1.491 1.013 2.486 1.267 3.729 0 0.248 0.253 0.745 0 0.994-0.254 0.249-1.014-0.497-1.014-0.497-0.507-0.497-1.267-1.243-1.521-1.989-0.506-0.994-0.76-2.486-2.28-2.735-0.76 0-1.267 0.249-2.028 0-0.506-0.248-1.267-0.746-1.773-0.994-0.507-0.249-1.268-0.497-1.774-0.746-0.254 0-1.774 0.249-2.028 0 0-0.497 0-0.994-0.76-0.994-1.267-0.249-3.041-0.249-4.308 0.248 1.014-0.994 1.774-2.486 2.534-3.48 0.254-0.249 0.254-0.995-0.253-1.243-0.507-0.249-1.014-0.746-1.267-0.995 0.76-1.243 0.507-2.983 1.267-4.226 0.253-0.497 0-1.243-0.254-1.243-1.013-0.497-2.027-0.995-3.041-1.7403-0.76-0.4972-1.267 0-1.52 0.7453 0 0 0 0.249-0.253 0.249 0.76 0.497 0.506 0.746 0.76 0.995-0.507 0.248-1.267 0.248-1.774 0-0.76 0-1.267-0.249-2.027 0.248-1.268 0.995-2.281 2.735-3.295 3.978-1.267 1.989-3.548 7.707-6.842 6.215-0.507-0.249-0.76-0.249-1.267 0.249-0.507 0.497-0.76 1.243-0.507 1.988 0 0.498 0.254 0.995 0.254 1.244 0 0.745-0.254 0.994-0.254 1.491z" fill="#F78F2D"/>
<path d="m237.76 100.74c0.507 0.249 1.267 0.497 1.774 0.994 0 0.249-0.253 0.498-0.253 0.746 0 0.497 0.506 0.995 1.013 0.995 1.014 0.497 2.534-0.249 3.548-0.498 1.267-0.497 2.788-1.243 3.548-2.486 0.507-0.9941-0.254-1.9886-1.267-2.4858l-0.76-0.2486c0-0.2486 0.506-0.4972 0.76-0.4972 0.507-0.2486 1.013-0.4972 1.267-0.9944 0.76-0.9944 0.253-2.2375-0.507-2.9833-2.281-1.7402-6.082 0.2486-8.109 1.7403l-0.254 0.2486c-0.253 0.2486-0.506 0.4972-0.506 0.7458 0 0.4972-0.507 0.9944-0.761 1.4916-0.253 0.4972-0.253 0.9944-0.253 1.4917 0 0.7458 0.253 1.2433 0.76 1.7403z" fill="#F78F2D"/>
<path d="m240.3 91.787c0.76-0.2487 0.507-0.4974 0.76 0 0.254 0.4973 0.76 0.7459 1.267 0.7459 1.267 0.2487 2.281-0.9946 3.801-0.9946 1.014 0 2.535 0.2487 2.788-0.9946 0.253-0.9947 0-2.2379-0.507-2.9839-0.507-1.2433-1.52-1.2433-2.534-1.9893-1.014-0.7459-2.027-0.9946-3.041-0.4973-0.507 0.2487-0.76 0.4973-1.267 0.746-0.507 0-1.014 0.2486-1.267 0.2486-0.507 0-1.014 0.2487-1.521 0.4974-0.506 0.4973-0.76 1.2432-0.506 1.9892-0.507 0.2487-0.761 0.746-1.267 0.9947-0.507 0.2486-0.254 0.9946 0 1.4919 1.013 0.746 2.027 0.9946 3.294 0.746z" fill="#F78F2D"/>
<path d="m259.3 82.338c-0.507 0.4972-0.761 0.9944-0.254 1.4917 1.014 0.9944 2.281 0.2486 3.295-0.2487 0.76-0.4972 0-0.2486 0.253 0.2487 0.253 0.2486 0.253 0.4972 0.507 0.4972 0.253 0.2486 0.76 0.2486 1.267 0.4972-0.507 0.2486-1.267 0.7458-1.521 1.4916-0.253 0.4972-0.253 0.9945-1.013 1.2431-0.76 0-1.521-0.4973-2.281-0.9945s-1.52 0.2486-1.52 0.7458c-0.507 4.475 4.561 6.961 7.855 4.7236 0 0.4972-0.253 0.9944-0.506 1.4916-0.254 0.7458 0.253 1.7403 1.013 1.4917s2.028-0.7459 2.788-0.4973c0.76 0.2487 1.52 1.2431 2.281 1.9889 0.76 0.7458 2.28 1.9889 3.294 0.9944 1.267-0.9944 1.014-2.7346 0.507-3.9777-0.761-1.7402-2.281-2.9833-1.521-4.9721 0.507-1.2431 0.761-2.4861-0.507-3.4805-0.506-0.4972-1.267-0.4972-1.773-0.9944-0.507-0.4973-0.761-1.4917-1.014-1.9889-0.76-1.9888-2.788-2.9833-4.562-2.2375-0.76-0.7458-0.76-1.243-1.267-2.2374-0.253-0.4972-1.013-0.9944-1.52-1.2431-1.267-0.4972-2.534-0.4972-3.801 0-0.761-0.2486-1.521 0.7459-1.267 1.4917-0.254-0.2486-1.014 0.9944-1.014 1.243-0.253 0.4972 0 1.2431 0.253 1.7403 0.761 0.9944 1.521 1.4916 2.028 1.4916z" fill="#F78F2D"/>
<path d="m278.56 92.034c0.506 0.4972 0 1.243 0.506 1.9888 0.254 0.4972 0.761 0.7458 1.014 0.7458l-0.253 0.2486c-0.254 0.4973-0.507 0.9945 0 1.4917 1.013 0.7458 2.534 1.7402 3.801 1.243 0.76-0.2486 1.267-1.243 2.027-1.7402 0.76-0.7459 1.774-1.2431 2.788-1.9889 0.76-0.4972 0.507-1.243 0-1.7402-0.507-0.4973-1.267-0.7459-1.521-1.4917-0.253-0.4972 0-0.9944-0.253-1.4916-0.507-0.9945-1.774-1.4917-2.788-1.9889-0.253 0-0.76-0.2486-1.013-0.2486-0.254-0.2486 0-0.4972-0.254-0.7458 0-0.4972 0-0.7458-0.507-1.243-1.013-0.7459-3.041-0.7459-4.054-0.7459-0.76 0-1.014 0.4972-1.014 1.2431 0 0.7458 0 1.243 0.254 2.2374 0 0.2486 0.253 0.7459 0.253 0.9945 0 0.4972-0.253 0.4972-0.507 0.7458-0.76 0.7458 0.76 1.4916 1.521 2.4861z" fill="#F78F2D"/>
<path d="m280.34 121.37c0.254-0.994 0.254-1.989-0.253-2.734-0.507-0.995-1.521-1.989-1.267-3.232 0.253-0.995 0.507-1.989-0.254-2.984-0.507-0.994-1.52-1.491-2.534-1.74-1.52-0.497-5.828-0.248-6.082 1.74-0.253 0.995 0.507 1.492 1.014 1.989 0.253 0.249 0.76 0.497 0.76 0.995 0 0.745-1.014 1.243-1.52 0.745-0.507-0.497-0.254-0.994-0.507-1.74-0.254-0.497-0.507-0.746-1.014-0.994-0.507-0.249-1.013 0.248-1.52 0l-0.254-0.249c-0.253-0.248-0.253-0.497-0.253-0.746-0.76-0.994-1.774-0.745-2.534-1.491-0.507-0.497-0.507-0.995-1.267-1.243-0.507 0-1.014 0-1.267 0.497-0.254 0.497-0.254 0.994 0 1.243-0.761 1.492 0 2.983 1.267 3.729-0.254 0.497-0.761 0.994-0.761 1.243 0 0.746 0.254 1.492 1.014 1.989s2.027 0.497 1.774 1.74c0 0.995-0.507 1.492-0.253 2.486 0 0.249 0.506 0.497 0.76 0.746 1.267 0.249 2.281 0 3.294-0.497 1.014-0.497 4.308-1.74 3.801 0.497-0.253 0.746-0.76 1.243-1.013 1.74-0.254 0.498-0.254 1.243-0.254 1.741 0.254 0.994 1.014 1.74 2.028 1.988 1.013 0.498 2.28 0.249 3.294-0.248 1.014-0.249 2.027-0.746 2.281-1.74 0.507-0.995-0.507-1.989-0.254-2.984 0.761-0.746 1.521-1.491 1.774-2.486z" fill="#F78F2D"/>
<path d="m290.98 132.8c0.76-0.248 1.014-1.243 0.253-1.74-1.267-0.746-0.507-1.989-0.253-2.983 0.253-0.746 0-1.492-0.507-2.238-0.253-0.746-0.507-1.491-1.014-2.237-0.76-0.746-1.774-1.243-2.534-1.74-0.507-0.249-1.013-0.249-1.267 0.248 0 0-0.253 0-0.253 0.249l-2.534 2.734c-0.761 0.746-1.774 1.741-2.281 2.735-0.76 1.492 1.267 2.238 2.787 2.486 0.254 1.243 1.014 2.238 2.535 2.486 1.52 0.497 3.547 0.497 5.068 0z" fill="#F78F2D"/>
<path d="m274.51 139.02h-0.253c-1.267 0.249-3.548 0.498-4.055 1.989-0.253 0.746 0 1.243 0.254 1.74h-0.254c-0.76-0.248-1.52 0.746-1.013 1.492 0.76 1.243 2.027 1.74 3.294 1.989-0.507 0.746-0.76 1.243-1.014 1.989 0 0.497 0 0.994 0.254 1.243-0.507 0.248-1.014 0.248-1.267-0.497-0.254-0.498-0.507-0.995-0.761-1.492-0.506-0.746-1.773-1.492-2.787-1.243s-1.521 1.243-1.267 2.237c0.253 1.243 1.267 1.741 1.774 2.984 0.253 0.994 0.507 2.237 1.013 2.983 0.761 0.994 1.774 1.243 2.788 1.492 2.787 0.497 4.055 3.232 5.068 5.718 0.254 0.497 1.014 0.497 1.267 0.248 1.521-0.994 3.041-1.989 3.295-3.978 0.253-0.745 0-1.243 0-1.988v-0.746c0.76-0.249 1.52-0.746 1.267-1.74-0.254-0.746-0.761-0.995-0.507-1.741 0.253-0.497 0.76-0.994 0.76-1.491 0-1.492-1.267-2.238-2.281-2.735-1.013-0.497-0.76-1.243 0-1.74 0.507-0.497 1.014-0.995 1.521-1.74 0.253-0.498 0.507-1.244 0.507-1.741 0-0.248-0.254-0.497-0.254-0.994-0.253-0.497-0.253-0.249 0-0.746 0.507-0.497 0.76-0.746 1.014-1.492 0-0.497 0-1.243-0.507-1.74-2.027-1.74-5.828 0.249-7.856 1.74z" fill="#F78F2D"/>
<path d="m299.6 143.74c0-0.746-0.254-1.492-0.254-2.237 0-0.498 0-0.249 0.254-0.746 0.253-0.249 0.506-0.249 0.76-0.497 0.76-0.995 0.253-2.238-0.76-2.735-1.267-0.746-3.295-0.746-4.815-0.746-1.774-0.248-3.801-0.248-5.575 0-0.254 0-0.507 0.249-0.761 0.497-1.013 0.249-1.774 0.746-2.027 1.741-0.253 0.497-0.253 1.243 0 1.74s0.507 0.746 0.76 0.994h-0.76c-0.253 0-0.76 0.249-0.76 0.497-0.507 1.244 0 1.989 1.013 2.735 0.761 0.497 0.507 0.746 0 1.243-0.506 0.497-0.506 0.995-0.76 1.74-0.253 2.735 2.028 5.221 4.308 6.713 0.761 0.497 1.521-0.249 1.521-0.746 0-0.994 0.253-1.74 0.253-2.735v-0.497c0.254 0.249 0.254 0.249 0.507 0.497 1.014 0.746 2.281 0 3.041-0.745 1.014-1.244 0.76-2.735 2.281-3.73 0.507-0.994 1.52-1.74 1.774-2.983z" fill="#F78F2D"/>
<path d="m400.96 287.44c0-0.746-0.76-1.243-1.52-0.746s-1.014-1.74-1.014-1.989c-0.253-0.497-0.253-0.994-0.76-1.243-0.76-0.497-1.774-0.248-2.788 0 0-0.248 0-0.248 0.254-0.497v-1.243c-0.254-0.746-1.014-1.243-2.027-0.994h-0.254c0-0.249 0.254-0.497 0.254-0.497 0.253-0.498 0.253-0.995 0.253-1.492 0-0.995-0.507-1.74-1.267-2.238-0.254-0.248-0.76-0.248-1.014 0-0.507-0.248-1.267 0.249-1.267 0.995 0 2.237-0.76 4.226-2.027 5.966-0.76 0.995-1.267 1.492-2.281 1.741-0.76 0.248-1.52 0.497-2.027 1.243-0.507 0.745-0.254 1.243 0 1.989 0 0.248 0.253 0 0 0.248 0 0.249-0.254 0.249-0.507 0.249-0.253 0.248-0.507 0.497-0.76 0.746-0.761 1.491 0.253 2.486 1.774 2.486 0.76 0 1.52-0.249 2.28-0.746l0.254-0.249c0.253 0.249 0.76 0.497 1.267 0.746 0.76 0.249 1.52 0.497 2.281 0.249 0.506 0 0.76-0.249 1.267-0.498 0.253 0 0.506-0.248 0.76-0.248 0.253 0.248 0 0.248 0 0.497-0.507 1.492 0.76 2.735 2.281 1.989 0.76-0.249 1.267-0.746 1.773-1.243l0.761-0.995c0.253 0 0.253 0.746 0.253 0.746 0.507 1.492 2.027 1.989 3.295 0.746 1.267-0.746 0.76-3.729 0.506-5.718z" fill="#F78F2D"/>
<path d="m330.77 378.68c0.507 0.248 1.013 0.249 1.267 0.249 0 0.248-0.254 0.745-0.254 0.994 0 0.497 0.507 0.746 0.761 0.746 1.774-0.249 3.547-0.249 5.321-0.497 1.521 0 3.041-0.249 4.308-0.746 0.507-0.249 0.761-0.746 0.254-1.243-1.014-0.746-2.281-1.492-3.548-1.741v-0.248c0-0.497-0.507-0.746-1.014-0.746-0.76 0.249-1.52 0.249-2.28 0-0.761-0.249-1.014-0.746-1.521-1.243-0.507-0.746-1.013-0.746-1.774-0.746-2.534 0.249-3.801-2.735-5.828-3.48-1.014-0.249-2.281-0.249-3.295-0.249-1.267 0-2.534 0.249-3.801 0.249-1.013 0.248-2.281 0.497-3.294 0.994-0.254 0.249-0.76 0.249-1.014 0.746 0 0-0.253 0.746-0.507 0.994-0.253 0.249-0.507 0.498-0.76 0.498-0.507 0.497 0 1.243 0.507 1.243 2.281 0 4.055-1.492 6.335-1.989 0 0.497 0.254 1.243 1.014 1.243 0.507 0 1.267-0.249 1.774 0 0.76 0.248 1.267 0.746 1.774 1.243 0.507 0.248 1.013 0.746 1.52 0.746 0.76 0.248 1.267 0 1.774 0.248 1.267 1.243 1.774 2.238 2.281 2.735z" fill="#F78F2D"/>
<path d="m357.63 383.16c-1.014-0.746-2.027-1.243-3.041-1.74-0.76-0.498-1.014-1.492-2.027-1.741-0.761-0.249-1.521 0-2.535 0-0.76 0-1.267-0.249-2.027-0.497-0.507 0-1.014 0-1.52 0.248-1.267 0-2.281 0.746-2.788 1.99-0.253 0.497 0.254 0.994 0.76 0.994 0.507 0 1.014 0.249 1.267 0.249-1.267 0.249-2.534 0.497-3.801 0.497-0.76 0-0.76 0.995-0.253 1.244 1.267 0.994 2.787 0.497 4.561 0.497 1.014 0 1.774 0 2.534 0.497 0.761 0.497 1.267 0.746 2.028 0.746 0.506 0 0.76-0.497 0.76-0.995-0.254-1.243 1.267-0.497 1.52-0.497 0.254 0 0.761 0.249 1.014 0 1.014-0.248 1.521-1.243 2.788-0.746 0.76 0.746 1.267-0.248 0.76-0.746z" fill="#F78F2D"/>
<path d="m338.37 384.64-0.253-0.248c-1.267-0.498-2.788-1.741-4.308-1.492-0.761 0.248-2.534 0.248-3.041 0.994-0.254 0-0.507 0.249-0.507 0.746-0.253 1.243 1.52 1.492 2.281 1.492h1.267v0.249c0.253 0.497 0.507 0.746 1.013 0.746 1.267 0.497 3.041-0.995 4.055-1.492 0.253 0 0-0.746-0.507-0.995z" fill="#F78F2D"/>
<path d="m446.83 446.05c-1.521-0.994-3.294-1.243-4.815-1.243-1.774-0.248-3.041-2.237-4.561-3.232-1.521-0.994-3.041-1.243-4.815-1.243-1.014 0-2.281 0.249-3.295 0-1.267-0.248-2.027-0.745-3.041-1.243-1.52-0.497-2.787 0.498-4.054 0.995-0.254-0.995-0.507-2.238-1.014-2.984-0.76-0.994-1.774-0.497-2.534-1.243-0.76-0.745-1.52-1.243-2.788-1.491-1.013-0.249-2.027 0-3.041 0.497-1.013 0.497-2.027 1.243-2.787 1.989-0.253 0.248-1.014 1.243-1.521 0.994-0.506 0-0.253-0.248-0.253-0.497 0-0.248 0-0.497-0.253-0.746v-0.248c0.76 0 1.52-0.498 2.027-1.243 0.507-1.243 0.253-2.735-1.267-2.984-1.521-0.248-3.548 0.746-4.308 1.741-0.254 0.248-0.254 0.497-0.507 0.745-0.76 0.249-1.267 0.249-2.027 0.746 0-0.746 1.774-1.491 2.28-1.989 0.254-0.248 0.507-0.745 0.507-0.994 0.254-0.746 0.507-0.994 1.267-1.492 1.014-0.745 1.774-2.237 0.761-3.232 0.253-2.734-1.014-5.718-3.548-7.209-1.267-0.746-2.788-1.243-4.055-2.238-0.507-0.497-0.76-1.243-1.267-1.74s-1.014-0.248-1.52-0.248c-0.507 0-0.507 0-0.761-0.249-0.253-0.249-0.506-0.497-0.76-0.746-0.507-0.249-1.267-0.249-1.774-0.249-0.76 0-1.52 0.498-2.281 0.746-1.267 0.498-2.28-0.497-3.294-1.243-1.774-1.243-3.294-2.486-5.068-3.977-0.507-0.498-1.014-0.995-2.027-0.995h-1.521c0.253-0.497 0.253-0.994 0-1.74-0.507-1.243-1.774-1.492-3.041-1.74 0.254-0.249 0.507-0.746 0.254-0.995-1.014-1.989-3.295-1.491-5.069-0.746-1.267 0.746-2.534 1.243-4.054 1.243-1.521 0-2.788-0.745-4.308-1.491-0.507-0.249-1.014-0.249-1.267-0.249-0.761 0-1.268 0.497-2.028 0.249-1.013-0.249-1.774-1.492-2.534-1.989-1.014-0.497-2.281-0.497-3.294-0.249-1.267 0.249-2.534 0.498-3.802 0.498v-1.741c-0.253-0.497-0.76-0.746-1.267-0.248-0.253 0-0.253 0.248-0.253 0.248-1.52 2.486-4.815 1.989-7.349 2.735-0.76 0.249-1.52 0.994-2.027 1.74v0.995c-0.254 0.248-1.014 0.248-1.267 0.248-0.761 0.249-0.761 0.995-1.014 1.74-0.253 0.746-0.507 0.746-1.014 0.995-0.506 0.249-0.76 0.497-0.76 0.994-0.253 0.498-0.253 0.746-0.253 1.243-0.254 0.746-0.507 0.746-1.267 0.995-0.761 0.497-1.014 0.994-1.267 1.989 0 0.994 0.253 1.989 0.506 2.734 0.254 1.243 0.507 2.486 0.254 3.481 0 1.243-0.507 2.486-1.521 3.48-0.76 0.746-1.774 1.243-1.774 2.486 0 0.498 0.254 0.995 0 1.492-0.253 0.497-0.76 0.746-1.267 1.243-0.76 0.497-1.52 0.995-2.28 1.74-0.761 0.995-0.761 1.989-1.267 2.984-0.507 0.994-1.521 1.491-1.521 2.734 0.253 0.995 1.014 1.741 2.027 2.238 1.014 0.497 1.521 0.746 0.507 1.989-0.507 0.497-1.267 0.745-1.774 1.243-0.76 0.497-2.28 0.994-2.28 1.988 0 0.746 0.506 1.492 1.267 1.989h-0.254c-0.253 0.249-0.507 0.498-0.507 0.995-0.253 0.994 0.507 1.74 1.521 1.989 0.76 0.248 1.52 0.497 2.027 0.994s0.76 0.994 1.014 1.492c0.76 1.491 1.52 2.983 2.281 4.723 1.52 2.984 3.294 6.215 4.561 9.199 1.014 1.989 1.267 5.22 3.801 5.966 2.534 1.741 4.562 4.227 7.096 6.215 1.267 0.995 2.534 1.492 4.054 1.989 0.507 0.249 1.521 0.249 1.774 0.746 0.254 0.249 0.254 0.995 0.254 1.243 0 0.746-0.254 1.492 0 2.486 0 0.746 0.253 1.492 0.507 2.238 0.253 0.746 1.013 1.491 1.267 2.237 0 1.243-1.521 2.486-2.028 3.729-0.76 1.74 0 3.481 0.507 4.972l1.014 3.481c-1.521 0.497-2.281 2.237-2.281 3.729 0 1.243 0 2.237-0.507 3.48-0.253 0.995-0.507 1.989-0.76 2.984-0.253 0.994-0.253 1.989 0 2.983 0.253 1.243 0.507 2.486 0 3.729-0.253 0.746-0.76 1.492-0.76 2.238-0.254 0.994 0.507 1.988 0.76 2.983 0.253 1.243-0.253 2.735-0.507 3.978-0.253 1.243-0.507 2.486-1.013 3.729-0.254 0.994-0.507 2.237-0.761 3.232-0.253 1.243-0.76 1.74-1.774 2.237-1.52 0.497-1.52 1.74-0.76 2.983 0.507 0.995 1.014 1.989 0.76 3.232-0.253 1.243-0.76 1.989-1.267 2.984-0.507 0.745-0.76 1.74-0.507 2.734 0 0.497 0.507 0.995 0.507 1.74 0 0.498-0.253 0.746-0.253 1.492 0 0.497 0.253 1.243 1.014 1.492h1.013s0.254-0.249 0.507-0.249c0 0 0.253 0 0.253-0.248 0.254 0.248 0.507 0.745 0.254 1.243 0 0.248 0 0.497 0.253 0.745v0.249c-0.253 3.232-1.52 6.215-2.787 9.198-0.507 1.243-1.014 2.735-0.761 3.978 0 0.249 0.254 0.497 0.254 0.746-0.254 0.249-0.254-0.249-0.507-0.497-0.253-0.497-0.76-0.746-1.267-0.995-0.507-0.248-1.014 0-1.014 0.498-0.253 0.994-0.76 1.74-1.52 2.486-0.254 0.248-0.507 0.497-0.254 0.745 0.254 0.498 0.507 0.995 1.268 0.995h1.267c0.76 0 0.76 0.497 0.76 1.243 0.253 0.994 0.76 1.74 1.52 1.989v0.746c-0.76 0.248-1.267 0.745-2.027 0.994s-0.253 1.243 0.253 1.243c2.281 0.994-0.253 2.735-0.506 3.729 0 0.497 0 0.995 0.253 1.492s0.507 0.248 0.507 0.994c0 0.249-0.507 0.746-0.507 0.746-0.76 1.243-0.76 2.486 0.253 3.729 0.761 1.243 2.281 1.74 3.295 2.735-0.507 0.497-0.76 0.994-1.014 1.491-0.253 0.498 0.254 0.995 0.76 0.995 1.774 0 1.014 1.989 2.535 2.486 0.506 0.249 1.013 0 1.267 0 0 0.249-0.254 0.497-0.254 0.746-0.253 0.497 0.254 0.994 0.76 0.994 1.014 0 1.774 0.746 2.028 1.492 0.253 0.746 1.267 0.746 1.52 0 0.254-0.746 0-1.243-0.253-1.989-0.254-0.746-0.507-0.994 0-1.74 0.253-0.497 0.76-0.746 1.013-0.995 0.761-0.497 1.521-1.243 1.774-2.237 0.761 0.248 1.267 0.497 2.028 0.746 0.76 0.248 1.267-0.498 0.76-0.995-1.014-1.74-2.027-3.977-1.267-6.215 0.253-0.994 0.76-1.492 1.774-1.989 0.507-0.248 1.267-0.497 1.52-1.243 0.254-0.746 0-1.491 0-2.237 0.254-0.995 1.521-1.492 2.281-1.989 1.52-1.243 2.534-2.735 3.548-4.475 0.253-0.249 0-0.746-0.254-0.995-2.027-1.243-4.815-2.734-4.054-5.469 0.507-2.486 3.547-0.994 5.068-2.735 1.014-1.243 0.507-2.983 0.507-4.226 0-0.994 0-1.492 1.013-1.989 0.761-0.248 1.268-0.746 1.268-1.74 0-0.497-0.254-0.746-0.761-0.746-0.253 0 0.507-1.243 0.507-1.243 0-0.746-0.507-1.243-0.76-1.74-0.76-1.243-1.014-2.735-0.507-4.226 1.774 0.994 3.801 1.491 5.829 1.243 0.76-0.249 1.773-0.249 1.773-1.243 0-0.995-0.253-1.989-0.76-2.984 0.507 0 1.014-0.248 1.521-0.497 0.506-0.248 0.507-0.746 0.253-0.994 3.294 0.497 6.589-0.746 9.123-2.735 0.76-0.497 1.52-1.243 2.534-1.989 0.76-0.497 1.521-1.243 2.027-1.989 0.507-0.746 0.254-1.243 0-1.989-0.253-0.248-0.506-0.745-0.506-0.994-0.254-0.746 0.253-0.994 0.506-1.492 0.507-0.497 0.254-1.243-0.506-1.243-0.254 0-1.014-1.74-1.267-2.237-0.254-0.249-0.507-0.497-1.014-0.497-0.254-0.249-0.507-0.249-0.76-0.498 2.534 0.995 5.068 1.492 7.855 1.741 0.507 0 0.761-0.249 0.761-0.746 0.253 0.249 0.507 0.248 0.76 0.248 1.267-0.248 2.281-0.994 3.041-1.74 1.014-0.994 1.267-2.237 1.774-3.48 0.253-0.497 0.76-0.995 1.013-1.492 0.507-0.497 0.507-1.243 0.761-1.989 0.76-0.994 1.52-1.243 2.027-2.486v-0.248c1.267-1.243 2.534-2.735 3.801-3.978 1.014-1.243 1.521-2.486 1.521-3.978 0-0.248-0.254-0.746 0-0.994 0.253-0.497 0.507-0.497 1.013-0.746 0.507-0.249 0.761-0.746 1.014-1.243 0.507-1.492 0-2.735-0.253-4.226-0.507-2.238 1.52-2.238 3.041-3.232 0.506-0.249 0.76-0.746 1.013-1.243 0.254-0.498 0.254-1.243 0.76-1.492 0.254-0.249 0.761-0.249 1.014-0.249 1.774-0.497 3.548-0.994 5.322-1.74 2.027-0.746 4.308-0.994 6.589-0.994 0.506 0 1.013-0.746 0.76-0.995-0.76-0.994 0-0.248 0.76-0.746 0.253-0.248 0.507-0.248 0.76-0.745l0.254-0.249c0.506-1.243 1.267-2.486 1.267-3.729 0-0.746 0.253-0.995 1.013-1.243 0.507-0.249 0.761-0.249 1.267-0.746 0.761-0.746 0.761-1.492 0.507-2.237-0.253-0.746-0.507-1.243 0.254-1.741 0.507-0.248 0.76-0.497 1.013-0.994 1.267-2.238-0.506-4.972 0.254-7.458 0.253-0.995 1.267-1.741 0.76-2.735-0.253-0.746-1.014-1.243-1.014-1.989 0-0.994 0.761-1.74 1.774-1.989 0.507 0 0.761-0.248 0.761-0.745 1.013-0.498 1.773-1.492 2.027-2.487 0.507-0.994 0.76-1.988 1.52-2.486 0.761-0.497 1.521-0.994 2.028-1.491 1.013-1.243 2.027-2.735 2.28-4.475 0.254-1.989 0.254-3.978 0.254-6.215 0.253 0 0.76-2.238-0.507-2.984z" fill="#F78F2D"/>
</svg>
