<svg width="41" height="18" viewBox="0 0 41 18" fill="none" xmlns="http://www.w3.org/2000/svg">
<path d="M0.41584 6.78395C-0.138613 7.21435 -0.138613 8.61315 0.41584 9.04355C4.71285 12.702 9.07916 16.0376 13.792 17.9744C14.4851 18.1896 15.1781 17.006 14.7623 16.0376C13.792 13.8856 12.6138 12.0564 11.2277 10.4424C20.9306 10.8728 30.98 12.9172 40.5443 9.36635C41.2374 9.15115 41.0988 7.32212 40.4056 7.42972C30.4948 9.36635 20.6532 7.85995 10.7424 7.64492C11.782 5.81572 12.8216 3.98652 13.8612 2.26491C14.3463 1.51171 14.0691 -0.102474 13.2374 0.0051252C8.66332 0.866104 4.36632 3.23331 0.41584 6.78395ZM8.66332 7.96755C8.03956 8.61315 8.17818 10.4424 9.14847 10.4424C9.21778 10.4424 9.28708 10.4424 9.28708 10.4424C10.1188 11.7336 10.9504 12.9172 11.7821 14.316C8.59402 12.5944 5.61383 10.4424 2.63365 7.96773C5.33661 5.81572 8.10887 4.20172 11.0891 3.34091C10.396 4.52452 9.70292 5.81572 8.94055 6.9995C8.66332 7.21435 8.59402 7.64493 8.66332 7.96755Z" fill="white"/>
</svg>
