<svg width="41" height="18" viewBox="0 0 41 18" fill="none" xmlns="http://www.w3.org/2000/svg">
<path d="M40.5842 6.78395C41.1386 7.21435 41.1386 8.61315 40.5842 9.04355C36.2872 12.702 31.9208 16.0376 27.208 17.9744C26.5149 18.1896 25.8219 17.006 26.2377 16.0376C27.208 13.8856 28.3862 12.0564 29.7723 10.4424C20.0694 10.8728 10.02 12.9172 0.455649 9.36635C-0.237417 9.15115 -0.0988064 7.32212 0.594373 7.42972C10.5052 9.36635 20.3468 7.85995 30.2576 7.64492C29.218 5.81572 28.1784 3.98652 27.1388 2.26491C26.6536 1.51171 26.9309 -0.102475 27.7626 0.0051256C32.3367 0.866104 36.6337 3.23331 40.5842 6.78395ZM32.3367 7.96755C32.9604 8.61315 32.8218 10.4424 31.8515 10.4424C31.7822 10.4424 31.7129 10.4424 31.7129 10.4424C30.8812 11.7336 30.0496 12.9172 29.2179 14.316C32.406 12.5944 35.3862 10.4424 38.3663 7.96773C35.6634 5.81572 32.8911 4.20172 29.9109 3.34091C30.604 4.52452 31.2971 5.81572 32.0595 6.9995C32.3367 7.21435 32.406 7.64493 32.3367 7.96755Z" fill="white"/>
</svg>
