<svg width="218" height="200" viewBox="0 0 218 200" fill="none" xmlns="http://www.w3.org/2000/svg">
<path d="M61.3263 148.494C61.3263 148.494 79.9777 158.628 112.779 157.126C148.038 155.52 159.511 144.999 159.511 144.999L184.273 80.3047L33.4531 87.2652L61.3263 148.494Z" fill="white" stroke="#262262" stroke-miterlimit="10"/>
<path d="M110.116 109.102C152.646 107.046 186.437 91.1883 185.59 73.684C184.744 56.1797 149.58 43.6569 107.05 45.7136C64.5204 47.7702 30.7292 63.6275 31.5756 81.1318C32.4221 98.6361 67.5857 111.159 110.116 109.102Z" fill="white" stroke="#262262" stroke-miterlimit="10"/>
<path d="M109.635 102.59C149.359 100.672 181.009 87.6967 180.327 73.6095C179.645 59.5223 146.889 49.6573 107.164 51.5756C67.4395 53.4938 35.7894 66.4688 36.4716 80.556C37.1538 94.6432 69.91 104.508 109.635 102.59Z" fill="white" stroke="#262262" stroke-miterlimit="10"/>
<path d="M123.551 78.8789C140.784 80.6167 150.62 87.8417 157.023 93.8767" stroke="#262262" stroke-miterlimit="10"/>
<path d="M64.0684 99.0893C71.3322 91.1276 79.2676 84.6865 92.3576 81.2109" stroke="white" stroke-miterlimit="10"/>
<path d="M89.2265 102.547C89.2265 102.547 88.6685 70.1521 106.563 66.7993C121.961 63.9188 132.8 69.1415 132.8 69.1415C132.8 69.1415 138.655 72.296 140.357 82.9965" stroke="white" stroke-miterlimit="10"/>
<path d="M115.246 102.253C115.246 102.253 116.599 84.6865 122.009 75.9126C125.537 70.1987 128.932 67.7526 132.8 69.1504" stroke="#262262" stroke-miterlimit="10"/>
<path d="M117.801 102.037C117.801 102.037 118.775 88.0966 123.154 79.2094C126.114 73.1838 129.169 69.9349 132.66 71.7482C134.57 72.7399 136.471 75.7432 138.306 82.2221" stroke="#262262" stroke-miterlimit="10"/>
</svg>
