<svg width="220" height="220" viewBox="0 0 220 220" fill="none" xmlns="http://www.w3.org/2000/svg">
<g clip-path="url(#clip0)">
<path d="M102.289 95.2481C101.99 97.1913 101.308 99.055 100.282 100.73C99.2558 102.405 97.9071 103.858 96.3146 105.004L96.1887 105.091L54.0029 136.577L51.0273 138.805C48.3173 140.391 45.2155 141.177 42.0798 141.07C38.944 140.964 35.9021 139.971 33.3049 138.204C30.7077 136.438 28.661 133.971 27.401 131.087C26.1409 128.204 25.7189 125.022 26.1835 121.908C26.7913 118.127 28.6656 114.666 31.497 112.097V112.097L74.8321 81.8826L78.7681 79.2126C81.9697 77.61 85.5624 76.963 89.1197 77.3484C96.6216 78.4622 103.557 86.9144 102.289 95.2481Z" fill="#FFF000"/>
<path d="M53.72 136.04C52.9524 136.682 52.1072 137.245 51.2 137.72L53.72 136.04Z" stroke="#262262" stroke-miterlimit="10"/>
<path d="M100.241 85.498C104.213 91.3896 101.591 98.2671 101.591 98.2671C100.511 101.517 96.3798 104.955 96.3798 104.955L74.0564 121.431L75.0018 112.811C75.0018 112.811 98.4295 96.0193 99.0174 95.1912C99.6052 94.363 105.214 89.3942 97.1425 81.6175C88.9202 73.7305 79.1725 78.6993 77.814 79.7483C76.7177 80.6001 32.4045 110.555 30.9428 112.03C29.481 113.505 22.7601 119.042 28.2496 127.086C33.1592 134.279 37.9814 135.62 44.2892 134.492C49.6674 133.522 69.8618 116.139 69.8618 116.139L68.9721 125.17L50.6764 138.704C48.0274 140.317 44.9672 141.141 41.8602 141.076C38.7532 141.012 35.7302 140.063 33.1513 138.341C33.1513 138.341 19.646 130.344 27.7492 115.642" stroke="#262262" stroke-linejoin="round"/>
<path d="M58.76 92.36L75.56 112.52" stroke="#262262" stroke-miterlimit="10"/>
<path d="M55.4 95.72L69.68 115.88" stroke="#262262" stroke-linejoin="round"/>
<path d="M69.68 124.28L74.72 120.92" stroke="#262262" stroke-miterlimit="10"/>
<path d="M194 104.865C193.998 109.345 192.216 113.641 189.045 116.809C185.875 119.977 181.575 121.758 177.092 121.76C171.921 121.76 168.106 119.644 164.196 115.793L129.785 83.3815C126.366 80.0691 123.44 75.2906 123.44 69.7751C123.44 65.2942 125.221 60.9969 128.392 57.8285C131.563 54.66 135.864 52.88 140.348 52.88C145.741 52.88 149.596 55.7804 153.307 59.3781L186.743 91.0128C190.296 94.8325 194 99.1276 194 104.865Z" fill="#F78F2D"/>
<path d="M170.368 75.5601L186.806 91.1702C190.32 94.9841 194 99.255 194 104.96C193.998 109.415 192.227 113.687 189.077 116.837C185.927 119.987 181.655 121.758 177.2 121.76C172.062 121.76 168.272 119.656 164.387 115.826L147.8 100.232" fill="#66DCCC"/>
<path d="M194 104.865C193.998 109.345 192.216 113.641 189.045 116.809C185.875 119.977 181.575 121.758 177.092 121.76C171.921 121.76 168.106 119.644 164.196 115.793L129.785 83.3815C126.366 80.0691 123.44 75.2906 123.44 69.7751C123.44 65.2942 125.221 60.9969 128.392 57.8285C131.563 54.66 135.864 52.88 140.348 52.88C145.741 52.88 149.596 55.7804 153.307 59.3781L186.743 91.0128C190.296 94.8325 194 99.1276 194 104.865Z" stroke="#262262" stroke-miterlimit="10"/>
<path d="M147.8 100.76L170.48 75.5601" stroke="#262262" stroke-miterlimit="10"/>
<path d="M113.204 165.171C96.3875 157.345 97.2529 142.293 99.357 133.772C99.8336 131.829 100.46 129.924 101.231 128.076V128.013C101.342 127.784 101.453 127.564 101.572 127.335C103.993 122.669 107.872 118.91 112.627 116.623C117.381 114.336 122.755 113.643 127.94 114.65C133.124 115.657 137.84 118.308 141.378 122.206C144.916 126.104 147.085 131.038 147.56 136.265V136.265C150.228 155.712 130.132 173.06 113.204 165.171Z" fill="white" stroke="#262262" stroke-miterlimit="10"/>
<path d="M123.44 162.08C136.894 162.08 147.8 151.362 147.8 138.14C147.8 124.918 136.894 114.2 123.44 114.2C109.986 114.2 99.08 124.918 99.08 138.14C99.08 151.362 109.986 162.08 123.44 162.08Z" stroke="#262262" stroke-miterlimit="10"/>
<path d="M133.52 115.88L104.96 155.24V160.4" stroke="#262262" stroke-miterlimit="10"/>
<path d="M139.4 120.92L111.68 159.15V163.76" stroke="#262262" stroke-miterlimit="10"/>
</g>
<defs>
<clipPath id="clip0">
<rect width="168" height="168" fill="white" transform="translate(26 26)"/>
</clipPath>
</defs>
</svg>
