<svg width="218" height="200" viewBox="0 0 218 200" fill="none" xmlns="http://www.w3.org/2000/svg">
<path d="M79.8203 164.972C81.7585 171.624 93.1328 171.991 93.1328 171.991C95.2343 169.21 93.9999 160.673 91.623 158.85" stroke="#3B86FF" stroke-miterlimit="10"/>
<path d="M195.073 160.388C194.706 160.103 183.75 153.889 165.592 172.683C147.434 191.477 131.877 190.183 125.481 189.623C119.197 189.073 102.701 184.479 93.1328 171.991C93.1328 171.991 95.8463 176.259 107.139 164.117C118.432 151.974 125.154 157.546 135.172 165.431C145.189 173.315 154.646 164.188 158.492 147.126C161.766 132.6 173.181 131.123 173.181 131.123C187.718 128.698 210.303 142.623 210.303 142.623" stroke="#3B86FF" stroke-miterlimit="10"/>
<path d="M9.25956 46.7592C10.7591 48.1649 14.0133 47.0648 16.5228 44.3043C18.1958 42.4605 19.1241 40.3418 19.1037 38.7119C19.1037 38.7119 30.0801 30.9805 46.402 23.1777C62.7238 15.3851 65.9882 27.9551 66.9879 31.5305C67.9774 35.1059 69.0995 48.0223 69.0995 48.0223L72.4455 47.2277L76.526 46.9629C76.526 46.9629 74.7713 34.179 74.9448 30.3591C75.1182 26.529 75.4854 13.1848 92.756 13.8673C110.027 14.56 122.176 17.3816 122.176 17.3816C122.513 18.9401 123.859 20.5802 125.859 21.6497C128.858 23.249 132.204 22.9434 133.326 20.9774C134.448 19.0114 132.928 16.1287 129.919 14.5294C128.47 13.7553 124.665 13.1237 124.655 13.1237C116.474 11.7486 95.1124 8.56022 89.3284 9.27326C79.7087 10.4447 72.3639 16.4852 71.4356 22.6276C71.0377 25.1742 70.9561 28.2505 71.0275 31.3472C70.4053 28.1792 69.63 25.0927 68.6507 22.7091C66.4166 17.239 58.1027 14.5091 48.6768 17.3816C42.9948 19.1031 23.3371 30.9906 15.8291 35.6866C15.8087 35.6866 12.3199 37.8665 11.106 39.2111C8.58628 41.9818 7.75999 45.3534 9.25956 46.7592Z" fill="white" stroke="#262262" stroke-miterlimit="10"/>
<path d="M91.8181 146.464L80.4133 47.4417C80.4133 47.4417 73.099 45.4553 65.3359 49.6012L76.1594 144.447L91.8181 146.464Z" fill="#F78F2D" stroke="#262262" stroke-miterlimit="10"/>
<path d="M80.7391 50.2736L68.0488 48.3789" stroke="white" stroke-miterlimit="10"/>
<path d="M66.0488 55.8962L81.6056 57.8317" stroke="white" stroke-miterlimit="10"/>
<path d="M82.4218 64.9215L66.916 63.5056" stroke="#262262" stroke-miterlimit="10"/>
<path d="M83.2885 72.4287L67.7012 70.3711" stroke="#262262" stroke-miterlimit="10"/>
<path d="M83.993 78.5612L68.4668 77.074" stroke="#262262" stroke-miterlimit="10"/>
<path d="M84.7382 84.9783L69.1406 82.9614" stroke="#262262" stroke-miterlimit="10"/>
<path d="M85.5637 92.1498L70.0273 90.8052" stroke="#262262" stroke-miterlimit="10"/>
<path d="M86.3291 98.8524L70.752 97.1411" stroke="#262262" stroke-miterlimit="10"/>
<path d="M87.1156 105.687L71.5078 103.732" stroke="#262262" stroke-miterlimit="10"/>
<path d="M87.9518 112.889L72.293 110.597" stroke="#262262" stroke-miterlimit="10"/>
<path d="M88.7169 119.521L73.0684 117.402" stroke="#262262" stroke-miterlimit="10"/>
<path d="M89.5728 126.967L73.9141 124.848" stroke="#262262" stroke-miterlimit="10"/>
<path d="M90.3782 133.955L74.6582 131.408" stroke="#262262" stroke-miterlimit="10"/>
<path d="M91.1755 140.892L75.4453 138.243" stroke="#262262" stroke-miterlimit="10"/>
<path d="M81.5253 153.462C79.5667 155.061 78.3018 157.77 78.4242 160.663C78.5976 164.932 81.6783 167.987 85.3304 167.488C88.9722 166.989 91.7877 163.118 91.6245 158.85C91.5021 155.591 89.6658 153.044 87.1972 152.249L87.799 145.954L79.4341 144.875L81.5253 153.462Z" fill="white" stroke="#262262" stroke-miterlimit="10"/>
</svg>
