<svg width="218" height="200" viewBox="0 0 218 200" fill="none" xmlns="http://www.w3.org/2000/svg">
<path d="M186.441 119.073C177.121 81.5593 146.062 54 109.19 54C71.5464 54 39.9636 82.7202 31.377 121.442C31.377 121.442 63.522 145.985 108.666 140.798C153.81 135.612 161.482 139.447 172.089 132.234C182.706 125.02 186.441 119.073 186.441 119.073Z" fill="#F78F2D" stroke="#262262" stroke-miterlimit="10"/>
<path d="M189.3 117.522C189.3 133.366 153.162 146.214 108.58 146.214C64.0076 146.214 28.041 135.251 28.041 119.406C28.041 114.524 30.5856 109.347 36.599 105.084C35.1124 108.824 33.9878 111.641 33.9878 114.648C33.9878 130.493 67.6672 137.877 109.4 137.877C151.132 137.877 184.201 129.589 184.201 113.744C184.201 111.098 183.296 108.871 182.248 105.769C186.774 109.347 189.3 113.325 189.3 117.522Z" fill="#FFF000" stroke="#262262" stroke-miterlimit="10" stroke-linecap="round" stroke-linejoin="round"/>
<path d="M141.286 78.2669C141.286 78.2669 145.556 73.3946 155.725 83.1393C165.893 92.884 170.773 101.011 169.553 103.856C168.333 106.702 165.922 106.521 160.918 105.084C155.925 103.647 146.976 94.1116 145.146 91.5707C143.326 89.0299 138.446 81.7213 141.286 78.2669Z" fill="white" stroke="#262262" stroke-miterlimit="10" stroke-linecap="round" stroke-linejoin="round"/>
<path d="M120.75 65.8762C122.828 64.1442 128.832 66.5899 130.719 67.7034C134.655 70.0348 135.808 73.1847 132.749 73.1847C129.689 73.1847 117.805 68.3314 120.75 65.8762Z" fill="white" stroke="#262262" stroke-miterlimit="10" stroke-linecap="round" stroke-linejoin="round"/>
</svg>
