<svg width="50" height="50" viewBox="0 0 50 50" fill="none" xmlns="http://www.w3.org/2000/svg">
<path d="M33.0016 24.1625L26.5625 30.6031V14.0625C26.5625 13.2 25.8625 12.5 25 12.5C24.1375 12.5 23.4375 13.2 23.4375 14.0625V30.6031L16.9984 24.1641C16.3875 23.5531 15.3984 23.5531 14.7891 24.1641C14.1781 24.775 14.1781 25.7641 14.7891 26.3734L23.6281 35.2124C24.0031 35.5874 24.5156 35.703 25.0016 35.6171C25.486 35.703 26.0001 35.5859 26.3751 35.2124L35.2141 26.3734C35.8251 25.7624 35.8251 24.7734 35.2141 24.1641C34.6016 23.5531 33.6125 23.5531 33.0016 24.1625ZM25 0C11.1938 0 0 11.1922 0 25C0 38.8078 11.1938 50 25 50C38.8062 50 50 38.8062 50 25C50 11.1938 38.8078 0 25 0ZM25 46.875C12.9187 46.875 3.125 37.0813 3.125 25C3.125 12.9187 12.9187 3.125 25 3.125C37.0813 3.125 46.875 12.9187 46.875 25C46.875 37.0813 37.0813 46.875 25 46.875Z" fill="#262262"/>
</svg>
