<svg width="218" height="200" viewBox="0 0 218 200" fill="none" xmlns="http://www.w3.org/2000/svg">
<path d="M15.4003 153.048L35.5235 93.952C35.5235 93.952 37.1225 89.442 41.5642 88.0321C45.2391 86.8649 196.902 43.2406 196.902 43.2406C196.902 43.2406 201.147 42.1388 202.503 44.6506C203.859 47.1623 201.848 50.6358 200.567 53.9973C199.894 55.7714 183.137 103.822 183.137 103.822C183.137 103.822 182.099 109.069 175.002 111.207C169.204 112.944 41.7886 150.275 41.7886 150.275C41.7886 150.275 19.814 156.718 18.402 157.194C16.99 157.67 13.9603 157.269 15.4003 153.048Z" fill="#FF4D4E"/>
<path opacity="0.36" d="M30.1465 153.693L54.0194 84.3999" stroke="#F2F2F1" stroke-miterlimit="10"/>
<path opacity="0.36" d="M49.082 148.127L72.8894 79.0586" stroke="#F2F2F1" stroke-miterlimit="10"/>
<path opacity="0.36" d="M67.9805 142.618L91.7973 73.5029" stroke="#F2F2F1" stroke-miterlimit="10"/>
<path opacity="0.36" d="M87.0938 136.988L110.882 67.9565" stroke="white" stroke-miterlimit="10"/>
<path opacity="0.36" d="M104.561 131.871L128.359 63.0171" stroke="white" stroke-miterlimit="10"/>
<path opacity="0.36" d="M123.273 126.315L146.95 57.6108" stroke="#F2F2F1" stroke-miterlimit="10"/>
<path opacity="0.36" d="M140.889 121.311L164.462 52.5688" stroke="#F2F2F1" stroke-miterlimit="10"/>
<path opacity="0.36" d="M161.705 115.11L185.148 46.5366" stroke="#F2F2F1" stroke-miterlimit="10"/>
<path opacity="0.36" d="M33.5605 99.6944L201.325 52.1392" stroke="#F2F2F1" stroke-miterlimit="10"/>
<path opacity="0.36" d="M28.5293 114.485L195.789 67.0698" stroke="#F2F2F1" stroke-miterlimit="10"/>
<path opacity="0.36" d="M23.6113 129.247L190.806 81.8413" stroke="#F2F2F1" stroke-miterlimit="10"/>
<path opacity="0.36" d="M18.8594 143.141L186.054 95.7446" stroke="#F2F2F1" stroke-miterlimit="10"/>
<path d="M15.4003 153.048L35.5235 93.952C35.5235 93.952 37.1225 89.442 41.5642 88.0321C45.2391 86.8649 196.902 43.2406 196.902 43.2406C196.902 43.2406 201.147 42.1388 202.503 44.6506C203.859 47.1623 201.848 50.6358 200.567 53.9973C199.894 55.7714 183.137 103.822 183.137 103.822C183.137 103.822 182.099 109.069 175.002 111.207C169.204 112.944 41.7886 150.275 41.7886 150.275C41.7886 150.275 19.814 156.718 18.402 157.194C16.99 157.67 13.9603 157.269 15.4003 153.048Z" stroke="#262262" stroke-miterlimit="10"/>
<path d="M90.7227 98.6861L92.7144 104.578C92.7144 104.578 93.1258 106.38 94.6407 107.006C96.1555 107.641 102.664 109.153 112.912 105.867C119.972 103.607 125.143 98.9476 125.873 96.0156C126.247 94.503 124.255 87.9668 124.255 87.9668" fill="white"/>
<path d="M90.7227 98.6861L92.7144 104.578C92.7144 104.578 93.1258 106.38 94.6407 107.006C96.1555 107.641 102.664 109.153 112.912 105.867C119.972 103.607 125.143 98.9476 125.873 96.0156C126.247 94.503 124.255 87.9668 124.255 87.9668" stroke="#262262" stroke-miterlimit="10"/>
<path d="M110.141 101.587C119.403 98.6273 125.724 92.5252 124.26 87.9575C122.796 83.3899 114.102 82.0865 104.84 85.0462C95.5783 88.0059 89.257 94.1081 90.721 98.6757C92.1849 103.243 100.88 104.547 110.141 101.587Z" fill="white" stroke="#262262" stroke-miterlimit="10"/>
<path d="M99.8945 87.0518L113.435 100.367" stroke="#262262" stroke-miterlimit="10"/>
<path d="M104.057 85.3057L117.363 98.2193" stroke="#262262" stroke-miterlimit="10"/>
</svg>
