<?xml version="1.0" encoding="UTF-8"?>
<svg fill="none" viewBox="0 0 600 600" xmlns="http://www.w3.org/2000/svg">
<path d="m266.29 512.97c1.429-0.712 2.143-2.137 3.572-2.849 2.143-2.138 5-2.138 7.144-1.425 2.143 0.712 3.572-2.137 1.428-3.562-2.143-1.425-3.572-2.85-5.715-4.275-0.714 0-2.857-1.425-2.857-2.137 0 0 0.714 0 1.429-0.713 2.857-1.424 3.571-4.274 4.286-7.124 0.714-2.137 1.429-3.562 3.572-4.987 1.429-0.712 2.143-2.137 2.857-3.562 0.715-1.425 0.715-2.85 0-4.275-0.714-1.424-2.143-3.562-0.714-4.987 2.143-1.424 5.001-0.712 6.429-3.562 0.715-1.425 0-2.85 0-3.562s2.144-1.425 2.858-1.425c3.572-2.85 4.286-7.836 6.429-11.399 0.715 2.138 2.858 3.562 5.001 4.275 0 0 0.715 0.712 1.429 0.712 4.286 0 9.287 3.563 12.145-1.424 0 0.712 0.714 0.712 0.714 0.712 1.429 0.712 3.572 0.712 5.001 0.712 0.714-0.712 2.143-0.712 2.857-1.424 1.429-0.713 1.429-0.713 2.143-0.713 0.715 0 1.429 0.713 2.143 0.713 0.715 0 1.429 0 2.144-0.713 2.857-1.425 5.715-2.85 8.572-4.275 2.858-0.712 5.001-1.424 7.859-1.424 4.286-4.987 7.858-9.974 11.43-14.249 7.858-10.686 6.429-22.798 12.144-34.909v-0.712c5.715-4.987 12.859-14.249 20.003-17.811 5.001-5.7 12.859-17.098 20.717-19.948-0.714-17.811-16.431-28.497-1.428-45.596 10.001-11.398 28.575-9.261 42.148-11.398-0.714-1.425-0.714-3.563-1.428-4.987-0.715-1.425 0.714-3.563 2.143-4.275 14.288-2.85 15.002-21.373 27.861-28.497 17.145-9.262 36.434-11.399 41.434-33.484 2.144-10.687 7.144-17.811 17.86-23.51 15.002-7.125 33.576-3.563 35.719-24.223v-1.425c0-2.85 3.572-3.562 5.001-2.85 0-0.712 0.715-0.712 0.715-1.424 1.428-2.85 1.428-6.412 4.286-8.55 2.143-2.137 5.715-3.562 7.858-6.411 2.143-2.85 1.429-5.7 1.429-9.262 0-2.137 0.714-2.85 2.143-4.275 1.429-0.712 2.858-1.424 2.858-3.562 0.714-3.562-2.858-5.699-4.287-8.549-1.429-2.137-0.714-4.987-0.714-7.837l-0.715-9.261c-0.714-10.687-2.143-22.085 1.429-32.06 0.715-1.4248-0.714-2.1373-2.143-2.8497-1.429 0-2.857 0-4.286-0.7124h-0.715c-1.428-2.1373-2.857-4.2746-5.715-5.6995 2.858-3.5621 5.715-7.8367 7.859-12.111 2.143-4.2746 5.715-9.2616 5.715-14.249 0-3.5622-2.858-5.6994-6.43-7.1243-1.429-0.7124-3.572-0.7124-5.001-0.7124-2.143 0-5 0.7124-7.143 0-2.858-0.7125-4.287-6.4119-7.859-4.2746-1.428 0.7124-1.428 2.1373-2.143 4.2746 0 2.8497-0.714 5.6994-0.714 8.5491-2.143 10.686-7.144 19.948-13.574 28.497 1.429 8.5491 3.572 13.536 3.572 18.523 0 7.124-1.428 13.536-3.572 19.948 0 0.712 0 1.425 0.715 2.137 4.286 4.987 9.287 9.262 15.716 12.824-1.428 3.562-3.572 6.412-5 9.974h-0.715c-1.429-0.713-2.143-1.425-3.572-2.137-2.143-1.425-4.286-3.563-6.429-5.7-2.858-2.85-5.715-7.837-10.716-9.261-2.858-0.713-5.001 0.712-5.715-2.138-0.714-1.425-0.714-3.562-1.429-4.987-2.143-3.562-5.001-4.274-9.287-4.274-5.715 0-10.716-1.425-15.002-4.987-2.858-2.138-5.715-4.987-9.287-3.562-3.572 1.424-3.572 4.987-1.429 7.836 3.572 4.275 7.144 7.837 11.43 11.399-3.572 2.85-5.715 6.412-5.715 11.399 0 1.425 0 4.275-1.428 5.699-2.144 2.138-2.858-0.712-2.858-2.137-0.714-2.137-1.429-3.562-2.858-4.987-1.428-0.712-2.857 0-2.857 1.425-1.429 3.562-7.144 1.425-10.002 0.712-1.428 0-2.857 0-4.286 0.713-1.429 0.712-2.143 2.137-2.857 2.85-1.429 0.712-2.858 0-4.287-0.713-1.429 0-2.143 0-3.572 0.713-1.428 0.712-5 4.987-7.858 4.987 2.858-4.275 3.572-8.55 3.572-13.537 0-1.424-1.429-2.137-2.858-1.424-7.858 3.562-14.287 9.261-18.574 16.385-3.572 0.713-7.144 2.138-10.001 4.275-1.429 1.425-3.572 2.85-5.715 3.562-2.143 1.425-5.001 1.425-7.144 2.137-5.001 1.425-5.715 4.987-6.43 9.262-0.714 2.137-1.428 3.562-3.571 2.137-0.715-0.712-2.144-2.137-2.858-2.849-0.714-0.713-2.858-2.138-2.143-2.85 0-1.425 1.429-1.425 2.143-2.137 2.858-2.85 2.858-7.837 1.429-11.399-0.715-1.425-2.143-2.85-3.572-2.85h-3.572c-2.143 0-3.572-1.425-5.001-2.85-2.143-2.137-5.715-4.987-8.572-1.425-1.429 1.425-0.715 3.563-0.715 4.987 0.715 3.563 1.429 7.125 1.429 10.687v10.686c0 2.85 0.714 3.562 2.857 4.987 2.858 1.425 0.715 5.7 0 8.549-0.714 2.138-2.143 4.275-2.857 5.7-0.714-0.713-1.429-0.713-2.143-0.713h-3.572c-0.715-3.562-3.572-6.411-7.858-4.987-2.858 0.713-3.572 3.563-5.716 5.7-2.143 2.85-6.429 4.274-10.001 5.699-0.714 0-1.429 0.713-1.429 2.138 0 4.274 1.429 7.836 4.287 11.398-2.144 2.138-5.001 4.987-5.001 7.837h-4.286c-2.144 0-4.287 0-5.716-1.425-2.143-1.425-2.857-3.562-5-4.987-2.858-2.137-7.144-3.562-9.287 0s1.429 4.987 2.857 7.125c2.143 2.849 0 7.124 2.858 9.974 0.714 0.712 5.715 2.849 1.429 3.562-2.144 0-4.287-2.138-5.716-3.562-1.428-1.425-2.857-2.85-4.286-3.563-1.429-0.712-4.286 0.713-5.001 0-2.143-1.424 0.715-4.987 0.715-6.411 0-1.425-0.715-2.85-1.429-4.275v-0.712c0-2.85-0.714-4.987-2.143-7.125 1.429-1.425 2.143-3.562 1.429-5.699 0-1.425-1.429-2.85-2.143-3.562-0.715-0.713-1.429-0.713-2.144-0.713-2.143-1.425-1.428-2.137-1.428-4.274-0.715-7.837-9.287-7.125-13.574-11.399 2.143-0.713 7.144 2.137 8.573 2.85 3.572 1.424 6.429 3.562 10.001 4.987 6.43 2.849 12.859 4.987 20.003 5.699 10.716 0.712 22.861-3.562 28.576-13.536 0.714-0.713 0-1.425 0-2.137-0.715-0.713-0.715-0.713-1.429-1.425 3.572-2.85 2.143-8.549-1.429-9.974v-3.562c-1.429-2.85-4.286-3.563-7.144-4.987-6.429-2.138-10.001-7.837-13.573-12.824s-7.144-9.262-12.859-10.687c-7.144-2.137-14.288 0.713-21.432-0.712 0.715-2.85 0.715-5.699-0.714-7.837-0.715-1.425-2.143-1.425-2.858-0.712-5.715-2.85-6.429-7.124-6.429-7.124 0-0.713-0.715-0.713-0.715-1.425-0.714-0.713-2.143-0.713-3.571-0.713-2.144 0-2.858 1.425-5.001 2.138-2.858 1.424-5.001 1.424-7.858 0 0 0 0-0.713-0.715-0.713-2.143-1.425-4.286-3.562-6.429-4.987 2.857-0.712 6.429-1.425 8.572-2.137 2.143-0.713 3.572-2.85 2.143-4.987-1.428-2.85-5-2.85-7.858-4.275-3.572-2.137-4.286-6.4116-7.144-8.5489-5.715-3.5621-12.859 0-17.859 2.8497-2.143 1.4249-5.001 3.5622-4.287 6.4122 0 2.137 0.715 3.562-1.428 4.274-0.715 0.713-1.429 0.713-2.144 0.713 0.715-2.138 0.715-4.987-0.714-7.125-0.714-1.424-2.143-2.137-3.572-0.712-4.286 4.987-9.287 7.837-15.716 8.549-4.287 1.425-8.573 2.137-11.431 6.412-0.714 0.712 0 2.137 0.715 2.85-1.429 0-2.858 0.712-4.287 0.712-2.857 0.713-5.715 0.713-7.143 2.85-1.429 2.137-1.429 4.274-2.858 6.412-1.429 2.137-4.286 2.849-5.715 4.274s-3.572 2.138-4.286 4.275c-2.144 2.137-2.144 5.699-3.572 7.837-2.858 4.987-8.573 7.836-12.145 12.111-7.144 8.549-11.43 19.235-15.002 29.209-2.143 5.7-4.286 10.687-7.144 15.674-3.572 5.699-7.144 10.686-11.43 15.673s-8.573 9.974-12.145 15.674c-3.572 4.987-7.858 16.386-15.716 13.536-0.715 0-2.143 0-2.143 0.712-0.715 1.425-1.429 3.562-0.715 4.987-2.857 1.425-5.715 2.85-6.429 6.412v2.85c0 0.712 0.714 2.137 0.714 2.85 0 0.712-0.714 1.424-0.714 2.849-1.429 2.85-2.143 4.987-2.858 7.837-1.429 4.987-0.714 10.686 0.715 16.386 1.428 4.274 7.144 11.399 3.572 15.673-1.429 1.425 0 3.562 1.428 3.562 0.715 0 0.715 1.425 0 2.138-2.143 0.712-2.143 3.562 0 3.562 6.43 2.137 14.288 4.274 20.718 0 2.857-2.137 5-4.275 7.143-7.124 2.144-2.138 3.572-4.275 5.716-7.125 0.714 2.138 1.428 4.275 3.571 6.412 1.429 1.425 3.572 2.85 5.001 4.987 1.429 2.85 2.143 6.412 2.858 9.262 2.143 5.699 3.572 11.399 5.715 17.098 1.429 3.562 2.143 9.262 5.001 12.111 2.857 2.85 6.429 2.138 9.287 0 1.428-1.425 2.857-2.849 3.572-4.987 2.143-2.849 3.571-3.562 6.429-4.987 8.573-4.274 5.001-14.248 2.858-21.373-0.715-3.562-1.429-7.124 1.428-9.261 1.429-1.425 4.287-2.85 5.715-4.275 2.144-2.137 4.287-5.699 3.572-8.549 2.858-1.425 4.287-5.699 2.858-9.261-0.714-2.138-2.858-4.275-4.286-6.412-3.572-3.562-5.001-7.125-5.001-11.399 0.714-7.837 5.715-14.961 10.716-20.661 5.715-6.411 11.43-12.111 16.431-18.523 2.143-2.137 3.572-4.274 4.286-7.124 1.429-4.275 0-7.837 0-12.111 0-2.138 0.714-4.275 2.143-4.987 1.429-0.713 2.858-0.713 4.286-1.425 0.715-0.713 2.144-1.425 2.144-2.137 0-0.713 0-0.713 0.714-1.425 0.714-1.425 0.714-1.425 2.143-2.138 2.143 0 4.286 0.713 6.43 0.713 2.143 0 4.286 0 6.429 0.712 5.715 2.138-0.714 8.549-2.143 11.399s-2.143 6.412-3.572 9.262c-2.143 3.562-5.001 7.124-7.144 9.974-2.857 3.562-5.715 7.124-8.573 9.974-2.857 2.849-7.143 4.987-8.572 8.549-1.429 2.85-0.715 4.987 1.429 7.124 3.572 3.562 2.143 7.837 0.714 12.111 0 0.713 0 1.425 0.714 2.138 0.715 0.712 1.429 2.137 2.858 2.849-2.143 4.987 0.714 9.974 4.286 13.537 2.143 2.137 4.287 4.987 7.858 4.987 2.858 0.712 6.43-1.425 9.288-2.138 4.286-2.137 7.858-3.562 12.144-2.137 2.858 0.712 5.715 2.137 9.287 0.712 2.858-1.424 4.286-4.274 7.858-4.987 2.858 0 5.001 0.713 6.43 3.563-4.286 1.424-8.573 4.274-8.573 9.261-11.43 0-25.003-4.274-33.576 5.7-0.714 1.424-0.714 2.849 0.714 3.562 0.715 0 0.715 2.137 0 2.137-1.428 0-2.143 2.137-0.714 3.562 2.143 1.425 4.286 2.85 6.43 3.562-0.715 3.562-1.429 7.837-2.858 10.687-2.143 4.274-3.572-1.425-5.001-3.562-3.572-4.987-10.716 0-13.573 3.562-0.714 0.712 0 2.849 1.429 2.849 0.714 0.713 0.714 0.713 0.714 1.425v0.713l-0.714 0.712c0 0.713-2.143 1.425-2.858 2.137-0.714 0.713-1.429 1.425-1.429 2.138v2.849c0.715 1.425 1.429 0.713 1.429 2.138 0 2.137-1.429 2.849 0 5.699 1.429 2.137 1.429 3.562 1.429 5.7 0 1.424-0.714 3.562-2.143 4.274-1.429 0.713-2.858 0-3.572 0-1.429 0-2.858 0.713-3.572 1.425-2.143 1.425-5.001 6.412-7.858 4.987-2.144-0.712-2.144-3.562-5.001-3.562-2.858 0-3.572 2.137-5.715 3.562-1.429 0-2.858 0-4.287 0.712-2.857 1.425-5 2.138-8.572 2.138-2.143 0-4.286 0-5.715 2.137-0.715 0.712-0.715 0.712-1.429 0.712s-1.429-0.712-2.143-0.712c-1.429-0.712-2.858-1.425-3.572-3.562-0.715-1.425-1.429-3.562-3.572-3.562-2.858 0-3.572 2.849-5.715 4.274s-5.001 0.713-7.144 2.138c-0.714 0.712-2.143 2.137-2.858 2.137-0.714 0-0.714-4.275-0.714-4.987 0-1.425-1.429-2.137-2.858-2.137h-1.428c-0.715-0.713-1.429-0.713-2.143-1.425-2.144-0.713-1.429-2.138-0.715-3.562 0.715-1.425 1.429-2.85 1.429-4.275-0.714-2.137-3.572-2.85-0.714-4.987 1.428-1.425 2.857-2.137 4.286-3.562s1.429-3.562 0.714-5.7c-0.714-5.699-1.429-11.398-2.143-16.385 0-1.425-2.143-1.425-2.857-1.425-5.716 2.849-9.287 7.124-12.145 12.823v0.713c-5.001 1.425-7.144 4.274-7.144 7.124 0 1.425 0.714 2.85 1.429 4.275 1.429 2.849-0.715 4.987-2.143 7.124-0.715 0.712-0.715 2.85 0.714 3.562 2.858 0.713 2.143 4.987 2.858 7.837 0.714 1.425 2.857 4.274 2.143 5.699-2.143 3.562-12.145 0-15.717 0-5 0.713-7.144 4.275-10.001 7.125-2.143 1.424-3.572 1.424-5.715 2.849-1.429 0.713-2.8578 1.425-2.8578 3.562 0 1.425 0 2.138 0.7144 2.85 0.7144 2.137 0.7144 3.562 0 4.987-1.4288 2.85-3.5719 4.275-6.4295 5.7-2.8575 1.424-5.7151 2.849-8.5726 4.274-2.1432 1.425-5.0007 2.137-7.1439 3.562-1.4288 1.425-1.4288 2.138-1.4288 4.275 0 1.425 1.4288 2.137 0.7144 3.562-0.7144 2.137-2.1431 2.85-3.5719 2.85-2.1432 0.712-5.0007 1.425-5.7151 3.562-2.8576-0.713-5.0007-2.85-7.8583-2.85-2.1431 0-4.2863 0.713-5.0007 2.85-0.7144 0.712 0 1.425 0 2.137 1.4288 2.137 1.4288 3.562 2.1432 5.7v0.712c-3.572 2.137-8.5727 0-12.145 0-4.2863 0-8.5727 2.85-12.145 4.275-1.4288 0.712-0.7144 2.849 0.7144 3.562 2.1432 0 4.2863 0.712 5.0007 2.85v2.137c0.7144 1.425 2.1432 2.137 3.5719 2.137 3.572 0 5.7151 0.712 8.5727 2.137 2.1431 1.425 5.7151 2.85 7.1439 4.987 1.4287 2.85-1.4288 4.987 0 7.125 0.7144 1.425 2.8575 1.424 3.5719 2.137 1.4288 1.425-0.7144 7.124-0.7144 8.549-0.7144 3.562-0.7144 7.124-1.4288 9.974-0.7143 3.562-2.8575 7.837-7.1438 6.412-2.1432-0.712-3.572-2.137-5.0007-2.85-2.1432-0.712-3.572 0-5.7151 0.713-2.1432 0.712-3.572 0.712-5.7151-0.713-0.7144-0.712-2.1432-0.712-2.8576-1.425-2.1432-0.712-5.0007 0-7.1439 0-2.8575 0-5.0007 0-7.8582-0.712-5.0007-1.425-10.001 2.85-14.288 5.699-1.4288 0.713-1.4288 2.138-0.71439 2.85 1.4288 2.137 2.8576 3.562 4.2863 4.987 0 1.425 0 2.85 0.71439 4.275-2.8576 3.562-1.4288 7.124-0.71439 11.398 0 6.412-3.5719 12.112-6.4295 17.099-0.71439 1.425-0.71439 2.85 0 2.85 1.4288 1.424 5.7151 2.137 5.7151 4.987 0 1.424-0.71439 3.562-0.71439 4.987l-1.4288 6.411c0 1.425 0.71438 2.138 2.1432 2.85 5.0007 0.713 10.001-1.425 13.573-4.987 2.1432 1.425 2.8576 4.275 3.572 6.412 1.4288 2.137 2.8575 4.987 5.7151 4.987 1.4287 0 2.1431 0 2.8575-1.425 1.4288-3.562 7.1439-2.137 10.001-1.425 2.8576 0 5.0008 0 7.8583-1.425 4.2863-1.424 7.1439-4.987 8.5726-8.549 2.8576 0 5.7151 0 8.5727-0.712 1.4288 0 2.1432-2.137 0.7144-3.562s5.0007-6.412 5.7151-7.837c0.7144-0.712 0-2.137-0.7144-2.85-4.2863-2.137 1.4288-7.124 2.8575-9.261 0.7144-1.425 1.4288-2.138 2.1432-3.562 0.7144-1.425 0-3.563 1.4288-4.988 1.4288-1.424 3.5719-2.137 5.0007-2.849 1.4288-0.713 3.5719-1.425 5.0007-2.85 2.1432-1.425 4.2863-3.562 5.7151-6.412 0.7144-1.425 0.7144-2.137 1.4288-3.562 0-1.425-0.7144-4.274 1.4287-4.987 2.1432-1.425 5.0006 0 7.1436-1.425 0.715-0.712 1.429-2.137 2.143-2.137 0 0 0 0.712 0.715 0.712 3.572 2.85 8.573 4.987 12.859 2.138 2.143-1.425 4.286-3.562 7.144-4.275 2.143 0 3.572 0 5-1.425 2.144-1.425 2.144-4.987 5.716-4.987 0.714 0 2.143 0.713 2.857 0.713s1.429 0.712 2.143 0.712c1.429 0.713 1.429 1.425 1.429 2.137 0.714 1.425 0.714 2.85 2.143 4.275s2.858 2.137 4.286 3.562c1.429 1.425 1.429 3.562 2.144 5.7 1.428 2.137 2.857 2.849 5 4.274 5.001 3.562 10.002 7.124 15.002 11.399 4.287 3.562 9.288 7.837 12.859 12.824 3.572 4.987-1.428 9.974-1.428 14.961 0 2.137 2.143 2.849 3.572 1.425 2.857-2.138 5-4.987 7.858-7.125 1.429-1.425 3.572-3.562 3.572-5.699 0-2.85-3.572-3.562-2.858-6.412 0-0.712 0.715-1.425 1.429-2.137 0-1.425 0.714-1.425 1.429-0.713 1.429 0 2.857 1.425 4.286 2.138 2.143 1.424 3.572-1.425 2.143-2.85-2.143-2.85-4.286-4.987-7.144-6.412-1.428-0.712-2.857-1.425-4.286-2.137-0.714-0.713-5.715-2.138-4.286-3.562 1.429-0.713 0.714-2.85-0.715-3.563-4.286-1.424-8.572-2.849-12.144-4.987-3.572-2.849-5.001-5.699-5.715-9.974-0.715-3.562-2.143-4.987-5.001-6.411-5.001-2.85-3.572-7.125-2.143-12.112 2.143-0.712 3.572-2.137 5.715-2.849v4.274c0 0.713 0 2.137 1.429 2.85 1.428 0.712 3.572 0.712 5 0.712 0 2.138 0.715 4.987 2.858 6.412 0.714 0 1.429 0.713 2.143 0.713 1.429 0.712 2.143 0.712 2.858 1.424 1.428 1.425 2.143 2.138 4.286 3.563 4.286 2.137 7.858 4.987 12.145 7.836 3.572 2.85 5.715 7.125 10.001 9.262 1.429 0.712 2.858 1.425 5.001 1.425 0.714 0 2.143-0.713 2.857 0.712 0 0.713-1.429 2.137-2.143 2.85-1.429 1.425-0.714 2.85-0.714 4.987s-1.429 2.85-1.429 4.987c0 2.85 3.572 3.562 4.286 6.412 0.715 1.425-0.714 3.562-0.714 5.699 0 1.425 1.429 2.85 2.857 3.562 2.144 1.425 4.287 2.85 5.716 4.987 0.714 1.425 1.428 2.85 0.714 4.275 0 0.712-0.714 1.425-0.714 2.137 0 2.137 2.143 3.562 3.571 4.275 2.858 2.137 5.001 3.562 7.859 5.699 0.714 0.713 2.143 0 2.857-0.712 1.429-2.85 2.143-5.7 1.429-8.549 2.858-0.713 5.001-1.425 6.43-4.275 1.428-3.562 0-7.837-2.858-10.686-1.429-1.425-4.286-3.563-5.001-6.412-1.429-7.837 1.429-7.125 3.572-7.837s5.001-2.85 5.001-4.987c2.857 0 5.001 2.85 7.858 1.425 0.715 0 1.429-0.713 2.143-1.425 2.143 1.425 4.287 2.137 6.43 0.712z" fill="#F78F2D"/>
</svg>
