<svg width="218" height="200" viewBox="0 0 218 200" fill="none" xmlns="http://www.w3.org/2000/svg">
<path d="M64.3579 127.335C64.3579 127.335 61.5173 123.325 56.1388 124.73C50.7604 126.135 49.2109 132.742 49.0952 136.272C48.8013 145.128 51.0809 155.007 57.6705 166.086C64.26 177.166 74.9546 186.6 87.0918 188.076C99.229 189.561 98.8105 179.229 98.8105 179.229L64.3579 127.335Z" fill="#66DCCC" stroke="#262262" stroke-miterlimit="10"/>
<path d="M92.0874 183.648C94.0108 183.47 100.013 180.954 100.013 180.954C135.641 159.64 155.561 126.882 163.183 102.634C170.806 78.3858 169.025 62.6116 165.347 52.0391C162.693 44.4099 153.397 33.7574 153.397 33.7574C148.446 29.0892 150.12 21.5666 150.04 19.0235C149.959 16.4805 150.244 11.1542 145.231 11.0031C139.496 10.8341 138.633 17.7164 138.633 17.7164C137.448 29.8628 134.145 30.4407 134.145 30.4407C134.145 30.4407 121.901 39.8217 118.107 47.0419C114.314 54.271 113.085 73.0862 109.986 80.2709C103.788 94.6402 88.4008 112.833 62.6393 124.944C62.6393 124.944 59.4959 126.393 58.0889 127.478C56.682 128.563 55.2483 130.554 54.1619 136.219C52.6837 143.875 54.625 152.437 63.1914 165.651C72.0961 179.415 83.1203 184.466 92.0874 183.648Z" fill="#66DCCC" stroke="#262262" stroke-miterlimit="10"/>
<path d="M150.325 60.8954C150.21 57.7477 149.221 49.6027 153.95 49.6827C158.669 49.7538 159.586 62.4781 159.586 62.4781C159.586 62.4781 161.171 74.7223 159.034 84.5478C156.897 94.3733 154.163 93.9021 153.104 94.0177C152.044 94.1333 150.414 93.8398 151.804 81.9603C152.979 71.7791 150.539 66.5417 150.325 60.8954Z" fill="white" stroke="#262262" stroke-miterlimit="10"/>
<path d="M143.673 108.743C143.673 108.743 145.249 102.003 148.98 102.358C152.711 102.705 146.496 116.728 146.496 116.728C146.496 116.728 143.495 122.73 139.817 121.707C136.148 120.693 142.302 113.864 143.673 108.743Z" fill="white" stroke="#262262" stroke-miterlimit="10"/>
</svg>
