<svg width="218" height="200" viewBox="0 0 218 200" fill="none" xmlns="http://www.w3.org/2000/svg">
<path d="M49.67 69.257L145.157 48.3984C145.157 48.3984 145.355 81.9742 145.157 90.9012C144.621 114.73 171.838 121.006 171.838 121.006L145.157 134.431V147.002L51.9439 175.346L47.0762 169.803L49.67 69.257Z" fill="white"/>
<path d="M54.529 76.362L145.157 52.594V32.2275L134.885 30.4922L49.9466 51.1349L49.6699 72.4251L54.529 76.362Z" fill="#2AD575" stroke="#262262" stroke-miterlimit="10"/>
<path d="M55.0917 54.7436L49.9473 51.1348" stroke="#262262" stroke-miterlimit="10"/>
<path d="M49.6708 72.4252L47.0684 169.811L51.9447 175.345L55.0919 54.7437L145.157 32.2275" stroke="#262262" stroke-miterlimit="10" stroke-linejoin="round"/>
<path d="M145.158 92.2906V52.5938" stroke="white" stroke-miterlimit="10"/>
<path d="M51.9453 175.346L145.158 147.011V134.432" stroke="white" stroke-miterlimit="10"/>
<path d="M145.158 91.9889C146.074 114.842 171.839 121.006 171.839 121.006L90.8605 161.756C90.8605 161.756 51.9361 159.218 53.501 115.619L145.158 89.6924" stroke="#262262" stroke-miterlimit="10" stroke-linejoin="round"/>
<path d="M70.0918 72.4424L68.3971 113.952C68.3971 113.952 68.1032 134.949 79.9223 142.987C91.7414 151.025 100.621 153.787 106.716 153.779" stroke="#262262" stroke-miterlimit="10"/>
<path d="M84.4276 68.4717L82.7329 109.982C82.7329 109.982 81.2199 128.449 94.9498 137.514C106.881 145.396 114.49 146.812 120.585 146.804" stroke="#262262" stroke-miterlimit="10"/>
<path d="M100.761 64.042L99.0665 105.552C99.0665 105.552 98.9195 121.429 110.488 129.786C122.074 138.161 130.028 139.084 136.123 139.076" stroke="#262262" stroke-miterlimit="10"/>
<path d="M115.674 59.9756L114.913 98.3256C114.913 98.3256 113.841 113.875 125.401 122.232C136.986 130.606 144.941 131.53 151.036 131.521" stroke="#262262" stroke-miterlimit="10"/>
<path d="M129.967 56.5137L129.284 90.7196C129.284 90.7196 127.78 105.871 137.42 113.918C148.401 123.078 157.021 125.513 163.125 125.504" stroke="#262262" stroke-miterlimit="10"/>
<path d="M54.2188 88.1127L145.158 62.4453" stroke="#262262" stroke-miterlimit="10"/>
<path d="M53.8301 103.023L145.158 76.3623" stroke="#262262" stroke-miterlimit="10"/>
<path d="M55.3418 132.877L147.093 101.235" stroke="#262262" stroke-miterlimit="10" stroke-linejoin="round"/>
<path d="M62.0527 146.398L152.127 109.273" stroke="#262262" stroke-miterlimit="10" stroke-linejoin="round"/>
<path d="M73.0234 155.903L160.296 115.999" stroke="#262262" stroke-miterlimit="10" stroke-linejoin="round"/>
<path d="M99.0654 121.023L96.584 129.985" stroke="#262262" stroke-miterlimit="10" stroke-linejoin="round"/>
<path d="M93.3496 123.182L103.172 126.747" stroke="#262262" stroke-miterlimit="10" stroke-linejoin="round"/>
<path d="M75.2207 129.553C75.5147 129.217 85.4317 133.646 86.0282 133.559" stroke="#262262" stroke-miterlimit="10"/>
<path d="M82.1879 128.422C82.0323 131.332 80.891 134.138 78.9629 136.33C78.6343 136.702 79.179 137.254 79.5162 136.883C81.5826 134.526 82.8017 131.547 82.966 128.422C82.992 127.921 82.2138 127.93 82.1879 128.422Z" fill="#262262"/>
<path d="M76.9144 130.322C80.0183 131.919 83.2001 133.378 86.4337 134.691C86.9006 134.881 87.0994 134.129 86.6412 133.94C83.4681 132.645 80.3555 131.211 77.3121 129.649C76.8625 129.424 76.4735 130.098 76.9144 130.322Z" fill="#262262"/>
<path d="M106.916 118.278C108.688 118.615 110.444 119.047 112.173 119.573C113.037 119.841 113.893 120.126 114.741 120.437C115.553 120.73 116.366 120.989 117.239 120.972C117.741 120.963 117.741 120.186 117.239 120.195C116.306 120.221 115.45 119.867 114.585 119.565C113.798 119.28 113.003 119.021 112.199 118.779C110.53 118.278 108.835 117.864 107.124 117.536C106.639 117.441 106.423 118.183 106.916 118.278Z" fill="#262262"/>
<path d="M113.539 115.628C112.302 118.606 111.066 121.585 109.829 124.555C109.639 125.013 110.391 125.22 110.582 124.762C111.818 121.784 113.054 118.805 114.291 115.835C114.481 115.377 113.729 115.179 113.539 115.628Z" fill="#262262"/>
<path d="M123.101 113.227C124.622 113.244 125.85 114.427 127.32 114.712C129.006 115.04 130.813 115.049 132.525 115.101C133.026 115.118 133.026 114.341 132.525 114.324C131.626 114.298 130.735 114.255 129.836 114.194C128.963 114.134 128.055 114.116 127.199 113.892C125.772 113.521 124.622 112.467 123.101 112.45C122.599 112.45 122.599 113.227 123.101 113.227Z" fill="#262262"/>
<path d="M129.438 109.972C128.712 110.145 128.306 110.801 127.908 111.379C127.424 112.096 126.966 112.838 126.542 113.59C125.703 115.092 124.994 116.663 124.406 118.278C124.234 118.752 124.986 118.951 125.159 118.485C125.695 117.026 126.335 115.601 127.078 114.237C127.45 113.564 127.848 112.899 128.263 112.251C128.6 111.733 128.998 110.879 129.646 110.723C130.13 110.602 129.923 109.851 129.438 109.972Z" fill="#262262"/>
<path d="M93.7576 107.668C92.4175 111.294 90.524 114.713 88.155 117.769C87.8524 118.157 88.3971 118.71 88.7083 118.321C91.1638 115.153 93.1178 111.639 94.5098 107.875C94.6828 107.4 93.9305 107.201 93.7576 107.668Z" fill="#262262"/>
<path d="M86.8997 111.656C89.7615 113.443 92.8136 114.911 95.9953 116.042C96.4709 116.206 96.6697 115.463 96.2028 115.291C93.0816 114.186 90.0987 112.735 87.2888 110.983C86.8651 110.724 86.4761 111.388 86.8997 111.656Z" fill="#262262"/>
<path d="M103.691 106.373C106.96 107.953 110.288 109.42 113.66 110.776C114.127 110.966 114.326 110.215 113.868 110.025C110.556 108.695 107.297 107.253 104.089 105.699C103.631 105.483 103.233 106.157 103.691 106.373Z" fill="#262262"/>
<path d="M110.538 103.532C108.973 106.441 107.253 109.264 105.385 111.993C105.1 112.407 105.774 112.796 106.06 112.381C107.927 109.653 109.639 106.83 111.213 103.92C111.446 103.489 110.78 103.092 110.538 103.532Z" fill="#262262"/>
<path d="M117.628 101.555C121.113 102.841 124.64 104.024 128.194 105.103C128.678 105.25 128.877 104.499 128.401 104.352C124.848 103.273 121.32 102.09 117.836 100.804C117.369 100.631 117.162 101.382 117.628 101.555Z" fill="#262262"/>
<path d="M124.286 99.3882C123.819 99.8112 123.448 100.329 123.084 100.847C122.661 101.452 122.228 102.056 121.805 102.66C120.949 103.869 120.093 105.086 119.237 106.295C118.952 106.701 119.626 107.089 119.911 106.683C120.741 105.509 121.571 104.335 122.401 103.161C122.816 102.574 123.231 101.987 123.646 101.4C124.01 100.882 124.373 100.364 124.84 99.9321C125.211 99.5954 124.658 99.0515 124.286 99.3882Z" fill="#262262"/>
<path d="M61.2744 136.037C64.1621 138.429 68.0442 138.869 71.174 140.838C71.5977 141.105 71.9868 140.432 71.5631 140.164C68.5024 138.248 64.6463 137.824 61.8277 135.485C61.4473 135.165 60.8939 135.718 61.2744 136.037Z" fill="#262262"/>
<path d="M67.6034 133.179C65.8742 135.968 64.4476 138.938 63.3323 142.029C63.1594 142.504 63.9116 142.702 64.0845 142.236C65.1739 139.206 66.5832 136.313 68.2778 133.577C68.5372 133.145 67.8628 132.756 67.6034 133.179Z" fill="#262262"/>
<path d="M63.4707 66.5628C67.8974 65.311 71.3731 60.459 71.3731 53.9925C71.3731 46.6108 67.0155 40.6191 61.6637 40.6191C57.211 40.6191 53.6402 44.8496 52.4902 50.47L54.7728 49.9692C55.8708 46.1273 58.4992 43.002 61.5772 43.002C65.6408 43.002 68.935 47.7159 68.935 53.5349C68.935 58.4991 66.5314 62.6605 63.2978 63.7656L63.4707 66.5628Z" fill="#FF4D4E" stroke="#262262" stroke-miterlimit="10"/>
<path d="M98.1308 58.1712C102.558 56.9194 106.033 52.0673 106.033 45.6008C106.033 38.2192 101.676 32.2275 96.3238 32.2275C91.8711 32.2275 88.3003 36.458 87.1504 42.0784L89.4329 41.5776C90.531 37.7357 93.1594 34.6104 96.2374 34.6104C100.301 34.6104 103.595 39.3243 103.595 45.1433C103.595 50.1075 101.192 54.2689 97.9579 55.374L98.1308 58.1712Z" fill="#FF4D4E" stroke="#262262" stroke-miterlimit="10"/>
<path d="M131.566 49.9437C135.993 48.6919 139.469 43.8398 139.469 37.3733C139.469 29.9917 135.111 24 129.759 24C125.307 24 121.736 28.2304 120.586 33.8508L122.868 33.3501C123.967 29.5082 126.595 26.3828 129.673 26.3828C133.737 26.3828 137.031 31.0967 137.031 36.9157C137.031 41.88 134.627 46.0414 131.393 47.1465L131.566 49.9437Z" fill="#FF4D4E" stroke="#262262" stroke-miterlimit="10"/>
</svg>
