<svg width="222" height="221" viewBox="0 0 222 221" fill="none" xmlns="http://www.w3.org/2000/svg">
<path d="M83.0379 174.859C85.4318 181.531 97.5884 182.445 97.5884 182.445C99.6956 179.786 97.95 171.273 95.3192 169.386" stroke="white" stroke-miterlimit="10"/>
<path d="M205.677 175.809C205.278 175.5 193.283 168.828 174.867 186.589C156.452 204.35 139.806 202.32 132.949 201.453C126.091 200.586 108.411 195.279 97.5884 182.457C97.5884 182.457 100.693 186.814 112.127 175.334C123.56 163.853 130.991 169.683 142.051 177.969C153.11 186.256 162.748 177.661 165.99 160.933C168.758 146.686 180.852 145.772 180.852 145.772C196.226 144.062 221 158.938 221 158.938" stroke="white" stroke-miterlimit="10"/>
<path d="M1.90634 54.3666C3.5771 55.8388 6.98096 54.9009 9.5245 52.289C11.0614 50.8556 11.9552 48.9109 12.0182 46.8633C21.04 41.4466 30.5049 36.7299 40.3213 32.759C57.378 25.8137 61.4427 38.434 62.6771 42.0313C63.9114 45.6286 65.7567 58.4626 65.7567 58.4626L69.2853 57.8452L73.5869 57.774C73.5869 57.774 71.0932 45.0231 71.0932 41.2358C71.0932 37.4486 70.8064 24.2465 89.2471 25.8018C99.8827 26.6182 110.432 28.25 120.792 30.6813C121.537 32.5844 123.025 34.1406 124.944 35.0266C128.223 36.7481 131.777 36.6175 132.874 34.7179C133.971 32.8184 132.201 29.8978 128.921 28.1763C127.091 27.4414 125.186 26.8884 123.236 26.526C114.433 24.7808 91.5163 20.5898 85.3819 21.0291C75.1828 21.7296 67.6644 27.369 66.9662 33.412C66.7041 36.2797 66.7041 39.1636 66.9662 42.0313C66.2493 39.0603 65.2563 36.156 63.9987 33.3526C61.3554 27.832 52.3907 24.7333 42.416 27.1315C36.4437 28.5681 16.0829 39.4075 8.31507 43.7528C6.5736 44.6683 4.94295 45.7632 3.45242 47.0177C0.946281 49.594 0.235585 52.9063 1.90634 54.3666Z" fill="white" stroke="#262262" stroke-miterlimit="10"/>
<path d="M94.8953 157.086L77.7887 58.427C72.4527 57.1188 66.8047 57.6226 61.8167 59.8517L78.1004 154.344L94.8953 157.086Z" fill="#F78F2D" stroke="#262262" stroke-linejoin="round"/>
<path d="M78.275 61.2526L64.6595 58.7594" stroke="#262262" stroke-linejoin="round"/>
<path d="M62.9015 66.1202L79.5842 68.7797" stroke="#262262" stroke-linejoin="round"/>
<path d="M80.806 75.8437L64.2106 73.7067" stroke="#262262" stroke-linejoin="round"/>
<path d="M82.1027 83.3233L65.3827 80.5452" stroke="#262262" stroke-linejoin="round"/>
<path d="M83.1626 89.4257L66.5298 87.2174" stroke="#262262" stroke-linejoin="round"/>
<path d="M84.2722 95.8248L67.5397 93.0823" stroke="#262262" stroke-linejoin="round"/>
<path d="M85.5191 102.972L68.8987 100.906" stroke="#262262" stroke-linejoin="round"/>
<path d="M86.6786 109.644L69.9835 107.21" stroke="#262262" stroke-linejoin="round"/>
<path d="M87.8507 116.459L71.1181 113.776" stroke="#262262" stroke-linejoin="round"/>
<path d="M89.0975 123.63L72.2901 120.626" stroke="#262262" stroke-linejoin="round"/>
<path d="M90.2446 130.243L73.4622 127.393" stroke="#262262" stroke-linejoin="round"/>
<path d="M91.5288 137.663L74.7339 134.813" stroke="#262262" stroke-linejoin="round"/>
<path d="M92.7382 144.632L75.8685 141.355" stroke="#262262" stroke-linejoin="round"/>
<path d="M93.9352 151.542L77.0406 148.17" stroke="#262262" stroke-linejoin="round"/>
<path d="M84.2847 163.533C83.2225 164.374 82.3963 165.453 81.8806 166.674C81.3648 167.895 81.1755 169.218 81.3297 170.526C81.7287 174.764 85.17 177.934 89.0352 177.649C92.9003 177.364 95.7057 173.624 95.2693 169.338C95.1812 167.874 94.6605 166.463 93.7671 165.268C92.8737 164.072 91.644 163.142 90.2196 162.583L90.5438 156.374L81.6165 154.937L84.2847 163.533Z" fill="white" stroke="#262262" stroke-miterlimit="10"/>
</svg>
