<svg xmlns="http://www.w3.org/2000/svg" xmlns:xlink="http://www.w3.org/1999/xlink" viewBox="0 0 580.43 533.28"><defs><style>.cls-1,.cls-6{fill:none;}.cls-2{fill:#fff;}.cls-2,.cls-4,.cls-5,.cls-6{stroke:#262262;stroke-miterlimit:10;}.cls-3{clip-path:url(#clip-path);}.cls-4{fill:#f78f2d;}.cls-5{fill:#026937;}.cls-7{fill:#0b56b6;}</style><clipPath id="clip-path"><rect class="cls-1" x="97.64" y="148.94" width="397.23" height="235.4" rx="12"/></clipPath></defs><g id="India"><rect class="cls-2" x="97.64" y="148.94" width="397.23" height="235.4" rx="12"/><g class="cls-3"><rect class="cls-4" x="213.85" y="-87.51" width="167.92" height="450.69" rx="12" transform="translate(435.65 -159.98) rotate(90)"/><rect class="cls-5" x="213.85" y="166.59" width="167.92" height="450.69" rx="12" transform="translate(689.75 94.12) rotate(90)"/></g><rect class="cls-6" x="97.64" y="148.94" width="397.23" height="235.4" rx="12"/><path class="cls-7" d="M297.15,232.81a33.37,33.37,0,1,0,33.37,33.37A33.36,33.36,0,0,0,297.15,232.81Zm31,35.44a1.54,1.54,0,0,0-.35,3c-.13.76-.28,1.51-.46,2.25l-15.58-5-10.54-1.78a4.89,4.89,0,0,0,.05-.55l10.64,1.12,16.31-1.14C328.21,266.89,328.18,267.57,328.14,268.25Zm-1.5,7.7-.09,0a1.55,1.55,0,0,0-1,2.9c-.32.73-.66,1.44-1,2.14l-13.84-8.78-9.73-4.38a5.66,5.66,0,0,0,.2-.58l10.05,3.67,16.12,2.85C327.09,274.49,326.88,275.23,326.64,276Zm-15.75,17.92a1.54,1.54,0,0,0-2.75,1.37c-.66.25-1.34.48-2,.68l-3.67-16-3.82-10a3.27,3.27,0,0,0,.5-.24l4.44,9.71L312.89,293c-.63.37-1.27.72-1.93,1.05A.61.61,0,0,0,310.89,293.87Zm-8.11,2.7a1.55,1.55,0,0,0-3,.55c-.79.07-1.58.11-2.39.12l1-16.39-.87-10.63a4.21,4.21,0,0,0,.71-.12l2,10.49L305.92,296c-1,.3-2.05.54-3.11.74Zm-17.28-3.23a1.55,1.55,0,0,0-1.74.87c-.56-.26-1.11-.55-1.66-.85L291,279.55l4.44-9.7a3.78,3.78,0,0,0,.56.21l-3.72,10-3,16.18c-.91-.24-1.8-.52-2.68-.84a1.43,1.43,0,0,0,.08-.22A1.55,1.55,0,0,0,285.5,293.34Zm-15.62-15.69a1.53,1.53,0,0,0-1.83-.6c-.24-.65-.46-1.3-.66-2l15.94-3.67,10-3.85a4.12,4.12,0,0,0,.24.52l-9.69,4.51L270.41,282c-.41-.68-.79-1.38-1.14-2.09l.17-.09A1.55,1.55,0,0,0,269.88,277.65Zm-3.68-14h.23a1.54,1.54,0,0,0,.17-3.06c.12-.65.25-1.29.41-1.93l15.54,5,10.55,1.78a4.89,4.89,0,0,0-.05.55l-10.65-1.12L266.09,266C266.1,265.19,266.14,264.41,266.2,263.64Zm1.6-7.62.22.07a1.55,1.55,0,0,0,.93-2.93c.29-.64.61-1.27.95-1.89L283.66,260l9.76,4.4a3.73,3.73,0,0,0-.2.56l-10.07-3.67-16.09-2.85C267.27,257.62,267.52,256.81,267.8,256Zm15.8-17.48a1.54,1.54,0,0,0,2.14.4,1.56,1.56,0,0,0,.56-1.87c.63-.24,1.27-.45,1.92-.64l3.63,15.84,3.85,10a3.85,3.85,0,0,0-.5.24l-4.47-9.77-9.23-13.4c.64-.37,1.29-.73,2-1.06A1.23,1.23,0,0,0,283.6,238.54Zm-17,33.32.21-.05a1.54,1.54,0,0,0-.61-3c-.08-.86-.12-1.73-.12-2.62l16.3,1,10.67-.83a3.58,3.58,0,0,0,.11.73l-10.52,2-15.32,5.77A30.65,30.65,0,0,1,266.61,271.86Zm29.51-9.71-2-10.56-5.71-15.23c.87-.25,1.75-.47,2.65-.65a2.86,2.86,0,0,0,.07.28,1.55,1.55,0,0,0,3-.73c.91-.08,1.84-.13,2.77-.14l-1,16.21.88,10.71A4.2,4.2,0,0,0,296.12,262.15Zm4.95-25.42a1.53,1.53,0,0,0,1.48-1.14c.75.13,1.48.28,2.21.47l-5,15.45-1.86,10.57a2.88,2.88,0,0,0-.59-.06l1.08-10.69-1.19-16.21c.79,0,1.58,0,2.36.09A1.55,1.55,0,0,0,301.07,236.73Zm7.37,2a1.53,1.53,0,0,0,1.73-.72c.66.3,1.31.62,1.94,1l-8.79,13.68-4.46,9.76a2.75,2.75,0,0,0-.57-.2L302,252.12l2.95-16c.8.2,1.58.45,2.35.71A1.54,1.54,0,0,0,308.44,238.7Zm6.63,3.8a1.56,1.56,0,0,0,1.87-.27c.72.6,1.41,1.23,2.08,1.89l-12.23,10.73-7,8.15a4.39,4.39,0,0,0-.56-.4l6.17-8.79,6.89-14.74c.75.42,1.47.86,2.18,1.33A1.54,1.54,0,0,0,315.07,242.5Zm5.44,5.36a1.53,1.53,0,0,0,1.87.21c.47.65.91,1.31,1.33,2l-14.48,7.46-8.74,6.21a4.7,4.7,0,0,0-.35-.43l8.34-6.74,10.7-12.27c.45.45.88.91,1.3,1.39A1.55,1.55,0,0,0,320.51,247.86Zm3.9,6.57a1.53,1.53,0,0,0,1.77.68c.25.66.48,1.32.69,2L311,260.77l-10,3.85a3.5,3.5,0,0,0-.26-.51l9.73-4.52,13.37-9.33c.4.66.77,1.35,1.12,2.05h0A1.55,1.55,0,0,0,324.41,254.43Zm3.2,5.65-.06,0a1.54,1.54,0,0,0,.51,3c.09.94.14,1.9.15,2.86l-16.3-1-10.67.84a4.46,4.46,0,0,0-.13-.73l10.54-2,15.28-5.75A28.3,28.3,0,0,1,327.61,260.08ZM277,242.56l.18.19a1.54,1.54,0,0,0,2.26-2.07c.61-.43,1.24-.83,1.88-1.21L288.66,254l6.15,8.78a3.47,3.47,0,0,0-.47.39l-6.81-8.29-12.38-10.59C275.74,243.66,276.35,243.1,277,242.56Zm-2,1.85,10.84,12.14,8.21,6.9a4,4,0,0,0-.4.55l-8.82-6.11L270,251.07c.43-.78.9-1.54,1.39-2.27l.22.13a1.55,1.55,0,0,0,1.64-2.6C273.81,245.67,274.39,245,275,244.41Zm-1.61,41.76a1.12,1.12,0,0,0,.2-.18,1.54,1.54,0,0,0-2.07-2.27c-.34-.51-.68-1-1-1.56l14.57-7.51,8.69-6.17c.11.15.23.29.35.43l-8.3,6.7L275,288C274.46,287.4,273.91,286.8,273.38,286.17Zm1.8,2,12.33-10.82,6.94-8.1a4.46,4.46,0,0,0,.56.41l-6.13,8.74-7,14.88c-.87-.49-1.72-1-2.54-1.6a1.37,1.37,0,0,0,.13-.2,1.55,1.55,0,0,0-2.57-1.69C276.34,289.24,275.75,288.71,275.18,288.14Zm19.38,9a1,1,0,0,0,0-.17,1.54,1.54,0,0,0-3.05-.24c-.68-.12-1.36-.26-2-.43l5.1-15.62,1.84-10.49.6.06L296,280.85l1.21,16.39h0C296.28,297.24,295.41,297.2,294.56,297.13Zm22.94-7.49-.14-.16a1.54,1.54,0,0,0-2.28,2.06c-.65.46-1.32.9-2,1.31l-7.43-14.63-6.12-8.73a4.54,4.54,0,0,0,.48-.39l6.77,8.24L319.24,288C318.68,288.58,318.1,289.12,317.5,289.64Zm1.89-1.78-10.92-12.23-8.17-6.87a5.23,5.23,0,0,0,.4-.56l8.78,6.09,14.89,6.86c-.45.83-.95,1.64-1.48,2.42a.58.58,0,0,0-.15-.11,1.54,1.54,0,0,0-1.69,2.57C320.52,286.66,320,287.27,319.39,287.86Z"/></g></svg>