<svg xmlns="http://www.w3.org/2000/svg" xmlns:xlink="http://www.w3.org/1999/xlink" viewBox="0 0 580.43 533.28"><defs><style>.cls-1,.cls-6{fill:none;}.cls-2,.cls-7{fill:#fff;}.cls-2,.cls-4,.cls-5,.cls-6{stroke:#262262;stroke-miterlimit:10;}.cls-3{clip-path:url(#clip-path);}.cls-4{fill:#ff4d4e;}.cls-5{fill:#262262;}</style><clipPath id="clip-path"><rect class="cls-1" x="96.6" y="144.74" width="397.23" height="235.4" rx="12"/></clipPath></defs><g id="Liberia"><rect class="cls-2" x="96.6" y="144.74" width="397.23" height="235.4" rx="12"/><g class="cls-3"><rect class="cls-4" x="285.07" y="-68.9" width="23.41" height="450.69" rx="11.08" transform="translate(453.22 -140.33) rotate(90)"/><rect class="cls-4" x="285.07" y="-25.29" width="23.41" height="450.69" rx="11.08" transform="translate(496.83 -96.71) rotate(90)"/><rect class="cls-4" x="285.07" y="16.62" width="23.41" height="450.69" rx="11.08" transform="translate(538.74 -54.8) rotate(90)"/><rect class="cls-4" x="285.07" y="59.56" width="23.41" height="450.69" rx="11.08" transform="translate(581.68 -11.87) rotate(90)"/><rect class="cls-4" x="285.07" y="102.18" width="23.41" height="450.69" rx="11.08" transform="translate(624.29 30.75) rotate(90)"/><rect class="cls-4" x="285.07" y="143.09" width="23.41" height="450.69" rx="11.08" transform="translate(665.2 71.66) rotate(90)"/><rect class="cls-5" x="94.48" y="124.22" width="108.93" height="149.96" rx="11.08" transform="translate(348.15 50.26) rotate(90)"/></g><rect class="cls-6" x="96.6" y="144.74" width="397.23" height="235.4" rx="12"/><polygon class="cls-7" points="160.3 161.77 171.45 184.35 196.37 187.97 178.33 205.54 182.59 230.36 160.3 218.64 138.02 230.36 142.27 205.54 124.24 187.97 149.16 184.35 160.3 161.77"/></g></svg>