<svg width="192" height="60" viewBox="0 0 192 60" fill="none" xmlns="http://www.w3.org/2000/svg">
<path d="M186.754 60C189.651 60 192 57.6436 192 54.7368C192 51.8301 189.651 49.4737 186.754 49.4737C183.857 49.4737 181.508 51.8301 181.508 54.7368C181.508 57.6436 183.857 60 186.754 60Z" fill="#262262"/>
<path d="M-0.000144958 0H12.1011V5.12612H5.38225V9.06525H11.4826V13.6556H5.38225V22.1326H-0.000144958V0Z" fill="#262262"/>
<path d="M14.7477 0.078949H20.1563V22.1381H14.7477V0.078949Z" fill="#262262"/>
<path d="M23.4476 0.0263138H28.8824L35.9733 12.5265V0.0263138H41.4029V22.1327H36.031L28.8562 9.52749V22.1327H23.4476V0.0263138Z" fill="#262262"/>
<path d="M44.778 0H49.9455C58.3781 0 61.9629 4.98956 61.9629 10.998C61.9629 17.0065 58.3781 22.1326 49.9455 22.1326H44.778V0ZM50.6164 16.6861C54.7619 16.6861 56.5595 14.1126 56.5595 10.998C56.5595 7.88351 54.7619 5.42024 50.6164 5.42024H50.1604V16.6861H50.6164Z" fill="#262262"/>
<path d="M70.6575 0.0526276H77.8061L83.4243 15.0528L88.9692 0.0526276H96.0601V22.1117H90.6672V9.20191L85.767 22.1328H80.9768L76.0242 9.03909V22.1328H70.6575V0.0526276Z" fill="#262262"/>
<path d="M104.571 15.9351L97.2341 0.0263138H103.046L107.276 9.84787L111.468 0.0263138H117.233L109.948 15.9351V22.1327H104.571V15.9351Z" fill="#262262"/>
<path d="M-0.000144958 26.8421H10.6259L18.9817 49.3806L27.2226 26.8421H37.7703V60H29.7695V40.5786L22.4628 60H15.3596L8.00071 40.3409V60H-0.000144958V26.8421Z" fill="#262262"/>
<path d="M41.9671 26.8421H60.847V34.465H50.0427V40.1941H59.9252V46.2459H50.0427V52.2977H60.8523V60H41.9671V26.8421Z" fill="#262262"/>
<path d="M69.9819 34.5162H63.4753V26.8421H84.4589V34.5162H77.9109V60H69.9819V34.5162Z" fill="#262262"/>
<path d="M87.6064 26.8421H95.6283V39.302H104.723V26.8421H112.787V60H104.733V47.0605H95.6388V60H87.6064V26.8421Z" fill="#262262"/>
<path d="M132.479 59.9997C129.21 60.0037 126.014 59.0352 123.295 57.2166C120.575 55.398 118.454 52.8111 117.199 49.783C115.945 46.7548 115.614 43.4215 116.248 40.2046C116.882 36.9877 118.453 34.0318 120.762 31.7105C123.07 29.3893 126.013 27.8071 129.218 27.164C132.423 26.521 135.746 26.8459 138.767 28.0978C141.788 29.3496 144.371 31.4722 146.189 34.197C148.008 36.9218 148.98 40.1265 148.983 43.4056C149 45.5867 148.586 47.7495 147.763 49.7684C146.94 51.7873 145.726 53.622 144.19 55.1659C142.655 56.7099 140.829 57.9323 138.818 58.7621C136.808 59.5919 134.653 60.0126 132.479 59.9997ZM132.479 34.6789C130.752 34.6729 129.063 35.1812 127.625 36.1396C126.187 37.098 125.065 38.4632 124.401 40.0621C123.737 41.6611 123.561 43.4219 123.895 45.1212C124.23 46.8205 125.06 48.3819 126.28 49.6075C127.5 50.833 129.056 51.6675 130.749 52.0052C132.442 52.3429 134.197 52.1686 135.792 51.5043C137.386 50.84 138.748 49.7158 139.705 48.274C140.662 46.8322 141.171 45.1378 141.167 43.4056C141.178 42.2575 140.96 41.1186 140.528 40.0556C140.095 38.9926 139.456 38.0267 138.647 37.2143C137.838 36.4019 136.876 35.7593 135.817 35.324C134.758 34.8887 133.623 34.6694 132.479 34.6789Z" fill="#262262"/>
<path d="M152.131 26.8421H159.859C172.46 26.8421 177.836 34.3159 177.836 43.3183C177.836 52.3206 172.47 60 159.859 60H152.131V26.8421ZM160.857 51.841C167.063 51.841 169.745 47.9828 169.745 43.3183C169.745 38.6537 167.047 34.959 160.857 34.959H160.18V51.8252L160.857 51.841Z" fill="#262262"/>
</svg>
