<?xml version="1.0" encoding="utf-8"?>
<!-- Generator: Adobe Illustrator 26.0.3, SVG Export Plug-In . SVG Version: 6.00 Build 0)  -->
<svg version="1.1" id="Capa_1" xmlns="http://www.w3.org/2000/svg" xmlns:xlink="http://www.w3.org/1999/xlink" x="0px" y="0px"
	 viewBox="0 0 192 60" style="enable-background:new 0 0 192 60;" xml:space="preserve">
<style type="text/css">
	.st0{display:none;}
	.st1{display:inline;fill:#262262;}
	.st2{fill:#FFFFFF;}
</style>
<g class="st0">
	<path class="st1" d="M186.8,60c2.9,0,5.2-2.4,5.2-5.3c0-2.9-2.3-5.3-5.2-5.3s-5.2,2.4-5.2,5.3C181.5,57.6,183.9,60,186.8,60z"/>
	<path class="st1" d="M0,0h12.1v5.1H5.4V9h6.1v4.6H5.4v8.5H0V0z"/>
	<path class="st1" d="M14.7,0.1h5.4v22.1h-5.4C14.7,22.2,14.7,0.1,14.7,0.1z"/>
	<path class="st1" d="M23.4,0h5.4L36,12.5V0h5.4v22.1H36L28.9,9.5v12.6h-5.4V0H23.4z"/>
	<path class="st1" d="M44.8,0H50c8.4,0,12,5,12,11s-3.6,11.1-12,11.1h-5.2V0z M50.6,16.7c4.1,0,5.9-2.6,5.9-5.7s-1.8-5.6-5.9-5.6
		h-0.5v11.3H50.6z"/>
	<path class="st1" d="M70.7,0.1h7.1l5.6,15l5.5-15H96v22.1h-5.4v-13l-4.9,12.9H81L76,9v13.1h-5.4L70.7,0.1L70.7,0.1z"/>
	<path class="st1" d="M104.6,15.9L97.2,0h5.8l4.2,9.8l4.2-9.8h5.8l-7.3,15.9v6.2h-5.4v-6.2H104.6z"/>
	<path class="st1" d="M0,26.8h10.6L19,49.4l8.2-22.5h10.5V60h-8V40.6L22.5,60h-7.1L8,40.3V60H0V26.8z"/>
	<path class="st1" d="M42,26.8h18.9v7.6H50v5.7h9.9v6.1H50v6.1h10.8V60H42V26.8z"/>
	<path class="st1" d="M70,34.5h-6.5v-7.7h21v7.7H78V60h-8V34.5z"/>
	<path class="st1" d="M87.6,26.8h8v12.5h9.1V26.8h8.1V60h-8.1V47.1h-9.1V60h-8V26.8z"/>
	<path class="st1" d="M132.5,60c-3.3,0-6.5-1-9.2-2.8s-4.8-4.4-6.1-7.4c-1.3-3-1.6-6.4-1-9.6s2.2-6.2,4.5-8.5s5.3-3.9,8.5-4.5
		c3.2-0.6,6.5-0.3,9.5,0.9c3,1.3,5.6,3.4,7.4,6.1c1.8,2.7,2.8,5.9,2.8,9.2c0,2.2-0.4,4.3-1.2,6.4c-0.8,2-2,3.9-3.6,5.4
		c-1.5,1.5-3.4,2.8-5.4,3.6C136.8,59.6,134.7,60,132.5,60z M132.5,34.7c-1.7,0-3.4,0.5-4.9,1.5s-2.6,2.3-3.2,3.9
		c-0.7,1.6-0.8,3.4-0.5,5.1c0.3,1.7,1.2,3.3,2.4,4.5c1.2,1.2,2.8,2.1,4.5,2.4c1.7,0.3,3.4,0.2,5-0.5s3-1.8,3.9-3.2
		c1-1.4,1.5-3.1,1.5-4.9c0-1.1-0.2-2.3-0.6-3.4c-0.4-1.1-1.1-2-1.9-2.8c-0.8-0.8-1.8-1.5-2.8-1.9C134.8,34.9,133.6,34.7,132.5,34.7z
		"/>
	<path class="st1" d="M152.1,26.8h7.7c12.6,0,18,7.5,18,16.5s-5.4,16.7-18,16.7h-7.7V26.8z M160.9,51.8c6.2,0,8.9-3.9,8.9-8.5
		c0-4.7-2.7-8.4-8.9-8.4h-0.7v16.9L160.9,51.8z"/>
</g>
<g>
	<g>
		<g>
			<circle class="st2" cx="178.3" cy="54.4" r="5"/>
		</g>
		<g>
			<g>
				<g>
					<path class="st2" d="M0.7,12.7c0-4.3,3.2-8,7.7-8c3.6,0,6.5,2.5,7.4,5.7h-4.2C11,9.3,9.8,8.5,8.4,8.5c-2.5,0-4.1,2-4.1,4.3
						s1.6,4.3,4.1,4.3c1.5,0,3-1,3.4-2.4H7.4v-2.8H16c0.5,4.7-2.9,8.9-7.6,8.9C3.9,20.8,0.7,17,0.7,12.7z"/>
					<path class="st2" d="M17.9,14.6V5h3.6v9.7c0,1.3,0.4,2.4,1.8,2.4s1.8-1.1,1.8-2.4V5h3.6v9.6c0,3.7-2.1,6.2-5.5,6.2
						S17.9,18.3,17.9,14.6z"/>
					<path class="st2" d="M31.2,5h3.6v15.5h-3.6C31.2,20.5,31.2,5,31.2,5z"/>
					<path class="st2" d="M46.2,18.6h-5.7l-0.6,1.9H36L41.4,5h3.8l5.3,15.5h-3.7L46.2,18.6z M45.2,15.6l-1.9-6.1l-1.9,6.1H45.2z"/>
					<path class="st2" d="M56.9,5h3.5c5.7,0,8.1,3.5,8.1,7.7s-2.4,7.8-8.1,7.8h-3.5V5z M60.8,16.7c2.8,0,4-1.8,4-4s-1.2-3.9-4-3.9
						h-0.3v7.9H60.8z"/>
					<path class="st2" d="M70.5,5H79v3.6h-4.9v2.7h4.4v2.8h-4.4v2.8H79v3.6h-8.5V5z"/>
					<path class="st2" d="M85.5,15.4H89c0,1,0.6,1.9,1.8,1.9c1,0,1.6-0.6,1.6-1.5c0-1-0.8-1.4-2.4-2c-2.6-0.9-4-2.1-4-4.7
						c0-2.7,2.1-4.4,4.8-4.4c2.9,0,4.8,2,4.8,4.9h-3.3c0-0.9-0.5-1.6-1.5-1.6c-0.8,0-1.3,0.5-1.3,1.2c0,1,0.9,1.3,2,1.7
						c2.5,0.9,4.7,1.7,4.7,5c0,3.1-2.3,4.9-5.3,4.9C87.6,20.7,85.5,18.6,85.5,15.4z"/>
					<path class="st2" d="M97.9,5h8.5v3.6h-4.9v2.7h4.4v2.8h-4.4v2.8h4.9v3.6h-8.5V5z"/>
					<path class="st2" d="M111.4,12l-3.6-7h4.1l1.9,4l1.9-4h4.1l-3.6,7l4.5,8.5h-4.2l-2.6-5.4l-2.6,5.4h-4.2L111.4,12z"/>
					<path class="st2" d="M127.8,20.8c-4.5,0-7.7-3.7-7.7-8.1c0-4.3,3.2-8,7.7-8s7.7,3.7,7.7,8S132.2,20.8,127.8,20.8z M127.8,8.5
						c-2.4,0-4.1,1.9-4.1,4.2s1.7,4.3,4.1,4.3c2.3,0,4.1-1.9,4.1-4.3S130.1,8.5,127.8,8.5z"/>
				</g>
			</g>
			<g>
				<path class="st2" d="M0.3,48.5h8c0.1,2.2,1.4,4.1,4,4.1c2.3,0,3.7-1.4,3.7-3.3c0-2.2-1.9-3.1-5.4-4.4c-5.8-2-9.1-4.6-9.1-10.1
					c0-5.7,4.7-9.5,10.7-9.5c6.5,0,10.7,4.2,10.8,10.6h-7.5c-0.1-1.9-1.1-3.5-3.3-3.5c-1.8,0-3,1.1-3,2.6c0,2.1,2.1,2.8,4.5,3.6
					c5.7,1.9,10.5,3.6,10.5,10.8c0,6.6-5.1,10.5-11.9,10.5C5.2,59.9,0.4,55.3,0.3,48.5z"/>
				<path class="st2" d="M26.6,26.1h19.1v7.7H34.8v5.8h10v6.1h-10v6.1h10.9v7.7H26.6V26.1z"/>
				<path class="st2" d="M47.5,42.7c0-9.2,7.3-17.3,17.3-17.3c8.2,0,14.5,5.4,16.5,12.3h-9.4c-1.2-2.5-3.9-4.2-7.1-4.2
					c-5.6,0-9.3,4.2-9.3,9.2s3.6,9.2,9.2,9.2c3.4,0,6.7-2.1,7.7-5.1h-9.9v-6.1H82C83.2,50.9,75.4,60,64.9,60
					C54.8,60,47.5,51.9,47.5,42.7z"/>
				<path class="st2" d="M84.5,46.7V26h8.2v21c0,2.8,1,5.1,4.1,5.1c3.2,0,4.1-2.3,4.1-5.1V26h8.2v20.7c0,8.1-4.7,13.3-12.3,13.3
					C89.2,59.9,84.5,54.7,84.5,46.7z"/>
				<path class="st2" d="M127.7,59.4l-2.8-6.8c-0.8,0.1-1.6,0.2-2.5,0.2H121v6.6h-8.1V26h8.3c11,0,15.1,6.4,15.1,13.4
					c0,3.9-1.3,7.7-4.3,10.2l5.1,9.8H127.7z M122.6,44.8c3.8,0,5.7-2.4,5.7-5.5c0-3.2-2-5.4-5.7-5.4H121v10.9
					C121,44.8,122.6,44.8,122.6,44.8z"/>
				<path class="st2" d="M155.2,60c-10.1,0-17.3-8.1-17.3-17.3s7.3-17.3,17.3-17.3c10.1,0,17.3,8.1,17.3,17.3S165.2,60,155.2,60z
					 M155.2,33.5c-5.3,0-9.2,4.1-9.2,9.1s3.9,9.2,9.2,9.2s9.1-4.2,9.1-9.2C164.3,37.7,160.4,33.5,155.2,33.5z"/>
			</g>
		</g>
	</g>
	<g>
		<path class="st2" d="M32,3.5h-0.2l1-3.3h2.7l-1,3.3H32z"/>
	</g>
</g>
</svg>
