<svg width="100" height="30" viewBox="0 0 100 30" fill="none" xmlns="http://www.w3.org/2000/svg">
<path d="M0 0H16.2069V6.94733H7.20578V12.2933H15.3686V18.5109H7.20578V30H0V0Z" fill="#262262"/>
<path d="M18.6211 0H28.033L35.4328 20.3788L42.7295 0H52.0694V30H44.9855V12.4304L38.5369 30H32.2257L25.7015 12.2103V30H18.6211V0Z" fill="#262262"/>
<path d="M54.4824 0H63.8944L71.2941 20.3788L78.5909 0H87.9307V30H80.8468V12.4304L74.3982 30H68.087L61.5628 12.2103V30H54.4824V0Z" fill="#262262"/>
<path d="M95.1733 30C97.8395 30 100.001 27.7878 100.001 25.0588C100.001 22.3299 97.8395 20.1176 95.1733 20.1176C92.5071 20.1176 90.3457 22.3299 90.3457 25.0588C90.3457 27.7878 92.5071 30 95.1733 30Z" fill="#262262"/>
</svg>
