<svg width="192" height="60" viewBox="0 0 192 60" fill="none" xmlns="http://www.w3.org/2000/svg">
<path d="M186.754 59.9999C189.651 59.9999 192 57.6436 192 54.7368C192 51.83 189.651 49.4736 186.754 49.4736C183.857 49.4736 181.508 51.83 181.508 54.7368C181.508 57.6436 183.857 59.9999 186.754 59.9999Z" fill="white"/>
<path d="M0 0H12.1012V5.12612H5.38239V9.06525H11.4828V13.6556H5.38239V22.1326H0V0Z" fill="white"/>
<path d="M14.7479 0.0791016H20.1565V22.1382H14.7479V0.0791016Z" fill="white"/>
<path d="M23.4477 0.0263672H28.8825L35.9735 12.5265V0.0263672H41.403V22.1328H36.0311L28.8563 9.52754V22.1328H23.4477V0.0263672Z" fill="white"/>
<path d="M44.7782 0H49.9457C58.3783 0 61.963 4.98956 61.963 10.998C61.963 17.0065 58.3783 22.1326 49.9457 22.1326H44.7782V0ZM50.6165 16.6861C54.7621 16.6861 56.5597 14.1126 56.5597 10.998C56.5597 7.88351 54.7621 5.42024 50.6165 5.42024H50.1606V16.6861H50.6165Z" fill="white"/>
<path d="M70.6577 0.0527344H77.8063L83.4245 15.0529L88.9693 0.0527344H96.0603V22.1119H90.6674V9.20202L85.7672 22.1329H80.977L76.0243 9.0392V22.1329H70.6577V0.0527344Z" fill="white"/>
<path d="M104.571 15.9352L97.2342 0.0263672H103.046L107.276 9.84793L111.468 0.0263672H117.233L109.949 15.9352V22.1328H104.571V15.9352Z" fill="white"/>
<path d="M0 26.8423H10.626L18.9818 49.3808L27.2227 26.8423H37.7705V60.0002H29.7696V40.5788L22.4629 60.0002H15.3598L8.00085 40.3411V60.0002H0V26.8423Z" fill="white"/>
<path d="M41.9672 26.8423H60.8472V34.4652H50.0428V40.1943H59.9253V46.2461H50.0428V52.2979H60.8525V60.0002H41.9672V26.8423Z" fill="white"/>
<path d="M69.982 34.5164H63.4754V26.8423H84.459V34.5164H77.911V60.0002H69.982V34.5164Z" fill="white"/>
<path d="M87.6066 26.8423H95.6285V39.3022H104.723V26.8423H112.787V60.0002H104.734V47.0606H95.639V60.0002H87.6066V26.8423Z" fill="white"/>
<path d="M132.479 59.9999C129.211 60.0039 126.014 59.0354 123.295 57.2168C120.575 55.3982 118.454 52.8113 117.2 49.7831C115.945 46.755 115.614 43.4217 116.248 40.2048C116.882 36.9879 118.453 34.0319 120.762 31.7107C123.07 29.3895 126.013 27.8073 129.218 27.1642C132.423 26.5211 135.746 26.8461 138.767 28.098C141.788 29.3498 144.371 31.4724 146.189 34.1972C148.008 36.922 148.98 40.1266 148.983 43.4058C149.001 45.5869 148.586 47.7497 147.763 49.7686C146.94 51.7875 145.726 53.6222 144.19 55.1661C142.655 56.7101 140.829 57.9325 138.818 58.7623C136.808 59.5921 134.653 60.0128 132.479 59.9999ZM132.479 34.6791C130.753 34.673 129.063 35.1814 127.625 36.1398C126.187 37.0982 125.065 38.4633 124.401 40.0623C123.737 41.6613 123.561 43.422 123.896 45.1214C124.23 46.8207 125.06 48.3821 126.28 49.6076C127.5 50.8332 129.056 51.6677 130.749 52.0054C132.442 52.3431 134.198 52.1687 135.792 51.5045C137.386 50.8402 138.749 49.7159 139.705 48.2742C140.662 46.8324 141.171 45.138 141.167 43.4058C141.178 42.2577 140.961 41.1188 140.528 40.0558C140.095 38.9928 139.456 38.0269 138.647 37.2145C137.838 36.4021 136.876 35.7595 135.817 35.3242C134.758 34.8889 133.623 34.6696 132.479 34.6791Z" fill="white"/>
<path d="M152.131 26.8423H159.859C172.46 26.8423 177.836 34.3161 177.836 43.3185C177.836 52.3208 172.47 60.0002 159.859 60.0002H152.131V26.8423ZM160.857 51.8412C167.063 51.8412 169.746 47.983 169.746 43.3185C169.746 38.6539 167.047 34.9591 160.857 34.9591H160.18V51.8253L160.857 51.8412Z" fill="white"/>
</svg>
