<?xml version="1.0" encoding="utf-8"?>
<!-- Generator: Adobe Illustrator 26.0.3, SVG Export Plug-In . SVG Version: 6.00 Build 0)  -->
<svg version="1.1" id="Capa_1" xmlns="http://www.w3.org/2000/svg" xmlns:xlink="http://www.w3.org/1999/xlink" x="0px" y="0px"
	 viewBox="0 0 100 30" style="enable-background:new 0 0 100 30;" xml:space="preserve">
<style type="text/css">
	.st0{fill:#FFFFFF;}
</style>
<g>
	<g>
		<circle class="st0" cx="80.8" cy="25" r="4.8"/>
	</g>
	<g>
		<g>
			<path class="st0" d="M0.5,15c0-8,6.3-14.9,14.9-14.9c7.1,0,12.5,4.6,14.3,10.6h-8.1c-1-2.1-3.4-3.6-6.1-3.6c-4.9,0-8,3.6-8,8
				s3.1,8,7.9,8c3,0,5.8-1.8,6.7-4.4h-8.5v-5.2h16.7c1,8.7-5.6,16.5-14.7,16.5C6.7,29.9,0.5,23,0.5,15z"/>
			<path class="st0" d="M31.8,20h6.9c0.1,1.9,1.2,3.5,3.5,3.5c2,0,3.2-1.2,3.2-2.8c0-1.9-1.6-2.7-4.7-3.8c-5-1.7-7.8-3.9-7.8-8.7
				c0-4.9,4-8.2,9.2-8.2c5.6,0,9.3,3.6,9.3,9.1H45c-0.1-1.7-1-3-2.9-3c-1.6,0-2.6,1-2.6,2.2c0,1.8,1.8,2.4,3.9,3.1
				c4.9,1.6,9,3.1,9,9.3c0,5.7-4.4,9-10.2,9C36,29.9,31.8,25.9,31.8,20z"/>
			<path class="st0" d="M53.8,20h6.9c0.1,1.9,1.2,3.5,3.5,3.5c2,0,3.2-1.2,3.2-2.8c0-1.9-1.6-2.7-4.7-3.8c-5-1.7-7.8-3.9-7.8-8.7
				c0-4.9,4-8.2,9.2-8.2c5.6,0,9.3,3.6,9.3,9.1H67c-0.1-1.7-1-3-2.9-3c-1.6,0-2.6,1-2.6,2.2c0,1.8,1.8,2.4,3.9,3.1
				c4.9,1.6,9,3.1,9,9.3c0,5.7-4.4,9-10.2,9C58,29.9,53.8,25.9,53.8,20z"/>
		</g>
	</g>
</g>
</svg>
