<svg width="150" height="44" viewBox="0 0 150 44" fill="none" xmlns="http://www.w3.org/2000/svg">
<path d="M0 0H24.3103V10.1894H10.8087V18.0302H23.0529V27.1493H10.8087V44H0V0Z" fill="white"/>
<path d="M27.9316 0H42.0496L53.1492 29.889L64.0943 0H78.1041V44H67.4783V18.2313L57.8054 44H48.3385L38.5523 17.9084V44H27.9316V0Z" fill="white"/>
<path d="M81.7246 0H95.8425L106.942 29.889L117.887 0H131.897V44H121.271V18.2313L111.598 44H102.131L92.3452 17.9084V44H81.7246V0Z" fill="white"/>
<path d="M142.759 44C146.758 44 150 40.7554 150 36.7529C150 32.7505 146.758 29.5059 142.759 29.5059C138.76 29.5059 135.518 32.7505 135.518 36.7529C135.518 40.7554 138.76 44 142.759 44Z" fill="white"/>
</svg>
