<svg width="650" height="300" viewBox="0 0 650 300" fill="none" xmlns="http://www.w3.org/2000/svg">
<rect width="650" height="300" fill="white"/>
<g opacity="0.2">
<path d="M461.131 195C465.477 195 469 191.465 469 187.105C469 182.745 465.477 179.21 461.131 179.21C456.785 179.21 453.262 182.745 453.262 187.105C453.262 191.465 456.785 195 461.131 195Z" fill="#262262"/>
<path d="M181 105H199.152V112.689H189.074V118.598H198.224V125.483H189.074V138.199H181V105Z" fill="#262262"/>
<path d="M203.122 105.119H211.235V138.207H203.122V105.119Z" fill="#262262"/>
<path d="M216.172 105.04H224.324L234.96 123.79V105.04H243.105V138.199H235.047L224.285 119.291V138.199H216.172V105.04Z" fill="#262262"/>
<path d="M248.167 105H255.919C268.567 105 273.945 112.484 273.945 121.497C273.945 130.51 268.567 138.199 255.919 138.199H248.167V105ZM256.925 130.029C263.143 130.029 265.84 126.169 265.84 121.497C265.84 116.825 263.143 113.13 256.925 113.13H256.241V130.029H256.925Z" fill="#262262"/>
<path d="M286.987 105.079H297.709L306.137 127.579L314.454 105.079H325.09V138.168H317.001V118.803L309.651 138.199H302.466L295.037 118.559V138.199H286.987V105.079Z" fill="#262262"/>
<path d="M337.857 128.903L326.851 105.04H335.57L341.914 119.772L348.203 105.04H356.85L345.923 128.903V138.199H337.857V128.903Z" fill="#262262"/>
<path d="M181 145.263H196.939L209.473 179.071L221.834 145.263H237.656V195H225.654V165.868L214.694 195H204.04L193.001 165.511V195H181V145.263Z" fill="#262262"/>
<path d="M243.951 145.263H272.271V156.698H256.064V165.291H270.888V174.369H256.064V183.447H272.279V195H243.951V145.263Z" fill="#262262"/>
<path d="M285.973 156.774H276.213V145.263H307.689V156.774H297.867V195H285.973V156.774Z" fill="#262262"/>
<path d="M312.41 145.263H324.443V163.953H338.085V145.263H350.18V195H338.1V175.591H324.458V195H312.41V145.263Z" fill="#262262"/>
<path d="M379.719 195C374.816 195.006 370.022 193.553 365.942 190.825C361.862 188.097 358.681 184.217 356.799 179.674C354.918 175.132 354.421 170.132 355.373 165.307C356.324 160.482 358.68 156.048 362.143 152.566C365.606 149.084 370.02 146.711 374.827 145.746C379.635 144.781 384.619 145.269 389.151 147.147C393.682 149.025 397.556 152.208 400.284 156.296C403.012 160.383 404.47 165.19 404.475 170.109C404.501 173.38 403.879 176.624 402.645 179.653C401.411 182.681 399.589 185.433 397.285 187.749C394.982 190.065 392.243 191.898 389.227 193.143C386.212 194.388 382.979 195.019 379.719 195ZM379.719 157.018C377.129 157.009 374.595 157.772 372.437 159.209C370.28 160.647 368.597 162.695 367.601 165.093C366.605 167.492 366.341 170.133 366.843 172.682C367.345 175.231 368.59 177.573 370.42 179.411C372.25 181.25 374.583 182.501 377.123 183.008C379.663 183.514 382.296 183.253 384.688 182.256C387.08 181.26 389.123 179.574 390.558 177.411C391.993 175.248 392.756 172.707 392.75 170.109C392.767 168.386 392.441 166.678 391.792 165.083C391.143 163.489 390.184 162.04 388.971 160.822C387.757 159.603 386.314 158.639 384.726 157.986C383.137 157.333 381.435 157.004 379.719 157.018V157.018Z" fill="#262262"/>
<path d="M409.197 145.263H420.789C439.69 145.263 447.754 156.474 447.754 169.977C447.754 183.481 439.706 195 420.789 195H409.197V145.263ZM422.285 182.761C431.594 182.761 435.618 176.974 435.618 169.977C435.618 162.981 431.57 157.438 422.285 157.438H421.27V182.738L422.285 182.761Z" fill="#262262"/>
</g>
</svg>
