<svg width="650" height="650" viewBox="0 0 650 650" fill="none" xmlns="http://www.w3.org/2000/svg">
<path d="M392.032 184.158C392.032 184.158 387.293 184.215 384.264 194.332L321.012 406.6C319.327 423.739 332.414 424.112 332.414 424.112L333.784 434.688L342.684 426.806L345.871 439.904L354.35 430.847L356.641 443.946L366.015 435.089L368.148 447.786L376.812 437.955L378.55 449.879L390.268 442.57L391.164 454.694L401.96 445.837V458.162L414.337 450.079L415.917 461.429L426.871 454.292L428.636 466.044L438.01 458.162L440.143 469.512L450.94 462.776L453.231 475.301L461.368 467.018L464.027 479.343L474.982 471.633L477.984 483.756L486.832 476.247L488.412 487.425L498.971 479.715L501.157 491.266L507.398 483.499C520.406 484.387 521.618 476.419 521.618 476.419C521.618 476.419 582.974 279.6 587.45 264.553C591.927 249.506 582.157 245.522 582.157 245.522L580.077 234L569.518 243.143L565.805 228.612L555.298 237.755L553.349 224.37L543.448 234.229L540.419 220.844L530.281 230.217L528.78 217.09L519.932 225.545L516.246 212.418L505.712 221.332L503.553 208.205L492.994 217.577L491.045 203.733L482.434 212.876L478.774 200.437L469.504 209.351L468.635 197.399L460.104 205.883L456.865 192.756L448.886 202.845L446.305 190.176L435.956 198.632L432.664 184.186L422.605 195.106L421.104 184.186L412.493 190.434L408.622 179.4L400.433 185.963L398.273 175.416L392.032 184.158Z" fill="#66DCCC" stroke="#262262" stroke-miterlimit="10"/>
<path d="M511.18 352.896C523.401 312.463 506.262 270.002 472.9 258.056C439.537 246.109 402.584 269.202 390.363 309.635C378.142 350.067 395.281 392.529 428.644 404.475C462.006 416.421 498.959 393.328 511.18 352.896Z" fill="#66DCCC" stroke="#262262" stroke-miterlimit="10"/>
<path d="M491.624 269.282C491.624 269.282 536.917 304.793 515.034 360.082C486.62 431.907 423.79 405.137 417.364 398.918" stroke="#262262" stroke-miterlimit="10"/>
<path d="M70.2423 283.784C70.2423 283.784 58.7611 289.144 63.0798 304.249C67.3984 319.353 160.144 603.274 160.144 603.274C160.144 603.274 163.172 618.981 177.365 615.226L185.976 625L189.268 610.583L199.985 620.213L202.513 607.574L214.442 616.659L215.548 601.87L227.872 611.672L231.585 596.625L243.962 606.714L246.437 592.182L257.313 601.239L260.236 587.711L271.269 596.195L273.718 583.011L282.882 591.323L285.937 578.568L294.995 586.364L298.313 573.552L308.715 582.953L311.348 567.849L322.276 577.164L324.989 563.951L335.022 571.288L338.129 558.792L349.505 567.734L351.664 554.349L361.565 562.518L364.594 549.505L372.889 557.473L376.312 543.83C376.312 543.83 385.265 538.987 381.262 525.286L276.246 225.773C271.769 212.99 259.103 216.745 259.103 216.745L249.913 206.627L246.779 223.624L235.561 212.847L233.481 227.464L221.263 216.888L217.023 232.394L207.991 222.019L205.7 236.693L194.034 226.862L189.9 242.999L179.867 231.764L176.812 246.811L166.411 235.862L163.33 251.999L152.718 242.168L148.557 257.014L140.394 246.668L137.681 260.139L126.621 251.483L123.356 266.559L113.929 256.269L110.874 271.317L99.4457 259.307L97.1284 273.781L87.2272 264.438L82.6979 279.571L72.349 270.342L70.2423 283.784Z" fill="white" stroke="#262262" stroke-miterlimit="10"/>
<path d="M64.4492 308.749L279.38 236.092" stroke="#262262" stroke-miterlimit="10"/>
<path d="M62 299.032L276.193 225.744" stroke="#262262" stroke-miterlimit="10"/>
<path d="M160.117 603.274L381.21 525.229" stroke="#262262" stroke-miterlimit="10"/>
<path d="M164.409 611.873L381.815 535.662" stroke="#262262" stroke-miterlimit="10"/>
<path d="M229.43 472.918C273.465 463.724 302.416 417.996 294.095 370.783C285.774 323.57 243.331 292.75 199.296 301.944C155.262 311.138 126.31 356.865 134.631 404.078C142.953 451.292 185.396 482.112 229.43 472.918Z" fill="#FF4D4E" stroke="#262262" stroke-miterlimit="10"/>
<path d="M260.499 420.041L258.919 398.946L276.536 411.643L282.04 388.657L296.391 407.029L307.135 388.628L311.032 410.698L329.545 402.873L321.065 421.876L333.705 435.862L313.771 433.025L316.668 450.738L299.472 441.308L294.68 459.279L284.515 445.894L276.852 463.005L269.926 446.525L260.578 464.868L259.051 445.407L239.643 450.91L253.811 434.458L238.801 420.729L260.499 420.041Z" fill="#FFF000" stroke="#262262" stroke-miterlimit="10"/>
<path d="M184.001 517.777C184.001 517.777 313.823 472.578 316.535 471.718C319.247 470.858 323.856 470.256 326.673 478.797C330.36 489.947 332.572 498.402 332.993 500.695C333.388 502.959 333.599 509.293 325.357 511.328C317.141 513.363 195.877 557.359 195.877 557.359C195.877 557.359 187.029 561.085 183.764 553.031C180.498 544.977 176.127 528.783 176.127 528.783C176.127 528.783 174.6 521.044 184.001 517.777Z" fill="#FFF000" stroke="#262262" stroke-miterlimit="10"/>
<path d="M201.961 525.917L308.241 488.628" stroke="#262262" stroke-miterlimit="10"/>
<path d="M206.068 536.981L311.664 499.835" stroke="#262262" stroke-miterlimit="10"/>
<path d="M389.347 118.465L312.665 122.679L306.661 205.94L299.841 122.478L223.106 115.914L300.025 108.491L308.979 25L312.85 108.749L389.347 118.465Z" fill="white" stroke="#262262" stroke-miterlimit="10"/>
<path d="M504.87 566.215L454.995 568.938L451.071 623.108L446.647 568.823L396.746 564.553L446.779 559.738L452.599 505.424L455.127 559.881L504.87 566.215Z" fill="white" stroke="#262262" stroke-miterlimit="10"/>
</svg>
