<svg width="1500" height="900" viewBox="0 0 1500 900" fill="none" xmlns="http://www.w3.org/2000/svg">
<g style="mix-blend-mode:multiply" opacity="0.2">
<path d="M1407.16 244.344C1390.3 58.1196 1118.91 159.089 997.997 0H1500V900H1213C1122.45 733.407 1428.24 477.124 1407.16 244.344Z" fill="#3B86FF"/>
</g>
<g style="mix-blend-mode:multiply" opacity="0.2">
<path d="M590.817 208.794C772.214 120.536 706.062 41.3553 696.016 0H0V900H267H594C333.5 585 474.627 265.326 590.817 208.794Z" fill="#3B86FF"/>
</g>
<mask id="mask0_966_8078" style="mask-type:alpha" maskUnits="userSpaceOnUse" x="0" y="0" width="615" height="533">
<rect width="615" height="533" fill="#C4C4C4"/>
</mask>
<g mask="url(#mask0_966_8078)">
<g style="mix-blend-mode:multiply" opacity="0.2">
<path fill-rule="evenodd" clip-rule="evenodd" d="M-172.523 396.105C-177.106 357.113 -126.141 308.402 -97.916 262.43C-68.9602 215.268 -85.0179 155.41 -5.28724 123.72C86.6072 87.195 129.517 164.704 223.254 134.777C342.456 96.7202 415.683 -41.603 521.689 -44.5259C616.601 -47.1429 494.932 67.4589 467.182 128.051C453.347 158.259 417.519 188.569 400.925 219.162C382.424 253.271 393.188 281.332 365.158 316.143C314.803 378.678 281.143 456.31 176.619 497.726C78.0959 536.763 -5.07527 508.338 -71.2766 489.07C-129.983 471.983 -167.373 439.918 -172.523 396.105Z" fill="#3B86FF"/>
</g>
</g>
<mask id="mask1_966_8078" style="mask-type:alpha" maskUnits="userSpaceOnUse" x="0" y="600" width="426" height="300">
<rect y="600" width="426" height="300" fill="#C4C4C4"/>
</mask>
<g mask="url(#mask1_966_8078)">
<g style="mix-blend-mode:multiply" opacity="0.2">
<path fill-rule="evenodd" clip-rule="evenodd" d="M135.755 652.15C100.373 660.447 72.2171 681.049 45.478 705.802C16.9816 732.182 -8.86557 774.015 -6.89407 812.932C-4.94437 851.418 36.8068 872.208 67.6973 894.977C92.2636 913.085 118.765 927.951 149.215 928C179.715 928.049 208.27 915.717 230.995 895.242C255.211 873.423 268.185 844.44 276.925 812.932C290.543 763.832 328.001 704.959 294.339 666.868C260.916 629.047 184.734 640.664 135.755 652.15Z" fill="#3B86FF"/>
</g>
</g>
</svg>
