<svg width="650" height="650" viewBox="0 0 650 650" fill="none" xmlns="http://www.w3.org/2000/svg">
<path d="M144.842 75H509.466V575H140L144.842 75Z" fill="#66DCCC" stroke="#262262" stroke-miterlimit="10"/>
<path d="M348.268 120.829H178.082V178.047H348.268V120.829Z" fill="#FFF000" stroke="#262262" stroke-miterlimit="10"/>
<path d="M478.277 164.468C480.082 159.867 481.108 154.774 481.108 149.459C481.108 128.466 465.473 111.448 446.185 111.448C426.898 111.448 411.262 128.466 411.262 149.459C411.262 170.453 426.898 187.471 446.185 187.471C460.549 187.471 472.942 178.001 478.277 164.468Z" fill="#FFF000" stroke="#262262" stroke-miterlimit="10"/>
<path d="M178.082 237.631H467.277" stroke="#262262" stroke-miterlimit="10"/>
<path d="M178.082 342.332H467.277" stroke="#262262" stroke-miterlimit="10"/>
<path d="M178.082 397.271H467.277" stroke="#262262" stroke-miterlimit="10"/>
<path d="M178.082 452.256H467.277" stroke="#262262" stroke-miterlimit="10"/>
<path d="M178.082 287.345H467.277" stroke="#262262" stroke-miterlimit="10"/>
<path d="M348.268 517.916H467.278" stroke="#262262" stroke-miterlimit="10"/>
</svg>
