<svg width="610" height="610" viewBox="0 0 610 610" fill="none" xmlns="http://www.w3.org/2000/svg">
<path d="M363.446 184.569C363.446 184.569 359.346 184.619 356.727 193.37L302.015 376.976C300.557 391.801 311.878 392.123 311.878 392.123L313.062 401.271L320.761 394.454L323.517 405.783L330.851 397.949L332.833 409.279L340.942 401.619L342.787 412.601L350.28 404.098L351.784 414.411L361.92 408.089L362.694 418.576L372.033 410.915V421.576L382.738 414.584L384.105 424.402L393.58 418.229L395.106 428.393L403.215 421.576L405.06 431.393L414.399 425.567L416.381 436.401L423.419 429.236L425.719 439.897L435.195 433.228L437.791 443.714L445.445 437.219L446.811 446.888L455.945 440.219L457.836 450.21L463.234 443.491C474.486 444.26 475.534 437.368 475.534 437.368C475.534 437.368 528.605 267.125 532.477 254.109C536.349 241.094 527.899 237.648 527.899 237.648L526.1 227.682L516.966 235.59L513.754 223.021L504.666 230.929L502.98 219.352L494.416 227.88L491.797 216.302L483.027 224.409L481.729 213.055L474.076 220.368L470.887 209.014L461.776 216.724L459.908 205.369L450.775 213.476L449.089 201.502L441.641 209.41L438.475 198.651L430.457 206.361L429.705 196.023L422.326 203.361L419.524 192.007L412.622 200.733L410.39 189.775L401.439 197.089L398.591 184.594L389.89 194.04L388.592 184.594L381.144 189.999L377.796 180.454L370.712 186.131L368.844 177.008L363.446 184.569Z" fill="#66DCCC" stroke="#262262" stroke-miterlimit="10"/>
<path d="M466.505 330.523C477.076 295.55 462.252 258.822 433.394 248.489C404.536 238.156 372.573 258.131 362.002 293.104C351.431 328.077 366.256 364.805 395.113 375.138C423.971 385.471 455.934 365.497 466.505 330.523Z" fill="#66DCCC" stroke="#262262" stroke-miterlimit="10"/>
<path d="M449.59 258.2C449.59 258.2 488.767 288.916 469.839 336.739C445.262 398.867 390.915 375.711 385.358 370.332" stroke="#262262" stroke-miterlimit="10"/>
<path d="M85.1056 270.744C85.1056 270.744 75.1746 275.38 78.9101 288.445C82.6456 301.51 162.868 547.095 162.868 547.095C162.868 547.095 165.487 560.68 177.764 557.433L185.212 565.887L188.06 553.416L197.33 561.746L199.517 550.813L209.835 558.672L210.791 545.88L221.451 554.358L224.663 541.343L235.368 550.07L237.509 537.5L246.917 545.334L249.445 533.633L258.989 540.971L261.107 529.567L269.033 536.757L271.676 525.724L279.511 532.468L282.381 521.386L291.378 529.517L293.656 516.452L303.108 524.51L305.454 513.081L314.133 519.427L316.82 508.618L326.66 516.353L328.528 504.776L337.092 511.841L339.712 500.586L346.887 507.478L349.848 495.677C349.848 495.677 357.592 491.487 354.13 479.637L263.293 220.566C259.421 209.509 248.465 212.757 248.465 212.757L240.516 204.005L237.806 218.707L228.102 209.385L226.303 222.029L215.734 212.881L212.067 226.293L204.254 217.318L202.273 230.012L192.182 221.508L188.606 235.466L179.928 225.747L177.286 238.763L168.289 229.293L165.624 243.25L156.445 234.747L152.846 247.589L145.785 238.639L143.439 250.291L133.872 242.804L131.048 255.844L122.893 246.944L120.251 259.96L110.366 249.572L108.361 262.092L99.797 254.01L95.8793 267.1L86.9278 259.117L85.1056 270.744Z" fill="white" stroke="#262262" stroke-miterlimit="10"/>
<path d="M80.0947 292.338L266.004 229.491" stroke="#262262" stroke-miterlimit="10"/>
<path d="M77.9763 283.933L263.248 220.541" stroke="#262262" stroke-miterlimit="10"/>
<path d="M162.845 547.095L354.084 479.587" stroke="#262262" stroke-miterlimit="10"/>
<path d="M166.558 554.532L354.608 488.612" stroke="#262262" stroke-miterlimit="10"/>
<path d="M222.799 434.34C260.888 426.387 285.93 386.834 278.732 345.996C271.535 305.158 234.823 278.499 196.734 286.452C158.645 294.405 133.603 333.957 140.801 374.796C147.998 415.634 184.71 442.292 222.799 434.34Z" fill="#FF4D4E" stroke="#262262" stroke-miterlimit="10"/>
<path d="M249.673 388.603L248.306 370.356L263.544 381.339L268.305 361.456L280.718 377.347L290.011 361.431L293.383 380.521L309.395 373.753L302.061 390.189L312.994 402.288L295.751 399.833L298.257 415.154L283.383 406.998L279.238 422.542L270.446 410.965L263.817 425.765L257.827 411.51L249.741 427.377L248.42 410.543L231.633 415.303L243.887 401.073L230.904 389.198L249.673 388.603Z" fill="#FFF000" stroke="#262262" stroke-miterlimit="10"/>
<path d="M183.504 473.141C183.504 473.141 295.797 434.045 298.143 433.302C300.489 432.558 304.475 432.037 306.912 439.425C310.101 449.069 312.015 456.382 312.379 458.366C312.721 460.324 312.903 465.803 305.773 467.563C298.667 469.324 193.777 507.379 193.777 507.379C193.777 507.379 186.124 510.601 183.299 503.635C180.475 496.669 176.694 482.661 176.694 482.661C176.694 482.661 175.373 475.968 183.504 473.141Z" fill="#FFF000" stroke="#262262" stroke-miterlimit="10"/>
<path d="M199.038 480.182L290.968 447.928" stroke="#262262" stroke-miterlimit="10"/>
<path d="M202.591 489.752L293.929 457.622" stroke="#262262" stroke-miterlimit="10"/>
<path d="M361.123 127.747L294.795 131.392L289.602 203.411L283.702 131.218L217.329 125.541L283.862 119.12L291.606 46.9023L294.954 119.343L361.123 127.747Z" fill="white" stroke="#262262" stroke-miterlimit="10"/>
<path d="M461.047 515.039L417.907 517.394L414.513 564.25L410.686 517.295L367.523 513.601L410.8 509.436L415.834 462.457L418.021 509.56L461.047 515.039Z" fill="white" stroke="#262262" stroke-miterlimit="10"/>
</svg>
