<svg width="650" height="650" viewBox="0 0 650 650" fill="none" xmlns="http://www.w3.org/2000/svg">
<path d="M135.805 89.5284C135.805 89.5284 106.438 312.403 218.926 325.383C218.926 325.383 233.322 377.57 169.033 412.443C169.033 412.443 137.324 432.611 108.57 441.259C79.8143 449.908 64.7377 477.988 52.5083 501.745L17.3066 598.294L637.907 601.918C637.907 601.918 633.382 519.549 585.515 469.764C537.631 419.975 470.788 462.516 406.656 352.087L370.388 112.574L238.215 47.6583L204.253 7.34033H199.03L135.807 89.5344L135.805 89.5284Z" fill="#AE5D46"/>
<path d="M204.235 382.643C197.614 389.837 287.776 363.788 313.559 316.835C320.634 303.95 328.356 286.513 307.828 304.685C273.641 334.937 218.907 325.379 218.907 325.379C218.907 325.379 223.746 361.442 204.232 382.643H204.235Z" fill="#7A3525"/>
<path d="M64.351 485.865C415.341 572.51 601.329 494.508 601.329 494.508C601.329 494.508 640.801 527.265 644.782 583.504C649.008 643.2 649.008 649.008 649.008 649.008H609.789H392.747H370.017H1.00195C1.02039 648.987 51.7877 482.76 64.353 485.87L64.351 485.865Z" fill="#F78F2D"/>
<path d="M100.43 490.202L187.395 593.943L123.721 645.247L55.25 644.851L100.43 490.207V490.202Z" fill="#3B86FF"/>
<path d="M545.465 507.957L580.08 648.395L532.256 648.122L489.232 626.481L534.667 595.343L472.626 571.391L545.465 507.959V507.957Z" fill="#3B86FF"/>
<path d="M600.855 490.451L556.403 548.176L642.772 571.482C642.772 571.482 638.236 542.873 618.933 513.394C596.845 479.662 600.855 490.451 600.855 490.451V490.451Z" fill="#5EB563"/>
<path d="M90.3882 487.261L38.4121 644.906" stroke="#E94549" stroke-miterlimit="10"/>
<path d="M79.7156 485.057L23.2314 644.826" stroke="#E94549" stroke-miterlimit="10"/>
<path d="M63.9501 481.718L8.70312 644.736" stroke="#E94549" stroke-miterlimit="10"/>
<path d="M466.866 518.983L478.713 648.983" stroke="#E94549" stroke-miterlimit="10"/>
<path d="M270.391 514.936L254.918 646.172" stroke="#5EB563" stroke-miterlimit="10"/>
<path d="M281.626 516.022L268.333 646.251" stroke="#5EB563" stroke-miterlimit="10"/>
<path d="M290.35 516.022L281.628 646.331" stroke="#5EB563" stroke-miterlimit="10"/>
<path d="M203.866 510.519L187.396 594.505L242.511 645.991L257.973 516.071" fill="#3B86FF"/>
<path d="M203.866 510.519L187.396 594.505L242.511 645.991L257.973 516.071" stroke="#587CBE" stroke-miterlimit="10"/>
<path d="M257.969 515.793C257.969 515.793 137.081 502.247 63.6172 481.675" stroke="#2A255C" stroke-miterlimit="10"/>
<path d="M510.632 513.151C510.632 513.151 583.826 498.979 601.857 490.196" stroke="#2A255C" stroke-miterlimit="10"/>
<path d="M132.525 132.512C132.525 132.512 120.593 34.5796 199.033 7.3374L196.552 55.1483C196.552 55.1483 194.036 67.7535 184.69 74.5984C175.344 81.4434 132.822 115.914 132.525 132.51V132.512Z" fill="#010202"/>
<path d="M340.296 223.004C334.512 222.723 353.505 303.773 294.273 404.904C243.096 492.28 276.943 617.49 276.943 617.49L436.113 599.423L461.011 335.456C461.011 335.456 482.887 186.763 418.012 91.6657C335.314 -29.5513 204.479 6.9464 204.479 6.9464V55.7991C204.479 69.4152 218.526 72.3861 282.965 112.92C313.175 131.92 321.527 167.07 321.527 167.07C321.527 167.07 324.864 142.966 343.403 143.333C361.941 143.701 360.822 172.628 356 180.424C351.178 188.219 358.971 201.939 359.705 207.13C360.439 212.321 358.761 223.893 340.293 223.002L340.296 223.004Z" fill="#010202"/>
<path d="M128.747 117.309C128.747 117.309 155.965 82.4183 166.185 74.05C176.405 65.6819 194.591 50.8714 199.011 39.8772" stroke="#404440" stroke-miterlimit="10"/>
<path d="M201.603 22.1277C201.603 22.1277 168.76 53.1143 165.44 55.6176C152.39 65.4389 133.069 86.1497 130.238 93.6945" stroke="#404440" stroke-miterlimit="10"/>
<path d="M200.806 9.92529C200.806 9.92529 156.083 34.9074 139.154 62.9531" stroke="#404440" stroke-miterlimit="10"/>
<path d="M201.164 36.7278C201.164 36.7278 282.329 92.2061 293.457 104.006C304.586 115.805 315.277 130.984 327.594 151.921" stroke="#404440" stroke-miterlimit="10"/>
<path d="M340.046 223.731C340.046 223.731 359.334 323.309 328.359 383.829C297.386 444.35 280.37 521.655 286.904 551.872C295.412 591.209 303.727 600.75 303.727 600.75" stroke="#404440" stroke-miterlimit="10"/>
<path d="M202.48 25.7336C202.48 25.7336 264.359 40.2639 303.749 92.1014C343.143 143.939 336.714 144.919 336.714 144.919" stroke="#404440" stroke-miterlimit="10"/>
<path d="M351.961 221.937C351.961 221.937 371.317 268.609 367.386 315.159C363.456 361.71 353.149 398.439 341.618 419.408C330.088 440.381 306.8 482.362 303.726 515.135C300.634 547.925 315.937 589.941 321.057 600.724" stroke="#404440" stroke-miterlimit="10"/>
<path d="M202.48 16.876C202.48 16.876 274.806 36.3431 319.48 80.0227C364.151 123.702 393.587 204.36 396.871 232.563C400.138 260.767 425.662 356.283 392.941 420.764C363.976 477.837 337.125 538.791 355.311 600.312" stroke="#404440" stroke-miterlimit="10"/>
<path d="M355.759 181.083C355.759 181.083 391.747 249.675 389.301 304.623C386.855 359.577 385.074 375.473 376.566 397.776C368.058 420.061 331.86 475.155 330.655 519.741C329.45 564.327 333.537 582.082 341.643 600.744" stroke="#404440" stroke-miterlimit="10"/>
<path d="M202.56 12.4805C202.56 12.4805 332.171 38.8802 375.757 123.28C375.757 123.28 437.582 212.791 434.473 316.395C431.364 419.997 401.717 470.072 399.167 474.599C396.615 479.151 369.188 526.191 371.075 553.641C372.961 581.092 376.578 600.752 376.578 600.752" stroke="#404440" stroke-miterlimit="10"/>
<path d="M204.234 8.9624C204.234 8.9624 326.159 16.4903 392.714 111.906C459.275 207.317 447.5 330.862 447.5 330.862C447.5 330.862 452.374 427.936 434.572 451.381C416.77 474.805 410.288 489.546 403.178 513.653C396.068 537.759 392.714 581.823 394.723 600.293" stroke="#404440" stroke-miterlimit="10"/>
<path d="M227.523 0.996826C227.523 0.996826 323.502 10.1703 386.833 67.0845C450.162 123.998 459.526 271.944 459.526 271.944L461.657 359.11" stroke="#404440" stroke-miterlimit="10"/>
<path d="M442.441 431.273C442.441 431.273 438.144 465.726 426.125 502.07C414.105 538.414 420.115 601.923 420.115 601.923" stroke="#404440" stroke-miterlimit="10"/>
<path d="M205.531 47.5295C205.531 47.5295 199.033 74.017 231.964 89.4406C257.818 101.555 301.982 128.358 313.704 141.873" stroke="#010202" stroke-miterlimit="10"/>
<path d="M319.47 80.0217L303.747 92.1016L318.002 108.961L334.267 94.8332L319.47 80.0227V80.0217Z" fill="#FFF000"/>
<path d="M386.853 359.584L361.504 356.258L355.285 379.331L382.346 383.813L386.853 359.584Z" fill="#FFF000"/>
<path d="M417.07 482.655L399.163 474.603L389.292 492.178L410.134 502.07L417.07 482.655Z" fill="#FFF000"/>
<path d="M341.642 160.237C341.642 160.237 323.019 167.677 334.286 202.498" stroke="#7A3525" stroke-miterlimit="10"/>
<path d="M342.739 192.607C342.739 192.607 343.874 179.04 330.667 182.384" stroke="#7A3525" stroke-miterlimit="10"/>
<path d="M172.701 137.916C172.701 137.916 145.483 138.196 139.561 139.946C133.638 141.697 131.979 144.218 131.979 144.218V149.803C131.979 149.803 135.683 147.597 150.428 148.454C165.171 149.312 173.4 148.034 174.134 147.351C174.886 146.669 177.75 138.196 172.701 137.916Z" fill="#010202"/>
<path d="M218.301 135.553C218.301 135.553 241.134 130.528 259.914 135.08C269.82 137.479 275.846 147.055 275.846 147.055C275.846 147.055 265.016 142.643 257.398 142.276C249.781 141.908 228.224 146.635 219.716 146.407C213.672 146.25 218.301 135.553 218.301 135.553Z" fill="#010202"/>
<path d="M227.523 160.237C227.523 160.237 237.569 150.975 259.337 159.133" stroke="#010202" stroke-miterlimit="10" stroke-linecap="round"/>
<path d="M242.736 155.791C247.26 165.944 237.948 166.732 237.948 166.732C237.948 166.732 229.598 166.942 231.066 158.101" fill="#010202"/>
<path d="M168.335 162.759C168.335 162.759 157.748 158.891 143.144 162.759" stroke="#010202" stroke-miterlimit="10" stroke-linecap="round"/>
<path d="M156.332 161.254C159.825 169.955 151.196 169.99 151.196 169.99C151.196 169.99 144.82 170.655 145.658 162.742" fill="#010202"/>
<path d="M188.951 151.942C188.951 151.942 184.899 201.154 184.549 205.898C184.2 210.642 186.244 227.256 208.238 216.069" stroke="#010202" stroke-miterlimit="10"/>
<path d="M215.33 204.192C215.33 204.192 225.813 210.302 215.33 216.394" stroke="#010202" stroke-miterlimit="10"/>
<path d="M238.759 252.423C238.759 252.423 209.985 239.853 193.337 240.763C176.706 241.673 175.814 253.7 175.814 253.7C175.814 253.7 184.445 270.594 203.888 269.229C223.332 267.864 238.759 252.423 238.759 252.423Z" fill="#7A3525"/>
<path d="M175.832 253.689C175.832 253.689 221.987 259.851 249.101 249.348" stroke="#010202" stroke-miterlimit="10"/>
<path d="M345.989 213.603C345.989 213.603 313.705 221.953 313.705 252.432C313.705 289.721 334.144 296.777 352.365 296.777C377.54 296.777 392.756 274.281 386.851 249.352C383.549 235.364 374.884 219.887 358.026 216.404" stroke="#F78F2D" stroke-miterlimit="10"/>
</svg>
