<svg width="218" height="200" viewBox="0 0 218 200" fill="none" xmlns="http://www.w3.org/2000/svg">
<path d="M112.986 102.081L107.506 117.317C107.506 117.317 105.897 117.308 104.752 119.426C103.617 121.544 101.961 128.493 101.961 128.493C101.961 128.493 101.654 131.615 103.934 132.432C106.213 133.25 107.711 134.43 110.456 131.819C113.191 129.209 114.373 121.516 114.373 121.516C114.373 121.516 114.512 120.745 113.954 119.751L118.922 104.069" fill="#FF4D4E"/>
<path d="M112.986 102.081L107.506 117.317C107.506 117.317 105.897 117.308 104.752 119.426C103.617 121.544 101.961 128.493 101.961 128.493C101.961 128.493 101.654 131.615 103.934 132.432C106.213 133.25 107.711 134.43 110.456 131.819C113.191 129.209 114.373 121.516 114.373 121.516C114.373 121.516 114.512 120.745 113.954 119.751L118.922 104.069" stroke="#262262" stroke-miterlimit="10"/>
<path d="M148.463 31.3802L122.608 103.511C122.608 103.511 116.672 106.233 110.252 99.8509L135.642 26.4841C135.642 26.4841 135.754 24.8769 142.546 27.153C149.775 29.5871 148.463 31.3802 148.463 31.3802Z" fill="#FF4D4E" stroke="#262262" stroke-miterlimit="10"/>
<path d="M94.3879 8.20981C95.1229 9.81705 98.1001 10.0307 101.031 8.69291C103.199 7.69883 104.743 6.13803 105.106 4.74446C108.688 4.9953 126.3 6.2681 131.343 6.51894C134.516 6.67688 138.014 6.73262 140.777 10.3187C143.596 13.9978 142.759 17.7697 142.759 17.7697L139.475 27.4968C140.973 28.5095 142.498 29.2062 144.685 29.4199L148.36 19.8322C148.36 19.8322 150.118 16.3947 154.64 15.3449C159.059 14.3322 161.785 16.5248 164.335 18.42C168.382 21.4301 182.775 31.6589 185.697 33.74C185.092 35.0499 185.287 37.2332 186.32 39.3793C187.725 42.2779 190.153 44.0059 191.744 43.2348C193.344 42.4637 193.484 39.4908 192.079 36.5921C191.279 34.9292 190.125 33.6564 189.009 33.0153L165.665 15.3356C165.665 15.3356 160.129 11.2292 155.487 11.926C151.44 12.5299 147.55 14.8896 145.913 17.8254C146.536 14.518 145.038 10.198 142.294 7.1414C139.158 3.64819 132.273 3.29515 132.273 3.29515L103.031 2.0781C101.757 1.85513 100.063 2.10597 98.3792 2.87708C95.4392 4.21491 93.6529 6.60256 94.3879 8.20981Z" fill="#FF4D4E" stroke="#262262" stroke-miterlimit="10"/>
<path d="M111.526 127.229C112.557 124.382 112.469 121.741 111.329 121.329C110.189 120.917 108.428 122.891 107.397 125.737C106.365 128.584 106.454 131.225 107.594 131.637C108.734 132.049 110.495 130.076 111.526 127.229Z" stroke="#262262" stroke-miterlimit="10"/>
<path d="M102.279 125.39C101.246 125.112 95.2171 127.221 98.2409 146.824C102.363 147.883 116.458 128.939 107.824 125.976" stroke="white" stroke-miterlimit="10"/>
<path d="M25.0371 176.553C41.3562 181.115 50.8648 164.726 52.1859 158.65C53.5071 152.574 55.5633 140.775 64.5323 137.672C73.5012 134.569 81.1118 143.042 87.4106 146.786C93.7093 150.53 98.2497 146.833 98.2497 146.833C98.2497 146.833 93.1604 152.574 78.2183 149.778C64.1508 147.149 58.3917 160.546 61.0526 169.576C63.8438 179.006 65.3324 192.542 52.0185 198.757" stroke="white" stroke-miterlimit="10"/>
<path d="M148.463 31.3802C148.463 31.3802 140.555 32.2721 135.643 26.4934" stroke="#262262" stroke-miterlimit="10"/>
</svg>
