<svg width="218" height="200" viewBox="0 0 218 200" fill="none" xmlns="http://www.w3.org/2000/svg">
<path d="M146.533 182.088C146.533 182.088 147.188 183.501 142.035 187.402C136.882 191.303 135.689 190.291 135.689 190.291L32.4355 54.2804L43.2793 46.0776L146.533 182.088Z" fill="white" stroke="#262262" stroke-miterlimit="10"/>
<path d="M38.7505 51.3581C41.7943 49.054 43.7706 46.5392 43.1647 45.741C42.5588 44.9429 39.6001 46.1637 36.5562 48.4678C33.5124 50.7718 31.5361 53.2867 32.142 54.0848C32.7479 54.8829 35.7066 53.6621 38.7505 51.3581Z" fill="white" stroke="#262262" stroke-miterlimit="10"/>
<path d="M187.555 147.79C187.555 147.79 188.209 149.203 183.057 153.104C177.904 157.005 176.711 155.993 176.711 155.993L73.457 19.9826L84.3008 11.7798L187.555 147.79Z" fill="white" stroke="#262262" stroke-miterlimit="10"/>
<path d="M79.7681 17.0622C82.8119 14.7581 84.7882 12.2433 84.1823 11.4451C83.5764 10.647 80.6177 11.8678 77.5738 14.1719C74.53 16.4759 72.5537 18.9908 73.1596 19.7889C73.7655 20.587 76.7242 19.3662 79.7681 17.0622Z" fill="white" stroke="#262262" stroke-miterlimit="10"/>
</svg>
