<svg width="218" height="200" viewBox="0 0 218 200" fill="none" xmlns="http://www.w3.org/2000/svg">
<path d="M191.321 20.2986C194.812 23.9088 196.227 28.2073 194.482 29.8842C193.228 31.0924 190.668 30.6238 188.028 28.9102L149.22 66.3004L143.83 60.6033L182.58 23.2644C180.966 20.5696 180.578 17.9993 181.832 16.791C183.584 15.1141 187.83 16.6812 191.321 20.2986Z" fill="#CB84F0" stroke="#262262" stroke-miterlimit="10"/>
<path d="M143.252 78.4856L151.084 70.9359C151.084 70.9359 150.879 67.3843 146.398 62.749C142.482 58.6995 139.226 59.1754 139.226 59.1754L131.65 66.4763L143.252 78.4856Z" fill="#FF4D4E" stroke="#262262" stroke-miterlimit="10"/>
<path d="M76.7227 121.024L131.65 66.4688C131.65 66.4688 139.995 68.6656 143.251 78.4781L89.7248 133.348" fill="white"/>
<path d="M76.7227 121.024L131.65 66.4688C131.65 66.4688 139.995 68.6656 143.251 78.4781L89.7248 133.348" stroke="#262262" stroke-miterlimit="10"/>
<path d="M85.0094 124.883C89.3874 129.474 89.4681 130.975 89.7248 133.355L81.7754 134.71L77.918 137.017L69.5652 143.981C69.5652 143.981 68.8392 144.654 67.4239 143.373C66.2726 142.34 66.8079 141.132 66.8079 141.132L73.5473 133.224L75.9893 129.342L76.7153 121.024C76.7226 121.024 81.02 120.702 85.0094 124.883Z" fill="#66DCCC" stroke="#262262" stroke-miterlimit="10"/>
<path d="M21.7148 186.38L67.6146 142.15C67.6146 142.15 68.1133 142.216 68.6559 143.226L59.9952 151.567L24.2889 185.969L21.7148 186.38Z" fill="white" stroke="white" stroke-miterlimit="10" stroke-linejoin="round"/>
<path d="M134.91 80.1505C136.376 78.7379 136.395 76.3825 134.952 74.8896C133.51 73.3966 131.152 73.3314 129.686 74.744C128.22 76.1566 128.201 78.512 129.644 80.005C131.086 81.498 133.444 81.5631 134.91 80.1505Z" stroke="white" stroke-miterlimit="10"/>
<path d="M127.885 86.921C129.351 85.5084 129.37 83.153 127.927 81.66C126.484 80.1671 124.126 80.1019 122.66 81.5145C121.194 82.9271 121.175 85.2826 122.618 86.7755C124.061 88.2685 126.419 88.3336 127.885 86.921Z" stroke="#262262" stroke-miterlimit="10"/>
<path d="M86.5566 118.812L115.421 91" stroke="#262262" stroke-miterlimit="10"/>
<path d="M88.7344 121.068L99.8885 110.318" stroke="#262262" stroke-miterlimit="10"/>
<path d="M90.9199 123.323L102.074 112.573" stroke="#262262" stroke-miterlimit="10"/>
<path d="M75.9961 129.342C75.9961 129.342 77.4921 129.071 79.3621 130.916C81.2322 132.762 81.7822 134.71 81.7822 134.71" stroke="#262262" stroke-miterlimit="10"/>
<path d="M73.834 132.777C73.834 132.777 75.6307 132.637 76.9067 134.234C78.1827 135.83 77.926 137.009 77.926 137.009" stroke="#262262" stroke-miterlimit="10"/>
<path d="M66.8145 141.132C66.8145 141.132 67.8411 140.144 69.0438 141.513C69.9458 142.531 70.1805 143.468 69.5645 143.981" stroke="#262262" stroke-miterlimit="10"/>
<path d="M133.967 64.2427C133.967 64.2427 138.213 64.8212 141.674 68.4093C145.114 71.9682 146.184 74.8094 146.177 75.6662" stroke="#262262" stroke-miterlimit="10"/>
<path d="M136.658 61.6504C136.658 61.6504 140.904 62.2289 144.366 65.8171C147.805 69.3759 148.876 72.2172 148.868 73.0739" stroke="#262262" stroke-miterlimit="10"/>
<path d="M188.043 28.925L190.016 27.0211C190.016 27.0211 190.698 25.7982 188.491 23.5135C187.449 22.437 185.447 20.5112 184.553 21.3679L182.58 23.2718" stroke="#262262" stroke-miterlimit="10"/>
<path d="M146.066 62.4048L187.463 22.5103" stroke="#262262" stroke-miterlimit="10"/>
<path d="M147.174 63.5469L188.571 23.6597" stroke="#262262" stroke-miterlimit="10"/>
<path d="M161.255 43.3068C161.255 43.3068 157.867 40.0921 159.495 38.5177C161.131 36.9433 165.516 40.6487 167.195 42.3475C168.875 44.0464 173.304 48.7184 171.749 50.2195C170.224 51.6914 166.99 49.187 166.99 49.187" stroke="#262262" stroke-miterlimit="10" stroke-linejoin="round"/>
<path d="M160.617 44.4346C160.617 44.4346 155.469 39.5942 158.109 37.0532C160.463 34.7831 166.263 39.4551 168.28 41.4908C170.297 43.5265 175.489 49.3116 173.157 51.5596C170.854 53.7785 166.065 50.0731 166.065 50.0731" stroke="#262262" stroke-miterlimit="10" stroke-linejoin="round"/>
</svg>
