<svg width="218" height="200" viewBox="0 0 218 200" fill="none" xmlns="http://www.w3.org/2000/svg">
<path d="M26.8379 133.932C26.8379 133.932 34.8539 107.953 45.9338 98.2143C57.0137 88.4756 65.2523 82.4012 91.7853 75.2772C118.318 68.1533 122.487 58.0589 122.487 58.0589C122.487 58.0589 135.74 38.1724 139.383 24.6183C143.025 11.0642 191.469 54.9727 191.469 54.9727C191.469 54.9727 183.479 77.1271 167.857 102.048C157.009 119.355 116.421 142.968 108.681 172.495" fill="#66DCCC"/>
<path d="M26.8379 133.932C26.8379 133.932 34.8539 107.953 45.9338 98.2143C57.0137 88.4756 65.2523 82.4012 91.7853 75.2772C118.318 68.1533 122.487 58.0589 122.487 58.0589C122.487 58.0589 135.74 38.1724 139.383 24.6183C143.025 11.0642 191.469 54.9727 191.469 54.9727C191.469 54.9727 183.479 77.1271 167.857 102.048C157.009 119.355 116.421 142.968 108.681 172.495" stroke="#262262" stroke-miterlimit="10"/>
<path d="M191.75 54.533C195.361 48.5569 186.721 36.743 172.452 28.146C158.183 19.549 143.688 17.4244 140.077 23.4005C136.466 29.3766 145.106 41.1904 159.376 49.7874C173.645 58.3844 188.139 60.5091 191.75 54.533Z" fill="#66DCCC" stroke="#262262" stroke-miterlimit="10"/>
<path d="M187.684 51.3917C190.027 47.5142 182.315 38.5802 170.459 31.4372C158.603 24.2942 147.093 21.647 144.75 25.5245C142.407 29.402 150.119 38.336 161.975 45.479C173.831 52.622 185.341 55.2692 187.684 51.3917Z" fill="#66DCCC" stroke="#262262" stroke-miterlimit="10"/>
<path d="M108.205 173.503C112.461 164.499 97.5917 148.567 74.9945 137.917C52.3973 127.268 30.6289 125.933 26.3733 134.937C22.1178 143.94 36.9866 159.873 59.5838 170.522C82.181 181.172 103.949 182.506 108.205 173.503Z" fill="#66DCCC" stroke="#262262" stroke-miterlimit="10"/>
<path d="M101.299 170.202C104.253 163.952 91.4305 151.714 72.6588 142.867C53.8871 134.02 36.2751 131.915 33.3212 138.164C30.3673 144.414 43.1901 156.652 61.9618 165.499C80.7335 174.346 98.3455 176.451 101.299 170.202Z" fill="#66DCCC" stroke="white" stroke-miterlimit="10"/>
<path d="M158.122 100.625C156.715 100.269 155.201 99.3172 158.639 94.6924C161.053 91.4462 161.72 90.8948 162.736 90.2011C163.751 89.5163 167.1 88.9026 166.468 92.0154C165.844 95.1371 160.759 101.3 158.122 100.625Z" fill="white" stroke="white" stroke-miterlimit="10"/>
<path d="M119.084 137.418C119.084 137.418 115.495 135.933 118.773 129.085C122.041 122.236 136.337 113.156 136.337 113.156C136.337 113.156 145.662 107.33 147.363 106.228C149.064 105.125 151.923 103.053 153.678 104.671C155.432 106.29 151.941 110.657 149.305 112.64C146.668 114.623 140.977 117.976 138.822 120.724C135.268 125.243 131.01 130.917 127.368 134.145C122.683 138.299 121.195 138.21 119.084 137.418Z" fill="white" stroke="#262262" stroke-miterlimit="10"/>
</svg>
