<svg width="29" height="29" viewBox="0 0 29 29" fill="none" xmlns="http://www.w3.org/2000/svg">
<path d="M9.15238 27.0056C-0.00924361 23.0127 0.462249 15.3329 1.60853 10.9859C1.86819 9.99426 2.20947 9.0227 2.62937 8.07981V8.04761C2.68993 7.93089 2.75049 7.81818 2.81538 7.70146C4.13409 5.3211 6.24742 3.4033 8.83777 2.23626C11.4281 1.06922 14.3556 0.716005 17.1801 1.22969C20.0047 1.74337 22.5738 3.09619 24.5013 5.08486C26.4289 7.07353 27.6107 9.59061 27.8693 12.2578C29.3227 22.1795 18.3746 31.0306 9.15238 27.0056Z" fill="white" stroke="#262262" stroke-miterlimit="10"/>
<path d="M14.7287 25.4286C22.0582 25.4286 27.9999 19.96 27.9999 13.2143C27.9999 6.46852 22.0582 1 14.7287 1C7.39924 1 1.45752 6.46852 1.45752 13.2143C1.45752 19.96 7.39924 25.4286 14.7287 25.4286Z" stroke="#262262" stroke-miterlimit="10"/>
<path d="M20.2205 1.85693L4.66113 21.9387V24.5712" stroke="#262262" stroke-miterlimit="10"/>
<path d="M23.424 4.42871L8.32227 23.934V26.2859" stroke="#262262" stroke-miterlimit="10"/>
</svg>
