<svg width="29" height="29" viewBox="0 0 29 29" fill="none" xmlns="http://www.w3.org/2000/svg">
<path d="M17.9 2.71203C17.9 2.71203 18.3785 3.16327 19.2011 2.28622C20.0236 1.40918 20.8312 0.563919 22.3118 1.25242C23.7923 1.94092 22.5162 3.84753 23.2814 4.61229C24.0466 5.37917 25.4748 4.53815 26.7884 6.23291C28.1044 7.92556 26.2924 8.41916 25.9758 9.15215C25.6593 9.88513 24.8243 10.7961 26.422 11.9358C28.0197 13.0755 28.2041 13.8869 27.8452 14.7195C27.4863 15.552 26.1652 16.3507 25.3228 16.6536C24.4803 16.9587 24.074 17.9035 24.5526 18.6492C25.0311 19.3949 25.6169 20.3058 24.8043 21.3693C23.9917 22.4328 22.8028 21.4752 22.0426 22.0048C21.2824 22.5344 20.7315 23.1933 21.2674 24.1169C21.8033 25.0385 21.407 25.8604 20.4424 26.2396C19.4777 26.6188 18.6876 25.4664 17.7429 26.0045C16.8008 26.5426 17.1821 27.7183 15.6941 27.9746C14.206 28.2289 13.8446 26.4917 12.1721 26.3498C10.4996 26.2078 10.198 27.7374 8.90935 27.9407C7.62071 28.1441 5.86596 27.3709 5.92328 26.1062C5.98061 24.8393 5.13564 24.4262 3.97162 24.1381C2.8076 23.85 1.49902 23.4814 1.07777 21.8777C0.656535 20.274 2.05984 20.219 2.57081 19.1322C3.08178 18.0454 1.53142 17.4162 1.34448 16.715C1.15754 16.0117 2.2044 13.9949 3.91429 14.1496C5.62418 14.3042 6.77574 14.1093 6.87793 13.1518C6.98012 12.1943 4.86146 11.9506 5.17552 10.4995C5.48958 9.04834 7.76528 9.64363 8.11423 9.14791C8.4607 8.65219 8.81464 8.34501 8.18901 7.31968C7.56338 6.29435 7.07733 5.05293 8.45571 4.11869C9.83409 3.18445 10.3401 3.87083 11.5515 3.94498C12.7628 4.01912 12.6856 3.5806 12.9847 2.99379C13.2813 2.40698 13.3785 1.40495 14.9338 1.18251C15.9333 1.04269 17.0799 1.26513 17.9 2.71203Z" fill="#FFF000" stroke="#262262" stroke-miterlimit="10"/>
<path d="M10.4423 7.89357C10.4423 7.89357 13.1094 2.82833 18.7201 4.16084C25.3378 5.73274 24.605 12.8465 24.1414 14.3019C23.6753 15.7573 20.6692 24.1443 14.5625 25.2628C8.45578 26.3792 3.55543 23.3986 4.34557 19.0684C5.11327 14.8569 8.15169 15.7721 9.40294 13.5583C10.542 11.5352 9.47024 10.1497 10.4423 7.89357Z" fill="#2AD575" stroke="#262262" stroke-miterlimit="10"/>
<path d="M19.9141 10.4964C20.5034 9.12734 19.7498 7.6346 18.2308 7.16224C16.7118 6.68988 15.0027 7.41677 14.4133 8.7858C13.824 10.1548 14.5776 11.6476 16.0966 12.1199C17.6156 12.5923 19.3247 11.8654 19.9141 10.4964Z" fill="#FFF000" stroke="#262262" stroke-miterlimit="10"/>
<path d="M18.6053 17.1471C19.6914 17.1471 20.5719 16.3988 20.5719 15.4757C20.5719 14.5525 19.6914 13.8042 18.6053 13.8042C17.5192 13.8042 16.6387 14.5525 16.6387 15.4757C16.6387 16.3988 17.5192 17.1471 18.6053 17.1471Z" fill="#FFF000" stroke="#262262" stroke-miterlimit="10"/>
<path d="M15.7263 21.4477C16.639 21.4477 17.3788 20.8189 17.3788 20.0432C17.3788 19.2675 16.639 18.6387 15.7263 18.6387C14.8136 18.6387 14.0737 19.2675 14.0737 20.0432C14.0737 20.8189 14.8136 21.4477 15.7263 21.4477Z" fill="#FFF000" stroke="#262262" stroke-miterlimit="10"/>
<path d="M9.97378 23.8902C11.0819 23.8902 11.9803 23.1267 11.9803 22.1848C11.9803 21.243 11.0819 20.4795 9.97378 20.4795C8.86563 20.4795 7.96729 21.243 7.96729 22.1848C7.96729 23.1267 8.86563 23.8902 9.97378 23.8902Z" fill="#FFF000" stroke="#262262" stroke-miterlimit="10"/>
<path d="M13.6628 17.9049C14.2167 16.6183 13.4951 15.2112 12.0511 14.7622C10.607 14.3131 8.98743 14.9921 8.43355 16.2788C7.87967 17.5654 8.60127 18.9724 10.0453 19.4215C11.4893 19.8705 13.1089 19.1915 13.6628 17.9049Z" fill="#FFF000" stroke="#262262" stroke-miterlimit="10"/>
<path d="M12.4985 13.2132C13.1951 13.2132 13.7598 12.7333 13.7598 12.1413C13.7598 11.5493 13.1951 11.0693 12.4985 11.0693C11.802 11.0693 11.2373 11.5493 11.2373 12.1413C11.2373 12.7333 11.802 13.2132 12.4985 13.2132Z" fill="#FFF000" stroke="#262262" stroke-miterlimit="10"/>
</svg>
