<svg width="29" height="29" viewBox="0 0 29 29" fill="none" xmlns="http://www.w3.org/2000/svg">
<path d="M14.5 28.0001C21.9558 28.0001 28 21.9594 28 14.5079C28 7.05631 21.9558 1.01562 14.5 1.01562C7.04416 1.01562 1 7.05631 1 14.5079C1 21.9594 7.04416 28.0001 14.5 28.0001Z" fill="#FFF000"/>
<path d="M9.83928 13.9427C10.3255 13.9427 10.7196 13.5488 10.7196 13.0629C10.7196 12.577 10.3255 12.1831 9.83928 12.1831C9.35311 12.1831 8.95898 12.577 8.95898 13.0629C8.95898 13.5488 9.35311 13.9427 9.83928 13.9427Z" fill="#262262"/>
<path d="M19.2734 13.8445C19.7595 13.8445 20.1537 13.4506 20.1537 12.9648C20.1537 12.4789 19.7595 12.085 19.2734 12.085C18.7872 12.085 18.3931 12.4789 18.3931 12.9648C18.3931 13.4506 18.7872 13.8445 19.2734 13.8445Z" fill="#262262"/>
<path d="M8.49951 17.738C8.49951 17.738 14.3852 13.9319 20.9619 17.738" stroke="#262262" stroke-miterlimit="10"/>
<path d="M6.12012 4.03933L27.7682 12.8797C27.7682 12.8797 27.5364 8.2279 23.5772 4.73636C23.4964 4.66623 13.9067 1.01318 13.9067 1.01318C13.9067 1.01318 8.68021 1.48071 6.12012 4.03933Z" fill="white"/>
<path d="M1.01465 13.8447L21.9079 3.22771C21.9079 3.22771 17.7573 0.783848 14.4998 1.01548L3.23878 7.06352C3.23878 7.06352 1.4952 9.69014 1.01465 13.8447Z" fill="white"/>
<path d="M14.5 28.0001C21.9558 28.0001 28 21.9594 28 14.5079C28 7.05631 21.9558 1.01562 14.5 1.01562C7.04416 1.01562 1 7.05631 1 14.5079C1 21.9594 7.04416 28.0001 14.5 28.0001Z" stroke="#262262" stroke-miterlimit="10"/>
<path d="M1.11475 13.9255L21.8315 3.22559" stroke="#262262" stroke-miterlimit="10"/>
<path d="M3.23926 7.06369L15.3976 1.04541" stroke="#262262" stroke-miterlimit="10"/>
<path d="M6.12012 4.03955L7.88921 4.76208" stroke="#262262" stroke-miterlimit="10"/>
<path d="M14.0132 7.26318L27.7683 12.8798" stroke="#262262" stroke-miterlimit="10"/>
<path d="M20.8916 3.68457L23.9259 4.85338" stroke="#262262" stroke-miterlimit="10"/>
<path d="M1.58008 10.9016L19.0372 1.82959" stroke="#262262" stroke-miterlimit="10"/>
<path d="M17.4961 5.48242L26.9518 9.50524" stroke="#262262" stroke-miterlimit="10"/>
<path d="M11.6444 2.9025L9.60742 1.9292" stroke="#262262" stroke-miterlimit="10"/>
</svg>
