<svg width="29" height="29" viewBox="0 0 29 29" fill="none" xmlns="http://www.w3.org/2000/svg">
<path d="M14.5 1C7.04391 1 1 7.04347 1 14.499C1 21.9565 7.04391 28 14.5 28C21.9561 28 28 21.9565 28 14.499C28 7.04347 21.9561 1 14.5 1ZM2.99014 14.499C2.99014 8.14373 8.14227 2.99 14.5 2.99C17.3124 2.99 19.8885 3.99691 21.8866 5.6751L5.9833 22.2405C4.12425 20.1969 2.99014 17.48 2.99014 14.499ZM14.5 26.008C11.8941 26.008 9.49088 25.1421 7.56231 23.6804L23.5053 7.33144C25.0724 9.29761 26.0079 11.7881 26.0079 14.497C26.0079 20.8543 20.8557 26.008 14.5 26.008Z" fill="#FF4D4E" stroke="#262262" stroke-miterlimit="10"/>
</svg>
