<svg width="375" height="812" viewBox="0 0 375 812" fill="none" xmlns="http://www.w3.org/2000/svg">
<g opacity="0.4">
<g style="mix-blend-mode:multiply" opacity="0.2">
<path d="M158.431 188.378C207.074 108.75 189.335 37.3117 186.641 0H0V812H71.5978H159.285C89.4302 527.8 127.274 239.383 158.431 188.378Z" fill="#262262"/>
</g>
<g style="mix-blend-mode:multiply" opacity="0.2">
<path d="M342.267 220.452C336.321 52.4368 240.634 143.534 198 0H375V812H273.807C241.882 661.696 349.7 430.472 342.267 220.452Z" fill="#262262"/>
</g>
<mask id="mask0_323_66731" style="mask-type:alpha" maskUnits="userSpaceOnUse" x="0" y="0" width="203" height="158">
<rect y="3.05176e-05" width="202.065" height="158" fill="#C4C4C4"/>
</mask>
<g mask="url(#mask0_323_66731)">
<g style="mix-blend-mode:multiply" opacity="0.2">
<path fill-rule="evenodd" clip-rule="evenodd" d="M-56.6853 117.42C-58.1911 105.861 -41.446 91.4213 -32.1724 77.7937C-22.6587 63.8132 -27.9346 46.0689 -1.73819 36.6749C28.4548 25.8477 42.5531 48.8243 73.3517 39.9528C112.517 28.6714 136.576 -12.3325 171.406 -13.199C202.59 -13.9747 162.614 19.9973 153.497 37.959C148.951 46.9136 137.18 55.8986 131.728 64.9673C125.649 75.0786 129.185 83.3968 119.976 93.716C103.431 112.253 92.3716 135.267 58.0292 147.543C25.6583 159.116 -1.66855 150.689 -23.4198 144.978C-42.7084 139.912 -54.9932 130.407 -56.6853 117.42Z" fill="#262262"/>
</g>
</g>
<mask id="mask1_323_66731" style="mask-type:alpha" maskUnits="userSpaceOnUse" x="0" y="701" width="175" height="112">
<rect y="701" width="174.702" height="111" fill="#C4C4C4"/>
</mask>
<g mask="url(#mask1_323_66731)">
<g style="mix-blend-mode:multiply" opacity="0.2">
<path fill-rule="evenodd" clip-rule="evenodd" d="M55.6729 720.295C41.1628 723.365 29.6162 730.988 18.6505 740.147C6.96416 749.907 -3.63574 765.385 -2.82722 779.785C-2.02766 794.025 15.0945 801.717 27.7626 810.142C37.8372 816.842 48.7054 822.342 61.1928 822.36C73.7011 822.378 85.4114 817.815 94.7309 810.24C104.662 802.166 109.983 791.443 113.567 779.785C119.152 761.618 134.513 739.835 120.708 725.741C107.001 711.747 75.7594 716.045 55.6729 720.295Z" fill="#262262"/>
</g>
</g>
</g>
</svg>
