<svg width="218" height="200" viewBox="0 0 218 200" fill="none" xmlns="http://www.w3.org/2000/svg">
<path d="M48.2332 32.3667C48.3838 30.9103 49.6917 29.8486 51.1501 30.0177L179.09 44.3463C180.548 44.506 181.612 45.8308 181.452 47.2872L168.335 167.488C168.175 168.944 166.858 170.006 165.399 169.837L38.4474 155.621C36.989 155.461 35.9163 154.127 36.0668 152.671L48.2332 32.3667Z" fill="#F78F2D"/>
<path d="M48.2332 32.3667C48.3838 30.9103 49.6917 29.8486 51.1501 30.0177L179.09 44.3463C180.548 44.506 181.612 45.8308 181.452 47.2872L168.335 167.488C168.175 168.944 166.858 170.006 165.399 169.837L38.4474 155.621C36.989 155.461 35.9163 154.127 36.0668 152.671L48.2332 32.3667Z" stroke="#262262" stroke-miterlimit="10"/>
<path d="M61.1052 37.1963C68.5575 37.5722 164.552 48.6592 167.488 49.176C170.433 49.6834 176.211 50.1531 175.59 58.1584C174.969 66.1636 164.778 154.447 164.778 154.447C164.778 154.447 163.743 164.077 152.48 162.536C141.217 160.995 51.0936 151.186 51.0936 151.186C51.0936 151.186 41.957 150.153 42.7945 140.221C43.6319 130.29 51.931 49.9558 52.138 47.1089C52.3356 44.2714 53.6529 36.8205 61.1052 37.1963Z" fill="#FFF000"/>
<path d="M61.782 48.7249C62.4835 48.7249 63.0523 48.157 63.0523 47.4564C63.0523 46.7559 62.4835 46.188 61.782 46.188C61.0804 46.188 60.5117 46.7559 60.5117 47.4564C60.5117 48.157 61.0804 48.7249 61.782 48.7249Z" fill="#F18D1B"/>
<path d="M61.2163 59.3422C61.2163 59.7659 60.8721 60.1106 60.446 60.1106C60.02 60.1106 59.6758 59.7659 59.6758 59.3422C59.6758 58.9184 60.02 58.5737 60.446 58.5737C60.8721 58.5737 61.2163 58.9184 61.2163 59.3422Z" fill="#F78F2D" stroke="white"/>
<path d="M59.8901 71.162C59.8901 71.5857 59.546 71.9304 59.1199 71.9304C58.6938 71.9304 58.3496 71.5857 58.3496 71.162C58.3496 70.7383 58.6938 70.3936 59.1199 70.3936C59.546 70.3936 59.8901 70.7383 59.8901 71.162Z" fill="#F78F2D" stroke="white"/>
<path d="M57.7937 84.2503C58.4953 84.2503 59.064 83.6824 59.064 82.9818C59.064 82.2813 58.4953 81.7134 57.7937 81.7134C57.0922 81.7134 56.5234 82.2813 56.5234 82.9818C56.5234 83.6824 57.0922 84.2503 57.7937 84.2503Z" fill="#F78F2D"/>
<path d="M56.4578 96.136C57.1593 96.136 57.7281 95.5681 57.7281 94.8676C57.7281 94.167 57.1593 93.5991 56.4578 93.5991C55.7562 93.5991 55.1875 94.167 55.1875 94.8676C55.1875 95.5681 55.7562 96.136 56.4578 96.136Z" fill="#F78F2D"/>
<path d="M55.1296 107.956C55.8312 107.956 56.3999 107.388 56.3999 106.687C56.3999 105.987 55.8312 105.419 55.1296 105.419C54.4281 105.419 53.8594 105.987 53.8594 106.687C53.8594 107.388 54.4281 107.956 55.1296 107.956Z" fill="#F78F2D"/>
<path d="M53.8972 118.94C54.5988 118.94 55.1675 118.372 55.1675 117.671C55.1675 116.971 54.5988 116.403 53.8972 116.403C53.1957 116.403 52.627 116.971 52.627 117.671C52.627 118.372 53.1957 118.94 53.8972 118.94Z" fill="#F78F2D"/>
<path d="M52.5613 130.825C53.2628 130.825 53.8316 130.258 53.8316 129.557C53.8316 128.856 53.2628 128.289 52.5613 128.289C51.8597 128.289 51.291 128.856 51.291 129.557C51.291 130.258 51.8597 130.825 52.5613 130.825Z" fill="#F78F2D"/>
<path d="M51.2351 142.645C51.9367 142.645 52.5054 142.077 52.5054 141.377C52.5054 140.676 51.9367 140.108 51.2351 140.108C50.5336 140.108 49.9648 140.676 49.9648 141.377C49.9648 142.077 50.5336 142.645 51.2351 142.645Z" fill="#F78F2D"/>
<path d="M73.7605 50.0686C74.4621 50.0686 75.0308 49.5007 75.0308 48.8002C75.0308 48.0996 74.4621 47.5317 73.7605 47.5317C73.059 47.5317 72.4902 48.0996 72.4902 48.8002C72.4902 49.5007 73.059 50.0686 73.7605 50.0686Z" fill="#F78F2D"/>
<path d="M72.4246 61.9539C73.1261 61.9539 73.6948 61.386 73.6948 60.6854C73.6948 59.9849 73.1261 59.417 72.4246 59.417C71.723 59.417 71.1543 59.9849 71.1543 60.6854C71.1543 61.386 71.723 61.9539 72.4246 61.9539Z" fill="#F78F2D"/>
<path d="M71.0984 73.7742C71.8 73.7742 72.3687 73.2063 72.3687 72.5057C72.3687 71.8052 71.8 71.2373 71.0984 71.2373C70.3968 71.2373 69.8281 71.8052 69.8281 72.5057C69.8281 73.2063 70.3968 73.7742 71.0984 73.7742Z" fill="#F78F2D"/>
<path d="M69.7722 85.594C70.4738 85.594 71.0425 85.0261 71.0425 84.3256C71.0425 83.625 70.4738 83.0571 69.7722 83.0571C69.0707 83.0571 68.502 83.625 68.502 84.3256C68.502 85.0261 69.0707 85.594 69.7722 85.594Z" fill="#F78F2D"/>
<path d="M68.4343 97.4797C69.1359 97.4797 69.7046 96.9118 69.7046 96.2113C69.7046 95.5108 69.1359 94.9429 68.4343 94.9429C67.7328 94.9429 67.1641 95.5108 67.1641 96.2113C67.1641 96.9118 67.7328 97.4797 68.4343 97.4797Z" fill="#F78F2D"/>
<path d="M67.1082 109.3C67.8097 109.3 68.3784 108.732 68.3784 108.031C68.3784 107.331 67.8097 106.763 67.1082 106.763C66.4066 106.763 65.8379 107.331 65.8379 108.031C65.8379 108.732 66.4066 109.3 67.1082 109.3Z" fill="#F78F2D"/>
<path d="M65.8757 120.283C66.5773 120.283 67.146 119.715 67.146 119.015C67.146 118.314 66.5773 117.746 65.8757 117.746C65.1742 117.746 64.6055 118.314 64.6055 119.015C64.6055 119.715 65.1742 120.283 65.8757 120.283Z" fill="#F78F2D"/>
<path d="M64.5398 132.169C65.2414 132.169 65.8101 131.601 65.8101 130.9C65.8101 130.2 65.2414 129.632 64.5398 129.632C63.8383 129.632 63.2695 130.2 63.2695 130.9C63.2695 131.601 63.8383 132.169 64.5398 132.169Z" fill="#F78F2D"/>
<path d="M63.2136 143.989C63.9152 143.989 64.4839 143.421 64.4839 142.721C64.4839 142.02 63.9152 141.452 63.2136 141.452C62.5121 141.452 61.9434 142.02 61.9434 142.721C61.9434 143.421 62.5121 143.989 63.2136 143.989Z" fill="#F78F2D"/>
<path d="M86.1726 51.4587C86.8742 51.4587 87.4429 50.8908 87.4429 50.1903C87.4429 49.4898 86.8742 48.9219 86.1726 48.9219C85.4711 48.9219 84.9023 49.4898 84.9023 50.1903C84.9023 50.8908 85.4711 51.4587 86.1726 51.4587Z" fill="#F78F2D"/>
<path d="M84.8367 63.3445C85.5382 63.3445 86.107 62.7766 86.107 62.0761C86.107 61.3755 85.5382 60.8076 84.8367 60.8076C84.1351 60.8076 83.5664 61.3755 83.5664 62.0761C83.5664 62.7766 84.1351 63.3445 84.8367 63.3445Z" fill="#F78F2D"/>
<path d="M83.5086 75.1643C84.2101 75.1643 84.7788 74.5964 84.7788 73.8959C84.7788 73.1953 84.2101 72.6274 83.5086 72.6274C82.807 72.6274 82.2383 73.1953 82.2383 73.8959C82.2383 74.5964 82.807 75.1643 83.5086 75.1643Z" fill="#F78F2D"/>
<path d="M82.1824 86.9846C82.8839 86.9846 83.4527 86.4167 83.4527 85.7162C83.4527 85.0156 82.8839 84.4478 82.1824 84.4478C81.4808 84.4478 80.9121 85.0156 80.9121 85.7162C80.9121 86.4167 81.4808 86.9846 82.1824 86.9846Z" fill="#F78F2D"/>
<path d="M80.8465 98.8704C81.548 98.8704 82.1167 98.3025 82.1167 97.6019C82.1167 96.9014 81.548 96.3335 80.8465 96.3335C80.1449 96.3335 79.5762 96.9014 79.5762 97.6019C79.5762 98.3025 80.1449 98.8704 80.8465 98.8704Z" fill="#F78F2D"/>
<path d="M79.5203 110.69C80.2218 110.69 80.7905 110.122 80.7905 109.422C80.7905 108.721 80.2218 108.153 79.5203 108.153C78.8187 108.153 78.25 108.721 78.25 109.422C78.25 110.122 78.8187 110.69 79.5203 110.69Z" fill="#F78F2D"/>
<path d="M78.2878 121.674C78.9894 121.674 79.5581 121.106 79.5581 120.405C79.5581 119.705 78.9894 119.137 78.2878 119.137C77.5863 119.137 77.0176 119.705 77.0176 120.405C77.0176 121.106 77.5863 121.674 78.2878 121.674Z" fill="#F78F2D"/>
<path d="M76.95 133.55C77.6515 133.55 78.2202 132.982 78.2202 132.282C78.2202 131.581 77.6515 131.013 76.95 131.013C76.2484 131.013 75.6797 131.581 75.6797 132.282C75.6797 132.982 76.2484 133.55 76.95 133.55Z" fill="#F78F2D"/>
<path d="M75.6238 145.37C76.3253 145.37 76.8941 144.802 76.8941 144.101C76.8941 143.401 76.3253 142.833 75.6238 142.833C74.9222 142.833 74.3535 143.401 74.3535 144.101C74.3535 144.802 74.9222 145.37 75.6238 145.37Z" fill="#F78F2D"/>
<path d="M97.8582 52.7649C98.5597 52.7649 99.1284 52.197 99.1284 51.4965C99.1284 50.7959 98.5597 50.228 97.8582 50.228C97.1566 50.228 96.5879 50.7959 96.5879 51.4965C96.5879 52.197 97.1566 52.7649 97.8582 52.7649Z" fill="#F78F2D"/>
<path d="M96.5222 64.6506C97.2238 64.6506 97.7925 64.0827 97.7925 63.3822C97.7925 62.6817 97.2238 62.1138 96.5222 62.1138C95.8207 62.1138 95.252 62.6817 95.252 63.3822C95.252 64.0827 95.8207 64.6506 96.5222 64.6506Z" fill="#F78F2D"/>
<path d="M95.1961 76.4705C95.8976 76.4705 96.4663 75.9026 96.4663 75.202C96.4663 74.5015 95.8976 73.9336 95.1961 73.9336C94.4945 73.9336 93.9258 74.5015 93.9258 75.202C93.9258 75.9026 94.4945 76.4705 95.1961 76.4705Z" fill="#F78F2D"/>
<path d="M93.8679 88.2903C94.5695 88.2903 95.1382 87.7224 95.1382 87.0219C95.1382 86.3213 94.5695 85.7534 93.8679 85.7534C93.1664 85.7534 92.5977 86.3213 92.5977 87.0219C92.5977 87.7224 93.1664 88.2903 93.8679 88.2903Z" fill="#F78F2D"/>
<path d="M92.532 100.176C93.2336 100.176 93.8023 99.6081 93.8023 98.9076C93.8023 98.2071 93.2336 97.6392 92.532 97.6392C91.8304 97.6392 91.2617 98.2071 91.2617 98.9076C91.2617 99.6081 91.8304 100.176 92.532 100.176Z" fill="#F78F2D"/>
<path d="M91.2058 111.996C91.9074 111.996 92.4761 111.428 92.4761 110.727C92.4761 110.027 91.9074 109.459 91.2058 109.459C90.5043 109.459 89.9355 110.027 89.9355 110.727C89.9355 111.428 90.5043 111.996 91.2058 111.996Z" fill="#F78F2D"/>
<path d="M89.9734 122.98C90.6749 122.98 91.2437 122.412 91.2437 121.711C91.2437 121.011 90.6749 120.443 89.9734 120.443C89.2718 120.443 88.7031 121.011 88.7031 121.711C88.7031 122.412 89.2718 122.98 89.9734 122.98Z" fill="#F78F2D"/>
<path d="M88.6375 134.865C89.339 134.865 89.9077 134.298 89.9077 133.597C89.9077 132.897 89.339 132.329 88.6375 132.329C87.9359 132.329 87.3672 132.897 87.3672 133.597C87.3672 134.298 87.9359 134.865 88.6375 134.865Z" fill="#F78F2D"/>
<path d="M87.3113 146.685C88.0128 146.685 88.5816 146.117 88.5816 145.417C88.5816 144.716 88.0128 144.148 87.3113 144.148C86.6097 144.148 86.041 144.716 86.041 145.417C86.041 146.117 86.6097 146.685 87.3113 146.685Z" fill="#F78F2D"/>
<path d="M109.837 54.1086C110.538 54.1086 111.107 53.5407 111.107 52.8402C111.107 52.1397 110.538 51.5718 109.837 51.5718C109.135 51.5718 108.566 52.1397 108.566 52.8402C108.566 53.5407 109.135 54.1086 109.837 54.1086Z" fill="#F78F2D"/>
<path d="M108.501 65.9944C109.202 65.9944 109.771 65.4265 109.771 64.726C109.771 64.0254 109.202 63.4575 108.501 63.4575C107.799 63.4575 107.23 64.0254 107.23 64.726C107.23 65.4265 107.799 65.9944 108.501 65.9944Z" fill="#F78F2D"/>
<path d="M107.175 77.8142C107.876 77.8142 108.445 77.2463 108.445 76.5458C108.445 75.8452 107.876 75.2773 107.175 75.2773C106.473 75.2773 105.904 75.8452 105.904 76.5458C105.904 77.2463 106.473 77.8142 107.175 77.8142Z" fill="#F78F2D"/>
<path d="M105.846 89.634C106.548 89.634 107.117 89.0661 107.117 88.3656C107.117 87.6651 106.548 87.0972 105.846 87.0972C105.145 87.0972 104.576 87.6651 104.576 88.3656C104.576 89.0661 105.145 89.634 105.846 89.634Z" fill="#F78F2D"/>
<path d="M104.511 101.52C105.212 101.52 105.781 100.952 105.781 100.251C105.781 99.5508 105.212 98.9829 104.511 98.9829C103.809 98.9829 103.24 99.5508 103.24 100.251C103.24 100.952 103.809 101.52 104.511 101.52Z" fill="#F78F2D"/>
<path d="M103.184 113.34C103.886 113.34 104.455 112.772 104.455 112.071C104.455 111.371 103.886 110.803 103.184 110.803C102.483 110.803 101.914 111.371 101.914 112.071C101.914 112.772 102.483 113.34 103.184 113.34Z" fill="#F78F2D"/>
<path d="M101.952 124.323C102.653 124.323 103.222 123.756 103.222 123.055C103.222 122.355 102.653 121.787 101.952 121.787C101.25 121.787 100.682 122.355 100.682 123.055C100.682 123.756 101.25 124.323 101.952 124.323Z" fill="#F78F2D"/>
<path d="M100.616 136.199C101.318 136.199 101.886 135.632 101.886 134.931C101.886 134.23 101.318 133.663 100.616 133.663C99.9144 133.663 99.3457 134.23 99.3457 134.931C99.3457 135.632 99.9144 136.199 100.616 136.199Z" fill="#F78F2D"/>
<path d="M99.2878 148.029C99.9894 148.029 100.558 147.461 100.558 146.761C100.558 146.06 99.9894 145.492 99.2878 145.492C98.5863 145.492 98.0176 146.06 98.0176 146.761C98.0176 147.461 98.5863 148.029 99.2878 148.029Z" fill="#F78F2D"/>
<path d="M122.247 55.4993C122.948 55.4993 123.517 54.9314 123.517 54.2308C123.517 53.5303 122.948 52.9624 122.247 52.9624C121.545 52.9624 120.977 53.5303 120.977 54.2308C120.977 54.9314 121.545 55.4993 122.247 55.4993Z" fill="#F78F2D"/>
<path d="M120.911 67.385C121.612 67.385 122.181 66.8171 122.181 66.1166C122.181 65.416 121.612 64.8481 120.911 64.8481C120.209 64.8481 119.641 65.416 119.641 66.1166C119.641 66.8171 120.209 67.385 120.911 67.385Z" fill="#F78F2D"/>
<path d="M119.585 79.2048C120.286 79.2048 120.855 78.6369 120.855 77.9364C120.855 77.2359 120.286 76.668 119.585 76.668C118.883 76.668 118.314 77.2359 118.314 77.9364C118.314 78.6369 118.883 79.2048 119.585 79.2048Z" fill="#F78F2D"/>
<path d="M118.259 91.0247C118.96 91.0247 119.529 90.4568 119.529 89.7562C119.529 89.0557 118.96 88.4878 118.259 88.4878C117.557 88.4878 116.988 89.0557 116.988 89.7562C116.988 90.4568 117.557 91.0247 118.259 91.0247Z" fill="#F78F2D"/>
<path d="M116.923 102.91C117.624 102.91 118.193 102.343 118.193 101.642C118.193 100.941 117.624 100.374 116.923 100.374C116.221 100.374 115.652 100.941 115.652 101.642C115.652 102.343 116.221 102.91 116.923 102.91Z" fill="#F78F2D"/>
<path d="M115.594 114.73C116.296 114.73 116.865 114.162 116.865 113.462C116.865 112.761 116.296 112.193 115.594 112.193C114.893 112.193 114.324 112.761 114.324 113.462C114.324 114.162 114.893 114.73 115.594 114.73Z" fill="#F78F2D"/>
<path d="M114.362 125.714C115.064 125.714 115.632 125.146 115.632 124.446C115.632 123.745 115.064 123.177 114.362 123.177C113.661 123.177 113.092 123.745 113.092 124.446C113.092 125.146 113.661 125.714 114.362 125.714Z" fill="#F78F2D"/>
<path d="M113.026 137.59C113.728 137.59 114.296 137.022 114.296 136.322C114.296 135.621 113.728 135.053 113.026 135.053C112.325 135.053 111.756 135.621 111.756 136.322C111.756 137.022 112.325 137.59 113.026 137.59Z" fill="#F78F2D"/>
<path d="M111.7 149.41C112.402 149.41 112.97 148.842 112.97 148.141C112.97 147.441 112.402 146.873 111.7 146.873C110.998 146.873 110.43 147.441 110.43 148.141C110.43 148.842 110.998 149.41 111.7 149.41Z" fill="#F78F2D"/>
<path d="M132.909 56.6926C133.61 56.6926 134.179 56.1247 134.179 55.4242C134.179 54.7237 133.61 54.1558 132.909 54.1558C132.207 54.1558 131.639 54.7237 131.639 55.4242C131.639 56.1247 132.207 56.6926 132.909 56.6926Z" fill="#F78F2D"/>
<path d="M131.573 68.5779C132.275 68.5779 132.843 68.01 132.843 67.3095C132.843 66.6089 132.275 66.041 131.573 66.041C130.871 66.041 130.303 66.6089 130.303 67.3095C130.303 68.01 130.871 68.5779 131.573 68.5779Z" fill="#F78F2D"/>
<path d="M130.245 80.3982C130.946 80.3982 131.515 79.8303 131.515 79.1298C131.515 78.4292 130.946 77.8613 130.245 77.8613C129.543 77.8613 128.975 78.4292 128.975 79.1298C128.975 79.8303 129.543 80.3982 130.245 80.3982Z" fill="#F78F2D"/>
<path d="M128.919 92.218C129.62 92.218 130.189 91.6501 130.189 90.9496C130.189 90.249 129.62 89.6812 128.919 89.6812C128.217 89.6812 127.648 90.249 127.648 90.9496C127.648 91.6501 128.217 92.218 128.919 92.218Z" fill="#F78F2D"/>
<path d="M127.583 104.104C128.284 104.104 128.853 103.536 128.853 102.835C128.853 102.135 128.284 101.567 127.583 101.567C126.881 101.567 126.312 102.135 126.312 102.835C126.312 103.536 126.881 104.104 127.583 104.104Z" fill="#F78F2D"/>
<path d="M126.257 115.924C126.958 115.924 127.527 115.356 127.527 114.655C127.527 113.955 126.958 113.387 126.257 113.387C125.555 113.387 124.986 113.955 124.986 114.655C124.986 115.356 125.555 115.924 126.257 115.924Z" fill="#F78F2D"/>
<path d="M125.024 126.907C125.726 126.907 126.294 126.34 126.294 125.639C126.294 124.938 125.726 124.371 125.024 124.371C124.323 124.371 123.754 124.938 123.754 125.639C123.754 126.34 124.323 126.907 125.024 126.907Z" fill="#F78F2D"/>
<path d="M123.688 138.793C124.39 138.793 124.959 138.225 124.959 137.524C124.959 136.824 124.39 136.256 123.688 136.256C122.987 136.256 122.418 136.824 122.418 137.524C122.418 138.225 122.987 138.793 123.688 138.793Z" fill="#F78F2D"/>
<path d="M122.36 150.613C123.062 150.613 123.63 150.045 123.63 149.345C123.63 148.644 123.062 148.076 122.36 148.076C121.659 148.076 121.09 148.644 121.09 149.345C121.09 150.045 121.659 150.613 122.36 150.613Z" fill="#F78F2D"/>
<path d="M144.887 58.0359C145.589 58.0359 146.158 57.468 146.158 56.7675C146.158 56.0669 145.589 55.499 144.887 55.499C144.186 55.499 143.617 56.0669 143.617 56.7675C143.617 57.468 144.186 58.0359 144.887 58.0359Z" fill="#F78F2D"/>
<path d="M143.552 69.9216C144.253 69.9216 144.822 69.3537 144.822 68.6532C144.822 67.9527 144.253 67.3848 143.552 67.3848C142.85 67.3848 142.281 67.9527 142.281 68.6532C142.281 69.3537 142.85 69.9216 143.552 69.9216Z" fill="#F78F2D"/>
<path d="M142.223 81.7415C142.925 81.7415 143.494 81.1736 143.494 80.473C143.494 79.7725 142.925 79.2046 142.223 79.2046C141.522 79.2046 140.953 79.7725 140.953 80.473C140.953 81.1736 141.522 81.7415 142.223 81.7415Z" fill="#F78F2D"/>
<path d="M140.897 93.5613C141.599 93.5613 142.167 92.9934 142.167 92.2928C142.167 91.5923 141.599 91.0244 140.897 91.0244C140.196 91.0244 139.627 91.5923 139.627 92.2928C139.627 92.9934 140.196 93.5613 140.897 93.5613Z" fill="#F78F2D"/>
<path d="M139.561 105.438C140.263 105.438 140.832 104.87 140.832 104.169C140.832 103.469 140.263 102.901 139.561 102.901C138.86 102.901 138.291 103.469 138.291 104.169C138.291 104.87 138.86 105.438 139.561 105.438Z" fill="#F78F2D"/>
<path d="M138.235 117.258C138.937 117.258 139.505 116.69 139.505 115.989C139.505 115.289 138.937 114.721 138.235 114.721C137.534 114.721 136.965 115.289 136.965 115.989C136.965 116.69 137.534 117.258 138.235 117.258Z" fill="#F78F2D"/>
<path d="M137.003 128.241C137.704 128.241 138.273 127.674 138.273 126.973C138.273 126.272 137.704 125.705 137.003 125.705C136.301 125.705 135.732 126.272 135.732 126.973C135.732 127.674 136.301 128.241 137.003 128.241Z" fill="#F78F2D"/>
<path d="M135.665 140.127C136.366 140.127 136.935 139.559 136.935 138.859C136.935 138.158 136.366 137.59 135.665 137.59C134.963 137.59 134.395 138.158 134.395 138.859C134.395 139.559 134.963 140.127 135.665 140.127Z" fill="#F78F2D"/>
<path d="M134.339 151.947C135.04 151.947 135.609 151.379 135.609 150.679C135.609 149.978 135.04 149.41 134.339 149.41C133.637 149.41 133.068 149.978 133.068 150.679C133.068 151.379 133.637 151.947 134.339 151.947Z" fill="#F78F2D"/>
<path d="M157.298 59.4265C157.999 59.4265 158.568 58.8586 158.568 58.1581C158.568 57.4575 157.999 56.8896 157.298 56.8896C156.596 56.8896 156.027 57.4575 156.027 58.1581C156.027 58.8586 156.596 59.4265 157.298 59.4265Z" fill="#F78F2D"/>
<path d="M155.962 71.303C156.663 71.303 157.232 70.7351 157.232 70.0345C157.232 69.334 156.663 68.7661 155.962 68.7661C155.26 68.7661 154.691 69.334 154.691 70.0345C154.691 70.7351 155.26 71.303 155.962 71.303Z" fill="#F78F2D"/>
<path d="M154.636 83.1321C155.337 83.1321 155.906 82.5642 155.906 81.8636C155.906 81.1631 155.337 80.5952 154.636 80.5952C153.934 80.5952 153.365 81.1631 153.365 81.8636C153.365 82.5642 153.934 83.1321 154.636 83.1321Z" fill="#F78F2D"/>
<path d="M153.307 94.9519C154.009 94.9519 154.578 94.384 154.578 93.6835C154.578 92.9829 154.009 92.415 153.307 92.415C152.606 92.415 152.037 92.9829 152.037 93.6835C152.037 94.384 152.606 94.9519 153.307 94.9519Z" fill="#F78F2D"/>
<path d="M151.971 106.828C152.673 106.828 153.242 106.26 153.242 105.56C153.242 104.859 152.673 104.292 151.971 104.292C151.27 104.292 150.701 104.859 150.701 105.56C150.701 106.26 151.27 106.828 151.971 106.828Z" fill="#F78F2D"/>
<path d="M150.645 118.648C151.347 118.648 151.916 118.08 151.916 117.38C151.916 116.679 151.347 116.111 150.645 116.111C149.944 116.111 149.375 116.679 149.375 117.38C149.375 118.08 149.944 118.648 150.645 118.648Z" fill="#F78F2D"/>
<path d="M149.413 129.632C150.114 129.632 150.683 129.064 150.683 128.364C150.683 127.663 150.114 127.095 149.413 127.095C148.711 127.095 148.143 127.663 148.143 128.364C148.143 129.064 148.711 129.632 149.413 129.632Z" fill="#F78F2D"/>
<path d="M148.077 141.518C148.778 141.518 149.347 140.95 149.347 140.249C149.347 139.549 148.778 138.981 148.077 138.981C147.375 138.981 146.807 139.549 146.807 140.249C146.807 140.95 147.375 141.518 148.077 141.518Z" fill="#F78F2D"/>
<path d="M146.751 153.338C147.452 153.338 148.021 152.77 148.021 152.069C148.021 151.369 147.452 150.801 146.751 150.801C146.049 150.801 145.48 151.369 145.48 152.069C145.48 152.77 146.049 153.338 146.751 153.338Z" fill="#F78F2D"/>
<path d="M167.62 60.5823C168.321 60.5823 168.89 60.0144 168.89 59.3138C168.89 58.6133 168.321 58.0454 167.62 58.0454C166.918 58.0454 166.35 58.6133 166.35 59.3138C166.35 60.0144 166.918 60.5823 167.62 60.5823Z" fill="#F78F2D"/>
<path d="M166.284 72.468C166.986 72.468 167.554 71.9001 167.554 71.1996C167.554 70.499 166.986 69.9312 166.284 69.9312C165.582 69.9312 165.014 70.499 165.014 71.1996C165.014 71.9001 165.582 72.468 166.284 72.468Z" fill="#F78F2D"/>
<path d="M164.958 84.2878C165.659 84.2878 166.228 83.7199 166.228 83.0194C166.228 82.3189 165.659 81.751 164.958 81.751C164.256 81.751 163.688 82.3189 163.688 83.0194C163.688 83.7199 164.256 84.2878 164.958 84.2878Z" fill="#F78F2D"/>
<path d="M163.63 96.1077C164.331 96.1077 164.9 95.5398 164.9 94.8392C164.9 94.1387 164.331 93.5708 163.63 93.5708C162.928 93.5708 162.359 94.1387 162.359 94.8392C162.359 95.5398 162.928 96.1077 163.63 96.1077Z" fill="#F78F2D"/>
<path d="M162.294 107.984C162.995 107.984 163.564 107.416 163.564 106.716C163.564 106.015 162.995 105.447 162.294 105.447C161.592 105.447 161.023 106.015 161.023 106.716C161.023 107.416 161.592 107.984 162.294 107.984Z" fill="#F78F2D"/>
<path d="M160.968 119.804C161.669 119.804 162.238 119.236 162.238 118.536C162.238 117.835 161.669 117.267 160.968 117.267C160.266 117.267 159.697 117.835 159.697 118.536C159.697 119.236 160.266 119.804 160.968 119.804Z" fill="#F78F2D"/>
<path d="M159.735 130.788C160.437 130.788 161.005 130.22 161.005 129.519C161.005 128.819 160.437 128.251 159.735 128.251C159.034 128.251 158.465 128.819 158.465 129.519C158.465 130.22 159.034 130.788 159.735 130.788Z" fill="#F78F2D"/>
<path d="M158.399 142.674C159.101 142.674 159.669 142.106 159.669 141.405C159.669 140.705 159.101 140.137 158.399 140.137C157.698 140.137 157.129 140.705 157.129 141.405C157.129 142.106 157.698 142.674 158.399 142.674Z" fill="#F78F2D"/>
<path d="M157.073 154.493C157.775 154.493 158.343 153.926 158.343 153.225C158.343 152.524 157.775 151.957 157.073 151.957C156.371 151.957 155.803 152.524 155.803 153.225C155.803 153.926 156.371 154.493 157.073 154.493Z" fill="#F78F2D"/>
</svg>
