<svg width="218" height="200" viewBox="0 0 218 200" fill="none" xmlns="http://www.w3.org/2000/svg">
<path d="M129.243 181.896C88.2344 190.079 50.3806 173.668 44.6878 145.227C40.3193 123.444 59.5865 100.219 85.6317 87.1967C55.3376 90.9344 27.9405 86.058 24.271 72.7971C19.5714 55.8261 49.7736 32.6929 91.72 21.1126C133.666 9.53229 171.474 13.9128 176.174 30.8838C180.193 45.3937 157.146 64.9452 124.589 77.3888C158.36 76.25 188.295 91.2558 193.16 115.574C198.871 144.015 170.251 173.714 129.243 181.896Z" fill="#CB84F0" stroke="#262262" stroke-miterlimit="10" stroke-linecap="round" stroke-linejoin="round"/>
<path d="M123.762 74.7165C173.967 52.667 177.683 35.8705 176.183 30.8839C175.209 27.6422 170.178 23.1055 159.942 20.3505C159.942 20.3505 158.011 22.5637 152.493 21.8658C144.501 20.8556 143.903 18.0363 143.903 18.0363C131.018 17.4577 113.857 19.1934 91.6836 25.2361C33.4313 41.1235 21.7423 69.5371 25.0071 74.9369C26.7821 77.8848 31.6472 90.4661 85.1999 84.4969" fill="#CB84F0"/>
<path d="M123.762 74.7165C173.967 52.6671 177.683 35.8705 176.183 30.8839C175.209 27.6422 170.178 23.1055 159.942 20.3505C159.942 20.3505 158.011 22.5637 152.493 21.8658C144.501 20.8556 143.903 18.0363 143.903 18.0363C131.018 17.4577 113.857 19.1934 91.6836 25.2361C33.4313 41.1235 21.7423 69.5371 25.0071 74.9369C26.7821 77.8848 31.6472 90.4661 85.1999 84.4969" stroke="#262262" stroke-miterlimit="10" stroke-linecap="round" stroke-linejoin="round"/>
<path d="M105.417 63.8382C122.744 59.5608 135.465 50.7407 133.83 44.1379C132.196 37.5351 116.824 35.65 99.4968 39.9274C82.1695 44.2048 69.4482 53.025 71.0829 59.6278C72.7176 66.2306 88.0893 68.1156 105.417 63.8382Z" fill="#CB84F0" stroke="#262262" stroke-miterlimit="10" stroke-linecap="round" stroke-linejoin="round"/>
<path d="M85.0527 82.7244L85.8528 89.9242L124.544 80.2265L123.56 73.6787C114.482 74.8634 96.0888 78.6837 85.0527 82.7244Z" fill="#CB84F0" stroke="#262262" stroke-miterlimit="10" stroke-linecap="round" stroke-linejoin="round"/>
<path d="M44.2559 135.539C44.5134 140.084 48.4772 190.667 132.195 176.68C165.074 171.189 199.12 138.183 191.606 110.1" fill="#CB84F0"/>
<path d="M44.2559 135.539C44.5134 140.084 48.4772 190.667 132.195 176.68C165.074 171.189 199.12 138.183 191.606 110.1" stroke="#262262" stroke-miterlimit="10" stroke-linecap="round" stroke-linejoin="round"/>
<path d="M81.2812 133.105C81.2812 133.105 82.0722 143.142 82.6332 144.667C83.2218 146.256 87.1304 150.838 94.5154 153.4C103.032 156.357 109.405 157.23 125.021 155.513C140.637 153.795 156.869 144.153 159.803 135.933C160.401 134.262 159.288 122.544 159.288 122.544" fill="white"/>
<path d="M81.2812 133.105C81.2812 133.105 82.0722 143.142 82.6332 144.667C83.2218 146.256 87.1304 150.838 94.5154 153.4C103.032 156.357 109.405 157.23 125.021 155.513C140.637 153.795 156.869 144.153 159.803 135.933C160.401 134.262 159.288 122.544 159.288 122.544" stroke="white" stroke-miterlimit="10" stroke-linecap="round" stroke-linejoin="round"/>
<path d="M189.464 133.316C190.586 128.688 190.715 123.995 189.703 119.376C184.341 94.7364 148.833 81.5306 110.399 89.8692C71.957 98.2078 48.9283 129.927 50.5102 149.58C50.8045 153.244 52.3587 156.807 53.8394 159.59" stroke="#262262" stroke-miterlimit="10" stroke-linecap="round" stroke-linejoin="round"/>
<path d="M123.719 149.822C145.218 146.405 161.143 134.198 159.287 122.557C157.432 110.916 138.498 104.25 116.999 107.667C95.4992 111.084 79.5746 123.291 81.4302 134.932C83.2858 146.573 102.219 153.24 123.719 149.822Z" fill="white" stroke="#262262" stroke-miterlimit="10" stroke-linecap="round" stroke-linejoin="round"/>
<path d="M122.125 140.249C136.938 137.895 148.044 130.326 146.931 123.343C145.818 116.361 132.908 112.609 118.095 114.963C103.282 117.318 92.1757 124.887 93.2888 131.87C94.4018 138.852 107.312 142.604 122.125 140.249Z" fill="white" stroke="#262262" stroke-miterlimit="10" stroke-linecap="round" stroke-linejoin="round"/>
<path d="M86.1191 142.931L86.6066 149.047" stroke="#262262" stroke-miterlimit="10" stroke-linecap="round" stroke-linejoin="round"/>
<path d="M92.6035 146.981L93.0542 152.675" stroke="#262262" stroke-miterlimit="10" stroke-linecap="round" stroke-linejoin="round"/>
<path d="M100.318 149.451L100.769 155.127" stroke="#262262" stroke-miterlimit="10" stroke-linecap="round" stroke-linejoin="round"/>
<path d="M108.201 150.553L108.652 156.201" stroke="#262262" stroke-miterlimit="10" stroke-linecap="round" stroke-linejoin="round"/>
<path d="M116.652 150.581L117.094 156.201" stroke="#262262" stroke-miterlimit="10" stroke-linecap="round" stroke-linejoin="round"/>
<path d="M125.123 149.571L125.592 155.439" stroke="#262262" stroke-miterlimit="10" stroke-linecap="round" stroke-linejoin="round"/>
<path d="M133.4 147.578L133.888 153.731" stroke="#262262" stroke-miterlimit="10" stroke-linecap="round" stroke-linejoin="round"/>
<path d="M140.609 144.887L141.106 151.169" stroke="#262262" stroke-miterlimit="10" stroke-linecap="round" stroke-linejoin="round"/>
<path d="M147.158 141.416L147.664 147.789" stroke="#262262" stroke-miterlimit="10" stroke-linecap="round" stroke-linejoin="round"/>
<path d="M152.336 137.531L152.869 144.171" stroke="#262262" stroke-miterlimit="10" stroke-linecap="round" stroke-linejoin="round"/>
<path d="M156.549 132.829L157.137 140.305" stroke="#262262" stroke-miterlimit="10" stroke-linecap="round" stroke-linejoin="round"/>
<path d="M118.097 114.949L116.441 120.055L122.134 118.999L118.097 114.949Z" fill="#262262"/>
<path d="M116.827 97.5283L117.259 100.228C117.278 100.329 117.278 100.43 117.278 100.531C117.232 102.166 114.73 103.828 111.438 104.352C108.145 104.875 105.248 104.067 104.697 102.533C104.66 102.441 104.632 102.34 104.614 102.239L104.182 99.5395L116.827 97.5283Z" fill="#2AD575" stroke="#262262" stroke-miterlimit="10" stroke-linecap="round" stroke-linejoin="round"/>
<path d="M104.687 102.533L104.659 102.542L104.613 102.239C104.622 102.34 104.65 102.441 104.687 102.533Z" fill="#2AD575" stroke="#262262" stroke-miterlimit="10" stroke-linecap="round" stroke-linejoin="round"/>
<path d="M117.26 100.228L117.306 100.531L117.278 100.54C117.278 100.43 117.278 100.329 117.26 100.228Z" fill="#2AD575" stroke="#262262" stroke-miterlimit="10" stroke-linecap="round" stroke-linejoin="round"/>
<path d="M111.053 101.981C114.544 101.426 117.151 99.5796 116.877 97.8565C116.602 96.1334 113.549 95.1864 110.058 95.7413C106.567 96.2962 103.959 98.1429 104.234 99.866C104.508 101.589 107.561 102.536 111.053 101.981Z" fill="#2AD575" stroke="#262262" stroke-miterlimit="10" stroke-linecap="round" stroke-linejoin="round"/>
<path d="M109.9 95.8384L111.05 101.973" stroke="#262262" stroke-miterlimit="10" stroke-linecap="round" stroke-linejoin="round"/>
<path d="M135.311 95.627L135.495 98.3177C135.505 98.4187 135.495 98.5197 135.486 98.6207C135.293 100.219 132.644 101.642 129.324 101.862C126.004 102.083 123.181 101.036 122.776 99.4748C122.749 99.383 122.73 99.282 122.721 99.1809L122.537 96.4902L135.311 95.627Z" fill="#2AD575" stroke="#262262" stroke-miterlimit="10" stroke-linecap="round" stroke-linejoin="round"/>
<path d="M122.768 99.4657H122.731L122.713 99.1719C122.722 99.2729 122.74 99.3739 122.768 99.4657Z" fill="#2AD575" stroke="#262262" stroke-miterlimit="10" stroke-linecap="round" stroke-linejoin="round"/>
<path d="M135.497 98.3176L135.515 98.6115H135.479C135.497 98.5197 135.497 98.4186 135.497 98.3176Z" fill="#2AD575" stroke="#262262" stroke-miterlimit="10" stroke-linecap="round" stroke-linejoin="round"/>
<path d="M129.162 99.4807C132.689 99.2445 135.455 97.6582 135.34 95.9374C135.225 94.2167 132.272 93.0133 128.744 93.2494C125.217 93.4856 122.451 95.0719 122.566 96.7926C122.681 98.5134 125.634 99.7168 129.162 99.4807Z" fill="#2AD575" stroke="#262262" stroke-miterlimit="10" stroke-linecap="round" stroke-linejoin="round"/>
<path d="M128.736 93.2485L129.15 99.4841" stroke="#262262" stroke-miterlimit="10" stroke-linecap="round" stroke-linejoin="round"/>
<path d="M154.617 98.6118L154.175 101.339C154.157 101.44 154.129 101.541 154.093 101.633C153.532 103.185 150.625 104.002 147.342 103.461C144.059 102.928 141.557 101.238 141.511 99.5852C141.502 99.4842 141.511 99.3832 141.53 99.2822L141.971 96.5547L154.617 98.6118Z" fill="#2AD575" stroke="#262262" stroke-miterlimit="10" stroke-linecap="round" stroke-linejoin="round"/>
<path d="M141.51 99.5945L141.482 99.5853L141.528 99.2822C141.51 99.3924 141.51 99.4934 141.51 99.5945Z" fill="#2AD575" stroke="#262262" stroke-miterlimit="10" stroke-linecap="round" stroke-linejoin="round"/>
<path d="M154.175 101.339L154.129 101.642L154.102 101.633C154.129 101.541 154.157 101.45 154.175 101.339Z" fill="#2AD575" stroke="#262262" stroke-miterlimit="10" stroke-linecap="round" stroke-linejoin="round"/>
<path d="M154.566 98.9393C154.85 97.1972 152.252 95.3251 148.762 94.7579C145.273 94.1906 142.214 95.143 141.93 96.885C141.646 98.6271 144.245 100.499 147.734 101.066C151.223 101.634 154.282 100.681 154.566 98.9393Z" fill="#2AD575" stroke="#262262" stroke-miterlimit="10" stroke-linecap="round" stroke-linejoin="round"/>
<path d="M148.759 94.7456L147.729 101.064" stroke="#262262" stroke-miterlimit="10" stroke-linecap="round" stroke-linejoin="round"/>
<path d="M170.518 109.154C170.518 109.154 169.92 110.863 169.46 111.294C168.246 112.415 165.046 112.286 162.185 110.587C159.454 108.962 158.212 106.592 158.727 105.022C158.884 104.544 159.39 102.836 159.39 102.836L170.518 109.154Z" fill="#2AD575" stroke="#262262" stroke-miterlimit="10" stroke-linecap="round" stroke-linejoin="round"/>
<path d="M170.336 109.432C171.248 107.92 169.532 105.218 166.504 103.397C163.476 101.575 160.282 101.325 159.37 102.837C158.458 104.349 160.174 107.051 163.202 108.872C166.23 110.693 169.424 110.944 170.336 109.432Z" fill="#2AD575" stroke="#262262" stroke-miterlimit="10" stroke-linecap="round" stroke-linejoin="round"/>
<path d="M163.207 108.87L166.518 103.387" stroke="#262262" stroke-miterlimit="10" stroke-linecap="round" stroke-linejoin="round"/>
<path d="M170.362 117.888C170.362 117.888 168.569 122.02 171.034 126.419C171.604 127.439 173.03 129.459 175.218 129.055C177.03 128.724 177.564 126.309 177.628 125.106C177.72 123.251 177.37 120.854 177.37 120.854" fill="#2AD575"/>
<path d="M170.362 117.888C170.362 117.888 168.569 122.02 171.034 126.419C171.604 127.439 173.03 129.459 175.218 129.055C177.03 128.724 177.564 126.309 177.628 125.106C177.72 123.251 177.37 120.854 177.37 120.854" stroke="#262262" stroke-miterlimit="10" stroke-linecap="round" stroke-linejoin="round"/>
<path d="M175.071 127.624C177.043 127.204 178.067 124.173 177.359 120.855C176.65 117.537 174.476 115.187 172.504 115.607C170.532 116.027 169.508 119.058 170.217 122.376C170.926 125.694 173.099 128.044 175.071 127.624Z" fill="#2AD575" stroke="#262262" stroke-miterlimit="10" stroke-linecap="round" stroke-linejoin="round"/>
<path d="M177.37 120.854L170.215 122.37" stroke="#262262" stroke-miterlimit="10" stroke-linecap="round" stroke-linejoin="round"/>
<path d="M87.3516 106.895L88.3724 109.384C88.4092 109.476 88.4552 109.568 88.5195 109.65C89.4024 111 92.4006 111.11 95.4815 109.843C98.5624 108.576 100.632 106.399 100.31 104.82C100.291 104.719 100.264 104.627 100.227 104.535L99.2062 102.046L87.3516 106.895Z" fill="#FFF000" stroke="#262262" stroke-miterlimit="10" stroke-linecap="round" stroke-linejoin="round"/>
<path d="M100.309 104.82L100.337 104.81L100.227 104.535C100.263 104.627 100.291 104.719 100.309 104.82Z" fill="#FFF000" stroke="#262262" stroke-miterlimit="10" stroke-linecap="round" stroke-linejoin="round"/>
<path d="M88.3809 109.384L88.4912 109.659L88.5188 109.65C88.4636 109.567 88.4176 109.485 88.3809 109.384Z" fill="#FFF000" stroke="#262262" stroke-miterlimit="10" stroke-linecap="round" stroke-linejoin="round"/>
<path d="M94.5818 107.635C97.8519 106.294 99.9709 103.913 99.3148 102.318C98.6588 100.723 95.476 100.517 92.206 101.858C88.936 103.199 86.817 105.579 87.4731 107.175C88.1291 108.77 91.3118 108.976 94.5818 107.635Z" fill="#FFF000" stroke="#262262" stroke-miterlimit="10" stroke-linecap="round" stroke-linejoin="round"/>
<path d="M92.207 101.863L94.5798 107.639" stroke="#262262" stroke-miterlimit="10" stroke-linecap="round" stroke-linejoin="round"/>
<path d="M72.4727 119.036L74.0729 121.286C74.1373 121.368 74.2016 121.451 74.2752 121.515C75.4616 122.663 78.4322 122.112 81.1452 120.184C83.8582 118.255 85.3573 115.638 84.6676 114.141C84.6308 114.049 84.5756 113.957 84.5204 113.875L82.9202 111.625L72.4727 119.036Z" fill="#FFF000" stroke="#262262" stroke-miterlimit="10" stroke-linecap="round" stroke-linejoin="round"/>
<path d="M84.6667 114.15L84.6943 114.132L84.5195 113.884C84.5747 113.967 84.6207 114.049 84.6667 114.15Z" fill="#FFF000" stroke="#262262" stroke-miterlimit="10" stroke-linecap="round" stroke-linejoin="round"/>
<path d="M74.0723 121.286L74.247 121.534L74.2746 121.515C74.201 121.451 74.1366 121.369 74.0723 121.286Z" fill="#FFF000" stroke="#262262" stroke-miterlimit="10" stroke-linecap="round" stroke-linejoin="round"/>
<path d="M79.7224 118.2C82.6038 116.155 84.1097 113.331 83.0857 111.892C82.0618 110.454 78.8958 110.945 76.0143 112.99C73.1328 115.035 71.627 117.859 72.6509 119.298C73.6749 120.736 76.8409 120.245 79.7224 118.2Z" fill="#FFF000" stroke="#262262" stroke-miterlimit="10" stroke-linecap="round" stroke-linejoin="round"/>
<path d="M76.0215 112.984L79.7278 118.2" stroke="#262262" stroke-miterlimit="10" stroke-linecap="round" stroke-linejoin="round"/>
<path d="M64.1016 134.583C64.1016 134.583 65.3891 135.86 65.9961 136.043C67.5779 136.521 70.3921 134.987 72.2131 132.205C73.9513 129.542 74.0157 126.869 72.8661 125.685C72.5166 125.326 71.3026 124.013 71.3026 124.013L64.1016 134.583Z" fill="#FFF000" stroke="#262262" stroke-miterlimit="10" stroke-linecap="round" stroke-linejoin="round"/>
<path d="M70.5349 131.112C72.4492 128.145 72.7964 124.964 71.3104 124.008C69.8244 123.052 67.0679 124.683 65.1536 127.651C63.2393 130.619 62.8921 133.799 64.3781 134.755C65.8641 135.711 68.6206 134.08 70.5349 131.112Z" fill="#FFF000" stroke="#262262" stroke-miterlimit="10" stroke-linecap="round" stroke-linejoin="round"/>
<path d="M70.5397 131.121L65.1504 127.65" stroke="#262262" stroke-miterlimit="10" stroke-linecap="round" stroke-linejoin="round"/>
<path d="M66.2444 141.664C66.2444 141.664 69.684 144.584 69.4081 149.617C69.3437 150.783 68.9575 153.226 66.8146 153.823C65.0396 154.319 63.4946 152.39 62.906 151.334C62.0047 149.709 61.2598 147.403 61.2598 147.403" fill="#FFF000"/>
<path d="M66.2444 141.664C66.2444 141.664 69.684 144.584 69.4081 149.617C69.3437 150.783 68.9575 153.226 66.8146 153.823C65.0396 154.319 63.4946 152.39 62.906 151.334C62.0047 149.709 61.2598 147.403 61.2598 147.403" stroke="#262262" stroke-miterlimit="10" stroke-linecap="round" stroke-linejoin="round"/>
<path d="M66.3026 152.472C68.2582 151.981 69.1719 148.915 68.3434 145.625C67.515 142.334 65.2581 140.065 63.3026 140.555C61.347 141.046 60.4333 144.112 61.2617 147.403C62.0902 150.693 64.347 152.963 66.3026 152.472Z" fill="#FFF000" stroke="#262262" stroke-miterlimit="10" stroke-linecap="round" stroke-linejoin="round"/>
<path d="M61.2695 147.403L68.3602 145.622" stroke="#262262" stroke-miterlimit="10" stroke-linecap="round" stroke-linejoin="round"/>
<path d="M134.116 165.219L134.402 167.938C134.411 168.039 134.411 168.14 134.402 168.241C134.273 169.866 131.679 171.4 128.368 171.749C125.058 172.098 122.197 171.143 121.728 169.572C121.701 169.48 121.673 169.379 121.664 169.278L121.379 166.56L134.116 165.219Z" fill="#2AD575" stroke="#262262" stroke-miterlimit="10" stroke-linecap="round" stroke-linejoin="round"/>
<path d="M121.728 169.572H121.692L121.664 169.269C121.673 169.379 121.701 169.48 121.728 169.572Z" fill="#2AD575" stroke="#262262" stroke-miterlimit="10" stroke-linecap="round" stroke-linejoin="round"/>
<path d="M134.402 167.928L134.429 168.231H134.393C134.411 168.139 134.411 168.038 134.402 167.928Z" fill="#2AD575" stroke="#262262" stroke-miterlimit="10" stroke-linecap="round" stroke-linejoin="round"/>
<path d="M128.124 169.342C131.64 168.972 134.341 167.265 134.157 165.529C133.974 163.794 130.975 162.688 127.459 163.059C123.944 163.43 121.242 165.137 121.426 166.872C121.609 168.607 124.608 169.713 128.124 169.342Z" fill="#2AD575" stroke="#262262" stroke-miterlimit="10" stroke-linecap="round" stroke-linejoin="round"/>
<path d="M127.293 163.162L128.111 169.352" stroke="#262262" stroke-miterlimit="10" stroke-linecap="round" stroke-linejoin="round"/>
<path d="M150.569 159.287L151.379 161.775C151.406 161.867 151.425 161.968 151.434 162.06C151.627 163.612 149.429 165.577 146.293 166.587C143.157 167.588 140.214 167.276 139.45 165.908C139.404 165.825 139.358 165.733 139.331 165.642L138.521 163.153L150.569 159.287Z" fill="#2AD575" stroke="#262262" stroke-miterlimit="10" stroke-linecap="round" stroke-linejoin="round"/>
<path d="M139.452 165.908L139.424 165.917L139.332 165.642C139.36 165.733 139.406 165.816 139.452 165.908Z" fill="#2AD575" stroke="#262262" stroke-miterlimit="10" stroke-linecap="round" stroke-linejoin="round"/>
<path d="M151.379 161.775L151.471 162.051L151.443 162.06C151.425 161.959 151.406 161.867 151.379 161.775Z" fill="#2AD575" stroke="#262262" stroke-miterlimit="10" stroke-linecap="round" stroke-linejoin="round"/>
<path d="M145.568 164.381C148.896 163.318 151.18 161.163 150.669 159.569C150.158 157.975 147.046 157.545 143.718 158.609C140.389 159.672 138.106 161.827 138.616 163.421C139.127 165.015 142.24 165.445 145.568 164.381Z" fill="#2AD575" stroke="#262262" stroke-miterlimit="10" stroke-linecap="round" stroke-linejoin="round"/>
<path d="M143.699 158.625L145.575 164.393" stroke="#262262" stroke-miterlimit="10" stroke-linecap="round" stroke-linejoin="round"/>
<path d="M164.908 147.651L166.545 149.883C166.609 149.966 166.655 150.057 166.701 150.149C167.418 151.637 165.956 154.273 163.27 156.238C160.585 158.203 157.624 158.8 156.419 157.661C156.345 157.597 156.272 157.514 156.207 157.432L154.57 155.2L164.908 147.651Z" fill="#2AD575" stroke="#262262" stroke-miterlimit="10" stroke-linecap="round" stroke-linejoin="round"/>
<path d="M156.419 157.661L156.391 157.68L156.207 157.432C156.271 157.514 156.336 157.597 156.419 157.661Z" fill="#2AD575" stroke="#262262" stroke-miterlimit="10" stroke-linecap="round" stroke-linejoin="round"/>
<path d="M166.545 149.883L166.729 150.131L166.701 150.149C166.655 150.048 166.609 149.966 166.545 149.883Z" fill="#2AD575" stroke="#262262" stroke-miterlimit="10" stroke-linecap="round" stroke-linejoin="round"/>
<path d="M161.823 154.268C164.675 152.183 166.141 149.338 165.097 147.914C164.053 146.489 160.894 147.025 158.042 149.11C155.189 151.196 153.723 154.041 154.767 155.465C155.812 156.889 158.97 156.353 161.823 154.268Z" fill="#2AD575" stroke="#262262" stroke-miterlimit="10" stroke-linecap="round" stroke-linejoin="round"/>
<path d="M158.037 149.102L161.826 154.263" stroke="#262262" stroke-miterlimit="10" stroke-linecap="round" stroke-linejoin="round"/>
<path d="M175.944 134.152C175.944 134.152 176.983 135.309 177.296 135.86C178.188 137.412 177.553 140.24 175.171 142.564C172.899 144.777 169.708 145.952 168.329 145.043C167.906 144.768 166.949 143.262 166.949 143.262L175.944 134.152Z" fill="#2AD575" stroke="#262262" stroke-miterlimit="10" stroke-linecap="round" stroke-linejoin="round"/>
<path d="M173.783 141.125C176.327 138.674 177.394 135.657 176.167 134.387C174.94 133.117 171.882 134.074 169.339 136.525C166.795 138.977 165.727 141.993 166.955 143.264C168.182 144.534 171.239 143.576 173.783 141.125Z" fill="#2AD575" stroke="#262262" stroke-miterlimit="10" stroke-linecap="round" stroke-linejoin="round"/>
<path d="M173.781 141.122L169.33 136.521" stroke="#262262" stroke-miterlimit="10" stroke-linecap="round" stroke-linejoin="round"/>
<path d="M103.317 168.195L103.234 170.885C103.234 170.986 103.244 171.087 103.262 171.188C103.519 172.777 106.214 174.1 109.543 174.191C112.873 174.292 115.65 173.135 115.999 171.556C116.027 171.455 116.036 171.363 116.036 171.262L116.119 168.571L103.317 168.195Z" fill="#FFF000" stroke="#262262" stroke-miterlimit="10" stroke-linecap="round" stroke-linejoin="round"/>
<path d="M115.998 171.565H116.035L116.044 171.271C116.035 171.372 116.016 171.464 115.998 171.565Z" fill="#FFF000" stroke="#262262" stroke-miterlimit="10" stroke-linecap="round" stroke-linejoin="round"/>
<path d="M103.234 170.895L103.225 171.188H103.261C103.243 171.087 103.234 170.996 103.234 170.895Z" fill="#FFF000" stroke="#262262" stroke-miterlimit="10" stroke-linecap="round" stroke-linejoin="round"/>
<path d="M116.112 168.887C116.162 167.163 113.339 165.682 109.805 165.578C106.271 165.474 103.365 166.787 103.314 168.511C103.264 170.235 106.087 171.716 109.621 171.82C113.155 171.924 116.061 170.611 116.112 168.887Z" fill="#FFF000" stroke="#262262" stroke-miterlimit="10" stroke-linecap="round" stroke-linejoin="round"/>
<path d="M109.791 165.577L109.607 171.813" stroke="#262262" stroke-miterlimit="10" stroke-linecap="round" stroke-linejoin="round"/>
<path d="M97.7996 167.699L97.119 170.38C97.0915 170.481 97.0547 170.573 97.0087 170.665C96.3189 172.162 93.3576 172.722 90.1295 171.914C86.9015 171.097 84.5563 169.205 84.6574 167.552C84.6574 167.451 84.6758 167.35 84.7034 167.249L85.384 164.567L97.7996 167.699Z" fill="#FFF000" stroke="#262262" stroke-miterlimit="10" stroke-linecap="round" stroke-linejoin="round"/>
<path d="M84.6663 167.552L84.6387 167.543L84.7123 167.249C84.6847 167.35 84.6663 167.451 84.6663 167.552Z" fill="#FFF000" stroke="#262262" stroke-miterlimit="10" stroke-linecap="round" stroke-linejoin="round"/>
<path d="M97.1285 170.371L97.0549 170.665L97.0273 170.656C97.0641 170.573 97.1009 170.472 97.1285 170.371Z" fill="#FFF000" stroke="#262262" stroke-miterlimit="10" stroke-linecap="round" stroke-linejoin="round"/>
<path d="M97.7209 168.02C98.1533 166.308 95.7251 164.221 92.2974 163.357C88.8697 162.494 85.7406 163.181 85.3082 164.893C84.8759 166.604 87.3041 168.691 90.7318 169.555C94.1594 170.418 97.2886 169.731 97.7209 168.02Z" fill="#FFF000" stroke="#262262" stroke-miterlimit="10" stroke-linecap="round" stroke-linejoin="round"/>
<path d="M92.2998 163.337L90.7363 169.545" stroke="#262262" stroke-miterlimit="10" stroke-linecap="round" stroke-linejoin="round"/>
<path d="M80.9327 163.392C80.9327 163.392 80.4268 165.127 79.9762 165.586C78.8174 166.771 75.6169 166.79 72.674 165.228C69.869 163.741 68.5078 161.436 68.9401 159.838C69.0688 159.36 69.4919 157.615 69.4919 157.615L80.9327 163.392Z" fill="#FFF000" stroke="#262262" stroke-miterlimit="10" stroke-linecap="round" stroke-linejoin="round"/>
<path d="M80.7715 163.675C81.6082 162.121 79.7624 159.506 76.6486 157.834C73.5349 156.163 70.3323 156.069 69.4956 157.624C68.6588 159.178 70.5047 161.793 73.6184 163.464C76.7322 165.135 79.9347 165.23 80.7715 163.675Z" fill="#FFF000" stroke="#262262" stroke-miterlimit="10" stroke-linecap="round" stroke-linejoin="round"/>
<path d="M73.6211 163.465L76.656 157.836" stroke="#262262" stroke-miterlimit="10" stroke-linecap="round" stroke-linejoin="round"/>
</svg>
