<svg width="101" height="101" viewBox="0 0 101 101" fill="none" xmlns="http://www.w3.org/2000/svg">
<ellipse cx="50.9315" cy="50.4993" rx="49.9618" ry="49.7024" fill="#3B86FF"/>
<path d="M59.1646 49.4249H54.2175C53.4686 49.4249 52.8559 48.8579 52.8559 48.1649L52.1752 37.4886C52.1752 37.4886 51.0735 28.6451 56.7874 27.483C56.7874 27.483 59.1107 23.2995 66.5511 24.6398C66.6407 24.6559 66.745 24.6879 67.0175 24.7705C77.6477 27.9754 74.5808 38.4072 74.1399 48.165C74.1399 48.858 73.5272 49.425 72.7783 49.425H67.5154" fill="#7F7369"/>
<path d="M60.0435 49.425V47.9269C59.5902 47.742 59.2366 47.5687 58.8266 47.3236C58.6287 47.2056 58.4335 47.0782 58.2592 46.9548C54.2593 44.1242 54.9764 40.041 54.8938 39.5029C54.8938 38.636 54.8938 37.0401 54.8938 36.2392C54.8938 36.2118 54.8953 36.1846 54.8976 36.1575C54.8465 33.642 55.2681 28.365 59.6024 27.4856C59.6024 27.4856 61.0295 24.9228 65.2265 24.452C58.8191 23.8023 56.81 27.4767 56.7987 27.4859C52.9443 28.2678 52.004 32.607 52.0958 36.2457C52.0971 36.2963 52.0985 36.3457 52.1002 36.3938C52.1229 37.067 52.1756 37.4902 52.1756 37.4902L52.858 48.1652C52.858 48.8581 53.4721 49.425 54.2227 49.425C55.4239 49.425 58.7309 49.425 60.0435 49.425Z" fill="#72655A"/>
<path d="M47.8527 73.6354C47.8487 73.4201 47.8592 73.2246 47.8742 73.0637C47.9856 72.1379 49.3867 60.4938 49.4729 59.7782C49.8645 57.2373 49.6393 55.738 50.9307 54.2806C50.535 53.8332 49.9703 53.416 49.5978 53.2045L49.5569 53.1951C48.1717 52.4234 47.0055 52.3911 44.4314 51.7325L41.7992 50.5607V47.6367C39.6985 48.5006 37.1675 48.5561 34.9354 47.6534L34.924 50.5728L32.303 51.7325C29.7455 52.3869 28.5656 52.4219 27.1776 53.1951L27.1366 53.2045C25.5269 54.1179 24.8944 55.3674 24.6788 57.0112C24.5837 57.8017 23.9371 63.1748 23.8015 64.3019C22.6923 73.6704 22.7259 72.9169 22.7259 73.639C22.7085 74.8279 23.4927 76.6231 25.8757 76.6231C26.397 76.6231 50.7763 76.6237 50.9306 76.6214C48.9284 76.5903 47.8237 75.1726 47.8527 73.6354Z" fill="#DD9A5E"/>
<path d="M25.6338 73.5853C25.6224 72.9709 25.6371 73.31 26.7067 64.3151C27.6507 55.5151 27.4021 54.6834 28.693 53.2194C28.9184 52.9638 29.1839 52.7213 29.5112 52.4863C29.3147 52.5441 28.3218 52.685 27.2435 53.2833L27.2026 53.2926C25.6 54.1983 24.9668 55.4379 24.7515 57.0737C24.6567 57.8582 24.0134 63.1822 23.8765 64.3151C22.8026 73.3457 22.7922 72.9726 22.8035 73.5853C22.7675 75.1421 23.9133 76.5529 25.9449 76.5529H28.775C26.7367 76.5529 25.5981 75.1327 25.6338 73.5853Z" fill="#D38D54"/>
<path d="M37.7996 53.1591V48.4091C36.8209 48.3483 35.8928 48.1468 34.9801 47.7793L34.9688 50.6791L37.7996 53.1591Z" fill="#D38D54"/>
<path d="M79.1154 73.0681C77.1104 56.5848 77.2234 57.05 77.0439 56.2443C76.7526 54.9365 75.9033 53.9047 74.7243 53.2364L74.6833 53.227C73.2244 52.4157 72.1639 52.449 67.2409 51.2313C67.0531 51.1524 66.9229 50.8925 66.9229 50.5963V48.0077C64.6865 48.9132 62.1459 48.8517 60.0565 47.9941V50.5963C60.0565 50.8925 59.9264 51.1523 59.7386 51.2313C54.8483 52.4408 53.7606 52.4125 52.2961 53.227L52.2552 53.2364C50.6373 54.1536 50.012 55.3967 49.7965 57.0379C47.7717 73.9851 47.831 73.0146 47.8426 73.6391C47.8426 73.6403 47.8426 73.6416 47.8426 73.6427C47.8252 74.8301 48.6098 76.6227 50.9936 76.6227C56.8185 76.6227 72.842 76.6227 75.9858 76.6227C78.1321 76.6228 79.3083 75.1405 79.1154 73.0681Z" fill="#EAB883"/>
<path d="M50.7348 73.638C50.7348 73.6369 50.7348 73.6356 50.7348 73.6344C50.7308 73.4192 50.7414 73.2237 50.7567 73.0628C52.7963 55.6418 52.6701 56.1388 52.8671 55.27C53.1584 53.985 53.981 52.9817 55.1809 52.2871C54.6943 52.4216 53.5852 52.5404 52.3797 53.1992L52.338 53.2086C50.6898 54.1268 50.0528 55.3715 49.8332 57.0144C47.7703 73.9808 47.831 73.0091 47.8426 73.6344C47.8426 73.6356 47.8426 73.6369 47.8426 73.638C47.8249 74.8267 48.6242 76.6214 51.0527 76.6214C52.8429 76.6214 52.1544 76.6214 53.9448 76.6214C51.5164 76.6214 50.7171 74.8267 50.7348 73.638Z" fill="#D8A373"/>
<path d="M77.9889 64.3148C77.0683 56.746 77.1193 56.9308 76.9754 56.2859C76.6833 54.9778 75.8272 53.9526 74.6629 53.2942C74.6514 53.2916 74.6105 53.2823 74.6221 53.2849C73.1676 52.4779 72.1104 52.511 67.2023 51.2999C67.0151 51.2213 66.8854 50.963 66.8854 50.6683V48.0936V48.0801C64.7946 48.9357 62.2773 48.9956 60.0399 48.0801V48.0936V50.6683C60.0399 50.963 59.9102 51.2213 59.723 51.2999C54.8477 52.5029 53.7633 52.4748 52.3033 53.2849C52.2917 53.2875 52.2508 53.2968 52.2624 53.2942C50.6488 54.2066 50.0216 55.4774 49.8113 57.0752L48.9365 64.3148L54.4502 64.8506C54.7434 64.8791 54.9613 65.1149 54.9466 65.3876L54.341 76.5545C61.0895 76.5545 65.8715 76.5545 72.6176 76.5545L71.9827 65.4308C71.9657 65.1341 72.2026 64.8771 72.5218 64.8461L77.9889 64.3148Z" fill="#D83D3D"/>
<path d="M54.45 64.8499L48.9399 64.3145C47.8114 73.6441 47.8536 73.0724 47.8631 73.5863C47.8631 73.5876 47.8631 73.5888 47.8631 73.59C47.8458 74.7709 48.6279 76.5539 51.0044 76.5539C51.9018 76.5539 53.0425 76.5539 54.3406 76.5539L54.9463 65.387C54.9612 65.1143 54.7432 64.8783 54.45 64.8499Z" fill="#D83D3D"/>
<path d="M49.8844 56.97L48.999 64.1887L51.7732 64.4542C52.7595 56.1134 52.6997 56.0778 52.8892 55.2421C53.1776 53.9693 53.9924 52.9752 55.181 52.2871C54.8263 52.3921 53.6003 52.5381 52.4065 53.1906C52.3948 53.1932 52.3535 53.2025 52.3652 53.1999C50.7413 54.1045 50.1022 55.34 49.8844 56.97Z" fill="#A82626"/>
<path d="M49.5825 53.294C49.5709 53.2913 49.53 53.282 49.5416 53.2846C48.1571 52.5165 46.9753 52.4804 44.4479 51.836L44.4503 51.8318L41.8252 50.668L41.8061 50.6945C41.806 50.6912 41.8058 50.6881 41.8056 50.685L38.382 53.6705L34.9685 50.68L32.3546 51.8319C29.804 52.4819 28.6271 52.5167 27.2429 53.2846L27.2021 53.294C25.5891 54.2062 24.9658 55.4431 24.7509 57.075L23.876 64.3164L29.2843 64.8419C29.6252 64.8751 29.8788 65.1494 29.8616 65.4665L29.2603 76.5542C34.8494 76.5542 41.8012 76.5542 47.5369 76.5542L46.9021 65.4318C46.8851 65.1344 47.1227 64.8766 47.4425 64.8455L48.8882 64.705L49.4781 59.8229C49.8702 57.2785 49.6446 55.8225 50.9222 54.3741C50.5006 53.896 49.8991 53.473 49.5825 53.294Z" fill="#70BBEF"/>
<path d="M50.4023 55.1004C50.4106 55.0858 50.4183 55.0712 50.4267 55.0566C50.4183 55.0711 50.4106 55.0858 50.4023 55.1004Z" fill="#70BBEF"/>
<path d="M50.3518 55.1914C49.7079 56.4029 49.7976 57.7527 49.4785 59.8232C49.7955 57.7745 49.7073 56.4077 50.3518 55.1914Z" fill="#70BBEF"/>
<path d="M49.4784 59.8223L49.4678 59.9109C49.4723 59.873 49.4759 59.8427 49.4784 59.8223Z" fill="#70BBEF"/>
<path d="M47.8623 73.586C47.8584 73.3722 47.8688 73.178 47.8837 73.0181C47.9483 72.4837 48.4472 68.3547 48.8708 64.8496H47.418C47.111 64.8914 46.8856 65.1416 46.9022 65.4312L47.5371 76.5531C49.5664 76.5528 50.8966 76.5524 50.9321 76.5519C48.9352 76.521 47.8333 75.1128 47.8623 73.586Z" fill="#70BBEF"/>
<path d="M26.7958 64.1905C27.7667 55.6023 27.511 54.7907 28.8388 53.362C29.0707 53.1125 29.3437 52.8758 29.6803 52.6465C29.4796 52.7022 28.4549 52.8415 27.3479 53.4243L27.3058 53.4334C24.2371 55.0804 24.9934 57.0274 23.8848 64.1905L26.7619 64.4558L26.7958 64.1905Z" fill="#4CAEE5"/>
<path d="M63.4852 55.1517C66.01 55.1517 68.2245 53.8072 69.4765 51.7858L67.1975 51.2428C67.0127 51.1626 66.8846 50.899 66.8846 50.5984V47.6505V47.6367C64.807 48.5152 62.3219 48.5655 60.1253 47.6367V47.6505V50.5984C60.1253 50.899 59.9972 51.1626 59.8123 51.2428L57.499 51.7939C58.7521 53.8109 60.9638 55.1517 63.4852 55.1517Z" fill="#EAB883"/>
<path d="M27.7659 37.2579C27.7998 34.8531 26.9011 27.8417 34.5886 25.0427C38.8628 23.4878 43.6267 24.7213 46.5084 27.9865C46.5088 27.987 46.5092 27.9873 46.5095 27.9877C49.8167 31.7354 48.803 35.6335 48.9924 37.2579" fill="#4C4846"/>
<path d="M27.6528 37.1175C27.6871 34.7517 26.7785 27.8539 34.5502 25.1003C38.8711 23.5705 43.6871 24.7841 46.6003 27.9964C46.6007 27.9968 46.6011 27.9971 46.6015 27.9975C49.9448 31.6845 48.92 35.5194 49.1115 37.1175" fill="#4C4846"/>
<path d="M30.0492 32.5217C30.9306 28.2164 34.6729 24.8697 39.3402 24.4251C36.9621 24.1988 34.5722 24.741 32.5455 26.0061C27.5718 29.0994 27.805 33.2631 27.749 37.2579H29.8508C29.8685 34.5251 29.7736 33.8677 30.0492 32.5217Z" fill="#3F3B39"/>
<path d="M49.6461 38.0051C49.6461 39.1504 48.4492 40.0786 46.9727 40.0786V35.9316C48.4491 35.9316 49.6461 36.8599 49.6461 38.0051Z" fill="#DD9A5E"/>
<path d="M27.1191 38.0051C27.1191 39.1504 28.3161 40.0786 29.7927 40.0786V35.9316C28.3161 35.9316 27.1191 36.8599 27.1191 38.0051Z" fill="#DD9A5E"/>
<path d="M46.9727 38.2158V40.0797C48.9792 40.0797 50.2468 38.4373 49.3607 37.0742C48.9207 37.7512 48.0169 38.2158 46.9727 38.2158Z" fill="#D38D54"/>
<path d="M27.4045 37.0742C27.2224 37.3545 27.1191 37.6708 27.1191 38.006C27.1191 39.1513 28.3161 40.0796 29.7927 40.0796V38.2157C28.7483 38.2158 27.8444 37.7512 27.4045 37.0742Z" fill="#D38D54"/>
<path d="M45.0527 32.9858C45.0338 32.305 44.3556 31.7996 43.6197 31.9044C43.611 31.9057 43.4541 31.9276 43.4075 31.9339C40.0573 32.3896 36.7062 32.414 33.1184 31.9044C32.3825 31.7996 31.7043 32.305 31.6854 32.9858C31.6766 33.3069 31.6276 33.6494 31.5297 33.9673C31.3442 34.5703 30.9873 35.0918 30.4934 35.4826C30.0592 35.8266 29.6921 35.9406 29.6807 35.9471C29.6807 38.7569 29.6807 37.9689 29.6807 40.7604C29.6807 43.1252 30.8224 45.3937 32.9141 46.9424C37.9172 50.6356 45.3659 48.2319 46.8233 42.598C47.1409 41.3705 47.0575 40.8718 47.0575 35.9472C46.057 35.6052 45.0958 34.5484 45.0527 32.9858Z" fill="#EDAE6B"/>
<path d="M32.5772 42.4772C32.4735 41.6977 32.509 41.5436 32.5044 36.8665C32.5044 36.429 32.7571 36.1517 32.9355 36.0098C33.1501 35.8773 33.3368 35.727 33.5043 35.562C33.703 35.366 33.8833 35.1357 34.0292 34.885C34.0388 34.8685 34.0875 34.781 34.115 34.7272C34.7967 33.393 34.1853 32.7159 35.0252 32.1235C34.3697 32.0641 33.7342 31.9897 33.1269 31.9043C32.3892 31.8002 31.7093 32.3023 31.6903 32.9786C31.6809 33.3035 31.6313 33.6407 31.5342 33.9537C31.3491 34.5476 30.9967 35.0658 30.4954 35.459C30.0601 35.8008 29.6921 35.914 29.6807 35.9205C29.6807 38.7118 29.6807 37.929 29.6807 40.7021C29.6807 44.0265 31.9983 46.0466 32.0206 46.084C32.3334 46.3864 32.6012 46.6083 32.922 46.8435C33.956 47.6001 35.1622 48.1171 36.249 48.3521C36.2323 48.3406 32.8809 44.7586 32.5772 42.4772Z" fill="#DD9A5E"/>
<path d="M41.8558 50.498L38.5674 53.5268L40.3426 55.2769C40.6815 55.6111 41.2433 55.5785 41.5397 55.2075L44.363 51.6721L41.8558 50.498Z" fill="#DADADA"/>
<path d="M43.1476 51.254L41.8258 50.668L38.3828 53.6705L39.6127 54.8185L43.1476 51.254Z" fill="#CECCCA"/>
<path d="M40.4941 55.5664C40.6497 55.6308 40.821 55.649 40.985 55.6216L40.4941 55.5664Z" fill="#CECCCA"/>
<path d="M35.0892 50.8574L38.5667 53.6654L36.6732 55.2944C36.3116 55.6055 35.7124 55.5752 35.3963 55.2298L32.3848 51.939L35.0892 50.8574Z" fill="#DADADA"/>
<path d="M36.0554 53.6908L37.2832 54.7938L38.5668 53.7019L35.0044 50.8574L33.5439 51.435L36.0554 53.6908Z" fill="#CECCCA"/>
<path d="M62.9082 52.2307V48.2935C61.9077 48.2276 60.963 47.9977 60.1129 47.6367C60.1129 48.6871 60.1129 49.4407 60.1129 50.5969C60.1129 50.8974 59.9854 51.1608 59.8014 51.241L57.499 51.7919C58.0722 52.7185 58.8472 53.5018 59.7608 54.0781L62.151 53.2334C62.1511 53.2333 62.9082 52.8722 62.9082 52.2307Z" fill="#D8A373"/>
<path d="M71.3047 38.2225C71.7937 38.2433 72.179 38.6092 72.179 39.0541V39.6513C72.1768 40.66 72.2163 41.2989 72.0508 42.1652C70.9923 47.6983 64.0124 50.5196 58.7776 47.4428C58.5758 47.3243 58.3781 47.1971 58.2035 47.0754C54.1488 44.2507 54.8831 40.1963 54.7981 39.6514V36.8V36.4C54.7981 35.9352 55.1584 35.5378 55.6586 35.4417C56.5462 35.2711 57.9804 34.8077 59.2813 33.5493C59.6083 33.2331 60.1661 33.2495 60.47 33.5841C61.7325 34.974 65.1415 37.9608 71.3047 38.2225Z" fill="#F7CF9C"/>
<path d="M60.2466 46.4699C60.2257 46.4513 60.2057 46.432 60.1851 46.4132C60.1225 46.3561 60.0603 46.2988 59.9996 46.24C59.9916 46.2322 59.9837 46.2244 59.9757 46.2166C59.9747 46.2156 59.9737 46.2145 59.9727 46.2135C59.9671 46.208 59.9614 46.2025 59.9558 46.197C59.9032 46.1455 59.8517 46.0929 59.8011 46.0398C56.875 42.9697 57.8317 40.0897 57.6449 37.7968V34.949V34.752C56.887 35.1591 56.1787 35.3631 55.6597 35.4636C55.1638 35.5597 54.8066 35.9565 54.8066 36.4207V36.8202V39.668C54.8844 40.17 54.0786 44.5049 58.5452 47.3235C58.6749 47.4055 58.8438 47.504 58.8613 47.5141C60.6011 48.5093 62.709 48.9238 64.8406 48.6004C64.7577 48.5879 61.4749 47.5664 60.2466 46.4699Z" fill="#EAB883"/>
<path d="M71.1651 52.2138L69.5091 51.832C68.241 53.8134 65.9984 55.1311 63.4414 55.1311C63.4415 55.1311 71.1994 62.3172 71.1651 52.2138Z" fill="#B72C2C"/>
<path d="M55.755 52.2138L57.4109 51.832C58.679 53.8134 60.9216 55.1311 63.4786 55.1311C63.4786 55.1311 55.7207 62.3172 55.755 52.2138Z" fill="#B72C2C"/>
<path d="M59.7885 54.1238C58.4196 54.7989 56.8423 55.1209 55.832 53.8691C56.6358 61.4683 63.4786 55.1301 63.4786 55.1301C62.1286 55.1301 60.8662 54.7624 59.7885 54.1238Z" fill="#A82626"/>
<path d="M67.1327 54.1238C68.5015 54.7989 70.0788 55.1209 71.0891 53.8691C70.2853 61.4683 63.4424 55.1301 63.4424 55.1301C64.7925 55.1301 66.0548 54.7624 67.1327 54.1238Z" fill="#A82626"/>
<path d="M56.116 52.34C51.8646 47.8367 43.9766 50.723 43.9766 56.7084V58.7292H57.8781C57.7437 57.6888 58.4759 54.7923 56.116 52.34Z" fill="#996123"/>
<path d="M51.704 50.1721C47.6252 49.8037 44.1212 52.7174 43.9815 56.4791C43.9728 56.7174 43.9787 56.6394 43.9767 58.7292H45.3602V56.7079C45.36 53.3335 48.1053 50.5004 51.704 50.1721Z" fill="#8E551C"/>
<path d="M58.8608 59.358C58.8608 60.3251 57.8502 61.1088 56.6035 61.1088V57.6074C57.8502 57.6074 58.8608 58.3912 58.8608 59.358Z" fill="#EFD0A3"/>
<path d="M43.0244 59.358C43.0244 60.3251 44.0351 61.1088 45.2817 61.1088V57.6074C44.035 57.6074 43.0244 58.3912 43.0244 59.358Z" fill="#EFD0A3"/>
<path d="M56.6025 59.6068V61.1096C58.2585 61.1096 59.3528 59.7685 58.639 58.6074C58.2762 59.1978 57.5018 59.6068 56.6025 59.6068Z" fill="#E2BF91"/>
<path d="M43.2445 58.6074C42.5248 59.7783 43.638 61.1096 45.281 61.1096V59.6068C44.3816 59.6067 43.6073 59.1977 43.2445 58.6074Z" fill="#E2BF91"/>
<path d="M60.59 76.6213C59.9576 71.504 59.9908 71.5022 59.8785 70.9929C59.6861 70.1205 59.1255 69.4328 58.3472 68.9869L58.3203 68.9806C57.3585 68.4402 56.6655 68.4639 53.4071 67.6498C53.0473 67.4971 53.2563 66.841 53.1972 65.1699C51.8016 65.7499 50.1256 65.7776 48.6644 65.1811V67.2263C48.6644 67.4239 48.5785 67.5971 48.4544 67.6498C45.2076 68.461 44.5046 68.4395 43.5413 68.9806L43.5143 68.9869C42.4444 69.5997 42.0332 70.4301 41.8912 71.5221L41.2715 76.6213H60.59Z" fill="#EFD0A3"/>
<path d="M60.59 76.6218C59.9576 71.5833 59.9908 71.5815 59.8785 71.08C59.6861 70.2206 59.1122 69.5365 58.3472 69.105L58.3203 69.0988C57.3941 68.5865 56.6724 68.5853 54.4719 68.0332C52.7547 70.3146 49.1074 70.3153 47.3897 68.0332C45.1702 68.5901 44.4641 68.5884 43.5413 69.0988L43.5143 69.105C42.408 69.729 42.0279 70.5656 41.8912 71.6011L41.2715 76.6218C43.5985 76.6218 58.1797 76.6218 60.59 76.6218Z" fill="#7EBC7E"/>
<path d="M44.7488 68.3906C44.7247 68.3984 44.112 68.5133 43.4741 68.8871L43.448 68.8935C42.3543 69.5469 42.002 70.4236 41.8728 71.4596L41.2715 76.6213H42.9272L43.5286 70.7038C43.6453 69.7665 43.9202 69.029 44.7488 68.3906Z" fill="#5EAA5E"/>
<path d="M49.3889 69.4642L50.7142 69.1448C51.0806 68.9843 50.8571 68.3261 50.924 65.6186C50.1495 65.6142 49.3922 65.45 48.7274 65.1699V67.2785C48.7274 67.4821 48.6416 67.6607 48.5177 67.7151L47.4541 67.9713C47.9311 68.6358 48.6028 69.1585 49.3889 69.4642Z" fill="#E2BF91"/>
<path d="M56.4326 57.2669C56.3432 57.2478 56.2737 57.2276 56.262 57.2245C55.7149 57.07 54.7697 56.6248 54.0129 55.342C53.8592 55.0815 53.4333 55.0879 53.2905 55.3533C52.595 56.6454 49.7998 58.4364 45.5216 57.4026C45.3323 57.3569 45.1357 57.479 45.1357 57.6643V60.7625C45.1357 62.96 46.7136 64.8737 48.9918 65.5876C52.756 66.7695 56.7269 64.2939 56.7269 60.7625V57.6643C56.7269 57.4278 56.5652 57.3178 56.4326 57.2669Z" fill="#FCE3BB"/>
<path d="M48.1209 61.3787C48.0368 60.807 48.0859 60.6044 48.0718 57.6193C47.2946 57.6222 46.4447 57.5299 45.5267 57.3086C45.3349 57.2623 45.1357 57.3858 45.1357 57.5732V60.7065C45.1357 64.0647 48.7439 66.5712 52.4768 65.7201C50.1803 65.1965 48.4316 63.4897 48.1209 61.3787Z" fill="#EFD0A3"/>
<path d="M77.9525 56.9777C77.706 55.1074 76.9053 53.6416 75.1013 52.6208C73.7944 51.8795 72.7361 51.7641 67.7308 50.6098V50.3675H72.7268C73.9382 50.3675 74.9256 49.4616 74.9406 48.3426C75.5712 38.4374 75.6663 37.3026 75.6232 36.8344C75.6232 36.4 75.2432 36.048 74.7743 36.048C74.3053 36.048 73.9253 36.4 73.9253 36.8344V37.5804C73.2132 48.7673 73.2429 48.2713 73.2429 48.3166C73.2429 48.5757 73.0065 48.7946 72.7268 48.7946H67.7308V48.5911C68.0047 48.4216 70.0337 47.5929 71.5069 45.3821C73.1386 42.9431 72.9113 40.8816 72.9143 38.8854C72.9143 38.0855 72.2406 37.435 71.3806 37.4045H71.3805C65.0846 37.1816 61.854 33.8759 61.0136 32.868C60.7557 32.5585 60.3655 32.3733 59.9434 32.3599C59.523 32.348 59.1168 32.5067 58.836 32.7995C57.5148 34.1772 56.0204 34.613 55.2471 34.7502C54.5466 34.8745 54.038 35.4451 54.038 36.107C54.041 41.0498 54.0314 40.7775 54.0457 41.1252C54.0684 44.1949 56.2988 47.2803 59.1882 48.5757V48.7943H54.1204C53.8407 48.7943 53.6045 48.5754 53.6045 48.3163C53.6045 48.2705 53.6329 48.7469 52.9205 37.5569C52.9195 37.5426 52.9182 37.5279 52.9165 37.5137C52.9064 37.432 51.9686 29.3308 56.879 28.3313C57.1261 28.2811 57.3361 28.1311 57.4518 27.9227C57.4723 27.886 59.5667 24.2637 66.3227 25.4824C69.0118 25.9574 73.0355 28.9235 73.7911 33.2889C73.8652 33.7176 74.3001 34.0088 74.7638 33.9408C75.2267 33.8722 75.5419 33.4687 75.4676 33.0398C75.1407 30.9721 74.0295 28.7893 72.3492 27.1329L72.2889 27.0731C70.6032 25.4192 68.0941 24.1996 66.6468 23.9386C64.3694 23.528 61.0804 23.373 58.3421 24.9668C57.1628 25.653 56.4753 26.4447 56.1571 26.8787C53.652 27.5376 52.0109 29.6067 51.4005 32.8873C50.9643 35.2315 51.1963 37.4072 51.2271 37.6702C52.0223 49.0452 51.7496 48.6195 52.21 49.3483C49.7975 48.9889 47.3419 49.6277 45.4811 51.2571L44.739 51.0858C44.7185 51.0767 42.8504 50.2485 42.6742 50.1705V48.5743C46.8792 46.6419 47.552 42.7762 47.5927 42.7051C47.74 42.0903 47.8208 41.4399 47.8208 40.787V40.7793C49.3539 40.4699 50.4935 39.3432 50.4935 38.0039C50.4935 37.4491 50.2973 36.9312 49.9592 36.4922C49.9732 34.424 50.0363 33.2074 49.5582 31.5763C49.4358 31.2877 49.0351 29.4609 47.2581 27.4973C47.2553 27.4942 47.2524 27.4909 47.2497 27.4879C43.9654 23.8697 38.3012 22.4886 33.2204 24.7819C29.3653 26.5625 26.8052 30.235 26.8052 34.3825C26.8053 35.0727 26.805 36.4086 26.8056 36.4923C25.5434 38.1308 26.621 40.3108 28.9446 40.7795C29.0221 44.3452 31.0927 47.1589 34.1318 48.593V50.1526L31.9822 51.1057C29.6403 51.713 27.8233 51.8717 26.4325 52.827C24.7478 54.0184 24.1575 55.0979 23.9093 56.9856C21.8954 73.8596 21.9424 72.8351 21.9562 73.5863C21.9316 75.5903 23.4439 77.3387 25.9462 77.3387L33.3677 77.3386C33.8367 77.3386 34.2167 76.9866 34.2167 76.5522C34.2167 76.1178 33.8367 75.7659 33.3677 75.7659H30.1779L31.0197 61.0166C31.0445 60.5829 30.685 60.2128 30.2167 60.1898C29.7502 60.1657 29.3488 60.4999 29.3241 60.9337L29.1471 64.0358L24.8166 63.615L24.8308 63.4982C25.7047 57.0875 25.3906 56.1162 26.5587 54.8296L26.5684 54.8188C27.9907 53.2632 30.2458 53.2288 31.9918 52.724L34.6016 55.8186C35.2257 56.5589 36.4108 56.6251 37.1266 55.9573L37.5336 55.5773V59.3828C37.5336 59.8172 37.9136 60.1692 38.3826 60.1692C38.8515 60.1692 39.2315 59.8172 39.2315 59.3828V55.5774L39.6385 55.9573C39.9559 56.2535 40.3871 56.4188 40.8349 56.4188C40.8681 56.4188 40.9015 56.4178 40.9348 56.4161C41.4178 56.3895 41.8656 56.1718 42.1634 55.8187L43.3563 54.4043C42.8617 55.8803 43.0353 56.9891 42.9988 57.616C41.3714 59.0283 42.2013 61.3451 44.4997 61.8176C44.827 63.5918 45.9895 65.1827 47.8272 66.1148V67.0711C44.8323 67.8183 42.4769 67.849 41.4111 70.2015C41.3654 70.3026 41.3346 70.3868 41.3022 70.4836C41.2587 70.6111 41.218 70.761 41.1957 70.8604C41.0649 71.4467 41.0599 71.8176 40.5611 75.7659H37.3296C36.8607 75.7659 36.4807 76.1178 36.4807 76.5522C36.4807 76.9866 36.8607 77.3386 37.3296 77.3386H41.3188H41.3293C41.3299 77.3386 41.3306 77.3387 41.3312 77.3387C41.332 77.3387 41.3328 77.3386 41.3336 77.3386H60.5297C60.5297 77.3386 60.5313 77.3387 60.5321 77.3387C60.5321 77.3387 60.5335 77.3386 60.534 77.3386H60.5442H64.1272C64.5961 77.3386 64.9761 76.9866 64.9761 76.5522C64.9761 76.1178 64.5961 75.7659 64.1272 75.7659H61.3019C60.841 72.6297 60.8848 71.2822 60.5004 70.3161C59.9894 69.0251 58.7459 68.1618 57.3987 67.8464L54.036 67.0709V66.1009C55.8043 65.2029 57.0139 63.6098 57.3364 61.8174C57.348 61.8114 59.313 61.4789 59.6444 59.7618C59.7388 59.2833 59.6671 58.7778 59.4069 58.3106C61.0232 58.006 62.6036 56.8994 63.4577 56.2136C67.7845 59.69 71.6704 59.2547 71.9875 53.212C72.6101 53.391 75.5516 53.8082 76.1395 56.4426C76.1837 56.6401 76.2344 56.9204 76.2661 57.1601L77.0455 63.6128L72.749 64.0303L72.5723 60.9333C72.5476 60.4996 72.1425 60.1645 71.6798 60.1895C71.2115 60.2125 70.852 60.5826 70.8768 61.0163L71.7185 75.7655H68.0888C67.6198 75.7655 67.2398 76.1175 67.2398 76.5519C67.2398 76.9863 67.6198 77.3383 68.0888 77.3383L75.9161 77.3384C77.0597 77.3384 78.0414 76.9841 78.7553 76.3138C79.4893 75.6247 79.9193 74.6045 79.9062 73.5837C79.9173 72.9214 79.9756 73.8543 77.9525 56.9777ZM29.0053 65.6034L28.4541 75.7659H25.9461C24.4696 75.7659 23.6865 74.8707 23.6539 73.5713C23.6437 73.0146 23.6759 73.203 24.6278 65.1779L29.0053 65.6034ZM58.8236 52.3148L59.9253 52.0608C59.9752 52.0493 60.0239 52.0336 60.0707 52.014C60.5661 51.806 60.8861 51.2769 60.8861 50.6661L60.8862 49.1947C62.4222 49.5986 64.0449 49.677 66.0329 49.2035V50.6661C66.0329 51.277 66.353 51.8062 66.8485 52.014C66.8953 52.0337 66.944 52.0493 66.9938 52.0608L68.0926 52.3143C65.6016 55.0141 61.3199 55.0197 58.8236 52.3148ZM57.4275 60.1202V58.594C57.73 58.7542 57.9865 59.0319 57.9865 59.3571C57.9865 59.7653 57.6521 59.9642 57.4275 60.1202ZM58.8371 56.81C58.8199 56.6908 58.9297 55.5949 58.3983 54.1749C59.2915 54.8836 60.3305 55.395 61.4508 55.6731C60.6408 56.2119 59.6632 56.7263 58.8371 56.81ZM57.8308 45.6919C55.1446 42.9272 55.7383 40.4332 55.7358 36.2633C56.7092 36.0669 58.3719 35.5305 59.8792 34.0719C61.0856 35.4203 64.6836 38.7099 71.2162 38.9727C71.2126 41.0629 71.2226 40.6899 71.2086 41.1119L71.2083 41.1095C71.1321 41.392 71.2882 43.9892 68.4338 46.2925C68.4221 46.3013 68.3241 46.3753 68.3359 46.3665C65.6791 48.3546 61.985 48.4409 59.2811 46.8123C59.1101 46.7098 58.0228 45.8622 57.8308 45.6919ZM59.1882 50.61L56.3602 51.2621C55.9329 50.887 55.5922 50.6438 55.1165 50.3677H59.1882V50.61ZM55.0394 52.2697C55.0389 52.2738 55.0493 52.2733 55.0488 52.2774C56.0524 53.1039 56.7384 54.1725 57.0288 55.5013C57.1713 56.193 57.1331 56.7518 57.1393 56.86C56.8541 56.5349 56.5177 56.4744 56.3832 56.4348C56.009 56.324 55.2906 55.9763 54.6807 54.8922C54.2039 54.045 52.8932 54.0768 52.4556 54.9295C51.959 55.8967 49.6931 57.5792 45.8581 56.6076C45.4868 56.514 45.0859 56.5924 44.781 56.8501C44.7526 56.8537 44.7246 56.8583 44.6966 56.8625C44.6988 56.3461 44.7033 56.3263 44.7028 56.3369C44.9206 51.5376 51.1111 49.0525 55.0394 52.2697ZM44.4084 58.594V60.1192C43.6337 59.7091 43.6999 58.9672 44.4084 58.594ZM38.3826 52.5885L35.8296 50.362V49.2044C37.5224 49.6454 39.3023 49.6269 40.9559 49.1989V50.344L38.3826 52.5885ZM47.8206 39.1379V36.8705C49.1172 37.3659 49.1174 38.6423 47.8206 39.1379ZM28.6787 32.6587C28.7771 32.4149 29.1512 29.7395 31.8222 27.5407H31.8221C32.1797 27.2843 32.7671 26.7121 34.2815 26.0548C37.5449 24.6743 41.5373 24.8917 44.9424 27.5408C47.2454 29.4359 47.7491 31.5854 47.9182 31.9837C48.3921 33.6023 48.226 34.7458 48.2616 35.3439C47.8958 35.2265 47.5004 35.1576 47.087 35.1467C46.8717 35.034 46.6725 34.8779 46.5157 34.718C45.3582 33.4826 46.3401 32.526 45.0984 31.5662C44.223 30.8895 43.3846 31.148 41.8353 31.3357C34.6196 32.0563 33.1719 30.4027 31.6667 31.5662C31.2228 31.9093 30.9433 32.4056 30.9243 33.0212C30.8562 34.6909 29.7518 35.0698 29.6782 35.1466C29.2646 35.1575 28.8691 35.2265 28.5031 35.3438C28.5139 34.5208 28.4484 33.7752 28.6787 32.6587ZM28.9444 36.8703V39.1381C27.6472 38.6426 27.647 37.3658 28.9444 36.8703ZM30.6423 40.7872C30.6423 39.912 30.6423 37.9481 30.6423 36.4448C31.2849 36.0158 31.7575 35.6681 32.1803 34.8372C32.4229 34.3623 32.6 33.7635 32.6239 33.021C32.6294 32.8174 32.8361 32.6618 33.0613 32.6951C42.0261 33.8006 44.1137 32.0178 44.1411 33.0206C44.195 34.7787 45.2383 35.7456 45.2551 35.7716C45.5667 36.0904 45.7666 36.2071 46.1224 36.4447C46.1225 37.2625 46.1222 39.997 46.1227 40.0838C46.0666 40.3109 46.7258 44.7745 41.9322 47.1598H41.9324C41.9204 47.1644 40.6836 47.8226 38.895 47.9392C38.4456 47.9664 38.0032 47.9485 38.0147 47.9487C33.8142 47.7672 30.6423 44.5403 30.6423 40.7872ZM35.9313 54.8404L33.6454 52.1298L34.7953 51.6201L37.1662 53.6878L35.9313 54.8404ZM40.8338 54.8404L39.5991 53.6878L41.9835 51.6081L43.1309 52.1168L40.8338 54.8404ZM50.6076 66.8299C50.6282 66.8309 50.6485 66.8315 50.669 66.832L50.7295 66.8339C51.343 66.849 51.9389 66.7852 52.338 66.6927C52.38 66.9949 52.1518 67.8737 52.8617 68.3503C51.6947 69.0836 50.1703 69.085 49.0012 68.3503C49.709 67.8751 49.4845 66.9871 49.5249 66.6984C49.8603 66.7662 50.2265 66.8135 50.6076 66.8299ZM47.0807 68.864C48.0507 69.8805 49.4509 70.4736 50.9315 70.4736C52.4122 70.4736 53.8124 69.8806 54.7822 68.864L54.8185 68.8724C56.5334 69.3061 57.1103 69.3069 57.8491 69.7168C59.396 70.5753 58.9596 71.6344 59.5839 75.766H57.3242L57.2236 74.0686C57.1979 73.6349 56.7977 73.3021 56.3295 73.3266C55.8613 73.3504 55.5026 73.7213 55.5284 74.1548L55.6239 75.7659H46.2625L46.3579 74.1548C46.3837 73.7212 46.025 73.3503 45.5569 73.3266C45.0861 73.3031 44.6883 73.635 44.6627 74.0686L44.5622 75.766H42.2795C42.842 71.2962 42.6039 70.4994 44.0141 69.7168C44.7186 69.3254 45.1766 69.3314 47.0807 68.864ZM52.9604 64.8436C52.9221 64.848 50.3623 66.117 47.898 64.2761C47.8707 64.241 46.4119 63.295 46.1465 61.3865C46.0744 60.874 46.1206 60.4649 46.1063 58.2796C49.8339 58.9938 52.4321 57.607 53.5689 56.2319C54.3227 57.26 55.1808 57.7017 55.7295 57.8891C55.7279 61.2556 55.7347 60.8292 55.7207 61.063C55.7172 61.1206 55.713 61.1749 55.7081 61.2272C55.5464 62.8345 54.4609 64.1926 52.9604 64.8436ZM68.8636 56.727C67.8797 57.1072 66.3289 56.2532 65.4541 55.6673C67.2567 55.2044 68.7895 54.1914 69.891 52.729L70.3051 52.8245C70.2344 55.0157 69.7295 56.3926 68.8636 56.727ZM77.5469 75.2095C76.6467 76.0545 75.4249 75.6654 73.4188 75.7659L72.8388 65.6032L77.2343 65.176L78.1908 73.0939C78.2624 73.8759 78.1466 74.6465 77.5469 75.2095Z" fill="black"/>
</svg>
