<svg width="218" height="200" viewBox="0 0 218 200" fill="none" xmlns="http://www.w3.org/2000/svg">
<path d="M31.751 159.664C48.3552 181.125 97.6453 170.911 141.838 136.834C186.042 102.758 208.406 57.7133 191.802 36.2519C175.197 14.7788 125.907 25.0052 81.7146 59.0815C37.5218 93.1694 15.1468 138.203 31.751 159.664ZM89.5638 69.2383C130.122 37.9679 172.747 25.2487 184.788 40.8085C196.829 56.3684 173.711 94.3404 133.164 125.599C92.606 156.87 49.9808 169.601 37.9515 154.029C25.8989 138.469 49.0171 100.497 89.5638 69.2383Z" fill="#66DCCC" stroke="#262262" stroke-miterlimit="10"/>
<path d="M126.429 138.608C125.059 137.484 124.107 137.797 112.925 144.846C101.744 151.896 97.4358 154.76 97.6797 156.151C97.9235 157.542 101.662 157.125 105.912 155.386C110.591 153.473 117.535 149.055 121.843 145.832C124.386 143.919 127.799 139.745 126.429 138.608Z" fill="white" stroke="#262262" stroke-miterlimit="10"/>
<path d="M143.511 126.063C143.511 126.063 142.024 125.089 139.04 127.57C136.044 130.051 132.619 133.402 132.503 134.075C132.387 134.747 132.166 136.023 134.361 135.86C136.555 135.698 141.978 130.017 141.978 130.017C141.978 130.017 145.287 127.269 143.511 126.063Z" fill="white" stroke="#262262" stroke-miterlimit="10"/>
</svg>
