<svg width="218" height="200" viewBox="0 0 218 200" fill="none" xmlns="http://www.w3.org/2000/svg">
<path d="M79.9004 112.99L158.465 24.4993L163.422 21L205.409 60.8034L201.141 63.6881L113.787 143.049L79.9004 112.99Z" fill="#CB84F0" stroke="#262262" stroke-miterlimit="10"/>
<path d="M113.474 143.388C116.114 140.48 110.737 131.32 101.465 122.927C92.1929 114.535 82.5371 110.088 79.8979 112.996C77.2586 115.903 82.6355 125.063 91.9075 133.456C101.179 141.848 110.835 146.295 113.474 143.388Z" fill="#CB84F0" stroke="#262262" stroke-miterlimit="10"/>
<path d="M158.465 24.499L201.141 63.6878" stroke="#262262" stroke-miterlimit="10"/>
<path d="M160.854 26.6869L166.254 23.6875" stroke="#262262" stroke-miterlimit="10"/>
<path d="M163.447 29.0717L168.757 26.3018" stroke="white" stroke-miterlimit="10"/>
<path d="M166.295 31.6942L171.818 28.957" stroke="white" stroke-miterlimit="10"/>
<path d="M168.912 34.0958L174.657 31.6455" stroke="#262262" stroke-miterlimit="10"/>
<path d="M171.982 36.9151C171.991 36.9233 177.58 34.4238 177.58 34.4238" stroke="#262262" stroke-miterlimit="10"/>
<path d="M174.979 39.6603L180.559 37.251" stroke="#262262" stroke-miterlimit="10"/>
<path d="M177.965 42.4466L183.628 40.1602" stroke="#262262" stroke-miterlimit="10"/>
<path d="M180.994 45.1836L186.468 42.8398" stroke="#262262" stroke-miterlimit="10"/>
<path d="M183.916 47.8717L189.702 45.9131" stroke="#262262" stroke-miterlimit="10"/>
<path d="M186.846 50.5595L192.599 48.6582" stroke="#262262" stroke-miterlimit="10"/>
<path d="M189.906 53.3703L195.668 51.5674" stroke="#262262" stroke-miterlimit="10"/>
<path d="M192.967 56.1818L198.326 54.3379" stroke="#262262" stroke-miterlimit="10"/>
<path d="M195.824 58.8035L201.364 56.9678" stroke="#262262" stroke-miterlimit="10"/>
<path d="M198.893 61.6228L204.58 60.0166" stroke="#262262" stroke-miterlimit="10"/>
<path d="M92.3253 108.704C92.3253 108.704 90.2571 108.63 92.1611 105.352C93.2034 103.565 98.62 96.0423 104.907 88.8061C106.466 87.0032 116.454 74.1615 121.476 77.251C123.471 78.4803 120.762 82.6844 117.143 86.1673C113.91 89.2896 108.214 92.8053 106.761 94.1738C105.309 95.5424 102.395 99.9677 97.5941 105.581C95.1567 108.433 94.0652 108.941 92.3253 108.704Z" fill="white" stroke="#262262" stroke-miterlimit="10"/>
<path d="M86.7363 121.013L76.7402 137.337L87.1138 146.729L102.756 134.28C102.756 134.28 102.518 130.502 94.4344 124.299C89.3871 120.423 86.7363 121.013 86.7363 121.013Z" fill="#CB84F0" stroke="#262262" stroke-miterlimit="10"/>
<path d="M87.5465 146.521C88.3634 145.563 86.6084 142.731 83.6267 140.196C80.6449 137.661 77.5655 136.383 76.7486 137.341C75.9318 138.299 77.6867 141.13 80.6685 143.666C83.6502 146.201 86.7296 147.479 87.5465 146.521Z" fill="#CB84F0" stroke="#262262" stroke-miterlimit="10"/>
<path d="M78.2754 134.838C78.2754 134.838 82.0588 135.707 85.0543 138.722C87.6477 141.337 88.8623 144.246 89.1742 145.09" fill="#CB84F0"/>
<path d="M78.2754 134.838C78.2754 134.838 82.0588 135.707 85.0543 138.722C87.6477 141.337 88.8623 144.246 89.1742 145.09" stroke="#262262" stroke-miterlimit="10"/>
<path d="M79.4082 132.994C79.4082 132.994 83.4378 134.035 86.6631 136.952C88.8626 138.936 90.4876 142.804 90.7994 143.648" fill="#CB84F0"/>
<path d="M79.4082 132.994C79.4082 132.994 83.4378 134.035 86.6631 136.952C88.8626 138.936 90.4876 142.804 90.7994 143.648" stroke="#262262" stroke-miterlimit="10"/>
<path d="M81.3531 142.672C81.3531 142.672 79.9825 144.262 80.2862 148.802C80.5734 153.055 78.2755 156.94 74.5578 158.98C67.27 162.979 65.0869 160.652 59.178 160.291C53.269 159.931 48.0822 162.988 44.1757 166.159C40.2774 169.331 36.7812 178.214 22.8212 178.96C8.86124 179.705 11.8075 167.97 13.4735 165.684C15.1395 163.397 18.3977 158.997 27.8603 159.005C36.453 159.013 31.972 147.04 41.5823 142.344C41.5823 142.344 48.6156 136.927 60.2859 144.573C71.1273 151.687 79.2111 145.925 81.3531 142.672Z" fill="white" stroke="#262262" stroke-miterlimit="10" stroke-linejoin="round"/>
<path d="M42.4682 150.67C42.4682 150.67 41.3931 149.375 41.984 148.343C42.6159 147.237 44.6102 144.794 49.1322 145.319C53.6624 145.852 53.2767 147.425 52.1031 148.236C50.9295 149.048 47.4416 150.588 45.833 151.023C44.2327 151.457 43.2643 151.564 42.4682 150.67Z" fill="white" stroke="#262262" stroke-miterlimit="10" stroke-linejoin="round"/>
<path d="M55.1733 149.785C55.1733 149.785 53.1134 147.991 55.9612 147.384C58.809 146.778 60.1631 149.458 60.1631 149.458C60.1631 149.458 60.6884 149.933 58.7844 150.375C56.8722 150.81 55.1733 149.785 55.1733 149.785Z" fill="white" stroke="#262262" stroke-miterlimit="10" stroke-linejoin="round"/>
<path d="M20.1371 171.273C20.1371 171.273 17.1334 171.74 17.3796 169.183C17.6258 166.626 20.0304 165.839 21.7867 165.249C22.829 164.897 26.1856 164.618 26.5878 164.93C26.9899 165.241 26.3498 166.462 25.6358 167.233C24.93 167.995 22.7715 170.871 20.1371 171.273Z" fill="white" stroke="#262262" stroke-miterlimit="10" stroke-linejoin="round"/>
</svg>
