<svg width="218" height="200" viewBox="0 0 218 200" fill="none" xmlns="http://www.w3.org/2000/svg">
<path d="M191.575 143.234C186.068 113.209 136.811 92.6112 136.811 92.6112L134.096 93.1765L138.404 71.6875L180.254 108.266L193.398 129.592L195.039 138.78L191.259 146.243L188.995 148.245" fill="#66DCCC"/>
<path d="M191.575 143.234C186.068 113.209 136.811 92.6112 136.811 92.6112L134.096 93.1765L138.404 71.6875L180.254 108.266L193.398 129.592L195.039 138.78L191.259 146.243L188.995 148.245" stroke="#262262" stroke-miterlimit="10"/>
<path d="M103.385 158.965C103.385 158.965 150.368 166.639 179.775 155.708C212.962 143.378 189.36 118.076 183.229 109.415C177.607 101.473 149.687 73.8335 130.661 57.7383L137.387 73.3449C148.229 82.7433 160.567 92.1322 172.512 103.705C179.161 110.153 205.094 140.207 186.952 146.243C168.809 152.278 132.129 136.183 132.129 136.183L103.385 158.965Z" fill="white" stroke="#262262" stroke-miterlimit="10"/>
<path d="M83.7742 163.305C118.979 163.305 147.519 134.807 147.519 99.6526C147.519 64.4982 118.979 36 83.7742 36C48.5688 36 20.0293 64.4982 20.0293 99.6526C20.0293 134.807 48.5688 163.305 83.7742 163.305Z" fill="#66DCCC" stroke="#262262" stroke-miterlimit="10"/>
<path d="M125.02 90.852C125.618 77.961 111.09 66.816 92.5697 65.9588C74.0496 65.1017 58.551 74.8569 57.9526 87.7478C57.3542 100.639 71.8827 111.784 90.4028 112.641C108.923 113.498 124.422 103.743 125.02 90.852Z" fill="#66DCCC" stroke="#262262" stroke-miterlimit="10"/>
<path d="M34.2185 121.563C36.1566 118.823 46.1731 119.302 59.8354 130.061C73.4978 140.81 71.435 147.219 69.6025 148.369C67.77 149.519 60.4399 151.118 48.2934 141.96C36.147 132.801 32.2805 124.293 34.2185 121.563Z" fill="white" stroke="white" stroke-miterlimit="10"/>
</svg>
