<svg width="218" height="200" viewBox="0 0 218 200" fill="none" xmlns="http://www.w3.org/2000/svg">
<path d="M171.146 111.719C180.219 111.719 187.573 104.83 187.573 96.3324C187.573 87.8343 180.219 80.9453 171.146 80.9453C162.073 80.9453 154.719 87.8343 154.719 96.3324C154.719 104.83 162.073 111.719 171.146 111.719Z" fill="#FF376E" stroke="#262262" stroke-miterlimit="10"/>
<path d="M47.2964 112.736C56.3689 112.736 63.7236 105.847 63.7236 97.349C63.7236 88.851 56.3689 81.9619 47.2964 81.9619C38.2239 81.9619 30.8691 88.851 30.8691 97.349C30.8691 105.847 38.2239 112.736 47.2964 112.736Z" fill="#FF376E" stroke="#262262" stroke-miterlimit="10"/>
<path d="M161.514 51.1685C161.25 52.5049 159.987 55.2435 158.338 55.9023C156.735 56.5423 147.056 58.6315 139.714 63.5911C140.61 66.3768 141.09 69.3413 141.09 72.3999C141.081 76.2867 140.299 80.004 138.866 83.4203C135.03 93.6971 139.922 96.9157 139.403 112.482C138.763 131.727 129.027 130.636 121.817 139.67C113.259 150.371 113.061 167.706 113.061 167.706C108.01 170.567 105.182 167.696 105.182 167.696C105.182 167.696 108.622 148.093 95.2675 137.383C81.9127 126.664 80.0466 116.895 80.6875 110.901C81.3284 104.981 85.3527 97.5557 79.5565 85.4531C79.4811 85.2931 79.4057 85.1331 79.3209 84.9731C79.1984 84.7096 79.0853 84.4649 78.9816 84.2296C77.304 80.5687 76.3804 76.5408 76.3898 72.3152C76.3993 69.586 76.7762 66.9509 77.5114 64.4381C73.7698 62.4336 65.787 58.3398 62.3282 57.8786C57.6441 57.2575 57.4273 48.4676 59.1898 47.8464C59.1898 47.8464 73.9206 50.8956 81.2624 56.354C86.9832 47.7523 97.1807 42.0398 108.792 42.0586C119.932 42.0775 129.743 47.3571 135.549 55.3941C138.009 53.7189 146.783 48.6087 160.1 46.4348C162.362 46.0772 161.768 49.8322 161.514 51.1685Z" fill="#FF4D4E" stroke="#262262" stroke-miterlimit="10"/>
<path d="M165.897 54.9992C165.897 54.9992 177.047 54.4063 179.365 61.6999C181.684 68.9934 176.887 78.2445 174.53 79.3362C169.413 81.6984 162.731 78.7527 161.779 81.2937C160.497 84.7287 165.096 84.1829 168.216 85.8392C170.478 87.0345 167.405 89.3025 166.218 90.1777C165.03 91.053 160.356 96.2385 164.088 98.2524C167.434 100.059 169.045 96.9725 170.12 95.0903C171.194 93.2081 171.769 90.9212 173.494 91.1847C175.218 91.4576 175.577 93.1328 175.501 95.1562C175.426 97.1796 175.878 101.415 179.968 100.878C184.049 100.342 180.148 93.7351 180.534 92.3988C181.109 90.3754 182.042 90.3095 184.266 90.7142C186.49 91.1189 188.837 93.481 190.788 91.3165C192.729 89.1614 189.78 85.6416 185.199 84.6535C181.75 83.91 184.266 79.3268 184.841 77.9528C184.841 77.9528 190.072 64.1467 184.916 55.7803C179.309 46.6986 168.819 46.1528 168.536 46.0869C168.536 46.0869 166.095 47.2351 165.417 50.3031C164.757 53.3805 165.897 54.9992 165.897 54.9992Z" fill="#FF4D4E" stroke="#262262" stroke-miterlimit="10"/>
<path d="M52.5361 56.0246C52.5361 56.0246 41.3867 55.4317 39.0682 62.7253C36.7497 70.0188 41.5469 79.2699 43.903 80.3616C49.0207 82.7238 55.7028 79.7781 56.6547 82.3191C57.9364 85.7541 53.3372 85.2083 50.2176 86.8646C47.9557 88.0598 51.0281 90.3279 52.2156 91.2031C53.4032 92.0784 58.0778 97.2639 54.3456 99.2778C50.9999 101.085 49.3882 97.9979 48.3138 96.1157C47.2394 94.2335 46.6645 91.9466 44.9398 92.2101C43.215 92.483 42.8569 94.1582 42.9323 96.1816C43.0077 98.205 42.5553 102.44 38.465 101.904C34.3841 101.367 38.2859 94.7605 37.8995 93.4241C37.3246 91.4008 36.3916 91.3349 34.1673 91.7396C31.9431 92.1442 29.5963 94.5064 27.6454 92.3419C25.7039 90.1867 28.6539 86.667 33.2343 85.6788C36.6837 84.9354 34.1673 80.3522 33.5924 78.9782C33.5924 78.9782 28.3617 65.1721 33.517 56.8057C39.1247 47.724 49.6144 47.1782 49.8972 47.1123C49.8972 47.1123 52.3382 48.2605 53.0167 51.3285C53.6953 54.3965 52.5361 56.0246 52.5361 56.0246Z" fill="#FF4D4E" stroke="white" stroke-miterlimit="10"/>
<path d="M168.838 29.0244L166.613 37.9179" stroke="white" stroke-miterlimit="10"/>
<path d="M165.916 40.6943L163.691 49.5878" stroke="#262262" stroke-miterlimit="10"/>
<path d="M162.853 52.9375L160.629 61.8404" stroke="#262262" stroke-miterlimit="10"/>
<path d="M159.931 64.6074L157.707 73.5009" stroke="#262262" stroke-miterlimit="10"/>
<path d="M49.8691 30.0498L52.1028 38.9433" stroke="#262262" stroke-miterlimit="10"/>
<path d="M52.791 41.7197L55.0152 50.6132" stroke="#262262" stroke-miterlimit="10"/>
<path d="M55.8535 53.9639L58.0872 62.8573" stroke="#262262" stroke-miterlimit="10"/>
<path d="M58.7754 65.6338L61.009 74.5272" stroke="#262262" stroke-miterlimit="10"/>
<path d="M129.414 81.6603C129.423 81.6417 129.433 81.6231 129.442 81.6045C129.433 81.6045 129.433 81.6231 129.414 81.6603Z" fill="#E84448" stroke="#262262" stroke-miterlimit="10"/>
<path d="M89.4994 82.6303C87.4354 79.3835 86.9453 75.4873 86.9453 72.2122C86.9453 60.8343 97.0769 52.9102 109.216 52.9102C121.355 52.9102 131.204 62.133 131.204 73.511C131.204 76.3908 130.572 79.12 129.432 81.6045" fill="#E84448"/>
<path d="M89.4994 82.6303C87.4354 79.3835 86.9453 75.4873 86.9453 72.2122C86.9453 60.8343 97.0769 52.9102 109.216 52.9102C121.355 52.9102 131.204 62.133 131.204 73.511C131.204 76.3908 130.572 79.12 129.432 81.6045" stroke="#262262" stroke-miterlimit="10"/>
<path d="M129.432 81.6045C129.432 81.6045 129.423 81.6233 129.404 81.661C129.394 81.6704 129.394 81.6892 129.385 81.708C128.829 83.0444 121.487 97.5092 126.492 103.561C131.732 109.894 128.951 118.232 126.492 120.773C124.041 123.305 121.581 124.698 117.01 130.09C112.439 135.473 111.978 148.084 111.978 148.084L110.225 168.713L108.99 168.92L107.906 168.742C107.906 168.742 107.652 155.453 106.775 148.094C105.908 140.744 102.232 129.469 95.4749 121.62C88.708 113.772 95.2581 104.784 95.2581 104.784C96.3137 102.215 98.095 95.8528 92.9114 87.3264C91.9972 85.8207 90.8757 84.2584 89.4902 82.6303" fill="#E84448"/>
<path d="M129.432 81.6045C129.432 81.6045 129.423 81.6233 129.404 81.661C129.394 81.6704 129.394 81.6892 129.385 81.708C128.829 83.0444 121.487 97.5092 126.492 103.561C131.732 109.894 128.951 118.232 126.492 120.773C124.041 123.305 121.581 124.698 117.01 130.09C112.439 135.473 111.978 148.084 111.978 148.084L110.225 168.713L108.99 168.92L107.906 168.742C107.906 168.742 107.652 155.453 106.775 148.094C105.908 140.744 102.232 129.469 95.4749 121.62C88.708 113.772 95.2581 104.784 95.2581 104.784C96.3137 102.215 98.095 95.8528 92.9114 87.3264C91.9972 85.8207 90.8757 84.2584 89.4902 82.6303" stroke="#262262" stroke-miterlimit="10"/>
<path d="M160.1 46.4443C160.1 46.4443 157.433 47.4325 156.603 51.5075C156.047 54.2179 156.745 55.7425 158.017 56.0248" fill="#E84448"/>
<path d="M160.1 46.4443C160.1 46.4443 157.433 47.4325 156.603 51.5075C156.047 54.2179 156.745 55.7425 158.017 56.0248" stroke="#262262" stroke-miterlimit="10"/>
<path d="M52.5353 56.0249C51.5645 55.6673 49.5948 54.8486 48.9633 51.5735C48.1622 47.4044 49.8964 47.1221 49.8964 47.1221" fill="#E84448"/>
<path d="M52.5353 56.0249C51.5645 55.6673 49.5948 54.8486 48.9633 51.5735C48.1622 47.4044 49.8964 47.1221 49.8964 47.1221" stroke="#262262" stroke-miterlimit="10"/>
</svg>
