<?xml version="1.0" encoding="UTF-8"?>
<svg fill="none" viewBox="0 0 1500 784" xmlns="http://www.w3.org/2000/svg">
<path d="m741.04 68.528c-394.25 66.844-594.61-22.841-741.04-68.523l2.6519e-4 783 1500 6e-3v-714.48c-152.41-22.841-304-77.137-758.96 2e-4z" fill="#3B86FF"/>
<g opacity=".15" style="mix-blend-mode:multiply">
<path d="m811.55 400.22c297.97-435.82 688.45-268.76 688.45-268.76v651.55l-1500-4e-3 -5.021e-5 -274.69c247.87 67.805 619.17 121.75 811.55-108.1z" fill="#3B86FF"/>
</g>
<g opacity=".15" style="mix-blend-mode:multiply">
<path d="m0.0011008 783h1500v-259.61c-316.63-61.73-873.1 278.47-1182.2-128.92-125.48-165.37-236.68-221.27-317.77-226.47v615z" fill="#3B86FF"/>
</g>
</svg>