<svg width="218" height="200" viewBox="0 0 218 200" fill="none" xmlns="http://www.w3.org/2000/svg">
<path d="M98.0615 47.9889L97.668 30.2285H117.459H119.034V47.9889H98.0615Z" fill="#66DCCC" stroke="#262262" stroke-miterlimit="10"/>
<path d="M100.545 32.4277V47.4651" stroke="#262262" stroke-miterlimit="10"/>
<path d="M103.816 33.1475V47.4643" stroke="#262262" stroke-miterlimit="10"/>
<path d="M106.824 33.457V47.6897" stroke="#262262" stroke-miterlimit="10"/>
<path d="M109.916 33.457V47.4651" stroke="white" stroke-miterlimit="10"/>
<path d="M112.887 33.1475V47.4643" stroke="white" stroke-miterlimit="10"/>
<path d="M116.027 32.5586V47.989" stroke="#262262" stroke-miterlimit="10"/>
<path d="M108.351 33.4566C114.251 33.4566 119.034 32.0113 119.034 30.2283C119.034 28.4454 114.251 27 108.351 27C102.451 27 97.668 28.4454 97.668 30.2283C97.668 32.0113 102.451 33.4566 108.351 33.4566Z" fill="#66DCCC" stroke="#262262" stroke-miterlimit="10"/>
<path d="M125.529 49.0457L129.653 38.5186L139.576 41.9434L135.369 53.4062L125.529 49.0457Z" fill="#66DCCC" stroke="#262262" stroke-miterlimit="10"/>
<path d="M139.727 41.9101C140.102 40.8693 138.166 39.2227 135.405 38.2322C132.643 37.2418 130.101 37.2827 129.727 38.3235C129.352 39.3643 131.288 41.0109 134.049 42.0013C136.811 42.9917 139.353 42.9509 139.727 41.9101Z" fill="#66DCCC" stroke="#262262" stroke-miterlimit="10"/>
<path d="M91.7741 48.5408L87.6508 38.0137L77.7363 41.4385L81.9345 52.9013L91.7741 48.5408Z" fill="#66DCCC" stroke="#262262" stroke-miterlimit="10"/>
<path d="M83.2525 41.4846C86.0141 40.4941 87.9494 38.8475 87.5751 37.8067C87.2007 36.7659 84.6585 36.7251 81.8969 37.7155C79.1352 38.7059 77.2 40.3525 77.5743 41.3933C77.9487 42.4341 80.4909 42.475 83.2525 41.4846Z" fill="#66DCCC" stroke="#262262" stroke-miterlimit="10"/>
<path d="M108.951 172.171C143.782 172.171 172.018 143.976 172.018 109.195C172.018 74.4148 143.782 46.2197 108.951 46.2197C74.1207 46.2197 45.8848 74.4148 45.8848 109.195C45.8848 143.976 74.1207 172.171 108.951 172.171Z" fill="#3B86FF" stroke="#262262" stroke-miterlimit="10"/>
<path d="M108.951 165.013C139.822 165.013 164.848 140.023 164.848 109.196C164.848 78.369 139.822 53.3789 108.951 53.3789C78.0791 53.3789 53.0527 78.369 53.0527 109.196C53.0527 140.023 78.0791 165.013 108.951 165.013Z" fill="#3B86FF" stroke="#262262" stroke-miterlimit="10"/>
<path d="M118.277 62.7178L109.027 101.944" stroke="#262262" stroke-miterlimit="10"/>
<path d="M110.873 108.176L141.835 133.45" stroke="#262262" stroke-miterlimit="10"/>
<path d="M109.027 110.515C111.878 110.515 114.19 108.207 114.19 105.359C114.19 102.512 111.878 100.203 109.027 100.203C106.175 100.203 103.863 102.512 103.863 105.359C103.863 108.207 106.175 110.515 109.027 110.515Z" fill="white" stroke="#262262" stroke-miterlimit="10"/>
<path d="M70.1925 137.632C70.1925 137.632 59.9594 131.195 61.365 111.928C62.1428 101.279 69.3304 105.677 69.5927 112.629C69.8551 119.573 71.5419 124.897 74.0721 127.611C76.6022 130.334 77.9891 134.339 77.3894 136.079C76.4429 138.868 73.3224 139.616 70.1925 137.632Z" fill="white" stroke="#262262" stroke-miterlimit="10"/>
<path d="M87.8481 153.775C82.741 150.443 81.8882 148.431 80.267 146.785C78.6458 145.138 77.9336 141.582 81.4852 142.349C85.4023 143.191 91.7184 149.545 92.8991 151.66C94.0799 153.775 92.9647 157.106 87.8481 153.775Z" fill="white" stroke="#262262" stroke-miterlimit="10"/>
</svg>
