<svg xmlns="http://www.w3.org/2000/svg" viewBox="0 0 580.43 533.28"><defs><style>.cls-1{fill:#fff000;}.cls-1,.cls-2,.cls-3,.cls-4{stroke:#262262;stroke-width:2px;}.cls-1,.cls-2{stroke-miterlimit:10;}.cls-2{fill:#cb84f0;}.cls-3{fill:#66dccc;}.cls-3,.cls-4{stroke-linecap:round;stroke-linejoin:round;}.cls-4{fill:#fff;}</style></defs><g id="Breastfeeding"><circle class="cls-1" cx="292.4" cy="246.83" r="171.17"/><circle class="cls-2" cx="292.4" cy="295.74" r="57.46"/><path class="cls-3" d="M343.74,418.05c0,27.23-23.26,49.32-52,49.32s-52-22.09-52-49.32c0,0-2.29-9.42,13.16-45.81,15.86-37.34,38.75-75.82,38.75-75.82s32.47,62.75,37.21,72.32,15.24,32.86,14.65,45.32C343.69,415.37,343.74,416.7,343.74,418.05Z"/><path class="cls-4" d="M321.92,401.12s-.78,17.81-3,24.44c-2.67,8-12,21.31-14.07,21.53s19.5-.52,25-17.6S321.92,401.12,321.92,401.12Z"/></g></svg>