<svg xmlns="http://www.w3.org/2000/svg" viewBox="0 0 297.27 273.12"><defs><style>.cls-1{fill:none;}.cls-1,.cls-2,.cls-3,.cls-4{stroke:#262262;stroke-miterlimit:10;}.cls-2{fill:#fff;}.cls-3{fill:#cccbcb;}.cls-4{fill:#f2f2f1;}</style></defs><g id="Capa_36_copia" data-name="Capa 36 copia"><path class="cls-1" d="M165.7,196.38c-1.9,6.53-13.06,6.89-13.06,6.89-2.06-2.73-.85-11.11,1.49-12.9"/><path class="cls-1" d="M52.71,191.89c.36-.28,11.1-6.38,28.9,12.07s33.05,17.18,39.32,16.62,22.33-5,31.71-17.31c0,0-28.93,2.23-41.36-1.28-24-6.77-53.21-40-53.21-40"/><path class="cls-2" d="M234.87,80.34c-1.48,1.38-4.66.3-7.13-2.41a8.8,8.8,0,0,1-2.53-5.49,204.28,204.28,0,0,0-26.76-15.26c-16-7.65-19.19,4.69-20.18,8.21s-2.07,16.19-2.07,16.19l-3.27-.78-4-.26s1.71-12.55,1.55-16.3S170,47.38,153,48a170.85,170.85,0,0,0-28.84,3.45,6.8,6.8,0,0,1-3.61,4.19c-2.94,1.57-6.22,1.27-7.32-.66s.39-4.75,3.34-6.32a23.2,23.2,0,0,1,5.16-1.38c8-1.35,29-4.48,34.63-3.79,9.43,1.15,16.63,7.09,17.54,13.11a50.49,50.49,0,0,1,.4,8.56,47.8,47.8,0,0,1,2.33-8.48c2.19-5.37,10.34-8,19.59-5.23,5.56,1.7,24.84,13.36,32.2,18a29.76,29.76,0,0,1,4.62,3.46C235.53,75.64,236.33,79,234.87,80.34Z"/><path class="cls-3" d="M153.94,178.21,165.12,81a21.79,21.79,0,0,1,14.78,2.12l-10.61,93.11Z"/><line class="cls-4" x1="164.8" y1="83.78" x2="177.24" y2="81.92"/><line class="cls-4" x1="179.2" y1="89.31" x2="163.94" y2="91.21"/><line class="cls-4" x1="163.14" y1="98.16" x2="178.35" y2="96.77"/><line class="cls-4" x1="162.3" y1="105.53" x2="177.58" y2="103.52"/><line class="cls-4" x1="161.6" y1="111.55" x2="176.83" y2="110.09"/><line class="cls-4" x1="160.88" y1="117.85" x2="176.17" y2="115.87"/><line class="cls-4" x1="160.07" y1="124.89" x2="175.29" y2="123.58"/><line class="cls-4" x1="159.31" y1="131.47" x2="174.58" y2="129.79"/><line class="cls-4" x1="158.54" y1="138.18" x2="173.85" y2="136.26"/><line class="cls-4" x1="157.73" y1="145.25" x2="173.08" y2="143.01"/><line class="cls-4" x1="156.98" y1="151.76" x2="172.32" y2="149.68"/><line class="cls-4" x1="156.14" y1="159.07" x2="171.48" y2="156.99"/><line class="cls-4" x1="155.35" y1="165.94" x2="170.75" y2="163.43"/><line class="cls-4" x1="154.57" y1="172.74" x2="169.99" y2="170.15"/><path class="cls-2" d="M164,185.09a8.75,8.75,0,0,1,3,7.07c-.17,4.19-3.2,7.19-6.78,6.69s-6.33-4.29-6.16-8.48c.12-3.2,1.91-5.7,4.34-6.48l-.59-6.19,8.2-1.06Z"/></g></svg>