<svg xmlns="http://www.w3.org/2000/svg" viewBox="0 0 580.43 533.28"><defs><style>.cls-1{fill:#fff000;stroke:#262262;stroke-linecap:round;stroke-linejoin:round;stroke-width:2px;}</style></defs><g id="Very_effective" data-name="Very effective"><path class="cls-1" d="M137.49,350.27c4.2,6.84,38.34,72.44,136.76,78.42C393.57,436,429.37,292.74,429.37,292.74s30.15-86.36,33.41-127.91-15.48-47.25-23.63-46.44-26.07,15.48-34.22,56.22-11,66-11,66,2.87-98.59-1.2-116.52-6.52-35.84-21.18-36.66S346.27,106.17,343,124.09,332.23,238,332.23,238s-3.88-111.44-12.84-135.88S298.2,79.28,291.68,79.28s-19.55,6.52-20.36,39.92,3.26,105.1,3.26,105.1-20.07-42.3-75.45-40.71c-48.29,1.39-69.58,47.23-69.58,47.23s-3.2,12.57,9,16.71c16.47,5.6,39.28-8.36,48.88-10.19,13.72-2.62,34.18-1.59,51.33,20.37,10.52,13.47,21.69,49.88,2.14,67.8s-33.62,12.8-48.58,3.89c-14.5-8.63-26.53-34.15-34.92-45.09S135.86,273,130,275.92s-10.21,9.48-10.94,17.5S129.94,338,137.49,350.27Z"/></g></svg>