<?xml version="1.0" encoding="utf-8"?>
<!-- Generator: Adobe Illustrator 25.4.1, SVG Export Plug-In . SVG Version: 6.00 Build 0)  -->
<svg version="1.1" xmlns="http://www.w3.org/2000/svg" xmlns:xlink="http://www.w3.org/1999/xlink" x="0px" y="0px"
	 viewBox="0 0 580.43 533.28" style="enable-background:new 0 0 580.43 533.28;" xml:space="preserve">
<style type="text/css">
	.st0{display:none;}
	.st1{display:inline;fill:#F18D1B;}
	.st2{fill:#66DCCC;stroke:#262262;stroke-miterlimit:10;}
	.st3{fill:#FFFFFF;stroke:#262262;stroke-miterlimit:10;}
	.st4{fill:#C47B5F;stroke:#000000;stroke-miterlimit:10;}
	.st5{fill:#A5614C;}
	.st6{fill:#FF4D4E;stroke:#262262;stroke-miterlimit:10;}
	.st7{fill:none;stroke:#A5614C;stroke-linecap:round;stroke-linejoin:round;stroke-miterlimit:10;}
	.st8{fill:none;stroke:#000000;stroke-linecap:round;stroke-linejoin:round;stroke-miterlimit:10;}
	.st9{fill:#FFF000;stroke:#262262;stroke-miterlimit:10;}
	.st10{fill:none;stroke:#262262;stroke-miterlimit:10;}
	.st11{fill:none;stroke:#000000;stroke-miterlimit:10;}
	.st12{fill:#CB84F0;stroke:#262262;stroke-linecap:round;stroke-linejoin:round;stroke-miterlimit:10;}
	.st13{fill:none;stroke:#262262;stroke-linecap:round;stroke-linejoin:round;stroke-miterlimit:10;}
	.st14{fill:#3B86FF;stroke:#262262;stroke-miterlimit:10;}
	.st15{fill:#CB84F0;stroke:#262262;stroke-miterlimit:10;}
	.st16{fill:#2AD575;stroke:#262262;stroke-miterlimit:10;}
	.st17{fill:#F78F2D;}
	.st18{fill:#66DCCC;}
	.st19{fill:#F18D1B;stroke:#262262;stroke-miterlimit:10;}
	.st20{fill:#23B55E;}
	.st21{fill:#EFA584;}
	.st22{fill:#E2987A;}
	.st23{fill:#2AD575;}
	.st24{clip-path:url(#SVGID_00000171717066335221408700000004467763008659206587_);}
	.st25{fill:#3B86FF;}
	.st26{clip-path:url(#SVGID_00000171717066335221408700000004467763008659206587_);fill:#3B86FF;}
	.st27{fill:#C47B5F;}
	.st28{fill:#FF4D4E;}
	.st29{fill:none;stroke:#9B5B48;stroke-linecap:round;stroke-linejoin:round;stroke-miterlimit:10;}
	.st30{fill:none;stroke:#BC7B64;stroke-miterlimit:10;}
	.st31{fill:#F2F2F1;stroke:#262262;stroke-miterlimit:10;}
	.st32{fill:#FFFFFF;}
	.st33{fill:#3B86FF;stroke:#262262;stroke-linecap:round;stroke-linejoin:round;stroke-miterlimit:10;}
	.st34{fill:#2AD575;stroke:#262262;stroke-linecap:round;stroke-linejoin:round;stroke-miterlimit:10;}
	.st35{fill:#FF376E;stroke:#262262;stroke-linecap:round;stroke-linejoin:round;stroke-miterlimit:10;}
	.st36{fill:#FFF000;stroke:#262262;stroke-linecap:round;stroke-linejoin:round;stroke-miterlimit:10;}
	.st37{fill:#FFEA00;stroke:#262262;stroke-linecap:round;stroke-linejoin:round;stroke-miterlimit:10;}
	.st38{fill:#66DCCC;stroke:#262262;stroke-linecap:round;stroke-linejoin:round;stroke-miterlimit:10;}
	.st39{fill:#683C32;stroke:#000000;stroke-linecap:round;stroke-linejoin:round;stroke-miterlimit:10;}
	.st40{fill:#CE816A;stroke:#000000;stroke-miterlimit:10;}
	.st41{fill:#AF594A;}
	.st42{fill:none;stroke:#683C32;stroke-linecap:round;stroke-linejoin:round;stroke-miterlimit:10;}
	.st43{fill:#FFF000;}
	.st44{fill:none;stroke:#262262;stroke-linecap:round;stroke-miterlimit:10;}
	.st45{fill:#1C120F;}
	.st46{fill:#EFA585;}
	.st47{fill:none;stroke:#000000;stroke-linecap:round;stroke-miterlimit:10;}
	.st48{fill:#1D130F;}
	.st49{fill:none;stroke:#1D130F;stroke-linecap:round;stroke-linejoin:round;stroke-miterlimit:10;}
	.st50{fill:#BA514F;}
	.st51{fill:none;stroke:#A56653;stroke-linecap:round;stroke-linejoin:round;stroke-miterlimit:10;}
	.st52{fill:#FF376E;}
	
		.st53{clip-path:url(#SVGID_00000103959531530331013820000005518746997932528293_);fill:#FFFFFF;stroke:#262262;stroke-miterlimit:10;}
	
		.st54{clip-path:url(#SVGID_00000103959531530331013820000005518746997932528293_);fill:none;stroke:#262262;stroke-linecap:round;stroke-miterlimit:10;}
	.st55{clip-path:url(#SVGID_00000103959531530331013820000005518746997932528293_);fill:#1C120F;}
	.st56{clip-path:url(#SVGID_00000103959531530331013820000005518746997932528293_);fill:#EFA585;}
	
		.st57{clip-path:url(#SVGID_00000103959531530331013820000005518746997932528293_);fill:none;stroke:#000000;stroke-linecap:round;stroke-miterlimit:10;}
	.st58{clip-path:url(#SVGID_00000103959531530331013820000005518746997932528293_);fill:#C47B5F;}
	.st59{clip-path:url(#SVGID_00000103959531530331013820000005518746997932528293_);fill:none;stroke:#262262;stroke-miterlimit:10;}
	.st60{clip-path:url(#SVGID_00000103959531530331013820000005518746997932528293_);fill:#1D130F;}
	
		.st61{clip-path:url(#SVGID_00000103959531530331013820000005518746997932528293_);fill:none;stroke:#1D130F;stroke-linecap:round;stroke-linejoin:round;stroke-miterlimit:10;}
	.st62{clip-path:url(#SVGID_00000103959531530331013820000005518746997932528293_);fill:#BA514F;}
	
		.st63{clip-path:url(#SVGID_00000103959531530331013820000005518746997932528293_);fill:none;stroke:#A56653;stroke-linecap:round;stroke-linejoin:round;stroke-miterlimit:10;}
	.st64{fill:#B7695C;stroke:#000000;stroke-miterlimit:10;}
	.st65{fill:#89463D;}
	.st66{fill:#C9C7C7;}
	.st67{fill:#A34D4D;}
	.st68{clip-path:url(#SVGID_00000066501777069587929730000004465639365505568644_);}
	
		.st69{clip-path:url(#SVGID_00000066501777069587929730000004465639365505568644_);fill:#B7695C;stroke:#000000;stroke-miterlimit:10;}
	.st70{clip-path:url(#SVGID_00000066501777069587929730000004465639365505568644_);fill:#89463D;}
	
		.st71{clip-path:url(#SVGID_00000066501777069587929730000004465639365505568644_);fill:none;stroke:#A5614C;stroke-linecap:round;stroke-linejoin:round;stroke-miterlimit:10;}
	.st72{clip-path:url(#SVGID_00000066501777069587929730000004465639365505568644_);fill:#FFFFFF;}
	
		.st73{clip-path:url(#SVGID_00000066501777069587929730000004465639365505568644_);fill:none;stroke:#000000;stroke-linecap:round;stroke-linejoin:round;stroke-miterlimit:10;}
	.st74{clip-path:url(#SVGID_00000066501777069587929730000004465639365505568644_);fill:#C9C7C7;}
	.st75{clip-path:url(#SVGID_00000066501777069587929730000004465639365505568644_);fill:#A34D4D;}
	
		.st76{clip-path:url(#SVGID_00000066501777069587929730000004465639365505568644_);fill:#FF4D4E;stroke:#262262;stroke-miterlimit:10;}
	.st77{clip-path:url(#SVGID_00000066501777069587929730000004465639365505568644_);fill:none;stroke:#262262;stroke-miterlimit:10;}
	.st78{fill:#6D4332;}
	.st79{fill:#EFA585;stroke:#262262;stroke-miterlimit:10;}
	.st80{fill:#ED85DE;stroke:#262262;stroke-miterlimit:10;}
	
		.st81{clip-path:url(#SVGID_00000126309087368741515390000012875930398695141815_);fill:none;stroke:#FFFFFF;stroke-linecap:round;stroke-miterlimit:10;}
	.st82{clip-path:url(#SVGID_00000126309087368741515390000012875930398695141815_);fill:#FFFFFF;}
	.st83{fill:#EFA585;stroke:#000000;stroke-miterlimit:10;}
	.st84{fill:#DD7C6F;}
	.st85{fill:none;stroke:#915441;stroke-miterlimit:10;}
	.st86{fill:none;stroke:#FFFFFF;stroke-linecap:round;stroke-miterlimit:10;}
	.st87{clip-path:url(#SVGID_00000015356436445579211870000009041939308384752563_);fill:#6D4332;}
	
		.st88{clip-path:url(#SVGID_00000015356436445579211870000009041939308384752563_);fill:#EFA585;stroke:#262262;stroke-miterlimit:10;}
	
		.st89{clip-path:url(#SVGID_00000015356436445579211870000009041939308384752563_);fill:#ED85DE;stroke:#262262;stroke-miterlimit:10;}
	.st90{clip-path:url(#SVGID_00000015356436445579211870000009041939308384752563_);}
	
		.st91{clip-path:url(#SVGID_00000032609002533323887990000011127831783037108384_);fill:none;stroke:#FFFFFF;stroke-linecap:round;stroke-miterlimit:10;}
	.st92{clip-path:url(#SVGID_00000032609002533323887990000011127831783037108384_);fill:#FFFFFF;}
	
		.st93{clip-path:url(#SVGID_00000015356436445579211870000009041939308384752563_);fill:#EFA585;stroke:#000000;stroke-miterlimit:10;}
	.st94{clip-path:url(#SVGID_00000015356436445579211870000009041939308384752563_);fill:#C47B5F;}
	
		.st95{clip-path:url(#SVGID_00000015356436445579211870000009041939308384752563_);fill:none;stroke:#262262;stroke-linecap:round;stroke-linejoin:round;stroke-miterlimit:10;}
	.st96{clip-path:url(#SVGID_00000015356436445579211870000009041939308384752563_);fill:none;stroke:#262262;stroke-miterlimit:10;}
	
		.st97{clip-path:url(#SVGID_00000015356436445579211870000009041939308384752563_);fill:none;stroke:#9B5B48;stroke-linecap:round;stroke-linejoin:round;stroke-miterlimit:10;}
	.st98{clip-path:url(#SVGID_00000015356436445579211870000009041939308384752563_);fill:#FFFFFF;}
	
		.st99{clip-path:url(#SVGID_00000015356436445579211870000009041939308384752563_);fill:none;stroke:#000000;stroke-linecap:round;stroke-miterlimit:10;}
	.st100{clip-path:url(#SVGID_00000015356436445579211870000009041939308384752563_);fill:#DD7C6F;}
	
		.st101{clip-path:url(#SVGID_00000015356436445579211870000009041939308384752563_);fill:none;stroke:#915441;stroke-miterlimit:10;}
	
		.st102{clip-path:url(#SVGID_00000015356436445579211870000009041939308384752563_);fill:none;stroke:#FFFFFF;stroke-linecap:round;stroke-miterlimit:10;}
	.st103{fill:#28140A;}
	.st104{fill:#CE464E;}
	.st105{fill:#B26857;}
	.st106{fill:none;stroke:#FFFFFF;stroke-linecap:round;stroke-linejoin:round;stroke-miterlimit:10;}
	.st107{fill:#CE816A;stroke:#000000;stroke-linecap:round;stroke-linejoin:round;stroke-miterlimit:10;}
	.st108{fill:#CB84F0;}
	
		.st109{clip-path:url(#SVGID_00000094620085640197637530000003161084497636582066_);fill:#CE816A;stroke:#000000;stroke-miterlimit:10;}
	
		.st110{clip-path:url(#SVGID_00000094620085640197637530000003161084497636582066_);fill:#3B86FF;stroke:#262262;stroke-miterlimit:10;}
	.st111{clip-path:url(#SVGID_00000094620085640197637530000003161084497636582066_);fill:#28140A;}
	
		.st112{clip-path:url(#SVGID_00000094620085640197637530000003161084497636582066_);fill:#66DCCC;stroke:#262262;stroke-miterlimit:10;}
	.st113{clip-path:url(#SVGID_00000094620085640197637530000003161084497636582066_);fill:#CE464E;}
	
		.st114{clip-path:url(#SVGID_00000094620085640197637530000003161084497636582066_);fill:none;stroke:#000000;stroke-miterlimit:10;}
	.st115{clip-path:url(#SVGID_00000094620085640197637530000003161084497636582066_);}
	.st116{clip-path:url(#SVGID_00000094620085640197637530000003161084497636582066_);fill:#B26857;}
	
		.st117{clip-path:url(#SVGID_00000094620085640197637530000003161084497636582066_);fill:none;stroke:#000000;stroke-linecap:round;stroke-linejoin:round;stroke-miterlimit:10;}
	
		.st118{clip-path:url(#SVGID_00000094620085640197637530000003161084497636582066_);fill:none;stroke:#262262;stroke-miterlimit:10;}
	
		.st119{clip-path:url(#SVGID_00000094620085640197637530000003161084497636582066_);fill:none;stroke:#FFFFFF;stroke-linecap:round;stroke-linejoin:round;stroke-miterlimit:10;}
	
		.st120{clip-path:url(#SVGID_00000094620085640197637530000003161084497636582066_);fill:#CE816A;stroke:#000000;stroke-linecap:round;stroke-linejoin:round;stroke-miterlimit:10;}
	.st121{display:none;opacity:0.44;}
</style>
<g id="Capa_14" class="st0">
</g>
<g id="Capa_8">
	<g id="Capa_6">
		<g id="Capa_43">
		</g>
	</g>
	<g id="Capa_16">
	</g>
	<g id="Capa_12">
	</g>
	<g id="Capa_7">
	</g>
</g>
<g id="Capa_13">
	<g id="Capa_11">
	</g>
	<g id="Capa_9">
	</g>
</g>
<g id="Varenka">
</g>
<g id="Danae">
</g>
<g id="Flor_copia">
	<circle class="st52" cx="279.36" cy="268.64" r="229.94"/>
	<g id="Danae_copia">
	</g>
	<g>
		<defs>
			<circle id="SVGID_00000091011025599306156860000000979855620400596645_" cx="279.36" cy="268.64" r="229.94"/>
		</defs>
		<clipPath id="SVGID_00000178184062656147415670000003924360860544194706_">
			<use xlink:href="#SVGID_00000091011025599306156860000000979855620400596645_"  style="overflow:visible;"/>
		</clipPath>
		
			<path style="clip-path:url(#SVGID_00000178184062656147415670000003924360860544194706_);fill:#FFFFFF;stroke:#262262;stroke-miterlimit:10;" d="
			M160.28,350.91c0,0-8.93,70.07-9.92,105.29s-1.98,89.26-1.98,89.26s78.5,14.55,168.39-4.6s134.77-41.47,134.77-41.47
			s-10.02-154.26-22.02-173.88c-6.25-10.22-11.77-11.21-11.77-11.21l-85.33-12.79l-106.66,12.32
			C225.76,313.82,164.74,341.86,160.28,350.91z"/>
		
			<line style="clip-path:url(#SVGID_00000178184062656147415670000003924360860544194706_);fill:none;stroke:#262262;stroke-linecap:round;stroke-miterlimit:10;" x1="289.47" y1="390.15" x2="405.49" y2="332.84"/>
		
			<line style="clip-path:url(#SVGID_00000178184062656147415670000003924360860544194706_);fill:none;stroke:#262262;stroke-linecap:round;stroke-miterlimit:10;" x1="289.78" y1="397.49" x2="401.16" y2="343.57"/>
		<path style="clip-path:url(#SVGID_00000178184062656147415670000003924360860544194706_);fill:#1C120F;" d="M279.78,104.74
			c0,0-16.85,12.36-32.58,19.47c-15.73,7.11-22.47,39.32-22.47,39.32s-4.29,18.71-3.45,29.9s1.78,52.19,1.78,52.19
			s8.93,12.18,17.29,17.5l-1.08,46.08c-1.49,2.63-15.8,13.97-15.8,13.97s3.84,74.78,3.62,89.15c-0.22,14.37-6.63,49.97-8.85,55.06
			c-2.21,5.09-2.21-3.76-7.08-11.5c-4.86-7.74-7.74-8.87-9.95-15.49c-2.21-6.62-4.42-17.24-7.08-25.64
			c-2.65-8.4-3.76-12.83-10.17-18.13c-6.41-5.31-13.71-6.85-11.28-31.4c2.43-24.55,10.17-56.39,9.51-75.18
			c0,0,2.76-70.23-0.28-90.61c-3.04-20.38-5.78-64.79,6.69-84.86c12.47-20.08,55.66-48.36,78.48-50.19
			c22.81-1.83,49.58,21.29,55.36,28.29c0,0,19.56,18.35,26.57,38.57s12.79,68.09,11.97,80.88s1.65,57.36,8.67,78.4
			c7.01,21.04,10.73,21.04,9.08,33.01c-1.65,11.97-5.41,18.16,0.39,35.07c5.8,16.92,4.5,33.84,5.56,41.68
			c1.06,7.84-1.43,17.74-1.43,17.74s-12.67-31.97-12.78-51.58c-0.04-7.2-11.14-9.49-9.9-25.58c0,0-1.43-23.43-6.7-28.69
			l-29.63-10.95L279.78,104.74z"/>
		<path style="clip-path:url(#SVGID_00000178184062656147415670000003924360860544194706_);fill:#EFA585;" d="M209.42,206.31
			c0,0,3.58,39.67,30.94,56.82l-1.08,46.08c0,0-6.01,4.62-9.91,9.04c-1.66,1.88,58.17,20.44,58.17,20.44l36.49-24.43l12.17-8.64
			c0,0-6.4-3.42-6.92-4.97c-0.52-1.56-7.26-40.98-7.26-40.98s11.15-10.11,14.78-28.01c3.63-17.89,3.11-27.49,3.11-27.49
			s5.45,0,5.19-5.19s-2.59-8.82-1.56-14.52c1.04-5.71,3.37-18.3-4.93-23.34c-3.11-1.89-4.67,2.59-4.67,2.59l-5.71-20.75
			c0,0-26.71-40.98-40.72-42.27c-14-1.3-54.46,26.45-54.46,26.45S208.6,190.81,209.42,206.31z"/>
		<path style="clip-path:url(#SVGID_00000178184062656147415670000003924360860544194706_);fill:#1C120F;" d="M279.78,104.74
			c0,0,45.17,34.58,51.7,41.4c6.53,6.83-23.16-54.03-23.16-54.03l-35.03-1.48l-71.85,47.8l3.86,100.64l18.11,14.55
			c0,0,0.49-43.46-2.13-60.18s6.29-46.11,16.68-55.9C248.76,127.35,274.69,119.75,279.78,104.74z"/>
		
			<path style="clip-path:url(#SVGID_00000178184062656147415670000003924360860544194706_);fill:none;stroke:#000000;stroke-linecap:round;stroke-miterlimit:10;" d="
			M267.44,65.31c0,0,9.95,26.42,11.14,32.92c1.19,6.51,0.46,14.07-14.14,22.59c-14.6,8.52-26.51,13.33-32.85,25.37
			c-6.34,12.04-10.31,27.72-10.52,35.28s2.98,47.97,1.99,64.16c-1,16.19-0.08,67.36,0.65,82.14s3.43,82.44,2.8,93.32
			c-0.68,11.77-9.14,47.12-9.14,47.12"/>
		<path style="clip-path:url(#SVGID_00000178184062656147415670000003924360860544194706_);fill:#C47B5F;" d="M240.36,263.13
			c0,0,30.98,33.31,52.8,20.3c17.42-10.39,20.33-15.67,22.49-17.55s2.78,3.33-0.91,10.17c-3.68,6.84-13.99,28.57-35.76,27.63
			c-26.28-1.13-39.27-12.88-39.27-12.88L240.36,263.13z"/>
		
			<line style="clip-path:url(#SVGID_00000178184062656147415670000003924360860544194706_);fill:none;stroke:#262262;stroke-linecap:round;stroke-miterlimit:10;" x1="289.66" y1="343.57" x2="342.73" y2="308.04"/>
		
			<line style="clip-path:url(#SVGID_00000178184062656147415670000003924360860544194706_);fill:none;stroke:#262262;stroke-linecap:round;stroke-miterlimit:10;" x1="285.99" y1="339.9" x2="336.19" y2="305.63"/>
		
			<line style="clip-path:url(#SVGID_00000178184062656147415670000003924360860544194706_);fill:none;stroke:#262262;stroke-linecap:round;stroke-miterlimit:10;" x1="282.32" y1="343.57" x2="224.83" y2="322.1"/>
		
			<line style="clip-path:url(#SVGID_00000178184062656147415670000003924360860544194706_);fill:none;stroke:#262262;stroke-linecap:round;stroke-miterlimit:10;" x1="229.37" y1="318.25" x2="287.54" y2="338.69"/>
		
			<line style="clip-path:url(#SVGID_00000178184062656147415670000003924360860544194706_);fill:none;stroke:#262262;stroke-linecap:round;stroke-miterlimit:10;" x1="288.08" y1="346.59" x2="294.68" y2="544.57"/>
		
			<line style="clip-path:url(#SVGID_00000178184062656147415670000003924360860544194706_);fill:none;stroke:#262262;stroke-linecap:round;stroke-miterlimit:10;" x1="283.91" y1="346.59" x2="287.54" y2="546.53"/>
		
			<path style="clip-path:url(#SVGID_00000178184062656147415670000003924360860544194706_);fill:none;stroke:#262262;stroke-linecap:round;stroke-miterlimit:10;" d="
			M417.75,314.29c0,0-16.52,16.78-20.26,45.35v20.31"/>
		
			<path style="clip-path:url(#SVGID_00000178184062656147415670000003924360860544194706_);fill:none;stroke:#262262;stroke-linecap:round;stroke-miterlimit:10;" d="
			M395.51,414.39c3.05,43.72,2.64,106,0,106"/>
		
			<line style="clip-path:url(#SVGID_00000178184062656147415670000003924360860544194706_);fill:none;stroke:#262262;stroke-linecap:round;stroke-miterlimit:10;" x1="283.91" y1="390.15" x2="226.31" y2="368"/>
		
			<line style="clip-path:url(#SVGID_00000178184062656147415670000003924360860544194706_);fill:none;stroke:#262262;stroke-linecap:round;stroke-miterlimit:10;" x1="226.31" y1="376.89" x2="275.99" y2="395.05"/>
		
			<path style="clip-path:url(#SVGID_00000178184062656147415670000003924360860544194706_);fill:none;stroke:#262262;stroke-linecap:round;stroke-miterlimit:10;" d="
			M198.55,458.11c2.91,32.79-2.44,92.69,1.32,92.63"/>
		
			<circle style="clip-path:url(#SVGID_00000178184062656147415670000003924360860544194706_);fill:none;stroke:#262262;stroke-miterlimit:10;" cx="285.99" cy="343.57" r="3.67"/>
		
			<circle style="clip-path:url(#SVGID_00000178184062656147415670000003924360860544194706_);fill:none;stroke:#262262;stroke-miterlimit:10;" cx="279.66" cy="393.82" r="3.67"/>
		
			<circle style="clip-path:url(#SVGID_00000178184062656147415670000003924360860544194706_);fill:none;stroke:#262262;stroke-miterlimit:10;" cx="280.92" cy="440.4" r="3.67"/>
		<path style="clip-path:url(#SVGID_00000178184062656147415670000003924360860544194706_);fill:#1D130F;" d="M290.44,154.45
			c0,0,15.15-5.63,19.33-6.06s7.07-0.58,10.82,1.3c3.75,1.88,4.9,4.76,4.9,4.76s-4.04-3.74-10.96-3.17
			c-6.92,0.57-20.77,6.63-22.36,6.92S289.71,156.18,290.44,154.45z"/>
		<path style="clip-path:url(#SVGID_00000178184062656147415670000003924360860544194706_);fill:#1D130F;" d="M255.65,160.74
			c0,0-20.11,3.96-24.11,6.8c-4,2.84-6.67,9.51-6.67,9.51s3-6.17,8.18-7.84c5.17-1.67,20.44-3.63,22.61-3.8
			S258.99,161.4,255.65,160.74z"/>
		
			<circle style="clip-path:url(#SVGID_00000178184062656147415670000003924360860544194706_);fill:#1D130F;" cx="246.33" cy="183.86" r="3.75"/>
		
			<circle style="clip-path:url(#SVGID_00000178184062656147415670000003924360860544194706_);fill:#1D130F;" cx="305.12" cy="170.18" r="3.75"/>
		
			<path style="clip-path:url(#SVGID_00000178184062656147415670000003924360860544194706_);fill:none;stroke:#1D130F;stroke-linecap:round;stroke-linejoin:round;stroke-miterlimit:10;" d="
			M233.94,187.6c0,0,5.48-4.99,10.29-6.85c4.8-1.86,11.86,0.78,11.86,0.78"/>
		
			<path style="clip-path:url(#SVGID_00000178184062656147415670000003924360860544194706_);fill:none;stroke:#1D130F;stroke-linecap:round;stroke-linejoin:round;stroke-miterlimit:10;" d="
			M317.38,167.5c0,0-7.27-1.45-12.35-0.57c-5.08,0.88-9.76,6.78-9.76,6.78"/>
		
			<path style="clip-path:url(#SVGID_00000178184062656147415670000003924360860544194706_);fill:none;stroke:#1D130F;stroke-linecap:round;stroke-linejoin:round;stroke-miterlimit:10;" d="
			M272.88,165.25c1.7-0.04-0.72,43.55-0.87,46.08c-0.19,3.22-2.54,10.92,6.96,11.76c6.8,0.6,10.5-4.65,10.5-4.65"/>
		<path style="clip-path:url(#SVGID_00000178184062656147415670000003924360860544194706_);fill:#BA514F;" d="M257.74,238.5
			c0,0,21.1,0.15,26.68-1.24c5.57-1.39,24.62-7.43,25.39-8.36c0.77-0.93-10.58,15.39-20.82,17.81
			C277.35,249.46,263.89,247.17,257.74,238.5z"/>
		
			<path style="clip-path:url(#SVGID_00000178184062656147415670000003924360860544194706_);fill:none;stroke:#1D130F;stroke-linecap:round;stroke-linejoin:round;stroke-miterlimit:10;" d="
			M256.09,238.34c0,0,19.25,4,27.7,2.55c8.45-1.46,26.02-11.98,26.02-11.98"/>
		
			<path style="clip-path:url(#SVGID_00000178184062656147415670000003924360860544194706_);fill:none;stroke:#A56653;stroke-linecap:round;stroke-linejoin:round;stroke-miterlimit:10;" d="
			M245.02,236.51c0,0,1.36,9.91,2.53,11.3"/>
		
			<path style="clip-path:url(#SVGID_00000178184062656147415670000003924360860544194706_);fill:none;stroke:#A56653;stroke-linecap:round;stroke-linejoin:round;stroke-miterlimit:10;" d="
			M317.38,223.14c0,0,0.6,8.71,0,10.31"/>
		
			<path style="clip-path:url(#SVGID_00000178184062656147415670000003924360860544194706_);fill:none;stroke:#A56653;stroke-linecap:round;stroke-linejoin:round;stroke-miterlimit:10;" d="
			M337.81,187.28c0,0-4.72-17.73-0.49-19.66c2.16-0.98,4.1,3.44,4.1,3.44"/>
		
			<path style="clip-path:url(#SVGID_00000178184062656147415670000003924360860544194706_);fill:none;stroke:#A56653;stroke-linecap:round;stroke-linejoin:round;stroke-miterlimit:10;" d="
			M336.38,179.52c0,0,0.24-5.32,3.19-3.84c2.95,1.47,1.47,6.29,1.47,6.29"/>
	</g>
</g>
<g id="Ferya">
</g>
<g id="Ferya_00000076597665119341329080000006981992994345679289_">
	<g id="Ferya_copia">
	</g>
</g>
<g id="Flor">
</g>
<g id="Flor_00000181795872133864750880000009587384579724721285_">
</g>
<g id="Ceci">
</g>
<g id="Ceci_00000096057879152769712860000002602327861082787738_">
	<g id="Ceci_copia">
	</g>
</g>
<g id="Capa_17" class="st121">
</g>
</svg>
