<svg xmlns="http://www.w3.org/2000/svg" viewBox="0 0 580.43 533.28"><defs><style>.cls-1{fill:#ff376e;}.cls-1,.cls-2{stroke:#262262;stroke-linecap:round;stroke-linejoin:round;stroke-width:2px;}.cls-2{fill:none;}</style></defs><g id="Obesity"><path class="cls-1" d="M440,315.74c-38.16,66.06-96.74,107.54-146.66,109.17-2.08.07-4.16.07-6.21,0-49.92-1.63-108.52-43.11-146.67-109.17C90.64,229.47,94.6,134,149.3,102.36c39.48-22.8,94.58-6.06,140.92,37.47,46.33-43.53,101.45-60.27,140.91-37.47C485.83,134,489.79,229.47,440,315.74Z"/><polyline class="cls-2" points="168.11 280.38 211.05 280.38 234.53 177.83 271.43 346.11 294.24 225.42 301.62 279.25 333.82 171.03 354.62 343.27 369.38 277.55 412.32 277.55"/></g></svg>