<?xml version="1.0" encoding="utf-8"?>
<!-- Generator: Adobe Illustrator 25.4.1, SVG Export Plug-In . SVG Version: 6.00 Build 0)  -->
<svg version="1.1" xmlns="http://www.w3.org/2000/svg" xmlns:xlink="http://www.w3.org/1999/xlink" x="0px" y="0px"
	 viewBox="0 0 297.27 273.12" style="enable-background:new 0 0 297.27 273.12;" xml:space="preserve">
<style type="text/css">
	.st0{fill:#3B86FF;stroke:#262262;stroke-miterlimit:10;}
	.st1{fill:#F2F2F1;stroke:#262262;stroke-miterlimit:10;}
	.st2{fill:#F2F2F1;stroke:#262262;stroke-linecap:round;stroke-linejoin:round;stroke-miterlimit:10;}
	.st3{fill:#3B86FF;}
	.st4{fill:none;stroke:#262262;stroke-miterlimit:10;}
	.st5{fill:#2AD575;stroke:#2A255C;stroke-miterlimit:10;}
	.st6{fill:#262262;}
	.st7{fill:#FF4D4E;}
	.st8{fill:#FFF000;}
	.st9{fill:#FFFFFF;}
	.st10{fill:#F78F2D;stroke:#262262;stroke-miterlimit:10;}
	.st11{fill:none;stroke:#FFF000;stroke-miterlimit:10;}
	.st12{fill:#FFFFFF;stroke:#262262;stroke-miterlimit:10;}
	.st13{fill:#CB84F0;stroke:#262262;stroke-miterlimit:10;}
	.st14{fill:#AD5D46;}
	.st15{fill:#7B3525;}
	.st16{fill:#F78F2D;}
	.st17{fill:#2AD575;}
	.st18{fill:none;stroke:#FF4D4E;stroke-miterlimit:10;}
	.st19{fill:none;stroke:#2AD575;stroke-miterlimit:10;}
	.st20{fill:none;stroke:#3B86FF;stroke-miterlimit:10;}
	.st21{fill:#577CBC;}
	.st22{fill:none;stroke:#2A255C;stroke-miterlimit:10;}
	.st23{clip-path:url(#SVGID_00000093169674427993127140000006632639809360724154_);}
	.st24{fill:none;stroke:#404440;stroke-miterlimit:10;}
	.st25{clip-path:url(#SVGID_00000050640332895123404720000017128388004088670866_);}
	.st26{fill:none;stroke:#000000;stroke-miterlimit:10;}
	.st27{fill:none;stroke:#7B3525;stroke-miterlimit:10;}
	.st28{fill:none;stroke:#000000;stroke-linecap:round;stroke-miterlimit:10;}
	.st29{fill:#F2F2F1;}
	.st30{fill:none;stroke:#2A255C;stroke-linecap:round;stroke-linejoin:round;stroke-miterlimit:10;}
	.st31{fill:none;stroke:#2A255C;stroke-linecap:round;stroke-miterlimit:10;}
	.st32{fill:none;}
	.st33{fill:#66DCCC;}
	.st34{fill:#F18D1B;stroke:#262262;stroke-miterlimit:10;}
	.st35{fill:#FF4D4E;stroke:#262262;stroke-miterlimit:10;}
	.st36{fill:#66DCCC;stroke:#262262;stroke-miterlimit:10;}
	.st37{fill:#FFFFFF;stroke:#262262;stroke-linejoin:round;stroke-miterlimit:10;}
	.st38{fill:none;stroke:#262262;stroke-linejoin:round;stroke-miterlimit:10;}
	.st39{fill:#FF376E;stroke:#262262;stroke-miterlimit:10;}
	.st40{fill:#E84448;stroke:#262262;stroke-miterlimit:10;}
	.st41{fill:#E63066;stroke:#262262;stroke-miterlimit:10;}
	.st42{fill:#3B86FF;stroke:#2A255C;stroke-miterlimit:10;}
	.st43{fill:#FFF000;stroke:#262262;stroke-miterlimit:10;}
	.st44{fill:#FFEA00;stroke:#262262;stroke-miterlimit:10;}
	.st45{fill:#2AD575;stroke:#262262;stroke-miterlimit:10;}
	.st46{fill:#FF4D4E;stroke:#2A255C;stroke-miterlimit:10;}
	.st47{fill:#FFEA00;stroke:#2A255C;stroke-miterlimit:10;}
	.st48{fill:#F18D1B;}
	.st49{opacity:0.36;fill:none;stroke:#F2F2F1;stroke-miterlimit:10;}
	.st50{fill:#CB84F0;stroke:#262262;stroke-linecap:round;stroke-linejoin:round;stroke-miterlimit:10;}
	.st51{fill:#FFFFFF;stroke:#262262;stroke-linecap:round;stroke-linejoin:round;stroke-miterlimit:10;}
	.st52{fill:none;stroke:#262262;stroke-linecap:round;stroke-linejoin:round;stroke-miterlimit:10;}
	.st53{fill:#2AD575;stroke:#262262;stroke-linecap:round;stroke-linejoin:round;stroke-miterlimit:10;}
	.st54{fill:#FFF000;stroke:#262262;stroke-linecap:round;stroke-linejoin:round;stroke-miterlimit:10;}
	.st55{fill:#2A255C;stroke:#262262;stroke-miterlimit:10;}
</style>
<g id="ECP">
	<g id="Capa_18">
	</g>
	<g id="Capa_19">
	</g>
	<g id="Capa_20">
	</g>
	<g id="Capa_20_copia">
	</g>
	<g id="Capa_21">
	</g>
	<g id="Capa_23">
	</g>
	<g id="Capa_22">
		<g id="Capa_24">
		</g>
	</g>
	<g id="Capa_26">
	</g>
</g>
<g id="Effective">
	<g id="Capa_36">
	</g>
	<g id="Capa_35">
	</g>
	<g id="Capa_38">
	</g>
	<g id="Capa_39">
		<g id="Capa_40">
		</g>
		<g>
			<ellipse class="st39" cx="214.64" cy="132.36" rx="17.43" ry="16.35"/>
			<ellipse class="st39" cx="83.23" cy="133.44" rx="17.43" ry="16.35"/>
			<path class="st35" d="M204.42,84.37c-0.28,1.42-1.62,4.33-3.37,5.03c-1.7,0.68-11.97,2.9-19.76,8.17
				c0.95,2.96,1.46,6.11,1.46,9.36c-0.01,4.13-0.84,8.08-2.36,11.71c-4.07,10.92,1.12,14.34,0.57,30.88
				c-0.68,20.45-11.01,19.29-18.66,28.89c-9.08,11.37-9.29,29.79-9.29,29.79c-5.36,3.04-8.36-0.01-8.36-0.01s3.65-20.83-10.52-32.21
				c-14.17-11.39-16.15-21.77-15.47-28.14c0.68-6.29,4.95-14.18-1.2-27.04c-0.08-0.17-0.16-0.34-0.25-0.51
				c-0.13-0.28-0.25-0.54-0.36-0.79c-1.78-3.89-2.76-8.17-2.75-12.66c0.01-2.9,0.41-5.7,1.19-8.37c-3.97-2.13-12.44-6.48-16.11-6.97
				c-4.97-0.66-5.2-10-3.33-10.66c0,0,15.63,3.24,23.42,9.04c6.07-9.14,16.89-15.21,29.21-15.19c11.82,0.02,22.23,5.63,28.39,14.17
				c2.61-1.78,11.92-7.21,26.05-9.52C205.32,78.96,204.69,82.95,204.42,84.37z"/>
			<path class="st35" d="M209.07,88.44c0,0,11.83-0.63,14.29,7.12s-2.63,17.58-5.13,18.74c-5.43,2.51-12.52-0.62-13.53,2.08
				c-1.36,3.65,3.52,3.07,6.83,4.83c2.4,1.27-0.86,3.68-2.12,4.61c-1.26,0.93-6.22,6.44-2.26,8.58c3.55,1.92,5.26-1.36,6.4-3.36
				c1.14-2,1.75-4.43,3.58-4.15c1.83,0.29,2.21,2.07,2.13,4.22c-0.08,2.15,0.4,6.65,4.74,6.08c4.33-0.57,0.19-7.59,0.6-9.01
				c0.61-2.15,1.6-2.22,3.96-1.79s4.85,2.94,6.92,0.64c2.06-2.29-1.07-6.03-5.93-7.08c-3.66-0.79-0.99-5.66-0.38-7.12
				c0,0,5.55-14.67,0.08-23.56c-5.95-9.65-17.08-10.23-17.38-10.3c0,0-2.59,1.22-3.31,4.48C207.86,86.72,209.07,88.44,209.07,88.44z
				"/>
			<path class="st35" d="M88.79,89.53c0,0-11.83-0.63-14.29,7.12c-2.46,7.75,2.63,17.58,5.13,18.74c5.43,2.51,12.52-0.62,13.53,2.08
				c1.36,3.65-3.52,3.07-6.83,4.83c-2.4,1.27,0.86,3.68,2.12,4.61c1.26,0.93,6.22,6.44,2.26,8.58c-3.55,1.92-5.26-1.36-6.4-3.36
				s-1.75-4.43-3.58-4.15c-1.83,0.29-2.21,2.07-2.13,4.22c0.08,2.15-0.4,6.65-4.74,6.08c-4.33-0.57-0.19-7.59-0.6-9.01
				c-0.61-2.15-1.6-2.22-3.96-1.79s-4.85,2.94-6.92,0.64c-2.06-2.29,1.07-6.03,5.93-7.08c3.66-0.79,0.99-5.66,0.38-7.12
				c0,0-5.55-14.67-0.08-23.56c5.95-9.65,17.08-10.23,17.38-10.3c0,0,2.59,1.22,3.31,4.48S88.79,89.53,88.79,89.53z"/>
			<line class="st40" x1="212.19" y1="60.84" x2="209.83" y2="70.29"/>
			<line class="st40" x1="209.09" y1="73.24" x2="206.73" y2="82.69"/>
			<line class="st40" x1="205.84" y1="86.25" x2="203.48" y2="95.71"/>
			<line class="st40" x1="202.74" y1="98.65" x2="200.38" y2="108.1"/>
			<line class="st40" x1="85.96" y1="61.93" x2="88.33" y2="71.38"/>
			<line class="st40" x1="89.06" y1="74.33" x2="91.42" y2="83.78"/>
			<line class="st40" x1="92.31" y1="87.34" x2="94.68" y2="96.79"/>
			<line class="st40" x1="95.41" y1="99.74" x2="97.78" y2="109.19"/>
			<path class="st40" d="M170.36,116.77c0.01-0.02,0.02-0.04,0.03-0.06C170.38,116.71,170.38,116.73,170.36,116.77z"/>
			<path class="st40" d="M128.01,117.8c-2.19-3.45-2.71-7.59-2.71-11.07c0-12.09,10.75-20.51,23.63-20.51s23.33,9.8,23.33,21.89
				c0,3.06-0.67,5.96-1.88,8.6"/>
			<path class="st40" d="M170.38,116.71c0,0-0.01,0.02-0.03,0.06c-0.01,0.01-0.01,0.03-0.02,0.05c-0.59,1.42-8.38,16.79-3.07,23.22
				c5.56,6.73,2.61,15.59,0,18.29c-2.6,2.69-5.21,4.17-10.06,9.9c-4.85,5.72-5.34,19.12-5.34,19.12l-1.86,21.92l-1.31,0.22
				l-1.15-0.19c0,0-0.27-14.12-1.2-21.94c-0.92-7.81-4.82-19.79-11.99-28.13c-7.18-8.34-0.23-17.89-0.23-17.89
				c1.12-2.73,3.01-9.49-2.49-18.55c-0.97-1.6-2.16-3.26-3.63-4.99"/>
			<path class="st40" d="M202.92,79.35c0,0-2.83,1.05-3.71,5.38c-0.59,2.88,0.15,4.5,1.5,4.8"/>
			<path class="st40" d="M88.79,89.53c-1.03-0.38-3.12-1.25-3.79-4.73c-0.85-4.43,0.99-4.73,0.99-4.73"/>
		</g>
	</g>
	<g id="Capa_41">
	</g>
</g>
<g id="Condoms">
	<g id="Capa_42">
	</g>
	<g id="Capa_43">
	</g>
	<g id="Capa_44">
	</g>
	<g id="Capa_45">
	</g>
	<g id="Capa_46">
	</g>
	<g id="Capa_47">
	</g>
	<g id="Capa_48">
	</g>
	<g id="Capa_49">
	</g>
</g>
<g id="Capa_51">
</g>
<g id="Capa_52">
</g>
<g id="Capa_54">
</g>
<g id="Capa_53">
	<g id="Capa_55">
	</g>
</g>
<g id="Capa_56">
</g>
<g id="Capa_57">
</g>
<g id="Capa_58">
</g>
<g id="Capa_59">
</g>
<g id="Capa_60">
</g>
<g id="Capa_61">
</g>
<g id="Capa_63">
</g>
</svg>
