<svg width="150" height="150" viewBox="0 0 150 150" fill="none" xmlns="http://www.w3.org/2000/svg">
<circle cx="75" cy="75" r="75" fill="#3B86FF"/>
<path d="M102.799 52.2809C102.26 51.7795 101.621 51.3817 100.917 51.1103C100.213 50.8389 99.4593 50.6992 98.6976 50.6992H77.175C76.2136 50.6992 75.2916 51.0548 74.6118 51.6877C73.932 52.3207 73.55 53.1791 73.55 54.0742C73.55 54.9693 73.932 55.8278 74.6118 56.4607C75.2916 57.0936 76.2136 57.4492 77.175 57.4492C76.2136 57.4492 75.2916 57.8048 74.6118 58.4377C73.932 59.0707 73.55 59.9291 73.55 60.8242C73.55 61.2674 73.6438 61.7063 73.826 62.1158C74.0082 62.5253 74.2752 62.8973 74.6118 63.2107C74.9484 63.5241 75.348 63.7727 75.7878 63.9423C76.2276 64.1119 76.699 64.1992 77.175 64.1992C76.2136 64.1992 75.2916 64.5548 74.6118 65.1877C73.932 65.8207 73.55 66.6791 73.55 67.5742C73.55 68.4693 73.932 69.3278 74.6118 69.9607C75.2916 70.5936 76.2136 70.9492 77.175 70.9492H88.05V72.5275C88.0501 74.9284 88.7179 77.2883 89.9884 79.3775C91.2589 81.4667 93.0888 83.214 95.3 84.4492H106.9V56.0992L102.799 52.2809Z" fill="#3BA6D4"/>
<path d="M32.95 42.6016H99.6499V50.7016H32.95V42.6016Z" fill="#E0E0DE"/>
<path d="M38.75 42.6016H47.45V50.7016H38.75V42.6016Z" fill="#FFB531"/>
<path d="M53.25 42.6016H61.95V50.7016H53.25V42.6016Z" fill="#D46C6C"/>
<path d="M67.75 42.6016H76.45V50.7016H67.75V42.6016Z" fill="#60D1E0"/>
<path d="M95.2999 84.4516V92.5516H117.05V47.1393C117.05 46.562 116.917 45.9914 116.661 45.4657C116.404 44.9401 116.03 44.4715 115.564 44.0915L106.68 36.8536C105.887 36.2076 104.869 35.8516 103.815 35.8516H88.7749C87.8135 35.8516 86.8915 36.2071 86.2116 36.8401C85.5318 37.473 85.1499 38.3315 85.1499 39.2266C85.1499 40.1217 85.5318 40.9801 86.2116 41.613C86.8915 42.246 87.8135 42.6016 88.7749 42.6016H99.6499L106.9 48.0016V62.8516L92.3999 49.3516C92.0191 48.997 91.567 48.7157 91.0694 48.5238C90.5718 48.3319 90.0385 48.2332 89.4999 48.2332C88.9613 48.2332 88.428 48.3319 87.9304 48.5238C87.4328 48.7157 86.9807 48.997 86.5999 49.3516C86.2191 49.7061 85.917 50.1271 85.7108 50.5903C85.5047 51.0536 85.3987 51.5501 85.3987 52.0516C85.3987 52.553 85.5047 53.0495 85.7108 53.5128C85.917 53.9761 86.2191 54.397 86.5999 54.7516L96.7499 64.2016C94.9351 67.1585 93.8423 70.4513 93.5493 73.846C93.2563 77.2407 93.7703 80.6538 95.0547 83.8425L95.2999 84.4516V92.5516V84.4516Z" fill="#4DB7E5"/>
<path d="M117.05 92.5508V114.151H95.3L98.2 92.5508H117.05Z" fill="#FEC9A3"/>
<path d="M117.05 92.5508V96.6008H97.6562L98.2 92.5508H117.05Z" fill="#FEC093"/>
<path d="M99.6499 85.8008H117.05V88.5008H99.6499V85.8008Z" fill="#3BA6D4"/>
<path d="M85.15 56.1016H77.9C77.0991 56.1016 76.45 56.706 76.45 57.4516C76.45 58.1971 77.0991 58.8016 77.9 58.8016H85.15C85.9508 58.8016 86.6 58.1971 86.6 57.4516C86.6 56.706 85.9508 56.1016 85.15 56.1016Z" fill="#2D97C4"/>
<path d="M88.05 62.8516H77.9C77.0991 62.8516 76.45 63.456 76.45 64.2016C76.45 64.9471 77.0991 65.5516 77.9 65.5516H88.05C88.8508 65.5516 89.5 64.9471 89.5 64.2016C89.5 63.456 88.8508 62.8516 88.05 62.8516Z" fill="#2D97C4"/>
<path d="M67.7501 114.152H38.7501C37.981 114.152 37.2433 113.867 36.6995 113.361C36.1556 112.854 35.8501 112.168 35.8501 111.452V76.3516H70.6501V111.452C70.6501 112.168 70.3446 112.854 69.8007 113.361C69.2569 113.867 68.5192 114.152 67.7501 114.152Z" fill="#E0E0DE"/>
<path d="M32.95 66.8984H73.55V76.3484H32.95V66.8984Z" fill="#348FD9"/>
<path d="M37.3 70.9492H40.2001V76.3492H37.3V70.9492Z" fill="#2D7DBF"/>
<path d="M43.1001 70.9492H46.0001V76.3492H43.1001V70.9492Z" fill="#2D7DBF"/>
<path d="M48.9001 70.9492H51.8001V76.3492H48.9001V70.9492Z" fill="#2D7DBF"/>
<path d="M54.7 70.9492H57.6V76.3492H54.7V70.9492Z" fill="#2D7DBF"/>
<path d="M60.5 70.9492H63.4V76.3492H60.5V70.9492Z" fill="#2D7DBF"/>
<path d="M66.3 70.9492H69.2V76.3492H66.3V70.9492Z" fill="#2D7DBF"/>
<path d="M35.8501 89.8516H70.6501V111.452C70.6501 112.168 70.3446 112.854 69.8007 113.361C69.2569 113.867 68.5192 114.152 67.7501 114.152H38.7501C37.981 114.152 37.2433 113.867 36.6995 113.361C36.1556 112.854 35.8501 112.168 35.8501 111.452V89.8516Z" fill="#FFB531"/>
<path d="M51.8 84.4492H70.6501V100.649H51.8V84.4492Z" fill="#A0DDE5"/>
<path d="M56.1499 93.8984H70.6499V96.5984H56.1499V93.8984Z" fill="#8FD0D9"/>
<path d="M56.1499 88.5H59.0499V91.2H56.1499V88.5Z" fill="#8FD0D9"/>
<path d="M61.95 88.5H70.65V91.2H61.95V88.5Z" fill="#8FD0D9"/>
<path d="M40.2 89.8516H43.0999V96.6016H40.2V89.8516Z" fill="#FFC361"/>
<path d="M40.2 80.3984H43.0999V83.0984H40.2V80.3984Z" fill="#F2F2F2"/>
<path d="M40.2 85.8008H43.0999V89.8508H40.2V85.8008Z" fill="#F2F2F2"/>
<path d="M35.8501 76.3516H70.6501V80.4016H35.8501V76.3516Z" fill="#D9D9D7"/>
<path d="M116.519 43.0742L107.635 35.8362C106.578 34.9748 105.22 34.5001 103.815 34.5H88.775C87.919 34.5006 87.0771 34.7026 86.3275 35.0873C85.5778 35.472 84.9448 36.0268 84.4871 36.7002C84.0294 37.3736 83.7619 38.1438 83.7095 38.9393C83.6571 39.7347 83.8215 40.5295 84.1874 41.25H32.95C32.5654 41.25 32.1966 41.3922 31.9247 41.6454C31.6528 41.8986 31.5 42.242 31.5 42.6V50.7C31.5 51.058 31.6528 51.4014 31.9247 51.6546C32.1966 51.9078 32.5654 52.05 32.95 52.05H83.9514C83.9501 52.7287 84.0928 53.4009 84.3714 54.0281C84.65 54.6553 85.0589 55.225 85.5747 55.7046L94.9585 64.4415C92.2218 69.3564 91.3585 74.9908 92.5102 80.4221C90.5697 78.187 89.5076 75.4018 89.5 72.5278V70.95C89.5 70.592 89.3472 70.2486 89.0753 69.9954C88.8034 69.7422 88.4346 69.6 88.05 69.6H77.175C76.5982 69.6 76.0449 69.3867 75.637 69.0069C75.2292 68.6271 75 68.1121 75 67.575C75 67.0379 75.2292 66.5229 75.637 66.1431C76.0449 65.7633 76.5982 65.55 77.175 65.55H89.5V62.85H77.175C76.5982 62.85 76.0449 62.6367 75.637 62.2569C75.2292 61.8771 75 61.3621 75 60.825C75 60.2879 75.2292 59.7729 75.637 59.3931C76.0449 59.0133 76.5982 58.8 77.175 58.8H83.7V56.1H77.175C76.5983 56.0995 76.0454 55.886 75.6376 55.5063C75.2299 55.1267 75.0005 54.6119 75 54.075H72.1C72.0981 54.6958 72.2285 55.3107 72.4836 55.8842C72.7388 56.4578 73.1135 56.9785 73.5863 57.4163C73.5993 57.4284 73.6131 57.4397 73.6263 57.4517C73.1464 57.8881 72.7643 58.4089 72.5022 58.9839C72.2402 59.5589 72.1033 60.1766 72.0996 60.8012C72.0958 61.4258 72.2253 62.0448 72.4805 62.6225C72.7357 63.2001 73.1116 63.7249 73.5863 64.1663C73.5993 64.1784 73.6131 64.1897 73.6263 64.2017C72.906 64.8582 72.4121 65.6995 72.2076 66.6184C72.003 67.5373 72.0971 68.4921 72.4779 69.361C72.8587 70.2299 73.5088 70.9735 74.3454 71.497C75.182 72.0204 76.1671 72.3 77.175 72.3H86.6V72.5278C86.6079 75.0289 87.2726 77.4903 88.5362 79.6975C89.7999 81.9047 91.6241 83.7906 93.85 85.191V92.55C93.85 92.908 94.0028 93.2514 94.2747 93.5046C94.5466 93.7578 94.9154 93.9 95.3 93.9H96.5575L93.8612 113.983C93.8357 114.173 93.8539 114.365 93.9146 114.548C93.9752 114.731 94.077 114.9 94.213 115.043C94.3491 115.187 94.5164 115.302 94.7038 115.381C94.8912 115.459 95.0944 115.5 95.3 115.5H117.05C117.435 115.5 117.803 115.358 118.075 115.105C118.347 114.851 118.5 114.508 118.5 114.15V102H115.6V112.8H96.9425L99.48 93.9H115.6V99.3H118.5V47.1377C118.5 46.368 118.323 45.6073 117.981 44.9065C117.64 44.2056 117.141 43.5809 116.519 43.0742ZM66.3 43.95V49.35H63.4V43.95H66.3ZM51.8 43.95V49.35H48.9V43.95H51.8ZM34.4 43.95H37.3V49.35H34.4V43.95ZM40.2 49.35V43.95H46V49.35H40.2ZM54.7 49.35V43.95H60.5V49.35H54.7ZM69.2 49.35V43.95H75V49.35H69.2ZM77.9 49.35V43.95H98.2V49.35H94.4507L93.4253 48.3954C92.8322 47.8425 92.112 47.422 91.3191 47.1658C90.5261 46.9095 89.6811 46.8242 88.8476 46.9161C88.014 47.008 87.2138 47.2748 86.5071 47.6964C85.8003 48.118 85.2056 48.6834 84.7676 49.35H77.9ZM101.1 45.4088L105.45 48.6488V52.8409L103.824 51.3266C103.057 50.6098 102.126 50.0635 101.1 49.7285V45.4088ZM98.009 64.8698C98.1668 64.6126 98.2294 64.3143 98.1872 64.0208C98.145 63.7273 98.0003 63.4548 97.7753 63.2454L87.6253 53.7954C87.1361 53.3286 86.8622 52.7022 86.8622 52.05C86.8622 51.3978 87.1361 50.7714 87.6253 50.3046C88.1229 49.8424 88.7971 49.5828 89.5 49.5828C90.2029 49.5828 90.8771 49.8424 91.3747 50.3046L105.875 63.8046L107.925 61.8954L97.3507 52.05H98.6984C99.851 52.0532 100.956 52.4793 101.773 53.2358L105.875 57.0546C106.079 57.2389 106.337 57.3634 106.617 57.413C106.897 57.4625 107.186 57.4348 107.449 57.3334C107.712 57.232 107.937 57.0612 108.097 56.8421C108.257 56.6229 108.345 56.365 108.35 56.1V48C108.35 47.7976 108.301 47.5977 108.207 47.4152C108.113 47.2328 107.976 47.0723 107.806 46.9458L100.556 41.5458C100.299 41.3538 99.9795 41.2494 99.65 41.25H88.775C88.1982 41.25 87.6449 41.0367 87.237 40.6569C86.8292 40.2771 86.6 39.7621 86.6 39.225C86.6 38.6879 86.8292 38.1729 87.237 37.7931C87.6449 37.4133 88.1982 37.2 88.775 37.2H103.815C104.518 37.2 105.197 37.4375 105.726 37.8684L114.609 45.1061C114.92 45.3594 115.169 45.6717 115.34 46.0221C115.511 46.3725 115.6 46.7528 115.6 47.1377V85.8H99.65V88.5H115.6V91.2H96.75V84.45C96.7381 84.0682 96.6219 83.6955 96.4123 83.3671C95.1981 80.3649 94.7116 77.1499 94.9876 73.9521C95.2636 70.7544 96.2953 67.653 98.009 64.8698Z" fill="black"/>
<path d="M72.1 75.0008H69.2V70.9508H66.3V75.0008H63.4V70.9508H60.5V75.0008H57.6V70.9508H54.7V75.0008H51.8V70.9508H48.9V75.0008H46V70.9508H43.1V75.0008H40.2V70.9508H37.3V75.0008H34.4V68.2508H69.2V65.5508H32.95C32.5654 65.5508 32.1966 65.693 31.9247 65.9462C31.6528 66.1994 31.5 66.5427 31.5 66.9008V76.3508C31.5 76.7088 31.6528 77.0522 31.9247 77.3054C32.1966 77.5586 32.5654 77.7008 32.95 77.7008H69.2V83.1008H51.8C51.4154 83.1008 51.0466 83.243 50.7747 83.4962C50.5028 83.7494 50.35 84.0927 50.35 84.4508V88.5008H43.1V85.8008H40.2V88.5008H37.3V80.4008H34.4V111.451C34.4013 112.525 34.8601 113.554 35.6756 114.313C36.4911 115.072 37.5967 115.5 38.75 115.501H67.75C68.9033 115.5 70.0089 115.072 70.8244 114.313C71.6399 113.554 72.0987 112.525 72.1 111.451V77.7008H73.55C73.9346 77.7008 74.3034 77.5586 74.5753 77.3054C74.8472 77.0522 75 76.7088 75 76.3508V73.6508H72.1V75.0008ZM53.25 85.8008H69.2V88.5008H61.95V91.2008H69.2V93.9008H56.15V96.6008H69.2V99.3008H53.25V85.8008ZM67.75 112.801H38.75C38.3656 112.8 37.997 112.658 37.7252 112.405C37.4533 112.152 37.3004 111.809 37.3 111.451V91.2008H40.2V96.6008H43.1V91.2008H50.35V100.651C50.35 101.009 50.5028 101.352 50.7747 101.605C51.0466 101.859 51.4154 102.001 51.8 102.001H69.2V111.451C69.1996 111.809 69.0467 112.152 68.7748 112.405C68.503 112.658 68.1344 112.8 67.75 112.801Z" fill="black"/>
<path d="M56.1499 88.5H59.0499V91.2H56.1499V88.5Z" fill="black"/>
<path d="M40.2 80.3984H43.0999V83.0984H40.2V80.3984Z" fill="black"/>
</svg>
