<svg xmlns="http://www.w3.org/2000/svg" xmlns:xlink="http://www.w3.org/1999/xlink" viewBox="0 0 580.43 533.28"><defs><style>.cls-1,.cls-10,.cls-11,.cls-27,.cls-28,.cls-5,.cls-6{fill:none;}.cls-1,.cls-10,.cls-12,.cls-13,.cls-14,.cls-15,.cls-18,.cls-29,.cls-4,.cls-7,.cls-8,.cls-9{stroke:#262262;}.cls-1,.cls-12,.cls-27,.cls-5,.cls-6{stroke-linecap:round;stroke-linejoin:round;}.cls-2,.cls-25{fill:#c47b5f;}.cls-11,.cls-2,.cls-6{stroke:#000;}.cls-10,.cls-11,.cls-13,.cls-14,.cls-15,.cls-18,.cls-2,.cls-28,.cls-29,.cls-4,.cls-7,.cls-8,.cls-9{stroke-miterlimit:10;}.cls-3{fill:#a5614c;}.cls-26,.cls-4{fill:#ff4d4e;}.cls-5{stroke:#a5614c;}.cls-7{fill:#fff000;}.cls-17,.cls-8{fill:#66dccc;}.cls-9{fill:#fff;}.cls-12,.cls-14{fill:#cb84f0;}.cls-13,.cls-24{fill:#3b86ff;}.cls-15,.cls-22{fill:#2ad575;}.cls-16{fill:#f78f2d;}.cls-18{fill:#f18d1b;}.cls-19{fill:#23b55e;}.cls-20{fill:#efa584;}.cls-21{fill:#e2987a;}.cls-23{clip-path:url(#clip-path);}.cls-27{stroke:#9b5b48;}.cls-28{stroke:#bc7b64;}.cls-29{fill:#f2f2f1;}</style><clipPath id="clip-path"><path class="cls-1" d="M400.25,252.43s34.91-2.46,69.1-19.86c0,0-3.88,13.94-.88,19.86,0,0,17.41,4,23.08,29.53s6.31,47.94,6.63,72.55,4.84,56.25,19.87,78.22c4.1,6-59.93,41-157.08,20.5l16.12-54.33s-16.27,4.59-23.07,6l-37,20.35h-6.73a18.38,18.38,0,0,1-10-7.92l-1.91.19c-10.66-4.34-9.83-22.21-9.83-22.21l40.26-17.6,26.63-27.51s9.07-40.49,10.77-47.91,3.68-21.8,16.87-28.57a221.92,221.92,0,0,1,24.73-11.13Z"/></clipPath></defs><g id="Capa_6" data-name="Capa 6"><path d="M196.44,92.76s0,4.64,3.64,7.25,3.31,8.15,2.93,9.38-2.17,4.34-1.23,6.22,4.81,5.28,4.81,9.91.38,4.14-1.69,6.79-4.27,4.23-4.55,6.88-1.68,2.83-1.68,2.83L195.2,98.8Z"/><path class="cls-2" d="M126.25,139.58c2.11,32.93-5.9,62.82-5.9,62.82l18.39,7.75,30.5-2.59,7.71-6.84c-1.43-7.59-5.64-24.77-2.82-25.8,16.81-6.16,21.24-14.43,24.05-20s3.21-22.84,2.2-32.26S196,90.74,196,90.74l-64.64,12.49-16.85,5.33-4.85,12.61,2.54,14.67,10.55,6.92Z"/><path class="cls-3" d="M173.59,174.76s-17,1.94-24.05-1.85-10.29-7.86-10.29-7.86a2.06,2.06,0,0,0-2.3,0c-1.1.82,2.84,7.06,2.84,7.06s16.26,25.8,35.56,23.46c0,0-1.17-5-2.19-11.36S173.59,174.76,173.59,174.76Z"/><path d="M179.34,95.49s6.44,1.14,16.83,0a11.75,11.75,0,0,0,0-4.87C195.55,88.49,179.34,95.49,179.34,95.49Z"/><path class="cls-4" d="M107.86,106.6s11.64,1.11,46.86-4.7c0,0,32.32-5.81,40.91-10.05,1.54-.76.63-3.2.63-3.2s-3.71-15.11-11.14-26.37-22.78-15.73-34.79-15.11c-14.59.75-25.26,8.67-29.1,13.75s-10.41,16.34-12.14,25.75A102.28,102.28,0,0,0,107.86,106.6Z"/><path d="M133.91,104.92s-2.84.16-2.72,4.24,2,8.16,3.91,11.77,3,9.86,1.66,12.38-4.42,6.37-6.95,4-2.52-12.63-2.64-13-.72-10.21-3.73-12a6.89,6.89,0,0,0-9.73,3c-1.81,4.09-2.81,11.61.92,17.14s5.45,8.39,11.11,6.35c0,0,.41,11.32.32,15.1s-8.25,1.59-8.5-2.18-.5-9.73-5.87-9.56-12-1.68-12.66-5.95-.42-6.45,3.61-9.22-2.82-4.28-3.94-7.38c-.87-2.4-2.1-6.28,1.76-9a32.48,32.48,0,0,1,7.4-3.93,17.51,17.51,0,0,1,2.17.09c1.93,0,4.39,0,8.53-.27C125.29,106.07,133.91,104.92,133.91,104.92Z"/><path class="cls-5" d="M119.34,116.21s3.67.78,4.23,6,.56,8.16.56,8.16"/><path class="cls-5" d="M118,125.09s.33-2.49,1.91-3.15a2.7,2.7,0,0,1,3.73,1.35"/><path d="M191.13,106.3c-1.71.24-8.58,1.07-9.71,1.49s-3.1,1.37-2.57,3,1.31,2.44,3.88,1.9,10.19-2.44,10.19-2.44a25,25,0,0,1,3.52-.67,3.88,3.88,0,0,1,1.8.31l-.34-2.45A11.61,11.61,0,0,0,191.13,106.3Z"/><path d="M140.58,117.53s1.12-3.64,3.66-4.69,7.92-1.58,7.92-1.58,9.33-.6,9.71-.52a1.91,1.91,0,0,1,1.34,1.79c0,1.12-.07,3.06-1,3.13s-6.72.15-9.41.15S144,114.77,140.58,117.53Z"/><path class="cls-6" d="M171.87,110.73a57,57,0,0,0,3.48,6.27c1.18,1.52,3.17,2.76,3.41,4.09s-.53,3.71,0,5.42,2.91,4.86,2.91,6.38-1.81,3.71-5.42,4.66a12.73,12.73,0,0,1-2.57.45"/><path class="cls-6" d="M168.18,135.64a3,3,0,0,0,2.59,2"/><ellipse cx="157.55" cy="122.37" rx="1.97" ry="1.85" transform="translate(13.99 260.89) rotate(-81.81)"/><ellipse cx="190.35" cy="118.04" rx="1.97" ry="1.85" transform="translate(46.42 289.64) rotate(-81.81)"/><path class="cls-6" d="M149.93,122.94a27.48,27.48,0,0,1,9.85-2.84"/><path class="cls-6" d="M184.32,118.69a32.38,32.38,0,0,1,8.41-2.86"/><path class="cls-7" d="M120.2,200.59s16.3,8.57,29.73,7.23,26.21-8.71,26.21-8.71,24.33,2.38,29.51,6.79,6.9,8.24,9.58,14.37l46.39,145.79s-18.43,28.11-104.07,20.74c-78-6.71-81.05-15.56-81.05-15.56V312.39s-2.74-42.7,2.75-70.15c0,0,3.27-20.91,21.07-30.27,11-5.79,18.53-5.65,18.53-5.65Z"/><path class="cls-6" d="M183.61,145.36s-2.66,2.76-8.75,3.81a74.91,74.91,0,0,1-13.71.66"/><ellipse class="cls-6" cx="160.57" cy="149.55" rx="0.2" ry="0.68" transform="translate(-28.91 260.21) rotate(-73.25)"/><path class="cls-2" d="M195.2,285.37l9.44,18.43s35.81-51.46,43.81-61.2,17-21.56,17-21.56.22-10,5.72-14.38,7.72-6.79,17.35-8.73,10.13-2.54,10.93-3.21c0,0,3.51-1.86,9.38-10s14.54-19.13,14.54-19.13,3.69-4.17,5.43-3.85,1.09,2.89,1.09,2.89a32.29,32.29,0,0,1-4,9.72c-.85,1.39,7.5-10,7.5-10s3-4.91,5.82-5.34,1.43,3.66.58,5.69-2.89,7.8-2.89,7.8,3.2-4.9,6-7.11,4-2.51,4.8-2.34,1.53,1.11.94,3.7S344,179,344,179s5.35-8,7.61-9.91,4.12-2.55,4.8-2.5,2.38-.05,2.34,2.21-4.64,10.11-4.64,10.11L347.76,191l-7.37,14.63s7.74,1,8.9,2.86.12,4.15-2.5,5.67a25,25,0,0,1-12.38,2.5,30.53,30.53,0,0,1-8.89,10.87c-5.92,4.28-9,7.25-17.38,7.56s-9.2-.63-10.61-.63-3.35-.15-4,1c0,0-9.85,25.48-14.22,33.8s-29.33,58.8-31.59,61.34-18,27.59-22.28,31.59c-7.7,7.25-17.59,12.56-25.38,12.83-5.92.21-19.32,1.67-32.29-17.91L147,331.05l-8.32-11.29s12-12.81,20.31-18.19C173.12,292.43,187.57,285.24,195.2,285.37Z"/><g id="Capa_43" data-name="Capa 43"><path class="cls-8" d="M261.53,152.47a3.81,3.81,0,0,0-3.88-1.77c-2.73.37-3.89,3.52-4.16,5.26-.68,4.34-.15,9.33,2.42,15.18s7.26,11.13,13.13,12.59,6.29-3.65,6.29-3.65Z"/><path class="cls-8" d="M271.77,181.84a24.76,24.76,0,0,0,4.05-.85c18.79-8.34,30.55-23.27,35.75-34.74s5.28-19.34,4.1-24.77c-.84-3.91-4.77-9.71-4.77-9.71-2.15-2.59-.87-6.19-.76-7.45s.58-3.86-1.88-4.23c-2.81-.43-3.65,2.9-3.65,2.9-1.31,5.91-3,6-3,6s-6.58,3.88-8.87,7.2-4,12.52-6,15.87c-3.91,6.69-12.57,14.72-25.95,19.13a16.28,16.28,0,0,0-2.39,1c-.76.45-1.58,1.34-2.46,4.06-1.18,3.68-.74,8,2.67,15C262.2,178.56,267.32,181.71,271.77,181.84Z"/><path class="cls-9" d="M307.76,125c.13-1.56.14-5.63,2.45-5.31s2,6.64,2,6.64a37.69,37.69,0,0,1-1.6,10.82c-1.64,4.71-2.95,4.32-3.48,4.31s-1.31-.25.09-6C308.41,130.46,307.53,127.73,307.76,125Z"/><path class="cls-9" d="M301.62,148.09s1.18-3.22,3-2.83-2.09,6.92-2.09,6.92-1.83,2.78-3.58,2.06S300.63,150.52,301.62,148.09Z"/></g><path class="cls-10" d="M108.12,94.45s17.5-.64,45.62-4.26,40.15-9.31,40.15-9.31"/><line class="cls-10" x1="117.57" y1="93.89" x2="118.56" y2="106.42"/><line class="cls-10" x1="121.73" y1="93.57" x2="122.94" y2="105.87"/><line class="cls-10" x1="147.43" y1="90.98" x2="149.06" y2="102.8"/><line class="cls-10" x1="151.66" y1="90.46" x2="153.45" y2="102.1"/><line class="cls-10" x1="186.65" y1="83.5" x2="188.94" y2="94.27"/><line class="cls-10" x1="182.39" y1="84.73" x2="184.37" y2="95.54"/><path class="cls-11" d="M290.21,216.67s3.2-9,12.91-10.17,37.27-.87,37.27-.87"/><line class="cls-6" x1="317.48" y1="188.58" x2="325.97" y2="174.37"/><path class="cls-6" d="M326,193.62c4.4-5.56,11-21.07,11-21.07"/><path class="cls-6" d="M334.8,196.52s6.81-12,9.17-17.56"/><path class="cls-6" d="M334.41,216.66A43.2,43.2,0,0,0,321.18,219"/><line class="cls-6" x1="207.5" y1="309.73" x2="204.64" y2="303.8"/><path class="cls-7" d="M195.2,285.37s-22.64-43.53-31.92-54c-7.23-8.19-16.51-23.15-44.43-25"/><path class="cls-10" d="M145.81,214.39s18.64.94,32.88-8.75l-2.55-6.53"/><line class="cls-10" x1="109.34" y1="272.56" x2="138.67" y2="319.76"/><path class="cls-10" d="M133.27,311.07s6-13.65,23.71-23.48,28.31-12.17,32.66-12.7"/><line class="cls-7" x1="174.49" y1="279.18" x2="180.09" y2="289.24"/><line class="cls-7" x1="162.06" y1="284.88" x2="168.43" y2="295.29"/><line class="cls-7" x1="149.27" y1="292.59" x2="156.66" y2="302.6"/><line class="cls-7" x1="139.41" y1="301.89" x2="146.76" y2="311.03"/><polygon class="cls-12" points="271.57 132.01 270.65 128.49 268 131.68 266.64 128.02 264.1 131.42 262.46 127.41 259.76 130.91 258.52 127.06 255.6 130.58 254.67 126.47 251.91 129.87 250.68 126.13 248.27 129.61 246.99 125.65 244.57 129.15 243.04 125.22 240.68 128.87 239.07 125.23 239.07 125.23 242.15 92.77 244.5 89.63 245.6 92.77 248.07 89.96 249.42 93.62 251.96 90.22 253.9 94.15 256.31 90.74 257.55 94.58 260.46 91.06 261.69 95.07 264.16 91.77 265.58 95.52 267.79 92.03 269.32 95.92 271.49 92.49 272.99 96.35 275.97 92.62 277.2 96.89 273.71 129.53 271.57 132.01"/><circle class="cls-1" cx="258.4" cy="110.61" r="10.56"/></g><g id="Capa_16" data-name="Capa 16"><path class="cls-13" d="M252,329.42a2.93,2.93,0,0,1,.68,1l34.92,97.82H157.28l-29.86-99.17,123.27.06A2.41,2.41,0,0,1,252,329.42Z"/><path class="cls-14" d="M362.24,427.82A2.28,2.28,0,0,1,360,430.1h-.18v0s-194.88,1.22-201,1.22-5.92-4.56-5.92-4.56l-27.79-91.86-.81-2.53a2,2,0,0,1,0-.49,2.82,2.82,0,0,1,5.57-.61s.87,2.55.87,2.56l27.76,91.7H360A2.28,2.28,0,0,1,362.24,427.82Z"/><circle class="cls-4" cx="138.82" cy="336.06" r="2.75"/><circle class="cls-15" cx="146.33" cy="336.06" r="2.75"/><circle class="cls-13" cx="154.23" cy="336.06" r="2.75"/><polygon class="cls-9" points="194.04 412.84 162.7 412.84 143.58 343.44 175.41 343.44 194.04 412.84"/><polygon class="cls-9" points="233.07 412.84 198.78 412.84 179.66 343.44 212.46 343.44 233.07 412.84"/><polygon class="cls-9" points="273.85 412.84 237.06 412.84 216.42 343.44 249.22 343.44 273.85 412.84"/><line class="cls-1" x1="163.01" y1="394.19" x2="183.62" y2="394.19"/><line class="cls-1" x1="164.38" y1="398.91" x2="184.99" y2="398.91"/><line class="cls-1" x1="165.44" y1="403.64" x2="186.05" y2="403.64"/><line class="cls-1" x1="200.79" y1="394.19" x2="221.4" y2="394.19"/><line class="cls-1" x1="202.16" y1="398.91" x2="222.77" y2="398.91"/><line class="cls-1" x1="203.22" y1="403.64" x2="223.83" y2="403.64"/><line class="cls-1" x1="238.15" y1="394.19" x2="258.76" y2="394.19"/><line class="cls-1" x1="239.52" y1="398.91" x2="260.13" y2="398.91"/><line class="cls-1" x1="240.58" y1="403.64" x2="261.19" y2="403.64"/><path class="cls-16" d="M204,379.66a4.84,4.84,0,0,1-6.47-2.27,5,5,0,0,1-.06-4.07l4.12-12.91a5.53,5.53,0,0,1,2.74-3.33,4.84,4.84,0,0,1,6.46,2.27,5.28,5.28,0,0,1-.07,4.16l-4,12.56C206.16,377.46,205.51,379,204,379.66Z"/><path class="cls-17" d="M208.72,369.85l-2,6.22c-.55,1.39-1.2,2.88-2.68,3.59a4.84,4.84,0,0,1-6.47-2.27,5,5,0,0,1-.06-4.07l2-6.26"/><path class="cls-10" d="M204,379.66a4.84,4.84,0,0,1-6.47-2.27,5,5,0,0,1-.06-4.07l4.12-12.91a5.53,5.53,0,0,1,2.74-3.33,4.84,4.84,0,0,1,6.46,2.27,5.28,5.28,0,0,1-.07,4.16l-4,12.56C206.16,377.46,205.51,379,204,379.66Z"/><line class="cls-18" x1="199.48" y1="367.12" x2="208.7" y2="369.89"/><ellipse class="cls-10" cx="159.96" cy="356.41" rx="2.23" ry="0.84" transform="translate(-109.91 73.94) rotate(-19.52)"/><path class="cls-10" d="M157.86,357.16l13.89,21.28s3.46.68,3.69-2.1l-13.38-20.67"/><ellipse class="cls-10" cx="241.52" cy="368.37" rx="6.59" ry="13.86" transform="translate(-176.82 230.45) rotate(-38.5)"/><path class="cls-10" d="M249.89,379.17c-.34.75-6-.5-11.74-7.49-7-8.51-5.23-14-5.23-14s6.19-.58,11.89,7S251.41,375.81,249.89,379.17Z"/></g><g id="Capa_12" data-name="Capa 12"><path d="M379.89,138.74s7.84-19,27.53-26.8,45.78-6.87,65.47,16.2,17.19,45,17.22,48.81c.07,8.58,1.15,23.45,15.06,40.21,13,15.68,22.8,34.1,24.44,47.6S525.08,303.44,511,304.9l2.7-11.15s-2.37,10.95-7.29,12.41-14,0-14,0l-109.55-22.7S365,281,363,259.22c-1.47-16.65,9.3-23,12-38S366.63,169.58,379.89,138.74Z"/><path class="cls-19" d="M469.35,232.57c-.06-2.5-17.78-.53-36.13,5.39s-36.39,12-33,14.47c2,1.47,18.37-.53,36.72-6.46S469.38,233.83,469.35,232.57Z"/><path class="cls-20" d="M385.85,132.2l-2.72,17v36.21s-1.25,22.48,13.59,31.92c8.48,5.39,9.26,4.08,11.12,5.29,2.91,1.89,2.22,29.75,2.22,29.75s2.35.83,16.74-2.9,37.64-13,37.64-13-11.76-11.21-15.36-51.06c0,0,4.43,1,5.26-2.35s-.7-8.58-.28-10,5.95-5,2.77-12.87c-1.8-4.43-8.18-2.08-10,.75-1.57,2.46-2.32,5.2-4.81,5.34l.14-23-41.79-19.78-13.14,4.56Z"/><path class="cls-21" d="M281.49,422.59s10.33,3.05,16.33,3,15.06-2.26,15.06-2.26l-8.27-9.64Z"/><path class="cls-20" d="M291,396.51l-2.43-1.22s-18.93-2.89-23.5-3-10.34.47-14.73,3.2c-4.23,2.63-34.5,24.1-34.5,24.1s-3.89,2.54-2.7,3.5a4.84,4.84,0,0,0,2.28,1.19c-1,0,3,2.05,4.81,2.44s4.81-1.1,4.81-1.1l8.59-.08L254,414.18l3.24,2.44-8,5.06s-3.31,2-1.81,3.3,7.73-.56,7.73-.56l9.53-3.54s8.39,4.12,11.13,4.23a37.63,37.63,0,0,0,5.86-.36s19.23-6.79,21-8.14S291,396.51,291,396.51Z"/><path class="cls-22" d="M400.25,252.43s34.91-2.46,69.1-19.86c0,0-3.88,13.94-.88,19.86,0,0,17.41,4,23.08,29.53s6.31,47.94,6.63,72.55,4.84,56.25,19.87,78.22c4.1,6-59.93,41-157.08,20.5l16.12-54.33s-16.29,5-22.7,5.77l-37.34,20.56h-6.73a18.38,18.38,0,0,1-10-7.92l-1.91.19c-10.66-4.34-9.83-22.21-9.83-22.21l40.26-17.6,26.63-27.51s9.07-40.49,10.77-47.91,3.68-21.8,16.87-28.57a221.92,221.92,0,0,1,24.73-11.13Z"/><g class="cls-23"><path class="cls-24" d="M500.31,343.39a11,11,0,0,0-10.57.86,17.18,17.18,0,0,0-6.62,8.64c-1.31,3.5-1.56,8,1.27,10.43,2.05,1.77,5.3,2.06,6.76,4.34,2,3.09-.7,7.77,1.6,10.63,1.67,2.09,5.17,1.73,7.17,0s2.87-4.47,3.59-7.05a33.47,33.47,0,0,0,1.62-10.93c-.36-5.79-3.35-11.08-4.53-16.76"/><path class="cls-24" d="M472.19,396a68.66,68.66,0,0,1-6.95-2,10.64,10.64,0,0,0-7.09.06,8.46,8.46,0,0,0-4.56,6.5,16,16,0,0,0,1.19,8.1c.82,2.15,1.91,4.3,1.84,6.6-.14,3.88-3.53,7-4.15,10.79-.58,3.6,1.49,7.25,4.44,9.39s6.64,3,10.26,3.4c3.45.39,7.21.33,10-1.71a10.53,10.53,0,0,0,3.93-8.49,21.47,21.47,0,0,0-2.49-9.29c-1.08-2.24-2.38-4.53-2.25-7,.16-3.3,2.72-5.88,4.52-8.64,1.37-2.08,2.9-3,2.88-6.84a6,6,0,0,0-1.11-2.81c-4.58-3-8.45,1.72-10.48,1.95"/><path class="cls-24" d="M518.6,419.29c-5.89-1.12-12.52-.62-17.11,3.25-4.44,3.72-6.13,9.85-6.32,15.64-.09,2.59.12,5.32,1.47,7.53,2.09,3.41,6.35,4.78,10.31,5.3a41.8,41.8,0,0,0,10.06.1c2.93-.33,6-1,8.17-3,2.89-2.58,3.73-6.8,3.52-10.66a26,26,0,0,0-9.13-18.27"/><path class="cls-24" d="M407.49,409.64c-2.69-.87-4.62-3.4-7.35-4.16a6.67,6.67,0,0,0-6.41,1.79,7.75,7.75,0,0,0-2.07,6.42c.36,2.64,1.95,5,2.38,7.6a9,9,0,0,1-2.36,7.55c-2.63,2.72-9.27,2.18-9.52,8.07-.48,11.71,11.81,8.48,14.85,9a7.13,7.13,0,0,1,2.84,1c1.69,1.21,2.15,3.47,3.09,5.32,1.83,3.59,5.6,5.71,9.26,7.4,2.42,1.11,5.05,2.14,7.68,1.74,3.34-.52,6-3.4,6.94-6.66a15.58,15.58,0,0,0-.91-9.92A57.8,57.8,0,0,0,421,436c-1.16-1.86-2.31-4-1.79-6.12a9,9,0,0,1,1.68-3c2.3-3.15,7.21-7.57,7.4-9.41.56-5.45-1-7.62-1.7-8.36-2.7-2.75-4.22-3.92-8.07-4.17-6.5-.43-6.29,3-11,4.72"/><path class="cls-24" d="M478.72,257.45a65.12,65.12,0,0,0-12.94-.44c-3.51.23-7.22.84-9.86,3.16s-3.61,6.84-1.13,9.33c2.28,2.29,6.62,2.25,8,5.18.68,1.46.33,3.17.06,4.76a14.43,14.43,0,0,0-.09,5.24,6.43,6.43,0,0,0,2.8,4.29c3.68,2.19,9.24-.68,12.32,2.29,1.81,1.75,1.71,4.59,2,7.09.31,2.95-3.36,10.89,4.05,15,7.07,3.93,10.73-5.14,12.68-6.44a15.86,15.86,0,0,0,4.92-4.93,19.68,19.68,0,0,0,2.34-7.91c1-8.23-.27-16.88-4.53-24S487.49,257.63,479.22,257"/><path class="cls-24" d="M396.1,326s12.77-33.52,14.37-35.47,9-15.61,20.57-12.78,9,15.26,6.92,16.68-12.62,9.93-10.39,15.07,11.45,8.16,9.5,14.37-6.21,10.29-14.37,6.56-9.93,8.32-9.93,8.32-3.72,8.53-10.82,5S396.1,326,396.1,326Z"/><path class="cls-24" d="M397.52,266.14a14.52,14.52,0,0,1,2.87,11.28c-.79,3.92-3.87,7.44-7.8,8.18-2.1.39-4.34,0-6.32.81-4.95,1.94-5.62,9.64-10.63,11.42a8.41,8.41,0,0,1-5.63-.32,6,6,0,0,1-2.1-1.16,5.67,5.67,0,0,1-1.5-3.71c-.39-4.64,1.95-9.13,5-12.65,6.28-7.24,15.48-11.39,24.81-13.57"/><path class="cls-24" d="M399.83,288.12s-8,13.41-15,20.54a83.13,83.13,0,0,0-10.6,13.13s2.9,6.42,12.8,4.21S392,309.35,392,309.35s-1.09-2.93,4.4-5.31,10.61-7.87,10.43-10.8S404.73,288.12,399.83,288.12Z"/><path class="cls-24" d="M410,389.17s-4.89-15.06,3.11-22.7c12-11.47,20.55-3,20.55-3s-4.54,10.75-7.05,14.22S420.65,385.94,410,389.17Z"/><path class="cls-24" d="M451.47,329.07s-7.05,15.29-7.4,15.77-4.19,8.37-4.19,8.37,7.41,19,11.59,22.58,11.47,2.86,14.34-2.39,1.67-6.81-2.39-15.06,6.45-14.33,7.77-15.17,10-10.83,0-19.36C463.78,317.48,451.47,329.07,451.47,329.07Z"/><path class="cls-24" d="M334.09,375.57s38.88-14.26,41.49-15.11c0,0,6.68,9.75,6.68,12.79s0,9.14-7.11,10.88c-6.77,1.66-7.4-2.46-13.93-1.74s-5.22,8.77-11,10.36-14.18,2-17.27-5C330.76,382.83,334.09,375.57,334.09,375.57Z"/><path class="cls-24" d="M358,338.77s13.83,6.42,7.41,25.34-31.35,11.46-31.35,11.46l-5.25,2.12,26.63-27.51Z"/></g><path class="cls-1" d="M400.25,252.43s34.91-2.46,69.1-19.86c0,0-3.88,13.94-.88,19.86,0,0,17.41,4,23.08,29.53s6.31,47.94,6.63,72.55,4.84,56.25,19.87,78.22c4.1,6-59.93,41-157.08,20.5l16.12-54.33s-16.27,4.59-23.07,6l-37,20.35h-6.73a18.38,18.38,0,0,1-10-7.92l-1.91.19c-10.66-4.34-9.83-22.21-9.83-22.21l40.26-17.6,26.63-27.51s9.07-40.49,10.77-47.91,3.68-21.8,16.87-28.57a221.92,221.92,0,0,1,24.73-11.13Z"/><path class="cls-25" d="M407.84,222.6s12.85.52,21.91-3.55c8.47-3.82,13.58-11,14.48-11.55s3.17-1.7,3.06.57-2.4,9.56-10.87,17.77C425.33,236.59,410,237.05,410,237.05S409.93,228.53,407.84,222.6Z"/><path d="M380.05,147.52s8.78,2.34,12.13,2.34a86.83,86.83,0,0,1,0-21.07s-1.65,15.59,2.27,21c1.13,1.56,16,1.6,16,1.6s-2.29-10.56,1.09-19.66c1.08-2.92-2.95,13.13.83,19.61a121.13,121.13,0,0,0,13,1.61l.2-15.82,1.27,15.75s9.65-.19,12.24-1.16c0,0,.3,6.07.58,8.15.36,2.65.52,6.54,2.36,6.43s3.66-25.45,3.66-25.45l-43.75-23.9-14.7,11.16Z"/><path class="cls-1" d="M328.84,377.69l55.31-20.36,23.29-60.22c.07-.15,10.2-25.82,12.3-28.95,2.56-3.79,9.06-15.59,25.36-18.07,14.68-2.24,23.37,2.34,23.37,2.34"/><path class="cls-1" d="M461.33,309,432.5,366.17s-6.92,15.42-13.43,19c-7.42,4.08-42,13.73-42,13.73"/><path class="cls-1" d="M426.83,259.05c-8.79,4-19,3.52-19,3.52s-6.22,23.14-11,30.32c-2.5,3.74-5.05,9.25-12,15.77-7.88,7.43-13.65,19-14.55,23s-4,13.11,5.29,28.79"/><path class="cls-1" d="M457.25,249.66s8.4-2.89,10.09-4.15"/><line class="cls-1" x1="300.32" y1="417.31" x2="358.12" y2="404.01"/><path class="cls-1" d="M294.18,392.84s.05,17,9.86,23.62c0,0,5.1,5.89,11.65,8.77"/><circle class="cls-26" cx="453.69" cy="181.58" r="6.4"/><path class="cls-6" d="M404.4,166.29l-5.75,21.07s-1.1,4.36,9.19,5.2"/><path class="cls-6" d="M411.62,192a3.11,3.11,0,0,0,2-2.62"/><ellipse cx="390.49" cy="171.45" rx="1.65" ry="1.82" transform="translate(-35.89 162.6) rotate(-22.52)"/><ellipse cx="421.3" cy="173.25" rx="1.65" ry="1.82" transform="translate(-34.23 174.53) rotate(-22.52)"/><path class="cls-6" d="M386.8,170.1a14.32,14.32,0,0,1,8.63,1.14"/><path class="cls-6" d="M417.17,171.49a16.88,16.88,0,0,1,9.19,2.06"/><path d="M416.38,161s9.63.31,12.24,1.75,5.48,5.06,5.48,5.06.53,1-.48.69-5.59-2.25-6.92-2.16-9.26-.34-10.32-.77a2.5,2.5,0,0,1-1.86-2.5A1.77,1.77,0,0,1,416.38,161Z"/><path d="M383.11,160.25a4.69,4.69,0,0,1,1.95-1.42c1-.26,12.13.89,13.56,1.42a1.61,1.61,0,0,1,.73,2.72c-.8.69-1.76,1.67-3.27,1.46s-7.9-1.94-9.71-1.89-2.8.37-3.24.8S383.11,160.25,383.11,160.25Z"/><path class="cls-25" d="M396.64,202.46s3.23-2.82,6.59-3.4,10.74,3.4,10.74,3.4-3.23,5.47-8.66,5.06S396.64,202.46,396.64,202.46Z"/><path class="cls-27" d="M419.89,200.65A36.44,36.44,0,0,1,406,203.27c-8.67,0-9.4-.81-9.4-.81"/><line class="cls-28" x1="216.54" y1="424.82" x2="239.8" y2="408.24"/><line class="cls-28" x1="225.05" y1="425.61" x2="246.92" y2="410.85"/><path class="cls-28" d="M254,414.18s10.77,8.35,21,10.64c0,0,7.48.88,12.68-1.77l10.79-5.55"/><path class="cls-27" d="M450.11,162.58s-3.63,2.13-3.72,5.91a16.79,16.79,0,0,0,.9,6.24"/><path class="cls-27" d="M450.89,171.24s.19-2.14-.5-3.1c-.93-1.3-3.12-.85-4-.37"/></g><g id="Capa_7" data-name="Capa 7"><polygon class="cls-29" points="345.2 298.01 320.53 299.26 318.6 324.1 316.41 299.2 291.73 297.25 316.46 295.04 319.35 270.13 320.59 295.11 345.2 298.01"/><polygon class="cls-29" points="246.66 176.34 229.28 177.23 227.92 194.72 226.38 177.19 208.99 175.81 226.42 174.25 228.45 156.71 229.33 174.3 246.66 176.34"/><polygon class="cls-29" points="373.6 104.54 354.13 105.53 352.6 125.13 350.88 105.48 331.39 103.94 350.92 102.19 353.19 82.53 354.18 102.25 373.6 104.54"/></g></svg>