<svg xmlns="http://www.w3.org/2000/svg" viewBox="0 0 580.43 533.28"><defs><style>.cls-1{fill:#cb84f0;}.cls-1,.cls-2{stroke:#262262;stroke-linecap:round;stroke-linejoin:round;stroke-width:2px;}.cls-2{fill:#3b86ff;}</style></defs><g id="Post_Delivery" data-name="Post Delivery"><path class="cls-1" d="M285.05,258.33c-66.14,0-119.76,46.82-119.76,104.57s53.62,104.58,119.76,104.58S404.79,420.66,404.79,362.9,351.19,258.33,285.05,258.33Zm0,182.63c-49.38,0-89.39-34.94-89.39-78.06s40-78.06,89.39-78.06,89.37,35,89.37,78.06S334.41,441,285.05,441Z"/><ellipse class="cls-2" cx="285.05" cy="268.58" rx="165.71" ry="54.41"/><path class="cls-1" d="M354,156l-.06.17c-1.24,4.5-8.1,21.11-16.21,32.57-6.71,9.49-8.65,14-12.33,25.41-7.78,24.13-2.75,52.31-2.75,52.31s-12.12,5.21-31.94,6.31-38.36-7.34-38.36-7.34c.37-5.47,5.44-35.81,1.67-45.72-3.68-9.67-5.66-13.27-17.62-27.2-15.19-16.46-22.74-34.48-22.74-55.3A71.43,71.43,0,1,1,354,156Z"/></g></svg>