<svg xmlns="http://www.w3.org/2000/svg" viewBox="0 0 580.43 533.28"><defs><style>.cls-1{fill:#2ad575;stroke:#262262;stroke-miterlimit:10;stroke-width:2px;}</style></defs><g id="Male_bodies" data-name="Male bodies"><path class="cls-1" d="M349.14,348.73c11.37,3.14,44.17-1.41,62.65-13.91s31.58-39.62,18-109.73-56.7-113.61-56.7-113.61-51.67,7.61-90.26,9.24-98.92-9.24-98.92-9.24-54.35,85.33-50.55,144.58,27.18,79.35,45.66,87,57.61,7.61,64.14,0l1.08,52.18s2,62.47,51,62.5c46.67,0,50.42-56.19,50.42-56.19Z"/><path class="cls-1" d="M335.85,195.59s17.38,95.27,13.29,153.14"/><path class="cls-1" d="M241.49,199.61s4.33,109.66,1.67,143.41"/><path class="cls-1" d="M244.24,395.2s14.57,18,50.82,17.58,50.83-14.25,50.83-14.25"/></g></svg>