<?xml version="1.0" encoding="utf-8"?>
<!-- Generator: Adobe Illustrator 25.4.1, SVG Export Plug-In . SVG Version: 6.00 Build 0)  -->
<svg version="1.1" xmlns="http://www.w3.org/2000/svg" xmlns:xlink="http://www.w3.org/1999/xlink" x="0px" y="0px"
	 viewBox="0 0 297.27 273.12" style="enable-background:new 0 0 297.27 273.12;" xml:space="preserve">
<style type="text/css">
	.st0{fill:#3B86FF;stroke:#262262;stroke-miterlimit:10;}
	.st1{fill:#F2F2F1;stroke:#262262;stroke-miterlimit:10;}
	.st2{fill:#F2F2F1;stroke:#262262;stroke-linecap:round;stroke-linejoin:round;stroke-miterlimit:10;}
	.st3{fill:#3B86FF;}
	.st4{fill:none;stroke:#262262;stroke-miterlimit:10;}
	.st5{fill:#2AD575;stroke:#2A255C;stroke-miterlimit:10;}
	.st6{fill:#262262;}
	.st7{fill:#FF4D4E;}
	.st8{fill:#FFF000;}
	.st9{fill:#FFFFFF;}
	.st10{fill:#F78F2D;stroke:#262262;stroke-miterlimit:10;}
	.st11{fill:none;stroke:#FFF000;stroke-miterlimit:10;}
	.st12{fill:#FFFFFF;stroke:#262262;stroke-miterlimit:10;}
	.st13{fill:#CB84F0;stroke:#262262;stroke-miterlimit:10;}
	.st14{fill:#AD5D46;}
	.st15{fill:#7B3525;}
	.st16{fill:#F78F2D;}
	.st17{fill:#2AD575;}
	.st18{fill:none;stroke:#FF4D4E;stroke-miterlimit:10;}
	.st19{fill:none;stroke:#2AD575;stroke-miterlimit:10;}
	.st20{fill:none;stroke:#3B86FF;stroke-miterlimit:10;}
	.st21{fill:#577CBC;}
	.st22{fill:none;stroke:#2A255C;stroke-miterlimit:10;}
	.st23{clip-path:url(#SVGID_00000030446683369145302500000004393877006221288341_);}
	.st24{fill:none;stroke:#404440;stroke-miterlimit:10;}
	.st25{clip-path:url(#SVGID_00000011018484396397311140000016471377735926109353_);}
	.st26{fill:none;stroke:#000000;stroke-miterlimit:10;}
	.st27{fill:none;stroke:#7B3525;stroke-miterlimit:10;}
	.st28{fill:none;stroke:#000000;stroke-linecap:round;stroke-miterlimit:10;}
	.st29{fill:#F2F2F1;}
	.st30{fill:none;stroke:#2A255C;stroke-linecap:round;stroke-linejoin:round;stroke-miterlimit:10;}
	.st31{fill:none;stroke:#2A255C;stroke-linecap:round;stroke-miterlimit:10;}
	.st32{fill:none;}
	.st33{fill:#66DCCC;}
	.st34{fill:#F18D1B;stroke:#262262;stroke-miterlimit:10;}
	.st35{fill:#FF4D4E;stroke:#262262;stroke-miterlimit:10;}
	.st36{fill:#66DCCC;stroke:#262262;stroke-miterlimit:10;}
	.st37{fill:#FFFFFF;stroke:#262262;stroke-linejoin:round;stroke-miterlimit:10;}
	.st38{fill:none;stroke:#262262;stroke-linejoin:round;stroke-miterlimit:10;}
	.st39{fill:#FF376E;stroke:#262262;stroke-miterlimit:10;}
	.st40{fill:#E84448;stroke:#262262;stroke-miterlimit:10;}
	.st41{fill:#E63066;stroke:#262262;stroke-miterlimit:10;}
	.st42{fill:#3B86FF;stroke:#2A255C;stroke-miterlimit:10;}
	.st43{fill:#FFF000;stroke:#262262;stroke-miterlimit:10;}
	.st44{fill:#FFEA00;stroke:#262262;stroke-miterlimit:10;}
	.st45{fill:#2AD575;stroke:#262262;stroke-miterlimit:10;}
	.st46{fill:#FF4D4E;stroke:#2A255C;stroke-miterlimit:10;}
	.st47{fill:#FFEA00;stroke:#2A255C;stroke-miterlimit:10;}
	.st48{fill:#F18D1B;}
	.st49{opacity:0.36;fill:none;stroke:#F2F2F1;stroke-miterlimit:10;}
	.st50{fill:#CB84F0;stroke:#262262;stroke-linecap:round;stroke-linejoin:round;stroke-miterlimit:10;}
	.st51{fill:#FFFFFF;stroke:#262262;stroke-linecap:round;stroke-linejoin:round;stroke-miterlimit:10;}
	.st52{fill:none;stroke:#262262;stroke-linecap:round;stroke-linejoin:round;stroke-miterlimit:10;}
	.st53{fill:#2AD575;stroke:#262262;stroke-linecap:round;stroke-linejoin:round;stroke-miterlimit:10;}
	.st54{fill:#FFF000;stroke:#262262;stroke-linecap:round;stroke-linejoin:round;stroke-miterlimit:10;}
	.st55{fill:#2A255C;stroke:#262262;stroke-miterlimit:10;}
</style>
<g id="ECP">
	<g id="Capa_18">
	</g>
	<g id="Capa_19">
	</g>
	<g id="Capa_20">
	</g>
	<g id="Capa_20_copia">
	</g>
	<g id="Capa_21">
	</g>
	<g id="Capa_23">
	</g>
	<g id="Capa_22">
		<g id="Capa_24">
		</g>
	</g>
	<g id="Capa_26">
	</g>
</g>
<g id="Effective">
	<g id="Capa_36">
	</g>
	<g id="Capa_35">
	</g>
	<g id="Capa_38">
	</g>
	<g id="Capa_39">
		<g id="Capa_40">
		</g>
	</g>
	<g id="Capa_41">
	</g>
</g>
<g id="Condoms">
	<g id="Capa_42">
	</g>
	<g id="Capa_43">
	</g>
	<g id="Capa_44">
	</g>
	<g id="Capa_45">
	</g>
	<g id="Capa_46">
	</g>
	<g id="Capa_47">
	</g>
	<g id="Capa_48">
	</g>
	<g id="Capa_49">
	</g>
</g>
<g id="Capa_51">
</g>
<g id="Capa_52">
</g>
<g id="Capa_54">
</g>
<g id="Capa_53">
	<g id="Capa_55">
	</g>
</g>
<g id="Capa_56">
</g>
<g id="Capa_57">
</g>
<g id="Capa_58">
</g>
<g id="Capa_59">
</g>
<g id="Capa_60">
</g>
<g id="Capa_61">
	<g>
		<path class="st9" d="M95.13,102.55l110.44-24.16c0,0,0.23,38.89,0,49.23c-0.62,27.6,30.86,34.87,30.86,34.87l-30.86,15.55v14.56
			L97.76,225.43l-5.63-6.42L95.13,102.55"/>
		<polygon class="st45" points="100.75,110.78 205.57,83.25 205.57,59.66 193.69,57.65 95.45,81.56 95.13,106.22 		"/>
		<line class="st4" x1="101.4" y1="85.74" x2="95.45" y2="81.56"/>
		<polyline class="st38" points="95.13,106.22 92.12,219.02 97.76,225.43 101.4,85.74 205.57,59.66 		"/>
		<line class="st4" x1="205.57" y1="129.23" x2="205.57" y2="83.25"/>
		<polyline class="st4" points="97.76,225.43 205.57,192.61 205.57,178.04 		"/>
		<path class="st38" d="M205.57,128.88c1.06,26.47,30.86,33.61,30.86,33.61l-93.66,47.2c0,0-45.02-2.94-43.21-53.44l106.01-30.03"/>
		<path class="st4" d="M118.75,106.24l-1.96,48.08c0,0-0.34,24.32,13.33,33.63c13.67,9.31,23.94,12.51,30.99,12.5"/>
		<path class="st4" d="M135.33,101.64l-1.96,48.08c0,0-1.75,21.39,14.13,31.89c13.8,9.13,22.6,10.77,29.65,10.76"/>
		<path class="st4" d="M154.22,96.51l-1.96,48.08c0,0-0.17,18.39,13.21,28.07c13.4,9.7,22.6,10.77,29.65,10.76"/>
		<path class="st4" d="M171.47,91.8l-0.88,44.42c0,0-1.24,18.01,12.13,27.69c13.4,9.7,22.6,10.77,29.65,10.76"/>
		<path class="st4" d="M188,87.79l-0.79,39.62c0,0-1.74,17.55,9.41,26.87c12.7,10.61,22.67,13.43,29.73,13.42"/>
		<line class="st4" x1="100.39" y1="124.39" x2="205.57" y2="94.66"/>
		<line class="st4" x1="99.94" y1="141.66" x2="205.57" y2="110.78"/>
		<line class="st38" x1="101.69" y1="176.24" x2="207.81" y2="139.59"/>
		<line class="st38" x1="109.45" y1="191.9" x2="213.63" y2="148.9"/>
		<line class="st38" x1="122.14" y1="202.91" x2="223.08" y2="156.69"/>
		<line class="st38" x1="152.26" y1="162.51" x2="149.39" y2="172.89"/>
		<line class="st38" x1="145.65" y1="165.01" x2="157.01" y2="169.14"/>
		<path class="st4" d="M124.68,172.39c0.34-0.39,11.81,4.74,12.5,4.64"/>
		<g>
			<g>
				<path class="st6" d="M132.74,171.08c-0.18,3.37-1.5,6.62-3.73,9.16c-0.38,0.43,0.25,1.07,0.64,0.64c2.39-2.73,3.8-6.18,3.99-9.8
					C133.67,170.5,132.77,170.51,132.74,171.08L132.74,171.08z"/>
			</g>
		</g>
		<g>
			<g>
				<path class="st6" d="M126.64,173.28c3.59,1.85,7.27,3.54,11.01,5.06c0.54,0.22,0.77-0.65,0.24-0.87
					c-3.67-1.5-7.27-3.16-10.79-4.97C126.58,172.24,126.13,173.02,126.64,173.28L126.64,173.28z"/>
			</g>
		</g>
		<g>
			<g>
				<path class="st6" d="M161.34,159.33c2.05,0.39,4.08,0.89,6.08,1.5c1,0.31,1.99,0.64,2.97,1c0.94,0.34,1.88,0.64,2.89,0.62
					c0.58-0.01,0.58-0.91,0-0.9c-1.08,0.03-2.07-0.38-3.07-0.73c-0.91-0.33-1.83-0.63-2.76-0.91c-1.93-0.58-3.89-1.06-5.87-1.44
					C161.02,158.36,160.77,159.22,161.34,159.33L161.34,159.33z"/>
			</g>
		</g>
		<g>
			<g>
				<path class="st6" d="M169,156.26c-1.43,3.45-2.86,6.9-4.29,10.34c-0.22,0.53,0.65,0.77,0.87,0.24c1.43-3.45,2.86-6.9,4.29-10.34
					C170.09,155.97,169.22,155.74,169,156.26L169,156.26z"/>
			</g>
		</g>
		<g>
			<g>
				<path class="st6" d="M180.06,153.48c1.76,0.02,3.18,1.39,4.88,1.72c1.95,0.38,4.04,0.39,6.02,0.45c0.58,0.02,0.58-0.88,0-0.9
					c-1.04-0.03-2.07-0.08-3.11-0.15c-1.01-0.07-2.06-0.09-3.05-0.35c-1.65-0.43-2.98-1.65-4.74-1.67
					C179.48,152.58,179.48,153.48,180.06,153.48L180.06,153.48z"/>
			</g>
		</g>
		<g>
			<g>
				<path class="st6" d="M187.39,149.71c-0.84,0.2-1.31,0.96-1.77,1.63c-0.56,0.83-1.09,1.69-1.58,2.56
					c-0.97,1.74-1.79,3.56-2.47,5.43c-0.2,0.55,0.67,0.78,0.87,0.24c0.62-1.69,1.36-3.34,2.22-4.92c0.43-0.78,0.89-1.55,1.37-2.3
					c0.39-0.6,0.85-1.59,1.6-1.77C188.19,150.44,187.95,149.57,187.39,149.71L187.39,149.71z"/>
			</g>
		</g>
		<g>
			<g>
				<path class="st6" d="M146.12,147.04c-1.55,4.2-3.74,8.16-6.48,11.7c-0.35,0.45,0.28,1.09,0.64,0.64
					c2.84-3.67,5.1-7.74,6.71-12.1C147.19,146.73,146.32,146.5,146.12,147.04L146.12,147.04z"/>
			</g>
		</g>
		<g>
			<g>
				<path class="st6" d="M138.19,151.66c3.31,2.07,6.84,3.77,10.52,5.08c0.55,0.19,0.78-0.67,0.24-0.87
					c-3.61-1.28-7.06-2.96-10.31-4.99C138.15,150.58,137.7,151.35,138.19,151.66L138.19,151.66z"/>
			</g>
		</g>
		<g>
			<g>
				<path class="st6" d="M157.61,145.54c3.78,1.83,7.63,3.53,11.53,5.1c0.54,0.22,0.77-0.65,0.24-0.87
					c-3.83-1.54-7.6-3.21-11.31-5.01C157.54,144.51,157.08,145.29,157.61,145.54L157.61,145.54z"/>
			</g>
		</g>
		<g>
			<g>
				<path class="st6" d="M165.53,142.25c-1.81,3.37-3.8,6.64-5.96,9.8c-0.33,0.48,0.45,0.93,0.78,0.45c2.16-3.16,4.14-6.43,5.96-9.8
					C166.58,142.2,165.81,141.74,165.53,142.25L165.53,142.25z"/>
			</g>
		</g>
		<g>
			<g>
				<path class="st6" d="M173.73,139.96c4.03,1.49,8.11,2.86,12.22,4.11c0.56,0.17,0.79-0.7,0.24-0.87
					c-4.11-1.25-8.19-2.62-12.22-4.11C173.43,138.89,173.19,139.76,173.73,139.96L173.73,139.96z"/>
			</g>
		</g>
		<g>
			<g>
				<path class="st6" d="M181.43,137.45c-0.54,0.49-0.97,1.09-1.39,1.69c-0.49,0.7-0.99,1.4-1.48,2.1c-0.99,1.4-1.98,2.81-2.97,4.21
					c-0.33,0.47,0.45,0.92,0.78,0.45c0.96-1.36,1.92-2.72,2.88-4.08c0.48-0.68,0.96-1.36,1.44-2.04c0.42-0.6,0.84-1.2,1.38-1.7
					C182.5,137.69,181.86,137.06,181.43,137.45L181.43,137.45z"/>
			</g>
		</g>
		<g>
			<g>
				<path class="st6" d="M108.55,179.9c3.34,2.77,7.83,3.28,11.45,5.56c0.49,0.31,0.94-0.47,0.45-0.78c-3.54-2.22-8-2.71-11.26-5.42
					C108.75,178.89,108.11,179.53,108.55,179.9L108.55,179.9z"/>
			</g>
		</g>
		<g>
			<g>
				<path class="st6" d="M115.87,176.59c-2,3.23-3.65,6.67-4.94,10.25c-0.2,0.55,0.67,0.78,0.87,0.24
					c1.26-3.51,2.89-6.86,4.85-10.03C116.95,176.55,116.17,176.1,115.87,176.59L115.87,176.59z"/>
			</g>
		</g>
		<path class="st35" d="M111.09,99.43c5.12-1.45,9.14-7.07,9.14-14.56c0-8.55-5.04-15.49-11.23-15.49c-5.15,0-9.28,4.9-10.61,11.41
			l2.64-0.58c1.27-4.45,4.31-8.07,7.87-8.07c4.7,0,8.51,5.46,8.51,12.2c0,5.75-2.78,10.57-6.52,11.85L111.09,99.43z"/>
		<path class="st35" d="M151.18,89.71c5.12-1.45,9.14-7.07,9.14-14.56c0-8.55-5.04-15.49-11.23-15.49c-5.15,0-9.28,4.9-10.61,11.41
			l2.64-0.58c1.27-4.45,4.31-8.07,7.87-8.07c4.7,0,8.51,5.46,8.51,12.2c0,5.75-2.78,10.57-6.52,11.85L151.18,89.71z"/>
		<path class="st35" d="M189.85,80.18c5.12-1.45,9.14-7.07,9.14-14.56c0-8.55-5.04-15.49-11.23-15.49c-5.15,0-9.28,4.9-10.61,11.41
			l2.64-0.58c1.27-4.45,4.31-8.07,7.87-8.07c4.7,0,8.51,5.46,8.51,12.2c0,5.75-2.78,10.57-6.52,11.85L189.85,80.18z"/>
	</g>
</g>
<g id="Capa_63">
</g>
</svg>
