<svg width="101" height="101" viewBox="0 0 101 101" fill="none" xmlns="http://www.w3.org/2000/svg">
<ellipse cx="50.9315" cy="50.4993" rx="49.9618" ry="49.7024" fill="#3B86FF"/>
<path d="M67.7685 64.038L70.0937 61.8839C73.1618 59.0417 74.8864 55.1819 74.8864 51.1564V33.9747C74.8864 32.267 73.3965 30.8829 71.5584 30.8829C69.7991 30.8829 68.3621 32.1525 68.2423 33.7587V30.8236C68.2423 29.2607 67.0295 27.8815 65.3618 27.6794C63.4043 27.4425 61.7282 28.7877 61.5983 30.5282V27.8966C61.5983 26.339 60.2402 24.8801 58.5702 24.7446C56.5973 24.5843 54.9424 26.0244 54.9424 27.8242V30.5282C54.8129 28.7877 53.1368 27.4425 51.1793 27.6794C49.5112 27.8815 48.2988 29.2611 48.2988 30.8236V46.6412C48.2988 47.1792 47.4705 47.2721 47.3326 46.7496L46.4523 43.4123C46.0234 41.7884 44.3301 40.6911 42.5562 40.9726C40.6697 41.2721 39.4216 42.9565 39.7915 44.699L41.5341 52.9083C42.1612 55.8639 43.7224 58.5781 46.0185 60.7052L49.616 64.038V76.2638H67.7685V64.038Z" fill="#FCCD9D"/>
<path d="M46.5098 42.7988L46.5071 44.5688C46.5036 46.9046 47.5054 49.1454 49.291 50.7968L56.9122 57.8454C57.6699 58.5462 58.8977 58.5462 59.6554 57.8454C60.3803 57.175 60.4095 56.1065 59.7461 55.4017L61.0482 56.606C61.7417 57.247 62.8532 57.3509 63.6303 56.7978C64.5419 56.149 64.6361 54.9583 63.9174 54.1949L65.0851 55.2745C65.7759 55.9134 66.9825 55.9944 67.7309 55.4135C68.6151 54.7275 68.6584 53.5057 67.8601 52.7673L66.6605 51.6579C67.4859 52.3227 68.7734 52.2355 69.4753 51.3924C70.0729 50.6737 69.9605 49.6457 69.2675 49.0047L62.2512 42.5153C62.0124 42.2944 62.3123 41.941 62.6011 42.1026L64.4442 43.1363C65.3412 43.639 66.5256 43.4439 67.132 42.6523C67.7769 41.8105 67.5438 40.6434 66.6185 40.0699L62.2588 37.366C60.6895 36.3924 58.842 35.8741 56.952 35.8762L53.9913 35.8803L41.9382 24.7332L26.9756 24.7324L46.5098 42.7988Z" fill="#FCD8B2"/>
<path d="M74.9296 46.9199C74.314 46.9199 73.8143 47.389 73.8143 47.9678V51.1708C73.8143 54.9468 72.2472 58.4949 69.4009 61.1616L67.1005 63.3167C66.8905 63.5132 66.7725 63.7801 66.7725 64.0584V76.2899C66.7725 76.8687 67.2722 77.3378 67.8878 77.3378C68.5038 77.3378 69.0031 76.8687 69.0031 76.2899V64.4935L70.9759 62.6454C74.2452 59.5828 76.0454 55.508 76.0454 51.1708V47.9678C76.0449 47.389 75.5457 46.9199 74.9296 46.9199V46.9199Z" fill="black"/>
<path d="M74.8857 42.625C74.5805 42.625 74.2817 42.7399 74.0661 42.9395C73.8506 43.1396 73.7266 43.4163 73.7266 43.6986C73.7266 43.9812 73.8506 44.258 74.0661 44.4576C74.2817 44.6572 74.5805 44.7721 74.8857 44.7721C75.1904 44.7721 75.4892 44.6572 75.7052 44.4576C75.9203 44.258 76.0448 43.9812 76.0448 43.6986C76.0448 43.4163 75.9207 43.1396 75.7052 42.9395C75.4892 42.7399 75.1904 42.625 74.8857 42.625Z" fill="black"/>
<path d="M26.9765 23.6602C26.6718 23.6602 26.3725 23.7746 26.157 23.9747C25.9414 24.1743 25.8174 24.4511 25.8174 24.7337C25.8174 25.016 25.9414 25.2927 26.157 25.4924C26.3725 25.692 26.6718 25.8073 26.9765 25.8073C27.2812 25.8073 27.5805 25.6924 27.796 25.4924C28.0125 25.2927 28.1356 25.016 28.1356 24.7337C28.1356 24.4511 28.0125 24.1743 27.796 23.9747C27.5805 23.7746 27.2812 23.6602 26.9765 23.6602V23.6602Z" fill="black"/>
<path d="M68.5163 56.0568C69.0965 55.5195 69.4165 54.8053 69.4165 54.0456C69.4165 53.6307 69.3205 53.2302 69.1394 52.8641C69.436 52.7298 69.7139 52.55 69.9599 52.3223C71.1579 51.2133 71.1579 49.4089 69.9599 48.2998L65.7911 44.4424C66.624 44.3359 67.4064 43.9215 67.9211 43.2417C68.4053 42.602 68.5867 41.8263 68.4318 41.0584C68.2765 40.2906 67.8051 39.6279 67.1037 39.1926L62.7414 36.4856C62.7251 36.4753 62.7083 36.4659 62.6919 36.4561V30.515C62.8065 29.4854 63.7491 28.6798 64.8914 28.6798C66.1111 28.6798 67.1028 29.598 67.1028 30.7263V35.7169C67.1028 36.2959 67.6104 36.7653 68.2358 36.7653C68.8615 36.7653 69.3687 36.2959 69.3687 35.7169V33.7486C69.4833 32.7191 70.426 31.9135 71.5682 31.9135C72.7879 31.9135 73.7796 32.8317 73.7796 33.96V39.5665C73.7796 40.1456 74.2872 40.6149 74.9126 40.6149C75.5383 40.6149 76.0455 40.1456 76.0455 39.5665V33.96C76.0455 31.6752 74.0372 29.8167 71.5682 29.8167C70.7618 29.8167 70.0051 30.0161 69.3505 30.363C69.151 28.2478 67.2281 26.583 64.8918 26.583C64.0696 26.583 63.2986 26.7898 62.6357 27.1494C62.2958 25.1746 60.4433 23.6602 58.215 23.6602C55.9863 23.6602 54.1338 25.1746 53.7939 27.1494C53.1309 26.7902 52.3605 26.583 51.5378 26.583C49.8981 26.583 48.4354 27.4144 47.6557 28.6655L42.5937 23.9812C42.1512 23.5717 41.4342 23.5717 40.9917 23.9812C40.5491 24.3908 40.5491 25.0546 40.9917 25.4637L53.0367 36.6105C53.2491 36.807 53.5372 36.9176 53.8377 36.9176H53.8395L56.8024 36.9135H56.8143C58.4814 36.9135 60.0945 37.3677 61.4793 38.2269L65.8415 40.9339C66.0332 41.0527 66.1615 41.2337 66.204 41.443C66.2465 41.6527 66.1969 41.8644 66.0646 42.0393C65.8083 42.3775 65.3087 42.475 64.9272 42.2608L63.0415 41.2026C62.4179 40.8528 61.639 40.9847 61.1894 41.5155C60.7398 42.0462 60.7876 42.7773 61.3027 43.2539L68.3575 49.7823C68.6721 50.0739 68.6721 50.5482 68.3575 50.8394C68.0663 51.1088 67.6069 51.1285 67.2905 50.9L63.6022 47.4873C63.1597 47.0782 62.4427 47.0782 62.0002 47.4873C61.9993 47.4881 61.9988 47.4885 61.9984 47.489C61.9971 47.4902 61.9962 47.491 61.9953 47.4918C61.5527 47.9014 61.5527 48.5652 61.9953 48.9743L65.6127 52.3223C65.6592 52.3653 65.707 52.4058 65.7557 52.4456L66.9138 53.5173C67.0661 53.6586 67.1502 53.8462 67.1502 54.0456C67.1502 54.2455 67.0661 54.433 66.9134 54.5743C66.5987 54.8655 66.0863 54.8655 65.7712 54.5743L64.6134 53.503C64.5705 53.4579 64.5267 53.4133 64.4802 53.3703L60.8628 50.0227C60.4203 49.6136 59.7029 49.6136 59.2603 50.0227C59.2594 50.0236 59.259 50.0244 59.2581 50.0252C59.2572 50.026 59.2563 50.0264 59.2554 50.0272C58.8129 50.4368 58.8129 51.1006 59.2554 51.5102L62.9437 54.9232C63.1906 55.2161 63.169 55.6407 62.8778 55.9102C62.5631 56.2014 62.0502 56.2014 61.7355 55.9102L60.4397 54.7111C60.3968 54.6656 60.353 54.6214 60.3065 54.5788L58.123 52.5582C57.6804 52.1486 56.963 52.1486 56.5205 52.5582C56.5196 52.559 56.5187 52.5598 56.5178 52.5606C56.5174 52.5615 56.5165 52.5619 56.516 52.5627C56.0735 52.9718 56.0735 53.6357 56.516 54.0452L58.77 56.1314C58.8806 56.262 58.9408 56.4213 58.9408 56.59C58.9408 56.7895 58.8567 56.9771 58.704 57.1183C58.3894 57.4099 57.8769 57.4095 57.5618 57.1183L49.9361 50.0617C48.3739 48.6156 47.4795 46.6138 47.4826 44.5694L47.4853 42.7973C47.4857 42.5188 47.3667 42.2514 47.1534 42.0544L45.5093 40.533C45.5093 40.5326 45.5088 40.5322 45.5084 40.5322L30.8422 26.9598C30.3996 26.5502 29.6827 26.5502 29.2401 26.9598C28.7976 27.3689 28.7976 28.0328 29.2401 28.4423L41.7613 40.0293C40.7363 40.2951 39.8539 40.8782 39.244 41.7022C38.547 42.6433 38.2943 43.7782 38.5329 44.8974L40.2841 53.1151C40.9607 56.2894 42.6269 59.1746 45.1021 61.459L48.385 64.4879V76.2903C48.385 76.8694 48.8922 77.3387 49.5179 77.3387C50.1433 77.3387 50.6509 76.8694 50.6509 76.2903V64.0526C50.6509 63.7741 50.5309 63.5071 50.3181 63.3105L46.7024 59.974C44.5467 57.9853 43.0965 55.4732 42.5074 52.7093L40.7563 44.492C40.6363 43.9297 40.7633 43.36 41.1134 42.8874C41.463 42.4148 41.9919 42.0999 42.6013 42.0004C42.9354 41.9455 43.2695 41.9594 43.5939 42.0405L44.0913 42.1855L45.2194 43.2294L45.2172 44.5661C45.2132 47.1638 46.3493 49.7074 48.3345 51.5442L49.8184 52.9173L55.9602 58.6013C56.5594 59.1558 57.3467 59.433 58.1336 59.433C58.9209 59.433 59.7082 59.1558 60.3074 58.6013C60.5353 58.39 60.7225 58.1516 60.8663 57.8936C61.3155 58.1139 61.8116 58.2245 62.3077 58.2245C63.0946 58.2245 63.8819 57.9472 64.4811 57.3927C64.7272 57.1646 64.9219 56.9074 65.0671 56.633C65.4711 56.803 65.907 56.8886 66.3434 56.8886C67.1298 56.8886 67.9171 56.6113 68.5163 56.0568V56.0568ZM49.3834 30.2639C49.6113 29.3486 50.5031 28.6798 51.5382 28.6798C52.6804 28.6798 53.6235 29.4858 53.7377 30.5154V34.2937L49.3834 30.2639ZM56.7993 34.8167L56.0151 34.8179V30.7263C56.0151 30.6304 56.0106 30.5358 56.0036 30.4416V27.8034C56.0036 26.6752 56.9953 25.757 58.215 25.757C59.4342 25.757 60.426 26.6752 60.426 27.8034V30.4404C60.4194 30.535 60.4145 30.63 60.4145 30.7263V35.3974C59.2674 35.0153 58.053 34.8167 56.8143 34.8167C56.8095 34.8167 56.8041 34.8167 56.7993 34.8167V34.8167Z" fill="black"/>
</svg>
