<?xml version="1.0" encoding="UTF-8"?>
<svg fill="none" viewBox="0 0 600 600" xmlns="http://www.w3.org/2000/svg">
<path d="m589.38 206.62c2.564 2.199 5.127 3.665 7.325 6.23 1.465 1.833 2.93 4.032 3.296 9.529-1.099 2.199-3.296 2.565-5.494 2.565-1.831-0.366-6.958-1.099-6.958 1.833 0 1.099-1.099 1.466-1.831 0.733-3.297-3.299-9.157 0-13.185 0-2.198 0-4.029-0.367-5.86-1.833-1.099-0.733-2.564-1.466-4.029-1.099-0.732 0.366-1.465 0.733-1.831 1.466 1.465 0 3.296 0 4.395 1.466 0.732 0.733 1.099 1.832 1.099 2.932 1.465 0.366 2.563 2.199 2.93 3.664 0.366 1.833 0.366 3.665 0.366 5.131 0 1.833 0.366 4.032 0.366 6.23 0 0.733-0.732 1.1-1.465 0.733-3.971-2.528-8.654 0.285-12.295 2.472l-0.157 0.094c-4.029 2.565-8.057 5.497-12.086 8.062-5.494 3.299-14.65 9.896-20.51 5.131-1.098 2.566-5.86 3.299-8.423 4.032-2.93 0.733-4.395 3.664-5.86 6.23-1.099 2.199-2.564 4.031-3.662 5.864 1.465 0 2.93 0.366 3.662 1.465 1.099 1.466 0.732 3.299-0.366 4.765-0.733 1.099-1.465 1.832-0.367 2.932 0.733 0.733 1.465 1.099 1.832 2.199 0.366 1.832-0.733 3.664-2.198 4.764-1.099 0.733-2.197 1.466-2.93 2.565-0.732 0.733-0.732 1.833-1.099 2.932-0.732 1.833-1.098 3.665-2.563 4.764-1.831 1.466-3.663 1.1-5.494 1.833-1.465 0.733-1.465 2.199-1.831 3.665l-1.099 2.199c-1.465 2.565-5.86 5.13-5.86 8.429v1.099c0 1.1-1.831 1.466-2.197 0.367v-1.466c-0.733-6.597-2.197-12.827-4.029-19.057-1.098-2.566-2.197-5.498-2.93-8.063-0.366-2.199-0.366-4.031 1.099-5.497 0.732-1.1 1.465-1.833 2.197-2.566h1e-3c1.098-0.733 1.098-1.832 1.465-3.298 0.366-2.566 2.197-3.298 4.028-4.764 9.156-5.864 15.749-14.293 21.975-22.722-1.099-1.833-1.099-3.665 0-5.131-1.465-0.367-3.297 1.832-4.395 2.565-1.099 1.1-2.564 1.833-4.029 2.199-1.465 0.367-2.564-0.366-3.662-1.466-1.099-0.733-1.465-1.099-2.93-0.733-1.099 0-2.198 0.733-2.93 1.1-2.93 1.466-5.494 3.664-7.325 6.23-0.732 1.099-1.465 2.932-2.197 4.398-0.733 1.099-1.099 2.565-1.832 4.031-1.465 2.565-4.028 3.665-6.958 3.298-1.465-0.366-2.564-0.733-4.029-1.466-1.099-0.366-3.296-2.565-4.761-2.198-0.733 0.366-1.099 1.465-1.831 1.832-0.733 0.366-1.099 0.733-1.465 0.733h-2.93c-2.198-0.367-4.761-1.833-6.959-1.466-1.465 0-2.197 1.832-3.296 2.565s-2.197 0.733-3.662 0.733c-2.198-0.366-6.959-3.298-8.79-0.733-0.366 0.367-1.099 0.733-1.465 0.367-4.395 6.963-9.889 13.193-16.481 17.591l-5.494 3.298c-1.465 0.733-3.662 1.466-4.761 2.932-1.831 2.199 0 4.032 0 6.231 0 0.732 0 1.099-0.366 1.832 1.099 0 1.831-0.367 2.564-1.1 0.366-0.366 1.098-0.366 1.465 0.367 0.732 1.099 1.098 2.199 1.831 3.298l2.563-2.565s0.733-0.367 1.099 0c0.366 0.366 1.099 0.733 1.465 1.466v-1.1c0-0.733 0.366-1.466 1.099-1.466 2.564-0.366 4.395 1.466 5.493 3.665 1.099 2.566 0.733 6.231 3.297 8.063 0.366 0.366 0.732 1.099 0.366 1.466-1.465 3.298-2.198 6.597-1.831 9.895 0.366 2.932 1.465 5.497-0.367 8.063-1.098 1.832-2.563 3.298-3.662 5.497l-2.197 6.597c-1.465 4.397-4.029 7.696-8.058 10.261-2.197 1.466-4.395 2.565-6.226 4.764-1.831 1.833-2.93 4.398-4.761 6.231-2.564 2.931-6.959 5.13-10.621 3.664-1.465 2.199-2.93 4.765-3.662 7.697-0.733 2.199-1.465 4.031-3.297 5.497-0.732 0.733-1.831 1.099-2.563 1.832 0 0.733 0 1.1-0.367 1.833-0.732 1.466-0.732 2.199 0 3.298 0 0.367 0.367 0.367 0.367 0.733 0 0.367 0.366 0.367 0.732 0.733l0.733 0.733c1.098 0.366 1.831 1.099 2.93 1.466 1.098 0.733 2.197 1.466 1.831 2.932 0 0.733-0.733 1.099-1.099 1.466-0.732 0.733-1.099 1.466-1.099 2.565 0 1.466-0.366 2.932-1.465 3.665-0.732 0.733-1.831 0.366-2.563 0.733-0.733 0.366-1.099 1.099-1.832 1.832-1.831 1.466-5.127 0-5.493-2.199h-1.099c-0.732-0.366-1.465-0.733-1.099-1.466 1.465-4.397 1.465-8.795 0-13.193-1.831 0.733-4.028 0-4.395-1.832-0.366-1.466 0.367-3.299-0.366-4.765-0.366-1.099-1.099-2.199-1.831-2.932-1.465 1.466-4.029 0.367-5.86 1.466-2.197 1.1-2.93 3.665-5.127 4.032-1.099 0-1.831-0.733-1.465-1.466 0.366-1.1 0.366-2.199 0.732-3.299-0.732 0.367-1.098 0.367-1.831 0.367-1.465 0-1.831 0-2.93 0.733-0.366 0.366-1.099 0.733-1.465 1.466-1.099 1.099-1.831 2.565-3.296 3.298-0.733 0.367-1.099 0.733-1.831 0.733h-1.465c1.465 1.1 2.197 2.932 2.563 4.764 1.099 0.367 2.198 0.367 3.297-0.366 0.366-0.733 0.732-1.099 1.465-1.466 0.732 0 1.465 0 1.831 0.367 0.366-0.733 1.099-1.833 1.465-1.833 0.732-0.366 1.465-0.366 2.197 0l3.296 2.199c0.733 0.366 1.465 0.733 1.832 1.832 1.098 4.765-12.453 5.864-9.889 10.262 0.733 1.099 1.831 1.466 2.564 2.565 0.366 1.1 1.099 2.199 1.099 3.299 0.366 1.099 0 2.199 0 3.298 0 0.733-0.733 1.466 0.366 2.199 0.732 0 1.098 0 1.465 0.366 1.831 0.733 2.93 2.199 2.197 4.032-0.366 1.466-1.831 2.199-3.296 2.565 1.099 0.733 1.831 1.1 1.831 2.566v0.733c0.733 0 2.198 0.366 2.198 0.366 0.732 0.733 1.098 1.832 0.732 2.565-0.366 1.466-1.465 2.932-2.564 4.032 0 0.366-0.366 0.733-0.732 1.099 0 0.367-0.366 0.367-0.366 0.367l-1.099 1.099c-0.366 0.367-0.732 0.367-1.099 0-0.732 0.367-1.098 0.733-1.465 1.1-0.366 0.732-1.098 1.099-0.732 1.832 0 0.366 0.732 0.733 0.732 1.466 0.367 2.199-1.098 4.031-2.563 5.131-1.099 0.733-2.564 1.099-3.663 1.832s-1.831 1.466-2.563 2.565c-1.465 1.466-2.564 3.299-4.029 4.398-1.831 1.1-3.296 1.466-5.494 1.1-1.831 0-3.662-0.733-4.761 0.733-0.732 0.733-1.099 1.832-1.831 2.565-1.465 1.466-3.663 1.466-5.494 1.466-2.93 0.367-5.493 2.199-5.493 5.497 0 0.733-1.099 1.466-1.832 0.733-1.465-1.466-2.197-3.298-2.563-5.497-2.198 1.466-4.761 2.199-7.325 1.466-0.366 1.099-1.099 2.199-2.198 2.932-1.098 1.099-3.662 1.466-4.395 2.932-0.732 2.199 1.832 4.397 2.564 6.23 0.366 1.099 0.366 2.199 0.366 2.932 1.465 0 2.564 0.733 3.663 1.466 0.732 0.733 1.099 1.466 1.465 2.199 0.366 1.466 0.366 2.565 1.465 3.664 1.465 1.1 3.296 1.466 4.028 3.299 0.733 1.832 1.465 4.764 1.099 6.963-0.366 4.398-4.029 5.864-7.325 7.696-1.831 1.1-2.93 2.199-4.028 4.031-0.733 1.466-1.832 2.932-3.663 2.932-0.732 0-1.098-0.366-1.098-0.733l-0.367-0.366c-2.563-2.566-5.493-5.131-7.325-8.429-1.098 0-1.831 0-2.563-0.733-1.831 1.832-3.296 4.398-4.029 6.963-0.732 1.466-1.465 3.298-0.366 4.764 0.732 1.466 2.197 2.932 3.296 4.032 3.296 3.664 7.691 7.696 8.79 12.827 0.366 1.832 1.099 5.497-0.366 6.963-1.099 1.466-3.663 0.733-4.762 0-0.732-0.733-1.098-1.466-1.831-2.199-1.099-1.1-1.831-1.833-3.296-2.199-2.197-0.733-2.564-2.932-3.662-5.131-1.099-2.932-2.93-5.131-4.395-7.696-1.465-2.199-2.93-5.131-5.128-6.23-0.732-0.367-0.366-1.833 0.367-1.833 2.563-0.366 2.93-4.031 2.93-6.23v-5.497c0-1.833 0.366-3.665 0-5.131-0.367-1.832-2.198-2.199-3.297-3.298-1.098-0.733-1.831-1.466-2.563-2.566-1.099-1.832-1.832-3.664-2.198-5.497-2.564 1.833-5.493 2.932-8.79 2.932-1.098 0-1.465-1.1-0.732-1.832 2.93-3.665 0.366-8.063-1.831-11.361-1.465-1.833-2.564-4.032-4.029-5.864-1.099-1.833-2.197-3.299-4.395-3.665-0.732-0.367-0.732-1.099-0.732-1.466 0.366-1.099 0.366-2.199-0.367-3.298-2.563 2.932-6.226 3.665-10.254 3.665-2.564 0-4.029 0.732-5.494 2.931-1.099 1.466-1.465 3.299-2.197 4.765-0.733 1.466-1.465 2.932-2.93 4.031-1.832 1.466-4.029 1.466-5.86 2.565-3.296 1.466-5.494 4.765-9.156 5.498-0.733 2.199-3.297 3.298-5.494 2.565-0.366 6.23-1.099 12.46-2.197 18.691-0.367 2.199-1.099 4.398-2.564 5.863-1.099 0.733-2.198 1.1-3.296 1.466-1.465 0.367-3.663 0.733-4.029 2.566-0.366 1.099-1.831 1.466-2.197 0.366-3.297-9.895-8.058-19.423-10.988-29.685-1.465-5.131-2.563-9.895-2.93-15.026 0-2.199 0.367-5.131-0.732-6.963-1.831-2.932-5.128 0-6.593 1.466-0.366 0.366-1.098 0.366-1.464-0.367-0.367-1.099-1.099-1.832-1.465-2.931-0.733 0.733-1.465 1.099-2.198 1.832-0.366 0.367-1.099 0.367-1.465-0.366-1.099-1.833-1.831-4.032-2.93-5.864-0.366-1.1-0.732-2.199-1.465-2.932-0.732-0.733-1.831 0-2.563 0-3.297 0-5.128-2.932-7.692-4.398-5.493-2.932-12.452-1.099-18.312-2.932-3.296-1.099-6.592-2.932-10.254-4.031-3.663-1.1-6.959-2.565-10.621-3.298-4.395-1.1-10.988 0.366-13.551-4.765-0.7325-1.466-0.7325-3.298-2.5637-3.665-1.0987-0.366-2.5637 0.367-4.0287 0-1.0987 0-2.1974-1.099-2.5637-2.198-1.4649 1.099-1.8312 3.298-0.7325 4.397 0.7325 1.1 2.5637 1.1 3.6625 1.833 1.0987 0.366 1.8312 1.466 2.1974 2.565 1.465 2.932 2.5637 6.23 3.6624 9.162 0.3663 0.733 0.7325 1.833 1.0988 2.566 0.3662 0.733 0.7324 1.832 1.0987 2.565 1.465 1.832 3.2962-1.099 4.0287-2.199 0.3662-0.733 1.4649-0.366 1.8312 0.367 0.3662 2.199 3.6623-0.367 4.7613-0.733 0.366 0 1.099-0.367 1.831-0.367 0.366 0 1.099 0.367 1.465 0 0 0 0.366-0.366 0.366-0.733 1.465-2.565 4.029-2.199 5.128 0.367 0.732 1.466 0.366 4.031 2.563 3.665 1.099 0 2.198-0.733 3.663-0.733 1.098 0 2.197 0.733 2.563 1.832 1.099 1.832 1.832 3.298 4.029 3.665 0.733 0.366 0.733 1.099 0.733 1.466-0.367 1.099-0.733 1.832-1.465 2.565-0.367 0.367-0.367 0.367-0.733 0.367 0 0.366-0.366 1.099-1.099 0.733-0.366-0.367-1.465 3.298-1.831 3.664-0.732 0.733-1.099 1.1-1.831 1.1-2.564 4.398-7.325 8.429-10.987 12.094-1.831 1.832-3.663 4.031-5.86 5.497-2.198 1.466-4.3951 1.466-6.9588 2.199-2.9299 0.733-4.7611 2.565-6.9586 4.398-1.8312 1.466-4.0286 2.565-6.2261 3.298-2.5637 0.733-5.4936 1.466-8.0573 1.833-2.9299 0.366-5.8599 1.099-8.7898 1.099-0.7325 0-1.0987-0.733-0.7325-1.466 1.0987-2.199-0.3662-4.764-1.0987-6.963-0.7325-2.566-0.7325-4.031-0.3663-6.597 0-1.832-0.7325-2.932-1.8312-4.031-0.7325-0.733-1.4649-1.833-2.1974-2.932-1.8312-2.199-3.6625-4.398-5.1274-6.963-3.2962-4.764-6.2261-9.529-8.7898-14.293-1.0988-2.565-2.1975-4.764-3.6625-6.963-0.7324-1.1-1.8312-2.199-2.9299-2.932-0.7325-0.367-1.8312-0.733-2.9299-1.466-1.0988-0.733-2.1975-2.199-2.1975-4.031 0-0.733 0.3663-1.466 0.7325-2.199-0.7325-0.733-1.8312-1.1-3.2962-1.1-1.0987 0-1.465-1.099-0.7325-1.832 2.5637-3.299 0.7325-7.696-3.2961-8.063-0.7325 0-1.0988-0.733-1.0988-1.099-0.7325-0.367-0.7325-1.833 0.3663-2.566 1.0987-0.733 2.1974 0 2.9299-1.099 0.3663-1.1 0.3663-2.199 0.7325-2.932 0-1.099 0.3662-1.832 0.7325-2.565 0.3662-1.1 1.4649-1.833 2.1974-2.566 1.465-1.832 0.3663-4.398 0.3663-6.596 0-2.566 0.7325-4.032 1.8312-5.864 0.3662-0.367 0.7325-1.1-0.3663-1.466h-15.748c-2.5637 0.366-5.1274 0.366-7.6911-0.367-3.6624-1.099-6.9586-4.031-6.5923-7.696-1.8312 0-4.0287-0.733-4.3949-2.565-0.36624-1.466 0.36625-2.932 1.465-3.665 0 0-0.36623-0.366-0.36623-0.733-0.36624-0.366-1e-5 -1.099 0.36623-1.466 1.0987-0.733 2.5637-0.733 4.0287-0.733s3.2962 0.367 4.7612-0.366l2.1974-2.199c-1.465 0-1.465-2.199 0-2.199l7.6911-0.733c0.3662-1.466 1.8312-2.199 3.2962-2.565 2.1974-0.367 4.3949 0.366 6.5923-0.367 1.0988-0.366 1.465-1.466 2.5637-1.099 0.7325 0 1.465 0.366 1.8312 1.099 0.7325 1.099 0.7325 2.199 0.7325 3.298 2.93-0.366 5.4937 0.367 8.4236 1.1 4.3949 1.099 7.6911-0.367 11.354-2.199-1.8312-2.199-3.2962-4.764-2.5637-7.33-4.7611-1.832-10.255-4.764-9.5223-10.628 0 0 0-0.733 0.3663-0.733 0-0.366 0.3662-0.366 0.3662-0.366-0.7325-0.733-1.465-1.1-2.1975-1.833-0.7324-0.366-0.7324-1.099-0.3662-1.466 1.8312-1.466 3.2962-3.298 4.7611-4.764l-2.1974-2.198c1.8312-1.833 5.8599-6.231 7.3249-9.163 1.465-2.931 3.052-8.551 3.6624-10.994l1.8312-5.497 3.6624-3.665 3.6625-3.665 1.8312-1.832 1.8312-1.833c3.052-2.443 9.156-7.696 9.156-9.162 0-1.832-3.6624-5.497-3.6624-18.324 0-10.168 16.78-11.58 25.4-11.011-0.643-0.085-1.5944-0.522-1.5944-1.816 0-1.832 3.6627-12.827 16.481-16.492 12.819-3.665 18.312-10.994 21.975-20.156 3.662-9.162 20.143-14.66 21.974-14.66 1.465 0 5.237-3.665 6.94-5.497 0.733 0 2.582-0.733 3.315-0.733 1.465 0 3.296-1.1 4.029-2.566 0.732-1.466 0.732-3.665 1.831-5.497 1.099-1.466 2.93-2.565 4.028-4.398 1.465-2.199 1.832-4.398 1.832-6.597 0-1.465-0.733-3.664 1.098-4.764 1.099-0.366 2.564-0.733 3.663-0.366 1.099 0.366 2.564 1.466 2.93 2.565 0.366 0.733 0.366 1.466 0.366 2.199s-0.366 1.832 0 2.565c0.366 1.1 1.831 1.466 2.564 2.199 0.366 0.733 0.732 1.1 0.732 1.833 0 1.099 0 1.832-0.366 2.565 1.831 0.367 3.296 0 5.86-0.366-1.099-1.1-2.198-2.566-2.93-4.398-0.366-1.1-0.366-1.833-0.366-2.932 0-1.466 0.732-2.565 0.366-3.665-0.733-2.199-4.395-4.031-6.226-4.764-2.198-0.733-4.029-0.733-6.226-1.466-1.465-0.367-2.93-1.466-3.297-2.932-0.732-2.199 0.367-4.031 1.099-5.864 0.733-2.199-0.366-4.398-0.732-6.596-0.367-1.1-0.367-1.833 0-2.932 0-0.367 1.465-4.032 0-3.665-0.367 0-0.733-0.367-1.099-0.733-1.099-1.1-1.465-2.932-1.099-4.398 0.367-2.199 2.198-2.565 3.663-3.298 0.732 0 0.732-0.367 1.098-0.733v-4.032c0-1.099-0.366-1.832-0.366-2.565 0-1.832 0.733-3.665 1.831-5.131 0.367-0.366 1.099 0 1.465 0.367 0.733 0 1.099 1.099 0.367 1.832-0.367 0-0.733 0.367-0.733 0.733 0 0.733-0.366 1.466-0.366 2.199 0 1.1 0.366 2.199 0.732 3.298 0.367 1.1 0.733 1.833 0.733 2.932 0 1.1-0.366 2.199 0 3.299 0.366 2.199 3.296 4.031 5.127 5.497 1.099 0.733 1.831 1.099 2.93 1.832-0.732-1.466-2.197-2.932-3.662-4.031s-3.296-2.199-3.296-4.398c-0.367-1.832 1.098-3.298 2.93-2.932 1.098 0.367 1.831 1.1 2.929 1.466 0.367 0 1.465 0.367 1.465 0 0-0.366-1.098-1.832-1.098-2.199-0.367-0.366-0.367-0.733 0-1.099 1.098-0.733 2.197-0.733 3.296-0.367 0-0.366 0.366-0.733 0.366-1.099 0-0.733 1.099-1.099 1.465-0.733 5.127 2.565 10.621 5.131 15.749 7.696 0.732 0 0.732 1.1 0.366 1.466-0.733 1.1-1.831 2.565-2.93 3.665 1.099 1.099 1.831 2.932 1.465 4.398-0.366 1.832-1.099 3.665 0 5.497 0.366 0.733 1.099 1.466 1.099 2.199 3.296-0.367 2.929-6.597 3.296-9.162 0.366-3.299 1.098-7.696-1.099-10.262-1.831-1.832-4.395-3.298-5.86-5.497-1.099-1.466-1.831-3.298-1.465-5.131-2.197 0-4.029-1.099-4.761-2.932-1.099-2.565 0.366-5.497 2.93-6.596 0.732-0.367 1.465-0.367 2.197-0.367 1.099 0 1.832 0.367 2.93-0.733 1.099-1.466 2.198-2.199 3.663-2.565 2.93-0.367 7.691 1.099 9.156-1.833 0-0.366 0.732-0.366 1.099-0.366 1.831 0.733 2.563 2.932 1.464 4.398 0.733 0 1.099-0.367 1.465-0.733 0.367-0.367 0-1.466 0-2.199-0.366-1.1-0.732-2.199-1.098-3.665-0.367-1.466 0-2.565-0.733-3.665-0.366-0.733-1.465-1.099-1.831-1.832-1.099-1.466-0.732-2.932 0.366-4.032 0.366-0.366 1.099-0.733 1.831-1.099 0 0 3.297-1.099 2.198-1.832-1.099-0.367-0.733-1.833 0.366-1.833 2.564-0.366 4.029-2.565 5.494-4.031s3.296-2.5656 5.127-3.2985c1.831-0.733 3.663-1.0995 5.86-1.466 1.465-0.3665 3.296-0.7329 4.761-1.8324l-0.732-0.733c-1.099-0.3664-0.733-1.8324 0.366-1.8324 3.662 0 10.255 2.9319 12.086-1.4659 0.366-0.733 1.831-0.3665 1.831 0.3665 0.366 2.5654 3.663 0.3665 4.395-0.3665 1.099-0.733 2.198-1.4659 3.663-1.4659 0.732 0 1.098 0 1.464 0.3664-0.366-0.3664-0.366-0.7329-0.732-1.0994-0.732-1.466-1.831-2.5654-2.564-4.0313-0.732-0.3665 0-1.466 0.733-1.466 0.732 0.3665 1.099 0.3665 1.831 0.3665 0-0.733 0.732-1.0994 1.099-1.0994 1.831 0 3.296 0.3664 4.761 0.3664 0-1.8324-0.366-4.3978 0.366-6.2302 0.733-1.8324 2.564-2.1989 3.663-3.6648 1.831-2.5654 2.563-5.8638 5.127-7.6962 2.93-2.1989 6.959-1.4659 8.423 1.8324 0.733 1.466 0.733 3.2984 0 4.7643-0.366 1.0995-0.732 1.466-1.464 2.1989-0.367 0.3665-1.099 0.733-1.465 1.466 0.732 0 1.465 0 3.296 1.4659 1.831 0.733 4.395 3.6648 6.226 2.5654 0.732-0.733 1.831 0.733 1.099 1.4659-1.465 1.8324-2.93 3.6649-3.663 5.8638 1.465-0.3665 3.296-2.5654 4.395-2.9319s7.691-0.3665 6.592-2.9319c-0.366-0.3665 0-1.4659 0.733-1.4659 3.296 0 6.592 1.0994 9.522 2.9319 1.099 0.7329 2.564 1.8324 3.296 2.9318 0.367 0.3665 0.367 0.733 0.367 1.466-0.367 0.7329-0.733 1.0994-0.733 1.8324 0.366 1.4659 3.296 2.5654 4.395 3.6648 1.465 1.466 1.465 3.2984 0.366 5.1308-1.465 2.1985-3.662 3.6645-4.761 6.2305-1.099 2.199-1.831 5.13-2.93 7.329-1.465 2.199-3.296 3.665-5.493 4.765-2.198 1.466-4.762 2.199-5.86 5.13-0.367 1.1-0.733 2.566-1.465 3.665-0.733 1.466-2.198 1.833-3.296 2.932-1.465 1.1-2.564 2.566-3.297 4.031 1.832-1.465 4.395-2.198 7.325-2.565 1.465 0 3.296 0 4.029-1.466 0.732-0.733 0-1.832 0.366-2.932 0.366-1.466 1.831-2.199 3.296-2.199 1.099 0 1.831 0.367 2.564 0.733 1.465 0.733 2.564 0.733 4.029 0s2.93-1.099 4.761-0.366c1.099 0.733 1.831 1.832 1.465 3.298 0 0.733-1.099 1.833-1.831 2.566 1.465-0.733 2.929-1.833 4.394-2.932 1.832-1.1 3.663-1.466 5.86-1.466 2.198 0 4.395 0.733 6.593 1.466 1.831 0.366 3.296 1.099 2.93 2.932 0 0.366-0.367 0.733-0.367 1.099 0.367 0.733 1.465 0.733 2.198 1.1 1.099 0.366 2.564 1.099 3.662 1.465 1.831 0.733 4.395 2.199 6.593 2.199 1.098 0 1.831-0.366 1.098-1.832-0.366-0.733-0.732-1.466-0.732-2.199 0.366-1.099 0.732-1.832 1.831-2.199-0.366-3.298 4.029-4.398 6.592-3.665 1.099 0.367 1.832 0.733 2.93 1.1 1.099 0.366 2.198 0.366 3.297 0.733 1.831 0.366 2.929 1.466 4.028 2.932 1.465 1.832 2.564 2.198 4.761 2.565 1.465 0.366 2.564 0.733 3.297 1.832 1.464 2.199 1.098 6.231-0.367 8.43-1.098 1.465-2.563 1.832-4.028 1.465-0.733 0-1.832-0.733-2.564-0.366-1.465 0.733 0.366 1.832 1.099 2.199 2.563 1.832 4.761 4.398 6.226 7.33 0.732 1.465 1.098 3.298 1.465 4.764 0.366 1.466 0.732 4.031 2.197 4.764s3.296-0.366 4.395-1.466c1.465-1.466 1.831-3.665 2.198-5.497 0.366-1.832 0.366-4.031 1.098-5.864 0.733-1.099 2.198-1.099 3.296-0.733 1.465 0.367 2.564 1.466 3.663 2.566 0.732 0.366 3.296 2.565 4.029 0.733 0.366-0.733 0.732-0.733 1.465-0.733 2.929 0.366 6.226 1.099 9.156 1.466 0.732-1.1 1.831-1.833 3.296-1.833 0.366-1.832 0-3.665-1.831-5.131-0.367-0.366-0.367-0.733-0.367-1.099 0.367-1.1 1.465-1.833 2.564-2.199s4.395 0 3.662-1.466c-0.732-1.099-1.831-1.832-1.098-2.932 0.732-0.733 1.831-1.099 2.563-1.099 2.198 0 5.128 2.199 6.959 0.733 1.099-1.1 2.197-1.833 3.662-1.1 1.832 0.733 3.663 2.199 5.494 3.299 0.732 0.366 0.733 1.099 0.366 1.466-1.098 1.099-1.831 1.832-2.563 2.931l3.296 3.299c0 0.366 0.366 0.733 0 1.099 0 0.367-0.366 0.367-0.366 0.733 1.831-0.366 2.929-3.298 3.662-4.398 0.732-1.466 1.831-2.931 3.662-3.298 4.395-1.466 7.691 2.932 11.354 4.764 0.732 0 0.732 1.1 0.366 1.466-0.732 0.733-1.465 1.1-2.197 1.833 2.197 0.366 4.028 1.832 5.127 4.031 0.366 0.366 0.366 1.099 0.733 1.466 0.366 0.733 1.098 0.733 1.831 1.099 0.732 0.367 1.465 0.367 1.831 1.1 0.366 0.366 0.733 1.099 0.733 1.466 4.394 0.733 8.789 0 12.818-1.833 2.93-1.466 6.592-3.298 9.522-0.733 1.099 1.466 1.831 2.932 2.93 4.032 1.099 1.099 2.93 0.733 4.029 2.199s0.366 4.031 0.366 5.497v6.963c0.733 0.367 1.831 1.1 2.564 1.832 0.366-0.732 1.098-1.465 1.831-1.832 2.197-1.099 3.662-0.366 5.494 0.733 3.296 2.199 7.691-0.366 10.987-1.099 1.465-0.367 3.296-0.367 4.761 0.366 0.733 0.367 1.099 1.1 1.831 1.832 0.367 0.367 0.733 1.1 1.465 1.466 0.733 0.367 2.198-0.366 2.93-0.733 0.733-0.366 1.465 0.367 1.465 1.1s0.733 0.733 1.099 0.733c1.099 0 1.465-0.733 1.465-1.466 0.366-1.1 0-2.565-0.366-4.031-0.367-1.833-0.367-4.032 1.098-5.864 0 0 0.733-0.367 1.099 0 2.93 1.832 8.424 4.398 10.621 0 0.366-0.733 1.831-0.367 1.831 0.366 0.366 2.566 5.128 2.199 6.959 2.566 2.93 0.733 6.226 2.932 8.79 4.764 2.197 1.466 4.395 2.932 5.86 5.131 1.831 2.565 2.563 5.131 2.93 8.062 0 1.833 0.366 3.665 1.464 5.131 1.099 1.1 2.198 2.566 3.297 3.665 2.563 2.932 5.127 5.131 8.057 7.696z" fill="#F78F2D"/>
</svg>
