<?xml version="1.0" encoding="utf-8"?>
<!-- Generator: Adobe Illustrator 25.4.1, SVG Export Plug-In . SVG Version: 6.00 Build 0)  -->
<svg version="1.1" xmlns="http://www.w3.org/2000/svg" xmlns:xlink="http://www.w3.org/1999/xlink" x="0px" y="0px"
	 viewBox="0 0 297.27 273.12" style="enable-background:new 0 0 297.27 273.12;" xml:space="preserve">
<style type="text/css">
	.st0{fill:#3B86FF;stroke:#262262;stroke-miterlimit:10;}
	.st1{fill:#F2F2F1;stroke:#262262;stroke-miterlimit:10;}
	.st2{fill:#F2F2F1;stroke:#262262;stroke-linecap:round;stroke-linejoin:round;stroke-miterlimit:10;}
	.st3{fill:#3B86FF;}
	.st4{fill:none;stroke:#262262;stroke-miterlimit:10;}
	.st5{fill:#2AD575;stroke:#2A255C;stroke-miterlimit:10;}
	.st6{fill:#262262;}
	.st7{fill:#FF4D4E;}
	.st8{fill:#FFF000;}
	.st9{fill:#FFFFFF;}
	.st10{fill:#F78F2D;stroke:#262262;stroke-miterlimit:10;}
	.st11{fill:none;stroke:#FFF000;stroke-miterlimit:10;}
	.st12{fill:#FFFFFF;stroke:#262262;stroke-miterlimit:10;}
	.st13{fill:#CB84F0;stroke:#262262;stroke-miterlimit:10;}
	.st14{fill:#AD5D46;}
	.st15{fill:#7B3525;}
	.st16{fill:#F78F2D;}
	.st17{fill:#2AD575;}
	.st18{fill:none;stroke:#FF4D4E;stroke-miterlimit:10;}
	.st19{fill:none;stroke:#2AD575;stroke-miterlimit:10;}
	.st20{fill:none;stroke:#3B86FF;stroke-miterlimit:10;}
	.st21{fill:#577CBC;}
	.st22{fill:none;stroke:#2A255C;stroke-miterlimit:10;}
	.st23{clip-path:url(#SVGID_00000166669451461758200920000013237127041271148689_);}
	.st24{fill:none;stroke:#404440;stroke-miterlimit:10;}
	.st25{clip-path:url(#SVGID_00000125575722648254468440000005429121751544777132_);}
	.st26{fill:none;stroke:#000000;stroke-miterlimit:10;}
	.st27{fill:none;stroke:#7B3525;stroke-miterlimit:10;}
	.st28{fill:none;stroke:#000000;stroke-linecap:round;stroke-miterlimit:10;}
	.st29{fill:#F2F2F1;}
	.st30{fill:none;stroke:#2A255C;stroke-linecap:round;stroke-linejoin:round;stroke-miterlimit:10;}
	.st31{fill:none;stroke:#2A255C;stroke-linecap:round;stroke-miterlimit:10;}
	.st32{fill:none;}
	.st33{fill:#66DCCC;}
	.st34{fill:#F18D1B;stroke:#262262;stroke-miterlimit:10;}
	.st35{fill:#FF4D4E;stroke:#262262;stroke-miterlimit:10;}
	.st36{fill:#66DCCC;stroke:#262262;stroke-miterlimit:10;}
	.st37{fill:#FFFFFF;stroke:#262262;stroke-linejoin:round;stroke-miterlimit:10;}
	.st38{fill:none;stroke:#262262;stroke-linejoin:round;stroke-miterlimit:10;}
	.st39{fill:#FF376E;stroke:#262262;stroke-miterlimit:10;}
	.st40{fill:#E84448;stroke:#262262;stroke-miterlimit:10;}
	.st41{fill:#E63066;stroke:#262262;stroke-miterlimit:10;}
	.st42{fill:#3B86FF;stroke:#2A255C;stroke-miterlimit:10;}
	.st43{fill:#FFF000;stroke:#262262;stroke-miterlimit:10;}
	.st44{fill:#FFEA00;stroke:#262262;stroke-miterlimit:10;}
	.st45{fill:#2AD575;stroke:#262262;stroke-miterlimit:10;}
	.st46{fill:#FF4D4E;stroke:#2A255C;stroke-miterlimit:10;}
	.st47{fill:#FFEA00;stroke:#2A255C;stroke-miterlimit:10;}
	.st48{fill:#F18D1B;}
	.st49{opacity:0.36;fill:none;stroke:#F2F2F1;stroke-miterlimit:10;}
	.st50{fill:#CB84F0;stroke:#262262;stroke-linecap:round;stroke-linejoin:round;stroke-miterlimit:10;}
	.st51{fill:#FFFFFF;stroke:#262262;stroke-linecap:round;stroke-linejoin:round;stroke-miterlimit:10;}
	.st52{fill:none;stroke:#262262;stroke-linecap:round;stroke-linejoin:round;stroke-miterlimit:10;}
	.st53{fill:#2AD575;stroke:#262262;stroke-linecap:round;stroke-linejoin:round;stroke-miterlimit:10;}
	.st54{fill:#FFF000;stroke:#262262;stroke-linecap:round;stroke-linejoin:round;stroke-miterlimit:10;}
	.st55{fill:#2A255C;stroke:#262262;stroke-miterlimit:10;}
</style>
<g id="ECP">
	<g id="Capa_18">
	</g>
	<g id="Capa_19">
	</g>
	<g id="Capa_20">
	</g>
	<g id="Capa_20_copia">
	</g>
	<g id="Capa_21">
	</g>
	<g id="Capa_23">
	</g>
	<g id="Capa_22">
		<g id="Capa_24">
		</g>
	</g>
	<g id="Capa_26">
	</g>
</g>
<g id="Effective">
	<g id="Capa_36">
	</g>
	<g id="Capa_35">
	</g>
	<g id="Capa_38">
	</g>
	<g id="Capa_39">
		<g id="Capa_40">
		</g>
	</g>
	<g id="Capa_41">
	</g>
</g>
<g id="Condoms">
	<g id="Capa_42">
	</g>
	<g id="Capa_43">
	</g>
	<g id="Capa_44">
	</g>
	<g id="Capa_45">
	</g>
	<g id="Capa_46">
	</g>
	<g id="Capa_47">
	</g>
	<g id="Capa_48">
	</g>
	<g id="Capa_49">
	</g>
	<g>
		<g>
			<path class="st36" d="M192.15,68.53c0,0-1.8,0.02-2.95,3.55l-24.02,74.06c-0.64,5.98,4.33,6.11,4.33,6.11l0.52,3.69l3.38-2.75
				l1.21,4.57l3.22-3.16l0.87,4.57l3.56-3.09l0.81,4.43l3.29-3.43l0.66,4.16l4.45-2.55l0.34,4.23l4.1-3.09v4.3l4.7-2.82l0.6,3.96
				l4.16-2.49l0.67,4.1l3.56-2.75l0.81,3.96l4.1-2.35l0.87,4.37l3.09-2.89l1.01,4.3l4.16-2.69l1.14,4.23l3.36-2.62l0.6,3.9
				l4.01-2.69l0.83,4.03l2.37-2.71c4.94,0.31,5.4-2.47,5.4-2.47s23.3-68.67,25-73.92c1.7-5.25-2.01-6.64-2.01-6.64l-0.79-4.02
				l-4.01,3.19l-1.41-5.07l-3.99,3.19l-0.74-4.67l-3.76,3.44l-1.15-4.67l-3.85,3.27l-0.57-4.58l-3.36,2.95l-1.4-4.58l-4,3.11
				l-0.82-4.58l-4.01,3.27l-0.74-4.83l-3.27,3.19l-1.39-4.34l-3.52,3.11l-0.33-4.17L218,76.11l-1.23-4.58l-3.03,3.52l-0.98-4.42
				l-3.93,2.95l-1.25-5.04l-3.82,3.81l-0.57-3.81l-3.27,2.18l-1.47-3.85l-3.11,2.29l-0.82-3.68L192.15,68.53z"/>
			
				<ellipse transform="matrix(0.3125 -0.9499 0.9499 0.3125 33.5793 286.1247)" class="st36" cx="214.47" cy="119.86" rx="26.89" ry="24.15"/>
			<path class="st4" d="M229.97,98.23c0,0,17.2,12.39,8.89,31.68c-10.79,25.06-34.65,15.72-37.09,13.55"/>
		</g>
		<g>
			<path class="st12" d="M69.95,103.29c0,0-4.36,1.87-2.72,7.14c1.64,5.27,36.86,104.33,36.86,104.33s1.15,5.48,6.54,4.17l3.27,3.41
				l1.25-5.03l4.07,3.36l0.96-4.41l4.53,3.17l0.42-5.16l4.68,3.42l1.41-5.25l4.7,3.52l0.94-5.07l4.13,3.16l1.11-4.72l4.19,2.96
				l0.93-4.6l3.48,2.9l1.16-4.45l3.44,2.72l1.26-4.47l3.95,3.28l1-5.27l4.15,3.25l1.03-4.61l3.81,2.56l1.18-4.36l4.32,3.12
				l0.82-4.67l3.76,2.85l1.15-4.54l3.15,2.78l1.3-4.76c0,0,3.4-1.69,1.88-6.47l-39.88-104.5c-1.7-4.46-6.51-3.15-6.51-3.15
				l-3.49-3.53l-1.19,5.93l-4.26-3.76l-0.79,5.1l-4.64-3.69l-1.61,5.41l-3.43-3.62l-0.87,5.12l-4.43-3.43l-1.57,5.63l-3.81-3.92
				l-1.16,5.25l-3.95-3.82l-1.17,5.63l-4.03-3.43l-1.58,5.18l-3.1-3.61l-1.03,4.7l-4.2-3.02l-1.24,5.26l-3.58-3.59l-1.16,5.25
				l-4.34-4.19l-0.88,5.05l-3.76-3.26l-1.72,5.28l-3.93-3.22L69.95,103.29z"/>
			<line class="st4" x1="67.75" y1="112" x2="149.37" y2="86.65"/>
			<line class="st4" x1="66.82" y1="108.61" x2="148.16" y2="83.04"/>
			<line class="st4" x1="104.08" y1="214.76" x2="188.04" y2="187.53"/>
			<line class="st4" x1="105.71" y1="217.76" x2="188.27" y2="191.17"/>
			
				<ellipse transform="matrix(0.9821 -0.1884 0.1884 0.9821 -24.0405 25.9882)" class="st35" cx="124.68" cy="139.45" rx="30.83" ry="30.37"/>
			<polygon class="st43" points="142.2,150.83 141.6,143.47 148.29,147.9 150.38,139.88 155.83,146.29 159.91,139.87 161.39,147.57 
				168.42,144.84 165.2,151.47 170,156.35 162.43,155.36 163.53,161.54 157,158.25 155.18,164.52 151.32,159.85 148.41,165.82 
				145.78,160.07 142.23,166.47 141.65,159.68 134.28,161.6 139.66,155.86 133.96,151.07 			"/>
			<path class="st43" d="M113.15,184.93c0,0,49.3-15.77,50.33-16.07c1.03-0.3,2.78-0.51,3.85,2.47c1.4,3.89,2.24,6.84,2.4,7.64
				c0.15,0.79,0.23,3-2.9,3.71c-3.12,0.71-49.17,16.06-49.17,16.06s-3.36,1.3-4.6-1.51s-2.9-8.46-2.9-8.46
				S109.58,186.07,113.15,184.93z"/>
			<line class="st44" x1="119.97" y1="187.77" x2="160.33" y2="174.76"/>
			<line class="st44" x1="121.53" y1="191.63" x2="161.63" y2="178.67"/>
		</g>
		<polygon class="st12" points="74.32,87.7 45.2,89.17 42.92,118.22 40.33,89.1 11.19,86.81 40.4,84.22 43.8,55.09 45.27,84.31 		
			"/>
		<polygon class="st12" points="235,201.83 216.06,202.78 214.57,221.68 212.89,202.74 193.94,201.25 212.94,199.57 215.15,180.62 
			216.11,199.62 		"/>
	</g>
</g>
<g id="Capa_51">
</g>
<g id="Capa_52">
</g>
<g id="Capa_54">
</g>
<g id="Capa_53">
	<g id="Capa_55">
	</g>
</g>
<g id="Capa_56">
</g>
<g id="Capa_57">
</g>
<g id="Capa_58">
</g>
<g id="Capa_59">
</g>
<g id="Capa_60">
</g>
<g id="Capa_61">
</g>
<g id="Capa_63">
</g>
</svg>
