<?xml version="1.0" encoding="utf-8"?>
<!-- Generator: Adobe Illustrator 25.4.1, SVG Export Plug-In . SVG Version: 6.00 Build 0)  -->
<svg version="1.1" xmlns="http://www.w3.org/2000/svg" xmlns:xlink="http://www.w3.org/1999/xlink" x="0px" y="0px"
	 viewBox="0 0 297.27 273.12" style="enable-background:new 0 0 297.27 273.12;" xml:space="preserve">
<style type="text/css">
	.st0{fill:#3B86FF;stroke:#262262;stroke-miterlimit:10;}
	.st1{fill:#F2F2F1;stroke:#262262;stroke-miterlimit:10;}
	.st2{fill:#F2F2F1;stroke:#262262;stroke-linecap:round;stroke-linejoin:round;stroke-miterlimit:10;}
	.st3{fill:#3B86FF;}
	.st4{fill:none;stroke:#262262;stroke-miterlimit:10;}
	.st5{fill:#2AD575;stroke:#2A255C;stroke-miterlimit:10;}
	.st6{fill:#262262;}
	.st7{fill:#FF4D4E;}
	.st8{fill:#FFF000;}
	.st9{fill:#FFFFFF;}
	.st10{fill:#F78F2D;stroke:#262262;stroke-miterlimit:10;}
	.st11{fill:none;stroke:#FFF000;stroke-miterlimit:10;}
	.st12{fill:#FFFFFF;stroke:#262262;stroke-miterlimit:10;}
	.st13{fill:#CB84F0;stroke:#262262;stroke-miterlimit:10;}
	.st14{fill:#AD5D46;}
	.st15{fill:#7B3525;}
	.st16{fill:#F78F2D;}
	.st17{fill:#2AD575;}
	.st18{fill:none;stroke:#FF4D4E;stroke-miterlimit:10;}
	.st19{fill:none;stroke:#2AD575;stroke-miterlimit:10;}
	.st20{fill:none;stroke:#3B86FF;stroke-miterlimit:10;}
	.st21{fill:#577CBC;}
	.st22{fill:none;stroke:#2A255C;stroke-miterlimit:10;}
	.st23{clip-path:url(#SVGID_00000144334758780363493180000008628653526994003126_);}
	.st24{fill:none;stroke:#404440;stroke-miterlimit:10;}
	.st25{clip-path:url(#SVGID_00000049217297799875552590000003930116800076917388_);}
	.st26{fill:none;stroke:#000000;stroke-miterlimit:10;}
	.st27{fill:none;stroke:#7B3525;stroke-miterlimit:10;}
	.st28{fill:none;stroke:#000000;stroke-linecap:round;stroke-miterlimit:10;}
	.st29{fill:#F2F2F1;}
	.st30{fill:none;stroke:#2A255C;stroke-linecap:round;stroke-linejoin:round;stroke-miterlimit:10;}
	.st31{fill:none;stroke:#2A255C;stroke-linecap:round;stroke-miterlimit:10;}
	.st32{fill:none;}
	.st33{fill:#66DCCC;}
	.st34{fill:#F18D1B;stroke:#262262;stroke-miterlimit:10;}
	.st35{fill:#FF4D4E;stroke:#262262;stroke-miterlimit:10;}
	.st36{fill:#66DCCC;stroke:#262262;stroke-miterlimit:10;}
	.st37{fill:#FFFFFF;stroke:#262262;stroke-linejoin:round;stroke-miterlimit:10;}
	.st38{fill:none;stroke:#262262;stroke-linejoin:round;stroke-miterlimit:10;}
	.st39{fill:#FF376E;stroke:#262262;stroke-miterlimit:10;}
	.st40{fill:#E84448;stroke:#262262;stroke-miterlimit:10;}
	.st41{fill:#E63066;stroke:#262262;stroke-miterlimit:10;}
	.st42{fill:#3B86FF;stroke:#2A255C;stroke-miterlimit:10;}
	.st43{fill:#FFF000;stroke:#262262;stroke-miterlimit:10;}
	.st44{fill:#FFEA00;stroke:#262262;stroke-miterlimit:10;}
	.st45{fill:#2AD575;stroke:#262262;stroke-miterlimit:10;}
	.st46{fill:#FF4D4E;stroke:#2A255C;stroke-miterlimit:10;}
	.st47{fill:#FFEA00;stroke:#2A255C;stroke-miterlimit:10;}
	.st48{fill:#F18D1B;}
	.st49{opacity:0.36;fill:none;stroke:#F2F2F1;stroke-miterlimit:10;}
	.st50{fill:#CB84F0;stroke:#262262;stroke-linecap:round;stroke-linejoin:round;stroke-miterlimit:10;}
	.st51{fill:#FFFFFF;stroke:#262262;stroke-linecap:round;stroke-linejoin:round;stroke-miterlimit:10;}
	.st52{fill:none;stroke:#262262;stroke-linecap:round;stroke-linejoin:round;stroke-miterlimit:10;}
	.st53{fill:#2AD575;stroke:#262262;stroke-linecap:round;stroke-linejoin:round;stroke-miterlimit:10;}
	.st54{fill:#FFF000;stroke:#262262;stroke-linecap:round;stroke-linejoin:round;stroke-miterlimit:10;}
	.st55{fill:#2A255C;stroke:#262262;stroke-miterlimit:10;}
</style>
<g id="ECP">
	<g id="Capa_18">
	</g>
	<g id="Capa_19">
	</g>
	<g id="Capa_20">
	</g>
	<g id="Capa_20_copia">
	</g>
	<g id="Capa_21">
	</g>
	<g id="Capa_23">
	</g>
	<g id="Capa_22">
		<g id="Capa_24">
		</g>
	</g>
	<g id="Capa_26">
	</g>
</g>
<g id="Effective">
	<g id="Capa_36">
	</g>
	<g id="Capa_35">
	</g>
	<g id="Capa_38">
	</g>
	<g id="Capa_39">
		<g id="Capa_40">
		</g>
	</g>
	<g id="Capa_41">
	</g>
</g>
<g id="Condoms">
	<g id="Capa_42">
	</g>
	<g id="Capa_43">
	</g>
	<g id="Capa_44">
	</g>
	<g id="Capa_45">
	</g>
	<g id="Capa_46">
	</g>
	<g id="Capa_47">
	</g>
	<g id="Capa_48">
	</g>
	<g id="Capa_49">
	</g>
</g>
<g id="Capa_51">
</g>
<g id="Capa_52">
	<g>
		<g>
			<path class="st16" d="M90.53,59.93c0.16-1.55,1.55-2.68,3.1-2.5L229.6,72.68c1.55,0.17,2.68,1.58,2.51,3.13l-13.94,127.93
				c-0.17,1.55-1.57,2.68-3.12,2.5L80.13,191.11c-1.55-0.17-2.69-1.59-2.53-3.14L90.53,59.93z"/>
			<path class="st4" d="M90.53,59.93c0.16-1.55,1.55-2.68,3.1-2.5L229.6,72.68c1.55,0.17,2.68,1.58,2.51,3.13l-13.94,127.93
				c-0.17,1.55-1.57,2.68-3.12,2.5L80.13,191.11c-1.55-0.17-2.69-1.59-2.53-3.14L90.53,59.93z"/>
		</g>
		<path class="st8" d="M104.21,65.07c7.92,0.4,109.94,12.2,113.06,12.75c3.13,0.54,9.27,1.04,8.61,9.56
			c-0.66,8.52-11.49,102.48-11.49,102.48s-1.1,10.25-13.07,8.61c-11.97-1.64-107.75-12.08-107.75-12.08s-9.71-1.1-8.82-11.67
			c0.89-10.57,9.71-96.07,9.93-99.1C94.89,72.6,96.29,64.67,104.21,65.07z"/>
		<circle class="st48" cx="104.93" cy="75.99" r="1.35"/>
		<circle class="st16" cx="103.51" cy="88.64" r="1.35"/>
		<circle class="st16" cx="102.1" cy="101.22" r="1.35"/>
		<circle class="st16" cx="100.69" cy="113.8" r="1.35"/>
		<circle class="st16" cx="99.27" cy="126.45" r="1.35"/>
		<circle class="st16" cx="97.86" cy="139.03" r="1.35"/>
		<circle class="st16" cx="96.55" cy="150.72" r="1.35"/>
		<circle class="st16" cx="95.13" cy="163.37" r="1.35"/>
		<circle class="st16" cx="93.72" cy="175.95" r="1.35"/>
		<circle class="st16" cx="117.66" cy="77.42" r="1.35"/>
		<circle class="st16" cx="116.24" cy="90.07" r="1.35"/>
		<circle class="st16" cx="114.83" cy="102.65" r="1.35"/>
		<circle class="st16" cx="113.42" cy="115.23" r="1.35"/>
		<circle class="st16" cx="112" cy="127.88" r="1.35"/>
		<circle class="st16" cx="110.59" cy="140.46" r="1.35"/>
		<circle class="st16" cx="109.28" cy="152.15" r="1.35"/>
		<circle class="st16" cx="107.86" cy="164.8" r="1.35"/>
		<circle class="st16" cx="106.45" cy="177.38" r="1.35"/>
		<circle class="st16" cx="130.85" cy="78.9" r="1.35"/>
		<circle class="st16" cx="129.43" cy="91.55" r="1.35"/>
		<circle class="st16" cx="128.02" cy="104.13" r="1.35"/>
		<circle class="st16" cx="126.61" cy="116.71" r="1.35"/>
		<circle class="st16" cx="125.19" cy="129.36" r="1.35"/>
		<circle class="st16" cx="123.78" cy="141.94" r="1.35"/>
		<circle class="st16" cx="122.47" cy="153.63" r="1.35"/>
		<circle class="st16" cx="121.05" cy="166.27" r="1.35"/>
		<circle class="st16" cx="119.64" cy="178.85" r="1.35"/>
		<circle class="st16" cx="143.27" cy="80.29" r="1.35"/>
		<circle class="st16" cx="141.85" cy="92.94" r="1.35"/>
		<circle class="st16" cx="140.44" cy="105.52" r="1.35"/>
		<circle class="st16" cx="139.03" cy="118.1" r="1.35"/>
		<circle class="st16" cx="137.61" cy="130.75" r="1.35"/>
		<circle class="st16" cx="136.2" cy="143.33" r="1.35"/>
		<circle class="st16" cx="134.89" cy="155.02" r="1.35"/>
		<circle class="st16" cx="133.47" cy="167.67" r="1.35"/>
		<circle class="st16" cx="132.06" cy="180.25" r="1.35"/>
		<circle class="st16" cx="156" cy="81.72" r="1.35"/>
		<circle class="st16" cx="154.58" cy="94.37" r="1.35"/>
		<circle class="st16" cx="153.17" cy="106.95" r="1.35"/>
		<circle class="st16" cx="151.76" cy="119.53" r="1.35"/>
		<circle class="st16" cx="150.34" cy="132.18" r="1.35"/>
		<circle class="st16" cx="148.93" cy="144.76" r="1.35"/>
		<circle class="st16" cx="147.62" cy="156.45" r="1.35"/>
		<circle class="st16" cx="146.2" cy="169.09" r="1.35"/>
		<circle class="st16" cx="144.79" cy="181.68" r="1.35"/>
		<circle class="st16" cx="169.19" cy="83.2" r="1.35"/>
		<circle class="st16" cx="167.77" cy="95.85" r="1.35"/>
		<circle class="st16" cx="166.36" cy="108.43" r="1.35"/>
		<circle class="st16" cx="164.95" cy="121.01" r="1.35"/>
		<circle class="st16" cx="163.53" cy="133.66" r="1.35"/>
		<circle class="st16" cx="162.12" cy="146.24" r="1.35"/>
		<circle class="st16" cx="160.81" cy="157.93" r="1.35"/>
		<circle class="st16" cx="159.39" cy="170.57" r="1.35"/>
		<circle class="st16" cx="157.98" cy="183.15" r="1.35"/>
		<circle class="st16" cx="180.52" cy="84.47" r="1.35"/>
		<circle class="st16" cx="179.1" cy="97.12" r="1.35"/>
		<circle class="st16" cx="177.69" cy="109.7" r="1.35"/>
		<circle class="st16" cx="176.28" cy="122.28" r="1.35"/>
		<circle class="st16" cx="174.86" cy="134.93" r="1.35"/>
		<circle class="st16" cx="173.45" cy="147.51" r="1.35"/>
		<circle class="st16" cx="172.14" cy="159.2" r="1.35"/>
		<circle class="st16" cx="170.72" cy="171.85" r="1.35"/>
		<circle class="st16" cx="169.31" cy="184.43" r="1.35"/>
		<circle class="st16" cx="193.25" cy="85.9" r="1.35"/>
		<circle class="st16" cx="191.83" cy="98.55" r="1.35"/>
		<circle class="st16" cx="190.42" cy="111.13" r="1.35"/>
		<circle class="st16" cx="189.01" cy="123.71" r="1.35"/>
		<circle class="st16" cx="187.59" cy="136.35" r="1.35"/>
		<circle class="st16" cx="186.18" cy="148.93" r="1.35"/>
		<circle class="st16" cx="184.87" cy="160.62" r="1.35"/>
		<circle class="st16" cx="183.45" cy="173.27" r="1.35"/>
		<circle class="st16" cx="182.04" cy="185.85" r="1.35"/>
		<circle class="st16" cx="206.44" cy="87.38" r="1.35"/>
		<circle class="st16" cx="205.02" cy="100.02" r="1.35"/>
		<circle class="st16" cx="203.61" cy="112.61" r="1.35"/>
		<circle class="st16" cx="202.2" cy="125.19" r="1.35"/>
		<circle class="st16" cx="200.78" cy="137.83" r="1.35"/>
		<circle class="st16" cx="199.37" cy="150.41" r="1.35"/>
		<circle class="st16" cx="198.06" cy="162.1" r="1.35"/>
		<circle class="st16" cx="196.64" cy="174.75" r="1.35"/>
		<circle class="st16" cx="195.23" cy="187.33" r="1.35"/>
		<circle class="st16" cx="217.41" cy="88.61" r="1.35"/>
		<circle class="st16" cx="215.99" cy="101.26" r="1.35"/>
		<circle class="st16" cx="214.58" cy="113.84" r="1.35"/>
		<circle class="st16" cx="213.17" cy="126.42" r="1.35"/>
		<circle class="st16" cx="211.75" cy="139.06" r="1.35"/>
		<circle class="st16" cx="210.34" cy="151.64" r="1.35"/>
		<circle class="st16" cx="209.03" cy="163.33" r="1.35"/>
		<circle class="st16" cx="207.61" cy="175.98" r="1.35"/>
		<circle class="st16" cx="206.2" cy="188.56" r="1.35"/>
	</g>
</g>
<g id="Capa_54">
</g>
<g id="Capa_53">
	<g id="Capa_55">
	</g>
</g>
<g id="Capa_56">
</g>
<g id="Capa_57">
</g>
<g id="Capa_58">
</g>
<g id="Capa_59">
</g>
<g id="Capa_60">
</g>
<g id="Capa_61">
</g>
<g id="Capa_63">
</g>
</svg>
